<?xml version="1.0" standalone="no"?>
<!DOCTYPE svg PUBLIC "-//W3C//DTD SVG 1.1//EN" "http://www.w3.org/Graphics/SVG/1.1/DTD/svg11.dtd" >
<svg>
<defs>
<font id="RalewayW SemiBold" horiz-adv-x="250" >
<font-face units-per-em="100" ascent="80" descent="-20" />
<glyph unicode=" " horiz-adv-x="24.699999999999999" d="" />
<glyph unicode="!" horiz-adv-x="28.399999999999999" d="M8.699999999999999 25.300000000000001 C8.699999999999989 36.899999999999977 8.699999999999989 60.100000000000023 8.699999999999989 71.699999999999989 C11.449999999999989 71.699999999999989 16.949999999999989 71.699999999999989 19.699999999999989 71.699999999999989 C19.699999999999989 60.100000000000023 19.699999999999989 36.899999999999977 19.699999999999989 25.300000000000011 C16.949999999999989 25.300000000000011 11.449999999999989 25.300000000000011 8.699999999999989 25.300000000000011 zM8.699999999999999 0.000000000000000 C8.699999999999989 3.425000000000011 8.699999999999989 10.274999999999977 8.699999999999989 13.699999999999989 C11.449999999999989 13.699999999999989 16.949999999999989 13.699999999999989 19.699999999999989 13.699999999999989 C19.699999999999989 10.274999999999977 19.699999999999989 3.425000000000011 19.699999999999989 0.000000000000000 C16.949999999999989 0.000000000000000 11.449999999999989 0.000000000000000 8.699999999999989 0.000000000000000 z" />
<glyph unicode="&#x22;" horiz-adv-x="35.700000000000003" d="M6.400000000000000 50.100000000000001 C6.399999999999977 55.600000000000023 6.399999999999977 66.599999999999994 6.399999999999977 72.099999999999994 C8.750000000000000 72.099999999999994 13.449999999999989 72.099999999999994 15.800000000000011 72.099999999999994 C15.800000000000011 66.599999999999994 15.800000000000011 55.600000000000023 15.800000000000011 50.100000000000023 C13.449999999999989 50.100000000000023 8.750000000000000 50.100000000000023 6.399999999999977 50.100000000000023 zM19.899999999999999 50.100000000000001 C19.899999999999977 55.600000000000023 19.899999999999977 66.599999999999994 19.899999999999977 72.099999999999994 C22.250000000000000 72.099999999999994 26.949999999999989 72.099999999999994 29.300000000000011 72.099999999999994 C29.300000000000011 66.599999999999994 29.300000000000011 55.600000000000023 29.300000000000011 50.100000000000023 C26.949999999999989 50.100000000000023 22.250000000000000 50.100000000000023 19.899999999999977 50.100000000000023 z" />
<glyph unicode="#" horiz-adv-x="70.599999999999994" d="M66.900000000000006 43.600000000000001 C63.424999999999955 43.600000000000023 56.475000000000023 43.600000000000023 53.000000000000000 43.600000000000023 C52.049999999999955 39.649999999999977 50.149999999999977 31.750000000000000 49.200000000000045 27.800000000000011 C52.500000000000000 27.800000000000011 59.100000000000023 27.800000000000011 62.399999999999977 27.800000000000011 C62.399999999999977 25.699999999999989 62.399999999999977 21.500000000000000 62.399999999999977 19.399999999999977 C58.600000000000023 19.399999999999977 51.000000000000000 19.399999999999977 47.200000000000045 19.399999999999977 C46.024999999999977 14.550000000000011 43.674999999999955 4.850000000000023 42.500000000000000 0.000000000000000 C40.250000000000000 0.000000000000000 35.750000000000000 0.000000000000000 33.500000000000000 0.000000000000000 C34.699999999999989 4.850000000000023 37.100000000000023 14.550000000000011 38.300000000000011 19.399999999999977 C34.675000000000011 19.399999999999977 27.425000000000011 19.399999999999977 23.800000000000011 19.399999999999977 C22.625000000000000 14.550000000000011 20.274999999999977 4.850000000000023 19.100000000000023 0.000000000000000 C16.850000000000023 0.000000000000000 12.350000000000023 0.000000000000000 10.100000000000023 0.000000000000000 C11.324999999999989 4.850000000000023 13.774999999999977 14.550000000000011 15.000000000000000 19.399999999999977 C12.175000000000011 19.399999999999977 6.524999999999977 19.399999999999977 3.699999999999989 19.399999999999977 C3.699999999999989 21.500000000000000 3.699999999999989 25.699999999999989 3.699999999999989 27.800000000000011 C7.000000000000000 27.800000000000011 13.600000000000023 27.800000000000011 16.899999999999977 27.800000000000011 C17.850000000000023 31.750000000000000 19.750000000000000 39.649999999999977 20.699999999999989 43.600000000000023 C17.574999999999989 43.600000000000023 11.324999999999989 43.600000000000023 8.199999999999989 43.600000000000023 C8.199999999999989 45.550000000000011 8.199999999999989 49.449999999999989 8.199999999999989 51.399999999999977 C11.824999999999989 51.399999999999977 19.074999999999989 51.399999999999977 22.699999999999989 51.399999999999977 C23.875000000000000 56.300000000000011 26.225000000000023 66.099999999999994 27.399999999999977 71.000000000000000 C29.649999999999977 71.000000000000000 34.149999999999977 71.000000000000000 36.399999999999977 71.000000000000000 C35.199999999999989 66.099999999999994 32.800000000000011 56.300000000000011 31.600000000000023 51.399999999999977 C35.199999999999989 51.399999999999977 42.399999999999977 51.399999999999977 46.000000000000000 51.399999999999977 C47.200000000000045 56.300000000000011 49.600000000000023 66.099999999999994 50.799999999999955 71.000000000000000 C53.049999999999955 71.000000000000000 57.549999999999955 71.000000000000000 59.799999999999955 71.000000000000000 C58.575000000000045 66.099999999999994 56.125000000000000 56.300000000000011 54.899999999999977 51.399999999999977 C57.899999999999977 51.399999999999977 63.899999999999977 51.399999999999977 66.899999999999977 51.399999999999977 C66.899999999999977 49.449999999999989 66.899999999999977 45.550000000000011 66.899999999999977 43.600000000000023 zM40.299999999999997 27.800000000000001 C41.250000000000000 31.750000000000000 43.149999999999977 39.649999999999977 44.100000000000023 43.600000000000023 C40.475000000000023 43.600000000000023 33.225000000000023 43.600000000000023 29.600000000000023 43.600000000000023 C28.649999999999977 39.649999999999977 26.750000000000000 31.750000000000000 25.800000000000011 27.800000000000011 C29.425000000000011 27.800000000000011 36.675000000000011 27.800000000000011 40.300000000000011 27.800000000000011 z" />
<glyph unicode="$" horiz-adv-x="62.799999999999997" d="M50.899999999999999 54.299999999999997 Q50.000000000000000 55.300000000000011 48.250000000000000 56.449999999999989 Q46.500000000000000 57.600000000000023 44.200000000000045 58.600000000000023 Q41.899999999999977 59.699999999999989 39.149999999999977 60.449999999999989 Q36.399999999999977 61.199999999999989 33.500000000000000 61.399999999999977 C33.500000000000000 54.500000000000000 33.500000000000000 45.875000000000000 33.500000000000000 40.699999999999989 C33.975000000000023 40.600000000000023 34.925000000000011 40.399999999999977 35.399999999999977 40.300000000000011 Q40.800000000000011 39.000000000000000 45.149999999999977 37.399999999999977 Q49.500000000000000 35.800000000000011 52.500000000000000 33.500000000000000 Q55.500000000000000 31.199999999999989 57.149999999999977 27.850000000000023 Q58.799999999999955 24.500000000000000 58.799999999999955 19.699999999999989 Q58.799999999999955 14.399999999999977 56.899999999999977 10.649999999999977 Q55.000000000000000 6.899999999999977 51.600000000000023 4.399999999999977 Q48.299999999999955 1.899999999999977 43.850000000000023 0.650000000000034 Q39.399999999999977 -0.599999999999966 34.300000000000011 -0.699999999999989 C34.300000000000011 -4.199999999999989 34.300000000000011 -8.574999999999989 34.300000000000011 -11.199999999999989 C33.000000000000000 -11.199999999999989 30.399999999999977 -11.199999999999989 29.100000000000023 -11.199999999999989 C29.100000000000023 -8.524999999999977 29.100000000000023 -3.175000000000011 29.100000000000023 -0.500000000000000 Q21.899999999999977 0.000000000000000 15.399999999999977 2.350000000000023 Q8.899999999999977 4.699999999999989 3.500000000000000 8.899999999999977 C5.199999999999989 12.100000000000023 7.324999999999989 16.100000000000023 8.600000000000023 18.500000000000000 Q9.699999999999989 17.300000000000011 11.800000000000011 15.899999999999977 Q13.899999999999977 14.500000000000000 16.699999999999989 13.199999999999989 Q19.500000000000000 11.899999999999977 22.850000000000023 10.899999999999977 Q26.199999999999989 9.899999999999977 29.800000000000011 9.500000000000000 C29.800000000000011 16.399999999999977 29.800000000000011 25.024999999999977 29.800000000000011 30.199999999999989 Q29.199999999999989 30.399999999999977 28.550000000000011 30.550000000000011 Q27.899999999999977 30.699999999999989 27.300000000000011 30.899999999999977 Q22.000000000000000 32.300000000000011 18.050000000000011 33.850000000000023 Q14.100000000000023 35.399999999999977 11.500000000000000 37.600000000000023 Q8.899999999999977 39.800000000000011 7.550000000000011 42.750000000000000 Q6.199999999999989 45.699999999999989 6.199999999999989 49.899999999999977 Q6.199999999999989 54.800000000000011 7.899999999999977 58.600000000000023 Q9.600000000000023 62.399999999999977 12.699999999999989 65.099999999999994 Q15.800000000000011 67.900000000000006 19.949999999999989 69.449999999999989 Q24.100000000000023 71.000000000000000 29.100000000000023 71.400000000000006 C29.100000000000023 74.766666666666652 29.100000000000023 78.974999999999994 29.100000000000023 81.500000000000000 C30.399999999999977 81.500000000000000 33.000000000000000 81.500000000000000 34.300000000000011 81.500000000000000 C34.300000000000011 78.974999999999994 34.300000000000011 73.925000000000011 34.300000000000011 71.400000000000006 Q40.800000000000011 71.000000000000000 46.299999999999955 68.800000000000011 Q51.799999999999955 66.599999999999994 56.000000000000000 63.500000000000000 C54.299999999999955 60.433333333333337 52.174999999999955 56.600000000000023 50.899999999999977 54.300000000000011 zM46.799999999999997 18.500000000000000 Q46.799999999999955 22.899999999999977 43.299999999999955 25.149999999999977 Q39.800000000000011 27.399999999999977 33.500000000000000 29.199999999999989 C33.500000000000000 22.600000000000023 33.500000000000000 14.350000000000023 33.500000000000000 9.399999999999977 Q39.899999999999977 9.500000000000000 43.350000000000023 11.800000000000011 Q46.799999999999955 14.100000000000023 46.799999999999955 18.500000000000000 zM17.899999999999999 51.700000000000003 Q17.899999999999977 47.500000000000000 20.850000000000023 45.399999999999977 Q23.800000000000011 43.300000000000011 29.800000000000011 41.699999999999989 C29.800000000000011 48.266666666666652 29.800000000000011 56.475000000000023 29.800000000000011 61.399999999999977 Q23.699999999999989 61.100000000000023 20.800000000000011 58.550000000000011 Q17.899999999999977 56.000000000000000 17.899999999999977 51.699999999999989 z" />
<glyph unicode="%" horiz-adv-x="75.799999999999997" d="M19.500000000000000 42.299999999999997 Q16.199999999999989 42.300000000000011 13.300000000000011 43.449999999999989 Q10.399999999999977 44.600000000000023 8.199999999999989 46.600000000000023 Q6.100000000000023 48.600000000000023 4.850000000000023 51.300000000000011 Q3.600000000000023 54.000000000000000 3.600000000000023 57.100000000000023 Q3.600000000000023 60.199999999999989 4.850000000000023 62.900000000000006 Q6.100000000000023 65.599999999999994 8.199999999999989 67.599999999999994 Q10.399999999999977 69.699999999999989 13.300000000000011 70.849999999999994 Q16.199999999999989 72.000000000000000 19.500000000000000 72.000000000000000 Q22.800000000000011 72.000000000000000 25.699999999999989 70.849999999999994 Q28.600000000000023 69.699999999999989 30.699999999999989 67.599999999999994 Q32.899999999999977 65.599999999999994 34.149999999999977 62.900000000000006 Q35.399999999999977 60.199999999999989 35.399999999999977 57.100000000000023 Q35.399999999999977 54.000000000000000 34.149999999999977 51.300000000000011 Q32.899999999999977 48.600000000000023 30.699999999999989 46.600000000000023 Q28.600000000000023 44.600000000000023 25.699999999999989 43.449999999999989 Q22.800000000000011 42.300000000000011 19.500000000000000 42.300000000000011 zM19.500000000000000 48.000000000000000 Q21.199999999999989 48.000000000000000 22.649999999999977 48.750000000000000 Q24.100000000000023 49.500000000000000 25.199999999999989 50.699999999999989 Q26.300000000000011 52.000000000000000 26.949999999999989 53.649999999999977 Q27.600000000000023 55.300000000000011 27.600000000000023 57.100000000000023 Q27.600000000000023 59.000000000000000 26.949999999999989 60.699999999999989 Q26.300000000000011 62.399999999999977 25.199999999999989 63.599999999999994 Q24.100000000000023 64.900000000000006 22.600000000000023 65.599999999999994 Q21.100000000000023 66.300000000000011 19.500000000000000 66.300000000000011 Q16.100000000000023 66.300000000000011 13.750000000000000 63.550000000000011 Q11.399999999999977 60.800000000000011 11.399999999999977 57.100000000000023 Q11.399999999999977 55.199999999999989 12.050000000000011 53.550000000000011 Q12.699999999999989 51.899999999999977 13.800000000000011 50.600000000000023 Q14.899999999999977 49.399999999999977 16.350000000000023 48.699999999999989 Q17.800000000000011 48.000000000000000 19.500000000000000 48.000000000000000 zM56.299999999999997 -1.000000000000000 Q53.000000000000000 -1.000000000000000 50.100000000000023 0.149999999999977 Q47.200000000000045 1.300000000000011 45.000000000000000 3.300000000000011 Q42.899999999999977 5.399999999999977 41.649999999999977 8.100000000000023 Q40.399999999999977 10.800000000000011 40.399999999999977 13.899999999999977 Q40.399999999999977 17.000000000000000 41.649999999999977 19.699999999999989 Q42.899999999999977 22.399999999999977 45.000000000000000 24.399999999999977 Q47.200000000000045 26.399999999999977 50.100000000000023 27.550000000000011 Q53.000000000000000 28.699999999999989 56.299999999999955 28.699999999999989 Q59.600000000000023 28.699999999999989 62.500000000000000 27.550000000000011 Q65.399999999999977 26.399999999999977 67.500000000000000 24.399999999999977 Q69.700000000000045 22.399999999999977 70.950000000000045 19.699999999999989 Q72.200000000000045 17.000000000000000 72.200000000000045 13.899999999999977 Q72.200000000000045 10.800000000000011 70.950000000000045 8.100000000000023 Q69.700000000000045 5.399999999999977 67.500000000000000 3.300000000000011 Q65.399999999999977 1.300000000000011 62.500000000000000 0.149999999999977 Q59.600000000000023 -1.000000000000000 56.299999999999955 -1.000000000000000 zM56.299999999999997 4.700000000000000 Q59.700000000000045 4.699999999999989 62.049999999999955 7.399999999999977 Q64.399999999999977 10.100000000000023 64.399999999999977 13.899999999999977 Q64.399999999999977 15.800000000000011 63.750000000000000 17.449999999999989 Q63.100000000000023 19.100000000000023 61.899999999999977 20.300000000000011 Q60.799999999999955 21.600000000000023 59.350000000000023 22.300000000000011 Q57.899999999999977 23.000000000000000 56.299999999999955 23.000000000000000 Q54.600000000000023 23.000000000000000 53.149999999999977 22.250000000000000 Q51.700000000000045 21.500000000000000 50.600000000000023 20.199999999999989 Q49.500000000000000 19.000000000000000 48.850000000000023 17.350000000000023 Q48.200000000000045 15.699999999999989 48.200000000000045 13.899999999999977 Q48.200000000000045 12.000000000000000 48.850000000000023 10.300000000000011 Q49.500000000000000 8.600000000000023 50.600000000000023 7.300000000000011 Q51.700000000000045 6.100000000000023 53.149999999999977 5.399999999999977 Q54.600000000000023 4.699999999999989 56.299999999999955 4.699999999999989 zM8.100000000000000 4.000000000000000 C15.125000000000000 12.324999999999989 29.175000000000011 28.975000000000023 36.199999999999989 37.300000000000011 C42.800000000000011 45.875000000000000 56.000000000000000 63.024999999999977 62.600000000000023 71.599999999999994 C63.899999999999977 70.474999999999994 66.500000000000000 68.224999999999994 67.799999999999955 67.099999999999994 C60.899999999999977 58.875000000000000 47.100000000000023 42.425000000000011 40.199999999999989 34.199999999999989 C33.449999999999989 25.500000000000000 19.949999999999989 8.100000000000023 13.199999999999989 -0.600000000000023 C11.925000000000011 0.550000000000011 9.375000000000000 2.850000000000023 8.100000000000023 4.000000000000000 z" />
<glyph unicode="&#x26;" horiz-adv-x="69.599999999999994" d="M54.799999999999997 0.000000000000000 C53.174999999999955 1.699999999999989 49.924999999999955 5.100000000000023 48.299999999999955 6.800000000000011 Q43.899999999999977 3.000000000000000 38.649999999999977 1.000000000000000 Q33.399999999999977 -1.000000000000000 27.699999999999989 -1.000000000000000 Q22.500000000000000 -1.000000000000000 18.199999999999989 0.600000000000023 Q13.899999999999977 2.199999999999989 10.800000000000011 4.899999999999977 Q7.699999999999989 7.699999999999989 6.000000000000000 11.449999999999989 Q4.300000000000011 15.199999999999989 4.300000000000011 19.399999999999977 Q4.300000000000011 22.800000000000011 5.350000000000023 25.699999999999989 Q6.399999999999977 28.600000000000023 8.199999999999989 31.100000000000023 Q10.000000000000000 33.600000000000023 12.399999999999977 35.699999999999989 Q14.800000000000011 37.800000000000011 17.399999999999977 39.600000000000023 Q15.100000000000023 42.100000000000023 13.550000000000011 44.199999999999989 Q12.000000000000000 46.300000000000011 11.000000000000000 48.100000000000023 Q10.100000000000023 50.000000000000000 9.649999999999977 51.750000000000000 Q9.199999999999989 53.500000000000000 9.199999999999989 55.399999999999977 Q9.199999999999989 59.000000000000000 10.649999999999977 62.050000000000011 Q12.100000000000023 65.099999999999994 14.600000000000023 67.300000000000011 Q17.100000000000023 69.500000000000000 20.550000000000011 70.699999999999989 Q24.000000000000000 71.900000000000006 28.000000000000000 71.900000000000006 Q31.600000000000023 71.900000000000006 34.899999999999977 70.900000000000006 Q38.199999999999989 69.900000000000006 40.699999999999989 68.000000000000000 Q43.200000000000045 66.099999999999994 44.649999999999977 63.250000000000000 Q46.100000000000023 60.399999999999977 46.100000000000023 56.800000000000011 Q46.100000000000023 53.800000000000011 45.049999999999955 51.300000000000011 Q44.000000000000000 48.800000000000011 42.199999999999989 46.500000000000000 Q40.399999999999977 44.300000000000011 37.949999999999989 42.250000000000000 Q35.500000000000000 40.199999999999989 32.699999999999989 38.300000000000011 C38.033333333333360 32.699999999999989 44.700000000000045 25.699999999999989 48.700000000000045 21.500000000000000 Q50.399999999999977 25.000000000000000 51.350000000000023 29.050000000000011 Q52.299999999999955 33.100000000000023 52.299999999999955 37.699999999999989 C55.299999999999955 37.699999999999989 59.049999999999955 37.699999999999989 61.299999999999955 37.699999999999989 Q61.200000000000045 30.899999999999977 59.600000000000023 25.149999999999977 Q58.000000000000000 19.399999999999977 55.100000000000023 14.800000000000011 C59.833333333333371 9.866666666666674 65.750000000000000 3.699999999999989 69.299999999999955 0.000000000000000 C65.674999999999955 0.000000000000000 58.424999999999955 0.000000000000000 54.799999999999955 0.000000000000000 zM28.899999999999999 7.700000000000000 Q32.600000000000023 7.699999999999989 36.050000000000011 9.100000000000023 Q39.500000000000000 10.500000000000000 42.399999999999977 13.100000000000023 C36.266666666666652 19.600000000000023 28.600000000000023 27.725000000000023 24.000000000000000 32.600000000000023 Q19.899999999999977 29.699999999999989 17.399999999999977 26.500000000000000 Q14.899999999999977 23.300000000000011 14.899999999999977 19.300000000000011 Q14.899999999999977 16.699999999999989 16.000000000000000 14.550000000000011 Q17.100000000000023 12.399999999999977 19.000000000000000 10.899999999999977 Q21.000000000000000 9.399999999999977 23.500000000000000 8.550000000000011 Q26.000000000000000 7.699999999999989 28.899999999999977 7.699999999999989 zM19.300000000000001 55.700000000000003 Q19.300000000000011 54.699999999999989 19.600000000000023 53.750000000000000 Q19.899999999999977 52.800000000000011 20.600000000000023 51.600000000000023 Q21.399999999999977 50.399999999999977 22.750000000000000 48.899999999999977 Q24.100000000000023 47.399999999999977 26.100000000000023 45.199999999999989 Q30.699999999999989 48.100000000000023 33.350000000000023 50.750000000000000 Q36.000000000000000 53.399999999999977 36.000000000000000 56.600000000000023 Q36.000000000000000 59.800000000000011 33.750000000000000 61.750000000000000 Q31.500000000000000 63.699999999999989 28.000000000000000 63.699999999999989 Q24.199999999999989 63.699999999999989 21.750000000000000 61.350000000000023 Q19.300000000000011 59.000000000000000 19.300000000000011 55.699999999999989 z" />
<glyph unicode="'" horiz-adv-x="22.199999999999999" d="M6.400000000000000 50.000000000000000 C6.399999999999977 55.524999999999977 6.399999999999977 66.574999999999989 6.399999999999977 72.099999999999994 C8.750000000000000 72.099999999999994 13.449999999999989 72.099999999999994 15.800000000000011 72.099999999999994 C15.800000000000011 66.574999999999989 15.800000000000011 55.524999999999977 15.800000000000011 50.000000000000000 C13.449999999999989 50.000000000000000 8.750000000000000 50.000000000000000 6.399999999999977 50.000000000000000 z" />
<glyph unicode="(" horiz-adv-x="29.600000000000001" d="M3.800000000000000 34.600000000000001 Q3.800000000000011 39.699999999999989 4.949999999999989 44.699999999999989 Q6.100000000000023 49.699999999999989 8.000000000000000 54.699999999999989 Q10.000000000000000 59.800000000000011 12.649999999999977 64.849999999999994 Q15.300000000000011 69.900000000000006 18.300000000000011 75.000000000000000 C21.133333333333326 73.800000000000011 24.675000000000011 72.300000000000011 26.800000000000011 71.400000000000006 Q25.000000000000000 68.800000000000011 22.800000000000011 64.550000000000011 Q20.600000000000023 60.300000000000011 18.600000000000023 55.199999999999989 Q16.699999999999989 50.199999999999989 15.399999999999977 44.750000000000000 Q14.100000000000023 39.300000000000011 14.100000000000023 34.300000000000011 Q14.100000000000023 26.399999999999977 17.449999999999989 17.500000000000000 Q20.800000000000011 8.600000000000023 26.500000000000000 -0.600000000000023 C23.833333333333314 -1.966666666666640 20.500000000000000 -3.675000000000011 18.500000000000000 -4.699999999999989 Q12.199999999999989 4.699999999999989 8.000000000000000 14.649999999999977 Q3.800000000000011 24.600000000000023 3.800000000000011 34.600000000000023 z" />
<glyph unicode=")" horiz-adv-x="29.600000000000001" d="M25.699999999999999 34.600000000000001 Q25.699999999999989 24.600000000000023 21.550000000000011 14.649999999999977 Q17.399999999999977 4.699999999999989 11.100000000000023 -4.699999999999989 C8.399999999999977 -3.333333333333314 5.024999999999977 -1.625000000000000 3.000000000000000 -0.600000000000023 Q8.699999999999989 8.600000000000023 12.100000000000023 17.500000000000000 Q15.500000000000000 26.399999999999977 15.500000000000000 34.300000000000011 Q15.500000000000000 39.300000000000011 14.149999999999977 44.750000000000000 Q12.800000000000011 50.199999999999989 10.800000000000011 55.199999999999989 Q8.899999999999977 60.300000000000011 6.699999999999989 64.550000000000011 Q4.500000000000000 68.800000000000011 2.800000000000011 71.400000000000006 C5.600000000000023 72.600000000000023 9.100000000000023 74.099999999999994 11.199999999999989 75.000000000000000 Q14.199999999999989 69.900000000000006 16.850000000000023 64.849999999999994 Q19.500000000000000 59.800000000000011 21.399999999999977 54.699999999999989 Q23.399999999999977 49.699999999999989 24.550000000000011 44.699999999999989 Q25.699999999999989 39.699999999999989 25.699999999999989 34.600000000000023 z" />
<glyph unicode="*" horiz-adv-x="33.700000000000003" d="M8.000000000000000 53.000000000000000 C9.125000000000000 54.675000000000011 11.375000000000000 58.024999999999977 12.500000000000000 59.699999999999989 C10.750000000000000 60.250000000000000 7.250000000000000 61.350000000000023 5.500000000000000 61.899999999999977 C5.899999999999977 63.150000000000006 6.699999999999989 65.650000000000006 7.100000000000023 66.900000000000006 C8.875000000000000 66.175000000000011 12.425000000000011 64.724999999999994 14.199999999999989 64.000000000000000 C14.100000000000023 65.900000000000006 13.899999999999977 69.699999999999989 13.800000000000011 71.599999999999994 C15.324999999999989 71.599999999999994 18.375000000000000 71.599999999999994 19.899999999999977 71.599999999999994 C19.800000000000011 69.699999999999989 19.600000000000023 65.900000000000006 19.500000000000000 64.000000000000000 C21.274999999999977 64.724999999999994 24.824999999999989 66.175000000000011 26.600000000000023 66.900000000000006 C26.975000000000023 65.650000000000006 27.725000000000023 63.150000000000006 28.100000000000023 61.899999999999977 C26.375000000000000 61.350000000000023 22.925000000000011 60.250000000000000 21.199999999999989 59.699999999999989 C22.324999999999989 58.024999999999977 24.574999999999989 54.675000000000011 25.699999999999989 53.000000000000000 C24.600000000000023 52.250000000000000 22.399999999999977 50.750000000000000 21.300000000000011 50.000000000000000 C20.199999999999989 51.774999999999977 18.000000000000000 55.324999999999989 16.899999999999977 57.100000000000023 C15.774999999999977 55.324999999999989 13.524999999999977 51.774999999999977 12.399999999999977 50.000000000000000 C11.300000000000011 50.750000000000000 9.100000000000023 52.250000000000000 8.000000000000000 53.000000000000000 z" />
<glyph unicode="+" horiz-adv-x="41.899999999999999" d="M37.000000000000000 39.899999999999999 C37.000000000000000 37.699999999999989 37.000000000000000 33.300000000000011 37.000000000000000 31.100000000000023 C34.225000000000023 31.100000000000023 28.675000000000011 31.100000000000023 25.899999999999977 31.100000000000023 C25.899999999999977 28.074999999999989 25.899999999999977 22.024999999999977 25.899999999999977 19.000000000000000 C23.425000000000011 19.000000000000000 18.475000000000023 19.000000000000000 16.000000000000000 19.000000000000000 C16.000000000000000 22.024999999999977 16.000000000000000 28.074999999999989 16.000000000000000 31.100000000000023 C13.225000000000023 31.100000000000023 7.675000000000011 31.100000000000023 4.899999999999977 31.100000000000023 C4.899999999999977 33.300000000000011 4.899999999999977 37.699999999999989 4.899999999999977 39.899999999999977 C7.675000000000011 39.899999999999977 13.225000000000023 39.899999999999977 16.000000000000000 39.899999999999977 C16.000000000000000 42.925000000000011 16.000000000000000 48.975000000000023 16.000000000000000 52.000000000000000 C18.475000000000023 52.000000000000000 23.425000000000011 52.000000000000000 25.899999999999977 52.000000000000000 C25.899999999999977 48.975000000000023 25.899999999999977 42.925000000000011 25.899999999999977 39.899999999999977 C28.675000000000011 39.899999999999977 34.225000000000023 39.899999999999977 37.000000000000000 39.899999999999977 z" />
<glyph unicode="," horiz-adv-x="22.100000000000001" d="M7.300000000000000 -9.699999999999999 C7.899999999999977 -7.125000000000000 9.100000000000023 -1.975000000000023 9.699999999999989 0.600000000000023 C8.800000000000011 0.600000000000023 7.000000000000000 0.600000000000023 6.100000000000023 0.600000000000023 C6.100000000000023 3.649999999999977 6.100000000000023 9.750000000000000 6.100000000000023 12.800000000000011 C8.574999999999989 12.800000000000011 13.524999999999977 12.800000000000011 16.000000000000000 12.800000000000011 C16.000000000000000 9.750000000000000 16.000000000000000 3.649999999999977 16.000000000000000 0.600000000000023 C15.125000000000000 -1.975000000000023 13.375000000000000 -7.125000000000000 12.500000000000000 -9.699999999999989 C11.199999999999989 -9.699999999999989 8.600000000000023 -9.699999999999989 7.300000000000011 -9.699999999999989 z" />
<glyph unicode="-" horiz-adv-x="42.100000000000001" d="M6.100000000000000 22.399999999999999 C6.100000000000023 24.875000000000000 6.100000000000023 29.824999999999989 6.100000000000023 32.300000000000011 C13.574999999999989 32.300000000000011 28.524999999999977 32.300000000000011 36.000000000000000 32.300000000000011 C36.000000000000000 29.824999999999989 36.000000000000000 24.875000000000000 36.000000000000000 22.399999999999977 C28.524999999999977 22.399999999999977 13.574999999999989 22.399999999999977 6.100000000000023 22.399999999999977 z" />
<glyph unicode="." horiz-adv-x="21.300000000000001" d="M6.100000000000000 0.000000000000000 C6.100000000000023 3.199999999999989 6.100000000000023 9.600000000000023 6.100000000000023 12.800000000000011 C8.375000000000000 12.800000000000011 12.925000000000011 12.800000000000011 15.199999999999989 12.800000000000011 C15.199999999999989 9.600000000000023 15.199999999999989 3.199999999999989 15.199999999999989 0.000000000000000 C12.925000000000011 0.000000000000000 8.375000000000000 0.000000000000000 6.100000000000023 0.000000000000000 z" />
<glyph unicode="/" horiz-adv-x="66.400000000000006" d="M63.600000000000001 71.000000000000000 C51.424999999999955 53.250000000000000 27.074999999999989 17.750000000000000 14.899999999999977 0.000000000000000 C11.850000000000023 0.000000000000000 5.750000000000000 0.000000000000000 2.699999999999989 0.000000000000000 C14.875000000000000 17.750000000000000 39.225000000000023 53.250000000000000 51.399999999999977 71.000000000000000 C54.450000000000045 71.000000000000000 60.549999999999955 71.000000000000000 63.600000000000023 71.000000000000000 z" />
<glyph unicode="0" horiz-adv-x="61.399999999999999" d="M56.299999999999997 29.300000000000001 Q56.299999999999955 22.699999999999989 54.350000000000023 17.149999999999977 Q52.399999999999977 11.600000000000023 48.899999999999977 7.500000000000000 Q45.500000000000000 3.500000000000000 40.850000000000023 1.250000000000000 Q36.199999999999989 -1.000000000000000 30.699999999999989 -1.000000000000000 Q25.199999999999989 -1.000000000000000 20.500000000000000 1.250000000000000 Q15.800000000000011 3.500000000000000 12.399999999999977 7.500000000000000 Q9.000000000000000 11.600000000000023 7.050000000000011 17.149999999999977 Q5.100000000000023 22.699999999999989 5.100000000000023 29.300000000000011 Q5.100000000000023 35.899999999999977 7.050000000000011 41.449999999999989 Q9.000000000000000 47.000000000000000 12.399999999999977 51.000000000000000 Q15.800000000000011 55.100000000000023 20.500000000000000 57.399999999999977 Q25.199999999999989 59.699999999999989 30.699999999999989 59.699999999999989 Q36.199999999999989 59.699999999999989 40.850000000000023 57.399999999999977 Q45.500000000000000 55.100000000000023 48.899999999999977 51.000000000000000 Q52.399999999999977 47.000000000000000 54.350000000000023 41.449999999999989 Q56.299999999999955 35.899999999999977 56.299999999999955 29.300000000000011 zM45.100000000000001 29.300000000000001 Q45.100000000000023 33.800000000000011 44.049999999999955 37.500000000000000 Q43.000000000000000 41.199999999999989 41.000000000000000 43.899999999999977 Q39.100000000000023 46.600000000000023 36.449999999999989 48.050000000000011 Q33.800000000000011 49.500000000000000 30.699999999999989 49.500000000000000 Q27.399999999999977 49.500000000000000 24.750000000000000 48.050000000000011 Q22.100000000000023 46.600000000000023 20.100000000000023 43.899999999999977 Q18.199999999999989 41.199999999999989 17.149999999999977 37.500000000000000 Q16.100000000000023 33.800000000000011 16.100000000000023 29.300000000000011 Q16.100000000000023 24.800000000000011 17.149999999999977 21.100000000000023 Q18.199999999999989 17.399999999999977 20.100000000000023 14.699999999999989 Q22.100000000000023 12.100000000000023 24.750000000000000 10.649999999999977 Q27.399999999999977 9.199999999999989 30.699999999999989 9.199999999999989 Q33.800000000000011 9.199999999999989 36.449999999999989 10.649999999999977 Q39.100000000000023 12.100000000000023 41.000000000000000 14.699999999999989 Q43.000000000000000 17.399999999999977 44.049999999999955 21.100000000000023 Q45.100000000000023 24.800000000000011 45.100000000000023 29.300000000000011 z" />
<glyph unicode="1" horiz-adv-x="47.100000000000001" d="M44.700000000000003 9.900000000000000 C44.700000000000045 7.425000000000011 44.700000000000045 2.475000000000023 44.700000000000045 0.000000000000000 C35.149999999999977 0.000000000000000 16.050000000000011 0.000000000000000 6.500000000000000 0.000000000000000 C6.500000000000000 2.475000000000023 6.500000000000000 7.425000000000011 6.500000000000000 9.899999999999977 C10.050000000000011 9.899999999999977 17.149999999999977 9.899999999999977 20.699999999999989 9.899999999999977 C20.699999999999989 18.625000000000000 20.699999999999989 36.074999999999989 20.699999999999989 44.800000000000011 Q19.800000000000011 43.600000000000023 17.899999999999977 42.300000000000011 Q16.000000000000000 41.000000000000000 13.699999999999989 39.899999999999977 Q11.399999999999977 38.800000000000011 8.899999999999977 38.050000000000011 Q6.399999999999977 37.300000000000011 4.500000000000000 37.300000000000011 C4.500000000000000 40.733333333333348 4.500000000000000 45.024999999999977 4.500000000000000 47.600000000000023 Q6.500000000000000 47.600000000000023 9.149999999999977 48.800000000000011 Q11.800000000000011 50.000000000000000 14.199999999999989 51.600000000000023 Q16.699999999999989 53.199999999999989 18.550000000000011 54.800000000000011 Q20.399999999999977 56.399999999999977 20.699999999999989 57.100000000000023 C24.466666666666640 57.100000000000023 29.175000000000011 57.100000000000023 32.000000000000000 57.100000000000023 C32.000000000000000 45.300000000000011 32.000000000000000 21.699999999999989 32.000000000000000 9.899999999999977 C35.175000000000011 9.899999999999977 41.524999999999977 9.899999999999977 44.700000000000045 9.899999999999977 z" />
<glyph unicode="2" horiz-adv-x="54.899999999999999" d="M4.000000000000000 0.000000000000000 Q4.000000000000000 4.199999999999989 4.699999999999989 7.800000000000011 Q5.399999999999977 11.399999999999977 7.199999999999989 14.500000000000000 Q9.000000000000000 17.699999999999989 12.100000000000023 20.550000000000011 Q15.199999999999989 23.399999999999977 20.100000000000023 26.100000000000023 Q23.600000000000023 28.000000000000000 26.699999999999989 29.600000000000023 Q29.800000000000011 31.199999999999989 32.100000000000023 32.699999999999989 Q34.500000000000000 34.300000000000011 35.899999999999977 36.050000000000011 Q37.300000000000011 37.800000000000011 37.300000000000011 40.100000000000023 Q37.300000000000011 43.300000000000011 34.550000000000011 45.850000000000023 Q31.800000000000011 48.399999999999977 26.600000000000023 48.399999999999977 Q23.899999999999977 48.399999999999977 21.649999999999977 47.649999999999977 Q19.399999999999977 46.899999999999977 17.500000000000000 45.699999999999989 Q15.699999999999989 44.600000000000023 14.300000000000011 43.199999999999989 Q12.899999999999977 41.800000000000011 11.800000000000011 40.500000000000000 C9.466666666666697 43.199999999999989 6.550000000000011 46.574999999999989 4.800000000000011 48.600000000000023 Q5.800000000000011 49.699999999999989 7.949999999999989 51.350000000000023 Q10.100000000000023 53.000000000000000 13.100000000000023 54.500000000000000 Q16.199999999999989 56.000000000000000 20.100000000000023 57.050000000000011 Q24.000000000000000 58.100000000000023 28.600000000000023 58.100000000000023 Q33.399999999999977 58.100000000000023 37.250000000000000 56.850000000000023 Q41.100000000000023 55.600000000000023 43.700000000000045 53.399999999999977 Q46.399999999999977 51.199999999999989 47.799999999999955 48.149999999999977 Q49.200000000000045 45.100000000000023 49.200000000000045 41.600000000000023 Q49.200000000000045 37.899999999999977 47.700000000000045 35.000000000000000 Q46.200000000000045 32.100000000000023 44.000000000000000 29.899999999999977 Q41.800000000000011 27.699999999999989 39.199999999999989 26.149999999999977 Q36.600000000000023 24.600000000000023 34.399999999999977 23.500000000000000 Q32.300000000000011 22.500000000000000 29.649999999999977 21.149999999999977 Q27.000000000000000 19.800000000000011 24.500000000000000 18.000000000000000 Q22.000000000000000 16.300000000000011 20.000000000000000 14.300000000000011 Q18.000000000000000 12.300000000000011 17.199999999999989 9.899999999999977 C28.233333333333348 9.899999999999977 42.024999999999977 9.899999999999977 50.299999999999955 9.899999999999977 C50.299999999999955 7.425000000000011 50.299999999999955 2.475000000000023 50.299999999999955 0.000000000000000 C38.725000000000023 0.000000000000000 15.574999999999989 0.000000000000000 4.000000000000000 0.000000000000000 z" />
<glyph unicode="3" horiz-adv-x="54.899999999999999" d="M36.899999999999999 23.600000000000001 Q40.000000000000000 23.000000000000000 42.600000000000023 21.449999999999989 Q45.200000000000045 19.899999999999977 47.000000000000000 17.600000000000023 Q48.799999999999955 15.300000000000011 49.799999999999955 12.300000000000011 Q50.799999999999955 9.300000000000011 50.799999999999955 5.800000000000011 Q50.799999999999955 1.100000000000023 49.049999999999955 -2.649999999999977 Q47.299999999999955 -6.399999999999977 44.000000000000000 -9.100000000000023 Q40.800000000000011 -11.800000000000011 36.199999999999989 -13.250000000000000 Q31.600000000000023 -14.699999999999989 25.899999999999977 -14.699999999999989 Q18.300000000000011 -14.699999999999989 12.500000000000000 -12.050000000000011 Q6.699999999999989 -9.399999999999977 3.199999999999989 -4.399999999999977 C5.433333333333337 -1.866666666666674 8.225000000000023 1.300000000000011 9.899999999999977 3.199999999999989 Q12.300000000000011 -0.500000000000000 16.100000000000023 -2.600000000000023 Q19.899999999999977 -4.699999999999989 25.699999999999989 -4.699999999999989 Q32.300000000000011 -4.699999999999989 35.850000000000023 -1.899999999999977 Q39.399999999999977 0.899999999999977 39.399999999999977 6.500000000000000 Q39.399999999999977 12.300000000000011 35.399999999999977 15.600000000000023 Q31.399999999999977 18.899999999999977 23.600000000000023 18.899999999999977 C22.699999999999989 18.899999999999977 21.574999999999989 18.899999999999977 20.899999999999977 18.899999999999977 C20.899999999999977 21.050000000000011 20.899999999999977 25.350000000000023 20.899999999999977 27.500000000000000 C21.649999999999977 27.500000000000000 23.149999999999977 27.500000000000000 23.899999999999977 27.500000000000000 Q30.600000000000023 27.500000000000000 34.199999999999989 30.649999999999977 Q37.800000000000011 33.800000000000011 37.800000000000011 38.600000000000023 Q37.800000000000011 43.399999999999977 34.600000000000023 45.649999999999977 Q31.399999999999977 47.899999999999977 26.300000000000011 47.899999999999977 Q21.199999999999989 47.899999999999977 17.300000000000011 45.699999999999989 Q13.399999999999977 43.500000000000000 11.100000000000023 39.399999999999977 C8.800000000000011 41.899999999999977 5.925000000000011 45.024999999999977 4.199999999999989 46.899999999999977 Q5.600000000000023 49.300000000000011 8.000000000000000 51.250000000000000 Q10.399999999999977 53.199999999999989 13.399999999999977 54.600000000000023 Q16.500000000000000 56.100000000000023 20.050000000000011 56.850000000000023 Q23.600000000000023 57.600000000000023 27.399999999999977 57.600000000000023 Q32.300000000000011 57.600000000000023 36.350000000000023 56.300000000000011 Q40.399999999999977 55.000000000000000 43.299999999999955 52.699999999999989 Q46.299999999999955 50.399999999999977 47.899999999999977 47.100000000000023 Q49.500000000000000 43.800000000000011 49.500000000000000 39.800000000000011 Q49.500000000000000 36.800000000000011 48.600000000000023 34.100000000000023 Q47.700000000000045 31.399999999999977 46.000000000000000 29.199999999999989 Q44.399999999999977 27.000000000000000 42.100000000000023 25.550000000000011 Q39.800000000000011 24.100000000000023 36.899999999999977 23.600000000000023 z" />
<glyph unicode="4" horiz-adv-x="56.399999999999999" d="M32.899999999999999 -12.699999999999999 C32.899999999999977 -8.725000000000023 32.899999999999977 -0.774999999999977 32.899999999999977 3.199999999999989 C25.225000000000023 3.199999999999989 9.875000000000000 3.199999999999989 2.199999999999989 3.199999999999989 C2.199999999999989 5.649999999999977 2.199999999999989 10.550000000000011 2.199999999999989 13.000000000000000 C10.750000000000000 24.024999999999977 27.850000000000023 46.074999999999989 36.399999999999977 57.100000000000023 C38.274999999999977 57.100000000000023 42.024999999999977 57.100000000000023 43.899999999999977 57.100000000000023 C43.899999999999977 46.125000000000000 43.899999999999977 24.175000000000011 43.899999999999977 13.199999999999989 C46.100000000000023 13.199999999999989 50.500000000000000 13.199999999999989 52.700000000000045 13.199999999999989 C52.700000000000045 10.699999999999989 52.700000000000045 5.699999999999989 52.700000000000045 3.199999999999989 C50.500000000000000 3.199999999999989 46.100000000000023 3.199999999999989 43.899999999999977 3.199999999999989 C43.899999999999977 -0.774999999999977 43.899999999999977 -8.725000000000023 43.899999999999977 -12.699999999999989 C41.149999999999977 -12.699999999999989 35.649999999999977 -12.699999999999989 32.899999999999977 -12.699999999999989 zM13.400000000000000 13.199999999999999 C18.574999999999989 13.199999999999989 28.925000000000011 13.199999999999989 34.100000000000023 13.199999999999989 C34.100000000000023 19.975000000000023 34.100000000000023 33.524999999999977 34.100000000000023 40.300000000000011 C28.925000000000011 33.524999999999977 18.574999999999989 19.975000000000023 13.399999999999977 13.199999999999989 z" />
<glyph unicode="5" horiz-adv-x="55.100000000000001" d="M28.500000000000000 31.699999999999999 Q33.500000000000000 31.699999999999989 37.750000000000000 30.000000000000000 Q42.000000000000000 28.300000000000011 45.100000000000023 25.300000000000011 Q48.299999999999955 22.300000000000011 50.049999999999955 18.100000000000023 Q51.799999999999955 13.899999999999977 51.799999999999955 8.899999999999977 Q51.799999999999955 3.600000000000023 49.850000000000023 -0.800000000000011 Q47.899999999999977 -5.199999999999989 44.399999999999977 -8.300000000000011 Q41.000000000000000 -11.500000000000000 36.300000000000011 -13.199999999999989 Q31.600000000000023 -14.899999999999977 26.199999999999989 -14.899999999999977 Q18.500000000000000 -14.899999999999977 12.399999999999977 -11.449999999999989 Q6.300000000000011 -8.000000000000000 3.100000000000023 -2.100000000000023 C5.300000000000011 0.000000000000000 8.050000000000011 2.625000000000000 9.699999999999989 4.199999999999989 Q12.500000000000000 0.000000000000000 16.899999999999977 -2.600000000000023 Q21.300000000000011 -5.199999999999989 26.300000000000011 -5.199999999999989 Q32.500000000000000 -5.199999999999989 36.500000000000000 -1.399999999999977 Q40.500000000000000 2.399999999999977 40.500000000000000 8.699999999999989 Q40.500000000000000 11.699999999999989 39.449999999999989 14.149999999999977 Q38.399999999999977 16.600000000000023 36.600000000000023 18.300000000000011 Q34.800000000000011 20.100000000000023 32.350000000000023 21.100000000000023 Q29.899999999999977 22.100000000000023 27.000000000000000 22.100000000000023 Q23.199999999999989 22.100000000000023 19.899999999999977 20.449999999999989 Q16.600000000000023 18.800000000000011 14.500000000000000 15.600000000000023 C11.266666666666652 15.600000000000023 7.225000000000023 15.600000000000023 4.800000000000011 15.600000000000023 Q4.899999999999977 16.000000000000000 5.250000000000000 18.000000000000000 Q5.600000000000023 20.000000000000000 6.199999999999989 23.000000000000000 Q6.800000000000011 26.000000000000000 7.500000000000000 29.699999999999989 Q8.199999999999989 33.399999999999977 9.000000000000000 37.199999999999989 Q10.800000000000011 46.100000000000023 12.899999999999977 57.100000000000023 C24.466666666666697 57.100000000000023 38.925000000000011 57.100000000000023 47.600000000000023 57.100000000000023 C47.600000000000023 54.574999999999989 47.600000000000023 49.524999999999977 47.600000000000023 47.000000000000000 C40.925000000000011 47.000000000000000 27.574999999999989 47.000000000000000 20.899999999999977 47.000000000000000 C20.000000000000000 42.149999999999977 18.199999999999989 32.449999999999989 17.300000000000011 27.600000000000023 Q19.000000000000000 29.500000000000000 21.850000000000023 30.600000000000023 Q24.699999999999989 31.699999999999989 28.500000000000000 31.699999999999989 z" />
<glyph unicode="6" horiz-adv-x="60.700000000000003" d="M56.399999999999999 23.600000000000001 Q56.399999999999977 18.500000000000000 54.450000000000045 14.000000000000000 Q52.500000000000000 9.500000000000000 49.000000000000000 6.100000000000023 Q45.600000000000023 2.800000000000011 40.899999999999977 0.899999999999977 Q36.199999999999989 -1.000000000000000 30.800000000000011 -1.000000000000000 Q24.899999999999977 -1.000000000000000 20.100000000000023 1.149999999999977 Q15.300000000000011 3.300000000000011 11.899999999999977 7.300000000000011 Q8.500000000000000 11.399999999999977 6.649999999999977 17.250000000000000 Q4.800000000000011 23.100000000000023 4.800000000000011 30.500000000000000 Q4.800000000000011 40.699999999999989 6.750000000000000 48.350000000000023 Q8.699999999999989 56.000000000000000 12.199999999999989 61.100000000000023 Q15.699999999999989 66.300000000000011 20.699999999999989 68.900000000000006 Q25.699999999999989 71.500000000000000 31.899999999999977 71.500000000000000 Q38.699999999999989 71.500000000000000 44.350000000000023 68.400000000000006 Q50.000000000000000 65.300000000000011 53.500000000000000 59.600000000000023 C51.333333333333371 57.333333333333314 48.625000000000000 54.500000000000000 47.000000000000000 52.800000000000011 Q44.700000000000045 57.000000000000000 40.649999999999977 59.449999999999989 Q36.600000000000023 61.899999999999977 31.699999999999989 61.899999999999977 Q24.199999999999989 61.899999999999977 19.750000000000000 55.550000000000011 Q15.300000000000011 49.199999999999989 15.100000000000023 37.699999999999989 Q17.300000000000011 42.199999999999989 21.699999999999989 44.800000000000011 Q26.100000000000023 47.399999999999977 31.800000000000011 47.399999999999977 Q37.000000000000000 47.399999999999977 41.500000000000000 45.550000000000011 Q46.000000000000000 43.699999999999989 49.299999999999955 40.500000000000000 Q52.600000000000023 37.300000000000011 54.500000000000000 32.949999999999989 Q56.399999999999977 28.600000000000023 56.399999999999977 23.600000000000023 zM30.800000000000001 8.400000000000000 Q33.899999999999977 8.399999999999977 36.649999999999977 9.600000000000023 Q39.399999999999977 10.800000000000011 41.399999999999977 12.899999999999977 Q43.500000000000000 15.000000000000000 44.700000000000045 17.750000000000000 Q45.899999999999977 20.500000000000000 45.899999999999977 23.600000000000023 Q45.899999999999977 26.699999999999989 44.700000000000045 29.399999999999977 Q43.500000000000000 32.100000000000023 41.399999999999977 34.100000000000023 Q39.399999999999977 36.199999999999989 36.649999999999977 37.399999999999977 Q33.899999999999977 38.600000000000023 30.800000000000011 38.600000000000023 Q27.699999999999989 38.600000000000023 24.949999999999989 37.399999999999977 Q22.199999999999989 36.199999999999989 20.100000000000023 34.100000000000023 Q18.100000000000023 32.100000000000023 16.899999999999977 29.399999999999977 Q15.699999999999989 26.699999999999989 15.699999999999989 23.600000000000023 Q15.699999999999989 20.500000000000000 16.899999999999977 17.750000000000000 Q18.100000000000023 15.000000000000000 20.100000000000023 12.899999999999977 Q22.199999999999989 10.800000000000011 24.949999999999989 9.600000000000023 Q27.699999999999989 8.399999999999977 30.800000000000011 8.399999999999977 z" />
<glyph unicode="7" horiz-adv-x="54.799999999999997" d="M37.200000000000003 48.200000000000003 C28.600000000000023 48.199999999999989 11.399999999999977 48.199999999999989 2.800000000000011 48.199999999999989 C2.800000000000011 50.725000000000023 2.800000000000011 55.774999999999977 2.800000000000011 58.300000000000011 C15.750000000000000 58.300000000000011 41.649999999999977 58.300000000000011 54.600000000000023 58.300000000000011 C45.725000000000023 40.550000000000011 27.975000000000023 5.050000000000011 19.100000000000023 -12.699999999999989 C15.975000000000023 -12.699999999999989 9.725000000000023 -12.699999999999989 6.600000000000023 -12.699999999999989 C14.250000000000000 2.524999999999977 29.550000000000011 32.975000000000023 37.199999999999989 48.199999999999989 z" />
<glyph unicode="8" horiz-adv-x="60.100000000000001" d="M55.399999999999999 20.500000000000000 Q55.399999999999977 15.699999999999989 53.350000000000023 11.750000000000000 Q51.299999999999955 7.800000000000011 47.799999999999955 5.000000000000000 Q44.299999999999955 2.199999999999989 39.699999999999989 0.699999999999989 Q35.100000000000023 -0.800000000000011 29.899999999999977 -0.800000000000011 Q24.600000000000023 -0.800000000000011 19.949999999999989 0.850000000000023 Q15.300000000000011 2.500000000000000 11.899999999999977 5.399999999999977 Q8.500000000000000 8.300000000000011 6.550000000000011 12.300000000000011 Q4.600000000000023 16.300000000000011 4.600000000000023 21.000000000000000 Q4.600000000000023 24.100000000000023 5.699999999999989 26.800000000000011 Q6.800000000000011 29.500000000000000 8.500000000000000 31.600000000000023 Q10.300000000000011 33.800000000000011 12.500000000000000 35.399999999999977 Q14.699999999999989 37.000000000000000 16.899999999999977 38.000000000000000 Q12.800000000000011 39.800000000000011 9.899999999999977 43.500000000000000 Q7.000000000000000 47.199999999999989 7.000000000000000 51.899999999999977 Q7.000000000000000 56.500000000000000 9.100000000000023 60.050000000000011 Q11.199999999999989 63.599999999999994 14.500000000000000 66.000000000000000 Q17.800000000000011 68.500000000000000 21.899999999999977 69.750000000000000 Q26.000000000000000 71.000000000000000 30.000000000000000 71.000000000000000 Q34.000000000000000 71.000000000000000 38.149999999999977 69.750000000000000 Q42.300000000000011 68.500000000000000 45.600000000000023 66.099999999999994 Q49.000000000000000 63.699999999999989 51.100000000000023 60.149999999999977 Q53.200000000000045 56.600000000000023 53.200000000000045 52.000000000000000 Q53.200000000000045 47.300000000000011 50.250000000000000 43.550000000000011 Q47.299999999999955 39.800000000000011 43.100000000000023 38.000000000000000 Q45.500000000000000 36.899999999999977 47.750000000000000 35.250000000000000 Q50.000000000000000 33.600000000000023 51.700000000000045 31.300000000000011 Q53.399999999999977 29.100000000000023 54.399999999999977 26.399999999999977 Q55.399999999999977 23.699999999999989 55.399999999999977 20.500000000000000 zM44.299999999999997 21.199999999999999 Q44.299999999999955 24.100000000000023 43.049999999999955 26.350000000000023 Q41.800000000000011 28.600000000000023 39.699999999999989 30.199999999999989 Q37.699999999999989 31.800000000000011 35.149999999999977 32.600000000000023 Q32.600000000000023 33.399999999999977 30.000000000000000 33.399999999999977 Q27.300000000000011 33.399999999999977 24.750000000000000 32.550000000000011 Q22.199999999999989 31.699999999999989 20.199999999999989 30.100000000000023 Q18.300000000000011 28.500000000000000 17.100000000000023 26.250000000000000 Q15.899999999999977 24.000000000000000 15.899999999999977 21.199999999999989 Q15.899999999999977 18.399999999999977 17.149999999999977 16.149999999999977 Q18.399999999999977 13.899999999999977 20.399999999999977 12.300000000000011 Q22.399999999999977 10.800000000000011 24.949999999999989 9.949999999999989 Q27.500000000000000 9.100000000000023 30.100000000000023 9.100000000000023 Q32.800000000000011 9.100000000000023 35.350000000000023 10.000000000000000 Q37.899999999999977 10.899999999999977 39.899999999999977 12.500000000000000 Q41.899999999999977 14.100000000000023 43.100000000000023 16.300000000000011 Q44.299999999999955 18.500000000000000 44.299999999999955 21.199999999999989 zM18.100000000000001 51.500000000000000 Q18.100000000000023 49.100000000000023 19.199999999999989 47.300000000000011 Q20.300000000000011 45.500000000000000 22.000000000000000 44.300000000000011 Q23.699999999999989 43.100000000000023 25.800000000000011 42.449999999999989 Q27.899999999999977 41.800000000000011 30.000000000000000 41.800000000000011 Q32.100000000000023 41.800000000000011 34.250000000000000 42.449999999999989 Q36.399999999999977 43.100000000000023 38.100000000000023 44.300000000000011 Q39.800000000000011 45.600000000000023 40.899999999999977 47.449999999999989 Q42.000000000000000 49.300000000000011 42.000000000000000 51.699999999999989 Q42.000000000000000 53.899999999999977 41.000000000000000 55.649999999999977 Q40.000000000000000 57.399999999999977 38.300000000000011 58.600000000000023 Q36.699999999999989 59.899999999999977 34.550000000000011 60.550000000000011 Q32.399999999999977 61.199999999999989 30.000000000000000 61.199999999999989 Q27.600000000000023 61.199999999999989 25.449999999999989 60.500000000000000 Q23.300000000000011 59.800000000000011 21.600000000000023 58.500000000000000 Q20.000000000000000 57.300000000000011 19.050000000000011 55.500000000000000 Q18.100000000000023 53.699999999999989 18.100000000000023 51.500000000000000 z" />
<glyph unicode="9" horiz-adv-x="58.899999999999999" d="M3.400000000000000 32.500000000000000 Q3.399999999999977 37.600000000000023 5.399999999999977 42.100000000000023 Q7.399999999999977 46.600000000000023 10.800000000000011 49.899999999999977 Q14.300000000000011 53.300000000000011 19.000000000000000 55.199999999999989 Q23.699999999999989 57.100000000000023 29.100000000000023 57.100000000000023 Q34.899999999999977 57.100000000000023 39.699999999999989 54.949999999999989 Q44.500000000000000 52.800000000000011 47.899999999999977 48.699999999999989 Q51.299999999999955 44.699999999999989 53.149999999999977 38.850000000000023 Q55.000000000000000 33.000000000000000 55.000000000000000 25.600000000000023 Q55.000000000000000 15.399999999999977 53.049999999999955 7.750000000000000 Q51.100000000000023 0.100000000000023 47.600000000000023 -5.000000000000000 Q44.100000000000023 -10.199999999999989 39.050000000000011 -12.800000000000011 Q34.000000000000000 -15.399999999999977 27.899999999999977 -15.399999999999977 Q21.100000000000023 -15.399999999999977 15.449999999999989 -12.300000000000011 Q9.800000000000011 -9.199999999999989 6.300000000000011 -3.500000000000000 C8.466666666666640 -1.233333333333348 11.175000000000011 1.600000000000023 12.800000000000011 3.300000000000011 Q15.100000000000023 -0.899999999999977 19.149999999999977 -3.350000000000023 Q23.199999999999989 -5.800000000000011 28.100000000000023 -5.800000000000011 Q35.600000000000023 -5.800000000000011 40.050000000000011 0.550000000000011 Q44.500000000000000 6.899999999999977 44.700000000000045 18.399999999999977 Q42.600000000000023 13.899999999999977 38.149999999999977 11.300000000000011 Q33.699999999999989 8.699999999999989 28.000000000000000 8.699999999999989 Q22.800000000000011 8.699999999999989 18.300000000000011 10.550000000000011 Q13.800000000000011 12.399999999999977 10.500000000000000 15.600000000000023 Q7.199999999999989 18.800000000000011 5.300000000000011 23.149999999999977 Q3.399999999999977 27.500000000000000 3.399999999999977 32.500000000000000 zM29.000000000000000 47.700000000000003 Q25.899999999999977 47.699999999999989 23.149999999999977 46.500000000000000 Q20.399999999999977 45.300000000000011 18.300000000000011 43.199999999999989 Q16.300000000000011 41.100000000000023 15.100000000000023 38.350000000000023 Q13.899999999999977 35.600000000000023 13.899999999999977 32.500000000000000 Q13.899999999999977 29.399999999999977 15.100000000000023 26.699999999999989 Q16.300000000000011 24.000000000000000 18.300000000000011 21.899999999999977 Q20.399999999999977 19.899999999999977 23.149999999999977 18.699999999999989 Q25.899999999999977 17.500000000000000 29.000000000000000 17.500000000000000 Q32.100000000000023 17.500000000000000 34.850000000000023 18.699999999999989 Q37.600000000000023 19.899999999999977 39.600000000000023 21.899999999999977 Q41.699999999999989 24.000000000000000 42.899999999999977 26.699999999999989 Q44.100000000000023 29.399999999999977 44.100000000000023 32.500000000000000 Q44.100000000000023 35.600000000000023 42.899999999999977 38.350000000000023 Q41.699999999999989 41.100000000000023 39.600000000000023 43.199999999999989 Q37.600000000000023 45.300000000000011 34.850000000000023 46.500000000000000 Q32.100000000000023 47.699999999999989 29.000000000000000 47.699999999999989 z" />
<glyph unicode=":" horiz-adv-x="22.300000000000001" d="M6.600000000000000 39.100000000000001 C6.600000000000023 42.274999999999977 6.600000000000023 48.625000000000000 6.600000000000023 51.800000000000011 C8.875000000000000 51.800000000000011 13.425000000000011 51.800000000000011 15.699999999999989 51.800000000000011 C15.699999999999989 48.625000000000000 15.699999999999989 42.274999999999977 15.699999999999989 39.100000000000023 C13.425000000000011 39.100000000000023 8.875000000000000 39.100000000000023 6.600000000000023 39.100000000000023 zM6.600000000000000 0.000000000000000 C6.600000000000023 3.199999999999989 6.600000000000023 9.600000000000023 6.600000000000023 12.800000000000011 C8.875000000000000 12.800000000000011 13.425000000000011 12.800000000000011 15.699999999999989 12.800000000000011 C15.699999999999989 9.600000000000023 15.699999999999989 3.199999999999989 15.699999999999989 0.000000000000000 C13.425000000000011 0.000000000000000 8.875000000000000 0.000000000000000 6.600000000000023 0.000000000000000 z" />
<glyph unicode=";" horiz-adv-x="23.899999999999999" d="M7.100000000000000 39.100000000000001 C7.100000000000023 42.274999999999977 7.100000000000023 48.625000000000000 7.100000000000023 51.800000000000011 C9.350000000000023 51.800000000000011 13.850000000000023 51.800000000000011 16.100000000000023 51.800000000000011 C16.100000000000023 48.625000000000000 16.100000000000023 42.274999999999977 16.100000000000023 39.100000000000023 C13.850000000000023 39.100000000000023 9.350000000000023 39.100000000000023 7.100000000000023 39.100000000000023 zM8.199999999999999 -9.699999999999999 C8.800000000000011 -7.125000000000000 10.000000000000000 -1.975000000000023 10.600000000000023 0.600000000000023 C9.699999999999989 0.600000000000023 7.899999999999977 0.600000000000023 7.000000000000000 0.600000000000023 C7.000000000000000 3.649999999999977 7.000000000000000 9.750000000000000 7.000000000000000 12.800000000000011 C9.475000000000023 12.800000000000011 14.425000000000011 12.800000000000011 16.899999999999977 12.800000000000011 C16.899999999999977 9.750000000000000 16.899999999999977 3.649999999999977 16.899999999999977 0.600000000000023 C16.024999999999977 -1.975000000000023 14.274999999999977 -7.125000000000000 13.399999999999977 -9.699999999999989 C12.100000000000023 -9.699999999999989 9.500000000000000 -9.699999999999989 8.199999999999989 -9.699999999999989 z" />
<glyph unicode="&#x3c;" horiz-adv-x="51.200000000000003" d="M3.300000000000000 28.399999999999999 C13.800000000000011 34.750000000000000 34.800000000000011 47.449999999999989 45.299999999999955 53.800000000000011 C45.299999999999955 50.875000000000000 45.299999999999955 45.024999999999977 45.299999999999955 42.100000000000023 C38.774999999999977 38.050000000000011 25.725000000000023 29.949999999999989 19.199999999999989 25.899999999999977 C25.725000000000023 21.949999999999989 38.774999999999977 14.050000000000011 45.299999999999955 10.100000000000023 C45.299999999999955 7.050000000000011 45.299999999999955 0.949999999999989 45.299999999999955 -2.100000000000023 C34.800000000000011 4.149999999999977 13.800000000000011 16.649999999999977 3.300000000000011 22.899999999999977 C3.300000000000011 24.274999999999977 3.300000000000011 27.024999999999977 3.300000000000011 28.399999999999977 z" />
<glyph unicode="=" horiz-adv-x="43.799999999999997" d="M6.400000000000000 16.199999999999999 C6.399999999999977 18.024999999999977 6.399999999999977 21.675000000000011 6.399999999999977 23.500000000000000 C14.125000000000000 23.500000000000000 29.574999999999989 23.500000000000000 37.300000000000011 23.500000000000000 C37.300000000000011 21.675000000000011 37.300000000000011 18.024999999999977 37.300000000000011 16.199999999999989 C29.574999999999989 16.199999999999989 14.125000000000000 16.199999999999989 6.399999999999977 16.199999999999989 zM6.400000000000000 31.699999999999999 C6.399999999999977 33.524999999999977 6.399999999999977 37.175000000000011 6.399999999999977 39.000000000000000 C14.125000000000000 39.000000000000000 29.574999999999989 39.000000000000000 37.300000000000011 39.000000000000000 C37.300000000000011 37.175000000000011 37.300000000000011 33.524999999999977 37.300000000000011 31.699999999999989 C29.574999999999989 31.699999999999989 14.125000000000000 31.699999999999989 6.399999999999977 31.699999999999989 z" />
<glyph unicode="&#x3e;" horiz-adv-x="51.200000000000003" d="M48.000000000000000 22.899999999999999 C37.475000000000023 16.649999999999977 16.425000000000011 4.149999999999977 5.899999999999977 -2.100000000000023 C5.899999999999977 0.949999999999989 5.899999999999977 7.050000000000011 5.899999999999977 10.100000000000023 C12.425000000000011 14.050000000000011 25.475000000000023 21.949999999999989 32.000000000000000 25.899999999999977 C25.475000000000023 29.949999999999989 12.425000000000011 38.050000000000011 5.899999999999977 42.100000000000023 C5.899999999999977 45.024999999999977 5.899999999999977 50.875000000000000 5.899999999999977 53.800000000000011 C16.425000000000011 47.449999999999989 37.475000000000023 34.750000000000000 48.000000000000000 28.399999999999977 C48.000000000000000 27.024999999999977 48.000000000000000 24.274999999999977 48.000000000000000 22.899999999999977 z" />
<glyph unicode="?" horiz-adv-x="48.200000000000003" d="M13.300000000000001 22.100000000000001 Q13.300000000000011 27.300000000000011 15.050000000000011 31.300000000000011 Q16.800000000000011 35.300000000000011 21.600000000000023 38.199999999999989 Q23.300000000000011 39.199999999999989 25.600000000000023 40.449999999999989 Q27.899999999999977 41.699999999999989 30.000000000000000 43.399999999999977 Q32.100000000000023 45.100000000000023 33.550000000000011 47.399999999999977 Q35.000000000000000 49.699999999999989 35.000000000000000 52.800000000000011 Q35.000000000000000 55.199999999999989 34.050000000000011 57.100000000000023 Q33.100000000000023 59.000000000000000 31.600000000000023 60.300000000000011 Q30.100000000000023 61.600000000000023 28.100000000000023 62.250000000000000 Q26.100000000000023 62.900000000000006 24.000000000000000 62.900000000000006 Q21.600000000000023 62.900000000000006 19.600000000000023 62.149999999999977 Q17.600000000000023 61.399999999999977 15.899999999999977 60.100000000000023 Q14.199999999999989 58.899999999999977 12.850000000000023 57.300000000000011 Q11.500000000000000 55.699999999999989 10.600000000000023 54.100000000000023 C8.199999999999989 55.733333333333348 5.199999999999989 57.774999999999977 3.399999999999977 59.000000000000000 Q6.100000000000023 65.199999999999989 11.800000000000011 68.550000000000011 Q17.500000000000000 71.900000000000006 24.300000000000011 71.900000000000006 Q28.000000000000000 71.900000000000006 31.649999999999977 70.750000000000000 Q35.300000000000011 69.599999999999994 38.199999999999989 67.199999999999989 Q41.100000000000023 64.900000000000006 42.850000000000023 61.199999999999989 Q44.600000000000023 57.500000000000000 44.600000000000023 52.399999999999977 Q44.600000000000023 48.899999999999977 43.700000000000045 46.350000000000023 Q42.800000000000011 43.800000000000011 41.199999999999989 41.699999999999989 Q39.699999999999989 39.699999999999989 37.550000000000011 38.149999999999977 Q35.399999999999977 36.600000000000023 33.000000000000000 35.300000000000011 Q31.000000000000000 34.199999999999989 29.100000000000023 33.050000000000011 Q27.199999999999989 31.899999999999977 25.699999999999989 30.399999999999977 Q24.300000000000011 28.899999999999977 23.399999999999977 26.899999999999977 Q22.500000000000000 24.899999999999977 22.500000000000000 22.100000000000023 C19.433333333333337 22.100000000000023 15.600000000000023 22.100000000000023 13.300000000000011 22.100000000000023 zM13.300000000000001 0.000000000000000 C13.300000000000011 3.149999999999977 13.300000000000011 9.449999999999989 13.300000000000011 12.600000000000023 C15.600000000000023 12.600000000000023 20.199999999999989 12.600000000000023 22.500000000000000 12.600000000000023 C22.500000000000000 9.449999999999989 22.500000000000000 3.149999999999977 22.500000000000000 0.000000000000000 C20.199999999999989 0.000000000000000 15.600000000000023 0.000000000000000 13.300000000000011 0.000000000000000 z" />
<glyph unicode="@" horiz-adv-x="84.299999999999997" d="M42.000000000000000 60.299999999999997 Q49.399999999999977 60.300000000000011 56.100000000000023 57.699999999999989 Q62.799999999999955 55.100000000000023 67.899999999999977 50.199999999999989 Q73.000000000000000 45.399999999999977 76.049999999999955 38.300000000000011 Q79.100000000000023 31.199999999999989 79.100000000000023 22.199999999999989 Q79.100000000000023 20.800000000000011 78.950000000000045 18.449999999999989 Q78.799999999999955 16.100000000000023 78.299999999999955 13.500000000000000 Q77.799999999999955 10.899999999999977 76.799999999999955 8.199999999999989 Q75.799999999999955 5.500000000000000 74.100000000000023 3.300000000000011 Q72.399999999999977 1.100000000000023 69.899999999999977 -0.250000000000000 Q67.399999999999977 -1.600000000000023 63.899999999999977 -1.600000000000023 Q61.299999999999955 -1.600000000000023 59.600000000000023 -0.850000000000023 Q57.899999999999977 -0.100000000000023 56.899999999999977 1.100000000000023 Q55.899999999999977 2.300000000000011 55.450000000000045 3.850000000000023 Q55.000000000000000 5.399999999999977 54.799999999999955 7.000000000000000 Q51.899999999999977 3.899999999999977 47.450000000000045 1.949999999999989 Q43.000000000000000 0.000000000000000 37.800000000000011 0.000000000000000 Q30.399999999999977 0.000000000000000 26.500000000000000 3.899999999999977 Q22.600000000000023 7.800000000000011 22.600000000000023 13.800000000000011 Q22.600000000000023 17.800000000000011 24.250000000000000 20.550000000000011 Q25.899999999999977 23.300000000000011 28.500000000000000 24.899999999999977 Q31.199999999999989 26.600000000000023 34.550000000000011 27.300000000000011 Q37.899999999999977 28.000000000000000 41.199999999999989 28.000000000000000 Q45.399999999999977 28.000000000000000 48.500000000000000 27.199999999999989 Q51.600000000000023 26.399999999999977 53.100000000000023 25.800000000000011 Q53.100000000000023 28.800000000000011 52.600000000000023 31.300000000000011 Q52.100000000000023 33.800000000000011 50.700000000000045 35.600000000000023 Q49.399999999999977 37.399999999999977 47.100000000000023 38.399999999999977 Q44.799999999999955 39.399999999999977 41.300000000000011 39.399999999999977 Q37.199999999999989 39.399999999999977 33.750000000000000 38.199999999999989 Q30.300000000000011 37.000000000000000 27.699999999999989 34.899999999999977 C26.966666666666640 36.899999999999977 26.050000000000011 39.399999999999977 25.500000000000000 40.899999999999977 Q29.199999999999989 43.300000000000011 33.399999999999977 44.600000000000023 Q37.600000000000023 45.899999999999977 42.300000000000011 45.899999999999977 Q48.399999999999977 45.899999999999977 51.950000000000045 43.949999999999989 Q55.500000000000000 42.000000000000000 57.200000000000045 39.000000000000000 Q59.000000000000000 36.000000000000000 59.450000000000045 32.300000000000011 Q59.899999999999977 28.600000000000023 59.899999999999977 25.199999999999989 C59.899999999999977 21.600000000000023 59.899999999999977 17.100000000000023 59.899999999999977 14.399999999999977 Q59.899999999999977 12.199999999999989 60.049999999999955 10.250000000000000 Q60.200000000000045 8.300000000000011 60.700000000000045 6.800000000000011 Q61.200000000000045 5.300000000000011 62.200000000000045 4.449999999999989 Q63.200000000000045 3.600000000000023 64.899999999999977 3.600000000000023 Q67.700000000000045 3.600000000000023 69.549999999999955 5.649999999999977 Q71.399999999999977 7.699999999999989 72.399999999999977 10.600000000000023 Q73.399999999999977 13.600000000000023 73.799999999999955 16.850000000000023 Q74.200000000000045 20.100000000000023 74.200000000000045 22.399999999999977 Q74.200000000000045 29.500000000000000 71.799999999999955 35.600000000000023 Q69.399999999999977 41.699999999999989 65.100000000000023 46.100000000000023 Q60.799999999999955 50.600000000000023 54.799999999999955 53.149999999999977 Q48.799999999999955 55.699999999999989 41.699999999999989 55.699999999999989 Q34.699999999999989 55.699999999999989 28.800000000000011 53.250000000000000 Q22.899999999999977 50.800000000000011 18.500000000000000 46.399999999999977 Q14.199999999999989 42.100000000000023 11.750000000000000 36.100000000000023 Q9.300000000000011 30.100000000000023 9.300000000000011 23.000000000000000 Q9.300000000000011 16.199999999999989 11.600000000000023 10.199999999999989 Q13.899999999999977 4.199999999999989 18.000000000000000 -0.300000000000011 Q22.199999999999989 -4.800000000000011 28.000000000000000 -7.399999999999977 Q33.800000000000011 -10.000000000000000 40.800000000000011 -10.000000000000000 Q45.500000000000000 -10.000000000000000 49.049999999999955 -8.949999999999989 Q52.600000000000023 -7.899999999999977 56.299999999999955 -6.199999999999989 C56.833333333333371 -7.666666666666686 57.500000000000000 -9.500000000000000 57.899999999999977 -10.600000000000023 Q53.700000000000045 -12.600000000000023 49.399999999999977 -13.600000000000023 Q45.100000000000023 -14.600000000000023 40.699999999999989 -14.600000000000023 Q33.199999999999989 -14.600000000000023 26.600000000000023 -11.850000000000023 Q20.000000000000000 -9.100000000000023 15.000000000000000 -4.100000000000023 Q10.100000000000023 0.899999999999977 7.250000000000000 7.800000000000011 Q4.399999999999977 14.699999999999989 4.399999999999977 23.000000000000000 Q4.399999999999977 31.699999999999989 7.500000000000000 38.649999999999977 Q10.600000000000023 45.600000000000023 15.800000000000011 50.399999999999977 Q21.000000000000000 55.199999999999989 27.800000000000011 57.750000000000000 Q34.600000000000023 60.300000000000011 42.000000000000000 60.300000000000011 zM47.399999999999999 8.100000000000000 Q50.700000000000045 9.699999999999989 51.850000000000023 11.949999999999989 Q53.000000000000000 14.199999999999989 53.000000000000000 16.600000000000023 C53.000000000000000 17.866666666666674 53.000000000000000 19.449999999999989 53.000000000000000 20.399999999999977 Q51.600000000000023 20.699999999999989 48.500000000000000 21.600000000000023 Q45.399999999999977 22.500000000000000 41.199999999999989 22.500000000000000 Q36.300000000000011 22.500000000000000 32.850000000000023 20.600000000000023 Q29.399999999999977 18.699999999999989 29.399999999999977 14.100000000000023 Q29.399999999999977 10.600000000000023 31.800000000000011 8.300000000000011 Q34.199999999999989 6.000000000000000 38.399999999999977 6.000000000000000 Q40.600000000000023 6.000000000000000 43.000000000000000 6.600000000000023 Q45.399999999999977 7.199999999999989 47.399999999999977 8.100000000000023 z" />
<glyph unicode="A" horiz-adv-x="67.5" d="M28.899999999999999 71.000000000000000 C31.350000000000023 71.000000000000000 36.250000000000000 71.000000000000000 38.699999999999989 71.000000000000000 C45.700000000000045 53.250000000000000 59.700000000000045 17.750000000000000 66.700000000000045 0.000000000000000 C63.750000000000000 0.000000000000000 57.850000000000023 0.000000000000000 54.899999999999977 0.000000000000000 C53.024999999999977 4.824999999999989 49.274999999999977 14.475000000000023 47.399999999999977 19.300000000000011 C40.550000000000011 19.300000000000011 26.850000000000023 19.300000000000011 20.000000000000000 19.300000000000011 C18.149999999999977 14.475000000000023 14.449999999999989 4.824999999999989 12.600000000000023 0.000000000000000 C9.625000000000000 0.000000000000000 3.675000000000011 0.000000000000000 0.699999999999989 0.000000000000000 C7.750000000000000 17.750000000000000 21.849999999999966 53.250000000000000 28.899999999999977 71.000000000000000 zM45.200000000000003 27.600000000000001 C42.350000000000023 35.225000000000023 36.649999999999977 50.475000000000023 33.800000000000011 58.100000000000023 C30.850000000000023 50.475000000000023 24.949999999999989 35.225000000000023 22.000000000000000 27.600000000000023 C27.800000000000011 27.600000000000023 39.399999999999977 27.600000000000023 45.200000000000045 27.600000000000023 z" />
<glyph unicode="B" horiz-adv-x="67.5" d="M63.799999999999997 18.300000000000001 Q63.799999999999955 14.000000000000000 62.049999999999955 10.600000000000023 Q60.299999999999955 7.199999999999989 57.299999999999955 4.800000000000011 Q54.399999999999977 2.500000000000000 50.399999999999977 1.250000000000000 Q46.399999999999977 0.000000000000000 41.899999999999977 0.000000000000000 C30.600000000000023 0.000000000000000 16.475000000000023 0.000000000000000 8.000000000000000 0.000000000000000 C8.000000000000000 17.750000000000000 8.000000000000000 53.250000000000000 8.000000000000000 71.000000000000000 C17.149999999999977 71.000000000000000 35.449999999999989 71.000000000000000 44.600000000000023 71.000000000000000 Q48.299999999999955 71.000000000000000 51.299999999999955 69.400000000000006 Q54.299999999999955 67.800000000000011 56.399999999999977 65.199999999999989 Q58.500000000000000 62.699999999999989 59.649999999999977 59.449999999999989 Q60.799999999999955 56.199999999999989 60.799999999999955 52.899999999999977 Q60.799999999999955 47.699999999999989 58.149999999999977 43.149999999999977 Q55.500000000000000 38.600000000000023 50.600000000000023 36.399999999999977 Q56.700000000000045 34.600000000000023 60.250000000000000 29.850000000000023 Q63.799999999999955 25.100000000000023 63.799999999999955 18.300000000000011 zM52.299999999999997 20.399999999999999 Q52.299999999999955 22.600000000000023 51.549999999999955 24.600000000000023 Q50.799999999999955 26.600000000000023 49.500000000000000 28.100000000000023 Q48.299999999999955 29.600000000000023 46.500000000000000 30.500000000000000 Q44.700000000000045 31.399999999999977 42.600000000000023 31.399999999999977 C34.800000000000011 31.399999999999977 25.050000000000011 31.399999999999977 19.199999999999989 31.399999999999977 C19.199999999999989 25.975000000000023 19.199999999999989 15.125000000000000 19.199999999999989 9.699999999999989 C24.875000000000000 9.699999999999989 36.225000000000023 9.699999999999989 41.899999999999977 9.699999999999989 Q44.100000000000023 9.699999999999989 46.000000000000000 10.550000000000011 Q47.899999999999977 11.399999999999977 49.299999999999955 12.800000000000011 Q50.700000000000045 14.300000000000011 51.500000000000000 16.250000000000000 Q52.299999999999955 18.199999999999989 52.299999999999955 20.399999999999977 zM19.199999999999999 61.299999999999997 C19.199999999999989 56.074999999999989 19.199999999999989 45.625000000000000 19.199999999999989 40.399999999999977 C24.350000000000023 40.399999999999977 34.649999999999977 40.399999999999977 39.800000000000011 40.399999999999977 Q41.899999999999977 40.399999999999977 43.649999999999977 41.199999999999989 Q45.399999999999977 42.000000000000000 46.700000000000045 43.300000000000011 Q48.100000000000023 44.699999999999989 48.850000000000023 46.600000000000023 Q49.600000000000023 48.500000000000000 49.600000000000023 50.800000000000011 Q49.600000000000023 55.399999999999977 47.000000000000000 58.350000000000023 Q44.399999999999977 61.300000000000011 40.399999999999977 61.300000000000011 C33.333333333333314 61.300000000000011 24.500000000000000 61.300000000000011 19.199999999999989 61.300000000000011 z" />
<glyph unicode="C" horiz-adv-x="68.400000000000006" d="M3.500000000000000 36.000000000000000 Q3.500000000000000 42.399999999999977 5.800000000000011 48.750000000000000 Q8.100000000000023 55.100000000000023 12.500000000000000 60.100000000000023 Q17.000000000000000 65.199999999999989 23.399999999999977 68.300000000000011 Q29.800000000000011 71.400000000000006 37.899999999999977 71.400000000000006 Q47.600000000000023 71.400000000000006 54.500000000000000 67.099999999999994 Q61.399999999999977 62.800000000000011 64.899999999999977 55.899999999999977 C61.966666666666697 53.933333333333337 58.299999999999955 51.475000000000023 56.100000000000023 50.000000000000000 Q54.600000000000023 53.199999999999989 52.500000000000000 55.399999999999977 Q50.399999999999977 57.600000000000023 47.899999999999977 58.899999999999977 Q45.399999999999977 60.199999999999989 42.699999999999989 60.750000000000000 Q40.000000000000000 61.300000000000011 37.500000000000000 61.300000000000011 Q31.899999999999977 61.300000000000011 27.699999999999989 59.050000000000011 Q23.500000000000000 56.800000000000011 20.600000000000023 53.100000000000023 Q17.800000000000011 49.399999999999977 16.350000000000023 44.800000000000011 Q14.899999999999977 40.199999999999989 14.899999999999977 35.600000000000023 Q14.899999999999977 30.399999999999977 16.600000000000023 25.699999999999989 Q18.300000000000011 21.000000000000000 21.300000000000011 17.399999999999977 Q24.399999999999977 13.800000000000011 28.600000000000023 11.649999999999977 Q32.800000000000011 9.500000000000000 37.800000000000011 9.500000000000000 Q40.399999999999977 9.500000000000000 43.149999999999977 10.149999999999977 Q45.899999999999977 10.800000000000011 48.399999999999977 12.199999999999989 Q51.000000000000000 13.699999999999989 53.149999999999977 15.899999999999977 Q55.299999999999955 18.100000000000023 56.700000000000045 21.199999999999989 C59.799999999999955 19.433333333333337 63.674999999999955 17.225000000000023 66.000000000000000 15.899999999999977 Q64.299999999999955 11.899999999999977 61.200000000000045 8.850000000000023 Q58.100000000000023 5.800000000000011 54.200000000000045 3.699999999999989 Q50.299999999999955 1.600000000000023 45.950000000000045 0.500000000000000 Q41.600000000000023 -0.600000000000023 37.399999999999977 -0.600000000000023 Q29.899999999999977 -0.600000000000023 23.699999999999989 2.600000000000023 Q17.500000000000000 5.800000000000011 13.000000000000000 10.899999999999977 Q8.500000000000000 16.100000000000023 6.000000000000000 22.649999999999977 Q3.500000000000000 29.199999999999989 3.500000000000000 36.000000000000000 z" />
<glyph unicode="D" horiz-adv-x="71.599999999999994" d="M8.000000000000000 0.000000000000000 C8.000000000000000 17.750000000000000 8.000000000000000 53.250000000000000 8.000000000000000 71.000000000000000 C14.300000000000011 71.000000000000000 26.899999999999977 71.000000000000000 33.199999999999989 71.000000000000000 Q41.800000000000011 71.000000000000000 48.250000000000000 68.199999999999989 Q54.700000000000045 65.400000000000006 59.000000000000000 60.600000000000023 Q63.399999999999977 55.800000000000011 65.600000000000023 49.350000000000023 Q67.799999999999955 42.899999999999977 67.799999999999955 35.600000000000023 Q67.799999999999955 27.500000000000000 65.350000000000023 20.949999999999989 Q62.899999999999977 14.399999999999977 58.399999999999977 9.699999999999989 Q53.899999999999977 5.100000000000023 47.500000000000000 2.550000000000011 Q41.100000000000023 0.000000000000000 33.199999999999989 0.000000000000000 C24.800000000000011 0.000000000000000 14.300000000000011 0.000000000000000 8.000000000000000 0.000000000000000 zM56.399999999999999 35.600000000000001 Q56.399999999999977 41.199999999999989 54.850000000000023 45.899999999999977 Q53.299999999999955 50.600000000000023 50.299999999999955 53.899999999999977 Q47.299999999999955 57.300000000000011 43.000000000000000 59.199999999999989 Q38.699999999999989 61.100000000000023 33.199999999999989 61.100000000000023 C28.533333333333360 61.100000000000023 22.699999999999989 61.100000000000023 19.199999999999989 61.100000000000023 C19.199999999999989 48.300000000000011 19.199999999999989 22.699999999999989 19.199999999999989 9.899999999999977 C22.699999999999989 9.899999999999977 29.699999999999989 9.899999999999977 33.199999999999989 9.899999999999977 Q38.800000000000011 9.899999999999977 43.149999999999977 11.850000000000023 Q47.500000000000000 13.800000000000011 50.399999999999977 17.199999999999989 Q53.399999999999977 20.699999999999989 54.899999999999977 25.399999999999977 Q56.399999999999977 30.100000000000023 56.399999999999977 35.600000000000023 z" />
<glyph unicode="E" horiz-adv-x="60.299999999999997" d="M56.700000000000003 9.900000000000000 C56.700000000000045 7.425000000000011 56.700000000000045 2.475000000000023 56.700000000000045 0.000000000000000 C44.524999999999977 0.000000000000000 20.175000000000011 0.000000000000000 8.000000000000000 0.000000000000000 C8.000000000000000 17.750000000000000 8.000000000000000 53.250000000000000 8.000000000000000 71.000000000000000 C19.949999999999989 71.000000000000000 43.850000000000023 71.000000000000000 55.799999999999955 71.000000000000000 C55.799999999999955 68.525000000000006 55.799999999999955 63.574999999999989 55.799999999999955 61.100000000000023 C46.649999999999977 61.100000000000023 28.350000000000023 61.100000000000023 19.199999999999989 61.100000000000023 C19.199999999999989 56.050000000000011 19.199999999999989 45.949999999999989 19.199999999999989 40.899999999999977 C27.125000000000000 40.899999999999977 42.975000000000023 40.899999999999977 50.899999999999977 40.899999999999977 C50.899999999999977 38.574999999999989 50.899999999999977 33.925000000000011 50.899999999999977 31.600000000000023 C42.975000000000023 31.600000000000023 27.125000000000000 31.600000000000023 19.199999999999989 31.600000000000023 C19.199999999999989 26.175000000000011 19.199999999999989 15.324999999999989 19.199999999999989 9.899999999999977 C28.574999999999989 9.899999999999977 47.325000000000045 9.899999999999977 56.700000000000045 9.899999999999977 z" />
<glyph unicode="F" horiz-adv-x="57.899999999999999" d="M8.000000000000000 0.000000000000000 C8.000000000000000 17.750000000000000 8.000000000000000 53.250000000000000 8.000000000000000 71.000000000000000 C19.824999999999989 71.000000000000000 43.475000000000023 71.000000000000000 55.299999999999955 71.000000000000000 C55.299999999999955 68.525000000000006 55.299999999999955 63.574999999999989 55.299999999999955 61.100000000000023 C46.274999999999977 61.100000000000023 28.225000000000023 61.100000000000023 19.199999999999989 61.100000000000023 C19.199999999999989 55.800000000000011 19.199999999999989 45.199999999999989 19.199999999999989 39.899999999999977 C26.750000000000000 39.899999999999977 41.850000000000023 39.899999999999977 49.399999999999977 39.899999999999977 C49.399999999999977 37.574999999999989 49.399999999999977 32.925000000000011 49.399999999999977 30.600000000000023 C41.850000000000023 30.600000000000023 26.750000000000000 30.600000000000023 19.199999999999989 30.600000000000023 C19.199999999999989 22.949999999999989 19.199999999999989 7.649999999999977 19.199999999999989 0.000000000000000 C16.399999999999977 0.000000000000000 10.800000000000011 0.000000000000000 8.000000000000000 0.000000000000000 z" />
<glyph unicode="G" horiz-adv-x="71.900000000000006" d="M57.700000000000003 8.800000000000001 Q48.700000000000045 -0.500000000000000 37.000000000000000 -0.500000000000000 Q29.899999999999977 -0.500000000000000 23.800000000000011 2.449999999999989 Q17.699999999999989 5.399999999999977 13.199999999999989 10.399999999999977 Q8.699999999999989 15.399999999999977 6.149999999999977 22.000000000000000 Q3.600000000000023 28.600000000000023 3.600000000000023 35.800000000000011 Q3.600000000000023 43.000000000000000 6.149999999999977 49.500000000000000 Q8.699999999999989 56.000000000000000 13.199999999999989 60.899999999999977 Q17.699999999999989 65.800000000000011 23.899999999999977 68.650000000000006 Q30.100000000000023 71.500000000000000 37.399999999999977 71.500000000000000 Q47.600000000000023 71.500000000000000 54.500000000000000 67.250000000000000 Q61.399999999999977 63.000000000000000 64.899999999999977 56.000000000000000 C62.033333333333303 53.933333333333337 58.450000000000045 51.350000000000023 56.299999999999955 49.800000000000011 Q53.399999999999977 55.600000000000023 48.299999999999955 58.500000000000000 Q43.200000000000045 61.399999999999977 37.100000000000023 61.399999999999977 Q32.100000000000023 61.399999999999977 28.000000000000000 59.250000000000000 Q23.899999999999977 57.100000000000023 21.000000000000000 53.500000000000000 Q18.100000000000023 50.000000000000000 16.550000000000011 45.300000000000011 Q15.000000000000000 40.600000000000023 15.000000000000000 35.500000000000000 Q15.000000000000000 30.100000000000023 16.750000000000000 25.399999999999977 Q18.500000000000000 20.699999999999989 21.500000000000000 17.199999999999989 Q24.600000000000023 13.699999999999989 28.800000000000011 11.649999999999977 Q33.000000000000000 9.600000000000023 37.899999999999977 9.600000000000023 Q43.299999999999955 9.600000000000023 48.250000000000000 12.100000000000023 Q53.200000000000045 14.600000000000023 57.700000000000045 20.000000000000000 C57.700000000000045 22.533333333333360 57.700000000000045 25.699999999999989 57.700000000000045 27.600000000000023 C53.975000000000023 27.600000000000023 46.524999999999977 27.600000000000023 42.800000000000011 27.600000000000023 C42.800000000000011 29.675000000000011 42.800000000000011 33.824999999999989 42.800000000000011 35.899999999999977 C48.875000000000000 35.899999999999977 61.024999999999977 35.899999999999977 67.100000000000023 35.899999999999977 C67.100000000000023 26.925000000000011 67.100000000000023 8.975000000000023 67.100000000000023 0.000000000000000 C64.750000000000000 0.000000000000000 60.049999999999955 0.000000000000000 57.700000000000045 0.000000000000000 C57.700000000000045 2.199999999999989 57.700000000000045 6.600000000000023 57.700000000000045 8.800000000000011 z" />
<glyph unicode="H" horiz-adv-x="74.299999999999997" d="M66.299999999999997 71.000000000000000 C66.299999999999955 53.250000000000000 66.299999999999955 17.750000000000000 66.299999999999955 0.000000000000000 C63.475000000000023 0.000000000000000 57.825000000000045 0.000000000000000 55.000000000000000 0.000000000000000 C55.000000000000000 7.824999999999989 55.000000000000000 23.475000000000023 55.000000000000000 31.300000000000011 C46.049999999999955 31.300000000000011 28.149999999999977 31.300000000000011 19.199999999999989 31.300000000000011 C19.199999999999989 23.475000000000023 19.199999999999989 7.824999999999989 19.199999999999989 0.000000000000000 C16.399999999999977 0.000000000000000 10.800000000000011 0.000000000000000 8.000000000000000 0.000000000000000 C8.000000000000000 17.750000000000000 8.000000000000000 53.250000000000000 8.000000000000000 71.000000000000000 C10.800000000000011 71.000000000000000 16.399999999999977 71.000000000000000 19.199999999999989 71.000000000000000 C19.199999999999989 63.574999999999989 19.199999999999989 48.725000000000023 19.199999999999989 41.300000000000011 C28.149999999999977 41.300000000000011 46.049999999999955 41.300000000000011 55.000000000000000 41.300000000000011 C55.000000000000000 48.725000000000023 55.000000000000000 63.574999999999989 55.000000000000000 71.000000000000000 C57.825000000000045 71.000000000000000 63.475000000000023 71.000000000000000 66.299999999999955 71.000000000000000 z" />
<glyph unicode="I" horiz-adv-x="27.199999999999999" d="M8.000000000000000 0.000000000000000 C8.000000000000000 17.750000000000000 8.000000000000000 53.250000000000000 8.000000000000000 71.000000000000000 C10.800000000000011 71.000000000000000 16.399999999999977 71.000000000000000 19.199999999999989 71.000000000000000 C19.199999999999989 53.250000000000000 19.199999999999989 17.750000000000000 19.199999999999989 0.000000000000000 C16.399999999999977 0.000000000000000 10.800000000000011 0.000000000000000 8.000000000000000 0.000000000000000 z" />
<glyph unicode="J" horiz-adv-x="48.799999999999997" d="M3.700000000000000 12.500000000000000 Q5.399999999999977 11.300000000000011 8.750000000000000 10.149999999999977 Q12.100000000000023 9.000000000000000 16.399999999999977 9.000000000000000 Q21.000000000000000 9.000000000000000 23.750000000000000 10.649999999999977 Q26.500000000000000 12.300000000000011 27.899999999999977 15.500000000000000 Q29.399999999999977 18.800000000000011 29.850000000000023 23.649999999999977 Q30.300000000000011 28.500000000000000 30.300000000000011 34.899999999999977 C30.300000000000011 46.933333333333337 30.300000000000011 61.975000000000023 30.300000000000011 71.000000000000000 C33.125000000000000 71.000000000000000 38.774999999999977 71.000000000000000 41.600000000000023 71.000000000000000 C41.600000000000023 61.975000000000023 41.600000000000023 43.925000000000011 41.600000000000023 34.899999999999977 Q41.600000000000023 26.800000000000011 40.800000000000011 20.149999999999977 Q40.000000000000000 13.500000000000000 37.399999999999977 8.800000000000011 Q34.800000000000011 4.100000000000023 29.800000000000011 1.500000000000000 Q24.800000000000011 -1.100000000000023 16.399999999999977 -1.100000000000023 Q7.399999999999977 -1.100000000000023 1.000000000000000 3.300000000000011 C1.899999999999977 6.366666666666674 3.024999999999977 10.199999999999989 3.699999999999989 12.500000000000000 z" />
<glyph unicode="K" horiz-adv-x="66" d="M8.000000000000000 0.000000000000000 C8.000000000000000 17.725000000000023 8.000000000000000 53.175000000000011 8.000000000000000 70.900000000000006 C10.800000000000011 70.900000000000006 16.399999999999977 70.900000000000006 19.199999999999989 70.900000000000006 C19.199999999999989 61.774999999999977 19.199999999999989 43.524999999999977 19.199999999999989 34.399999999999977 C27.550000000000011 43.550000000000011 44.250000000000000 61.850000000000023 52.600000000000023 71.000000000000000 C55.700000000000045 71.000000000000000 61.899999999999977 71.000000000000000 65.000000000000000 71.000000000000000 C58.000000000000000 63.150000000000006 44.000000000000000 47.449999999999989 37.000000000000000 39.600000000000023 C44.399999999999977 29.699999999999989 59.200000000000045 9.899999999999977 66.600000000000023 0.000000000000000 C63.475000000000023 0.000000000000000 57.225000000000023 0.000000000000000 54.100000000000023 0.000000000000000 C48.100000000000023 8.175000000000011 36.100000000000023 24.524999999999977 30.100000000000023 32.699999999999989 C27.375000000000000 29.875000000000000 21.925000000000011 24.225000000000023 19.199999999999989 21.399999999999977 C19.199999999999989 16.050000000000011 19.199999999999989 5.350000000000023 19.199999999999989 0.000000000000000 C16.399999999999977 0.000000000000000 10.800000000000011 0.000000000000000 8.000000000000000 0.000000000000000 z" />
<glyph unicode="L" horiz-adv-x="58.399999999999999" d="M8.000000000000000 0.000000000000000 C8.000000000000000 17.750000000000000 8.000000000000000 53.250000000000000 8.000000000000000 71.000000000000000 C10.800000000000011 71.000000000000000 16.399999999999977 71.000000000000000 19.199999999999989 71.000000000000000 C19.199999999999989 55.725000000000023 19.199999999999989 25.175000000000011 19.199999999999989 9.899999999999977 C28.725000000000023 9.899999999999977 47.774999999999977 9.899999999999977 57.299999999999955 9.899999999999977 C57.299999999999955 7.425000000000011 57.299999999999955 2.475000000000023 57.299999999999955 0.000000000000000 C44.975000000000023 0.000000000000000 20.324999999999989 0.000000000000000 8.000000000000000 0.000000000000000 z" />
<glyph unicode="M" horiz-adv-x="87" d="M67.700000000000003 0.000000000000000 C67.700000000000045 12.774999999999977 67.700000000000045 38.324999999999989 67.700000000000045 51.100000000000023 C62.424999999999955 41.425000000000011 51.875000000000000 22.074999999999989 46.600000000000023 12.399999999999977 C45.049999999999955 12.399999999999977 41.949999999999989 12.399999999999977 40.399999999999977 12.399999999999977 C35.100000000000023 22.074999999999989 24.500000000000000 41.425000000000011 19.199999999999989 51.100000000000023 C19.199999999999989 38.324999999999989 19.199999999999989 12.774999999999977 19.199999999999989 0.000000000000000 C16.399999999999977 0.000000000000000 10.800000000000011 0.000000000000000 8.000000000000000 0.000000000000000 C8.000000000000000 17.750000000000000 8.000000000000000 53.250000000000000 8.000000000000000 71.000000000000000 C11.000000000000000 71.000000000000000 17.000000000000000 71.000000000000000 20.000000000000000 71.000000000000000 C25.875000000000000 60.149999999999977 37.625000000000000 38.449999999999989 43.500000000000000 27.600000000000023 C49.375000000000000 38.449999999999989 61.125000000000000 60.149999999999977 67.000000000000000 71.000000000000000 C70.000000000000000 71.000000000000000 76.000000000000000 71.000000000000000 79.000000000000000 71.000000000000000 C79.000000000000000 53.250000000000000 79.000000000000000 17.750000000000000 79.000000000000000 0.000000000000000 C76.174999999999955 0.000000000000000 70.524999999999977 0.000000000000000 67.700000000000045 0.000000000000000 z" />
<glyph unicode="N" horiz-adv-x="76.700000000000003" d="M19.199999999999999 50.000000000000000 C19.199999999999989 37.500000000000000 19.199999999999989 12.500000000000000 19.199999999999989 0.000000000000000 C16.399999999999977 0.000000000000000 10.800000000000011 0.000000000000000 8.000000000000000 0.000000000000000 C8.000000000000000 17.750000000000000 8.000000000000000 53.250000000000000 8.000000000000000 71.000000000000000 C10.199999999999989 71.000000000000000 14.600000000000023 71.000000000000000 16.800000000000011 71.000000000000000 C26.949999999999989 58.199999999999989 47.250000000000000 32.600000000000023 57.399999999999977 19.800000000000011 C57.399999999999977 32.574999999999989 57.399999999999977 58.125000000000000 57.399999999999977 70.900000000000006 C60.225000000000023 70.900000000000006 65.875000000000000 70.900000000000006 68.700000000000045 70.900000000000006 C68.700000000000045 53.175000000000011 68.700000000000045 17.725000000000023 68.700000000000045 0.000000000000000 C66.375000000000000 0.000000000000000 61.725000000000023 0.000000000000000 59.399999999999977 0.000000000000000 C49.350000000000023 12.500000000000000 29.250000000000000 37.500000000000000 19.199999999999989 50.000000000000000 z" />
<glyph unicode="O" horiz-adv-x="75.200000000000003" d="M37.500000000000000 -0.500000000000000 Q29.899999999999977 -0.500000000000000 23.649999999999977 2.550000000000011 Q17.399999999999977 5.600000000000023 12.899999999999977 10.600000000000023 Q8.399999999999977 15.699999999999989 5.949999999999989 22.199999999999989 Q3.500000000000000 28.699999999999989 3.500000000000000 35.500000000000000 Q3.500000000000000 42.600000000000023 6.100000000000023 49.100000000000023 Q8.699999999999989 55.600000000000023 13.199999999999989 60.600000000000023 Q17.800000000000011 65.599999999999994 24.050000000000011 68.550000000000011 Q30.300000000000011 71.500000000000000 37.699999999999989 71.500000000000000 Q45.299999999999955 71.500000000000000 51.549999999999955 68.349999999999994 Q57.799999999999955 65.199999999999989 62.200000000000045 60.100000000000023 Q66.700000000000045 55.000000000000000 69.149999999999977 48.550000000000011 Q71.600000000000023 42.100000000000023 71.600000000000023 35.399999999999977 Q71.600000000000023 28.300000000000011 69.049999999999955 21.800000000000011 Q66.500000000000000 15.300000000000011 61.899999999999977 10.300000000000011 Q57.299999999999955 5.399999999999977 51.049999999999955 2.449999999999989 Q44.799999999999955 -0.500000000000000 37.500000000000000 -0.500000000000000 zM14.900000000000000 35.500000000000000 Q14.899999999999977 30.500000000000000 16.500000000000000 25.800000000000011 Q18.100000000000023 21.100000000000023 21.000000000000000 17.500000000000000 Q24.000000000000000 13.899999999999977 28.199999999999989 11.750000000000000 Q32.399999999999977 9.600000000000023 37.600000000000023 9.600000000000023 Q43.000000000000000 9.600000000000023 47.149999999999977 11.850000000000023 Q51.299999999999955 14.100000000000023 54.200000000000045 17.800000000000011 Q57.100000000000023 21.500000000000000 58.600000000000023 26.100000000000023 Q60.100000000000023 30.699999999999989 60.100000000000023 35.500000000000000 Q60.100000000000023 40.600000000000023 58.500000000000000 45.250000000000000 Q56.899999999999977 49.899999999999977 53.899999999999977 53.399999999999977 Q51.000000000000000 57.000000000000000 46.850000000000023 59.149999999999977 Q42.699999999999989 61.300000000000011 37.600000000000023 61.300000000000011 Q32.199999999999989 61.300000000000011 28.000000000000000 59.050000000000011 Q23.800000000000011 56.800000000000011 20.899999999999977 53.199999999999989 Q18.000000000000000 49.600000000000023 16.449999999999989 44.949999999999989 Q14.899999999999977 40.300000000000011 14.899999999999977 35.500000000000000 z" />
<glyph unicode="P" horiz-adv-x="62.299999999999997" d="M8.000000000000000 0.000000000000000 C8.000000000000000 17.750000000000000 8.000000000000000 53.250000000000000 8.000000000000000 71.000000000000000 C15.449999999999989 71.000000000000000 30.350000000000023 71.000000000000000 37.800000000000011 71.000000000000000 Q42.600000000000023 71.000000000000000 46.649999999999977 69.000000000000000 Q50.700000000000045 67.000000000000000 53.600000000000023 63.699999999999989 Q56.500000000000000 60.500000000000000 58.149999999999977 56.350000000000023 Q59.799999999999955 52.199999999999989 59.799999999999955 47.899999999999977 Q59.799999999999955 43.399999999999977 58.250000000000000 39.250000000000000 Q56.700000000000045 35.100000000000023 53.899999999999977 31.800000000000011 Q51.100000000000023 28.600000000000023 47.149999999999977 26.649999999999977 Q43.200000000000045 24.699999999999989 38.399999999999977 24.699999999999989 C32.000000000000000 24.699999999999989 24.000000000000000 24.699999999999989 19.199999999999989 24.699999999999989 C19.199999999999989 18.524999999999977 19.199999999999989 6.175000000000011 19.199999999999989 0.000000000000000 C16.399999999999977 0.000000000000000 10.800000000000011 0.000000000000000 8.000000000000000 0.000000000000000 zM19.199999999999999 34.600000000000001 C23.824999999999989 34.600000000000023 33.074999999999989 34.600000000000023 37.699999999999989 34.600000000000023 Q40.100000000000023 34.600000000000023 42.050000000000011 35.600000000000023 Q44.000000000000000 36.600000000000023 45.399999999999977 38.399999999999977 Q46.799999999999955 40.199999999999989 47.600000000000023 42.600000000000023 Q48.399999999999977 45.000000000000000 48.399999999999977 47.899999999999977 Q48.399999999999977 50.899999999999977 47.500000000000000 53.300000000000011 Q46.600000000000023 55.699999999999989 45.000000000000000 57.399999999999977 Q43.399999999999977 59.199999999999989 41.350000000000023 60.149999999999977 Q39.300000000000011 61.100000000000023 37.100000000000023 61.100000000000023 C31.133333333333326 61.100000000000023 23.675000000000011 61.100000000000023 19.199999999999989 61.100000000000023 C19.199999999999989 54.475000000000023 19.199999999999989 41.225000000000023 19.199999999999989 34.600000000000023 z" />
<glyph unicode="Q" horiz-adv-x="75" d="M56.000000000000000 5.200000000000000 Q52.000000000000000 2.500000000000000 47.350000000000023 1.000000000000000 Q42.699999999999989 -0.500000000000000 37.500000000000000 -0.500000000000000 Q29.899999999999977 -0.500000000000000 23.649999999999977 2.600000000000023 Q17.399999999999977 5.699999999999989 12.899999999999977 10.699999999999989 Q8.399999999999977 15.699999999999989 5.949999999999989 22.199999999999989 Q3.500000000000000 28.699999999999989 3.500000000000000 35.500000000000000 Q3.500000000000000 42.600000000000023 6.100000000000023 49.100000000000023 Q8.699999999999989 55.600000000000023 13.199999999999989 60.600000000000023 Q17.800000000000011 65.599999999999994 24.050000000000011 68.550000000000011 Q30.300000000000011 71.500000000000000 37.699999999999989 71.500000000000000 Q45.299999999999955 71.500000000000000 51.549999999999955 68.349999999999994 Q57.799999999999955 65.199999999999989 62.200000000000045 60.100000000000023 Q66.700000000000045 55.000000000000000 69.149999999999977 48.550000000000011 Q71.600000000000023 42.100000000000023 71.600000000000023 35.399999999999977 Q71.600000000000023 28.300000000000011 69.100000000000023 21.949999999999989 Q66.600000000000023 15.600000000000023 62.100000000000023 10.600000000000023 C65.200000000000045 7.066666666666663 69.075000000000045 2.649999999999977 71.399999999999977 0.000000000000000 C68.700000000000045 0.000000000000000 63.299999999999955 0.000000000000000 60.600000000000023 0.000000000000000 C59.450000000000045 1.300000000000011 57.149999999999977 3.899999999999977 56.000000000000000 5.199999999999989 zM37.600000000000001 9.600000000000000 Q40.899999999999977 9.600000000000023 43.799999999999955 10.500000000000000 Q46.700000000000045 11.399999999999977 49.100000000000023 13.000000000000000 C45.733333333333348 16.899999999999977 41.524999999999977 21.774999999999977 39.000000000000000 24.699999999999989 C41.699999999999989 24.699999999999989 47.100000000000023 24.699999999999989 49.799999999999955 24.699999999999989 C51.075000000000045 23.225000000000023 53.625000000000000 20.274999999999977 54.899999999999977 18.800000000000011 Q57.500000000000000 22.300000000000011 58.799999999999955 26.649999999999977 Q60.100000000000023 31.000000000000000 60.100000000000023 35.500000000000000 Q60.100000000000023 40.600000000000023 58.500000000000000 45.250000000000000 Q56.899999999999977 49.899999999999977 53.899999999999977 53.500000000000000 Q51.000000000000000 57.100000000000023 46.850000000000023 59.250000000000000 Q42.699999999999989 61.399999999999977 37.600000000000023 61.399999999999977 Q32.199999999999989 61.399999999999977 28.000000000000000 59.149999999999977 Q23.800000000000011 56.899999999999977 20.899999999999977 53.199999999999989 Q18.000000000000000 49.600000000000023 16.449999999999989 44.949999999999989 Q14.899999999999977 40.300000000000011 14.899999999999977 35.500000000000000 Q14.899999999999977 30.500000000000000 16.500000000000000 25.800000000000011 Q18.100000000000023 21.100000000000023 21.000000000000000 17.500000000000000 Q24.000000000000000 13.899999999999977 28.199999999999989 11.750000000000000 Q32.399999999999977 9.600000000000023 37.600000000000023 9.600000000000023 z" />
<glyph unicode="R" horiz-adv-x="66.099999999999994" d="M8.000000000000000 0.000000000000000 C8.000000000000000 17.750000000000000 8.000000000000000 53.250000000000000 8.000000000000000 71.000000000000000 C15.725000000000023 71.000000000000000 31.175000000000011 71.000000000000000 38.899999999999977 71.000000000000000 Q43.700000000000045 71.000000000000000 47.750000000000000 69.000000000000000 Q51.799999999999955 67.000000000000000 54.700000000000045 63.699999999999989 Q57.600000000000023 60.500000000000000 59.250000000000000 56.350000000000023 Q60.899999999999977 52.199999999999989 60.899999999999977 47.899999999999977 Q60.899999999999977 44.300000000000011 59.899999999999977 41.000000000000000 Q58.899999999999977 37.699999999999989 57.100000000000023 34.899999999999977 Q55.299999999999955 32.100000000000023 52.700000000000045 30.050000000000011 Q50.100000000000023 28.000000000000000 47.000000000000000 27.000000000000000 C52.566666666666720 18.000000000000000 59.524999999999977 6.750000000000000 63.700000000000045 0.000000000000000 C60.524999999999977 0.000000000000000 54.174999999999955 0.000000000000000 51.000000000000000 0.000000000000000 C47.149999999999977 6.175000000000011 39.449999999999989 18.524999999999977 35.600000000000023 24.699999999999989 C31.500000000000000 24.699999999999989 23.300000000000011 24.699999999999989 19.199999999999989 24.699999999999989 C19.199999999999989 18.524999999999977 19.199999999999989 6.175000000000011 19.199999999999989 0.000000000000000 C16.399999999999977 0.000000000000000 10.800000000000011 0.000000000000000 8.000000000000000 0.000000000000000 zM19.199999999999999 34.600000000000001 C24.100000000000023 34.600000000000023 33.899999999999977 34.600000000000023 38.800000000000011 34.600000000000023 Q41.199999999999989 34.600000000000023 43.149999999999977 35.649999999999977 Q45.100000000000023 36.699999999999989 46.500000000000000 38.500000000000000 Q47.899999999999977 40.399999999999977 48.700000000000045 42.800000000000011 Q49.500000000000000 45.199999999999989 49.500000000000000 47.899999999999977 Q49.500000000000000 50.600000000000023 48.549999999999955 53.000000000000000 Q47.600000000000023 55.399999999999977 46.000000000000000 57.199999999999989 Q44.500000000000000 59.000000000000000 42.449999999999989 60.050000000000011 Q40.399999999999977 61.100000000000023 38.199999999999989 61.100000000000023 C31.866666666666674 61.100000000000023 23.949999999999989 61.100000000000023 19.199999999999989 61.100000000000023 C19.199999999999989 54.475000000000023 19.199999999999989 41.225000000000023 19.199999999999989 34.600000000000023 z" />
<glyph unicode="S" horiz-adv-x="61.100000000000001" d="M50.000000000000000 54.299999999999997 Q49.000000000000000 55.399999999999977 47.100000000000023 56.649999999999977 Q45.200000000000045 57.899999999999977 42.600000000000023 59.000000000000000 Q40.100000000000023 60.100000000000023 37.050000000000011 60.800000000000011 Q34.000000000000000 61.500000000000000 30.800000000000011 61.500000000000000 Q23.699999999999989 61.500000000000000 20.350000000000023 58.899999999999977 Q17.000000000000000 56.300000000000011 17.000000000000000 51.699999999999989 Q17.000000000000000 49.100000000000023 18.050000000000011 47.449999999999989 Q19.100000000000023 45.800000000000011 21.300000000000011 44.500000000000000 Q23.500000000000000 43.300000000000011 26.800000000000011 42.350000000000023 Q30.100000000000023 41.399999999999977 34.500000000000000 40.300000000000011 Q39.899999999999977 39.000000000000000 44.250000000000000 37.399999999999977 Q48.600000000000023 35.800000000000011 51.600000000000023 33.500000000000000 Q54.600000000000023 31.199999999999989 56.250000000000000 27.850000000000023 Q57.899999999999977 24.500000000000000 57.899999999999977 19.699999999999989 Q57.899999999999977 14.300000000000011 55.850000000000023 10.399999999999977 Q53.799999999999955 6.500000000000000 50.200000000000045 4.000000000000000 Q46.700000000000045 1.600000000000023 42.000000000000000 0.449999999999989 Q37.300000000000011 -0.699999999999989 31.899999999999977 -0.699999999999989 Q23.800000000000011 -0.699999999999989 16.250000000000000 1.750000000000000 Q8.699999999999989 4.199999999999989 2.600000000000023 8.899999999999977 C4.300000000000011 12.100000000000023 6.425000000000011 16.100000000000023 7.699999999999989 18.500000000000000 Q9.000000000000000 17.199999999999989 11.449999999999989 15.600000000000023 Q13.899999999999977 14.000000000000000 17.100000000000023 12.600000000000023 Q20.399999999999977 11.300000000000011 24.199999999999989 10.350000000000023 Q28.000000000000000 9.399999999999977 32.100000000000023 9.399999999999977 Q38.699999999999989 9.399999999999977 42.300000000000011 11.699999999999989 Q45.899999999999977 14.000000000000000 45.899999999999977 18.500000000000000 Q45.899999999999977 21.199999999999989 44.549999999999955 23.000000000000000 Q43.200000000000045 24.800000000000011 40.699999999999989 26.100000000000023 Q38.199999999999989 27.500000000000000 34.600000000000023 28.600000000000023 Q31.000000000000000 29.699999999999989 26.399999999999977 30.899999999999977 Q21.100000000000023 32.300000000000011 17.149999999999977 33.850000000000023 Q13.199999999999989 35.399999999999977 10.600000000000023 37.600000000000023 Q8.000000000000000 39.800000000000011 6.649999999999977 42.750000000000000 Q5.300000000000011 45.699999999999989 5.300000000000011 49.899999999999977 Q5.300000000000011 55.100000000000023 7.300000000000011 59.149999999999977 Q9.300000000000011 63.199999999999989 12.699999999999989 65.900000000000006 Q16.199999999999989 68.699999999999989 20.899999999999977 70.099999999999994 Q25.600000000000023 71.500000000000000 31.100000000000023 71.500000000000000 Q38.300000000000011 71.500000000000000 44.399999999999977 69.199999999999989 Q50.500000000000000 66.900000000000006 55.100000000000023 63.500000000000000 C53.399999999999977 60.433333333333337 51.274999999999977 56.600000000000023 50.000000000000000 54.300000000000011 z" />
<glyph unicode="T" horiz-adv-x="61.600000000000001" d="M60.100000000000001 61.100000000000001 C54.200000000000045 61.100000000000023 42.399999999999977 61.100000000000023 36.500000000000000 61.100000000000023 C36.500000000000000 45.824999999999989 36.500000000000000 15.274999999999977 36.500000000000000 0.000000000000000 C33.675000000000011 0.000000000000000 28.024999999999977 0.000000000000000 25.199999999999989 0.000000000000000 C25.199999999999989 15.274999999999977 25.199999999999989 45.824999999999989 25.199999999999989 61.100000000000023 C19.274999999999977 61.100000000000023 7.425000000000011 61.100000000000023 1.500000000000000 61.100000000000023 C1.500000000000000 63.574999999999989 1.500000000000000 68.525000000000006 1.500000000000000 71.000000000000000 C16.149999999999977 71.000000000000000 45.450000000000045 71.000000000000000 60.100000000000023 71.000000000000000 C60.100000000000023 68.525000000000006 60.100000000000023 63.574999999999989 60.100000000000023 61.100000000000023 z" />
<glyph unicode="U" horiz-adv-x="75.200000000000003" d="M37.600000000000001 9.600000000000000 Q43.200000000000045 9.600000000000023 46.899999999999977 11.800000000000011 Q50.600000000000023 14.000000000000000 52.799999999999955 17.500000000000000 Q55.100000000000023 21.100000000000023 56.049999999999955 25.649999999999977 Q57.000000000000000 30.199999999999989 57.000000000000000 35.000000000000000 C57.000000000000000 47.000000000000000 57.000000000000000 62.000000000000000 57.000000000000000 71.000000000000000 C59.825000000000045 71.000000000000000 65.475000000000023 71.000000000000000 68.299999999999955 71.000000000000000 C68.299999999999955 62.000000000000000 68.299999999999955 44.000000000000000 68.299999999999955 35.000000000000000 Q68.299999999999955 27.699999999999989 66.600000000000023 21.250000000000000 Q64.899999999999977 14.800000000000011 61.200000000000045 9.899999999999977 Q57.500000000000000 5.100000000000023 51.649999999999977 2.300000000000011 Q45.799999999999955 -0.500000000000000 37.600000000000023 -0.500000000000000 Q29.100000000000023 -0.500000000000000 23.250000000000000 2.449999999999989 Q17.399999999999977 5.399999999999977 13.800000000000011 10.300000000000011 Q10.199999999999989 15.300000000000011 8.600000000000023 21.699999999999989 Q7.000000000000000 28.100000000000023 7.000000000000000 35.000000000000000 C7.000000000000000 47.000000000000000 7.000000000000000 62.000000000000000 7.000000000000000 71.000000000000000 C9.800000000000011 71.000000000000000 15.399999999999977 71.000000000000000 18.199999999999989 71.000000000000000 C18.199999999999989 62.000000000000000 18.199999999999989 44.000000000000000 18.199999999999989 35.000000000000000 Q18.199999999999989 30.100000000000023 19.149999999999977 25.550000000000011 Q20.100000000000023 21.000000000000000 22.300000000000011 17.399999999999977 Q24.600000000000023 13.899999999999977 28.350000000000023 11.750000000000000 Q32.100000000000023 9.600000000000023 37.600000000000023 9.600000000000023 z" />
<glyph unicode="V" horiz-adv-x="67.799999999999997" d="M12.500000000000000 71.000000000000000 C17.850000000000023 56.774999999999977 28.550000000000011 28.324999999999989 33.899999999999977 14.100000000000023 C39.225000000000023 28.324999999999989 49.875000000000000 56.774999999999977 55.200000000000045 71.000000000000000 C58.174999999999955 71.000000000000000 64.125000000000000 71.000000000000000 67.100000000000023 71.000000000000000 C60.000000000000000 53.250000000000000 45.799999999999955 17.750000000000000 38.699999999999989 0.000000000000000 C36.300000000000011 0.000000000000000 31.500000000000000 0.000000000000000 29.100000000000023 0.000000000000000 C21.975000000000023 17.750000000000000 7.724999999999966 53.250000000000000 0.600000000000023 71.000000000000000 C3.574999999999989 71.000000000000000 9.524999999999977 71.000000000000000 12.500000000000000 71.000000000000000 z" />
<glyph unicode="W" horiz-adv-x="105.09999999999999" d="M59.700000000000003 39.100000000000001 C62.350000000000023 32.574999999999989 67.649999999999977 19.524999999999977 70.299999999999955 13.000000000000000 C75.825000000000045 27.500000000000000 86.875000000000000 56.500000000000000 92.399999999999977 71.000000000000000 C95.475000000000023 71.000000000000000 101.625000000000000 71.000000000000000 104.700000000000045 71.000000000000000 C97.375000000000000 53.250000000000000 82.725000000000023 17.750000000000000 75.399999999999977 0.000000000000000 C73.000000000000000 0.000000000000000 68.200000000000045 0.000000000000000 65.799999999999955 0.000000000000000 C62.500000000000000 7.949999999999989 55.899999999999977 23.850000000000023 52.600000000000023 31.800000000000011 C49.274999999999977 23.850000000000023 42.625000000000000 7.949999999999989 39.300000000000011 0.000000000000000 C36.899999999999977 0.000000000000000 32.100000000000023 0.000000000000000 29.699999999999989 0.000000000000000 C22.375000000000000 17.750000000000000 7.724999999999966 53.250000000000000 0.399999999999977 71.000000000000000 C3.449999999999989 71.000000000000000 9.550000000000011 71.000000000000000 12.600000000000023 71.000000000000000 C18.149999999999977 56.500000000000000 29.250000000000000 27.500000000000000 34.800000000000011 13.000000000000000 C37.449999999999989 19.524999999999977 42.750000000000000 32.574999999999989 45.399999999999977 39.100000000000023 C48.975000000000023 39.100000000000023 56.125000000000000 39.100000000000023 59.700000000000045 39.100000000000023 z" />
<glyph unicode="X" horiz-adv-x="64.099999999999994" d="M12.400000000000000 71.000000000000000 C17.324999999999989 64.000000000000000 27.175000000000011 50.000000000000000 32.100000000000023 43.000000000000000 C37.024999999999977 50.000000000000000 46.875000000000000 64.000000000000000 51.799999999999955 71.000000000000000 C54.875000000000000 71.000000000000000 61.024999999999977 71.000000000000000 64.100000000000023 71.000000000000000 C57.600000000000023 62.000000000000000 44.600000000000023 44.000000000000000 38.100000000000023 35.000000000000000 C44.399999999999977 26.250000000000000 57.000000000000000 8.750000000000000 63.299999999999955 0.000000000000000 C60.225000000000023 0.000000000000000 54.075000000000045 0.000000000000000 51.000000000000000 0.000000000000000 C46.274999999999977 6.750000000000000 36.824999999999989 20.250000000000000 32.100000000000023 27.000000000000000 C27.375000000000000 20.250000000000000 17.925000000000011 6.750000000000000 13.199999999999989 0.000000000000000 C10.100000000000023 0.000000000000000 3.899999999999977 0.000000000000000 0.800000000000011 0.000000000000000 C7.125000000000000 8.750000000000000 19.774999999999977 26.250000000000000 26.100000000000023 35.000000000000000 C19.574999999999989 44.000000000000000 6.524999999999977 62.000000000000000 0.000000000000000 71.000000000000000 C3.100000000000023 71.000000000000000 9.300000000000011 71.000000000000000 12.399999999999977 71.000000000000000 z" />
<glyph unicode="Y" horiz-adv-x="65.700000000000003" d="M13.199999999999999 71.000000000000000 C18.100000000000023 62.100000000000023 27.899999999999977 44.300000000000011 32.800000000000011 35.399999999999977 C37.750000000000000 44.300000000000011 47.649999999999977 62.100000000000023 52.600000000000023 71.000000000000000 C55.674999999999955 71.000000000000000 61.825000000000045 71.000000000000000 64.899999999999977 71.000000000000000 C58.274999999999977 59.600000000000023 45.024999999999977 36.800000000000011 38.399999999999977 25.399999999999977 C38.399999999999977 19.050000000000011 38.399999999999977 6.350000000000023 38.399999999999977 0.000000000000000 C35.600000000000023 0.000000000000000 30.000000000000000 0.000000000000000 27.199999999999989 0.000000000000000 C27.199999999999989 6.399999999999977 27.199999999999989 19.199999999999989 27.199999999999989 25.600000000000023 C20.625000000000000 36.949999999999989 7.475000000000023 59.649999999999977 0.899999999999977 71.000000000000000 C3.975000000000023 71.000000000000000 10.125000000000000 71.000000000000000 13.199999999999989 71.000000000000000 z" />
<glyph unicode="Z" horiz-adv-x="62.899999999999999" d="M3.100000000000000 8.600000000000000 C13.875000000000000 21.725000000000023 35.425000000000011 47.975000000000023 46.200000000000045 61.100000000000023 C35.675000000000011 61.100000000000023 14.625000000000000 61.100000000000023 4.100000000000023 61.100000000000023 C4.100000000000023 63.574999999999989 4.100000000000023 68.525000000000006 4.100000000000023 71.000000000000000 C17.899999999999977 71.000000000000000 45.500000000000000 71.000000000000000 59.299999999999955 71.000000000000000 C59.299999999999955 68.849999999999994 59.299999999999955 64.550000000000011 59.299999999999955 62.399999999999977 C48.774999999999977 49.274999999999977 27.725000000000023 23.024999999999977 17.199999999999989 9.899999999999977 C27.750000000000000 9.899999999999977 48.850000000000023 9.899999999999977 59.399999999999977 9.899999999999977 C59.399999999999977 7.425000000000011 59.399999999999977 2.475000000000023 59.399999999999977 0.000000000000000 C45.325000000000045 0.000000000000000 17.175000000000011 0.000000000000000 3.100000000000023 0.000000000000000 C3.100000000000023 2.149999999999977 3.100000000000023 6.449999999999989 3.100000000000023 8.600000000000023 z" />
<glyph unicode="[" horiz-adv-x="29.199999999999999" d="M8.300000000000001 -4.000000000000000 C8.300000000000011 15.500000000000000 8.300000000000011 54.500000000000000 8.300000000000011 74.000000000000000 C12.375000000000000 74.000000000000000 20.524999999999977 74.000000000000000 24.600000000000023 74.000000000000000 C24.600000000000023 71.775000000000006 24.600000000000023 67.324999999999989 24.600000000000023 65.099999999999994 C23.074999999999989 65.099999999999994 20.024999999999977 65.099999999999994 18.500000000000000 65.099999999999994 C18.500000000000000 50.050000000000011 18.500000000000000 19.949999999999989 18.500000000000000 4.899999999999977 C20.024999999999977 4.899999999999977 23.074999999999989 4.899999999999977 24.600000000000023 4.899999999999977 C24.600000000000023 2.675000000000011 24.600000000000023 -1.774999999999977 24.600000000000023 -4.000000000000000 C20.524999999999977 -4.000000000000000 12.375000000000000 -4.000000000000000 8.300000000000011 -4.000000000000000 z" />
<glyph unicode="\" horiz-adv-x="61.200000000000003" d="M15.000000000000000 71.000000000000000 C25.875000000000000 53.250000000000000 47.625000000000000 17.750000000000000 58.500000000000000 0.000000000000000 C55.450000000000045 0.000000000000000 49.350000000000023 0.000000000000000 46.299999999999955 0.000000000000000 C35.399999999999977 17.750000000000000 13.600000000000023 53.250000000000000 2.699999999999989 71.000000000000000 C5.774999999999977 71.000000000000000 11.925000000000011 71.000000000000000 15.000000000000000 71.000000000000000 z" />
<glyph unicode="]" horiz-adv-x="29.199999999999999" d="M4.600000000000000 -4.000000000000000 C4.600000000000023 -1.774999999999977 4.600000000000023 2.675000000000011 4.600000000000023 4.899999999999977 C6.125000000000000 4.899999999999977 9.175000000000011 4.899999999999977 10.699999999999989 4.899999999999977 C10.699999999999989 19.949999999999989 10.699999999999989 50.050000000000011 10.699999999999989 65.099999999999994 C9.175000000000011 65.099999999999994 6.125000000000000 65.099999999999994 4.600000000000023 65.099999999999994 C4.600000000000023 67.324999999999989 4.600000000000023 71.775000000000006 4.600000000000023 74.000000000000000 C8.675000000000011 74.000000000000000 16.824999999999989 74.000000000000000 20.899999999999977 74.000000000000000 C20.899999999999977 54.500000000000000 20.899999999999977 15.500000000000000 20.899999999999977 -4.000000000000000 C16.824999999999989 -4.000000000000000 8.675000000000011 -4.000000000000000 4.600000000000023 -4.000000000000000 z" />
<glyph unicode="^" horiz-adv-x="56.899999999999999" d="M4.100000000000000 30.300000000000001 C9.050000000000011 40.475000000000023 18.949999999999989 60.824999999999989 23.899999999999977 71.000000000000000 C26.199999999999989 71.000000000000000 30.800000000000011 71.000000000000000 33.100000000000023 71.000000000000000 C38.024999999999977 60.824999999999989 47.875000000000000 40.475000000000023 52.799999999999955 30.300000000000011 C50.500000000000000 30.300000000000011 45.899999999999977 30.300000000000011 43.600000000000023 30.300000000000011 C39.824999999999989 38.100000000000023 32.274999999999977 53.699999999999989 28.500000000000000 61.500000000000000 C24.649999999999977 53.699999999999989 16.949999999999989 38.100000000000023 13.100000000000023 30.300000000000011 C10.850000000000023 30.300000000000011 6.350000000000023 30.300000000000011 4.100000000000023 30.300000000000011 z" />
<glyph unicode="_" horiz-adv-x="49" d="M5.900000000000000 -9.900000000000000 C5.899999999999977 -7.425000000000011 5.899999999999977 -2.475000000000023 5.899999999999977 0.000000000000000 C15.199999999999989 0.000000000000000 33.800000000000011 0.000000000000000 43.100000000000023 0.000000000000000 C43.100000000000023 -2.475000000000023 43.100000000000023 -7.425000000000011 43.100000000000023 -9.899999999999977 C33.800000000000011 -9.899999999999977 15.199999999999989 -9.899999999999977 5.899999999999977 -9.899999999999977 z" />
<glyph unicode="`" horiz-adv-x="24.300000000000001" d="M4.700000000000000 73.000000000000000 C7.324999999999989 73.000000000000000 12.574999999999989 73.000000000000000 15.199999999999989 73.000000000000000 C16.625000000000000 70.250000000000000 19.475000000000023 64.750000000000000 20.899999999999977 62.000000000000000 C19.149999999999977 61.449999999999989 15.649999999999977 60.350000000000023 13.899999999999977 59.800000000000011 C11.600000000000023 63.099999999999994 7.000000000000000 69.699999999999989 4.699999999999989 73.000000000000000 z" />
<glyph unicode="a" horiz-adv-x="56.399999999999999" d="M20.500000000000000 -1.000000000000000 Q16.699999999999989 -1.000000000000000 13.449999999999989 0.250000000000000 Q10.199999999999989 1.500000000000000 7.800000000000011 3.699999999999989 Q5.500000000000000 5.899999999999977 4.149999999999977 8.899999999999977 Q2.800000000000011 11.899999999999977 2.800000000000011 15.399999999999977 Q2.800000000000011 19.100000000000023 4.399999999999977 22.100000000000023 Q6.000000000000000 25.100000000000023 8.899999999999977 27.300000000000011 Q11.899999999999977 29.500000000000000 15.949999999999989 30.699999999999989 Q20.000000000000000 31.899999999999977 24.899999999999977 31.899999999999977 Q28.600000000000023 31.899999999999977 32.199999999999989 31.250000000000000 Q35.800000000000011 30.600000000000023 38.699999999999989 29.500000000000000 C38.699999999999989 30.699999999999989 38.699999999999989 32.199999999999989 38.699999999999989 33.100000000000023 Q38.699999999999989 38.899999999999977 35.399999999999977 42.149999999999977 Q32.100000000000023 45.399999999999977 25.899999999999977 45.399999999999977 Q21.699999999999989 45.399999999999977 17.649999999999977 43.850000000000023 Q13.600000000000023 42.300000000000011 9.300000000000011 39.399999999999977 C8.166666666666686 41.733333333333348 6.750000000000000 44.649999999999977 5.899999999999977 46.399999999999977 Q16.000000000000000 53.199999999999989 26.899999999999977 53.199999999999989 Q37.699999999999989 53.199999999999989 43.700000000000045 47.699999999999989 Q49.700000000000045 42.199999999999989 49.700000000000045 31.899999999999977 C49.700000000000045 25.600000000000023 49.700000000000045 17.725000000000023 49.700000000000045 13.000000000000000 Q49.700000000000045 9.500000000000000 52.600000000000023 9.399999999999977 C52.600000000000023 6.266666666666652 52.600000000000023 2.350000000000023 52.600000000000023 0.000000000000000 Q51.000000000000000 -0.300000000000011 49.850000000000023 -0.399999999999977 Q48.700000000000045 -0.500000000000000 47.600000000000023 -0.500000000000000 Q44.399999999999977 -0.500000000000000 42.649999999999977 1.100000000000023 Q40.899999999999977 2.699999999999989 40.500000000000000 5.199999999999989 C40.399999999999977 6.300000000000011 40.274999999999977 7.675000000000011 40.199999999999989 8.500000000000000 Q36.699999999999989 3.899999999999977 31.550000000000011 1.449999999999989 Q26.399999999999977 -1.000000000000000 20.500000000000000 -1.000000000000000 zM23.500000000000000 7.100000000000000 Q27.500000000000000 7.100000000000023 31.050000000000011 8.550000000000011 Q34.600000000000023 10.000000000000000 36.600000000000023 12.600000000000023 Q38.699999999999989 14.399999999999977 38.699999999999989 16.399999999999977 C38.699999999999989 18.699999999999989 38.699999999999989 21.574999999999989 38.699999999999989 23.300000000000011 Q35.899999999999977 24.399999999999977 32.750000000000000 25.000000000000000 Q29.600000000000023 25.600000000000023 26.600000000000023 25.600000000000023 Q20.699999999999989 25.600000000000023 16.949999999999989 23.050000000000011 Q13.199999999999989 20.500000000000000 13.199999999999989 16.300000000000011 Q13.199999999999989 12.399999999999977 16.100000000000023 9.750000000000000 Q19.000000000000000 7.100000000000023 23.500000000000000 7.100000000000023 z" />
<glyph unicode="b" horiz-adv-x="62.799999999999997" d="M34.799999999999997 -1.000000000000000 Q28.800000000000011 -1.000000000000000 23.949999999999989 1.850000000000023 Q19.100000000000023 4.699999999999989 16.300000000000011 9.500000000000000 C16.300000000000011 6.333333333333314 16.300000000000011 2.375000000000000 16.300000000000011 0.000000000000000 C13.875000000000000 0.000000000000000 9.024999999999977 0.000000000000000 6.600000000000023 0.000000000000000 C6.600000000000023 18.250000000000000 6.600000000000023 54.750000000000000 6.600000000000023 73.000000000000000 C9.350000000000023 73.000000000000000 14.850000000000023 73.000000000000000 17.600000000000023 73.000000000000000 C17.600000000000023 65.349999999999994 17.600000000000023 50.050000000000011 17.600000000000023 42.399999999999977 Q20.699999999999989 47.399999999999977 25.350000000000023 50.300000000000011 Q30.000000000000000 53.199999999999989 36.300000000000011 53.199999999999989 Q41.500000000000000 53.199999999999989 45.799999999999955 50.949999999999989 Q50.100000000000023 48.699999999999989 53.100000000000023 44.899999999999977 Q56.200000000000045 41.199999999999989 57.850000000000023 36.250000000000000 Q59.500000000000000 31.300000000000011 59.500000000000000 25.899999999999977 Q59.500000000000000 20.300000000000011 57.600000000000023 15.399999999999977 Q55.700000000000045 10.500000000000000 52.399999999999977 6.800000000000011 Q49.100000000000023 3.199999999999989 44.549999999999955 1.100000000000023 Q40.000000000000000 -1.000000000000000 34.800000000000011 -1.000000000000000 zM31.899999999999999 8.400000000000000 Q35.500000000000000 8.399999999999977 38.500000000000000 9.850000000000023 Q41.500000000000000 11.300000000000011 43.600000000000023 13.699999999999989 Q45.799999999999955 16.100000000000023 47.000000000000000 19.250000000000000 Q48.200000000000045 22.399999999999977 48.200000000000045 25.899999999999977 Q48.200000000000045 29.399999999999977 47.049999999999955 32.649999999999977 Q45.899999999999977 35.899999999999977 43.799999999999955 38.300000000000011 Q41.800000000000011 40.800000000000011 38.949999999999989 42.300000000000011 Q36.100000000000023 43.800000000000011 32.699999999999989 43.800000000000011 Q27.600000000000023 43.800000000000011 23.649999999999977 40.500000000000000 Q19.699999999999989 37.199999999999989 17.600000000000023 32.500000000000000 C17.600000000000023 27.899999999999977 17.600000000000023 22.149999999999977 17.600000000000023 18.699999999999989 Q18.199999999999989 16.399999999999977 19.699999999999989 14.550000000000011 Q21.199999999999989 12.699999999999989 23.199999999999989 11.300000000000011 Q25.199999999999989 9.899999999999977 27.500000000000000 9.149999999999977 Q29.800000000000011 8.399999999999977 31.899999999999977 8.399999999999977 z" />
<glyph unicode="c" horiz-adv-x="55.899999999999999" d="M3.200000000000000 26.199999999999999 Q3.199999999999989 31.699999999999989 5.100000000000023 36.600000000000023 Q7.000000000000000 41.500000000000000 10.500000000000000 45.199999999999989 Q14.100000000000023 48.899999999999977 19.100000000000023 51.050000000000011 Q24.100000000000023 53.199999999999989 30.300000000000011 53.199999999999989 Q38.399999999999977 53.199999999999989 44.250000000000000 49.649999999999977 Q50.100000000000023 46.100000000000023 53.000000000000000 40.199999999999989 C49.433333333333280 39.066666666666663 44.975000000000023 37.649999999999977 42.300000000000011 36.800000000000011 Q40.399999999999977 40.100000000000023 37.199999999999989 41.949999999999989 Q34.000000000000000 43.800000000000011 30.100000000000023 43.800000000000011 Q26.800000000000011 43.800000000000011 23.949999999999989 42.500000000000000 Q21.100000000000023 41.199999999999989 19.000000000000000 38.800000000000011 Q16.899999999999977 36.500000000000000 15.699999999999989 33.300000000000011 Q14.500000000000000 30.100000000000023 14.500000000000000 26.199999999999989 Q14.500000000000000 22.399999999999977 15.750000000000000 19.149999999999977 Q17.000000000000000 15.899999999999977 19.100000000000023 13.500000000000000 Q21.300000000000011 11.100000000000023 24.149999999999977 9.750000000000000 Q27.000000000000000 8.399999999999977 30.199999999999989 8.399999999999977 Q32.199999999999989 8.399999999999977 34.199999999999989 8.949999999999989 Q36.199999999999989 9.500000000000000 37.800000000000011 10.500000000000000 Q39.500000000000000 11.500000000000000 40.750000000000000 12.800000000000011 Q42.000000000000000 14.100000000000023 42.600000000000023 15.600000000000023 C46.200000000000045 14.533333333333303 50.700000000000045 13.199999999999989 53.399999999999977 12.399999999999977 Q50.799999999999955 6.500000000000000 44.700000000000045 2.750000000000000 Q38.600000000000023 -1.000000000000000 30.300000000000011 -1.000000000000000 Q24.199999999999989 -1.000000000000000 19.199999999999989 1.199999999999989 Q14.199999999999989 3.399999999999977 10.600000000000023 7.100000000000023 Q7.100000000000023 10.899999999999977 5.149999999999977 15.800000000000011 Q3.199999999999989 20.699999999999989 3.199999999999989 26.199999999999989 z" />
<glyph unicode="d" horiz-adv-x="63.700000000000003" d="M27.899999999999999 -1.000000000000000 Q22.600000000000023 -1.000000000000000 18.100000000000023 1.149999999999977 Q13.600000000000023 3.300000000000011 10.300000000000011 7.000000000000000 Q7.000000000000000 10.699999999999989 5.149999999999977 15.649999999999977 Q3.300000000000011 20.600000000000023 3.300000000000011 26.300000000000011 Q3.300000000000011 31.800000000000011 5.050000000000011 36.649999999999977 Q6.800000000000011 41.500000000000000 9.899999999999977 45.199999999999989 Q13.100000000000023 48.899999999999977 17.350000000000023 51.050000000000011 Q21.600000000000023 53.199999999999989 26.699999999999989 53.199999999999989 Q33.000000000000000 53.199999999999989 37.800000000000011 50.149999999999977 Q42.600000000000023 47.100000000000023 45.299999999999955 42.399999999999977 C45.299999999999955 52.600000000000023 45.299999999999955 65.349999999999994 45.299999999999955 73.000000000000000 C48.049999999999955 73.000000000000000 53.549999999999955 73.000000000000000 56.299999999999955 73.000000000000000 C56.299999999999955 58.000000000000000 56.299999999999955 28.000000000000000 56.299999999999955 13.000000000000000 Q56.299999999999955 11.100000000000023 56.950000000000045 10.300000000000011 Q57.600000000000023 9.500000000000000 59.299999999999955 9.399999999999977 C59.299999999999955 6.266666666666652 59.299999999999955 2.350000000000023 59.299999999999955 0.000000000000000 Q57.600000000000023 -0.300000000000011 56.549999999999955 -0.399999999999977 Q55.500000000000000 -0.500000000000000 54.799999999999955 -0.500000000000000 Q51.500000000000000 -0.500000000000000 49.399999999999977 1.199999999999989 Q47.299999999999955 2.899999999999977 47.100000000000023 5.600000000000023 C47.033333333333303 6.899999999999977 46.950000000000045 8.524999999999977 46.899999999999977 9.500000000000000 Q44.000000000000000 4.600000000000023 39.000000000000000 1.800000000000011 Q34.000000000000000 -1.000000000000000 27.899999999999977 -1.000000000000000 zM30.600000000000001 8.400000000000000 Q33.000000000000000 8.399999999999977 35.399999999999977 9.199999999999989 Q37.800000000000011 10.000000000000000 39.800000000000011 11.399999999999977 Q41.800000000000011 12.800000000000011 43.250000000000000 14.699999999999989 Q44.700000000000045 16.600000000000023 45.299999999999955 18.800000000000011 C45.299999999999955 23.366666666666674 45.299999999999955 29.074999999999989 45.299999999999955 32.500000000000000 Q44.399999999999977 35.000000000000000 42.750000000000000 37.100000000000023 Q41.100000000000023 39.199999999999989 39.000000000000000 40.699999999999989 Q36.899999999999977 42.199999999999989 34.550000000000011 43.000000000000000 Q32.199999999999989 43.800000000000011 29.800000000000011 43.800000000000011 Q26.500000000000000 43.800000000000011 23.750000000000000 42.300000000000011 Q21.000000000000000 40.800000000000011 19.000000000000000 38.300000000000011 Q17.000000000000000 35.800000000000011 15.850000000000023 32.600000000000023 Q14.699999999999989 29.399999999999977 14.699999999999989 26.000000000000000 Q14.699999999999989 22.399999999999977 15.949999999999989 19.199999999999989 Q17.199999999999989 16.000000000000000 19.399999999999977 13.600000000000023 Q21.600000000000023 11.199999999999989 24.449999999999989 9.800000000000011 Q27.300000000000011 8.399999999999977 30.600000000000023 8.399999999999977 z" />
<glyph unicode="e" horiz-adv-x="59.5" d="M30.300000000000001 -1.000000000000000 Q24.199999999999989 -1.000000000000000 19.199999999999989 1.149999999999977 Q14.199999999999989 3.300000000000011 10.600000000000023 7.000000000000000 Q7.100000000000023 10.699999999999989 5.149999999999977 15.600000000000023 Q3.199999999999989 20.500000000000000 3.199999999999989 26.000000000000000 Q3.199999999999989 31.500000000000000 5.149999999999977 36.449999999999989 Q7.100000000000023 41.399999999999977 10.600000000000023 45.100000000000023 Q14.199999999999989 48.899999999999977 19.199999999999989 51.050000000000011 Q24.199999999999989 53.199999999999989 30.399999999999977 53.199999999999989 Q36.500000000000000 53.199999999999989 41.449999999999989 51.000000000000000 Q46.399999999999977 48.800000000000011 49.899999999999977 45.100000000000023 Q53.399999999999977 41.500000000000000 55.250000000000000 36.649999999999977 Q57.100000000000023 31.800000000000011 57.100000000000023 26.500000000000000 Q57.100000000000023 25.300000000000011 57.000000000000000 24.250000000000000 Q56.899999999999977 23.199999999999989 56.799999999999955 22.500000000000000 C42.833333333333314 22.500000000000000 25.375000000000000 22.500000000000000 14.899999999999977 22.500000000000000 Q15.199999999999989 19.000000000000000 16.550000000000011 16.199999999999989 Q17.899999999999977 13.399999999999977 20.000000000000000 11.300000000000011 Q22.199999999999989 9.300000000000011 24.949999999999989 8.199999999999989 Q27.699999999999989 7.100000000000023 30.699999999999989 7.100000000000023 Q32.899999999999977 7.100000000000023 35.050000000000011 7.649999999999977 Q37.199999999999989 8.199999999999989 39.000000000000000 9.199999999999989 Q40.800000000000011 10.300000000000011 42.199999999999989 11.800000000000011 Q43.600000000000023 13.300000000000011 44.399999999999977 15.100000000000023 C47.533333333333303 14.199999999999989 51.450000000000045 13.074999999999989 53.799999999999955 12.399999999999977 Q51.100000000000023 6.500000000000000 44.850000000000023 2.750000000000000 Q38.600000000000023 -1.000000000000000 30.300000000000011 -1.000000000000000 zM46.200000000000003 30.100000000000001 Q45.899999999999977 33.399999999999977 44.549999999999955 36.199999999999989 Q43.200000000000045 39.000000000000000 41.100000000000023 40.899999999999977 Q39.000000000000000 42.899999999999977 36.199999999999989 44.000000000000000 Q33.399999999999977 45.100000000000023 30.300000000000011 45.100000000000023 Q27.199999999999989 45.100000000000023 24.449999999999989 44.000000000000000 Q21.699999999999989 42.899999999999977 19.600000000000023 40.899999999999977 Q17.500000000000000 39.000000000000000 16.199999999999989 36.199999999999989 Q14.899999999999977 33.399999999999977 14.600000000000023 30.100000000000023 C25.133333333333326 30.100000000000023 38.300000000000011 30.100000000000023 46.200000000000045 30.100000000000023 z" />
<glyph unicode="f" horiz-adv-x="35.600000000000001" d="M9.600000000000000 0.000000000000000 C9.600000000000023 10.625000000000000 9.600000000000023 31.875000000000000 9.600000000000023 42.500000000000000 C7.850000000000023 42.500000000000000 4.350000000000023 42.500000000000000 2.600000000000023 42.500000000000000 C2.600000000000023 44.625000000000000 2.600000000000023 48.875000000000000 2.600000000000023 51.000000000000000 C4.350000000000023 51.000000000000000 7.850000000000023 51.000000000000000 9.600000000000023 51.000000000000000 C9.600000000000023 51.524999999999977 9.600000000000023 52.574999999999989 9.600000000000023 53.100000000000023 Q9.600000000000023 62.800000000000011 14.100000000000023 68.400000000000006 Q18.600000000000023 74.000000000000000 26.300000000000011 74.000000000000000 Q29.500000000000000 74.000000000000000 32.600000000000023 73.150000000000006 Q35.699999999999989 72.300000000000011 38.500000000000000 70.800000000000011 C37.699999999999989 68.066666666666663 36.699999999999989 64.650000000000006 36.100000000000023 62.599999999999994 Q34.600000000000023 63.500000000000000 32.550000000000011 64.099999999999994 Q30.500000000000000 64.699999999999989 28.600000000000023 64.699999999999989 Q24.699999999999989 64.699999999999989 22.649999999999977 61.800000000000011 Q20.600000000000023 58.899999999999977 20.600000000000023 53.399999999999977 C20.600000000000023 52.600000000000023 20.600000000000023 51.600000000000023 20.600000000000023 51.000000000000000 C23.949999999999989 51.000000000000000 30.649999999999977 51.000000000000000 34.000000000000000 51.000000000000000 C34.000000000000000 48.875000000000000 34.000000000000000 44.625000000000000 34.000000000000000 42.500000000000000 C30.649999999999977 42.500000000000000 23.949999999999989 42.500000000000000 20.600000000000023 42.500000000000000 C20.600000000000023 31.875000000000000 20.600000000000023 10.625000000000000 20.600000000000023 0.000000000000000 C17.850000000000023 0.000000000000000 12.350000000000023 0.000000000000000 9.600000000000023 0.000000000000000 z" />
<glyph unicode="g" horiz-adv-x="62.899999999999999" d="M27.300000000000001 -0.500000000000000 Q22.000000000000000 -0.500000000000000 17.600000000000023 1.649999999999977 Q13.199999999999989 3.800000000000011 10.000000000000000 7.500000000000000 Q6.899999999999977 11.199999999999989 5.149999999999977 16.000000000000000 Q3.399999999999977 20.800000000000011 3.399999999999977 26.100000000000023 Q3.399999999999977 31.699999999999989 5.199999999999989 36.649999999999977 Q7.000000000000000 41.600000000000023 10.199999999999989 45.199999999999989 Q13.399999999999977 48.899999999999977 17.850000000000023 51.050000000000011 Q22.300000000000011 53.199999999999989 27.699999999999989 53.199999999999989 Q34.000000000000000 53.199999999999989 38.750000000000000 50.199999999999989 Q43.500000000000000 47.199999999999989 46.600000000000023 42.399999999999977 C46.600000000000023 45.699999999999989 46.600000000000023 49.824999999999989 46.600000000000023 52.300000000000011 C49.024999999999977 52.300000000000011 53.875000000000000 52.300000000000011 56.299999999999955 52.300000000000011 C56.299999999999955 39.600000000000023 56.299999999999955 14.199999999999989 56.299999999999955 1.500000000000000 Q56.299999999999955 -4.199999999999989 54.200000000000045 -8.600000000000023 Q52.100000000000023 -13.000000000000000 48.299999999999955 -16.000000000000000 Q44.600000000000023 -19.100000000000023 39.500000000000000 -20.699999999999989 Q34.399999999999977 -22.300000000000011 28.500000000000000 -22.300000000000011 Q19.800000000000011 -22.300000000000011 14.050000000000011 -19.350000000000023 Q8.300000000000011 -16.399999999999977 4.399999999999977 -11.100000000000023 C6.466666666666640 -9.166666666666686 9.050000000000011 -6.750000000000000 10.600000000000023 -5.300000000000011 Q13.600000000000023 -9.500000000000000 18.350000000000023 -11.699999999999989 Q23.100000000000023 -13.899999999999977 28.500000000000000 -13.899999999999977 Q31.899999999999977 -13.899999999999977 34.949999999999989 -13.000000000000000 Q38.000000000000000 -12.100000000000023 40.300000000000011 -10.199999999999989 Q42.600000000000023 -8.300000000000011 43.950000000000045 -5.399999999999977 Q45.299999999999955 -2.500000000000000 45.299999999999955 1.500000000000000 C45.299999999999955 4.166666666666686 45.299999999999955 7.500000000000000 45.299999999999955 9.500000000000000 Q42.500000000000000 4.699999999999989 37.600000000000023 2.100000000000023 Q32.699999999999989 -0.500000000000000 27.300000000000011 -0.500000000000000 zM30.899999999999999 8.400000000000000 Q33.399999999999977 8.399999999999977 35.699999999999989 9.250000000000000 Q38.000000000000000 10.100000000000023 39.899999999999977 11.500000000000000 Q41.899999999999977 13.000000000000000 43.299999999999955 14.850000000000023 Q44.700000000000045 16.699999999999989 45.299999999999955 18.800000000000011 C45.299999999999955 23.366666666666674 45.299999999999955 29.074999999999989 45.299999999999955 32.500000000000000 Q44.299999999999955 35.000000000000000 42.699999999999989 37.050000000000011 Q41.100000000000023 39.100000000000023 39.000000000000000 40.600000000000023 Q37.000000000000000 42.100000000000023 34.699999999999989 42.949999999999989 Q32.399999999999977 43.800000000000011 30.100000000000023 43.800000000000011 Q26.500000000000000 43.800000000000011 23.649999999999977 42.250000000000000 Q20.800000000000011 40.699999999999989 18.800000000000011 38.100000000000023 Q16.800000000000011 35.600000000000023 15.699999999999989 32.399999999999977 Q14.600000000000023 29.199999999999989 14.600000000000023 25.800000000000011 Q14.600000000000023 22.199999999999989 15.850000000000023 19.050000000000011 Q17.100000000000023 15.899999999999977 19.300000000000011 13.500000000000000 Q21.500000000000000 11.199999999999989 24.449999999999989 9.800000000000011 Q27.399999999999977 8.399999999999977 30.899999999999977 8.399999999999977 z" />
<glyph unicode="h" horiz-adv-x="59.700000000000003" d="M53.500000000000000 0.000000000000000 C50.750000000000000 0.000000000000000 45.250000000000000 0.000000000000000 42.500000000000000 0.000000000000000 C42.500000000000000 7.324999999999989 42.500000000000000 21.975000000000023 42.500000000000000 29.300000000000011 Q42.500000000000000 36.500000000000000 39.949999999999989 39.949999999999989 Q37.399999999999977 43.399999999999977 32.600000000000023 43.399999999999977 Q30.300000000000011 43.399999999999977 28.000000000000000 42.500000000000000 Q25.699999999999989 41.600000000000023 23.600000000000023 39.899999999999977 Q21.600000000000023 38.300000000000011 20.000000000000000 36.050000000000011 Q18.399999999999977 33.800000000000011 17.600000000000023 31.100000000000023 C17.600000000000023 20.733333333333348 17.600000000000023 7.774999999999977 17.600000000000023 0.000000000000000 C14.850000000000023 0.000000000000000 9.350000000000023 0.000000000000000 6.600000000000023 0.000000000000000 C6.600000000000023 18.250000000000000 6.600000000000023 54.750000000000000 6.600000000000023 73.000000000000000 C9.350000000000023 73.000000000000000 14.850000000000023 73.000000000000000 17.600000000000023 73.000000000000000 C17.600000000000023 65.199999999999989 17.600000000000023 49.600000000000023 17.600000000000023 41.800000000000011 Q20.600000000000023 47.199999999999989 25.750000000000000 50.199999999999989 Q30.899999999999977 53.199999999999989 37.000000000000000 53.199999999999989 Q41.899999999999977 53.199999999999989 45.049999999999955 51.449999999999989 Q48.200000000000045 49.699999999999989 50.100000000000023 46.800000000000011 Q52.000000000000000 43.899999999999977 52.750000000000000 40.050000000000011 Q53.500000000000000 36.199999999999989 53.500000000000000 31.899999999999977 C53.500000000000000 21.266666666666652 53.500000000000000 7.975000000000023 53.500000000000000 0.000000000000000 z" />
<glyph unicode="i" horiz-adv-x="24.199999999999999" d="M6.600000000000000 0.000000000000000 C6.600000000000023 13.074999999999989 6.600000000000023 39.225000000000023 6.600000000000023 52.300000000000011 C9.350000000000023 52.300000000000011 14.850000000000023 52.300000000000011 17.600000000000023 52.300000000000011 C17.600000000000023 39.225000000000023 17.600000000000023 13.074999999999989 17.600000000000023 0.000000000000000 C14.850000000000023 0.000000000000000 9.350000000000023 0.000000000000000 6.600000000000023 0.000000000000000 zM6.600000000000000 60.899999999999999 C6.600000000000023 63.925000000000011 6.600000000000023 69.974999999999994 6.600000000000023 73.000000000000000 C9.350000000000023 73.000000000000000 14.850000000000023 73.000000000000000 17.600000000000023 73.000000000000000 C17.600000000000023 69.974999999999994 17.600000000000023 63.925000000000011 17.600000000000023 60.899999999999977 C14.850000000000023 60.899999999999977 9.350000000000023 60.899999999999977 6.600000000000023 60.899999999999977 z" />
<glyph unicode="j" horiz-adv-x="24.800000000000001" d="M1.100000000000000 -19.100000000000001 Q-2.500000000000000 -19.100000000000023 -5.699999999999989 -18.000000000000000 Q-8.899999999999977 -16.899999999999977 -11.500000000000000 -14.600000000000023 C-9.866666666666674 -12.133333333333326 -7.824999999999989 -9.050000000000011 -6.600000000000023 -7.199999999999989 Q-5.300000000000011 -8.399999999999977 -3.600000000000023 -8.949999999999989 Q-1.899999999999977 -9.500000000000000 -0.199999999999989 -9.500000000000000 Q2.699999999999989 -9.500000000000000 4.949999999999989 -7.350000000000023 Q7.199999999999989 -5.199999999999989 7.199999999999989 -1.899999999999977 C7.199999999999989 16.166666666666686 7.199999999999989 38.750000000000000 7.199999999999989 52.300000000000011 C9.949999999999989 52.300000000000011 15.449999999999989 52.300000000000011 18.199999999999989 52.300000000000011 C18.199999999999989 38.949999999999989 18.199999999999989 12.250000000000000 18.199999999999989 -1.100000000000023 Q18.199999999999989 -5.100000000000023 16.850000000000023 -8.399999999999977 Q15.500000000000000 -11.699999999999989 13.100000000000023 -14.100000000000023 Q10.800000000000011 -16.500000000000000 7.699999999999989 -17.800000000000011 Q4.600000000000023 -19.100000000000023 1.100000000000023 -19.100000000000023 zM7.200000000000000 60.899999999999999 C7.199999999999989 63.925000000000011 7.199999999999989 69.974999999999994 7.199999999999989 73.000000000000000 C9.949999999999989 73.000000000000000 15.449999999999989 73.000000000000000 18.199999999999989 73.000000000000000 C18.199999999999989 69.974999999999994 18.199999999999989 63.925000000000011 18.199999999999989 60.899999999999977 C15.449999999999989 60.899999999999977 9.949999999999989 60.899999999999977 7.199999999999989 60.899999999999977 z" />
<glyph unicode="k" horiz-adv-x="54.799999999999997" d="M43.000000000000000 0.000000000000000 C38.824999999999989 6.024999999999977 30.475000000000023 18.074999999999989 26.300000000000011 24.100000000000023 C24.125000000000000 22.050000000000011 19.774999999999977 17.949999999999989 17.600000000000023 15.899999999999977 C17.600000000000023 11.925000000000011 17.600000000000023 3.975000000000023 17.600000000000023 0.000000000000000 C14.850000000000023 0.000000000000000 9.350000000000023 0.000000000000000 6.600000000000023 0.000000000000000 C6.600000000000023 18.250000000000000 6.600000000000023 54.750000000000000 6.600000000000023 73.000000000000000 C9.350000000000023 73.000000000000000 14.850000000000023 73.000000000000000 17.600000000000023 73.000000000000000 C17.600000000000023 61.425000000000011 17.600000000000023 38.274999999999977 17.600000000000023 26.699999999999989 C23.600000000000023 33.074999999999989 35.600000000000023 45.824999999999989 41.600000000000023 52.199999999999989 C44.600000000000023 52.199999999999989 50.600000000000023 52.199999999999989 53.600000000000023 52.199999999999989 C48.524999999999977 46.725000000000023 38.375000000000000 35.774999999999977 33.300000000000011 30.300000000000011 C38.649999999999977 22.725000000000023 49.350000000000023 7.574999999999989 54.700000000000045 0.000000000000000 C51.774999999999977 0.000000000000000 45.924999999999955 0.000000000000000 43.000000000000000 0.000000000000000 z" />
<glyph unicode="l" horiz-adv-x="30.100000000000001" d="M6.700000000000000 73.000000000000000 C9.449999999999989 73.000000000000000 14.949999999999989 73.000000000000000 17.699999999999989 73.000000000000000 C17.699999999999989 58.524999999999977 17.699999999999989 29.574999999999989 17.699999999999989 15.100000000000023 Q17.699999999999989 12.199999999999989 19.199999999999989 10.550000000000011 Q20.699999999999989 8.899999999999977 23.399999999999977 8.899999999999977 Q24.500000000000000 8.899999999999977 25.949999999999989 9.300000000000011 Q27.399999999999977 9.699999999999989 28.699999999999989 10.199999999999989 C29.233333333333348 7.333333333333314 29.899999999999977 3.750000000000000 30.300000000000011 1.600000000000023 Q27.899999999999977 0.500000000000000 24.600000000000023 -0.149999999999977 Q21.300000000000011 -0.800000000000011 18.699999999999989 -0.800000000000011 Q13.000000000000000 -0.800000000000011 9.850000000000023 2.300000000000011 Q6.699999999999989 5.399999999999977 6.699999999999989 11.100000000000023 C6.699999999999989 31.733333333333348 6.699999999999989 57.524999999999977 6.699999999999989 73.000000000000000 z" />
<glyph unicode="m" horiz-adv-x="92.700000000000003" d="M86.599999999999994 0.000000000000000 C83.850000000000023 0.000000000000000 78.350000000000023 0.000000000000000 75.600000000000023 0.000000000000000 C75.600000000000023 7.324999999999989 75.600000000000023 21.975000000000023 75.600000000000023 29.300000000000011 Q75.600000000000023 36.600000000000023 73.200000000000045 40.000000000000000 Q70.799999999999955 43.399999999999977 66.200000000000045 43.399999999999977 Q61.500000000000000 43.399999999999977 57.649999999999977 39.949999999999989 Q53.799999999999955 36.500000000000000 52.100000000000023 31.000000000000000 C52.100000000000023 20.666666666666686 52.100000000000023 7.750000000000000 52.100000000000023 0.000000000000000 C49.350000000000023 0.000000000000000 43.850000000000023 0.000000000000000 41.100000000000023 0.000000000000000 C41.100000000000023 7.324999999999989 41.100000000000023 21.975000000000023 41.100000000000023 29.300000000000011 Q41.100000000000023 36.699999999999989 38.699999999999989 40.050000000000011 Q36.300000000000011 43.399999999999977 31.800000000000011 43.399999999999977 Q27.100000000000023 43.399999999999977 23.199999999999989 40.000000000000000 Q19.300000000000011 36.600000000000023 17.600000000000023 31.100000000000023 C17.600000000000023 20.733333333333348 17.600000000000023 7.774999999999977 17.600000000000023 0.000000000000000 C14.850000000000023 0.000000000000000 9.350000000000023 0.000000000000000 6.600000000000023 0.000000000000000 C6.600000000000023 13.074999999999989 6.600000000000023 39.225000000000023 6.600000000000023 52.300000000000011 C9.100000000000023 52.300000000000011 14.100000000000023 52.300000000000011 16.600000000000023 52.300000000000011 C16.600000000000023 49.675000000000011 16.600000000000023 44.425000000000011 16.600000000000023 41.800000000000011 Q19.699999999999989 47.300000000000011 24.750000000000000 50.250000000000000 Q29.800000000000011 53.199999999999989 36.300000000000011 53.199999999999989 Q42.800000000000011 53.199999999999989 46.549999999999955 49.800000000000011 Q50.299999999999955 46.399999999999977 51.200000000000045 41.300000000000011 Q54.500000000000000 47.100000000000023 59.500000000000000 50.149999999999977 Q64.500000000000000 53.199999999999989 70.899999999999977 53.199999999999989 Q75.500000000000000 53.199999999999989 78.549999999999955 51.449999999999989 Q81.600000000000023 49.699999999999989 83.399999999999977 46.800000000000011 Q85.200000000000045 43.899999999999977 85.899999999999977 40.050000000000011 Q86.600000000000023 36.199999999999989 86.600000000000023 31.899999999999977 C86.600000000000023 21.266666666666652 86.600000000000023 7.975000000000023 86.600000000000023 0.000000000000000 z" />
<glyph unicode="n" horiz-adv-x="59.700000000000003" d="M53.500000000000000 0.000000000000000 C50.750000000000000 0.000000000000000 45.250000000000000 0.000000000000000 42.500000000000000 0.000000000000000 C42.500000000000000 7.324999999999989 42.500000000000000 21.975000000000023 42.500000000000000 29.300000000000011 Q42.500000000000000 36.699999999999989 40.149999999999977 40.050000000000011 Q37.800000000000011 43.399999999999977 33.199999999999989 43.399999999999977 Q30.800000000000011 43.399999999999977 28.399999999999977 42.500000000000000 Q26.000000000000000 41.600000000000023 23.899999999999977 39.899999999999977 Q21.800000000000011 38.300000000000011 20.149999999999977 36.050000000000011 Q18.500000000000000 33.800000000000011 17.600000000000023 31.100000000000023 C17.600000000000023 20.733333333333348 17.600000000000023 7.774999999999977 17.600000000000023 0.000000000000000 C14.850000000000023 0.000000000000000 9.350000000000023 0.000000000000000 6.600000000000023 0.000000000000000 C6.600000000000023 13.074999999999989 6.600000000000023 39.225000000000023 6.600000000000023 52.300000000000011 C9.100000000000023 52.300000000000011 14.100000000000023 52.300000000000011 16.600000000000023 52.300000000000011 C16.600000000000023 49.675000000000011 16.600000000000023 44.425000000000011 16.600000000000023 41.800000000000011 Q19.600000000000023 47.100000000000023 25.300000000000011 50.149999999999977 Q31.000000000000000 53.199999999999989 37.899999999999977 53.199999999999989 Q42.600000000000023 53.199999999999989 45.600000000000023 51.500000000000000 Q48.600000000000023 49.800000000000011 50.299999999999955 46.800000000000011 Q52.100000000000023 43.899999999999977 52.799999999999955 40.050000000000011 Q53.500000000000000 36.199999999999989 53.500000000000000 31.899999999999977 C53.500000000000000 21.266666666666652 53.500000000000000 7.975000000000023 53.500000000000000 0.000000000000000 z" />
<glyph unicode="o" horiz-adv-x="60.200000000000003" d="M30.100000000000001 -1.000000000000000 Q23.899999999999977 -1.000000000000000 18.949999999999989 1.199999999999989 Q14.000000000000000 3.399999999999977 10.500000000000000 7.100000000000023 Q7.000000000000000 10.800000000000011 5.100000000000023 15.750000000000000 Q3.199999999999989 20.699999999999989 3.199999999999989 26.100000000000023 Q3.199999999999989 31.500000000000000 5.100000000000023 36.449999999999989 Q7.000000000000000 41.399999999999977 10.500000000000000 45.100000000000023 Q14.100000000000023 48.800000000000011 19.050000000000011 51.000000000000000 Q24.000000000000000 53.199999999999989 30.100000000000023 53.199999999999989 Q36.199999999999989 53.199999999999989 41.149999999999977 51.000000000000000 Q46.100000000000023 48.800000000000011 49.600000000000023 45.100000000000023 Q53.200000000000045 41.399999999999977 55.100000000000023 36.449999999999989 Q57.000000000000000 31.500000000000000 57.000000000000000 26.100000000000023 Q57.000000000000000 20.699999999999989 55.100000000000023 15.750000000000000 Q53.200000000000045 10.800000000000011 49.600000000000023 7.100000000000023 Q46.100000000000023 3.399999999999977 41.149999999999977 1.199999999999989 Q36.199999999999989 -1.000000000000000 30.100000000000023 -1.000000000000000 zM14.500000000000000 26.000000000000000 Q14.500000000000000 22.199999999999989 15.699999999999989 19.000000000000000 Q16.899999999999977 15.800000000000011 19.000000000000000 13.399999999999977 Q21.100000000000023 11.100000000000023 23.949999999999989 9.750000000000000 Q26.800000000000011 8.399999999999977 30.100000000000023 8.399999999999977 Q33.399999999999977 8.399999999999977 36.250000000000000 9.750000000000000 Q39.100000000000023 11.100000000000023 41.199999999999989 13.500000000000000 Q43.299999999999955 15.899999999999977 44.500000000000000 19.100000000000023 Q45.700000000000045 22.300000000000011 45.700000000000045 26.100000000000023 Q45.700000000000045 29.800000000000011 44.500000000000000 33.050000000000011 Q43.299999999999955 36.300000000000011 41.199999999999989 38.699999999999989 Q39.100000000000023 41.100000000000023 36.250000000000000 42.449999999999989 Q33.399999999999977 43.800000000000011 30.100000000000023 43.800000000000011 Q26.899999999999977 43.800000000000011 24.050000000000011 42.399999999999977 Q21.199999999999989 41.000000000000000 19.100000000000023 38.600000000000023 Q17.000000000000000 36.199999999999989 15.750000000000000 32.949999999999989 Q14.500000000000000 29.699999999999989 14.500000000000000 26.000000000000000 z" />
<glyph unicode="p" horiz-adv-x="62.799999999999997" d="M36.299999999999997 -1.000000000000000 Q30.000000000000000 -1.000000000000000 25.199999999999989 2.000000000000000 Q20.399999999999977 5.000000000000000 17.600000000000023 9.800000000000011 C17.600000000000023 -0.566666666666663 17.600000000000023 -13.524999999999977 17.600000000000023 -21.300000000000011 C14.850000000000023 -21.300000000000011 9.350000000000023 -21.300000000000011 6.600000000000023 -21.300000000000011 C6.600000000000023 -2.899999999999977 6.600000000000023 33.899999999999977 6.600000000000023 52.300000000000011 C9.024999999999977 52.300000000000011 13.875000000000000 52.300000000000011 16.300000000000011 52.300000000000011 C16.300000000000011 49.949999999999989 16.300000000000011 45.250000000000000 16.300000000000011 42.899999999999977 Q19.300000000000011 47.600000000000023 24.050000000000011 50.399999999999977 Q28.800000000000011 53.199999999999989 34.800000000000011 53.199999999999989 Q40.199999999999989 53.199999999999989 44.700000000000045 51.000000000000000 Q49.200000000000045 48.800000000000011 52.500000000000000 45.100000000000023 Q55.799999999999955 41.399999999999977 57.649999999999977 36.500000000000000 Q59.500000000000000 31.600000000000023 59.500000000000000 26.199999999999989 Q59.500000000000000 20.500000000000000 57.799999999999955 15.550000000000011 Q56.100000000000023 10.600000000000023 53.000000000000000 6.899999999999977 Q49.899999999999977 3.300000000000011 45.649999999999977 1.149999999999977 Q41.399999999999977 -1.000000000000000 36.300000000000011 -1.000000000000000 zM32.700000000000003 8.400000000000000 Q36.199999999999989 8.399999999999977 39.050000000000011 9.899999999999977 Q41.899999999999977 11.399999999999977 43.899999999999977 13.899999999999977 Q46.000000000000000 16.399999999999977 47.100000000000023 19.600000000000023 Q48.200000000000045 22.800000000000011 48.200000000000045 26.199999999999989 Q48.200000000000045 29.800000000000011 46.950000000000045 33.000000000000000 Q45.700000000000045 36.199999999999989 43.500000000000000 38.600000000000023 Q41.399999999999977 41.000000000000000 38.399999999999977 42.399999999999977 Q35.399999999999977 43.800000000000011 31.899999999999977 43.800000000000011 Q29.800000000000011 43.800000000000011 27.500000000000000 43.000000000000000 Q25.199999999999989 42.199999999999989 23.199999999999989 40.800000000000011 Q21.199999999999989 39.399999999999977 19.699999999999989 37.550000000000011 Q18.199999999999989 35.699999999999989 17.600000000000023 33.500000000000000 C17.600000000000023 28.933333333333337 17.600000000000023 23.225000000000023 17.600000000000023 19.800000000000011 Q18.600000000000023 17.399999999999977 20.199999999999989 15.300000000000011 Q21.800000000000011 13.199999999999989 23.699999999999989 11.699999999999989 Q25.699999999999989 10.199999999999989 28.000000000000000 9.300000000000011 Q30.300000000000011 8.399999999999977 32.699999999999989 8.399999999999977 z" />
<glyph unicode="q" horiz-adv-x="62.799999999999997" d="M26.500000000000000 -1.000000000000000 Q21.399999999999977 -1.000000000000000 17.149999999999977 1.199999999999989 Q12.899999999999977 3.399999999999977 9.800000000000011 7.100000000000023 Q6.800000000000011 10.800000000000011 5.100000000000023 15.750000000000000 Q3.399999999999977 20.699999999999989 3.399999999999977 26.199999999999989 Q3.399999999999977 31.800000000000011 5.250000000000000 36.699999999999989 Q7.100000000000023 41.600000000000023 10.399999999999977 45.300000000000011 Q13.699999999999989 49.000000000000000 18.199999999999989 51.100000000000023 Q22.699999999999989 53.199999999999989 28.000000000000000 53.199999999999989 Q34.000000000000000 53.199999999999989 38.800000000000011 50.300000000000011 Q43.600000000000023 47.399999999999977 46.500000000000000 42.800000000000011 C46.500000000000000 45.966666666666640 46.500000000000000 49.925000000000011 46.500000000000000 52.300000000000011 C48.924999999999955 52.300000000000011 53.774999999999977 52.300000000000011 56.200000000000045 52.300000000000011 C56.200000000000045 37.274999999999977 56.200000000000045 7.225000000000023 56.200000000000045 -7.800000000000011 Q56.200000000000045 -9.699999999999989 56.950000000000045 -10.449999999999989 Q57.700000000000045 -11.199999999999989 59.399999999999977 -11.399999999999977 C59.399999999999977 -14.533333333333360 59.399999999999977 -18.449999999999989 59.399999999999977 -20.800000000000011 Q57.899999999999977 -21.000000000000000 56.350000000000023 -21.100000000000023 Q54.799999999999955 -21.199999999999989 53.500000000000000 -21.199999999999989 Q50.100000000000023 -21.199999999999989 47.649999999999977 -18.899999999999977 Q45.200000000000045 -16.600000000000023 45.200000000000045 -13.199999999999989 C45.200000000000045 -5.533333333333360 45.200000000000045 4.050000000000011 45.200000000000045 9.800000000000011 Q42.000000000000000 4.399999999999977 37.250000000000000 1.699999999999989 Q32.500000000000000 -1.000000000000000 26.500000000000000 -1.000000000000000 zM30.500000000000000 8.400000000000000 Q35.500000000000000 8.399999999999977 39.149999999999977 11.250000000000000 Q42.800000000000011 14.100000000000023 45.200000000000045 18.399999999999977 C45.200000000000045 23.000000000000000 45.200000000000045 28.750000000000000 45.200000000000045 32.199999999999989 Q44.700000000000045 34.600000000000023 43.200000000000045 36.699999999999989 Q41.699999999999989 38.800000000000011 39.600000000000023 40.300000000000011 Q37.600000000000023 41.899999999999977 35.199999999999989 42.850000000000023 Q32.800000000000011 43.800000000000011 30.500000000000000 43.800000000000011 Q27.000000000000000 43.800000000000011 24.100000000000023 42.300000000000011 Q21.199999999999989 40.800000000000011 19.100000000000023 38.300000000000011 Q17.000000000000000 35.800000000000011 15.800000000000011 32.550000000000011 Q14.600000000000023 29.300000000000011 14.600000000000023 25.899999999999977 Q14.600000000000023 22.300000000000011 15.800000000000011 19.100000000000023 Q17.000000000000000 15.899999999999977 19.100000000000023 13.500000000000000 Q21.199999999999989 11.199999999999989 24.100000000000023 9.800000000000011 Q27.000000000000000 8.399999999999977 30.500000000000000 8.399999999999977 z" />
<glyph unicode="r" horiz-adv-x="37.399999999999999" d="M36.000000000000000 42.799999999999997 Q29.600000000000023 42.600000000000023 24.649999999999977 39.850000000000023 Q19.699999999999989 37.100000000000023 17.600000000000023 32.000000000000000 C17.600000000000023 21.333333333333314 17.600000000000023 8.000000000000000 17.600000000000023 0.000000000000000 C14.850000000000023 0.000000000000000 9.350000000000023 0.000000000000000 6.600000000000023 0.000000000000000 C6.600000000000023 13.074999999999989 6.600000000000023 39.225000000000023 6.600000000000023 52.300000000000011 C9.149999999999977 52.300000000000011 14.250000000000000 52.300000000000011 16.800000000000011 52.300000000000011 C16.800000000000011 49.375000000000000 16.800000000000011 43.524999999999977 16.800000000000011 40.600000000000023 Q19.500000000000000 46.000000000000000 23.850000000000023 49.250000000000000 Q28.199999999999989 52.500000000000000 33.199999999999989 52.800000000000011 Q34.199999999999989 52.800000000000011 34.850000000000023 52.800000000000011 Q35.500000000000000 52.800000000000011 36.000000000000000 52.699999999999989 C36.000000000000000 49.399999999999977 36.000000000000000 45.274999999999977 36.000000000000000 42.800000000000011 z" />
<glyph unicode="s" horiz-adv-x="49.600000000000001" d="M25.600000000000001 -1.000000000000000 Q19.300000000000011 -1.000000000000000 13.050000000000011 1.050000000000011 Q6.800000000000011 3.100000000000023 2.300000000000011 6.899999999999977 C3.766666666666652 9.233333333333348 5.600000000000023 12.149999999999977 6.699999999999989 13.899999999999977 Q11.399999999999977 10.500000000000000 16.000000000000000 8.750000000000000 Q20.600000000000023 7.000000000000000 25.399999999999977 7.000000000000000 Q30.300000000000011 7.000000000000000 33.149999999999977 8.899999999999977 Q36.000000000000000 10.800000000000011 36.000000000000000 14.300000000000011 Q36.000000000000000 17.600000000000023 32.800000000000011 19.100000000000023 Q29.600000000000023 20.600000000000023 22.800000000000011 22.399999999999977 Q17.899999999999977 23.699999999999989 14.399999999999977 24.899999999999977 Q10.899999999999977 26.100000000000023 8.699999999999989 27.699999999999989 Q6.500000000000000 29.300000000000011 5.500000000000000 31.399999999999977 Q4.500000000000000 33.500000000000000 4.500000000000000 36.500000000000000 Q4.500000000000000 40.500000000000000 6.050000000000011 43.600000000000023 Q7.600000000000023 46.699999999999989 10.300000000000011 48.800000000000011 Q13.100000000000023 51.000000000000000 16.800000000000011 52.100000000000023 Q20.500000000000000 53.199999999999989 24.800000000000011 53.199999999999989 Q30.699999999999989 53.199999999999989 35.800000000000011 51.399999999999977 Q40.899999999999977 49.600000000000023 44.899999999999977 46.199999999999989 C43.333333333333371 44.000000000000000 41.375000000000000 41.250000000000000 40.199999999999989 39.600000000000023 Q32.899999999999977 45.399999999999977 24.699999999999989 45.399999999999977 Q20.500000000000000 45.399999999999977 17.649999999999977 43.649999999999977 Q14.800000000000011 41.899999999999977 14.800000000000011 38.100000000000023 Q14.800000000000011 36.500000000000000 15.399999999999977 35.399999999999977 Q16.000000000000000 34.300000000000011 17.300000000000011 33.500000000000000 Q18.699999999999989 32.699999999999989 20.850000000000023 32.050000000000011 Q23.000000000000000 31.399999999999977 26.199999999999989 30.600000000000023 Q31.500000000000000 29.300000000000011 35.350000000000023 28.000000000000000 Q39.199999999999989 26.699999999999989 41.699999999999989 24.899999999999977 Q44.200000000000045 23.199999999999989 45.399999999999977 20.850000000000023 Q46.600000000000023 18.500000000000000 46.600000000000023 15.199999999999989 Q46.600000000000023 7.699999999999989 40.949999999999989 3.350000000000023 Q35.300000000000011 -1.000000000000000 25.600000000000023 -1.000000000000000 z" />
<glyph unicode="t" horiz-adv-x="36.700000000000003" d="M35.700000000000003 2.700000000000000 Q33.600000000000023 1.699999999999989 29.899999999999977 0.449999999999989 Q26.199999999999989 -0.800000000000011 22.000000000000000 -0.800000000000011 Q19.399999999999977 -0.800000000000011 17.100000000000023 -0.100000000000023 Q14.800000000000011 0.600000000000023 13.000000000000000 2.000000000000000 Q11.300000000000011 3.399999999999977 10.300000000000011 5.649999999999977 Q9.300000000000011 7.899999999999977 9.300000000000011 11.100000000000023 C9.300000000000011 22.000000000000000 9.300000000000011 35.625000000000000 9.300000000000011 43.800000000000011 C7.574999999999989 43.800000000000011 4.125000000000000 43.800000000000011 2.399999999999977 43.800000000000011 C2.399999999999977 45.925000000000011 2.399999999999977 50.175000000000011 2.399999999999977 52.300000000000011 C4.125000000000000 52.300000000000011 7.574999999999989 52.300000000000011 9.300000000000011 52.300000000000011 C9.300000000000011 56.600000000000023 9.300000000000011 65.199999999999989 9.300000000000011 69.500000000000000 C12.050000000000011 69.500000000000000 17.550000000000011 69.500000000000000 20.300000000000011 69.500000000000000 C20.300000000000011 65.199999999999989 20.300000000000011 56.600000000000023 20.300000000000011 52.300000000000011 C23.149999999999977 52.300000000000011 28.850000000000023 52.300000000000011 31.699999999999989 52.300000000000011 C31.699999999999989 50.175000000000011 31.699999999999989 45.925000000000011 31.699999999999989 43.800000000000011 C28.850000000000023 43.800000000000011 23.149999999999977 43.800000000000011 20.300000000000011 43.800000000000011 C20.300000000000011 36.500000000000000 20.300000000000011 21.899999999999977 20.300000000000011 14.600000000000023 Q20.500000000000000 11.800000000000011 22.050000000000011 10.550000000000011 Q23.600000000000023 9.300000000000011 25.899999999999977 9.300000000000011 Q28.199999999999989 9.300000000000011 30.300000000000011 10.100000000000023 Q32.399999999999977 10.899999999999977 33.399999999999977 11.399999999999977 C34.166666666666686 8.500000000000000 35.125000000000000 4.875000000000000 35.699999999999989 2.699999999999989 z" />
<glyph unicode="u" horiz-adv-x="60.899999999999999" d="M22.699999999999999 -1.000000000000000 Q14.500000000000000 -1.000000000000000 10.300000000000011 4.350000000000023 Q6.100000000000023 9.699999999999989 6.100000000000023 20.300000000000011 C6.100000000000023 30.966666666666697 6.100000000000023 44.300000000000011 6.100000000000023 52.300000000000011 C8.850000000000023 52.300000000000011 14.350000000000023 52.300000000000011 17.100000000000023 52.300000000000011 C17.100000000000023 44.850000000000023 17.100000000000023 29.949999999999989 17.100000000000023 22.500000000000000 Q17.100000000000023 8.399999999999977 27.100000000000023 8.399999999999977 Q31.800000000000011 8.399999999999977 36.000000000000000 11.300000000000011 Q40.199999999999989 14.199999999999989 42.500000000000000 19.699999999999989 C42.500000000000000 30.566666666666663 42.500000000000000 44.149999999999977 42.500000000000000 52.300000000000011 C45.250000000000000 52.300000000000011 50.750000000000000 52.300000000000011 53.500000000000000 52.300000000000011 C53.500000000000000 42.475000000000023 53.500000000000000 22.824999999999989 53.500000000000000 13.000000000000000 Q53.500000000000000 11.100000000000023 54.149999999999977 10.300000000000011 Q54.799999999999955 9.500000000000000 56.500000000000000 9.399999999999977 C56.500000000000000 6.266666666666652 56.500000000000000 2.350000000000023 56.500000000000000 0.000000000000000 Q54.799999999999955 -0.300000000000011 53.700000000000045 -0.399999999999977 Q52.600000000000023 -0.500000000000000 51.600000000000023 -0.500000000000000 Q48.600000000000023 -0.500000000000000 46.500000000000000 1.149999999999977 Q44.399999999999977 2.800000000000011 44.299999999999955 5.399999999999977 C44.233333333333348 7.133333333333326 44.149999999999977 9.300000000000011 44.100000000000023 10.600000000000023 Q40.600000000000023 4.899999999999977 35.000000000000000 1.949999999999989 Q29.399999999999977 -1.000000000000000 22.699999999999989 -1.000000000000000 z" />
<glyph unicode="v" horiz-adv-x="54.299999999999997" d="M21.300000000000001 0.000000000000000 C16.300000000000011 13.074999999999989 6.300000000000011 39.225000000000023 1.300000000000011 52.300000000000011 C4.125000000000000 52.300000000000011 9.774999999999977 52.300000000000011 12.600000000000023 52.300000000000011 C16.350000000000023 41.550000000000011 23.850000000000023 20.050000000000011 27.600000000000023 9.300000000000011 C31.375000000000000 20.050000000000011 38.925000000000011 41.550000000000011 42.699999999999989 52.300000000000011 C45.299999999999955 52.300000000000011 50.500000000000000 52.300000000000011 53.100000000000023 52.300000000000011 C48.100000000000023 39.225000000000023 38.100000000000023 13.074999999999989 33.100000000000023 0.000000000000000 C30.149999999999977 0.000000000000000 24.250000000000000 0.000000000000000 21.300000000000011 0.000000000000000 z" />
<glyph unicode="w" horiz-adv-x="83" d="M71.799999999999997 52.299999999999997 C74.424999999999955 52.300000000000011 79.674999999999955 52.300000000000011 82.299999999999955 52.300000000000011 C76.799999999999955 39.225000000000023 65.799999999999955 13.074999999999989 60.299999999999955 0.000000000000000 C58.024999999999977 0.000000000000000 53.475000000000023 0.000000000000000 51.200000000000045 0.000000000000000 C48.774999999999977 6.074999999999989 43.924999999999955 18.225000000000023 41.500000000000000 24.300000000000011 C39.074999999999989 18.225000000000023 34.225000000000023 6.074999999999989 31.800000000000011 0.000000000000000 C29.524999999999977 0.000000000000000 24.975000000000023 0.000000000000000 22.699999999999989 0.000000000000000 C17.175000000000011 13.074999999999989 6.125000000000000 39.225000000000023 0.600000000000023 52.300000000000011 C3.225000000000023 52.300000000000011 8.475000000000023 52.300000000000011 11.100000000000023 52.300000000000011 C15.324999999999989 41.875000000000000 23.774999999999977 21.024999999999977 28.000000000000000 10.600000000000023 C29.899999999999977 15.449999999999989 33.699999999999989 25.149999999999977 35.600000000000023 30.000000000000000 C38.550000000000011 30.000000000000000 44.450000000000045 30.000000000000000 47.399999999999977 30.000000000000000 C49.299999999999955 25.149999999999977 53.100000000000023 15.449999999999989 55.000000000000000 10.600000000000023 C59.200000000000045 21.024999999999977 67.600000000000023 41.875000000000000 71.799999999999955 52.300000000000011 z" />
<glyph unicode="x" horiz-adv-x="52.200000000000003" d="M12.400000000000000 52.299999999999997 C15.600000000000023 47.824999999999989 22.000000000000000 38.875000000000000 25.199999999999989 34.399999999999977 C25.425000000000011 33.975000000000023 25.875000000000000 33.125000000000000 26.100000000000023 32.699999999999989 C26.324999999999989 33.125000000000000 26.774999999999977 33.975000000000023 27.000000000000000 34.399999999999977 C30.175000000000011 38.875000000000000 36.524999999999977 47.824999999999989 39.699999999999989 52.300000000000011 C42.574999999999989 52.300000000000011 48.325000000000045 52.300000000000011 51.200000000000045 52.300000000000011 C46.424999999999955 45.750000000000000 36.875000000000000 32.649999999999977 32.100000000000023 26.100000000000023 C36.925000000000011 19.574999999999989 46.575000000000045 6.524999999999977 51.399999999999977 0.000000000000000 C48.524999999999977 0.000000000000000 42.774999999999977 0.000000000000000 39.899999999999977 0.000000000000000 C36.675000000000011 4.449999999999989 30.225000000000023 13.350000000000023 27.000000000000000 17.800000000000011 C26.774999999999977 18.199999999999989 26.324999999999989 19.000000000000000 26.100000000000023 19.399999999999977 C25.875000000000000 19.000000000000000 25.425000000000011 18.199999999999989 25.199999999999989 17.800000000000011 C21.975000000000023 13.350000000000023 15.524999999999977 4.449999999999989 12.300000000000011 0.000000000000000 C9.425000000000011 0.000000000000000 3.675000000000011 0.000000000000000 0.800000000000011 0.000000000000000 C5.625000000000000 6.524999999999977 15.274999999999977 19.574999999999989 20.100000000000023 26.100000000000023 C15.324999999999989 32.649999999999977 5.774999999999977 45.750000000000000 1.000000000000000 52.300000000000011 C3.850000000000023 52.300000000000011 9.550000000000011 52.300000000000011 12.399999999999977 52.300000000000011 z" />
<glyph unicode="y" horiz-adv-x="54.700000000000003" d="M8.400000000000000 -12.300000000000001 Q9.899999999999977 -12.600000000000023 11.350000000000023 -12.800000000000011 Q12.800000000000011 -13.000000000000000 13.699999999999989 -13.000000000000000 Q15.000000000000000 -13.000000000000000 15.949999999999989 -12.449999999999989 Q16.899999999999977 -11.899999999999977 17.899999999999977 -10.500000000000000 Q18.899999999999977 -9.100000000000023 19.949999999999989 -6.550000000000011 Q21.000000000000000 -4.000000000000000 22.399999999999977 0.000000000000000 C15.233333333333348 17.433333333333337 6.274999999999977 39.225000000000023 0.899999999999977 52.300000000000011 C3.725000000000023 52.300000000000011 9.375000000000000 52.300000000000011 12.199999999999989 52.300000000000011 C16.250000000000000 41.649999999999977 24.350000000000023 20.350000000000023 28.399999999999977 9.699999999999989 C32.000000000000000 20.350000000000023 39.199999999999989 41.649999999999977 42.800000000000011 52.300000000000011 C45.399999999999977 52.300000000000011 50.600000000000023 52.300000000000011 53.200000000000045 52.300000000000011 C47.274999999999977 36.199999999999989 35.425000000000011 4.000000000000000 29.500000000000000 -12.100000000000023 Q27.899999999999977 -16.600000000000023 23.949999999999989 -19.649999999999977 Q20.000000000000000 -22.699999999999989 13.800000000000011 -22.699999999999989 Q12.600000000000023 -22.699999999999989 11.300000000000011 -22.550000000000011 Q10.000000000000000 -22.399999999999977 8.399999999999977 -21.899999999999977 C8.399999999999977 -18.699999999999989 8.399999999999977 -14.699999999999989 8.399999999999977 -12.300000000000011 z" />
<glyph unicode="z" horiz-adv-x="49.299999999999997" d="M2.800000000000000 6.900000000000000 C10.649999999999977 16.300000000000011 26.350000000000023 35.100000000000023 34.199999999999989 44.500000000000000 C26.625000000000000 44.500000000000000 11.475000000000023 44.500000000000000 3.899999999999977 44.500000000000000 C3.899999999999977 46.449999999999989 3.899999999999977 50.350000000000023 3.899999999999977 52.300000000000011 C14.375000000000000 52.300000000000011 35.324999999999989 52.300000000000011 45.799999999999955 52.300000000000011 C45.799999999999955 50.574999999999989 45.799999999999955 47.125000000000000 45.799999999999955 45.399999999999977 C38.000000000000000 36.000000000000000 22.399999999999977 17.199999999999989 14.600000000000023 7.800000000000011 C22.475000000000023 7.800000000000011 38.225000000000023 7.800000000000011 46.100000000000023 7.800000000000011 C46.100000000000023 5.850000000000023 46.100000000000023 1.949999999999989 46.100000000000023 0.000000000000000 C35.274999999999977 0.000000000000000 13.625000000000000 0.000000000000000 2.800000000000011 0.000000000000000 C2.800000000000011 1.725000000000023 2.800000000000011 5.175000000000011 2.800000000000011 6.899999999999977 z" />
<glyph unicode="{" horiz-adv-x="29.300000000000001" d="M19.000000000000000 65.099999999999994 C19.000000000000000 59.500000000000000 19.000000000000000 48.300000000000011 19.000000000000000 42.699999999999989 Q19.000000000000000 41.000000000000000 18.199999999999989 39.199999999999989 Q17.399999999999977 37.399999999999977 15.800000000000011 36.000000000000000 Q17.300000000000011 34.600000000000023 18.149999999999977 32.800000000000011 Q19.000000000000000 31.000000000000000 19.000000000000000 29.300000000000011 C19.000000000000000 21.466666666666697 19.000000000000000 11.675000000000011 19.000000000000000 5.800000000000011 C20.375000000000000 5.800000000000011 23.125000000000000 5.800000000000011 24.500000000000000 5.800000000000011 C24.500000000000000 3.574999999999989 24.500000000000000 -0.875000000000000 24.500000000000000 -3.100000000000023 C21.199999999999989 -3.100000000000023 14.600000000000023 -3.100000000000023 11.300000000000011 -3.100000000000023 Q10.600000000000023 -3.100000000000023 9.800000000000011 -2.449999999999989 Q9.000000000000000 -1.800000000000011 9.000000000000000 -0.100000000000023 C9.000000000000000 8.566666666666663 9.000000000000000 19.399999999999977 9.000000000000000 25.899999999999977 Q9.000000000000000 28.300000000000011 7.699999999999989 30.050000000000011 Q6.399999999999977 31.800000000000011 4.399999999999977 32.199999999999989 C4.399999999999977 34.800000000000011 4.399999999999977 38.050000000000011 4.399999999999977 40.000000000000000 Q5.399999999999977 40.000000000000000 6.250000000000000 40.600000000000023 Q7.100000000000023 41.199999999999989 7.699999999999989 42.100000000000023 Q8.300000000000011 43.100000000000023 8.649999999999977 44.149999999999977 Q9.000000000000000 45.199999999999989 9.000000000000000 46.100000000000023 C9.000000000000000 54.399999999999977 9.000000000000000 64.775000000000006 9.000000000000000 71.000000000000000 Q9.000000000000000 72.900000000000006 9.899999999999977 73.449999999999989 Q10.800000000000011 74.000000000000000 11.300000000000011 74.000000000000000 C15.699999999999989 74.000000000000000 21.199999999999989 74.000000000000000 24.500000000000000 74.000000000000000 C24.500000000000000 71.775000000000006 24.500000000000000 67.324999999999989 24.500000000000000 65.099999999999994 C23.125000000000000 65.099999999999994 20.375000000000000 65.099999999999994 19.000000000000000 65.099999999999994 z" />
<glyph unicode="|" horiz-adv-x="25.600000000000001" d="M8.100000000000000 -13.000000000000000 C8.100000000000023 9.625000000000000 8.100000000000023 54.875000000000000 8.100000000000023 77.500000000000000 C10.449999999999989 77.500000000000000 15.149999999999977 77.500000000000000 17.500000000000000 77.500000000000000 C17.500000000000000 54.875000000000000 17.500000000000000 9.625000000000000 17.500000000000000 -13.000000000000000 C15.149999999999977 -13.000000000000000 10.449999999999989 -13.000000000000000 8.100000000000023 -13.000000000000000 z" />
<glyph unicode="}" horiz-adv-x="29.300000000000001" d="M4.900000000000000 65.099999999999994 C4.899999999999977 67.324999999999989 4.899999999999977 71.775000000000006 4.899999999999977 74.000000000000000 C8.175000000000011 74.000000000000000 14.725000000000023 74.000000000000000 18.000000000000000 74.000000000000000 Q18.500000000000000 74.000000000000000 19.399999999999977 73.449999999999989 Q20.300000000000011 72.900000000000006 20.300000000000011 71.000000000000000 C20.300000000000011 62.699999999999989 20.300000000000011 52.324999999999989 20.300000000000011 46.100000000000023 Q20.300000000000011 45.199999999999989 20.600000000000023 44.149999999999977 Q20.899999999999977 43.100000000000023 21.500000000000000 42.100000000000023 Q22.100000000000023 41.199999999999989 22.949999999999989 40.600000000000023 Q23.800000000000011 40.000000000000000 24.899999999999977 40.000000000000000 C24.899999999999977 37.399999999999977 24.899999999999977 34.149999999999977 24.899999999999977 32.199999999999989 Q22.899999999999977 31.800000000000011 21.600000000000023 30.050000000000011 Q20.300000000000011 28.300000000000011 20.300000000000011 25.899999999999977 C20.300000000000011 17.233333333333348 20.300000000000011 6.399999999999977 20.300000000000011 -0.100000000000023 Q20.300000000000011 -1.800000000000011 19.500000000000000 -2.449999999999989 Q18.699999999999989 -3.100000000000023 18.000000000000000 -3.100000000000023 C13.633333333333326 -3.100000000000023 8.175000000000011 -3.100000000000023 4.899999999999977 -3.100000000000023 C4.899999999999977 -0.875000000000000 4.899999999999977 3.574999999999989 4.899999999999977 5.800000000000011 C6.274999999999977 5.800000000000011 9.024999999999977 5.800000000000011 10.399999999999977 5.800000000000011 C10.399999999999977 11.675000000000011 10.399999999999977 23.425000000000011 10.399999999999977 29.300000000000011 Q10.399999999999977 31.000000000000000 11.149999999999977 32.800000000000011 Q11.899999999999977 34.600000000000023 13.500000000000000 36.000000000000000 Q11.899999999999977 37.399999999999977 11.149999999999977 39.199999999999989 Q10.399999999999977 41.000000000000000 10.399999999999977 42.699999999999989 C10.399999999999977 50.166666666666686 10.399999999999977 59.500000000000000 10.399999999999977 65.099999999999994 C9.024999999999977 65.099999999999994 6.274999999999977 65.099999999999994 4.899999999999977 65.099999999999994 z" />
<glyph unicode="~" horiz-adv-x="54.899999999999999" d="M6.100000000000000 23.199999999999999 Q6.100000000000023 23.899999999999977 6.750000000000000 25.899999999999977 Q7.399999999999977 27.899999999999977 8.899999999999977 30.000000000000000 Q10.399999999999977 32.100000000000023 12.800000000000011 33.750000000000000 Q15.199999999999989 35.399999999999977 18.800000000000011 35.399999999999977 Q21.300000000000011 35.399999999999977 23.500000000000000 34.550000000000011 Q25.699999999999989 33.699999999999989 27.699999999999989 32.600000000000023 Q29.699999999999989 31.600000000000023 31.649999999999977 30.750000000000000 Q33.600000000000023 29.899999999999977 35.800000000000011 29.899999999999977 Q37.800000000000011 29.899999999999977 39.149999999999977 30.649999999999977 Q40.500000000000000 31.399999999999977 41.300000000000011 32.300000000000011 Q42.100000000000023 33.199999999999989 42.399999999999977 34.000000000000000 Q42.699999999999989 34.800000000000011 42.699999999999989 35.000000000000000 C44.799999999999955 35.000000000000000 47.424999999999955 35.000000000000000 49.000000000000000 35.000000000000000 Q49.000000000000000 34.600000000000023 48.350000000000023 32.699999999999989 Q47.700000000000045 30.800000000000011 46.100000000000023 28.699999999999989 Q44.600000000000023 26.600000000000023 42.050000000000011 24.899999999999977 Q39.500000000000000 23.199999999999989 35.699999999999989 23.199999999999989 Q33.100000000000023 23.199999999999989 30.850000000000023 24.050000000000011 Q28.600000000000023 24.899999999999977 26.600000000000023 25.899999999999977 Q24.600000000000023 27.000000000000000 22.649999999999977 27.850000000000023 Q20.699999999999989 28.699999999999989 18.699999999999989 28.699999999999989 Q16.699999999999989 28.699999999999989 15.500000000000000 27.850000000000023 Q14.300000000000011 27.000000000000000 13.500000000000000 26.000000000000000 Q12.800000000000011 25.000000000000000 12.550000000000011 24.149999999999977 Q12.300000000000011 23.300000000000011 12.300000000000011 23.199999999999989 C10.233333333333348 23.199999999999989 7.649999999999977 23.199999999999989 6.100000000000023 23.199999999999989 C6.100000000000023 23.199999999999989 6.100000000000023 23.199999999999989 6.100000000000023 23.199999999999989 z" />
<glyph unicode="" horiz-adv-x="24.699999999999999" d="" />
<glyph unicode="" horiz-adv-x="28.199999999999999" d="M19.600000000000001 46.000000000000000 C19.600000000000023 34.399999999999977 19.600000000000023 11.199999999999989 19.600000000000023 -0.399999999999977 C16.850000000000023 -0.399999999999977 11.350000000000023 -0.399999999999977 8.600000000000023 -0.399999999999977 C8.600000000000023 11.199999999999989 8.600000000000023 34.399999999999977 8.600000000000023 46.000000000000000 C11.350000000000023 46.000000000000000 16.850000000000023 46.000000000000000 19.600000000000023 46.000000000000000 zM19.600000000000001 71.299999999999997 C19.600000000000023 67.875000000000000 19.600000000000023 61.024999999999977 19.600000000000023 57.600000000000023 C16.850000000000023 57.600000000000023 11.350000000000023 57.600000000000023 8.600000000000023 57.600000000000023 C8.600000000000023 61.024999999999977 8.600000000000023 67.875000000000000 8.600000000000023 71.300000000000011 C11.350000000000023 71.300000000000011 16.850000000000023 71.300000000000011 19.600000000000023 71.300000000000011 z" />
<glyph unicode="" horiz-adv-x="58" d="M27.600000000000001 -12.000000000000000 C27.600000000000023 -9.225000000000023 27.600000000000023 -3.675000000000011 27.600000000000023 -0.899999999999977 Q22.399999999999977 -0.500000000000000 18.100000000000023 1.949999999999989 Q13.800000000000011 4.399999999999977 10.699999999999989 8.100000000000023 Q7.600000000000023 11.800000000000011 5.850000000000023 16.399999999999977 Q4.100000000000023 21.000000000000000 4.100000000000023 25.800000000000011 Q4.100000000000023 30.899999999999977 5.699999999999989 35.500000000000000 Q7.300000000000011 40.100000000000023 10.300000000000011 43.800000000000011 Q13.300000000000011 47.500000000000000 17.649999999999977 49.949999999999989 Q22.000000000000000 52.399999999999977 27.600000000000023 53.100000000000023 C27.600000000000023 56.899999999999977 27.600000000000023 61.649999999999977 27.600000000000023 64.500000000000000 C28.899999999999977 64.500000000000000 31.500000000000000 64.500000000000000 32.800000000000011 64.500000000000000 C32.800000000000011 61.649999999999977 32.800000000000011 55.949999999999989 32.800000000000011 53.100000000000023 Q40.000000000000000 52.899999999999977 45.399999999999977 49.550000000000011 Q50.799999999999955 46.199999999999989 53.899999999999977 40.199999999999989 C50.366666666666674 39.066666666666663 45.950000000000045 37.649999999999977 43.299999999999955 36.800000000000011 Q41.500000000000000 39.899999999999977 38.750000000000000 41.550000000000011 Q36.000000000000000 43.199999999999989 32.800000000000011 43.399999999999977 C32.800000000000011 31.833333333333314 32.800000000000011 17.375000000000000 32.800000000000011 8.699999999999989 Q34.300000000000011 8.899999999999977 36.000000000000000 9.449999999999989 Q37.699999999999989 10.000000000000000 39.199999999999989 10.899999999999977 Q40.800000000000011 11.800000000000011 41.949999999999989 13.000000000000000 Q43.100000000000023 14.199999999999989 43.600000000000023 15.600000000000023 C47.166666666666629 14.533333333333360 51.625000000000000 13.199999999999989 54.299999999999955 12.399999999999977 Q52.899999999999977 9.100000000000023 50.350000000000023 6.550000000000011 Q47.799999999999955 4.000000000000000 44.700000000000045 2.300000000000011 Q41.699999999999989 0.699999999999989 38.550000000000011 -0.149999999999977 Q35.399999999999977 -1.000000000000000 32.800000000000011 -1.000000000000000 C32.800000000000011 -4.666666666666686 32.800000000000011 -9.250000000000000 32.800000000000011 -12.000000000000000 C31.500000000000000 -12.000000000000000 28.899999999999977 -12.000000000000000 27.600000000000023 -12.000000000000000 zM15.400000000000000 25.800000000000001 Q15.399999999999977 22.899999999999977 16.300000000000011 20.149999999999977 Q17.199999999999989 17.399999999999977 18.800000000000011 15.199999999999989 Q20.399999999999977 13.000000000000000 22.649999999999977 11.399999999999977 Q24.899999999999977 9.800000000000011 27.600000000000023 9.199999999999989 C27.600000000000023 20.466666666666640 27.600000000000023 34.550000000000011 27.600000000000023 43.000000000000000 Q24.699999999999989 42.500000000000000 22.449999999999989 40.899999999999977 Q20.199999999999989 39.300000000000011 18.600000000000023 36.899999999999977 Q17.000000000000000 34.600000000000023 16.199999999999989 31.699999999999989 Q15.399999999999977 28.800000000000011 15.399999999999977 25.800000000000011 z" />
<glyph unicode="" horiz-adv-x="52.799999999999997" d="M5.500000000000000 37.799999999999997 C7.500000000000000 37.800000000000011 11.500000000000000 37.800000000000011 13.500000000000000 37.800000000000011 Q11.500000000000000 41.800000000000011 9.550000000000011 45.699999999999989 Q7.600000000000023 49.600000000000023 7.600000000000023 54.000000000000000 Q7.600000000000023 57.600000000000023 9.149999999999977 60.800000000000011 Q10.699999999999989 64.000000000000000 13.399999999999977 66.400000000000006 Q16.100000000000023 68.800000000000011 19.699999999999989 70.150000000000006 Q23.300000000000011 71.500000000000000 27.399999999999977 71.500000000000000 Q33.199999999999989 71.500000000000000 38.399999999999977 68.699999999999989 Q43.600000000000023 65.900000000000006 47.100000000000023 61.000000000000000 C45.133333333333326 58.733333333333348 42.675000000000011 55.899999999999977 41.199999999999989 54.199999999999989 Q38.800000000000011 58.000000000000000 34.899999999999977 60.250000000000000 Q31.000000000000000 62.500000000000000 27.199999999999989 62.500000000000000 Q23.000000000000000 62.500000000000000 20.300000000000011 59.800000000000011 Q17.600000000000023 57.100000000000023 17.600000000000023 53.000000000000000 Q17.600000000000023 51.100000000000023 18.199999999999989 49.250000000000000 Q18.800000000000011 47.399999999999977 19.699999999999989 45.500000000000000 Q20.600000000000023 43.699999999999989 21.649999999999977 41.800000000000011 Q22.699999999999989 39.899999999999977 23.600000000000023 37.800000000000011 C29.666666666666686 37.800000000000011 37.250000000000000 37.800000000000011 41.800000000000011 37.800000000000011 C41.800000000000011 35.699999999999989 41.800000000000011 31.500000000000000 41.800000000000011 29.399999999999977 C37.824999999999989 29.399999999999977 29.875000000000000 29.399999999999977 25.899999999999977 29.399999999999977 Q26.000000000000000 28.800000000000011 26.050000000000011 28.250000000000000 Q26.100000000000023 27.699999999999989 26.100000000000023 27.100000000000023 Q26.100000000000023 22.399999999999977 24.000000000000000 18.149999999999977 Q21.899999999999977 13.899999999999977 16.899999999999977 8.600000000000023 Q18.899999999999977 9.100000000000023 20.750000000000000 9.399999999999977 Q22.600000000000023 9.699999999999989 24.399999999999977 9.699999999999989 Q28.199999999999989 9.699999999999989 31.449999999999989 8.800000000000011 Q34.699999999999989 7.899999999999977 38.199999999999989 7.899999999999977 Q40.100000000000023 7.899999999999977 41.949999999999989 8.350000000000023 Q43.799999999999955 8.800000000000011 46.200000000000045 9.600000000000023 C47.100000000000023 6.866666666666674 48.225000000000023 3.449999999999989 48.899999999999977 1.399999999999977 Q46.399999999999977 0.000000000000000 43.450000000000045 -0.750000000000000 Q40.500000000000000 -1.500000000000000 37.600000000000023 -1.500000000000000 Q35.300000000000011 -1.500000000000000 33.149999999999977 -1.100000000000023 Q31.000000000000000 -0.699999999999989 28.800000000000011 -0.100000000000023 Q26.600000000000023 0.399999999999977 24.399999999999977 0.800000000000011 Q22.199999999999989 1.199999999999989 19.800000000000011 1.199999999999989 Q17.199999999999989 1.199999999999989 13.949999999999989 0.649999999999977 Q10.699999999999989 0.100000000000023 7.800000000000011 -0.800000000000011 C6.933333333333337 1.833333333333314 5.850000000000023 5.125000000000000 5.199999999999989 7.100000000000023 Q11.199999999999989 12.399999999999977 13.850000000000023 17.100000000000023 Q16.500000000000000 21.800000000000011 16.500000000000000 26.600000000000023 Q16.500000000000000 27.300000000000011 16.449999999999989 28.000000000000000 Q16.399999999999977 28.699999999999989 16.300000000000011 29.399999999999977 C12.699999999999989 29.399999999999977 8.199999999999989 29.399999999999977 5.500000000000000 29.399999999999977 C5.500000000000000 31.500000000000000 5.500000000000000 35.699999999999989 5.500000000000000 37.800000000000011 z" />
<glyph unicode="" horiz-adv-x="54.5" d="M16.500000000000000 49.100000000000001 Q18.699999999999989 50.600000000000023 21.399999999999977 51.449999999999989 Q24.100000000000023 52.300000000000011 27.300000000000011 52.300000000000011 Q30.399999999999977 52.300000000000011 33.050000000000011 51.449999999999989 Q35.699999999999989 50.600000000000023 38.000000000000000 49.100000000000023 C40.333333333333314 51.466666666666697 43.250000000000000 54.425000000000011 45.000000000000000 56.199999999999989 C46.200000000000045 55.024999999999977 48.600000000000023 52.675000000000011 49.799999999999955 51.500000000000000 C48.024999999999977 49.750000000000000 44.475000000000023 46.250000000000000 42.699999999999989 44.500000000000000 Q46.000000000000000 39.800000000000011 46.000000000000000 33.699999999999989 Q46.000000000000000 27.699999999999989 42.600000000000023 22.899999999999977 C45.000000000000000 20.566666666666663 48.000000000000000 17.649999999999977 49.799999999999955 15.899999999999977 C48.725000000000023 14.850000000000023 46.575000000000045 12.750000000000000 45.500000000000000 11.699999999999989 C43.674999999999955 13.399999999999977 40.024999999999977 16.800000000000011 38.199999999999989 18.500000000000000 Q36.000000000000000 17.000000000000000 33.250000000000000 16.100000000000023 Q30.500000000000000 15.199999999999989 27.300000000000011 15.199999999999989 Q24.000000000000000 15.199999999999989 21.250000000000000 16.100000000000023 Q18.500000000000000 17.000000000000000 16.199999999999989 18.500000000000000 C13.766666666666652 16.233333333333348 10.725000000000023 13.399999999999977 8.899999999999977 11.699999999999989 C7.850000000000023 12.750000000000000 5.750000000000000 14.850000000000023 4.699999999999989 15.899999999999977 C6.475000000000023 17.675000000000011 10.024999999999977 21.225000000000023 11.800000000000011 23.000000000000000 Q10.199999999999989 25.300000000000011 9.350000000000023 28.050000000000011 Q8.500000000000000 30.800000000000011 8.500000000000000 33.699999999999989 Q8.500000000000000 39.800000000000011 11.699999999999989 44.399999999999977 C9.366666666666674 46.766666666666652 6.449999999999989 49.725000000000023 4.699999999999989 51.500000000000000 C5.875000000000000 52.675000000000011 8.225000000000023 55.024999999999977 9.399999999999977 56.199999999999989 C11.175000000000011 54.425000000000011 14.725000000000023 50.875000000000000 16.500000000000000 49.100000000000023 zM17.100000000000001 33.600000000000001 Q17.100000000000023 31.199999999999989 17.899999999999977 29.149999999999977 Q18.699999999999989 27.100000000000023 20.000000000000000 25.600000000000023 Q21.399999999999977 24.100000000000023 23.300000000000011 23.250000000000000 Q25.199999999999989 22.399999999999977 27.300000000000011 22.399999999999977 Q31.600000000000023 22.399999999999977 34.550000000000011 25.649999999999977 Q37.500000000000000 28.899999999999977 37.500000000000000 33.800000000000011 Q37.500000000000000 38.699999999999989 34.550000000000011 41.850000000000023 Q31.600000000000023 45.000000000000000 27.300000000000011 45.000000000000000 Q23.000000000000000 45.000000000000000 20.050000000000011 41.800000000000011 Q17.100000000000023 38.600000000000023 17.100000000000023 33.600000000000023 z" />
</font>
</defs>
</svg>
