<?xml version="1.0" standalone="no"?>
<!DOCTYPE svg PUBLIC "-//W3C//DTD SVG 1.1//EN" "http://www.w3.org/Graphics/SVG/1.1/DTD/svg11.dtd" >
<svg>
<defs>
<font id="RalewayW ExtraBold Italic" horiz-adv-x="250" >
<font-face units-per-em="100" ascent="80" descent="-20" />
<glyph unicode=" " horiz-adv-x="23" d="" />
<glyph unicode="!" horiz-adv-x="30.899999999999999" d="M7.100000000000000 28.199999999999999 C9.375000000000000 39.074999999999989 13.925000000000011 60.824999999999989 16.199999999999989 71.699999999999989 C20.199999999999989 71.699999999999989 28.199999999999989 71.699999999999989 32.199999999999989 71.699999999999989 C29.925000000000011 60.824999999999989 25.375000000000000 39.074999999999989 23.100000000000023 28.199999999999989 C19.100000000000023 28.199999999999989 11.100000000000023 28.199999999999989 7.100000000000023 28.199999999999989 zM1.000000000000000 0.000000000000000 C1.899999999999977 4.149999999999977 3.699999999999989 12.449999999999989 4.600000000000023 16.600000000000023 C8.600000000000023 16.600000000000023 16.600000000000023 16.600000000000023 20.600000000000023 16.600000000000023 C19.699999999999989 12.449999999999989 17.899999999999977 4.149999999999977 17.000000000000000 0.000000000000000 C13.000000000000000 0.000000000000000 5.000000000000000 0.000000000000000 1.000000000000000 0.000000000000000 z" />
<glyph unicode="&#x22;" horiz-adv-x="42.700000000000003" d="M9.600000000000000 49.799999999999997 C10.824999999999989 55.500000000000000 13.274999999999977 66.899999999999977 14.500000000000000 72.599999999999994 C17.875000000000000 72.599999999999994 24.625000000000000 72.599999999999994 28.000000000000000 72.599999999999994 C26.774999999999977 66.899999999999977 24.324999999999989 55.500000000000000 23.100000000000023 49.800000000000011 C19.725000000000023 49.800000000000011 12.975000000000023 49.800000000000011 9.600000000000023 49.800000000000011 zM27.600000000000001 49.799999999999997 C28.824999999999989 55.500000000000000 31.274999999999977 66.899999999999977 32.500000000000000 72.599999999999994 C35.875000000000000 72.599999999999994 42.625000000000000 72.599999999999994 46.000000000000000 72.599999999999994 C44.774999999999977 66.899999999999977 42.324999999999989 55.500000000000000 41.100000000000023 49.800000000000011 C37.725000000000023 49.800000000000011 30.975000000000023 49.800000000000011 27.600000000000023 49.800000000000011 z" />
<glyph unicode="#" horiz-adv-x="70.799999999999997" d="M69.599999999999994 41.200000000000003 C65.950000000000045 41.199999999999989 58.649999999999977 41.199999999999989 55.000000000000000 41.199999999999989 C53.825000000000045 38.350000000000023 51.475000000000023 32.649999999999977 50.299999999999955 29.800000000000011 C53.350000000000023 29.800000000000011 59.450000000000045 29.800000000000011 62.500000000000000 29.800000000000011 C61.875000000000000 26.824999999999989 60.625000000000000 20.875000000000000 60.000000000000000 17.899999999999977 C56.225000000000023 17.899999999999977 48.674999999999955 17.899999999999977 44.899999999999977 17.899999999999977 C42.925000000000011 13.425000000000011 38.975000000000023 4.475000000000023 37.000000000000000 0.000000000000000 C33.800000000000011 0.000000000000000 27.399999999999977 0.000000000000000 24.199999999999989 0.000000000000000 C26.199999999999989 4.475000000000023 30.199999999999989 13.425000000000011 32.199999999999989 17.899999999999977 C30.225000000000023 17.899999999999977 26.274999999999977 17.899999999999977 24.300000000000011 17.899999999999977 C22.350000000000023 13.425000000000011 18.449999999999989 4.475000000000023 16.500000000000000 0.000000000000000 C13.300000000000011 0.000000000000000 6.899999999999977 0.000000000000000 3.699999999999989 0.000000000000000 C5.675000000000011 4.475000000000023 9.625000000000000 13.425000000000011 11.600000000000023 17.899999999999977 C8.949999999999989 17.899999999999977 3.649999999999977 17.899999999999977 1.000000000000000 17.899999999999977 C1.625000000000000 20.875000000000000 2.875000000000000 26.824999999999989 3.500000000000000 29.800000000000011 C6.875000000000000 29.800000000000011 13.625000000000000 29.800000000000011 17.000000000000000 29.800000000000011 C18.199999999999989 32.649999999999977 20.600000000000023 38.350000000000023 21.800000000000011 41.199999999999989 C19.000000000000000 41.199999999999989 13.399999999999977 41.199999999999989 10.600000000000023 41.199999999999989 C11.199999999999989 43.949999999999989 12.399999999999977 49.449999999999989 13.000000000000000 52.199999999999989 C16.475000000000023 52.199999999999989 23.425000000000011 52.199999999999989 26.899999999999977 52.199999999999989 C28.975000000000023 56.899999999999977 33.125000000000000 66.300000000000011 35.199999999999989 71.000000000000000 C38.399999999999977 71.000000000000000 44.799999999999955 71.000000000000000 48.000000000000000 71.000000000000000 C45.899999999999977 66.300000000000011 41.699999999999989 56.899999999999977 39.600000000000023 52.199999999999989 C41.574999999999989 52.199999999999989 45.524999999999977 52.199999999999989 47.500000000000000 52.199999999999989 C49.549999999999955 56.899999999999977 53.649999999999977 66.300000000000011 55.700000000000045 71.000000000000000 C58.899999999999977 71.000000000000000 65.299999999999955 71.000000000000000 68.500000000000000 71.000000000000000 C66.399999999999977 66.300000000000011 62.200000000000045 56.899999999999977 60.100000000000023 52.199999999999989 C63.075000000000045 52.199999999999989 69.024999999999977 52.199999999999989 72.000000000000000 52.199999999999989 C71.399999999999977 49.449999999999989 70.200000000000045 43.949999999999989 69.600000000000023 41.199999999999989 zM37.600000000000001 29.800000000000001 C38.774999999999977 32.649999999999977 41.125000000000000 38.350000000000023 42.300000000000011 41.199999999999989 C40.350000000000023 41.199999999999989 36.449999999999989 41.199999999999989 34.500000000000000 41.199999999999989 C33.300000000000011 38.350000000000023 30.899999999999977 32.649999999999977 29.699999999999989 29.800000000000011 C31.675000000000011 29.800000000000011 35.625000000000000 29.800000000000011 37.600000000000023 29.800000000000011 z" />
<glyph unicode="$" horiz-adv-x="62" d="M52.899999999999999 50.200000000000003 Q52.700000000000045 50.500000000000000 51.549999999999955 51.449999999999989 Q50.399999999999977 52.399999999999977 48.500000000000000 53.399999999999977 Q46.700000000000045 54.500000000000000 44.299999999999955 55.449999999999989 Q41.899999999999977 56.399999999999977 39.199999999999989 56.800000000000011 C38.266666666666652 52.300000000000011 37.100000000000023 46.675000000000011 36.399999999999977 43.300000000000011 C37.149999999999977 43.074999999999989 38.649999999999977 42.625000000000000 39.399999999999977 42.399999999999977 Q43.200000000000045 41.199999999999989 46.350000000000023 39.750000000000000 Q49.500000000000000 38.300000000000011 51.700000000000045 36.300000000000011 Q53.899999999999977 34.300000000000011 55.100000000000023 31.600000000000023 Q56.299999999999955 28.899999999999977 56.299999999999955 25.199999999999989 Q56.299999999999955 18.500000000000000 53.899999999999977 13.699999999999989 Q51.500000000000000 8.899999999999977 47.500000000000000 5.800000000000011 Q43.500000000000000 2.699999999999989 38.449999999999989 1.149999999999977 Q33.399999999999977 -0.399999999999977 28.199999999999989 -0.699999999999989 C27.399999999999977 -4.566666666666663 26.399999999999977 -9.399999999999977 25.800000000000011 -12.300000000000011 C24.050000000000011 -12.300000000000011 20.550000000000011 -12.300000000000011 18.800000000000011 -12.300000000000011 C19.425000000000011 -9.375000000000000 20.675000000000011 -3.524999999999977 21.300000000000011 -0.600000000000023 Q14.899999999999977 0.000000000000000 8.949999999999989 2.250000000000000 Q3.000000000000000 4.500000000000000 -1.399999999999977 8.000000000000000 C2.000000000000000 12.766666666666652 6.250000000000000 18.725000000000023 8.800000000000011 22.300000000000011 Q9.000000000000000 21.800000000000011 10.399999999999977 20.649999999999977 Q11.800000000000011 19.500000000000000 14.000000000000000 18.199999999999989 Q16.300000000000011 17.000000000000000 19.300000000000011 15.850000000000023 Q22.300000000000011 14.699999999999989 25.600000000000023 14.199999999999989 C26.533333333333360 18.566666666666663 27.699999999999989 24.024999999999977 28.399999999999977 27.300000000000011 C27.250000000000000 27.699999999999989 24.949999999999989 28.500000000000000 23.800000000000011 28.899999999999977 Q16.600000000000023 31.500000000000000 13.050000000000011 35.000000000000000 Q9.500000000000000 38.500000000000000 9.500000000000000 44.399999999999977 Q9.500000000000000 50.399999999999977 11.750000000000000 55.149999999999977 Q14.000000000000000 59.899999999999977 17.699999999999989 63.300000000000011 Q21.500000000000000 66.800000000000011 26.399999999999977 68.849999999999994 Q31.300000000000011 70.900000000000006 36.699999999999989 71.400000000000006 C37.399999999999977 74.766666666666652 38.274999999999977 78.974999999999994 38.800000000000011 81.500000000000000 C40.500000000000000 81.500000000000000 43.899999999999977 81.500000000000000 45.600000000000023 81.500000000000000 C45.075000000000045 78.974999999999994 44.024999999999977 73.925000000000011 43.500000000000000 71.400000000000006 Q49.500000000000000 70.800000000000011 54.450000000000045 68.500000000000000 Q59.399999999999977 66.199999999999989 62.899999999999977 63.800000000000011 C59.566666666666606 59.266666666666652 55.399999999999977 53.600000000000023 52.899999999999977 50.199999999999989 zM37.899999999999999 20.300000000000001 Q37.899999999999977 22.199999999999989 36.449999999999989 23.449999999999989 Q35.000000000000000 24.699999999999989 32.600000000000023 25.699999999999989 C31.766666666666652 21.800000000000011 30.725000000000023 16.925000000000011 30.100000000000023 14.000000000000000 Q34.300000000000011 14.199999999999989 36.100000000000023 15.949999999999989 Q37.899999999999977 17.699999999999989 37.899999999999977 20.300000000000011 zM27.500000000000000 50.000000000000000 Q27.500000000000000 48.199999999999989 28.699999999999989 47.050000000000011 Q29.899999999999977 45.899999999999977 32.199999999999989 44.899999999999977 C33.033333333333360 48.899999999999977 34.074999999999989 53.899999999999977 34.699999999999989 56.899999999999977 Q31.199999999999989 56.600000000000023 29.350000000000023 54.750000000000000 Q27.500000000000000 52.899999999999977 27.500000000000000 50.000000000000000 z" />
<glyph unicode="%" horiz-adv-x="79" d="M22.300000000000001 41.100000000000001 Q19.300000000000011 41.100000000000023 16.800000000000011 42.100000000000023 Q14.300000000000011 43.100000000000023 12.500000000000000 44.800000000000011 Q10.699999999999989 46.600000000000023 9.750000000000000 48.949999999999989 Q8.800000000000011 51.300000000000011 8.800000000000011 54.000000000000000 Q8.800000000000011 57.600000000000023 10.500000000000000 60.899999999999977 Q12.199999999999989 64.199999999999989 14.899999999999977 66.599999999999994 Q17.699999999999989 69.099999999999994 21.300000000000011 70.550000000000011 Q24.899999999999977 72.000000000000000 28.800000000000011 72.000000000000000 Q31.800000000000011 72.000000000000000 34.300000000000011 71.000000000000000 Q36.800000000000011 70.000000000000000 38.600000000000023 68.199999999999989 Q40.399999999999977 66.500000000000000 41.350000000000023 64.150000000000006 Q42.300000000000011 61.800000000000011 42.300000000000011 59.100000000000023 Q42.300000000000011 55.500000000000000 40.600000000000023 52.199999999999989 Q38.899999999999977 48.899999999999977 36.100000000000023 46.399999999999977 Q33.399999999999977 44.000000000000000 29.800000000000011 42.550000000000011 Q26.199999999999989 41.100000000000023 22.300000000000011 41.100000000000023 zM23.899999999999999 48.899999999999999 Q25.199999999999989 48.899999999999977 26.500000000000000 49.699999999999989 Q27.800000000000011 50.500000000000000 28.800000000000011 51.800000000000011 Q29.899999999999977 53.100000000000023 30.550000000000011 54.800000000000011 Q31.199999999999989 56.500000000000000 31.199999999999989 58.399999999999977 Q31.199999999999989 60.899999999999977 30.100000000000023 62.550000000000011 Q29.000000000000000 64.199999999999989 27.199999999999989 64.199999999999989 Q25.899999999999977 64.199999999999989 24.600000000000023 63.400000000000006 Q23.300000000000011 62.600000000000023 22.199999999999989 61.300000000000011 Q21.199999999999989 60.000000000000000 20.550000000000011 58.300000000000011 Q19.899999999999977 56.600000000000023 19.899999999999977 54.699999999999989 Q19.899999999999977 52.300000000000011 21.000000000000000 50.600000000000023 Q22.100000000000023 48.899999999999977 23.899999999999977 48.899999999999977 zM52.500000000000000 -1.000000000000000 Q49.500000000000000 -1.000000000000000 47.000000000000000 0.000000000000000 Q44.500000000000000 1.000000000000000 42.699999999999989 2.699999999999989 Q40.899999999999977 4.500000000000000 39.949999999999989 6.850000000000023 Q39.000000000000000 9.199999999999989 39.000000000000000 11.899999999999977 Q39.000000000000000 15.500000000000000 40.699999999999989 18.800000000000011 Q42.399999999999977 22.100000000000023 45.100000000000023 24.500000000000000 Q47.899999999999977 27.000000000000000 51.549999999999955 28.449999999999989 Q55.200000000000045 29.899999999999977 59.100000000000023 29.899999999999977 Q62.100000000000023 29.899999999999977 64.549999999999955 28.899999999999977 Q67.000000000000000 27.899999999999977 68.799999999999955 26.100000000000023 Q70.600000000000023 24.399999999999977 71.549999999999955 22.050000000000011 Q72.500000000000000 19.699999999999989 72.500000000000000 17.000000000000000 Q72.500000000000000 13.399999999999977 70.850000000000023 10.100000000000023 Q69.200000000000045 6.800000000000011 66.399999999999977 4.300000000000011 Q63.600000000000023 1.899999999999977 60.000000000000000 0.449999999999989 Q56.399999999999977 -1.000000000000000 52.500000000000000 -1.000000000000000 zM54.200000000000003 6.800000000000000 Q55.500000000000000 6.800000000000011 56.750000000000000 7.600000000000023 Q58.000000000000000 8.399999999999977 59.000000000000000 9.699999999999989 Q60.100000000000023 11.000000000000000 60.750000000000000 12.699999999999989 Q61.399999999999977 14.399999999999977 61.399999999999977 16.300000000000011 Q61.399999999999977 18.699999999999989 60.299999999999955 20.399999999999977 Q59.200000000000045 22.100000000000023 57.399999999999977 22.100000000000023 Q56.100000000000023 22.100000000000023 54.799999999999955 21.300000000000011 Q53.500000000000000 20.500000000000000 52.399999999999977 19.199999999999989 Q51.399999999999977 17.899999999999977 50.750000000000000 16.199999999999989 Q50.100000000000023 14.500000000000000 50.100000000000023 12.600000000000023 Q50.100000000000023 10.100000000000023 51.200000000000045 8.449999999999989 Q52.299999999999955 6.800000000000011 54.200000000000045 6.800000000000011 zM5.200000000000000 5.600000000000000 C13.649999999999977 13.699999999999989 30.550000000000011 29.899999999999977 39.000000000000000 38.000000000000000 C46.825000000000045 46.475000000000023 62.475000000000023 63.425000000000011 70.299999999999955 71.900000000000006 C71.750000000000000 70.300000000000011 74.649999999999977 67.099999999999994 76.100000000000023 65.500000000000000 C67.950000000000045 57.625000000000000 51.649999999999977 41.875000000000000 43.500000000000000 34.000000000000000 C35.375000000000000 25.274999999999977 19.125000000000000 7.824999999999989 11.000000000000000 -0.899999999999977 C9.550000000000011 0.725000000000023 6.649999999999977 3.975000000000023 5.199999999999989 5.600000000000023 z" />
<glyph unicode="&#x26;" horiz-adv-x="71.200000000000003" d="M39.500000000000000 5.200000000000000 Q34.699999999999989 2.100000000000023 29.800000000000011 0.550000000000011 Q24.899999999999977 -1.000000000000000 20.199999999999989 -1.000000000000000 Q15.500000000000000 -1.000000000000000 11.949999999999989 0.500000000000000 Q8.399999999999977 2.000000000000000 6.000000000000000 4.399999999999977 Q3.699999999999989 6.899999999999977 2.500000000000000 10.149999999999977 Q1.300000000000011 13.399999999999977 1.300000000000011 17.000000000000000 Q1.300000000000011 20.699999999999989 2.550000000000011 23.800000000000011 Q3.800000000000011 26.899999999999977 6.000000000000000 29.500000000000000 Q8.199999999999989 32.199999999999989 11.050000000000011 34.399999999999977 Q13.899999999999977 36.600000000000023 17.199999999999989 38.600000000000023 Q14.899999999999977 42.399999999999977 13.800000000000011 45.350000000000023 Q12.699999999999989 48.300000000000011 12.699999999999989 51.500000000000000 Q12.699999999999989 56.000000000000000 14.600000000000023 59.750000000000000 Q16.500000000000000 63.500000000000000 19.699999999999989 66.199999999999989 Q22.899999999999977 68.900000000000006 27.000000000000000 70.400000000000006 Q31.100000000000023 71.900000000000006 35.600000000000023 71.900000000000006 Q41.899999999999977 71.900000000000006 46.850000000000023 68.500000000000000 Q51.799999999999955 65.099999999999994 53.500000000000000 57.899999999999977 C49.766666666666652 56.199999999999989 45.100000000000023 54.074999999999989 42.300000000000011 52.800000000000011 Q41.300000000000011 56.600000000000023 39.100000000000023 58.449999999999989 Q36.899999999999977 60.300000000000011 34.399999999999977 60.300000000000011 Q31.899999999999977 60.300000000000011 29.800000000000011 58.600000000000023 Q27.699999999999989 56.899999999999977 27.699999999999989 54.199999999999989 Q27.699999999999989 53.199999999999989 28.050000000000011 52.250000000000000 Q28.399999999999977 51.300000000000011 29.199999999999989 50.000000000000000 Q30.000000000000000 48.800000000000011 31.149999999999977 47.149999999999977 Q32.300000000000011 45.500000000000000 34.000000000000000 43.100000000000023 C37.699999999999989 37.699999999999989 42.324999999999989 30.949999999999989 45.100000000000023 26.899999999999977 Q46.799999999999955 30.100000000000023 48.000000000000000 33.750000000000000 Q49.200000000000045 37.399999999999977 49.799999999999955 41.600000000000023 C55.933333333333280 41.600000000000023 63.600000000000023 41.600000000000023 68.200000000000045 41.600000000000023 C67.825000000000045 38.824999999999989 67.075000000000045 33.274999999999977 66.700000000000045 30.500000000000000 C64.924999999999955 30.500000000000000 61.375000000000000 30.500000000000000 59.600000000000023 30.500000000000000 Q58.000000000000000 26.699999999999989 56.100000000000023 23.300000000000011 Q54.200000000000045 19.899999999999977 52.000000000000000 17.000000000000000 C55.933333333333280 11.333333333333314 60.850000000000023 4.250000000000000 63.799999999999955 0.000000000000000 C58.625000000000000 0.000000000000000 48.274999999999977 0.000000000000000 43.100000000000023 0.000000000000000 C42.199999999999989 1.300000000000011 40.399999999999977 3.899999999999977 39.500000000000000 5.199999999999989 zM24.600000000000001 11.199999999999999 Q26.800000000000011 11.199999999999989 29.100000000000023 11.899999999999977 Q31.399999999999977 12.600000000000023 33.699999999999989 14.000000000000000 C30.466666666666697 18.800000000000011 26.425000000000011 24.800000000000011 24.000000000000000 28.399999999999977 Q20.199999999999989 26.100000000000023 18.550000000000011 23.800000000000011 Q16.899999999999977 21.500000000000000 16.899999999999977 18.600000000000023 Q16.899999999999977 14.899999999999977 19.149999999999977 13.050000000000011 Q21.399999999999977 11.199999999999989 24.600000000000023 11.199999999999989 z" />
<glyph unicode="'" horiz-adv-x="24.699999999999999" d="M9.600000000000000 49.700000000000003 C10.824999999999989 55.425000000000011 13.274999999999977 66.875000000000000 14.500000000000000 72.599999999999994 C17.875000000000000 72.599999999999994 24.625000000000000 72.599999999999994 28.000000000000000 72.599999999999994 C26.774999999999977 66.875000000000000 24.324999999999989 55.425000000000011 23.100000000000023 49.699999999999989 C19.725000000000023 49.699999999999989 12.975000000000023 49.699999999999989 9.600000000000023 49.699999999999989 z" />
<glyph unicode="(" horiz-adv-x="31.899999999999999" d="M3.100000000000000 26.500000000000000 Q3.100000000000023 33.000000000000000 5.000000000000000 39.149999999999977 Q6.899999999999977 45.300000000000011 10.199999999999989 51.300000000000011 Q13.500000000000000 57.399999999999977 17.949999999999989 63.599999999999994 Q22.399999999999977 69.800000000000011 27.500000000000000 76.400000000000006 C31.199999999999989 74.733333333333348 35.824999999999989 72.650000000000006 38.600000000000023 71.400000000000006 Q33.899999999999977 65.400000000000006 30.149999999999977 59.500000000000000 Q26.399999999999977 53.600000000000023 23.699999999999989 48.000000000000000 Q21.000000000000000 42.500000000000000 19.550000000000011 37.250000000000000 Q18.100000000000023 32.000000000000000 18.100000000000023 27.300000000000011 Q18.100000000000023 21.000000000000000 19.449999999999989 13.850000000000023 Q20.800000000000011 6.699999999999989 23.100000000000023 -0.199999999999989 C18.766666666666652 -2.100000000000023 13.350000000000023 -4.475000000000023 10.100000000000023 -5.899999999999977 Q8.600000000000023 -2.399999999999977 7.350000000000023 1.550000000000011 Q6.100000000000023 5.500000000000000 5.100000000000023 9.699999999999989 Q4.199999999999989 13.899999999999977 3.649999999999977 18.149999999999977 Q3.100000000000023 22.399999999999977 3.100000000000023 26.500000000000000 z" />
<glyph unicode=")" horiz-adv-x="31.800000000000001" d="M30.800000000000001 43.100000000000001 Q30.800000000000011 36.300000000000011 28.750000000000000 29.899999999999977 Q26.699999999999989 23.500000000000000 23.300000000000011 17.399999999999977 Q19.899999999999977 11.300000000000011 15.500000000000000 5.449999999999989 Q11.100000000000023 -0.399999999999977 6.399999999999977 -5.899999999999977 C2.933333333333337 -4.000000000000000 -1.399999999999977 -1.625000000000000 -4.000000000000000 -0.199999999999989 Q0.199999999999989 5.500000000000000 3.800000000000011 10.699999999999989 Q7.399999999999977 15.899999999999977 10.000000000000000 21.100000000000023 Q12.699999999999989 26.300000000000011 14.199999999999989 31.550000000000011 Q15.699999999999989 36.800000000000011 15.699999999999989 42.500000000000000 Q15.699999999999989 46.800000000000011 15.149999999999977 51.199999999999989 Q14.600000000000023 55.600000000000023 13.800000000000011 59.500000000000000 Q13.100000000000023 63.500000000000000 12.250000000000000 66.599999999999994 Q11.399999999999977 69.699999999999989 10.800000000000011 71.400000000000006 C15.233333333333348 73.066666666666663 20.774999999999977 75.150000000000006 24.100000000000023 76.400000000000006 Q26.899999999999977 68.199999999999989 28.850000000000023 59.550000000000011 Q30.800000000000011 50.899999999999977 30.800000000000011 43.100000000000023 z" />
<glyph unicode="*" horiz-adv-x="34.600000000000001" d="M11.400000000000000 51.000000000000000 C12.925000000000011 52.875000000000000 15.975000000000023 56.625000000000000 17.500000000000000 58.500000000000000 C15.925000000000011 59.024999999999977 12.774999999999977 60.074999999999989 11.199999999999989 60.600000000000023 C12.074999999999989 62.274999999999977 13.824999999999989 65.625000000000000 14.699999999999989 67.300000000000011 C16.274999999999977 66.449999999999989 19.425000000000011 64.750000000000000 21.000000000000000 63.900000000000006 C21.274999999999977 65.900000000000006 21.824999999999989 69.900000000000006 22.100000000000023 71.900000000000006 C24.149999999999977 71.900000000000006 28.250000000000000 71.900000000000006 30.300000000000011 71.900000000000006 C29.750000000000000 69.900000000000006 28.649999999999977 65.900000000000006 28.100000000000023 63.900000000000006 C30.024999999999977 64.750000000000000 33.875000000000000 66.449999999999989 35.800000000000011 67.300000000000011 C35.949999999999989 65.625000000000000 36.250000000000000 62.274999999999977 36.399999999999977 60.600000000000023 C34.574999999999989 60.074999999999989 30.925000000000011 59.024999999999977 29.100000000000023 58.500000000000000 C29.875000000000000 56.625000000000000 31.425000000000011 52.875000000000000 32.199999999999989 51.000000000000000 C30.500000000000000 50.024999999999977 27.100000000000023 48.074999999999989 25.399999999999977 47.100000000000023 C24.699999999999989 49.074999999999989 23.300000000000011 53.024999999999977 22.600000000000023 55.000000000000000 C21.074999999999989 53.024999999999977 18.024999999999977 49.074999999999989 16.500000000000000 47.100000000000023 C15.225000000000023 48.074999999999989 12.675000000000011 50.024999999999977 11.399999999999977 51.000000000000000 z" />
<glyph unicode="+" horiz-adv-x="43.299999999999997" d="M39.299999999999997 41.899999999999999 C39.300000000000011 38.699999999999989 39.300000000000011 32.300000000000011 39.300000000000011 29.100000000000023 C36.925000000000011 29.100000000000023 32.175000000000011 29.100000000000023 29.800000000000011 29.100000000000023 C29.800000000000011 26.500000000000000 29.800000000000011 21.300000000000011 29.800000000000011 18.699999999999989 C26.199999999999989 18.699999999999989 19.000000000000000 18.699999999999989 15.399999999999977 18.699999999999989 C15.399999999999977 21.300000000000011 15.399999999999977 26.500000000000000 15.399999999999977 29.100000000000023 C13.050000000000011 29.100000000000023 8.350000000000023 29.100000000000023 6.000000000000000 29.100000000000023 C6.000000000000000 32.300000000000011 6.000000000000000 38.699999999999989 6.000000000000000 41.899999999999977 C8.350000000000023 41.899999999999977 13.050000000000011 41.899999999999977 15.399999999999977 41.899999999999977 C15.399999999999977 44.500000000000000 15.399999999999977 49.699999999999989 15.399999999999977 52.300000000000011 C19.000000000000000 52.300000000000011 26.199999999999989 52.300000000000011 29.800000000000011 52.300000000000011 C29.800000000000011 49.699999999999989 29.800000000000011 44.500000000000000 29.800000000000011 41.899999999999977 C32.175000000000011 41.899999999999977 36.925000000000011 41.899999999999977 39.300000000000011 41.899999999999977 z" />
<glyph unicode="," horiz-adv-x="24.199999999999999" d="M-2.000000000000000 -13.500000000000000 C-0.500000000000000 -10.074999999999989 2.500000000000000 -3.225000000000023 4.000000000000000 0.199999999999989 C2.774999999999977 0.199999999999989 0.324999999999989 0.199999999999989 -0.899999999999977 0.199999999999989 C-0.050000000000011 4.225000000000023 1.649999999999977 12.274999999999977 2.500000000000000 16.300000000000011 C5.875000000000000 16.300000000000011 12.625000000000000 16.300000000000011 16.000000000000000 16.300000000000011 C15.125000000000000 12.274999999999977 13.375000000000000 4.225000000000023 12.500000000000000 0.199999999999989 C10.625000000000000 -3.225000000000023 6.875000000000000 -10.074999999999989 5.000000000000000 -13.500000000000000 C3.250000000000000 -13.500000000000000 -0.250000000000000 -13.500000000000000 -2.000000000000000 -13.500000000000000 z" />
<glyph unicode="-" horiz-adv-x="40" d="M3.200000000000000 20.300000000000001 C3.975000000000023 23.899999999999977 5.524999999999977 31.100000000000023 6.300000000000011 34.699999999999989 C13.649999999999977 34.699999999999989 28.350000000000023 34.699999999999989 35.699999999999989 34.699999999999989 C34.925000000000011 31.100000000000023 33.375000000000000 23.899999999999977 32.600000000000023 20.300000000000011 C25.250000000000000 20.300000000000011 10.550000000000011 20.300000000000011 3.199999999999989 20.300000000000011 z" />
<glyph unicode="." horiz-adv-x="23.800000000000001" d="M-0.900000000000000 0.000000000000000 C-0.050000000000011 4.074999999999989 1.649999999999977 12.225000000000023 2.500000000000000 16.300000000000011 C5.774999999999977 16.300000000000011 12.324999999999989 16.300000000000011 15.600000000000023 16.300000000000011 C14.725000000000023 12.225000000000023 12.975000000000023 4.074999999999989 12.100000000000023 0.000000000000000 C8.850000000000023 0.000000000000000 2.350000000000023 0.000000000000000 -0.899999999999977 0.000000000000000 z" />
<glyph unicode="/" horiz-adv-x="72.900000000000006" d="M78.200000000000003 71.000000000000000 C62.375000000000000 53.250000000000000 30.725000000000023 17.750000000000000 14.899999999999977 0.000000000000000 C10.500000000000000 0.000000000000000 1.699999999999989 0.000000000000000 -2.699999999999989 0.000000000000000 C13.125000000000000 17.750000000000000 44.774999999999977 53.250000000000000 60.600000000000023 71.000000000000000 C65.000000000000000 71.000000000000000 73.799999999999955 71.000000000000000 78.200000000000045 71.000000000000000 z" />
<glyph unicode="0" horiz-adv-x="59.5" d="M23.100000000000001 -1.000000000000000 Q18.600000000000023 -1.000000000000000 15.050000000000011 0.750000000000000 Q11.500000000000000 2.500000000000000 8.899999999999977 5.600000000000023 Q6.399999999999977 8.699999999999989 5.050000000000011 13.050000000000011 Q3.699999999999989 17.399999999999977 3.699999999999989 22.500000000000000 Q3.699999999999989 30.199999999999989 6.399999999999977 37.000000000000000 Q9.100000000000023 43.800000000000011 13.600000000000023 48.800000000000011 Q18.100000000000023 53.899999999999977 23.949999999999989 56.800000000000011 Q29.800000000000011 59.699999999999989 36.100000000000023 59.699999999999989 Q40.500000000000000 59.699999999999989 44.100000000000023 57.949999999999989 Q47.700000000000045 56.199999999999989 50.200000000000045 53.000000000000000 Q52.700000000000045 49.899999999999977 54.049999999999955 45.600000000000023 Q55.399999999999977 41.300000000000011 55.399999999999977 36.100000000000023 Q55.399999999999977 28.399999999999977 52.700000000000045 21.600000000000023 Q50.000000000000000 14.800000000000011 45.500000000000000 9.800000000000011 Q41.100000000000023 4.800000000000011 35.250000000000000 1.899999999999977 Q29.399999999999977 -1.000000000000000 23.100000000000023 -1.000000000000000 zM26.199999999999999 13.699999999999999 Q28.699999999999989 13.699999999999989 31.000000000000000 15.350000000000023 Q33.300000000000011 17.000000000000000 35.100000000000023 19.800000000000011 Q36.899999999999977 22.699999999999989 37.949999999999989 26.449999999999989 Q39.000000000000000 30.199999999999989 39.000000000000000 34.399999999999977 Q39.000000000000000 39.199999999999989 37.449999999999989 42.100000000000023 Q35.899999999999977 45.000000000000000 33.000000000000000 45.000000000000000 Q30.399999999999977 45.000000000000000 28.000000000000000 43.300000000000011 Q25.600000000000023 41.600000000000023 23.800000000000011 38.699999999999989 Q22.000000000000000 35.899999999999977 20.949999999999989 32.100000000000023 Q19.899999999999977 28.300000000000011 19.899999999999977 24.199999999999989 Q19.899999999999977 19.399999999999977 21.550000000000011 16.550000000000011 Q23.199999999999989 13.699999999999989 26.199999999999989 13.699999999999989 z" />
<glyph unicode="1" horiz-adv-x="50.299999999999997" d="M2.800000000000000 14.400000000000000 C6.175000000000011 14.399999999999977 12.925000000000011 14.399999999999977 16.300000000000011 14.399999999999977 C17.675000000000011 20.774999999999977 20.425000000000011 33.524999999999977 21.800000000000011 39.899999999999977 Q20.699999999999989 38.699999999999989 18.600000000000023 37.449999999999989 Q16.500000000000000 36.199999999999989 14.100000000000023 35.100000000000023 Q11.699999999999989 34.100000000000023 9.199999999999989 33.449999999999989 Q6.699999999999989 32.800000000000011 4.899999999999977 32.800000000000011 C5.933333333333337 37.733333333333348 7.225000000000023 43.899999999999977 8.000000000000000 47.600000000000023 Q9.500000000000000 47.600000000000023 12.149999999999977 48.699999999999989 Q14.800000000000011 49.800000000000011 17.500000000000000 51.300000000000011 Q20.199999999999989 52.899999999999977 22.449999999999989 54.500000000000000 Q24.699999999999989 56.100000000000023 25.399999999999977 57.100000000000023 C30.833333333333314 57.100000000000023 37.625000000000000 57.100000000000023 41.699999999999989 57.100000000000023 C39.449999999999989 46.425000000000011 34.949999999999989 25.074999999999989 32.699999999999989 14.399999999999977 C35.725000000000023 14.399999999999977 41.774999999999977 14.399999999999977 44.799999999999955 14.399999999999977 C44.024999999999977 10.800000000000011 42.475000000000023 3.600000000000023 41.699999999999989 0.000000000000000 C31.225000000000023 0.000000000000000 10.274999999999977 0.000000000000000 -0.199999999999989 0.000000000000000 C0.550000000000011 3.600000000000023 2.050000000000011 10.800000000000011 2.800000000000011 14.399999999999977 z" />
<glyph unicode="2" horiz-adv-x="56.299999999999997" d="M-2.800000000000000 0.000000000000000 Q-1.800000000000011 4.699999999999989 -0.300000000000011 8.449999999999989 Q1.199999999999989 12.199999999999989 3.500000000000000 15.300000000000011 Q5.899999999999977 18.399999999999977 9.250000000000000 20.949999999999989 Q12.600000000000023 23.500000000000000 17.300000000000011 25.800000000000011 Q22.600000000000023 28.399999999999977 26.100000000000023 30.149999999999977 Q29.600000000000023 31.899999999999977 31.600000000000023 33.300000000000011 Q33.699999999999989 34.800000000000011 34.550000000000011 36.149999999999977 Q35.399999999999977 37.500000000000000 35.399999999999977 39.199999999999989 Q35.399999999999977 41.500000000000000 33.949999999999989 42.850000000000023 Q32.500000000000000 44.199999999999989 29.600000000000023 44.199999999999989 Q26.000000000000000 44.199999999999989 22.600000000000023 42.149999999999977 Q19.199999999999989 40.100000000000023 15.699999999999989 36.800000000000011 C13.166666666666686 40.733333333333348 10.000000000000000 45.649999999999977 8.100000000000023 48.600000000000023 Q10.100000000000023 50.399999999999977 13.050000000000011 52.100000000000023 Q16.000000000000000 53.800000000000011 19.600000000000023 55.100000000000023 Q23.199999999999989 56.500000000000000 27.199999999999989 57.300000000000011 Q31.199999999999989 58.100000000000023 35.399999999999977 58.100000000000023 Q44.500000000000000 58.100000000000023 49.100000000000023 54.300000000000011 Q53.700000000000045 50.500000000000000 53.700000000000045 44.000000000000000 Q53.700000000000045 40.000000000000000 52.450000000000045 37.000000000000000 Q51.200000000000045 34.000000000000000 49.100000000000023 31.600000000000023 Q47.000000000000000 29.199999999999989 44.299999999999955 27.300000000000011 Q41.600000000000023 25.399999999999977 38.699999999999989 23.699999999999989 Q35.600000000000023 22.000000000000000 31.899999999999977 19.649999999999977 Q28.199999999999989 17.300000000000011 25.399999999999977 14.399999999999977 C33.133333333333326 14.399999999999977 42.800000000000011 14.399999999999977 48.600000000000023 14.399999999999977 C47.850000000000023 10.800000000000011 46.350000000000023 3.600000000000023 45.600000000000023 0.000000000000000 C33.500000000000000 0.000000000000000 9.300000000000011 0.000000000000000 -2.800000000000011 0.000000000000000 C-2.800000000000011 0.000000000000000 -2.800000000000011 0.000000000000000 -2.800000000000011 0.000000000000000 z" />
<glyph unicode="3" horiz-adv-x="54.899999999999999" d="M15.600000000000000 -14.699999999999999 Q1.300000000000011 -14.699999999999989 -5.199999999999989 -5.800000000000011 C-1.566666666666663 -2.000000000000000 2.975000000000023 2.750000000000000 5.699999999999989 5.600000000000023 Q7.699999999999989 2.800000000000011 10.550000000000011 1.350000000000023 Q13.399999999999977 -0.100000000000023 17.899999999999977 -0.100000000000023 Q24.399999999999977 -0.100000000000023 27.350000000000023 2.550000000000011 Q30.300000000000011 5.199999999999989 30.300000000000011 10.100000000000023 Q30.300000000000011 13.600000000000023 27.600000000000023 15.449999999999989 Q24.899999999999977 17.300000000000011 19.000000000000000 17.300000000000011 C18.066666666666663 17.300000000000011 16.899999999999977 17.300000000000011 16.199999999999989 17.300000000000011 C16.800000000000011 20.175000000000011 18.000000000000000 25.925000000000011 18.600000000000023 28.800000000000011 C19.399999999999977 28.800000000000011 21.000000000000000 28.800000000000011 21.800000000000011 28.800000000000011 Q27.500000000000000 28.800000000000011 31.100000000000023 31.550000000000011 Q34.699999999999989 34.300000000000011 34.699999999999989 38.600000000000023 Q34.699999999999989 41.199999999999989 33.050000000000011 42.550000000000011 Q31.399999999999977 43.899999999999977 28.500000000000000 43.899999999999977 Q24.800000000000011 43.899999999999977 21.250000000000000 41.949999999999989 Q17.699999999999989 40.000000000000000 14.699999999999989 36.399999999999977 C12.166666666666686 40.266666666666652 9.000000000000000 45.100000000000023 7.100000000000023 48.000000000000000 Q9.199999999999989 50.100000000000023 12.100000000000023 51.899999999999977 Q15.000000000000000 53.699999999999989 18.399999999999977 54.899999999999977 Q21.899999999999977 56.199999999999989 25.649999999999977 56.899999999999977 Q29.399999999999977 57.600000000000023 33.199999999999989 57.600000000000023 Q42.300000000000011 57.600000000000023 47.500000000000000 53.550000000000011 Q52.700000000000045 49.500000000000000 52.700000000000045 42.899999999999977 Q52.700000000000045 39.500000000000000 51.399999999999977 36.300000000000011 Q50.100000000000023 33.100000000000023 47.899999999999977 30.500000000000000 Q45.700000000000045 27.899999999999977 42.750000000000000 26.100000000000023 Q39.800000000000011 24.300000000000011 36.600000000000023 23.699999999999989 Q41.300000000000011 22.800000000000011 43.950000000000045 18.899999999999977 Q46.600000000000023 15.000000000000000 46.600000000000023 9.500000000000000 Q46.600000000000023 4.100000000000023 44.350000000000023 -0.399999999999977 Q42.100000000000023 -4.899999999999977 38.000000000000000 -8.000000000000000 Q33.899999999999977 -11.199999999999989 28.199999999999989 -12.949999999999989 Q22.500000000000000 -14.699999999999989 15.600000000000023 -14.699999999999989 z" />
<glyph unicode="4" horiz-adv-x="56.100000000000001" d="M21.800000000000001 1.000000000000000 C15.375000000000000 1.000000000000000 2.524999999999977 1.000000000000000 -3.899999999999977 1.000000000000000 C-3.125000000000000 4.574999999999989 -1.574999999999989 11.725000000000023 -0.800000000000011 15.300000000000011 C9.100000000000023 25.750000000000000 28.899999999999977 46.649999999999977 38.800000000000011 57.100000000000023 C41.550000000000011 57.100000000000023 47.049999999999955 57.100000000000023 49.799999999999955 57.100000000000023 C47.575000000000045 46.675000000000011 43.125000000000000 25.824999999999989 40.899999999999977 15.399999999999977 C43.000000000000000 15.399999999999977 47.200000000000045 15.399999999999977 49.299999999999955 15.399999999999977 C48.524999999999977 11.800000000000011 46.975000000000023 4.600000000000023 46.200000000000045 1.000000000000000 C44.100000000000023 1.000000000000000 39.899999999999977 1.000000000000000 37.800000000000011 1.000000000000000 C37.074999999999989 -2.425000000000011 35.625000000000000 -9.274999999999977 34.899999999999977 -12.699999999999989 C30.899999999999977 -12.699999999999989 22.899999999999977 -12.699999999999989 18.899999999999977 -12.699999999999989 C19.625000000000000 -9.274999999999977 21.074999999999989 -2.425000000000011 21.800000000000011 1.000000000000000 zM26.699999999999999 15.400000000000000 C27.649999999999977 19.824999999999989 29.550000000000011 28.675000000000011 30.500000000000000 33.100000000000023 C26.649999999999977 28.675000000000011 18.949999999999989 19.824999999999989 15.100000000000023 15.399999999999977 C18.000000000000000 15.399999999999977 23.800000000000011 15.399999999999977 26.699999999999989 15.399999999999977 z" />
<glyph unicode="5" horiz-adv-x="53.600000000000001" d="M15.300000000000001 -14.900000000000000 Q7.899999999999977 -14.899999999999977 2.699999999999989 -11.800000000000011 Q-2.500000000000000 -8.699999999999989 -4.500000000000000 -3.100000000000023 C-0.833333333333314 0.199999999999989 3.750000000000000 4.324999999999989 6.500000000000000 6.800000000000011 Q8.399999999999977 3.300000000000011 11.600000000000023 1.199999999999989 Q14.800000000000011 -0.899999999999977 18.399999999999977 -0.899999999999977 Q20.800000000000011 -0.899999999999977 22.899999999999977 0.000000000000000 Q25.000000000000000 0.899999999999977 26.500000000000000 2.500000000000000 Q28.100000000000023 4.100000000000023 29.000000000000000 6.350000000000023 Q29.899999999999977 8.600000000000023 29.899999999999977 11.199999999999989 Q29.899999999999977 14.500000000000000 28.149999999999977 16.500000000000000 Q26.399999999999977 18.500000000000000 23.399999999999977 18.500000000000000 Q20.899999999999977 18.500000000000000 18.600000000000023 17.300000000000011 Q16.300000000000011 16.100000000000023 14.699999999999989 13.899999999999977 C10.100000000000023 13.899999999999977 4.350000000000023 13.899999999999977 0.899999999999977 13.899999999999977 Q2.699999999999989 18.100000000000023 4.949999999999989 23.949999999999989 Q7.199999999999989 29.800000000000011 9.600000000000023 35.800000000000011 Q12.000000000000000 41.899999999999977 14.199999999999989 47.550000000000011 Q16.399999999999977 53.199999999999989 18.000000000000000 57.100000000000023 C29.199999999999989 57.100000000000023 43.200000000000045 57.100000000000023 51.600000000000023 57.100000000000023 C50.825000000000045 53.449999999999989 49.274999999999977 46.149999999999977 48.500000000000000 42.500000000000000 C43.000000000000000 42.500000000000000 32.000000000000000 42.500000000000000 26.500000000000000 42.500000000000000 C25.425000000000011 39.475000000000023 23.274999999999977 33.425000000000011 22.199999999999989 30.399999999999977 Q22.800000000000011 31.100000000000023 24.399999999999977 31.649999999999977 Q26.000000000000000 32.199999999999989 28.600000000000023 32.199999999999989 Q32.800000000000011 32.199999999999989 36.149999999999977 30.850000000000023 Q39.500000000000000 29.500000000000000 41.800000000000011 27.100000000000023 Q44.200000000000045 24.699999999999989 45.450000000000045 21.350000000000023 Q46.700000000000045 18.000000000000000 46.700000000000045 13.899999999999977 Q46.700000000000045 7.699999999999989 44.250000000000000 2.399999999999977 Q41.800000000000011 -2.899999999999977 37.500000000000000 -6.699999999999989 Q33.199999999999989 -10.600000000000023 27.500000000000000 -12.750000000000000 Q21.800000000000011 -14.899999999999977 15.300000000000011 -14.899999999999977 z" />
<glyph unicode="6" horiz-adv-x="59.200000000000003" d="M23.500000000000000 -1.000000000000000 Q14.100000000000023 -1.000000000000000 9.100000000000023 5.350000000000023 Q4.100000000000023 11.699999999999989 4.100000000000023 22.899999999999977 Q4.100000000000023 33.000000000000000 6.750000000000000 41.899999999999977 Q9.399999999999977 50.800000000000011 14.199999999999989 57.399999999999977 Q19.100000000000023 64.000000000000000 25.800000000000011 67.800000000000011 Q32.500000000000000 71.599999999999994 40.600000000000023 71.599999999999994 Q46.899999999999977 71.599999999999994 51.649999999999977 68.900000000000006 Q56.399999999999977 66.199999999999989 59.600000000000023 61.100000000000023 C55.866666666666674 57.699999999999989 51.200000000000045 53.449999999999989 48.399999999999977 50.899999999999977 Q46.700000000000045 54.100000000000023 43.799999999999955 55.899999999999977 Q40.899999999999977 57.699999999999989 37.399999999999977 57.699999999999989 Q32.000000000000000 57.699999999999989 28.000000000000000 53.500000000000000 Q24.000000000000000 49.300000000000011 22.199999999999989 41.600000000000023 Q24.699999999999989 44.300000000000011 28.000000000000000 45.800000000000011 Q31.300000000000011 47.300000000000011 35.199999999999989 47.300000000000011 Q39.500000000000000 47.300000000000011 43.049999999999955 45.850000000000023 Q46.600000000000023 44.399999999999977 49.100000000000023 41.800000000000011 Q51.700000000000045 39.300000000000011 53.049999999999955 35.750000000000000 Q54.399999999999977 32.199999999999989 54.399999999999977 28.100000000000023 Q54.399999999999977 22.199999999999989 51.850000000000023 16.899999999999977 Q49.299999999999955 11.600000000000023 45.000000000000000 7.600000000000023 Q40.699999999999989 3.699999999999989 35.149999999999977 1.350000000000023 Q29.600000000000023 -1.000000000000000 23.500000000000000 -1.000000000000000 zM26.399999999999999 12.500000000000000 Q28.600000000000023 12.500000000000000 30.850000000000023 13.600000000000023 Q33.100000000000023 14.699999999999989 34.800000000000011 16.500000000000000 Q36.600000000000023 18.399999999999977 37.699999999999989 20.850000000000023 Q38.800000000000011 23.300000000000011 38.800000000000011 25.899999999999977 Q38.800000000000011 29.699999999999989 36.699999999999989 32.199999999999989 Q34.600000000000023 34.699999999999989 31.100000000000023 34.699999999999989 Q28.800000000000011 34.699999999999989 26.550000000000011 33.649999999999977 Q24.300000000000011 32.600000000000023 22.600000000000023 30.800000000000011 Q20.899999999999977 29.000000000000000 19.850000000000023 26.649999999999977 Q18.800000000000011 24.300000000000011 18.800000000000011 21.699999999999989 Q18.800000000000011 17.899999999999977 20.899999999999977 15.199999999999989 Q23.000000000000000 12.500000000000000 26.399999999999977 12.500000000000000 z" />
<glyph unicode="7" horiz-adv-x="56.299999999999997" d="M33.500000000000000 43.799999999999997 C26.574999999999989 43.800000000000011 12.725000000000023 43.800000000000011 5.800000000000011 43.800000000000011 C6.574999999999989 47.449999999999989 8.125000000000000 54.750000000000000 8.899999999999977 58.399999999999977 C22.125000000000000 58.399999999999977 48.575000000000045 58.399999999999977 61.799999999999955 58.399999999999977 C49.725000000000023 40.649999999999977 25.574999999999989 5.149999999999977 13.500000000000000 -12.600000000000023 C8.975000000000023 -12.600000000000023 -0.074999999999989 -12.600000000000023 -4.600000000000023 -12.600000000000023 C4.925000000000011 1.500000000000000 23.975000000000023 29.699999999999989 33.500000000000000 43.800000000000011 z" />
<glyph unicode="8" horiz-adv-x="58.700000000000003" d="M22.600000000000001 -0.900000000000000 Q18.199999999999989 -0.899999999999977 14.399999999999977 0.449999999999989 Q10.600000000000023 1.800000000000011 7.800000000000011 4.300000000000011 Q5.000000000000000 6.800000000000011 3.449999999999989 10.300000000000011 Q1.899999999999977 13.800000000000011 1.899999999999977 18.100000000000023 Q1.899999999999977 21.899999999999977 3.149999999999977 25.050000000000011 Q4.399999999999977 28.199999999999989 6.300000000000011 30.600000000000023 Q8.199999999999989 33.100000000000023 10.500000000000000 34.899999999999977 Q12.800000000000011 36.699999999999989 14.899999999999977 37.899999999999977 Q12.699999999999989 39.300000000000011 11.449999999999989 42.149999999999977 Q10.199999999999989 45.000000000000000 10.199999999999989 48.199999999999989 Q10.199999999999989 53.600000000000023 12.899999999999977 57.850000000000023 Q15.600000000000023 62.100000000000023 19.699999999999989 65.000000000000000 Q23.899999999999977 67.900000000000006 28.750000000000000 69.449999999999989 Q33.600000000000023 71.000000000000000 37.899999999999977 71.000000000000000 Q41.399999999999977 71.000000000000000 44.850000000000023 69.900000000000006 Q48.299999999999955 68.800000000000011 51.100000000000023 66.599999999999994 Q53.899999999999977 64.500000000000000 55.600000000000023 61.350000000000023 Q57.299999999999955 58.199999999999989 57.299999999999955 54.000000000000000 Q57.299999999999955 51.399999999999977 56.399999999999977 48.899999999999977 Q55.500000000000000 46.399999999999977 54.000000000000000 44.300000000000011 Q52.600000000000023 42.199999999999989 50.700000000000045 40.550000000000011 Q48.799999999999955 38.899999999999977 46.899999999999977 37.899999999999977 Q49.200000000000045 36.100000000000023 51.049999999999955 32.699999999999989 Q52.899999999999977 29.300000000000011 52.899999999999977 24.800000000000011 Q52.899999999999977 19.199999999999989 50.350000000000023 14.500000000000000 Q47.799999999999955 9.800000000000011 43.600000000000023 6.300000000000011 Q39.399999999999977 2.899999999999977 33.899999999999977 1.000000000000000 Q28.399999999999977 -0.899999999999977 22.600000000000023 -0.899999999999977 zM25.699999999999999 13.600000000000000 Q27.800000000000011 13.600000000000023 29.800000000000011 14.449999999999989 Q31.800000000000011 15.300000000000011 33.300000000000011 16.699999999999989 Q34.800000000000011 18.100000000000023 35.750000000000000 20.050000000000011 Q36.699999999999989 22.000000000000000 36.699999999999989 24.300000000000011 Q36.699999999999989 27.699999999999989 34.649999999999977 29.500000000000000 Q32.600000000000023 31.300000000000011 29.500000000000000 31.300000000000011 Q27.399999999999977 31.300000000000011 25.399999999999977 30.500000000000000 Q23.399999999999977 29.699999999999989 21.899999999999977 28.300000000000011 Q20.399999999999977 26.899999999999977 19.500000000000000 25.000000000000000 Q18.600000000000023 23.100000000000023 18.600000000000023 20.800000000000011 Q18.600000000000023 17.600000000000023 20.649999999999977 15.600000000000023 Q22.699999999999989 13.600000000000023 25.699999999999989 13.600000000000023 zM32.000000000000000 43.299999999999997 Q33.399999999999977 43.300000000000011 34.949999999999989 43.850000000000023 Q36.500000000000000 44.399999999999977 37.699999999999989 45.399999999999977 Q39.000000000000000 46.500000000000000 39.850000000000023 48.000000000000000 Q40.699999999999989 49.500000000000000 40.699999999999989 51.500000000000000 Q40.699999999999989 53.899999999999977 39.100000000000023 55.399999999999977 Q37.500000000000000 56.899999999999977 34.899999999999977 56.899999999999977 Q33.199999999999989 56.899999999999977 31.699999999999989 56.300000000000011 Q30.199999999999989 55.699999999999989 29.000000000000000 54.600000000000023 Q27.800000000000011 53.500000000000000 27.100000000000023 52.000000000000000 Q26.399999999999977 50.500000000000000 26.399999999999977 48.800000000000011 Q26.399999999999977 46.100000000000023 28.149999999999977 44.699999999999989 Q29.899999999999977 43.300000000000011 32.000000000000000 43.300000000000011 z" />
<glyph unicode="9" horiz-adv-x="57.399999999999999" d="M16.899999999999999 -15.500000000000000 Q10.600000000000023 -15.500000000000000 5.800000000000011 -12.800000000000011 Q1.000000000000000 -10.100000000000023 -2.199999999999989 -5.000000000000000 C1.533333333333360 -1.600000000000023 6.199999999999989 2.649999999999977 9.000000000000000 5.199999999999989 Q10.699999999999989 2.000000000000000 13.600000000000023 0.199999999999989 Q16.500000000000000 -1.600000000000023 20.100000000000023 -1.600000000000023 Q25.399999999999977 -1.600000000000023 29.399999999999977 2.600000000000023 Q33.399999999999977 6.800000000000011 35.300000000000011 14.500000000000000 Q32.699999999999989 11.800000000000011 29.399999999999977 10.300000000000011 Q26.100000000000023 8.800000000000011 22.300000000000011 8.800000000000011 Q17.899999999999977 8.800000000000011 14.350000000000023 10.250000000000000 Q10.800000000000011 11.699999999999989 8.300000000000011 14.199999999999989 Q5.800000000000011 16.800000000000011 4.449999999999989 20.350000000000023 Q3.100000000000023 23.899999999999977 3.100000000000023 28.000000000000000 Q3.100000000000023 33.899999999999977 5.649999999999977 39.199999999999989 Q8.199999999999989 44.500000000000000 12.399999999999977 48.399999999999977 Q16.699999999999989 52.399999999999977 22.250000000000000 54.750000000000000 Q27.800000000000011 57.100000000000023 33.899999999999977 57.100000000000023 Q43.299999999999955 57.100000000000023 48.299999999999955 50.750000000000000 Q53.299999999999955 44.399999999999977 53.299999999999955 33.199999999999989 Q53.299999999999955 23.100000000000023 50.649999999999977 14.199999999999989 Q48.000000000000000 5.300000000000011 43.200000000000045 -1.300000000000011 Q38.399999999999977 -7.899999999999977 31.699999999999989 -11.699999999999989 Q25.000000000000000 -15.500000000000000 16.899999999999977 -15.500000000000000 zM26.300000000000001 21.399999999999999 Q28.600000000000023 21.399999999999977 30.800000000000011 22.449999999999989 Q33.000000000000000 23.500000000000000 34.699999999999989 25.300000000000011 Q36.500000000000000 27.100000000000023 37.550000000000011 29.449999999999989 Q38.600000000000023 31.800000000000011 38.600000000000023 34.399999999999977 Q38.600000000000023 38.199999999999989 36.500000000000000 40.899999999999977 Q34.399999999999977 43.600000000000023 31.000000000000000 43.600000000000023 Q28.800000000000011 43.600000000000023 26.600000000000023 42.500000000000000 Q24.399999999999977 41.399999999999977 22.600000000000023 39.500000000000000 Q20.800000000000011 37.699999999999989 19.699999999999989 35.250000000000000 Q18.600000000000023 32.800000000000011 18.600000000000023 30.199999999999989 Q18.600000000000023 26.399999999999977 20.699999999999989 23.899999999999977 Q22.800000000000011 21.399999999999977 26.300000000000011 21.399999999999977 z" />
<glyph unicode=":" horiz-adv-x="26.899999999999999" d="M8.100000000000000 35.600000000000001 C8.975000000000023 39.675000000000011 10.725000000000023 47.824999999999989 11.600000000000023 51.899999999999977 C14.850000000000023 51.899999999999977 21.350000000000023 51.899999999999977 24.600000000000023 51.899999999999977 C23.725000000000023 47.824999999999989 21.975000000000023 39.675000000000011 21.100000000000023 35.600000000000023 C17.850000000000023 35.600000000000023 11.350000000000023 35.600000000000023 8.100000000000023 35.600000000000023 zM0.600000000000000 0.000000000000000 C1.449999999999989 4.074999999999989 3.149999999999977 12.225000000000023 4.000000000000000 16.300000000000011 C7.274999999999977 16.300000000000011 13.824999999999989 16.300000000000011 17.100000000000023 16.300000000000011 C16.225000000000023 12.225000000000023 14.475000000000023 4.074999999999989 13.600000000000023 0.000000000000000 C10.350000000000023 0.000000000000000 3.850000000000023 0.000000000000000 0.600000000000023 0.000000000000000 z" />
<glyph unicode=";" horiz-adv-x="27.199999999999999" d="M8.199999999999999 35.600000000000001 C9.050000000000011 39.675000000000011 10.750000000000000 47.824999999999989 11.600000000000023 51.899999999999977 C14.875000000000000 51.899999999999977 21.425000000000011 51.899999999999977 24.699999999999989 51.899999999999977 C23.824999999999989 47.824999999999989 22.074999999999989 39.675000000000011 21.199999999999989 35.600000000000023 C17.949999999999989 35.600000000000023 11.449999999999989 35.600000000000023 8.199999999999989 35.600000000000023 zM-0.600000000000000 -13.500000000000000 C0.899999999999977 -10.074999999999989 3.899999999999977 -3.225000000000023 5.399999999999977 0.199999999999989 C4.175000000000011 0.199999999999989 1.725000000000023 0.199999999999989 0.500000000000000 0.199999999999989 C1.375000000000000 4.225000000000023 3.125000000000000 12.274999999999977 4.000000000000000 16.300000000000011 C7.350000000000023 16.300000000000011 14.050000000000011 16.300000000000011 17.399999999999977 16.300000000000011 C16.524999999999977 12.274999999999977 14.774999999999977 4.225000000000023 13.899999999999977 0.199999999999989 C12.024999999999977 -3.225000000000023 8.274999999999977 -10.074999999999989 6.399999999999977 -13.500000000000000 C4.649999999999977 -13.500000000000000 1.149999999999977 -13.500000000000000 -0.600000000000023 -13.500000000000000 z" />
<glyph unicode="&#x3c;" horiz-adv-x="55.200000000000003" d="M2.900000000000000 29.300000000000001 C13.449999999999989 35.699999999999989 34.550000000000011 48.500000000000000 45.100000000000023 54.899999999999977 C45.100000000000023 50.649999999999977 45.100000000000023 42.149999999999977 45.100000000000023 37.899999999999977 C40.350000000000023 34.899999999999977 30.850000000000023 28.899999999999977 26.100000000000023 25.899999999999977 C30.850000000000023 23.074999999999989 40.350000000000023 17.425000000000011 45.100000000000023 14.600000000000023 C45.100000000000023 10.125000000000000 45.100000000000023 1.175000000000011 45.100000000000023 -3.300000000000011 C34.550000000000011 2.949999999999989 13.449999999999989 15.449999999999989 2.899999999999977 21.699999999999989 C2.899999999999977 23.600000000000023 2.899999999999977 27.399999999999977 2.899999999999977 29.300000000000011 z" />
<glyph unicode="=" horiz-adv-x="48.799999999999997" d="M7.900000000000000 12.400000000000000 C7.899999999999977 14.949999999999989 7.899999999999977 20.050000000000011 7.899999999999977 22.600000000000023 C15.850000000000023 22.600000000000023 31.750000000000000 22.600000000000023 39.699999999999989 22.600000000000023 C39.699999999999989 20.050000000000011 39.699999999999989 14.949999999999989 39.699999999999989 12.399999999999977 C31.750000000000000 12.399999999999977 15.850000000000023 12.399999999999977 7.899999999999977 12.399999999999977 zM7.900000000000000 32.600000000000001 C7.899999999999977 35.149999999999977 7.899999999999977 40.250000000000000 7.899999999999977 42.800000000000011 C15.850000000000023 42.800000000000011 31.750000000000000 42.800000000000011 39.699999999999989 42.800000000000011 C39.699999999999989 40.250000000000000 39.699999999999989 35.149999999999977 39.699999999999989 32.600000000000023 C31.750000000000000 32.600000000000023 15.850000000000023 32.600000000000023 7.899999999999977 32.600000000000023 z" />
<glyph unicode="&#x3e;" horiz-adv-x="55.200000000000003" d="M50.399999999999999 21.699999999999999 C39.850000000000023 15.449999999999989 18.750000000000000 2.949999999999989 8.199999999999989 -3.300000000000011 C8.199999999999989 1.175000000000011 8.199999999999989 10.125000000000000 8.199999999999989 14.600000000000023 C12.949999999999989 17.425000000000011 22.449999999999989 23.074999999999989 27.199999999999989 25.899999999999977 C22.449999999999989 28.899999999999977 12.949999999999989 34.899999999999977 8.199999999999989 37.899999999999977 C8.199999999999989 42.149999999999977 8.199999999999989 50.649999999999977 8.199999999999989 54.899999999999977 C18.750000000000000 48.500000000000000 39.850000000000023 35.699999999999989 50.399999999999977 29.300000000000011 C50.399999999999977 27.399999999999977 50.399999999999977 23.600000000000023 50.399999999999977 21.699999999999989 z" />
<glyph unicode="?" horiz-adv-x="47.600000000000001" d="M9.199999999999999 24.500000000000000 Q9.600000000000023 26.800000000000011 10.300000000000011 28.899999999999977 Q11.000000000000000 31.000000000000000 12.199999999999989 32.899999999999977 Q13.399999999999977 34.899999999999977 15.250000000000000 36.600000000000023 Q17.100000000000023 38.300000000000011 20.000000000000000 39.699999999999989 Q23.399999999999977 41.399999999999977 26.100000000000023 42.899999999999977 Q28.800000000000011 44.399999999999977 30.699999999999989 46.000000000000000 Q32.600000000000023 47.600000000000023 33.649999999999977 49.350000000000023 Q34.699999999999989 51.100000000000023 34.699999999999989 53.399999999999977 Q34.699999999999989 56.000000000000000 33.050000000000011 57.500000000000000 Q31.399999999999977 59.000000000000000 29.000000000000000 59.000000000000000 Q27.199999999999989 59.000000000000000 25.649999999999977 58.250000000000000 Q24.100000000000023 57.500000000000000 22.800000000000011 56.399999999999977 Q21.500000000000000 55.399999999999977 20.399999999999977 54.100000000000023 Q19.300000000000011 52.800000000000011 18.500000000000000 51.800000000000011 C15.566666666666663 54.199999999999989 11.899999999999977 57.199999999999989 9.699999999999989 59.000000000000000 Q13.500000000000000 65.099999999999994 19.550000000000011 68.500000000000000 Q25.600000000000023 71.900000000000006 32.399999999999977 71.900000000000006 Q35.500000000000000 71.900000000000006 38.550000000000011 71.000000000000000 Q41.600000000000023 70.099999999999994 43.899999999999977 68.199999999999989 Q46.200000000000045 66.300000000000011 47.649999999999977 63.300000000000011 Q49.100000000000023 60.300000000000011 49.100000000000023 56.100000000000023 Q49.100000000000023 51.899999999999977 48.100000000000023 48.750000000000000 Q47.100000000000023 45.600000000000023 45.399999999999977 43.199999999999989 Q43.700000000000045 40.800000000000011 41.399999999999977 39.000000000000000 Q39.100000000000023 37.199999999999989 36.399999999999977 35.600000000000023 Q34.100000000000023 34.199999999999989 31.800000000000011 33.100000000000023 Q29.500000000000000 32.000000000000000 27.500000000000000 30.800000000000011 Q25.500000000000000 29.600000000000023 24.100000000000023 28.100000000000023 Q22.699999999999989 26.600000000000023 22.300000000000011 24.500000000000000 C17.933333333333337 24.500000000000000 12.475000000000023 24.500000000000000 9.199999999999989 24.500000000000000 zM4.200000000000000 0.000000000000000 C5.000000000000000 3.750000000000000 6.600000000000023 11.250000000000000 7.399999999999977 15.000000000000000 C10.675000000000011 15.000000000000000 17.225000000000023 15.000000000000000 20.500000000000000 15.000000000000000 C19.699999999999989 11.250000000000000 18.100000000000023 3.750000000000000 17.300000000000011 0.000000000000000 C14.024999999999977 0.000000000000000 7.475000000000023 0.000000000000000 4.199999999999989 0.000000000000000 z" />
<glyph unicode="@" horiz-adv-x="81.599999999999994" d="M58.200000000000003 5.300000000000000 Q60.600000000000023 5.300000000000011 62.750000000000000 7.550000000000011 Q64.899999999999977 9.800000000000011 66.399999999999977 13.300000000000011 Q68.000000000000000 16.899999999999977 68.950000000000045 21.149999999999977 Q69.899999999999977 25.399999999999977 69.899999999999977 29.399999999999977 Q69.899999999999977 34.800000000000011 68.200000000000045 39.350000000000023 Q66.500000000000000 43.899999999999977 63.299999999999955 47.199999999999989 Q60.100000000000023 50.500000000000000 55.450000000000045 52.350000000000023 Q50.799999999999955 54.199999999999989 45.000000000000000 54.199999999999989 Q37.600000000000023 54.199999999999989 30.949999999999989 51.250000000000000 Q24.300000000000011 48.300000000000011 19.300000000000011 43.199999999999989 Q14.300000000000011 38.100000000000023 11.350000000000023 31.199999999999989 Q8.399999999999977 24.300000000000011 8.399999999999977 16.399999999999977 Q8.399999999999977 10.699999999999989 9.949999999999989 6.100000000000023 Q11.500000000000000 1.500000000000000 14.399999999999977 -1.699999999999989 Q17.399999999999977 -5.000000000000000 21.649999999999977 -6.750000000000000 Q25.899999999999977 -8.500000000000000 31.199999999999989 -8.500000000000000 Q35.000000000000000 -8.500000000000000 38.550000000000011 -7.600000000000023 Q42.100000000000023 -6.699999999999989 46.500000000000000 -4.699999999999989 C46.733333333333348 -6.666666666666686 47.024999999999977 -9.125000000000000 47.200000000000045 -10.600000000000023 Q38.399999999999977 -14.600000000000023 29.899999999999977 -14.600000000000023 Q23.500000000000000 -14.600000000000023 18.300000000000011 -12.449999999999989 Q13.100000000000023 -10.300000000000011 9.399999999999977 -6.300000000000011 Q5.800000000000011 -2.399999999999977 3.800000000000011 3.149999999999977 Q1.800000000000011 8.699999999999989 1.800000000000011 15.600000000000023 Q1.800000000000011 25.100000000000023 5.500000000000000 33.300000000000011 Q9.199999999999989 41.500000000000000 15.300000000000011 47.500000000000000 Q21.500000000000000 53.500000000000000 29.600000000000023 56.899999999999977 Q37.699999999999989 60.300000000000011 46.600000000000023 60.300000000000011 Q53.500000000000000 60.300000000000011 59.000000000000000 58.199999999999989 Q64.500000000000000 56.100000000000023 68.299999999999955 52.199999999999989 Q72.200000000000045 48.399999999999977 74.299999999999955 43.050000000000011 Q76.399999999999977 37.699999999999989 76.399999999999977 31.199999999999989 Q76.399999999999977 25.800000000000011 74.950000000000045 20.000000000000000 Q73.500000000000000 14.199999999999989 70.700000000000045 9.399999999999977 Q68.000000000000000 4.600000000000023 64.049999999999955 1.500000000000000 Q60.100000000000023 -1.600000000000023 55.200000000000045 -1.600000000000023 Q51.700000000000045 -1.600000000000023 49.549999999999955 0.050000000000011 Q47.399999999999977 1.699999999999989 47.399999999999977 4.899999999999977 Q47.399999999999977 6.000000000000000 47.600000000000023 6.399999999999977 Q39.800000000000011 -0.500000000000000 32.000000000000000 -0.500000000000000 Q28.300000000000011 -0.500000000000000 25.300000000000011 0.850000000000023 Q22.300000000000011 2.199999999999989 20.199999999999989 4.600000000000023 Q18.100000000000023 7.100000000000023 17.000000000000000 10.500000000000000 Q15.899999999999977 13.899999999999977 15.899999999999977 17.899999999999977 Q15.899999999999977 23.600000000000023 18.000000000000000 28.750000000000000 Q20.100000000000023 33.899999999999977 23.600000000000023 37.800000000000011 Q27.100000000000023 41.800000000000011 31.649999999999977 44.149999999999977 Q36.199999999999989 46.500000000000000 41.100000000000023 46.500000000000000 Q45.899999999999977 46.500000000000000 49.049999999999955 44.250000000000000 Q52.200000000000045 42.000000000000000 53.100000000000023 38.500000000000000 C53.500000000000000 40.666666666666686 54.000000000000000 43.375000000000000 54.299999999999955 45.000000000000000 C56.174999999999955 45.000000000000000 59.924999999999955 45.000000000000000 61.799999999999955 45.000000000000000 C60.200000000000045 36.850000000000023 57.000000000000000 20.550000000000011 55.399999999999977 12.399999999999977 Q55.200000000000045 11.600000000000023 55.100000000000023 10.699999999999989 Q55.000000000000000 9.800000000000011 55.000000000000000 9.100000000000023 Q55.000000000000000 5.300000000000011 58.200000000000045 5.300000000000011 zM35.200000000000003 7.200000000000000 Q39.399999999999977 7.199999999999989 42.500000000000000 9.800000000000011 Q45.600000000000023 12.399999999999977 47.399999999999977 16.699999999999989 C48.033333333333303 20.766666666666652 48.825000000000045 25.850000000000023 49.299999999999955 28.899999999999977 Q48.600000000000023 32.699999999999989 46.250000000000000 35.149999999999977 Q43.899999999999977 37.600000000000023 40.399999999999977 37.600000000000023 Q37.699999999999989 37.600000000000023 35.000000000000000 36.149999999999977 Q32.300000000000011 34.699999999999989 30.100000000000023 32.199999999999989 Q28.000000000000000 29.699999999999989 26.649999999999977 26.300000000000011 Q25.300000000000011 22.899999999999977 25.300000000000011 19.000000000000000 Q25.300000000000011 14.000000000000000 27.750000000000000 10.600000000000023 Q30.199999999999989 7.199999999999989 35.199999999999989 7.199999999999989 z" />
<glyph unicode="A" horiz-adv-x="64.099999999999994" d="M33.700000000000003 71.000000000000000 C37.425000000000011 71.000000000000000 44.875000000000000 71.000000000000000 48.600000000000023 71.000000000000000 C50.899999999999977 53.250000000000000 55.500000000000000 17.750000000000000 57.799999999999955 0.000000000000000 C53.600000000000023 0.000000000000000 45.200000000000045 0.000000000000000 41.000000000000000 0.000000000000000 C40.625000000000000 3.975000000000023 39.875000000000000 11.925000000000011 39.500000000000000 15.899999999999977 C34.449999999999989 15.899999999999977 24.350000000000023 15.899999999999977 19.300000000000011 15.899999999999977 C17.274999999999977 11.925000000000011 13.225000000000023 3.975000000000023 11.199999999999989 0.000000000000000 C6.975000000000023 0.000000000000000 -1.475000000000023 0.000000000000000 -5.699999999999989 0.000000000000000 C4.149999999999977 17.750000000000000 23.850000000000023 53.250000000000000 33.699999999999989 71.000000000000000 zM39.200000000000003 27.199999999999999 C38.699999999999989 33.475000000000023 37.699999999999989 46.024999999999977 37.199999999999989 52.300000000000011 C33.949999999999989 46.024999999999977 27.449999999999989 33.475000000000023 24.199999999999989 27.199999999999989 C27.949999999999989 27.199999999999989 35.449999999999989 27.199999999999989 39.199999999999989 27.199999999999989 z" />
<glyph unicode="B" horiz-adv-x="66.099999999999994" d="M15.500000000000000 71.000000000000000 C24.975000000000023 71.000000000000000 43.924999999999955 71.000000000000000 53.399999999999977 71.000000000000000 Q56.399999999999977 71.000000000000000 58.649999999999977 69.750000000000000 Q60.899999999999977 68.500000000000000 62.399999999999977 66.500000000000000 Q63.899999999999977 64.500000000000000 64.649999999999977 61.850000000000023 Q65.399999999999977 59.199999999999989 65.399999999999977 56.399999999999977 Q65.399999999999977 53.399999999999977 64.450000000000045 50.399999999999977 Q63.500000000000000 47.399999999999977 61.700000000000045 44.699999999999989 Q60.000000000000000 42.100000000000023 57.450000000000045 39.899999999999977 Q54.899999999999977 37.699999999999989 51.700000000000045 36.399999999999977 Q56.200000000000045 35.000000000000000 58.600000000000023 31.399999999999977 Q61.000000000000000 27.800000000000011 61.000000000000000 22.399999999999977 Q61.000000000000000 16.699999999999989 58.700000000000045 12.500000000000000 Q56.399999999999977 8.300000000000011 52.600000000000023 5.500000000000000 Q48.799999999999955 2.800000000000011 43.750000000000000 1.399999999999977 Q38.699999999999989 0.000000000000000 33.300000000000011 0.000000000000000 C22.333333333333314 0.000000000000000 8.625000000000000 0.000000000000000 0.399999999999977 0.000000000000000 C4.175000000000011 17.750000000000000 11.725000000000023 53.250000000000000 15.500000000000000 71.000000000000000 zM36.299999999999997 13.900000000000000 Q37.899999999999977 13.899999999999977 39.449999999999989 14.600000000000023 Q41.000000000000000 15.300000000000011 42.199999999999989 16.600000000000023 Q43.399999999999977 17.899999999999977 44.100000000000023 19.600000000000023 Q44.799999999999955 21.300000000000011 44.799999999999955 23.399999999999977 Q44.799999999999955 26.000000000000000 43.549999999999955 27.699999999999989 Q42.300000000000011 29.399999999999977 40.199999999999989 29.399999999999977 C34.466666666666697 29.399999999999977 27.300000000000011 29.399999999999977 23.000000000000000 29.399999999999977 C22.199999999999989 25.524999999999977 20.600000000000023 17.774999999999977 19.800000000000011 13.899999999999977 C23.925000000000011 13.899999999999977 32.175000000000011 13.899999999999977 36.300000000000011 13.899999999999977 zM40.299999999999997 42.299999999999997 Q41.699999999999989 42.300000000000011 43.149999999999977 42.899999999999977 Q44.600000000000023 43.500000000000000 45.700000000000045 44.600000000000023 Q46.899999999999977 45.800000000000011 47.600000000000023 47.550000000000011 Q48.299999999999955 49.300000000000011 48.299999999999955 51.600000000000023 Q48.299999999999955 54.199999999999989 47.100000000000023 55.600000000000023 Q45.899999999999977 57.000000000000000 44.000000000000000 57.000000000000000 C38.966666666666697 57.000000000000000 32.675000000000011 57.000000000000000 28.899999999999977 57.000000000000000 C28.125000000000000 53.324999999999989 26.574999999999989 45.975000000000023 25.800000000000011 42.300000000000011 C29.425000000000011 42.300000000000011 36.675000000000011 42.300000000000011 40.300000000000011 42.300000000000011 z" />
<glyph unicode="C" horiz-adv-x="66.099999999999994" d="M29.699999999999999 -0.600000000000000 Q23.399999999999977 -0.600000000000023 18.500000000000000 1.949999999999989 Q13.600000000000023 4.500000000000000 10.199999999999989 8.699999999999989 Q6.800000000000011 13.000000000000000 5.050000000000011 18.449999999999989 Q3.300000000000011 23.899999999999977 3.300000000000011 29.699999999999989 Q3.300000000000011 34.600000000000023 4.750000000000000 39.600000000000023 Q6.199999999999989 44.600000000000023 8.800000000000011 49.199999999999989 Q11.500000000000000 53.899999999999977 15.300000000000011 57.899999999999977 Q19.100000000000023 61.899999999999977 23.800000000000011 64.900000000000006 Q28.500000000000000 67.900000000000006 34.000000000000000 69.650000000000006 Q39.500000000000000 71.400000000000006 45.600000000000023 71.400000000000006 Q55.200000000000045 71.400000000000006 61.299999999999955 67.099999999999994 Q67.399999999999977 62.800000000000011 69.399999999999977 55.899999999999977 C64.566666666666606 52.966666666666697 58.524999999999977 49.300000000000011 54.899999999999977 47.100000000000023 Q54.399999999999977 49.899999999999977 53.149999999999977 51.750000000000000 Q51.899999999999977 53.600000000000023 50.100000000000023 54.699999999999989 Q48.299999999999955 55.899999999999977 46.200000000000045 56.350000000000023 Q44.100000000000023 56.800000000000011 42.100000000000023 56.800000000000011 Q36.899999999999977 56.800000000000011 32.800000000000011 54.350000000000023 Q28.699999999999989 51.899999999999977 25.800000000000011 48.000000000000000 Q23.000000000000000 44.199999999999989 21.500000000000000 39.600000000000023 Q20.000000000000000 35.000000000000000 20.000000000000000 30.699999999999989 Q20.000000000000000 27.300000000000011 20.850000000000023 24.300000000000011 Q21.699999999999989 21.300000000000011 23.300000000000011 19.000000000000000 Q25.000000000000000 16.699999999999989 27.500000000000000 15.350000000000023 Q30.000000000000000 14.000000000000000 33.199999999999989 14.000000000000000 Q35.300000000000011 14.000000000000000 37.550000000000011 14.550000000000011 Q39.800000000000011 15.100000000000023 42.000000000000000 16.199999999999989 Q44.299999999999955 17.399999999999977 46.350000000000023 19.250000000000000 Q48.399999999999977 21.100000000000023 49.899999999999977 23.800000000000011 C53.833333333333371 21.166666666666686 58.750000000000000 17.875000000000000 61.700000000000045 15.899999999999977 Q59.299999999999955 12.000000000000000 55.600000000000023 8.899999999999977 Q51.899999999999977 5.800000000000011 47.500000000000000 3.699999999999989 Q43.200000000000045 1.600000000000023 38.550000000000011 0.500000000000000 Q33.899999999999977 -0.600000000000023 29.699999999999989 -0.600000000000023 z" />
<glyph unicode="D" horiz-adv-x="69.299999999999997" d="M15.500000000000000 71.000000000000000 C21.850000000000023 71.000000000000000 34.550000000000011 71.000000000000000 40.899999999999977 71.000000000000000 Q47.799999999999955 71.000000000000000 52.950000000000045 68.849999999999994 Q58.100000000000023 66.699999999999989 61.399999999999977 63.000000000000000 Q64.799999999999955 59.300000000000011 66.450000000000045 54.250000000000000 Q68.100000000000023 49.199999999999989 68.100000000000023 43.399999999999977 Q68.100000000000023 34.000000000000000 64.899999999999977 26.050000000000011 Q61.700000000000045 18.100000000000023 56.000000000000000 12.300000000000011 Q50.299999999999955 6.500000000000000 42.550000000000011 3.250000000000000 Q34.800000000000011 0.000000000000000 25.800000000000011 0.000000000000000 C17.333333333333314 0.000000000000000 6.750000000000000 0.000000000000000 0.399999999999977 0.000000000000000 C4.175000000000011 17.750000000000000 11.725000000000023 53.250000000000000 15.500000000000000 71.000000000000000 zM28.800000000000001 14.400000000000000 Q33.800000000000011 14.399999999999977 37.899999999999977 16.550000000000011 Q42.000000000000000 18.699999999999989 44.899999999999977 22.399999999999977 Q47.899999999999977 26.100000000000023 49.500000000000000 30.899999999999977 Q51.100000000000023 35.699999999999989 51.100000000000023 41.000000000000000 Q51.100000000000023 48.000000000000000 47.750000000000000 52.300000000000011 Q44.399999999999977 56.600000000000023 37.800000000000011 56.600000000000023 C34.800000000000011 56.600000000000023 31.050000000000011 56.600000000000023 28.800000000000011 56.600000000000023 C26.550000000000011 46.050000000000011 22.050000000000011 24.949999999999989 19.800000000000011 14.399999999999977 C22.050000000000011 14.399999999999977 26.550000000000011 14.399999999999977 28.800000000000011 14.399999999999977 z" />
<glyph unicode="E" horiz-adv-x="57.600000000000001" d="M15.500000000000000 71.000000000000000 C27.175000000000011 71.000000000000000 50.524999999999977 71.000000000000000 62.200000000000045 71.000000000000000 C61.424999999999955 67.400000000000006 59.875000000000000 60.199999999999989 59.100000000000023 56.600000000000023 C51.524999999999977 56.600000000000023 36.375000000000000 56.600000000000023 28.800000000000011 56.600000000000023 C28.074999999999989 53.149999999999977 26.625000000000000 46.250000000000000 25.899999999999977 42.800000000000011 C32.399999999999977 42.800000000000011 45.399999999999977 42.800000000000011 51.899999999999977 42.800000000000011 C51.200000000000045 39.475000000000023 49.799999999999955 32.824999999999989 49.100000000000023 29.500000000000000 C42.600000000000023 29.500000000000000 29.600000000000023 29.500000000000000 23.100000000000023 29.500000000000000 C22.274999999999977 25.725000000000023 20.625000000000000 18.175000000000011 19.800000000000011 14.399999999999977 C27.600000000000023 14.399999999999977 43.200000000000045 14.399999999999977 51.000000000000000 14.399999999999977 C50.250000000000000 10.800000000000011 48.750000000000000 3.600000000000023 48.000000000000000 0.000000000000000 C36.100000000000023 0.000000000000000 12.300000000000011 0.000000000000000 0.399999999999977 0.000000000000000 C4.175000000000011 17.750000000000000 11.725000000000023 53.250000000000000 15.500000000000000 71.000000000000000 z" />
<glyph unicode="F" horiz-adv-x="55.200000000000003" d="M15.500000000000000 71.000000000000000 C26.949999999999989 71.000000000000000 49.850000000000023 71.000000000000000 61.299999999999955 71.000000000000000 C60.549999999999955 67.400000000000006 59.049999999999955 60.199999999999989 58.299999999999955 56.600000000000023 C50.924999999999955 56.600000000000023 36.175000000000011 56.600000000000023 28.800000000000011 56.600000000000023 C28.000000000000000 52.774999999999977 26.399999999999977 45.125000000000000 25.600000000000023 41.300000000000011 C31.649999999999977 41.300000000000011 43.750000000000000 41.300000000000011 49.799999999999955 41.300000000000011 C49.100000000000023 37.975000000000023 47.700000000000045 31.324999999999989 47.000000000000000 28.000000000000000 C40.925000000000011 28.000000000000000 28.774999999999977 28.000000000000000 22.699999999999989 28.000000000000000 C21.225000000000023 21.000000000000000 18.274999999999977 7.000000000000000 16.800000000000011 0.000000000000000 C12.699999999999989 0.000000000000000 4.500000000000000 0.000000000000000 0.399999999999977 0.000000000000000 C4.175000000000011 17.750000000000000 11.725000000000023 53.250000000000000 15.500000000000000 71.000000000000000 z" />
<glyph unicode="G" horiz-adv-x="70.400000000000006" d="M48.100000000000001 7.000000000000000 Q43.299999999999955 3.199999999999989 38.750000000000000 1.350000000000023 Q34.199999999999989 -0.500000000000000 29.100000000000023 -0.500000000000000 Q23.399999999999977 -0.500000000000000 18.699999999999989 1.600000000000023 Q14.000000000000000 3.699999999999989 10.500000000000000 7.500000000000000 Q7.100000000000023 11.300000000000011 5.199999999999989 16.649999999999977 Q3.300000000000011 22.000000000000000 3.300000000000011 28.500000000000000 Q3.300000000000011 37.300000000000011 6.850000000000023 45.149999999999977 Q10.399999999999977 53.000000000000000 16.300000000000011 58.800000000000011 Q22.300000000000011 64.699999999999989 29.949999999999989 68.099999999999994 Q37.600000000000023 71.500000000000000 45.799999999999955 71.500000000000000 Q55.100000000000023 71.500000000000000 61.350000000000023 67.349999999999994 Q67.600000000000023 63.199999999999989 69.600000000000023 56.000000000000000 C64.899999999999977 52.933333333333337 59.024999999999977 49.100000000000023 55.500000000000000 46.800000000000011 Q54.200000000000045 51.600000000000023 50.549999999999955 54.250000000000000 Q46.899999999999977 56.899999999999977 42.100000000000023 56.899999999999977 Q37.699999999999989 56.899999999999977 33.750000000000000 54.750000000000000 Q29.800000000000011 52.600000000000023 26.800000000000011 48.899999999999977 Q23.800000000000011 45.300000000000011 22.000000000000000 40.500000000000000 Q20.199999999999989 35.699999999999989 20.199999999999989 30.399999999999977 Q20.199999999999989 26.899999999999977 21.100000000000023 23.899999999999977 Q22.000000000000000 20.899999999999977 23.699999999999989 18.699999999999989 Q25.500000000000000 16.500000000000000 27.949999999999989 15.300000000000011 Q30.399999999999977 14.100000000000023 33.600000000000023 14.100000000000023 Q42.500000000000000 14.100000000000023 51.500000000000000 22.899999999999977 C51.666666666666629 23.666666666666686 51.875000000000000 24.625000000000000 52.000000000000000 25.199999999999989 C48.774999999999977 25.199999999999989 42.324999999999989 25.199999999999989 39.100000000000023 25.199999999999989 C39.725000000000023 28.175000000000011 40.975000000000023 34.125000000000000 41.600000000000023 37.100000000000023 C48.225000000000023 37.100000000000023 61.475000000000023 37.100000000000023 68.100000000000023 37.100000000000023 C66.125000000000000 27.824999999999989 62.174999999999955 9.274999999999977 60.200000000000045 0.000000000000000 C56.799999999999955 0.000000000000000 50.000000000000000 0.000000000000000 46.600000000000023 0.000000000000000 C46.975000000000023 1.750000000000000 47.725000000000023 5.250000000000000 48.100000000000023 7.000000000000000 z" />
<glyph unicode="H" horiz-adv-x="72.099999999999994" d="M15.500000000000000 71.000000000000000 C19.600000000000023 71.000000000000000 27.800000000000011 71.000000000000000 31.899999999999977 71.000000000000000 C30.425000000000011 64.125000000000000 27.475000000000023 50.375000000000000 26.000000000000000 43.500000000000000 C32.425000000000011 43.500000000000000 45.274999999999977 43.500000000000000 51.700000000000045 43.500000000000000 C53.174999999999955 50.375000000000000 56.125000000000000 64.125000000000000 57.600000000000023 71.000000000000000 C61.700000000000045 71.000000000000000 69.899999999999977 71.000000000000000 74.000000000000000 71.000000000000000 C70.225000000000023 53.250000000000000 62.674999999999955 17.750000000000000 58.899999999999977 0.000000000000000 C54.799999999999955 0.000000000000000 46.600000000000023 0.000000000000000 42.500000000000000 0.000000000000000 C44.049999999999955 7.274999999999977 47.149999999999977 21.824999999999989 48.700000000000045 29.100000000000023 C42.274999999999977 29.100000000000023 29.425000000000011 29.100000000000023 23.000000000000000 29.100000000000023 C21.449999999999989 21.824999999999989 18.350000000000023 7.274999999999977 16.800000000000011 0.000000000000000 C12.699999999999989 0.000000000000000 4.500000000000000 0.000000000000000 0.399999999999977 0.000000000000000 C4.175000000000011 17.750000000000000 11.725000000000023 53.250000000000000 15.500000000000000 71.000000000000000 z" />
<glyph unicode="I" horiz-adv-x="30" d="M15.500000000000000 71.000000000000000 C19.600000000000023 71.000000000000000 27.800000000000011 71.000000000000000 31.899999999999977 71.000000000000000 C28.125000000000000 53.250000000000000 20.574999999999989 17.750000000000000 16.800000000000011 0.000000000000000 C12.699999999999989 0.000000000000000 4.500000000000000 0.000000000000000 0.399999999999977 0.000000000000000 C4.175000000000011 17.750000000000000 11.725000000000023 53.250000000000000 15.500000000000000 71.000000000000000 z" />
<glyph unicode="J" horiz-adv-x="48.299999999999997" d="M9.199999999999999 -1.100000000000000 Q0.699999999999989 -1.100000000000023 -4.500000000000000 3.300000000000011 C-2.399999999999977 7.766666666666652 0.225000000000023 13.350000000000023 1.800000000000011 16.699999999999989 Q2.500000000000000 15.899999999999977 5.350000000000023 14.699999999999989 Q8.199999999999989 13.500000000000000 12.300000000000011 13.500000000000000 Q15.600000000000023 13.500000000000000 17.850000000000023 14.750000000000000 Q20.100000000000023 16.000000000000000 21.699999999999989 18.600000000000023 Q23.300000000000011 21.199999999999989 24.500000000000000 25.250000000000000 Q25.699999999999989 29.300000000000011 26.899999999999977 34.899999999999977 C29.466666666666640 46.933333333333337 32.675000000000011 61.975000000000023 34.600000000000023 71.000000000000000 C38.725000000000023 71.000000000000000 46.975000000000023 71.000000000000000 51.100000000000023 71.000000000000000 C49.174999999999955 61.975000000000023 45.325000000000045 43.925000000000011 43.399999999999977 34.899999999999977 Q41.699999999999989 26.800000000000011 39.449999999999989 20.149999999999977 Q37.199999999999989 13.500000000000000 33.399999999999977 8.800000000000011 Q29.699999999999989 4.100000000000023 23.850000000000023 1.500000000000000 Q18.000000000000000 -1.100000000000023 9.199999999999989 -1.100000000000023 z" />
<glyph unicode="K" horiz-adv-x="65.299999999999997" d="M15.500000000000000 71.000000000000000 C19.600000000000023 71.000000000000000 27.800000000000011 71.000000000000000 31.899999999999977 71.000000000000000 C30.274999999999977 63.349999999999994 27.024999999999977 48.050000000000011 25.399999999999977 40.399999999999977 C32.899999999999977 48.050000000000011 47.899999999999977 63.349999999999994 55.399999999999977 71.000000000000000 C60.024999999999977 71.000000000000000 69.274999999999977 71.000000000000000 73.899999999999977 71.000000000000000 C65.924999999999955 63.074999999999989 49.975000000000023 47.225000000000023 42.000000000000000 39.300000000000011 C46.600000000000023 29.475000000000023 55.799999999999955 9.824999999999989 60.399999999999977 0.000000000000000 C55.700000000000045 0.000000000000000 46.299999999999955 0.000000000000000 41.600000000000023 0.000000000000000 C38.524999999999977 7.149999999999977 32.375000000000000 21.449999999999989 29.300000000000011 28.600000000000023 C27.274999999999977 26.675000000000011 23.225000000000023 22.824999999999989 21.199999999999989 20.899999999999977 C20.100000000000023 15.675000000000011 17.899999999999977 5.225000000000023 16.800000000000011 0.000000000000000 C12.699999999999989 0.000000000000000 4.500000000000000 0.000000000000000 0.399999999999977 0.000000000000000 C4.175000000000011 17.750000000000000 11.725000000000023 53.250000000000000 15.500000000000000 71.000000000000000 z" />
<glyph unicode="L" horiz-adv-x="56.299999999999997" d="M15.500000000000000 71.000000000000000 C19.600000000000023 71.000000000000000 27.800000000000011 71.000000000000000 31.899999999999977 71.000000000000000 C28.875000000000000 56.850000000000023 22.824999999999989 28.550000000000011 19.800000000000011 14.399999999999977 C27.824999999999989 14.399999999999977 43.875000000000000 14.399999999999977 51.899999999999977 14.399999999999977 C51.149999999999977 10.800000000000011 49.649999999999977 3.600000000000023 48.899999999999977 0.000000000000000 C36.774999999999977 0.000000000000000 12.524999999999977 0.000000000000000 0.399999999999977 0.000000000000000 C4.175000000000011 17.750000000000000 11.725000000000023 53.250000000000000 15.500000000000000 71.000000000000000 z" />
<glyph unicode="M" horiz-adv-x="82.5" d="M15.500000000000000 71.000000000000000 C19.949999999999989 71.000000000000000 28.850000000000023 71.000000000000000 33.300000000000011 71.000000000000000 C35.500000000000000 61.725000000000023 39.899999999999977 43.175000000000011 42.100000000000023 33.899999999999977 C48.250000000000000 43.175000000000011 60.549999999999955 61.725000000000023 66.700000000000045 71.000000000000000 C71.149999999999977 71.000000000000000 80.049999999999955 71.000000000000000 84.500000000000000 71.000000000000000 C80.725000000000023 53.250000000000000 73.174999999999955 17.750000000000000 69.399999999999977 0.000000000000000 C65.274999999999977 0.000000000000000 57.024999999999977 0.000000000000000 52.899999999999977 0.000000000000000 C55.174999999999955 10.625000000000000 59.725000000000023 31.875000000000000 62.000000000000000 42.500000000000000 C56.924999999999955 34.774999999999977 46.774999999999977 19.324999999999989 41.699999999999989 11.600000000000023 C39.500000000000000 11.600000000000023 35.100000000000023 11.600000000000023 32.899999999999977 11.600000000000023 C31.149999999999977 19.324999999999989 27.649999999999977 34.774999999999977 25.899999999999977 42.500000000000000 C23.625000000000000 31.875000000000000 19.074999999999989 10.625000000000000 16.800000000000011 0.000000000000000 C12.699999999999989 0.000000000000000 4.500000000000000 0.000000000000000 0.399999999999977 0.000000000000000 C4.175000000000011 17.750000000000000 11.725000000000023 53.250000000000000 15.500000000000000 71.000000000000000 z" />
<glyph unicode="N" horiz-adv-x="72.900000000000006" d="M15.500000000000000 71.000000000000000 C18.699999999999989 71.000000000000000 25.100000000000023 71.000000000000000 28.300000000000011 71.000000000000000 C33.625000000000000 60.574999999999989 44.274999999999977 39.725000000000023 49.600000000000023 29.300000000000011 C51.799999999999955 39.725000000000023 56.200000000000045 60.574999999999989 58.399999999999977 71.000000000000000 C62.500000000000000 71.000000000000000 70.700000000000045 71.000000000000000 74.799999999999955 71.000000000000000 C71.024999999999977 53.250000000000000 63.475000000000023 17.750000000000000 59.700000000000045 0.000000000000000 C56.450000000000045 0.000000000000000 49.950000000000045 0.000000000000000 46.700000000000045 0.000000000000000 C41.375000000000000 10.149999999999977 30.725000000000023 30.449999999999989 25.399999999999977 40.600000000000023 C23.250000000000000 30.449999999999989 18.949999999999989 10.149999999999977 16.800000000000011 0.000000000000000 C12.699999999999989 0.000000000000000 4.500000000000000 0.000000000000000 0.399999999999977 0.000000000000000 C4.175000000000011 17.750000000000000 11.725000000000023 53.250000000000000 15.500000000000000 71.000000000000000 z" />
<glyph unicode="O" horiz-adv-x="73.299999999999997" d="M30.100000000000001 -0.600000000000000 Q23.600000000000023 -0.600000000000023 18.600000000000023 1.850000000000023 Q13.600000000000023 4.300000000000011 10.199999999999989 8.399999999999977 Q6.800000000000011 12.600000000000023 5.050000000000011 17.949999999999989 Q3.300000000000011 23.300000000000011 3.300000000000011 29.100000000000023 Q3.300000000000011 34.500000000000000 4.899999999999977 39.699999999999989 Q6.500000000000000 44.899999999999977 9.300000000000011 49.600000000000023 Q12.199999999999989 54.300000000000011 16.100000000000023 58.300000000000011 Q20.000000000000000 62.300000000000011 24.699999999999989 65.199999999999989 Q29.500000000000000 68.099999999999994 34.800000000000011 69.750000000000000 Q40.100000000000023 71.400000000000006 45.700000000000045 71.400000000000006 Q52.100000000000023 71.400000000000006 57.100000000000023 68.900000000000006 Q62.100000000000023 66.400000000000006 65.399999999999977 62.300000000000011 Q68.799999999999955 58.199999999999989 70.549999999999955 52.800000000000011 Q72.299999999999955 47.399999999999977 72.299999999999955 41.699999999999989 Q72.299999999999955 33.699999999999989 68.850000000000023 26.100000000000023 Q65.399999999999977 18.500000000000000 59.500000000000000 12.500000000000000 Q53.700000000000045 6.600000000000023 46.100000000000023 3.000000000000000 Q38.500000000000000 -0.600000000000023 30.100000000000023 -0.600000000000023 zM33.299999999999997 14.000000000000000 Q38.500000000000000 14.000000000000000 42.600000000000023 16.500000000000000 Q46.700000000000045 19.000000000000000 49.500000000000000 22.800000000000011 Q52.399999999999977 26.699999999999989 53.950000000000045 31.399999999999977 Q55.500000000000000 36.100000000000023 55.500000000000000 40.600000000000023 Q55.500000000000000 43.899999999999977 54.700000000000045 46.800000000000011 Q53.899999999999977 49.699999999999989 52.299999999999955 51.899999999999977 Q50.700000000000045 54.199999999999989 48.200000000000045 55.500000000000000 Q45.700000000000045 56.800000000000011 42.300000000000011 56.800000000000011 Q37.199999999999989 56.800000000000011 33.050000000000011 54.350000000000023 Q28.899999999999977 51.899999999999977 26.000000000000000 48.100000000000023 Q23.199999999999989 44.300000000000011 21.649999999999977 39.600000000000023 Q20.100000000000023 34.899999999999977 20.100000000000023 30.399999999999977 Q20.100000000000023 27.100000000000023 20.899999999999977 24.149999999999977 Q21.699999999999989 21.199999999999989 23.300000000000011 18.899999999999977 Q24.899999999999977 16.699999999999989 27.399999999999977 15.350000000000023 Q29.899999999999977 14.000000000000000 33.300000000000011 14.000000000000000 z" />
<glyph unicode="P" horiz-adv-x="60.200000000000003" d="M15.500000000000000 71.000000000000000 C22.725000000000023 71.000000000000000 37.175000000000011 71.000000000000000 44.399999999999977 71.000000000000000 Q48.500000000000000 71.000000000000000 51.799999999999955 69.300000000000011 Q55.100000000000023 67.599999999999994 57.299999999999955 64.800000000000011 Q59.600000000000023 62.000000000000000 60.799999999999955 58.399999999999977 Q62.000000000000000 54.800000000000011 62.000000000000000 51.000000000000000 Q62.000000000000000 45.899999999999977 59.799999999999955 40.850000000000023 Q57.600000000000023 35.800000000000011 53.799999999999955 31.800000000000011 Q50.100000000000023 27.899999999999977 45.149999999999977 25.399999999999977 Q40.199999999999989 22.899999999999977 34.600000000000023 22.899999999999977 C30.266666666666652 22.899999999999977 24.850000000000023 22.899999999999977 21.600000000000023 22.899999999999977 C20.399999999999977 17.175000000000011 18.000000000000000 5.725000000000023 16.800000000000011 0.000000000000000 C12.699999999999989 0.000000000000000 4.500000000000000 0.000000000000000 0.399999999999977 0.000000000000000 C4.175000000000011 17.750000000000000 11.725000000000023 53.250000000000000 15.500000000000000 71.000000000000000 zM36.600000000000001 37.200000000000003 Q38.100000000000023 37.199999999999989 39.649999999999977 38.050000000000011 Q41.199999999999989 38.899999999999977 42.399999999999977 40.500000000000000 Q43.700000000000045 42.199999999999989 44.450000000000045 44.449999999999989 Q45.200000000000045 46.699999999999989 45.200000000000045 49.600000000000023 Q45.200000000000045 53.199999999999989 43.700000000000045 54.899999999999977 Q42.199999999999989 56.600000000000023 40.199999999999989 56.600000000000023 C36.399999999999977 56.600000000000023 31.649999999999977 56.600000000000023 28.800000000000011 56.600000000000023 C27.774999999999977 51.750000000000000 25.725000000000023 42.050000000000011 24.699999999999989 37.199999999999989 C27.675000000000011 37.199999999999989 33.625000000000000 37.199999999999989 36.600000000000023 37.199999999999989 z" />
<glyph unicode="Q" horiz-adv-x="73.200000000000003" d="M47.200000000000003 3.600000000000000 Q43.200000000000045 1.600000000000023 38.850000000000023 0.550000000000011 Q34.500000000000000 -0.500000000000000 30.000000000000000 -0.500000000000000 Q23.500000000000000 -0.500000000000000 18.550000000000011 1.949999999999989 Q13.600000000000023 4.399999999999977 10.100000000000023 8.500000000000000 Q6.699999999999989 12.600000000000023 4.949999999999989 17.949999999999989 Q3.199999999999989 23.300000000000011 3.199999999999989 29.100000000000023 Q3.199999999999989 37.199999999999989 6.699999999999989 44.800000000000011 Q10.199999999999989 52.399999999999977 16.000000000000000 58.300000000000011 Q21.899999999999977 64.300000000000011 29.550000000000011 67.900000000000006 Q37.199999999999989 71.500000000000000 45.600000000000023 71.500000000000000 Q52.100000000000023 71.500000000000000 57.049999999999955 69.000000000000000 Q62.000000000000000 66.500000000000000 65.399999999999977 62.300000000000011 Q68.799999999999955 58.199999999999989 70.500000000000000 52.800000000000011 Q72.200000000000045 47.399999999999977 72.200000000000045 41.699999999999989 Q72.200000000000045 33.100000000000023 68.299999999999955 25.050000000000011 Q64.399999999999977 17.000000000000000 57.799999999999955 11.000000000000000 C60.266666666666652 7.333333333333314 63.350000000000023 2.750000000000000 65.200000000000045 0.000000000000000 C61.325000000000045 0.000000000000000 53.575000000000045 0.000000000000000 49.700000000000045 0.000000000000000 C49.075000000000045 0.899999999999977 47.825000000000045 2.699999999999989 47.200000000000045 3.600000000000023 zM33.299999999999997 14.100000000000000 Q36.500000000000000 14.100000000000023 39.600000000000023 15.199999999999989 C36.766666666666652 19.466666666666640 33.225000000000023 24.800000000000011 31.100000000000023 28.000000000000000 C34.925000000000011 28.000000000000000 42.574999999999989 28.000000000000000 46.399999999999977 28.000000000000000 C47.225000000000023 26.750000000000000 48.875000000000000 24.250000000000000 49.700000000000045 23.000000000000000 Q52.500000000000000 26.800000000000011 54.000000000000000 31.449999999999989 Q55.500000000000000 36.100000000000023 55.500000000000000 40.600000000000023 Q55.500000000000000 43.899999999999977 54.700000000000045 46.850000000000023 Q53.899999999999977 49.800000000000011 52.200000000000045 52.000000000000000 Q50.600000000000023 54.300000000000011 48.149999999999977 55.600000000000023 Q45.700000000000045 56.899999999999977 42.300000000000011 56.899999999999977 Q37.199999999999989 56.899999999999977 33.050000000000011 54.449999999999989 Q28.899999999999977 52.000000000000000 26.000000000000000 48.100000000000023 Q23.100000000000023 44.300000000000011 21.550000000000011 39.600000000000023 Q20.000000000000000 34.899999999999977 20.000000000000000 30.399999999999977 Q20.000000000000000 27.199999999999989 20.800000000000011 24.250000000000000 Q21.600000000000023 21.300000000000011 23.199999999999989 19.000000000000000 Q24.899999999999977 16.800000000000011 27.399999999999977 15.449999999999989 Q29.899999999999977 14.100000000000023 33.300000000000011 14.100000000000023 z" />
<glyph unicode="R" horiz-adv-x="64.700000000000003" d="M0.400000000000000 0.000000000000000 C4.175000000000011 17.750000000000000 11.725000000000023 53.250000000000000 15.500000000000000 71.000000000000000 C23.125000000000000 71.000000000000000 38.375000000000000 71.000000000000000 46.000000000000000 71.000000000000000 Q50.200000000000045 71.000000000000000 53.450000000000045 69.300000000000011 Q56.700000000000045 67.599999999999994 58.899999999999977 64.800000000000011 Q61.200000000000045 62.000000000000000 62.399999999999977 58.399999999999977 Q63.600000000000023 54.800000000000011 63.600000000000023 51.000000000000000 Q63.600000000000023 47.300000000000011 62.450000000000045 43.699999999999989 Q61.299999999999955 40.100000000000023 59.200000000000045 36.800000000000011 Q57.200000000000045 33.600000000000023 54.350000000000023 30.899999999999977 Q51.500000000000000 28.199999999999989 48.100000000000023 26.399999999999977 C51.133333333333326 17.600000000000023 54.924999999999955 6.600000000000023 57.200000000000045 0.000000000000000 C52.575000000000045 0.000000000000000 43.325000000000045 0.000000000000000 38.699999999999989 0.000000000000000 C36.750000000000000 5.725000000000023 32.850000000000023 17.175000000000011 30.899999999999977 22.899999999999977 C28.574999999999989 22.899999999999977 23.925000000000011 22.899999999999977 21.600000000000023 22.899999999999977 C20.399999999999977 17.175000000000011 18.000000000000000 5.725000000000023 16.800000000000011 0.000000000000000 C12.699999999999989 0.000000000000000 4.500000000000000 0.000000000000000 0.399999999999977 0.000000000000000 zM38.299999999999997 37.200000000000003 Q39.800000000000011 37.199999999999989 41.300000000000011 38.149999999999977 Q42.800000000000011 39.100000000000023 44.000000000000000 40.699999999999989 Q45.200000000000045 42.399999999999977 45.950000000000045 44.600000000000023 Q46.700000000000045 46.800000000000011 46.700000000000045 49.300000000000011 Q46.700000000000045 52.600000000000023 45.299999999999955 54.600000000000023 Q43.899999999999977 56.600000000000023 41.899999999999977 56.600000000000023 C37.533333333333303 56.600000000000023 32.074999999999989 56.600000000000023 28.800000000000011 56.600000000000023 C27.774999999999977 51.750000000000000 25.725000000000023 42.050000000000011 24.699999999999989 37.199999999999989 C28.100000000000023 37.199999999999989 34.899999999999977 37.199999999999989 38.300000000000011 37.199999999999989 z" />
<glyph unicode="S" horiz-adv-x="59.399999999999999" d="M24.399999999999999 -0.800000000000000 Q16.899999999999977 -0.800000000000011 9.699999999999989 1.500000000000000 Q2.500000000000000 3.800000000000011 -2.699999999999989 8.000000000000000 C0.699999999999989 12.766666666666652 4.949999999999989 18.725000000000023 7.500000000000000 22.300000000000011 Q7.699999999999989 21.800000000000011 9.449999999999989 20.399999999999977 Q11.199999999999989 19.000000000000000 13.899999999999977 17.600000000000023 Q16.699999999999989 16.199999999999989 20.300000000000011 15.100000000000023 Q23.899999999999977 14.000000000000000 27.800000000000011 14.000000000000000 Q32.600000000000023 14.000000000000000 34.600000000000023 15.750000000000000 Q36.600000000000023 17.500000000000000 36.600000000000023 20.300000000000011 Q36.600000000000023 22.000000000000000 35.500000000000000 23.149999999999977 Q34.399999999999977 24.300000000000011 32.399999999999977 25.199999999999989 Q30.500000000000000 26.199999999999989 27.949999999999989 27.050000000000011 Q25.399999999999977 27.899999999999977 22.500000000000000 28.899999999999977 Q15.300000000000011 31.500000000000000 11.750000000000000 35.000000000000000 Q8.199999999999989 38.500000000000000 8.199999999999989 44.399999999999977 Q8.199999999999989 50.800000000000011 10.800000000000011 55.899999999999977 Q13.399999999999977 61.000000000000000 17.600000000000023 64.400000000000006 Q21.899999999999977 67.900000000000006 27.399999999999977 69.750000000000000 Q32.899999999999977 71.599999999999994 38.699999999999989 71.599999999999994 Q42.300000000000011 71.599999999999994 45.600000000000023 70.900000000000006 Q48.899999999999977 70.199999999999989 51.799999999999955 69.099999999999994 Q54.700000000000045 68.000000000000000 57.149999999999977 66.599999999999994 Q59.600000000000023 65.199999999999989 61.600000000000023 63.800000000000011 C58.266666666666652 59.266666666666652 54.100000000000023 53.600000000000023 51.600000000000023 50.199999999999989 Q51.399999999999977 50.600000000000023 49.950000000000045 51.699999999999989 Q48.500000000000000 52.800000000000011 46.200000000000045 54.000000000000000 Q43.899999999999977 55.199999999999989 41.000000000000000 56.100000000000023 Q38.100000000000023 57.000000000000000 35.100000000000023 57.000000000000000 Q30.899999999999977 57.000000000000000 28.550000000000011 55.149999999999977 Q26.199999999999989 53.300000000000011 26.199999999999989 50.000000000000000 Q26.199999999999989 47.100000000000023 29.300000000000011 45.649999999999977 Q32.399999999999977 44.199999999999989 38.100000000000023 42.399999999999977 Q41.899999999999977 41.199999999999989 45.049999999999955 39.750000000000000 Q48.200000000000045 38.300000000000011 50.399999999999977 36.300000000000011 Q52.700000000000045 34.300000000000011 53.899999999999977 31.600000000000023 Q55.100000000000023 28.899999999999977 55.100000000000023 25.199999999999989 Q55.100000000000023 18.100000000000023 52.399999999999977 13.149999999999977 Q49.700000000000045 8.199999999999989 45.299999999999955 5.100000000000023 Q40.899999999999977 2.000000000000000 35.399999999999977 0.600000000000023 Q29.899999999999977 -0.800000000000011 24.399999999999977 -0.800000000000011 z" />
<glyph unicode="T" horiz-adv-x="59.600000000000001" d="M27.300000000000001 56.600000000000001 C22.225000000000023 56.600000000000023 12.074999999999989 56.600000000000023 7.000000000000000 56.600000000000023 C7.750000000000000 60.199999999999989 9.250000000000000 67.400000000000006 10.000000000000000 71.000000000000000 C24.225000000000023 71.000000000000000 52.674999999999955 71.000000000000000 66.899999999999977 71.000000000000000 C66.149999999999977 67.400000000000006 64.649999999999977 60.199999999999989 63.899999999999977 56.600000000000023 C58.850000000000023 56.600000000000023 48.750000000000000 56.600000000000023 43.700000000000045 56.600000000000023 C40.675000000000011 42.449999999999989 34.625000000000000 14.149999999999977 31.600000000000023 0.000000000000000 C27.500000000000000 0.000000000000000 19.300000000000011 0.000000000000000 15.199999999999989 0.000000000000000 C18.225000000000023 14.149999999999977 24.274999999999977 42.449999999999989 27.300000000000011 56.600000000000023 z" />
<glyph unicode="U" horiz-adv-x="71.700000000000003" d="M29.300000000000001 -0.600000000000000 Q22.800000000000011 -0.600000000000023 18.300000000000011 1.250000000000000 Q13.800000000000011 3.100000000000023 10.899999999999977 6.300000000000011 Q8.100000000000023 9.600000000000023 6.800000000000011 14.050000000000011 Q5.500000000000000 18.500000000000000 5.500000000000000 23.600000000000023 Q5.500000000000000 29.000000000000000 6.699999999999989 34.699999999999989 C9.300000000000011 46.800000000000011 12.550000000000011 61.925000000000011 14.500000000000000 71.000000000000000 C18.600000000000023 71.000000000000000 26.800000000000011 71.000000000000000 30.899999999999977 71.000000000000000 C28.949999999999989 61.925000000000011 25.050000000000011 43.774999999999977 23.100000000000023 34.699999999999989 Q22.199999999999989 30.300000000000011 22.199999999999989 26.600000000000023 Q22.199999999999989 23.899999999999977 22.750000000000000 21.600000000000023 Q23.300000000000011 19.300000000000011 24.500000000000000 17.600000000000023 Q25.699999999999989 15.899999999999977 27.649999999999977 14.949999999999989 Q29.600000000000023 14.000000000000000 32.399999999999977 14.000000000000000 Q36.199999999999989 14.000000000000000 39.199999999999989 15.750000000000000 Q42.199999999999989 17.500000000000000 44.399999999999977 20.399999999999977 Q46.600000000000023 23.300000000000011 48.100000000000023 27.050000000000011 Q49.600000000000023 30.800000000000011 50.500000000000000 34.699999999999989 C53.066666666666720 46.800000000000011 56.274999999999977 61.925000000000011 58.200000000000045 71.000000000000000 C62.299999999999955 71.000000000000000 70.500000000000000 71.000000000000000 74.600000000000023 71.000000000000000 C72.674999999999955 61.925000000000011 68.825000000000045 43.774999999999977 66.899999999999977 34.699999999999989 Q65.299999999999955 27.300000000000011 62.149999999999977 20.899999999999977 Q59.000000000000000 14.500000000000000 54.299999999999955 9.699999999999989 Q49.600000000000023 4.899999999999977 43.350000000000023 2.149999999999977 Q37.100000000000023 -0.600000000000023 29.300000000000011 -0.600000000000023 z" />
<glyph unicode="V" horiz-adv-x="64.400000000000006" d="M8.199999999999999 71.000000000000000 C12.524999999999977 71.000000000000000 21.175000000000011 71.000000000000000 25.500000000000000 71.000000000000000 C26.600000000000023 58.399999999999977 28.800000000000011 33.199999999999989 29.899999999999977 20.600000000000023 C36.324999999999989 33.199999999999989 49.174999999999955 58.399999999999977 55.600000000000023 71.000000000000000 C59.899999999999977 71.000000000000000 68.500000000000000 71.000000000000000 72.799999999999955 71.000000000000000 C62.700000000000045 53.250000000000000 42.500000000000000 17.750000000000000 32.399999999999977 0.000000000000000 C28.975000000000023 0.000000000000000 22.125000000000000 0.000000000000000 18.699999999999989 0.000000000000000 C16.074999999999989 17.750000000000000 10.824999999999989 53.250000000000000 8.199999999999989 71.000000000000000 z" />
<glyph unicode="W" horiz-adv-x="100.2" d="M7.600000000000000 71.000000000000000 C12.050000000000011 71.000000000000000 20.949999999999989 71.000000000000000 25.399999999999977 71.000000000000000 C26.699999999999989 57.949999999999989 29.300000000000011 31.850000000000023 30.600000000000023 18.800000000000011 C33.149999999999977 23.574999999999989 38.250000000000000 33.125000000000000 40.800000000000011 37.899999999999977 C46.049999999999955 37.899999999999977 56.549999999999955 37.899999999999977 61.799999999999955 37.899999999999977 C62.375000000000000 33.125000000000000 63.524999999999977 23.574999999999989 64.100000000000023 18.800000000000011 C70.924999999999955 31.850000000000023 84.575000000000045 57.949999999999989 91.399999999999977 71.000000000000000 C95.899999999999977 71.000000000000000 104.899999999999977 71.000000000000000 109.399999999999977 71.000000000000000 C98.899999999999977 53.250000000000000 77.899999999999977 17.750000000000000 67.399999999999977 0.000000000000000 C64.000000000000000 0.000000000000000 57.200000000000045 0.000000000000000 53.799999999999955 0.000000000000000 C52.649999999999977 6.949999999999989 50.350000000000023 20.850000000000023 49.200000000000045 27.800000000000011 C45.149999999999977 20.850000000000023 37.050000000000011 6.949999999999989 33.000000000000000 0.000000000000000 C29.574999999999989 0.000000000000000 22.725000000000023 0.000000000000000 19.300000000000011 0.000000000000000 C16.375000000000000 17.750000000000000 10.524999999999977 53.250000000000000 7.600000000000023 71.000000000000000 z" />
<glyph unicode="X" horiz-adv-x="62.5" d="M23.600000000000001 35.000000000000000 C19.725000000000023 44.000000000000000 11.975000000000023 62.000000000000000 8.100000000000023 71.000000000000000 C12.550000000000011 71.000000000000000 21.449999999999989 71.000000000000000 25.899999999999977 71.000000000000000 C28.125000000000000 64.875000000000000 32.574999999999989 52.625000000000000 34.800000000000011 46.500000000000000 C39.600000000000023 52.625000000000000 49.200000000000045 64.875000000000000 54.000000000000000 71.000000000000000 C58.424999999999955 71.000000000000000 67.274999999999977 71.000000000000000 71.700000000000045 71.000000000000000 C64.000000000000000 62.000000000000000 48.600000000000023 44.000000000000000 40.899999999999977 35.000000000000000 C44.625000000000000 26.250000000000000 52.075000000000045 8.750000000000000 55.799999999999955 0.000000000000000 C51.375000000000000 0.000000000000000 42.524999999999977 0.000000000000000 38.100000000000023 0.000000000000000 C36.024999999999977 5.875000000000000 31.875000000000000 17.625000000000000 29.800000000000011 23.500000000000000 C25.250000000000000 17.625000000000000 16.149999999999977 5.875000000000000 11.600000000000023 0.000000000000000 C7.149999999999977 0.000000000000000 -1.750000000000000 0.000000000000000 -6.199999999999989 0.000000000000000 C1.250000000000000 8.750000000000000 16.149999999999977 26.250000000000000 23.600000000000023 35.000000000000000 z" />
<glyph unicode="Y" horiz-adv-x="62.299999999999997" d="M21.300000000000001 24.399999999999999 C17.899999999999977 36.050000000000011 11.100000000000023 59.350000000000023 7.699999999999989 71.000000000000000 C12.149999999999977 71.000000000000000 21.050000000000011 71.000000000000000 25.500000000000000 71.000000000000000 C27.225000000000023 62.850000000000023 30.675000000000011 46.550000000000011 32.399999999999977 38.399999999999977 C37.675000000000011 46.550000000000011 48.225000000000023 62.850000000000023 53.500000000000000 71.000000000000000 C57.950000000000045 71.000000000000000 66.850000000000023 71.000000000000000 71.299999999999955 71.000000000000000 C62.850000000000023 59.300000000000011 45.950000000000045 35.899999999999977 37.500000000000000 24.199999999999989 C36.225000000000023 18.149999999999977 33.675000000000011 6.050000000000011 32.399999999999977 0.000000000000000 C28.300000000000011 0.000000000000000 20.100000000000023 0.000000000000000 16.000000000000000 0.000000000000000 C17.324999999999989 6.100000000000023 19.975000000000023 18.300000000000011 21.300000000000011 24.399999999999977 z" />
<glyph unicode="Z" horiz-adv-x="59.5" d="M-1.000000000000000 12.300000000000001 C9.875000000000000 23.375000000000000 31.625000000000000 45.524999999999977 42.500000000000000 56.600000000000023 C34.324999999999989 56.600000000000023 17.975000000000023 56.600000000000023 9.800000000000011 56.600000000000023 C10.550000000000011 60.199999999999989 12.050000000000011 67.400000000000006 12.800000000000011 71.000000000000000 C25.750000000000000 71.000000000000000 51.649999999999977 71.000000000000000 64.600000000000023 71.000000000000000 C63.924999999999955 67.925000000000011 62.575000000000045 61.774999999999977 61.899999999999977 58.699999999999989 C51.424999999999955 47.625000000000000 30.475000000000023 25.475000000000023 20.000000000000000 14.399999999999977 C28.225000000000023 14.399999999999977 44.674999999999955 14.399999999999977 52.899999999999977 14.399999999999977 C52.149999999999977 10.800000000000011 50.649999999999977 3.600000000000023 49.899999999999977 0.000000000000000 C36.524999999999977 0.000000000000000 9.774999999999977 0.000000000000000 -3.600000000000023 0.000000000000000 C-2.949999999999989 3.074999999999989 -1.649999999999977 9.225000000000023 -1.000000000000000 12.300000000000011 z" />
<glyph unicode="[" horiz-adv-x="32.200000000000003" d="M-0.400000000000000 -4.000000000000000 C3.750000000000000 15.500000000000000 12.050000000000011 54.500000000000000 16.199999999999989 74.000000000000000 C21.475000000000023 74.000000000000000 32.024999999999977 74.000000000000000 37.300000000000011 74.000000000000000 C36.625000000000000 70.824999999999989 35.274999999999977 64.474999999999994 34.600000000000023 61.300000000000011 C33.000000000000000 61.300000000000011 29.800000000000011 61.300000000000011 28.199999999999989 61.300000000000011 C25.425000000000011 48.149999999999977 19.875000000000000 21.850000000000023 17.100000000000023 8.699999999999989 C18.675000000000011 8.699999999999989 21.824999999999989 8.699999999999989 23.399999999999977 8.699999999999989 C22.750000000000000 5.524999999999977 21.449999999999989 -0.824999999999989 20.800000000000011 -4.000000000000000 C15.500000000000000 -4.000000000000000 4.899999999999977 -4.000000000000000 -0.399999999999977 -4.000000000000000 z" />
<glyph unicode="\" horiz-adv-x="63.200000000000003" d="M28.399999999999999 71.000000000000000 C34.949999999999989 53.250000000000000 48.049999999999955 17.750000000000000 54.600000000000023 0.000000000000000 C50.200000000000045 0.000000000000000 41.399999999999977 0.000000000000000 37.000000000000000 0.000000000000000 C30.425000000000011 17.750000000000000 17.274999999999977 53.250000000000000 10.699999999999989 71.000000000000000 C15.125000000000000 71.000000000000000 23.975000000000023 71.000000000000000 28.399999999999977 71.000000000000000 z" />
<glyph unicode="]" horiz-adv-x="32.299999999999997" d="M-3.000000000000000 -4.000000000000000 C-2.324999999999989 -0.824999999999989 -0.975000000000023 5.524999999999977 -0.300000000000011 8.699999999999989 C1.324999999999989 8.699999999999989 4.574999999999989 8.699999999999989 6.199999999999989 8.699999999999989 C8.975000000000023 21.850000000000023 14.524999999999977 48.149999999999977 17.300000000000011 61.300000000000011 C15.699999999999989 61.300000000000011 12.500000000000000 61.300000000000011 10.899999999999977 61.300000000000011 C11.574999999999989 64.474999999999994 12.925000000000011 70.824999999999989 13.600000000000023 74.000000000000000 C18.875000000000000 74.000000000000000 29.425000000000011 74.000000000000000 34.699999999999989 74.000000000000000 C30.574999999999989 54.500000000000000 22.324999999999989 15.500000000000000 18.199999999999989 -4.000000000000000 C12.899999999999977 -4.000000000000000 2.300000000000011 -4.000000000000000 -3.000000000000000 -4.000000000000000 z" />
<glyph unicode="^" horiz-adv-x="60.799999999999997" d="M4.600000000000000 30.300000000000001 C9.550000000000011 40.475000000000023 19.449999999999989 60.824999999999989 24.399999999999977 71.000000000000000 C27.725000000000023 71.000000000000000 34.375000000000000 71.000000000000000 37.699999999999989 71.000000000000000 C42.625000000000000 60.824999999999989 52.475000000000023 40.475000000000023 57.399999999999977 30.300000000000011 C54.149999999999977 30.300000000000011 47.649999999999977 30.300000000000011 44.399999999999977 30.300000000000011 C41.074999999999989 37.175000000000011 34.425000000000011 50.925000000000011 31.100000000000023 57.800000000000011 C27.675000000000011 50.925000000000011 20.824999999999989 37.175000000000011 17.399999999999977 30.300000000000011 C14.199999999999989 30.300000000000011 7.800000000000011 30.300000000000011 4.600000000000023 30.300000000000011 z" />
<glyph unicode="_" horiz-adv-x="44.100000000000001" d="M-4.400000000000000 -14.400000000000000 C-3.649999999999977 -10.800000000000011 -2.149999999999977 -3.600000000000023 -1.399999999999977 0.000000000000000 C7.100000000000023 0.000000000000000 24.100000000000023 0.000000000000000 32.600000000000023 0.000000000000000 C31.850000000000023 -3.600000000000023 30.350000000000023 -10.800000000000011 29.600000000000023 -14.399999999999977 C21.100000000000023 -14.399999999999977 4.100000000000023 -14.399999999999977 -4.399999999999977 -14.399999999999977 z" />
<glyph unicode="`" horiz-adv-x="26" d="M5.300000000000000 73.000000000000000 C8.899999999999977 73.000000000000000 16.100000000000023 73.000000000000000 19.699999999999989 73.000000000000000 C20.250000000000000 69.750000000000000 21.350000000000023 63.250000000000000 21.899999999999977 60.000000000000000 C19.125000000000000 59.600000000000023 13.574999999999989 58.800000000000011 10.800000000000011 58.399999999999977 C9.425000000000011 62.050000000000011 6.675000000000011 69.349999999999994 5.300000000000011 73.000000000000000 z" />
<glyph unicode="a" horiz-adv-x="63.399999999999999" d="M19.699999999999999 -1.000000000000000 Q15.300000000000011 -1.000000000000000 11.850000000000023 0.600000000000023 Q8.399999999999977 2.199999999999989 6.000000000000000 5.000000000000000 Q3.600000000000023 7.899999999999977 2.350000000000023 11.800000000000011 Q1.100000000000023 15.699999999999989 1.100000000000023 20.300000000000011 Q1.100000000000023 26.899999999999977 3.449999999999989 32.949999999999989 Q5.800000000000011 39.000000000000000 9.699999999999989 43.500000000000000 Q13.600000000000023 48.100000000000023 18.800000000000011 50.800000000000011 Q24.000000000000000 53.500000000000000 29.699999999999989 53.500000000000000 Q34.800000000000011 53.500000000000000 38.399999999999977 50.899999999999977 Q42.000000000000000 48.300000000000011 43.399999999999977 43.899999999999977 C44.000000000000000 46.666666666666686 44.750000000000000 50.125000000000000 45.200000000000045 52.199999999999989 C49.225000000000023 52.199999999999989 57.274999999999977 52.199999999999989 61.299999999999955 52.199999999999989 C59.450000000000045 43.649999999999977 55.750000000000000 26.550000000000011 53.899999999999977 18.000000000000000 Q53.799999999999955 17.300000000000011 53.750000000000000 16.850000000000023 Q53.700000000000045 16.399999999999977 53.700000000000045 15.899999999999977 Q53.700000000000045 13.600000000000023 56.200000000000045 13.500000000000000 C55.266666666666652 9.000000000000000 54.100000000000023 3.375000000000000 53.399999999999977 0.000000000000000 Q51.100000000000023 -0.500000000000000 49.450000000000045 -0.649999999999977 Q47.799999999999955 -0.800000000000011 46.600000000000023 -0.800000000000011 Q42.699999999999989 -0.800000000000011 40.399999999999977 0.750000000000000 Q38.100000000000023 2.300000000000011 38.100000000000023 5.899999999999977 Q38.100000000000023 6.899999999999977 38.399999999999977 8.699999999999989 Q34.699999999999989 3.800000000000011 29.750000000000000 1.399999999999977 Q24.800000000000011 -1.000000000000000 19.699999999999989 -1.000000000000000 zM26.899999999999999 12.500000000000000 Q29.899999999999977 12.500000000000000 33.000000000000000 14.449999999999989 Q36.100000000000023 16.399999999999977 38.399999999999977 19.800000000000011 C39.166666666666686 23.466666666666697 40.125000000000000 28.050000000000011 40.699999999999989 30.800000000000011 Q40.199999999999989 34.800000000000011 37.699999999999989 37.350000000000023 Q35.199999999999989 39.899999999999977 32.000000000000000 39.899999999999977 Q29.300000000000011 39.899999999999977 26.750000000000000 38.449999999999989 Q24.199999999999989 37.000000000000000 22.199999999999989 34.600000000000023 Q20.300000000000011 32.300000000000011 19.149999999999977 29.250000000000000 Q18.000000000000000 26.199999999999989 18.000000000000000 22.899999999999977 Q18.000000000000000 18.399999999999977 20.350000000000023 15.449999999999989 Q22.699999999999989 12.500000000000000 26.899999999999977 12.500000000000000 z" />
<glyph unicode="b" horiz-adv-x="61.899999999999999" d="M29.300000000000001 -1.000000000000000 Q23.600000000000023 -1.000000000000000 19.899999999999977 1.550000000000011 Q16.199999999999989 4.100000000000023 14.800000000000011 8.699999999999989 C14.199999999999989 5.800000000000011 13.449999999999989 2.175000000000011 13.000000000000000 0.000000000000000 C9.500000000000000 0.000000000000000 2.500000000000000 0.000000000000000 -1.000000000000000 0.000000000000000 C2.875000000000000 18.250000000000000 10.625000000000000 54.750000000000000 14.500000000000000 73.000000000000000 C18.500000000000000 73.000000000000000 26.500000000000000 73.000000000000000 30.500000000000000 73.000000000000000 C28.949999999999989 65.724999999999994 25.850000000000023 51.175000000000011 24.300000000000011 43.899999999999977 Q27.500000000000000 48.300000000000011 32.199999999999989 50.899999999999977 Q36.899999999999977 53.500000000000000 42.100000000000023 53.500000000000000 Q46.200000000000045 53.500000000000000 49.399999999999977 51.850000000000023 Q52.600000000000023 50.199999999999989 54.700000000000045 47.300000000000011 Q56.899999999999977 44.500000000000000 58.000000000000000 40.649999999999977 Q59.100000000000023 36.800000000000011 59.100000000000023 32.300000000000011 Q59.100000000000023 25.399999999999977 56.600000000000023 19.350000000000023 Q54.100000000000023 13.300000000000011 50.000000000000000 8.699999999999989 Q45.899999999999977 4.199999999999989 40.500000000000000 1.600000000000023 Q35.100000000000023 -1.000000000000000 29.300000000000011 -1.000000000000000 zM27.899999999999999 12.500000000000000 Q30.699999999999989 12.500000000000000 33.300000000000011 13.850000000000023 Q35.899999999999977 15.199999999999989 37.899999999999977 17.399999999999977 Q39.899999999999977 19.699999999999989 41.100000000000023 22.699999999999989 Q42.300000000000011 25.699999999999989 42.300000000000011 29.100000000000023 Q42.300000000000011 33.600000000000023 40.149999999999977 36.750000000000000 Q38.000000000000000 39.899999999999977 34.199999999999989 39.899999999999977 Q30.800000000000011 39.899999999999977 27.350000000000023 37.300000000000011 Q23.899999999999977 34.699999999999989 21.600000000000023 30.800000000000011 C20.800000000000011 27.133333333333326 19.800000000000011 22.550000000000011 19.199999999999989 19.800000000000011 Q20.199999999999989 16.399999999999977 22.350000000000023 14.449999999999989 Q24.500000000000000 12.500000000000000 27.899999999999977 12.500000000000000 z" />
<glyph unicode="c" horiz-adv-x="54.799999999999997" d="M23.000000000000000 -1.000000000000000 Q17.500000000000000 -1.000000000000000 13.399999999999977 0.750000000000000 Q9.300000000000011 2.500000000000000 6.500000000000000 5.500000000000000 Q3.800000000000011 8.600000000000023 2.449999999999989 12.600000000000023 Q1.100000000000023 16.600000000000023 1.100000000000023 21.100000000000023 Q1.100000000000023 27.199999999999989 3.550000000000011 33.050000000000011 Q6.000000000000000 38.899999999999977 10.399999999999977 43.399999999999977 Q14.800000000000011 48.000000000000000 20.949999999999989 50.750000000000000 Q27.100000000000023 53.500000000000000 34.500000000000000 53.500000000000000 Q43.299999999999955 53.500000000000000 48.399999999999977 49.649999999999977 Q53.500000000000000 45.800000000000011 55.200000000000045 39.600000000000023 C49.700000000000045 38.033333333333303 42.824999999999989 36.074999999999989 38.699999999999989 34.899999999999977 Q36.800000000000011 39.899999999999977 31.500000000000000 39.899999999999977 Q28.899999999999977 39.899999999999977 26.399999999999977 38.600000000000023 Q23.899999999999977 37.300000000000011 21.899999999999977 35.000000000000000 Q20.000000000000000 32.800000000000011 18.850000000000023 29.699999999999989 Q17.699999999999989 26.600000000000023 17.699999999999989 22.899999999999977 Q17.699999999999989 18.199999999999989 19.899999999999977 15.350000000000023 Q22.100000000000023 12.500000000000000 25.699999999999989 12.500000000000000 Q28.300000000000011 12.500000000000000 30.850000000000023 13.949999999999989 Q33.399999999999977 15.399999999999977 35.000000000000000 17.699999999999989 C39.866666666666674 16.100000000000023 45.950000000000045 14.100000000000023 49.600000000000023 12.899999999999977 Q45.399999999999977 6.800000000000011 38.600000000000023 2.899999999999977 Q31.800000000000011 -1.000000000000000 23.000000000000000 -1.000000000000000 z" />
<glyph unicode="d" horiz-adv-x="63.399999999999999" d="M19.699999999999999 -1.000000000000000 Q15.300000000000011 -1.000000000000000 11.850000000000023 0.600000000000023 Q8.399999999999977 2.199999999999989 6.000000000000000 5.000000000000000 Q3.600000000000023 7.899999999999977 2.350000000000023 11.800000000000011 Q1.100000000000023 15.699999999999989 1.100000000000023 20.300000000000011 Q1.100000000000023 26.899999999999977 3.449999999999989 32.949999999999989 Q5.800000000000011 39.000000000000000 9.699999999999989 43.500000000000000 Q13.600000000000023 48.100000000000023 18.800000000000011 50.800000000000011 Q24.000000000000000 53.500000000000000 29.699999999999989 53.500000000000000 Q34.800000000000011 53.500000000000000 38.399999999999977 50.899999999999977 Q42.000000000000000 48.300000000000011 43.399999999999977 43.899999999999977 C45.466666666666697 53.600000000000023 48.049999999999955 65.724999999999994 49.600000000000023 73.000000000000000 C53.625000000000000 73.000000000000000 61.674999999999955 73.000000000000000 65.700000000000045 73.000000000000000 C62.750000000000000 59.250000000000000 56.850000000000023 31.750000000000000 53.899999999999977 18.000000000000000 Q53.799999999999955 17.300000000000011 53.750000000000000 16.850000000000023 Q53.700000000000045 16.399999999999977 53.700000000000045 15.899999999999977 Q53.700000000000045 13.600000000000023 56.200000000000045 13.500000000000000 C55.266666666666652 9.000000000000000 54.100000000000023 3.375000000000000 53.399999999999977 0.000000000000000 Q51.100000000000023 -0.500000000000000 49.450000000000045 -0.649999999999977 Q47.799999999999955 -0.800000000000011 46.600000000000023 -0.800000000000011 Q42.800000000000011 -0.800000000000011 40.399999999999977 0.699999999999989 Q38.000000000000000 2.199999999999989 38.000000000000000 5.600000000000023 Q38.000000000000000 6.800000000000011 38.399999999999977 8.699999999999989 Q34.699999999999989 3.800000000000011 29.750000000000000 1.399999999999977 Q24.800000000000011 -1.000000000000000 19.699999999999989 -1.000000000000000 zM26.899999999999999 12.500000000000000 Q29.899999999999977 12.500000000000000 33.000000000000000 14.449999999999989 Q36.100000000000023 16.399999999999977 38.399999999999977 19.800000000000011 C39.166666666666686 23.466666666666697 40.125000000000000 28.050000000000011 40.699999999999989 30.800000000000011 Q40.199999999999989 34.800000000000011 37.699999999999989 37.350000000000023 Q35.199999999999989 39.899999999999977 32.000000000000000 39.899999999999977 Q29.300000000000011 39.899999999999977 26.750000000000000 38.449999999999989 Q24.199999999999989 37.000000000000000 22.199999999999989 34.600000000000023 Q20.300000000000011 32.300000000000011 19.149999999999977 29.250000000000000 Q18.000000000000000 26.199999999999989 18.000000000000000 22.899999999999977 Q18.000000000000000 18.399999999999977 20.350000000000023 15.449999999999989 Q22.699999999999989 12.500000000000000 26.899999999999977 12.500000000000000 z" />
<glyph unicode="e" horiz-adv-x="55.799999999999997" d="M23.199999999999999 -1.000000000000000 Q18.100000000000023 -1.000000000000000 14.000000000000000 0.649999999999977 Q9.899999999999977 2.300000000000011 7.000000000000000 5.199999999999989 Q4.199999999999989 8.100000000000023 2.699999999999989 12.199999999999989 Q1.199999999999989 16.300000000000011 1.199999999999989 21.199999999999989 Q1.199999999999989 27.800000000000011 3.800000000000011 33.699999999999989 Q6.399999999999977 39.600000000000023 11.000000000000000 44.000000000000000 Q15.600000000000023 48.399999999999977 21.750000000000000 50.949999999999989 Q27.899999999999977 53.500000000000000 35.000000000000000 53.500000000000000 Q44.100000000000023 53.500000000000000 49.250000000000000 49.600000000000023 Q54.399999999999977 45.699999999999989 54.399999999999977 38.500000000000000 Q54.399999999999977 29.899999999999977 46.600000000000023 25.500000000000000 Q38.800000000000011 21.100000000000023 23.199999999999989 21.100000000000023 Q21.899999999999977 21.100000000000023 20.550000000000011 21.100000000000023 Q19.199999999999989 21.100000000000023 17.800000000000011 21.199999999999989 Q17.800000000000011 15.899999999999977 19.699999999999989 13.199999999999989 Q21.600000000000023 10.500000000000000 26.100000000000023 10.500000000000000 Q29.699999999999989 10.500000000000000 32.750000000000000 12.199999999999989 Q35.800000000000011 13.899999999999977 37.699999999999989 16.899999999999977 C41.899999999999977 15.566666666666663 47.149999999999977 13.899999999999977 50.299999999999955 12.899999999999977 Q48.200000000000045 9.800000000000011 45.200000000000045 7.250000000000000 Q42.199999999999989 4.699999999999989 38.600000000000023 2.800000000000011 Q35.100000000000023 1.000000000000000 31.149999999999977 0.000000000000000 Q27.199999999999989 -1.000000000000000 23.199999999999989 -1.000000000000000 zM32.399999999999999 42.000000000000000 Q27.899999999999977 42.000000000000000 24.649999999999977 38.899999999999977 Q21.399999999999977 35.800000000000011 19.600000000000023 31.000000000000000 C20.800000000000011 31.000000000000000 22.300000000000011 31.000000000000000 23.199999999999989 31.000000000000000 Q32.000000000000000 31.000000000000000 35.500000000000000 32.500000000000000 Q39.000000000000000 34.000000000000000 39.000000000000000 37.100000000000023 Q39.000000000000000 39.399999999999977 37.149999999999977 40.699999999999989 Q35.300000000000011 42.000000000000000 32.399999999999977 42.000000000000000 z" />
<glyph unicode="f" horiz-adv-x="37.600000000000001" d="M9.800000000000001 36.100000000000001 C8.225000000000023 36.100000000000023 5.074999999999989 36.100000000000023 3.500000000000000 36.100000000000023 C4.149999999999977 39.125000000000000 5.449999999999989 45.175000000000011 6.100000000000023 48.199999999999989 C7.675000000000011 48.199999999999989 10.824999999999989 48.199999999999989 12.399999999999977 48.199999999999989 C12.625000000000000 49.274999999999977 13.074999999999989 51.425000000000011 13.300000000000011 52.500000000000000 Q14.300000000000011 57.399999999999977 16.399999999999977 61.399999999999977 Q18.500000000000000 65.400000000000006 21.399999999999977 68.199999999999989 Q24.399999999999977 71.000000000000000 28.000000000000000 72.500000000000000 Q31.600000000000023 74.000000000000000 35.600000000000023 74.000000000000000 Q41.699999999999989 74.000000000000000 48.200000000000045 70.900000000000006 C46.366666666666674 66.900000000000006 44.075000000000045 61.899999999999977 42.699999999999989 58.899999999999977 Q41.399999999999977 59.600000000000023 39.600000000000023 60.050000000000011 Q37.800000000000011 60.500000000000000 36.300000000000011 60.500000000000000 Q30.899999999999977 60.500000000000000 29.399999999999977 53.100000000000023 C29.033333333333303 51.466666666666697 28.574999999999989 49.425000000000011 28.300000000000011 48.199999999999989 C31.175000000000011 48.199999999999989 36.925000000000011 48.199999999999989 39.800000000000011 48.199999999999989 C39.149999999999977 45.175000000000011 37.850000000000023 39.125000000000000 37.199999999999989 36.100000000000023 C34.350000000000023 36.100000000000023 28.649999999999977 36.100000000000023 25.800000000000011 36.100000000000023 C22.750000000000000 21.750000000000000 16.649999999999977 -6.949999999999989 13.600000000000023 -21.300000000000011 C9.600000000000023 -21.300000000000011 1.600000000000023 -21.300000000000011 -2.399999999999977 -21.300000000000011 C0.649999999999977 -6.949999999999989 6.750000000000000 21.750000000000000 9.800000000000011 36.100000000000023 z" />
<glyph unicode="g" horiz-adv-x="61.799999999999997" d="M16.000000000000000 -22.300000000000001 Q7.899999999999977 -22.300000000000011 2.699999999999989 -19.600000000000023 Q-2.500000000000000 -16.899999999999977 -5.699999999999989 -11.800000000000011 C-2.233333333333348 -8.899999999999977 2.100000000000023 -5.274999999999977 4.699999999999989 -3.100000000000023 Q6.699999999999989 -6.399999999999977 10.350000000000023 -8.350000000000023 Q14.000000000000000 -10.300000000000011 18.500000000000000 -10.300000000000011 Q21.199999999999989 -10.300000000000011 23.800000000000011 -9.500000000000000 Q26.399999999999977 -8.699999999999989 28.600000000000023 -7.000000000000000 Q30.800000000000011 -5.399999999999977 32.399999999999977 -2.750000000000000 Q34.000000000000000 -0.100000000000023 34.800000000000011 3.600000000000023 C35.133333333333326 5.300000000000011 35.550000000000011 7.425000000000011 35.800000000000011 8.699999999999989 Q32.699999999999989 4.300000000000011 27.949999999999989 2.050000000000011 Q23.199999999999989 -0.199999999999989 18.300000000000011 -0.199999999999989 Q14.199999999999989 -0.199999999999989 11.050000000000011 1.399999999999977 Q7.899999999999977 3.000000000000000 5.699999999999989 5.800000000000011 Q3.500000000000000 8.600000000000023 2.350000000000023 12.350000000000023 Q1.199999999999989 16.100000000000023 1.199999999999989 20.500000000000000 Q1.199999999999989 27.199999999999989 3.600000000000023 33.199999999999989 Q6.000000000000000 39.199999999999989 10.100000000000023 43.699999999999989 Q14.199999999999989 48.199999999999989 19.600000000000023 50.850000000000023 Q25.000000000000000 53.500000000000000 31.000000000000000 53.500000000000000 Q36.500000000000000 53.500000000000000 40.149999999999977 50.949999999999989 Q43.799999999999955 48.399999999999977 45.399999999999977 43.899999999999977 C46.033333333333303 46.766666666666652 46.825000000000045 50.350000000000023 47.299999999999955 52.500000000000000 C50.774999999999977 52.500000000000000 57.725000000000023 52.500000000000000 61.200000000000045 52.500000000000000 C58.600000000000023 40.274999999999977 53.399999999999977 15.824999999999989 50.799999999999955 3.600000000000023 Q49.500000000000000 -2.399999999999977 46.350000000000023 -7.199999999999989 Q43.200000000000045 -12.000000000000000 38.600000000000023 -15.300000000000011 Q34.100000000000023 -18.699999999999989 28.300000000000011 -20.500000000000000 Q22.500000000000000 -22.300000000000011 16.000000000000000 -22.300000000000011 zM26.699999999999999 12.500000000000000 Q29.899999999999977 12.500000000000000 32.899999999999977 14.550000000000011 Q35.899999999999977 16.600000000000023 38.199999999999989 19.800000000000011 C39.000000000000000 23.466666666666697 40.000000000000000 28.050000000000011 40.600000000000023 30.800000000000011 Q40.000000000000000 35.000000000000000 37.500000000000000 37.449999999999989 Q35.000000000000000 39.899999999999977 31.800000000000011 39.899999999999977 Q29.100000000000023 39.899999999999977 26.550000000000011 38.399999999999977 Q24.000000000000000 36.899999999999977 22.100000000000023 34.500000000000000 Q20.199999999999989 32.100000000000023 19.050000000000011 29.050000000000011 Q17.899999999999977 26.000000000000000 17.899999999999977 22.899999999999977 Q17.899999999999977 18.399999999999977 20.250000000000000 15.449999999999989 Q22.600000000000023 12.500000000000000 26.699999999999989 12.500000000000000 z" />
<glyph unicode="h" horiz-adv-x="59.100000000000001" d="M14.500000000000000 73.000000000000000 C18.500000000000000 73.000000000000000 26.500000000000000 73.000000000000000 30.500000000000000 73.000000000000000 C28.949999999999989 65.675000000000011 25.850000000000023 51.024999999999977 24.300000000000011 43.699999999999989 Q28.000000000000000 48.399999999999977 33.000000000000000 50.949999999999989 Q38.000000000000000 53.500000000000000 43.500000000000000 53.500000000000000 Q47.100000000000023 53.500000000000000 49.450000000000045 52.500000000000000 Q51.799999999999955 51.500000000000000 53.200000000000045 49.800000000000011 Q54.700000000000045 48.199999999999989 55.250000000000000 46.000000000000000 Q55.799999999999955 43.800000000000011 55.799999999999955 41.399999999999977 Q55.799999999999955 39.500000000000000 55.549999999999955 37.550000000000011 Q55.299999999999955 35.600000000000023 54.899999999999977 33.600000000000023 C52.533333333333303 22.399999999999977 49.575000000000045 8.399999999999977 47.799999999999955 0.000000000000000 C43.799999999999955 0.000000000000000 35.800000000000011 0.000000000000000 31.800000000000011 0.000000000000000 C33.375000000000000 7.375000000000000 36.524999999999977 22.125000000000000 38.100000000000023 29.500000000000000 Q38.300000000000011 30.600000000000023 38.399999999999977 31.550000000000011 Q38.500000000000000 32.500000000000000 38.500000000000000 33.399999999999977 Q38.500000000000000 36.500000000000000 37.100000000000023 37.949999999999989 Q35.699999999999989 39.399999999999977 33.300000000000011 39.399999999999977 Q32.100000000000023 39.399999999999977 30.500000000000000 38.750000000000000 Q28.899999999999977 38.100000000000023 27.199999999999989 36.800000000000011 Q25.600000000000023 35.600000000000023 24.050000000000011 33.899999999999977 Q22.500000000000000 32.199999999999989 21.399999999999977 30.100000000000023 C19.266666666666652 20.066666666666663 16.600000000000023 7.524999999999977 15.000000000000000 0.000000000000000 C11.000000000000000 0.000000000000000 3.000000000000000 0.000000000000000 -1.000000000000000 0.000000000000000 C2.875000000000000 18.250000000000000 10.625000000000000 54.750000000000000 14.500000000000000 73.000000000000000 z" />
<glyph unicode="i" horiz-adv-x="26.800000000000001" d="M10.199999999999999 52.500000000000000 C14.199999999999989 52.500000000000000 22.199999999999989 52.500000000000000 26.199999999999989 52.500000000000000 C23.399999999999977 39.375000000000000 17.800000000000011 13.125000000000000 15.000000000000000 0.000000000000000 C11.000000000000000 0.000000000000000 3.000000000000000 0.000000000000000 -1.000000000000000 0.000000000000000 C1.800000000000011 13.125000000000000 7.399999999999977 39.375000000000000 10.199999999999989 52.500000000000000 zM14.500000000000000 73.000000000000000 C18.500000000000000 73.000000000000000 26.500000000000000 73.000000000000000 30.500000000000000 73.000000000000000 C29.725000000000023 69.375000000000000 28.175000000000011 62.125000000000000 27.399999999999977 58.500000000000000 C23.399999999999977 58.500000000000000 15.399999999999977 58.500000000000000 11.399999999999977 58.500000000000000 C12.175000000000011 62.125000000000000 13.725000000000023 69.375000000000000 14.500000000000000 73.000000000000000 z" />
<glyph unicode="j" horiz-adv-x="27.300000000000001" d="M-7.500000000000000 -20.199999999999999 Q-11.300000000000011 -20.199999999999989 -14.500000000000000 -18.949999999999989 Q-17.699999999999989 -17.699999999999989 -20.000000000000000 -15.199999999999989 C-17.000000000000000 -11.566666666666663 -13.250000000000000 -7.024999999999977 -11.000000000000000 -4.300000000000011 Q-10.300000000000011 -5.399999999999977 -9.149999999999977 -5.899999999999977 Q-8.000000000000000 -6.399999999999977 -6.600000000000023 -6.399999999999977 Q-4.600000000000023 -6.399999999999977 -2.899999999999977 -4.949999999999989 Q-1.199999999999989 -3.500000000000000 -0.699999999999989 -0.899999999999977 C3.066666666666663 16.899999999999977 7.774999999999977 39.149999999999977 10.600000000000023 52.500000000000000 C14.600000000000023 52.500000000000000 22.600000000000023 52.500000000000000 26.600000000000023 52.500000000000000 C23.850000000000023 39.449999999999989 18.350000000000023 13.350000000000023 15.600000000000023 0.300000000000011 Q14.600000000000023 -4.199999999999989 12.399999999999977 -8.000000000000000 Q10.199999999999989 -11.800000000000011 7.100000000000023 -14.500000000000000 Q4.000000000000000 -17.199999999999989 0.250000000000000 -18.699999999999989 Q-3.500000000000000 -20.199999999999989 -7.500000000000000 -20.199999999999989 zM15.000000000000000 73.000000000000000 C19.000000000000000 73.000000000000000 27.000000000000000 73.000000000000000 31.000000000000000 73.000000000000000 C30.225000000000023 69.375000000000000 28.675000000000011 62.125000000000000 27.899999999999977 58.500000000000000 C23.899999999999977 58.500000000000000 15.899999999999977 58.500000000000000 11.899999999999977 58.500000000000000 C12.675000000000011 62.125000000000000 14.225000000000023 69.375000000000000 15.000000000000000 73.000000000000000 z" />
<glyph unicode="k" horiz-adv-x="57" d="M14.500000000000000 73.000000000000000 C18.475000000000023 73.000000000000000 26.425000000000011 73.000000000000000 30.399999999999977 73.000000000000000 C28.625000000000000 64.599999999999994 25.074999999999989 47.800000000000011 23.300000000000011 39.399999999999977 Q27.300000000000011 45.800000000000011 32.449999999999989 49.449999999999989 Q37.600000000000023 53.100000000000023 43.600000000000023 53.100000000000023 Q49.100000000000023 53.100000000000023 51.950000000000045 50.000000000000000 Q54.799999999999955 46.899999999999977 54.799999999999955 41.300000000000011 Q54.799999999999955 34.699999999999989 51.149999999999977 29.100000000000023 Q47.500000000000000 23.500000000000000 40.600000000000023 19.800000000000011 C43.566666666666606 13.199999999999989 47.274999999999977 4.949999999999989 49.500000000000000 0.000000000000000 C45.250000000000000 0.000000000000000 36.750000000000000 0.000000000000000 32.500000000000000 0.000000000000000 C30.300000000000011 5.675000000000011 25.899999999999977 17.024999999999977 23.699999999999989 22.699999999999989 Q31.600000000000023 24.199999999999989 36.000000000000000 27.550000000000011 Q40.399999999999977 30.899999999999977 40.399999999999977 35.000000000000000 Q40.399999999999977 37.199999999999989 39.199999999999989 38.350000000000023 Q38.000000000000000 39.500000000000000 36.000000000000000 39.500000000000000 Q33.899999999999977 39.500000000000000 31.600000000000023 38.250000000000000 Q29.300000000000011 37.000000000000000 27.100000000000023 34.899999999999977 Q24.899999999999977 32.800000000000011 23.050000000000011 29.949999999999989 Q21.199999999999989 27.100000000000023 20.000000000000000 23.899999999999977 C18.300000000000011 15.933333333333337 16.175000000000011 5.975000000000023 14.899999999999977 0.000000000000000 C10.925000000000011 0.000000000000000 2.975000000000023 0.000000000000000 -1.000000000000000 0.000000000000000 C2.875000000000000 18.250000000000000 10.625000000000000 54.750000000000000 14.500000000000000 73.000000000000000 z" />
<glyph unicode="l" horiz-adv-x="32.600000000000001" d="M12.600000000000000 -0.900000000000000 Q6.899999999999977 -0.899999999999977 4.000000000000000 1.600000000000023 Q1.100000000000023 4.100000000000023 1.100000000000023 8.899999999999977 Q1.100000000000023 9.899999999999977 1.250000000000000 10.899999999999977 Q1.399999999999977 11.899999999999977 1.600000000000023 13.100000000000023 C5.833333333333314 33.066666666666663 11.125000000000000 58.024999999999977 14.300000000000011 73.000000000000000 C18.300000000000011 73.000000000000000 26.300000000000011 73.000000000000000 30.300000000000011 73.000000000000000 C27.399999999999977 59.425000000000011 21.600000000000023 32.274999999999977 18.699999999999989 18.699999999999989 Q18.600000000000023 18.199999999999989 18.550000000000011 17.649999999999977 Q18.500000000000000 17.100000000000023 18.500000000000000 16.600000000000023 Q18.500000000000000 12.699999999999989 22.300000000000011 12.699999999999989 Q23.399999999999977 12.699999999999989 24.850000000000023 13.050000000000011 Q26.300000000000011 13.399999999999977 27.600000000000023 14.100000000000023 C27.433333333333337 10.100000000000023 27.225000000000023 5.100000000000023 27.100000000000023 2.100000000000023 Q23.899999999999977 0.699999999999989 19.899999999999977 -0.100000000000023 Q15.899999999999977 -0.899999999999977 12.600000000000023 -0.899999999999977 z" />
<glyph unicode="m" horiz-adv-x="89.700000000000003" d="M10.199999999999999 52.500000000000000 C13.800000000000011 52.500000000000000 21.000000000000000 52.500000000000000 24.600000000000023 52.500000000000000 C24.125000000000000 50.300000000000011 23.175000000000011 45.899999999999977 22.699999999999989 43.699999999999989 Q26.300000000000011 48.399999999999977 31.699999999999989 50.949999999999989 Q37.100000000000023 53.500000000000000 42.800000000000011 53.500000000000000 Q46.000000000000000 53.500000000000000 48.200000000000045 52.699999999999989 Q50.399999999999977 51.899999999999977 51.799999999999955 50.500000000000000 Q53.200000000000045 49.199999999999989 53.850000000000023 47.350000000000023 Q54.500000000000000 45.500000000000000 54.700000000000045 43.300000000000011 Q58.600000000000023 48.199999999999989 63.799999999999955 50.850000000000023 Q69.000000000000000 53.500000000000000 74.700000000000045 53.500000000000000 Q78.100000000000023 53.500000000000000 80.399999999999977 52.500000000000000 Q82.700000000000045 51.500000000000000 84.000000000000000 49.800000000000011 Q85.399999999999977 48.199999999999989 85.950000000000045 46.050000000000011 Q86.500000000000000 43.899999999999977 86.500000000000000 41.500000000000000 Q86.500000000000000 40.300000000000011 86.299999999999955 38.350000000000023 Q86.100000000000023 36.399999999999977 85.500000000000000 33.600000000000023 C83.100000000000023 22.399999999999977 80.100000000000023 8.399999999999977 78.299999999999955 0.000000000000000 C74.299999999999955 0.000000000000000 66.299999999999955 0.000000000000000 62.299999999999955 0.000000000000000 C63.875000000000000 7.375000000000000 67.024999999999977 22.125000000000000 68.600000000000023 29.500000000000000 Q68.799999999999955 30.699999999999989 68.950000000000045 31.750000000000000 Q69.100000000000023 32.800000000000011 69.100000000000023 33.699999999999989 Q69.100000000000023 36.600000000000023 67.899999999999977 38.000000000000000 Q66.700000000000045 39.399999999999977 64.700000000000045 39.399999999999977 Q63.200000000000045 39.399999999999977 61.600000000000023 38.699999999999989 Q60.000000000000000 38.000000000000000 58.399999999999977 36.699999999999989 Q56.899999999999977 35.500000000000000 55.450000000000045 33.800000000000011 Q54.000000000000000 32.100000000000023 53.000000000000000 30.100000000000023 C50.899999999999977 20.066666666666663 48.274999999999977 7.524999999999977 46.700000000000045 0.000000000000000 C42.699999999999989 0.000000000000000 34.699999999999989 0.000000000000000 30.699999999999989 0.000000000000000 C32.274999999999977 7.375000000000000 35.425000000000011 22.125000000000000 37.000000000000000 29.500000000000000 Q37.199999999999989 30.699999999999989 37.350000000000023 31.750000000000000 Q37.500000000000000 32.800000000000011 37.500000000000000 33.699999999999989 Q37.500000000000000 36.600000000000023 36.250000000000000 38.000000000000000 Q35.000000000000000 39.399999999999977 33.000000000000000 39.399999999999977 Q30.100000000000023 39.399999999999977 26.800000000000011 36.750000000000000 Q23.500000000000000 34.100000000000023 21.399999999999977 30.100000000000023 C19.266666666666652 20.066666666666663 16.600000000000023 7.524999999999977 15.000000000000000 0.000000000000000 C11.000000000000000 0.000000000000000 3.000000000000000 0.000000000000000 -1.000000000000000 0.000000000000000 C1.800000000000011 13.125000000000000 7.399999999999977 39.375000000000000 10.199999999999989 52.500000000000000 z" />
<glyph unicode="n" horiz-adv-x="59.100000000000001" d="M10.199999999999999 52.500000000000000 C13.800000000000011 52.500000000000000 21.000000000000000 52.500000000000000 24.600000000000023 52.500000000000000 C24.125000000000000 50.300000000000011 23.175000000000011 45.899999999999977 22.699999999999989 43.699999999999989 Q26.399999999999977 48.399999999999977 31.899999999999977 50.949999999999989 Q37.399999999999977 53.500000000000000 44.000000000000000 53.500000000000000 Q47.500000000000000 53.500000000000000 49.750000000000000 52.500000000000000 Q52.000000000000000 51.500000000000000 53.299999999999955 49.800000000000011 Q54.700000000000045 48.199999999999989 55.250000000000000 46.000000000000000 Q55.799999999999955 43.800000000000011 55.799999999999955 41.399999999999977 Q55.799999999999955 39.399999999999977 55.549999999999955 37.449999999999989 Q55.299999999999955 35.500000000000000 54.899999999999977 33.600000000000023 C52.533333333333303 22.399999999999977 49.575000000000045 8.399999999999977 47.799999999999955 0.000000000000000 C43.799999999999955 0.000000000000000 35.800000000000011 0.000000000000000 31.800000000000011 0.000000000000000 C33.375000000000000 7.375000000000000 36.524999999999977 22.125000000000000 38.100000000000023 29.500000000000000 Q38.500000000000000 31.500000000000000 38.500000000000000 33.500000000000000 Q38.500000000000000 36.600000000000023 37.199999999999989 38.000000000000000 Q35.899999999999977 39.399999999999977 33.699999999999989 39.399999999999977 Q30.800000000000011 39.399999999999977 27.199999999999989 36.800000000000011 Q23.600000000000023 34.199999999999989 21.399999999999977 30.100000000000023 C19.266666666666652 20.066666666666663 16.600000000000023 7.524999999999977 15.000000000000000 0.000000000000000 C11.000000000000000 0.000000000000000 3.000000000000000 0.000000000000000 -1.000000000000000 0.000000000000000 C1.800000000000011 13.125000000000000 7.399999999999977 39.375000000000000 10.199999999999989 52.500000000000000 z" />
<glyph unicode="o" horiz-adv-x="59.100000000000001" d="M22.899999999999999 -1.000000000000000 Q17.399999999999977 -1.000000000000000 13.300000000000011 0.750000000000000 Q9.199999999999989 2.500000000000000 6.500000000000000 5.500000000000000 Q3.800000000000011 8.500000000000000 2.449999999999989 12.449999999999989 Q1.100000000000023 16.399999999999977 1.100000000000023 20.899999999999977 Q1.100000000000023 27.100000000000023 3.500000000000000 32.949999999999989 Q5.899999999999977 38.800000000000011 10.300000000000011 43.399999999999977 Q14.699999999999989 48.000000000000000 20.850000000000023 50.750000000000000 Q27.000000000000000 53.500000000000000 34.500000000000000 53.500000000000000 Q39.899999999999977 53.500000000000000 44.000000000000000 51.750000000000000 Q48.100000000000023 50.000000000000000 50.799999999999955 47.000000000000000 Q53.600000000000023 44.000000000000000 54.950000000000045 40.050000000000011 Q56.299999999999955 36.100000000000023 56.299999999999955 31.600000000000023 Q56.299999999999955 25.399999999999977 53.899999999999977 19.550000000000011 Q51.500000000000000 13.699999999999989 47.100000000000023 9.100000000000023 Q42.699999999999989 4.600000000000023 36.550000000000011 1.800000000000011 Q30.399999999999977 -1.000000000000000 22.899999999999977 -1.000000000000000 zM25.800000000000001 12.500000000000000 Q28.500000000000000 12.500000000000000 31.000000000000000 13.800000000000011 Q33.500000000000000 15.100000000000023 35.399999999999977 17.399999999999977 Q37.300000000000011 19.800000000000011 38.449999999999989 22.899999999999977 Q39.600000000000023 26.000000000000000 39.600000000000023 29.600000000000023 Q39.600000000000023 34.300000000000011 37.449999999999989 37.100000000000023 Q35.300000000000011 39.899999999999977 31.600000000000023 39.899999999999977 Q28.899999999999977 39.899999999999977 26.399999999999977 38.600000000000023 Q23.899999999999977 37.300000000000011 22.000000000000000 34.899999999999977 Q20.100000000000023 32.600000000000023 18.949999999999989 29.500000000000000 Q17.800000000000011 26.399999999999977 17.800000000000011 22.800000000000011 Q17.800000000000011 18.100000000000023 19.949999999999989 15.300000000000011 Q22.100000000000023 12.500000000000000 25.800000000000011 12.500000000000000 z" />
<glyph unicode="p" horiz-adv-x="61.799999999999997" d="M10.100000000000000 52.500000000000000 C13.600000000000023 52.500000000000000 20.600000000000023 52.500000000000000 24.100000000000023 52.500000000000000 C23.625000000000000 50.375000000000000 22.675000000000011 46.125000000000000 22.199999999999989 44.000000000000000 Q25.899999999999977 48.500000000000000 30.500000000000000 51.000000000000000 Q35.100000000000023 53.500000000000000 40.800000000000011 53.500000000000000 Q45.000000000000000 53.500000000000000 48.399999999999977 51.850000000000023 Q51.799999999999955 50.199999999999989 54.100000000000023 47.300000000000011 Q56.500000000000000 44.500000000000000 57.750000000000000 40.550000000000011 Q59.000000000000000 36.600000000000023 59.000000000000000 32.100000000000023 Q59.000000000000000 25.500000000000000 56.700000000000045 19.500000000000000 Q54.399999999999977 13.500000000000000 50.500000000000000 8.899999999999977 Q46.600000000000023 4.399999999999977 41.500000000000000 1.699999999999989 Q36.399999999999977 -1.000000000000000 30.899999999999977 -1.000000000000000 Q25.300000000000011 -1.000000000000000 21.699999999999989 1.500000000000000 Q18.100000000000023 4.000000000000000 16.800000000000011 8.500000000000000 C14.666666666666686 -1.433333333333337 12.000000000000000 -13.850000000000023 10.399999999999977 -21.300000000000011 C6.399999999999977 -21.300000000000011 -1.600000000000023 -21.300000000000011 -5.600000000000023 -21.300000000000011 C-1.675000000000011 -2.850000000000023 6.175000000000011 34.050000000000011 10.100000000000023 52.500000000000000 zM28.300000000000001 12.500000000000000 Q31.000000000000000 12.500000000000000 33.500000000000000 13.949999999999989 Q36.000000000000000 15.399999999999977 37.899999999999977 17.800000000000011 Q39.899999999999977 20.199999999999989 41.100000000000023 23.250000000000000 Q42.300000000000011 26.300000000000011 42.300000000000011 29.500000000000000 Q42.300000000000011 34.000000000000000 39.899999999999977 36.949999999999989 Q37.500000000000000 39.899999999999977 33.300000000000011 39.899999999999977 Q30.399999999999977 39.899999999999977 27.300000000000011 37.949999999999989 Q24.199999999999989 36.000000000000000 21.899999999999977 32.699999999999989 C21.133333333333326 29.100000000000023 20.175000000000011 24.600000000000023 19.600000000000023 21.899999999999977 Q20.300000000000011 17.899999999999977 22.649999999999977 15.199999999999989 Q25.000000000000000 12.500000000000000 28.300000000000011 12.500000000000000 z" />
<glyph unicode="q" horiz-adv-x="61.799999999999997" d="M17.600000000000001 -1.000000000000000 Q13.699999999999989 -1.000000000000000 10.649999999999977 0.600000000000023 Q7.600000000000023 2.199999999999989 5.500000000000000 5.000000000000000 Q3.399999999999977 7.899999999999977 2.250000000000000 11.750000000000000 Q1.100000000000023 15.600000000000023 1.100000000000023 20.100000000000023 Q1.100000000000023 27.000000000000000 3.600000000000023 33.100000000000023 Q6.100000000000023 39.199999999999989 10.199999999999989 43.699999999999989 Q14.300000000000011 48.199999999999989 19.699999999999989 50.850000000000023 Q25.100000000000023 53.500000000000000 30.899999999999977 53.500000000000000 Q36.600000000000023 53.500000000000000 40.149999999999977 50.899999999999977 Q43.700000000000045 48.300000000000011 45.399999999999977 43.899999999999977 C46.000000000000000 46.766666666666652 46.750000000000000 50.350000000000023 47.200000000000045 52.500000000000000 C50.700000000000045 52.500000000000000 57.700000000000045 52.500000000000000 61.200000000000045 52.500000000000000 C58.274999999999977 38.750000000000000 52.424999999999955 11.250000000000000 49.500000000000000 -2.500000000000000 Q49.200000000000045 -3.600000000000023 49.200000000000045 -4.300000000000011 Q49.200000000000045 -6.800000000000011 52.600000000000023 -6.899999999999977 C51.633333333333326 -11.433333333333337 50.424999999999955 -17.100000000000023 49.700000000000045 -20.500000000000000 Q47.500000000000000 -20.899999999999977 45.100000000000023 -21.100000000000023 Q42.699999999999989 -21.300000000000011 40.899999999999977 -21.300000000000011 Q36.699999999999989 -21.300000000000011 34.050000000000011 -19.149999999999977 Q31.399999999999977 -17.000000000000000 31.399999999999977 -13.199999999999989 Q31.399999999999977 -12.100000000000023 31.699999999999989 -11.000000000000000 C33.066666666666663 -4.500000000000000 34.774999999999977 3.625000000000000 35.800000000000011 8.500000000000000 Q32.399999999999977 3.800000000000011 27.750000000000000 1.399999999999977 Q23.100000000000023 -1.000000000000000 17.600000000000023 -1.000000000000000 zM26.699999999999999 12.500000000000000 Q29.800000000000011 12.500000000000000 32.699999999999989 14.449999999999989 Q35.600000000000023 16.399999999999977 38.199999999999989 19.600000000000023 C39.000000000000000 23.300000000000011 40.000000000000000 27.925000000000011 40.600000000000023 30.699999999999989 Q40.100000000000023 34.600000000000023 37.649999999999977 37.250000000000000 Q35.199999999999989 39.899999999999977 31.899999999999977 39.899999999999977 Q29.199999999999989 39.899999999999977 26.649999999999977 38.449999999999989 Q24.100000000000023 37.000000000000000 22.100000000000023 34.600000000000023 Q20.199999999999989 32.300000000000011 19.000000000000000 29.250000000000000 Q17.800000000000011 26.199999999999989 17.800000000000011 22.899999999999977 Q17.800000000000011 18.399999999999977 20.149999999999977 15.449999999999989 Q22.500000000000000 12.500000000000000 26.699999999999989 12.500000000000000 z" />
<glyph unicode="r" horiz-adv-x="39.200000000000003" d="M10.199999999999999 52.500000000000000 C13.875000000000000 52.500000000000000 21.225000000000023 52.500000000000000 24.899999999999977 52.500000000000000 C24.324999999999989 49.850000000000023 23.175000000000011 44.550000000000011 22.600000000000023 41.899999999999977 Q26.399999999999977 47.199999999999989 31.050000000000011 50.199999999999989 Q35.699999999999989 53.199999999999989 40.199999999999989 53.199999999999989 Q42.100000000000023 53.199999999999989 42.500000000000000 53.100000000000023 C41.500000000000000 48.333333333333314 40.250000000000000 42.375000000000000 39.500000000000000 38.800000000000011 Q34.100000000000023 38.699999999999989 29.350000000000023 36.899999999999977 Q24.600000000000023 35.100000000000023 21.699999999999989 31.500000000000000 C19.466666666666640 21.000000000000000 16.675000000000011 7.875000000000000 15.000000000000000 0.000000000000000 C11.000000000000000 0.000000000000000 3.000000000000000 0.000000000000000 -1.000000000000000 0.000000000000000 C1.800000000000011 13.125000000000000 7.399999999999977 39.375000000000000 10.199999999999989 52.500000000000000 z" />
<glyph unicode="s" horiz-adv-x="48.200000000000003" d="M18.699999999999999 -1.000000000000000 Q12.399999999999977 -1.000000000000000 6.649999999999977 1.149999999999977 Q0.899999999999977 3.300000000000011 -2.600000000000023 7.399999999999977 C-0.033333333333360 10.666666666666686 3.175000000000011 14.750000000000000 5.100000000000023 17.199999999999989 Q8.899999999999977 13.899999999999977 12.899999999999977 12.100000000000023 Q16.899999999999977 10.300000000000011 20.800000000000011 10.300000000000011 Q24.000000000000000 10.300000000000011 25.600000000000023 11.649999999999977 Q27.199999999999989 13.000000000000000 27.199999999999989 15.300000000000011 Q27.199999999999989 17.000000000000000 25.550000000000011 18.149999999999977 Q23.899999999999977 19.300000000000011 19.800000000000011 20.600000000000023 Q15.699999999999989 21.899999999999977 12.750000000000000 23.149999999999977 Q9.800000000000011 24.399999999999977 7.899999999999977 25.800000000000011 Q6.000000000000000 27.300000000000011 5.100000000000023 29.050000000000011 Q4.199999999999989 30.800000000000011 4.199999999999989 33.100000000000023 Q4.199999999999989 37.500000000000000 6.149999999999977 41.250000000000000 Q8.100000000000023 45.000000000000000 11.399999999999977 47.699999999999989 Q14.699999999999989 50.399999999999977 19.100000000000023 51.949999999999989 Q23.500000000000000 53.500000000000000 28.500000000000000 53.500000000000000 Q34.100000000000023 53.500000000000000 38.649999999999977 51.899999999999977 Q43.200000000000045 50.300000000000011 47.000000000000000 46.100000000000023 C44.266666666666652 42.899999999999977 40.850000000000023 38.899999999999977 38.800000000000011 36.500000000000000 Q35.100000000000023 39.600000000000023 32.100000000000023 41.000000000000000 Q29.100000000000023 42.399999999999977 26.100000000000023 42.399999999999977 Q23.399999999999977 42.399999999999977 21.600000000000023 41.100000000000023 Q19.800000000000011 39.800000000000011 19.800000000000011 37.199999999999989 Q19.800000000000011 35.500000000000000 21.500000000000000 34.449999999999989 Q23.199999999999989 33.399999999999977 27.100000000000023 32.300000000000011 Q35.699999999999989 29.800000000000011 39.500000000000000 26.899999999999977 Q43.299999999999955 24.000000000000000 43.299999999999955 19.000000000000000 Q43.299999999999955 14.600000000000023 41.500000000000000 10.899999999999977 Q39.699999999999989 7.199999999999989 36.399999999999977 4.500000000000000 Q33.199999999999989 1.899999999999977 28.699999999999989 0.449999999999989 Q24.199999999999989 -1.000000000000000 18.699999999999989 -1.000000000000000 z" />
<glyph unicode="t" horiz-adv-x="39.200000000000003" d="M16.300000000000001 -1.000000000000000 Q11.199999999999989 -1.000000000000000 7.899999999999977 1.250000000000000 Q4.600000000000023 3.500000000000000 4.600000000000023 8.899999999999977 Q4.600000000000023 11.000000000000000 5.000000000000000 13.000000000000000 C6.933333333333337 22.133333333333326 9.350000000000023 33.550000000000011 10.800000000000011 40.399999999999977 C9.225000000000023 40.399999999999977 6.074999999999989 40.399999999999977 4.500000000000000 40.399999999999977 C5.175000000000011 43.425000000000011 6.524999999999977 49.475000000000023 7.199999999999989 52.500000000000000 C8.750000000000000 52.500000000000000 11.850000000000023 52.500000000000000 13.399999999999977 52.500000000000000 C14.300000000000011 56.675000000000011 16.100000000000023 65.025000000000006 17.000000000000000 69.199999999999989 C21.000000000000000 69.199999999999989 29.000000000000000 69.199999999999989 33.000000000000000 69.199999999999989 C32.100000000000023 65.025000000000006 30.300000000000011 56.675000000000011 29.399999999999977 52.500000000000000 C31.925000000000011 52.500000000000000 36.975000000000023 52.500000000000000 39.500000000000000 52.500000000000000 C38.850000000000023 49.475000000000023 37.550000000000011 43.425000000000011 36.899999999999977 40.399999999999977 C34.375000000000000 40.399999999999977 29.324999999999989 40.399999999999977 26.800000000000011 40.399999999999977 C25.649999999999977 34.925000000000011 23.350000000000023 23.975000000000023 22.199999999999989 18.500000000000000 Q22.100000000000023 18.000000000000000 22.050000000000011 17.600000000000023 Q22.000000000000000 17.199999999999989 22.000000000000000 16.800000000000011 Q22.000000000000000 15.100000000000023 22.949999999999989 14.350000000000023 Q23.899999999999977 13.600000000000023 25.399999999999977 13.600000000000023 Q27.000000000000000 13.600000000000023 29.000000000000000 14.199999999999989 Q31.000000000000000 14.800000000000011 32.699999999999989 15.500000000000000 C32.699999999999989 11.266666666666652 32.699999999999989 5.975000000000023 32.699999999999989 2.800000000000011 Q29.100000000000023 1.199999999999989 24.800000000000011 0.100000000000023 Q20.500000000000000 -1.000000000000000 16.300000000000011 -1.000000000000000 z" />
<glyph unicode="u" horiz-adv-x="60.600000000000001" d="M13.900000000000000 -1.000000000000000 Q7.800000000000011 -1.000000000000000 4.699999999999989 2.199999999999989 Q1.600000000000023 5.399999999999977 1.600000000000023 11.600000000000023 Q1.600000000000023 14.800000000000011 2.500000000000000 18.899999999999977 C4.899999999999977 30.100000000000023 7.899999999999977 44.100000000000023 9.699999999999989 52.500000000000000 C13.675000000000011 52.500000000000000 21.625000000000000 52.500000000000000 25.600000000000023 52.500000000000000 C24.000000000000000 44.975000000000023 20.800000000000011 29.925000000000011 19.199999999999989 22.399999999999977 Q18.699999999999989 19.899999999999977 18.699999999999989 18.500000000000000 Q18.699999999999989 12.500000000000000 23.699999999999989 12.500000000000000 Q26.399999999999977 12.500000000000000 29.449999999999989 14.199999999999989 Q32.500000000000000 15.899999999999977 35.600000000000023 20.100000000000023 C37.899999999999977 30.899999999999977 40.774999999999977 44.399999999999977 42.500000000000000 52.500000000000000 C46.500000000000000 52.500000000000000 54.500000000000000 52.500000000000000 58.500000000000000 52.500000000000000 C56.674999999999955 43.875000000000000 53.024999999999977 26.625000000000000 51.200000000000045 18.000000000000000 Q50.899999999999977 16.600000000000023 50.899999999999977 15.899999999999977 Q50.899999999999977 13.600000000000023 53.500000000000000 13.500000000000000 C52.533333333333303 9.000000000000000 51.325000000000045 3.375000000000000 50.600000000000023 0.000000000000000 Q48.399999999999977 -0.500000000000000 46.750000000000000 -0.649999999999977 Q45.100000000000023 -0.800000000000011 43.799999999999955 -0.800000000000011 Q40.000000000000000 -0.800000000000011 37.600000000000023 0.699999999999989 Q35.199999999999989 2.199999999999989 35.199999999999989 5.600000000000023 Q35.199999999999989 6.199999999999989 35.350000000000023 6.949999999999989 Q35.500000000000000 7.699999999999989 35.699999999999989 9.100000000000023 Q31.199999999999989 3.899999999999977 25.699999999999989 1.449999999999989 Q20.199999999999989 -1.000000000000000 13.899999999999977 -1.000000000000000 z" />
<glyph unicode="v" horiz-adv-x="53.600000000000001" d="M4.700000000000000 52.500000000000000 C8.850000000000023 52.500000000000000 17.149999999999977 52.500000000000000 21.300000000000011 52.500000000000000 C21.725000000000023 42.574999999999989 22.574999999999989 22.725000000000023 23.000000000000000 12.800000000000011 Q26.300000000000011 18.300000000000011 28.949999999999989 23.149999999999977 Q31.600000000000023 28.000000000000000 33.699999999999989 32.600000000000023 Q35.899999999999977 37.300000000000011 37.699999999999989 42.100000000000023 Q39.500000000000000 46.899999999999977 41.300000000000011 52.500000000000000 C46.133333333333326 52.500000000000000 52.174999999999955 52.500000000000000 55.799999999999955 52.500000000000000 Q52.200000000000045 39.399999999999977 44.950000000000045 26.250000000000000 Q37.699999999999989 13.100000000000023 27.500000000000000 0.000000000000000 C21.966666666666640 0.000000000000000 15.050000000000011 0.000000000000000 10.899999999999977 0.000000000000000 C9.350000000000023 13.125000000000000 6.250000000000000 39.375000000000000 4.699999999999989 52.500000000000000 z" />
<glyph unicode="w" horiz-adv-x="80.200000000000003" d="M3.800000000000000 52.500000000000000 C7.649999999999977 52.500000000000000 15.350000000000023 52.500000000000000 19.199999999999989 52.500000000000000 C20.475000000000023 43.000000000000000 23.024999999999977 24.000000000000000 24.300000000000011 14.500000000000000 Q24.800000000000011 15.100000000000023 25.800000000000011 16.949999999999989 Q26.800000000000011 18.800000000000011 27.899999999999977 20.899999999999977 Q29.100000000000023 23.000000000000000 30.050000000000011 24.850000000000023 Q31.000000000000000 26.699999999999989 31.399999999999977 27.300000000000011 C37.066666666666663 27.333333333333314 44.149999999999977 27.375000000000000 48.399999999999977 27.399999999999977 C48.825000000000045 25.074999999999989 49.674999999999955 20.425000000000011 50.100000000000023 18.100000000000023 Q54.100000000000023 23.399999999999977 56.899999999999977 27.449999999999989 Q59.700000000000045 31.500000000000000 61.799999999999955 35.199999999999989 Q64.000000000000000 39.000000000000000 65.850000000000023 43.050000000000011 Q67.700000000000045 47.100000000000023 69.799999999999955 52.500000000000000 C74.633333333333326 52.500000000000000 80.674999999999955 52.500000000000000 84.299999999999955 52.500000000000000 Q79.399999999999977 39.399999999999977 70.950000000000045 26.250000000000000 Q62.500000000000000 13.100000000000023 51.000000000000000 0.000000000000000 C47.500000000000000 0.000000000000000 43.125000000000000 0.000000000000000 40.500000000000000 0.000000000000000 C39.875000000000000 4.600000000000023 38.625000000000000 13.800000000000011 38.000000000000000 18.399999999999977 Q37.699999999999989 18.000000000000000 36.899999999999977 16.600000000000023 Q36.100000000000023 15.199999999999989 35.000000000000000 13.300000000000011 Q34.000000000000000 11.399999999999977 32.750000000000000 9.199999999999989 Q31.500000000000000 7.000000000000000 30.399999999999977 5.100000000000023 Q29.300000000000011 3.199999999999989 28.500000000000000 1.750000000000000 Q27.699999999999989 0.300000000000011 27.399999999999977 0.000000000000000 C22.800000000000011 0.000000000000000 17.050000000000011 0.000000000000000 13.600000000000023 0.000000000000000 C11.149999999999977 13.125000000000000 6.250000000000000 39.375000000000000 3.800000000000011 52.500000000000000 z" />
<glyph unicode="x" horiz-adv-x="52.200000000000003" d="M16.600000000000001 26.199999999999999 C13.750000000000000 32.774999999999977 8.050000000000011 45.925000000000011 5.199999999999989 52.500000000000000 C9.250000000000000 52.500000000000000 17.350000000000023 52.500000000000000 21.399999999999977 52.500000000000000 C22.750000000000000 48.800000000000011 25.449999999999989 41.399999999999977 26.800000000000011 37.699999999999989 C26.925000000000011 37.225000000000023 27.175000000000011 36.274999999999977 27.300000000000011 35.800000000000011 C27.600000000000023 36.274999999999977 28.199999999999989 37.225000000000023 28.500000000000000 37.699999999999989 C31.500000000000000 41.399999999999977 37.500000000000000 48.800000000000011 40.500000000000000 52.500000000000000 C44.524999999999977 52.500000000000000 52.575000000000045 52.500000000000000 56.600000000000023 52.500000000000000 C50.924999999999955 45.925000000000011 39.574999999999989 32.774999999999977 33.899999999999977 26.199999999999989 C36.875000000000000 19.649999999999977 42.824999999999989 6.550000000000011 45.799999999999955 0.000000000000000 C41.725000000000023 0.000000000000000 33.574999999999989 0.000000000000000 29.500000000000000 0.000000000000000 C28.050000000000011 3.675000000000011 25.149999999999977 11.024999999999977 23.699999999999989 14.699999999999989 C23.574999999999989 15.175000000000011 23.324999999999989 16.125000000000000 23.199999999999989 16.600000000000023 C22.899999999999977 16.125000000000000 22.300000000000011 15.175000000000011 22.000000000000000 14.699999999999989 C19.000000000000000 11.024999999999977 13.000000000000000 3.675000000000011 10.000000000000000 0.000000000000000 C5.899999999999977 0.000000000000000 -2.300000000000011 0.000000000000000 -6.399999999999977 0.000000000000000 C-0.649999999999977 6.550000000000011 10.850000000000023 19.649999999999977 16.600000000000023 26.199999999999989 z" />
<glyph unicode="y" horiz-adv-x="53.100000000000001" d="M-5.000000000000000 -11.100000000000000 Q-2.000000000000000 -11.000000000000000 0.100000000000023 -10.649999999999977 Q2.199999999999989 -10.300000000000011 3.800000000000011 -9.600000000000023 Q5.399999999999977 -8.899999999999977 6.699999999999989 -7.750000000000000 Q8.000000000000000 -6.600000000000023 9.399999999999977 -4.800000000000011 C10.366666666666674 -3.566666666666663 11.574999999999989 -2.024999999999977 12.300000000000011 -1.100000000000023 C10.350000000000023 12.300000000000011 6.449999999999989 39.100000000000023 4.500000000000000 52.500000000000000 C8.574999999999989 52.500000000000000 16.725000000000023 52.500000000000000 20.800000000000011 52.500000000000000 C21.524999999999977 42.800000000000011 22.975000000000023 23.399999999999977 23.699999999999989 13.699999999999989 C24.550000000000011 15.100000000000023 26.250000000000000 17.899999999999977 27.100000000000023 19.300000000000011 Q32.199999999999989 27.500000000000000 35.300000000000011 35.449999999999989 Q38.399999999999977 43.399999999999977 40.399999999999977 52.500000000000000 C45.533333333333303 52.500000000000000 51.950000000000045 52.500000000000000 55.799999999999955 52.500000000000000 Q54.399999999999977 47.699999999999989 52.899999999999977 43.500000000000000 Q51.399999999999977 39.300000000000011 49.100000000000023 34.500000000000000 Q46.799999999999955 29.800000000000011 43.450000000000045 24.050000000000011 Q40.100000000000023 18.300000000000011 35.199999999999989 10.300000000000011 C32.533333333333303 6.000000000000000 29.199999999999989 0.625000000000000 27.199999999999989 -2.600000000000023 Q23.699999999999989 -8.300000000000011 20.300000000000011 -12.199999999999989 Q16.899999999999977 -16.100000000000023 13.300000000000011 -18.500000000000000 Q9.699999999999989 -20.899999999999977 5.699999999999989 -22.000000000000000 Q1.699999999999989 -23.100000000000023 -3.100000000000023 -23.100000000000023 C-3.733333333333348 -19.100000000000023 -4.524999999999977 -14.100000000000023 -5.000000000000000 -11.100000000000023 z" />
<glyph unicode="z" horiz-adv-x="47.100000000000001" d="M-1.900000000000000 9.600000000000000 C5.899999999999977 17.550000000000011 21.500000000000000 33.449999999999989 29.300000000000011 41.399999999999977 C23.500000000000000 41.399999999999977 11.899999999999977 41.399999999999977 6.100000000000023 41.399999999999977 C6.699999999999989 44.175000000000011 7.899999999999977 49.725000000000023 8.500000000000000 52.500000000000000 C18.524999999999977 52.500000000000000 38.574999999999989 52.500000000000000 48.600000000000023 52.500000000000000 C48.075000000000045 50.100000000000023 47.024999999999977 45.300000000000011 46.500000000000000 42.899999999999977 C38.699999999999989 34.949999999999989 23.100000000000023 19.050000000000011 15.300000000000011 11.100000000000023 C21.600000000000023 11.100000000000023 34.199999999999989 11.100000000000023 40.500000000000000 11.100000000000023 C39.899999999999977 8.324999999999989 38.699999999999989 2.774999999999977 38.100000000000023 0.000000000000000 C27.574999999999989 0.000000000000000 6.524999999999977 0.000000000000000 -4.000000000000000 0.000000000000000 C-3.475000000000023 2.399999999999977 -2.425000000000011 7.199999999999989 -1.899999999999977 9.600000000000023 z" />
<glyph unicode="{" horiz-adv-x="33.200000000000003" d="M30.100000000000001 61.299999999999997 C29.149999999999977 56.774999999999977 27.250000000000000 47.725000000000023 26.300000000000011 43.199999999999989 Q25.800000000000011 40.899999999999977 24.350000000000023 39.149999999999977 Q22.899999999999977 37.399999999999977 21.100000000000023 36.000000000000000 Q22.000000000000000 34.899999999999977 22.699999999999989 33.550000000000011 Q23.399999999999977 32.199999999999989 23.399999999999977 30.500000000000000 Q23.399999999999977 29.800000000000011 23.199999999999989 28.800000000000011 C21.866666666666674 22.399999999999977 20.199999999999989 14.399999999999977 19.199999999999989 9.600000000000023 C20.500000000000000 9.600000000000023 23.100000000000023 9.600000000000023 24.399999999999977 9.600000000000023 C23.725000000000023 6.425000000000011 22.375000000000000 0.074999999999989 21.699999999999989 -3.100000000000023 C17.350000000000023 -3.100000000000023 8.649999999999977 -3.100000000000023 4.300000000000011 -3.100000000000023 Q3.800000000000011 -3.100000000000023 3.199999999999989 -2.699999999999989 Q2.600000000000023 -2.300000000000011 2.600000000000023 -1.100000000000023 Q2.600000000000023 -0.500000000000000 2.699999999999989 -0.100000000000023 C4.366666666666674 7.733333333333348 6.449999999999989 17.524999999999977 7.699999999999989 23.399999999999977 Q7.800000000000011 23.899999999999977 7.850000000000023 24.250000000000000 Q7.899999999999977 24.600000000000023 7.899999999999977 25.000000000000000 Q7.899999999999977 27.300000000000011 6.699999999999989 28.750000000000000 Q5.500000000000000 30.199999999999989 3.899999999999977 30.600000000000023 C4.666666666666686 34.266666666666652 5.625000000000000 38.850000000000023 6.199999999999989 41.600000000000023 Q7.199999999999989 41.600000000000023 8.300000000000011 42.250000000000000 Q9.399999999999977 42.899999999999977 10.399999999999977 43.899999999999977 Q11.399999999999977 44.899999999999977 12.100000000000023 46.149999999999977 Q12.800000000000011 47.399999999999977 13.100000000000023 48.600000000000023 C14.666666666666686 56.066666666666663 16.625000000000000 65.400000000000006 17.800000000000011 71.000000000000000 Q18.199999999999989 72.800000000000011 19.199999999999989 73.400000000000006 Q20.199999999999989 74.000000000000000 20.699999999999989 74.000000000000000 C26.500000000000000 74.000000000000000 33.750000000000000 74.000000000000000 38.100000000000023 74.000000000000000 C37.399999999999977 70.824999999999989 36.000000000000000 64.474999999999994 35.300000000000011 61.300000000000011 C34.000000000000000 61.300000000000011 31.399999999999977 61.300000000000011 30.100000000000023 61.300000000000011 z" />
<glyph unicode="|" horiz-adv-x="34.200000000000003" d="M10.800000000000001 -13.000000000000000 C10.800000000000011 9.625000000000000 10.800000000000011 54.875000000000000 10.800000000000011 77.500000000000000 C14.175000000000011 77.500000000000000 20.925000000000011 77.500000000000000 24.300000000000011 77.500000000000000 C24.300000000000011 54.875000000000000 24.300000000000011 9.625000000000000 24.300000000000011 -13.000000000000000 C20.925000000000011 -13.000000000000000 14.175000000000011 -13.000000000000000 10.800000000000011 -13.000000000000000 z" />
<glyph unicode="}" horiz-adv-x="33.5" d="M11.500000000000000 61.299999999999997 C12.175000000000011 64.474999999999994 13.524999999999977 70.824999999999989 14.199999999999989 74.000000000000000 C18.524999999999977 74.000000000000000 27.175000000000011 74.000000000000000 31.500000000000000 74.000000000000000 Q32.000000000000000 74.000000000000000 32.600000000000023 73.550000000000011 Q33.199999999999989 73.099999999999994 33.199999999999989 72.000000000000000 Q33.199999999999989 71.400000000000006 33.100000000000023 71.000000000000000 C31.500000000000000 63.533333333333331 29.500000000000000 54.199999999999989 28.300000000000011 48.600000000000023 Q28.199999999999989 48.199999999999989 28.149999999999977 47.899999999999977 Q28.100000000000023 47.600000000000023 28.100000000000023 47.199999999999989 Q28.100000000000023 45.000000000000000 29.300000000000011 43.300000000000011 Q30.500000000000000 41.600000000000023 32.199999999999989 41.600000000000023 C31.399999999999977 37.933333333333337 30.399999999999977 33.350000000000023 29.800000000000011 30.600000000000023 Q27.800000000000011 30.100000000000023 25.699999999999989 28.199999999999989 Q23.600000000000023 26.300000000000011 23.000000000000000 23.399999999999977 C21.333333333333314 15.566666666666663 19.250000000000000 5.774999999999977 18.000000000000000 -0.100000000000023 Q17.600000000000023 -1.899999999999977 16.649999999999977 -2.500000000000000 Q15.699999999999989 -3.100000000000023 15.100000000000023 -3.100000000000023 C9.333333333333314 -3.100000000000023 2.125000000000000 -3.100000000000023 -2.199999999999989 -3.100000000000023 C-1.524999999999977 0.074999999999989 -0.175000000000011 6.425000000000011 0.500000000000000 9.600000000000023 C1.800000000000011 9.600000000000023 4.399999999999977 9.600000000000023 5.699999999999989 9.600000000000023 C6.725000000000023 14.399999999999977 8.774999999999977 24.000000000000000 9.800000000000011 28.800000000000011 Q10.300000000000011 31.100000000000023 11.750000000000000 32.850000000000023 Q13.199999999999989 34.600000000000023 14.899999999999977 36.000000000000000 Q14.100000000000023 37.100000000000023 13.399999999999977 38.399999999999977 Q12.699999999999989 39.699999999999989 12.699999999999989 41.399999999999977 Q12.699999999999989 41.899999999999977 12.699999999999989 42.300000000000011 Q12.699999999999989 42.699999999999989 12.899999999999977 43.199999999999989 C14.199999999999989 49.233333333333348 15.824999999999989 56.774999999999977 16.800000000000011 61.300000000000011 C15.475000000000023 61.300000000000011 12.824999999999989 61.300000000000011 11.500000000000000 61.300000000000011 z" />
<glyph unicode="~" horiz-adv-x="56.5" d="M3.700000000000000 22.199999999999999 Q3.699999999999989 23.199999999999989 4.550000000000011 25.600000000000023 Q5.399999999999977 28.000000000000000 7.300000000000011 30.500000000000000 Q9.199999999999989 33.000000000000000 12.149999999999977 34.850000000000023 Q15.100000000000023 36.699999999999989 19.399999999999977 36.699999999999989 Q22.199999999999989 36.699999999999989 24.500000000000000 35.850000000000023 Q26.800000000000011 35.000000000000000 28.800000000000011 34.000000000000000 Q30.800000000000011 33.100000000000023 32.800000000000011 32.250000000000000 Q34.800000000000011 31.399999999999977 37.100000000000023 31.399999999999977 Q39.199999999999989 31.399999999999977 40.600000000000023 32.149999999999977 Q42.000000000000000 32.899999999999977 42.800000000000011 33.800000000000011 Q43.600000000000023 34.699999999999989 43.899999999999977 35.500000000000000 Q44.200000000000045 36.300000000000011 44.200000000000045 36.500000000000000 C47.066666666666720 36.500000000000000 50.649999999999977 36.500000000000000 52.799999999999955 36.500000000000000 Q52.799999999999955 35.899999999999977 51.899999999999977 33.550000000000011 Q51.000000000000000 31.199999999999989 49.100000000000023 28.699999999999989 Q47.200000000000045 26.199999999999989 44.149999999999977 24.199999999999989 Q41.100000000000023 22.199999999999989 36.600000000000023 22.199999999999989 Q33.899999999999977 22.199999999999989 31.649999999999977 23.000000000000000 Q29.399999999999977 23.800000000000011 27.300000000000011 24.699999999999989 Q25.300000000000011 25.699999999999989 23.250000000000000 26.500000000000000 Q21.199999999999989 27.300000000000011 19.000000000000000 27.300000000000011 Q16.800000000000011 27.300000000000011 15.500000000000000 26.550000000000011 Q14.199999999999989 25.800000000000011 13.500000000000000 24.800000000000011 Q12.800000000000011 23.899999999999977 12.600000000000023 23.100000000000023 Q12.399999999999977 22.300000000000011 12.399999999999977 22.199999999999989 C9.500000000000000 22.199999999999989 5.875000000000000 22.199999999999989 3.699999999999989 22.199999999999989 C3.699999999999989 22.199999999999989 3.699999999999989 22.199999999999989 3.699999999999989 22.199999999999989 z" />
<glyph unicode="" horiz-adv-x="23" d="" />
<glyph unicode="" horiz-adv-x="30.899999999999999" d="M26.199999999999999 42.899999999999999 C23.875000000000000 32.024999999999977 19.225000000000023 10.274999999999977 16.899999999999977 -0.600000000000023 C12.899999999999977 -0.600000000000023 4.899999999999977 -0.600000000000023 0.899999999999977 -0.600000000000023 C3.225000000000023 10.274999999999977 7.875000000000000 32.024999999999977 10.199999999999989 42.899999999999977 C14.199999999999989 42.899999999999977 22.199999999999989 42.899999999999977 26.199999999999989 42.899999999999977 zM32.100000000000001 71.099999999999994 C31.225000000000023 66.949999999999989 29.475000000000023 58.649999999999977 28.600000000000023 54.500000000000000 C24.600000000000023 54.500000000000000 16.600000000000023 54.500000000000000 12.600000000000023 54.500000000000000 C13.475000000000023 58.649999999999977 15.225000000000023 66.949999999999989 16.100000000000023 71.099999999999994 C20.100000000000023 71.099999999999994 28.100000000000023 71.099999999999994 32.100000000000023 71.099999999999994 z" />
<glyph unicode="" horiz-adv-x="58.399999999999999" d="M17.800000000000001 -12.000000000000000 C18.399999999999977 -9.225000000000023 19.600000000000023 -3.675000000000011 20.199999999999989 -0.899999999999977 Q16.000000000000000 -0.600000000000023 12.750000000000000 1.399999999999977 Q9.500000000000000 3.399999999999977 7.199999999999989 6.399999999999977 Q5.000000000000000 9.500000000000000 3.800000000000011 13.300000000000011 Q2.600000000000023 17.100000000000023 2.600000000000023 21.199999999999989 Q2.600000000000023 26.600000000000023 4.550000000000011 31.899999999999977 Q6.500000000000000 37.199999999999989 10.199999999999989 41.500000000000000 Q14.000000000000000 45.899999999999977 19.399999999999977 49.050000000000011 Q24.800000000000011 52.199999999999989 31.699999999999989 53.300000000000011 C32.500000000000000 57.033333333333303 33.500000000000000 61.699999999999989 34.100000000000023 64.500000000000000 C35.824999999999989 64.500000000000000 39.274999999999977 64.500000000000000 41.000000000000000 64.500000000000000 C40.399999999999977 61.699999999999989 39.199999999999989 56.100000000000023 38.600000000000023 53.300000000000011 Q45.000000000000000 53.100000000000023 49.950000000000045 49.699999999999989 Q54.899999999999977 46.300000000000011 56.899999999999977 39.600000000000023 C51.366666666666674 38.033333333333303 44.450000000000045 36.074999999999989 40.300000000000011 34.899999999999977 Q39.800000000000011 36.800000000000011 38.449999999999989 38.000000000000000 Q37.100000000000023 39.199999999999989 35.699999999999989 39.399999999999977 C33.800000000000011 30.566666666666663 31.425000000000011 19.524999999999977 30.000000000000000 12.899999999999977 Q32.000000000000000 13.500000000000000 33.800000000000011 14.750000000000000 Q35.600000000000023 16.000000000000000 36.699999999999989 17.699999999999989 C41.566666666666663 16.100000000000023 47.649999999999977 14.100000000000023 51.299999999999955 12.899999999999977 Q49.000000000000000 9.399999999999977 45.799999999999955 6.800000000000011 Q42.600000000000023 4.199999999999989 39.199999999999989 2.399999999999977 Q35.899999999999977 0.699999999999989 32.649999999999977 -0.149999999999977 Q29.399999999999977 -1.000000000000000 27.100000000000023 -1.000000000000000 C26.300000000000011 -4.666666666666686 25.300000000000011 -9.250000000000000 24.699999999999989 -12.000000000000000 C22.975000000000023 -12.000000000000000 19.524999999999977 -12.000000000000000 17.800000000000011 -12.000000000000000 zM19.199999999999999 22.500000000000000 Q19.199999999999989 19.600000000000023 20.250000000000000 17.199999999999989 Q21.300000000000011 14.800000000000011 23.300000000000011 13.699999999999989 C25.066666666666663 22.033333333333303 27.274999999999977 32.449999999999989 28.600000000000023 38.699999999999989 Q26.600000000000023 38.000000000000000 24.899999999999977 36.300000000000011 Q23.199999999999989 34.600000000000023 21.899999999999977 32.300000000000011 Q20.600000000000023 30.100000000000023 19.899999999999977 27.550000000000011 Q19.199999999999989 25.000000000000000 19.199999999999989 22.500000000000000 z" />
<glyph unicode="" horiz-adv-x="54.399999999999999" d="M7.500000000000000 38.399999999999999 C8.975000000000023 38.399999999999977 11.925000000000011 38.399999999999977 13.399999999999977 38.399999999999977 Q12.899999999999977 41.300000000000011 12.350000000000023 44.250000000000000 Q11.800000000000011 47.199999999999989 11.800000000000011 50.000000000000000 Q11.800000000000011 54.500000000000000 13.899999999999977 58.399999999999977 Q16.000000000000000 62.300000000000011 19.399999999999977 65.199999999999989 Q22.899999999999977 68.199999999999989 27.449999999999989 69.849999999999994 Q32.000000000000000 71.500000000000000 36.800000000000011 71.500000000000000 Q42.899999999999977 71.500000000000000 47.850000000000023 68.750000000000000 Q52.799999999999955 66.000000000000000 55.600000000000023 61.000000000000000 C52.200000000000045 57.733333333333348 47.950000000000045 53.649999999999977 45.399999999999977 51.199999999999989 Q43.700000000000045 54.399999999999977 40.449999999999989 56.500000000000000 Q37.199999999999989 58.600000000000023 34.000000000000000 58.600000000000023 Q30.500000000000000 58.600000000000023 28.149999999999977 56.100000000000023 Q25.800000000000011 53.600000000000023 25.800000000000011 49.800000000000011 Q25.800000000000011 47.300000000000011 26.500000000000000 44.449999999999989 Q27.199999999999989 41.600000000000023 27.699999999999989 38.399999999999977 C33.666666666666686 38.399999999999977 41.125000000000000 38.399999999999977 45.600000000000023 38.399999999999977 C44.950000000000045 35.425000000000011 43.649999999999977 29.475000000000023 43.000000000000000 26.500000000000000 C39.074999999999989 26.500000000000000 31.225000000000023 26.500000000000000 27.300000000000011 26.500000000000000 Q26.199999999999989 23.000000000000000 23.800000000000011 19.699999999999989 Q21.399999999999977 16.399999999999977 16.899999999999977 12.300000000000011 Q19.300000000000011 13.100000000000023 21.100000000000023 13.399999999999977 Q22.899999999999977 13.699999999999989 24.600000000000023 13.699999999999989 Q27.800000000000011 13.699999999999989 30.699999999999989 12.899999999999977 Q33.600000000000023 12.100000000000023 36.800000000000011 12.100000000000023 Q38.500000000000000 12.100000000000023 40.000000000000000 12.449999999999989 Q41.500000000000000 12.800000000000011 43.500000000000000 13.500000000000000 C43.966666666666697 9.566666666666663 44.549999999999955 4.649999999999977 44.899999999999977 1.699999999999989 Q42.399999999999977 0.300000000000011 39.149999999999977 -0.600000000000023 Q35.899999999999977 -1.500000000000000 33.100000000000023 -1.500000000000000 Q30.899999999999977 -1.500000000000000 28.699999999999989 -1.000000000000000 Q26.500000000000000 -0.500000000000000 24.300000000000011 0.000000000000000 Q22.100000000000023 0.600000000000023 19.850000000000023 1.100000000000023 Q17.600000000000023 1.600000000000023 15.199999999999989 1.600000000000023 Q12.600000000000023 1.600000000000023 8.899999999999977 0.899999999999977 Q5.199999999999989 0.199999999999989 1.600000000000023 -0.899999999999977 C1.300000000000011 2.899999999999977 0.925000000000011 7.649999999999977 0.699999999999989 10.500000000000000 Q5.399999999999977 13.699999999999989 8.750000000000000 17.800000000000011 Q12.100000000000023 21.899999999999977 13.399999999999977 26.500000000000000 C10.633333333333326 26.500000000000000 7.175000000000011 26.500000000000000 5.100000000000023 26.500000000000000 C5.699999999999989 29.475000000000023 6.899999999999977 35.425000000000011 7.500000000000000 38.399999999999977 z" />
<glyph unicode="" horiz-adv-x="58" d="M19.399999999999999 50.100000000000001 Q21.600000000000023 51.300000000000011 24.199999999999989 52.000000000000000 Q26.800000000000011 52.699999999999989 29.899999999999977 52.699999999999989 Q32.899999999999977 52.699999999999989 35.449999999999989 52.000000000000000 Q38.000000000000000 51.300000000000011 40.199999999999989 50.199999999999989 C42.500000000000000 52.533333333333360 45.375000000000000 55.449999999999989 47.100000000000023 57.199999999999989 C48.649999999999977 55.649999999999977 51.750000000000000 52.550000000000011 53.299999999999955 51.000000000000000 C51.649999999999977 49.350000000000023 48.350000000000023 46.050000000000011 46.700000000000045 44.399999999999977 Q49.799999999999955 39.699999999999989 49.799999999999955 33.800000000000011 Q49.799999999999955 27.699999999999989 46.600000000000023 23.000000000000000 C48.833333333333371 20.800000000000011 51.625000000000000 18.050000000000011 53.299999999999955 16.399999999999977 C51.875000000000000 14.975000000000023 49.024999999999977 12.125000000000000 47.600000000000023 10.699999999999989 C45.799999999999955 12.375000000000000 42.199999999999989 15.725000000000023 40.399999999999977 17.399999999999977 Q36.000000000000000 14.899999999999977 29.899999999999977 14.899999999999977 Q26.699999999999989 14.899999999999977 24.050000000000011 15.600000000000023 Q21.399999999999977 16.300000000000011 19.199999999999989 17.500000000000000 C16.800000000000011 15.233333333333348 13.800000000000011 12.399999999999977 12.000000000000000 10.699999999999989 C10.574999999999989 12.125000000000000 7.725000000000023 14.975000000000023 6.300000000000011 16.399999999999977 C7.975000000000023 18.100000000000023 11.324999999999989 21.500000000000000 13.000000000000000 23.199999999999989 Q11.600000000000023 25.500000000000000 10.800000000000011 28.199999999999989 Q10.000000000000000 30.899999999999977 10.000000000000000 33.800000000000011 Q10.000000000000000 39.600000000000023 12.899999999999977 44.199999999999989 C10.699999999999989 46.466666666666697 7.949999999999989 49.300000000000011 6.300000000000011 51.000000000000000 C7.850000000000023 52.550000000000011 10.949999999999989 55.649999999999977 12.500000000000000 57.199999999999989 C14.225000000000023 55.425000000000011 17.675000000000011 51.875000000000000 19.399999999999977 50.100000000000023 zM21.500000000000000 33.700000000000003 Q21.500000000000000 29.600000000000023 23.899999999999977 27.100000000000023 Q26.300000000000011 24.600000000000023 29.899999999999977 24.600000000000023 Q33.500000000000000 24.600000000000023 35.899999999999977 27.100000000000023 Q38.300000000000011 29.600000000000023 38.300000000000011 33.800000000000011 Q38.300000000000011 38.000000000000000 35.899999999999977 40.449999999999989 Q33.500000000000000 42.899999999999977 29.899999999999977 42.899999999999977 Q26.300000000000011 42.899999999999977 23.899999999999977 40.399999999999977 Q21.500000000000000 37.899999999999977 21.500000000000000 33.699999999999989 z" />
<glyph unicode="" horiz-adv-x="70" d="M54.000000000000000 41.600000000000001 C55.600000000000023 41.600000000000023 58.799999999999955 41.600000000000023 60.399999999999977 41.600000000000023 C59.850000000000023 39.024999999999977 58.750000000000000 33.875000000000000 58.200000000000045 31.300000000000011 C55.274999999999977 31.300000000000011 49.424999999999955 31.300000000000011 46.500000000000000 31.300000000000011 C45.225000000000023 29.524999999999977 42.675000000000011 25.975000000000023 41.399999999999977 24.199999999999989 C41.225000000000023 23.425000000000011 40.875000000000000 21.875000000000000 40.699999999999989 21.100000000000023 C44.549999999999955 21.100000000000023 52.250000000000000 21.100000000000023 56.100000000000023 21.100000000000023 C55.575000000000045 18.524999999999977 54.524999999999977 13.375000000000000 54.000000000000000 10.800000000000011 C50.125000000000000 10.800000000000011 42.375000000000000 10.800000000000011 38.500000000000000 10.800000000000011 C37.925000000000011 8.100000000000023 36.774999999999977 2.699999999999989 36.199999999999989 0.000000000000000 C32.125000000000000 0.000000000000000 23.975000000000023 0.000000000000000 19.899999999999977 0.000000000000000 C20.449999999999989 2.699999999999989 21.550000000000011 8.100000000000023 22.100000000000023 10.800000000000011 C18.300000000000011 10.800000000000011 10.699999999999989 10.800000000000011 6.899999999999977 10.800000000000011 C7.449999999999989 13.375000000000000 8.550000000000011 18.524999999999977 9.100000000000023 21.100000000000023 C12.925000000000011 21.100000000000023 20.574999999999989 21.100000000000023 24.399999999999977 21.100000000000023 C24.574999999999989 21.925000000000011 24.925000000000011 23.574999999999989 25.100000000000023 24.399999999999977 C24.600000000000023 26.125000000000000 23.600000000000023 29.574999999999989 23.100000000000023 31.300000000000011 C20.149999999999977 31.300000000000011 14.250000000000000 31.300000000000011 11.300000000000011 31.300000000000011 C11.850000000000023 33.875000000000000 12.949999999999989 39.024999999999977 13.500000000000000 41.600000000000023 C15.149999999999977 41.600000000000023 18.449999999999989 41.600000000000023 20.100000000000023 41.600000000000023 C17.949999999999989 48.949999999999989 13.649999999999977 63.650000000000006 11.500000000000000 71.000000000000000 C15.949999999999989 71.000000000000000 24.850000000000023 71.000000000000000 29.300000000000011 71.000000000000000 C31.024999999999977 62.850000000000023 34.475000000000023 46.550000000000011 36.199999999999989 38.399999999999977 C41.449999999999989 46.550000000000011 51.950000000000045 62.850000000000023 57.200000000000045 71.000000000000000 C61.674999999999955 71.000000000000000 70.625000000000000 71.000000000000000 75.100000000000023 71.000000000000000 C69.825000000000045 63.650000000000006 59.274999999999977 48.949999999999989 54.000000000000000 41.600000000000023 z" />
<glyph unicode="" horiz-adv-x="33.399999999999999" d="M24.000000000000000 26.000000000000000 C24.000000000000000 16.250000000000000 24.000000000000000 -3.250000000000000 24.000000000000000 -13.000000000000000 C20.600000000000023 -13.000000000000000 13.800000000000011 -13.000000000000000 10.399999999999977 -13.000000000000000 C10.399999999999977 -3.250000000000000 10.399999999999977 16.250000000000000 10.399999999999977 26.000000000000000 C13.800000000000011 26.000000000000000 20.600000000000023 26.000000000000000 24.000000000000000 26.000000000000000 zM24.000000000000000 77.500000000000000 C24.000000000000000 67.750000000000000 24.000000000000000 48.250000000000000 24.000000000000000 38.500000000000000 C20.600000000000023 38.500000000000000 13.800000000000011 38.500000000000000 10.399999999999977 38.500000000000000 C10.399999999999977 48.250000000000000 10.399999999999977 67.750000000000000 10.399999999999977 77.500000000000000 C13.800000000000011 77.500000000000000 20.600000000000023 77.500000000000000 24.000000000000000 77.500000000000000 z" />
</font>
</defs>
</svg>
