<?xml version="1.0" standalone="no"?>
<!DOCTYPE svg PUBLIC "-//W3C//DTD SVG 1.1//EN" "http://www.w3.org/Graphics/SVG/1.1/DTD/svg11.dtd" >
<svg>
<defs>
<font id="RalewayW Bold" horiz-adv-x="250" >
<font-face units-per-em="100" ascent="80" descent="-20" />
<glyph unicode=" " horiz-adv-x="24" d="" />
<glyph unicode="!" horiz-adv-x="30.699999999999999" d="M8.699999999999999 26.699999999999999 C8.699999999999989 37.949999999999989 8.699999999999989 60.449999999999989 8.699999999999989 71.699999999999989 C12.050000000000011 71.699999999999989 18.750000000000000 71.699999999999989 22.100000000000023 71.699999999999989 C22.100000000000023 60.449999999999989 22.100000000000023 37.949999999999989 22.100000000000023 26.699999999999989 C18.750000000000000 26.699999999999989 12.050000000000011 26.699999999999989 8.699999999999989 26.699999999999989 zM8.699999999999999 0.000000000000000 C8.699999999999989 3.774999999999977 8.699999999999989 11.324999999999989 8.699999999999989 15.100000000000023 C12.050000000000011 15.100000000000023 18.750000000000000 15.100000000000023 22.100000000000023 15.100000000000023 C22.100000000000023 11.324999999999989 22.100000000000023 3.774999999999977 22.100000000000023 0.000000000000000 C18.750000000000000 0.000000000000000 12.050000000000011 0.000000000000000 8.699999999999989 0.000000000000000 z" />
<glyph unicode="&#x22;" horiz-adv-x="39.299999999999997" d="M6.100000000000000 49.899999999999999 C6.100000000000023 55.500000000000000 6.100000000000023 66.699999999999989 6.100000000000023 72.300000000000011 C8.949999999999989 72.300000000000011 14.649999999999977 72.300000000000011 17.500000000000000 72.300000000000011 C17.500000000000000 66.699999999999989 17.500000000000000 55.500000000000000 17.500000000000000 49.899999999999977 C14.649999999999977 49.899999999999977 8.949999999999989 49.899999999999977 6.100000000000023 49.899999999999977 zM21.800000000000001 49.899999999999999 C21.800000000000011 55.500000000000000 21.800000000000011 66.699999999999989 21.800000000000011 72.300000000000011 C24.649999999999977 72.300000000000011 30.350000000000023 72.300000000000011 33.199999999999989 72.300000000000011 C33.199999999999989 66.699999999999989 33.199999999999989 55.500000000000000 33.199999999999989 49.899999999999977 C30.350000000000023 49.899999999999977 24.649999999999977 49.899999999999977 21.800000000000011 49.899999999999977 z" />
<glyph unicode="#" horiz-adv-x="72.099999999999994" d="M68.500000000000000 42.399999999999999 C64.850000000000023 42.399999999999977 57.549999999999955 42.399999999999977 53.899999999999977 42.399999999999977 C53.100000000000023 38.975000000000023 51.500000000000000 32.125000000000000 50.700000000000045 28.699999999999989 C53.975000000000023 28.699999999999989 60.524999999999977 28.699999999999989 63.799999999999955 28.699999999999989 C63.799999999999955 26.199999999999989 63.799999999999955 21.199999999999989 63.799999999999955 18.699999999999989 C59.924999999999955 18.699999999999989 52.174999999999955 18.699999999999989 48.299999999999955 18.699999999999989 C47.149999999999977 14.024999999999977 44.850000000000023 4.675000000000011 43.700000000000045 0.000000000000000 C41.000000000000000 0.000000000000000 35.600000000000023 0.000000000000000 32.899999999999977 0.000000000000000 C34.074999999999989 4.675000000000011 36.425000000000011 14.024999999999977 37.600000000000023 18.699999999999989 C34.600000000000023 18.699999999999989 28.600000000000023 18.699999999999989 25.600000000000023 18.699999999999989 C24.475000000000023 14.024999999999977 22.225000000000023 4.675000000000011 21.100000000000023 0.000000000000000 C18.399999999999977 0.000000000000000 13.000000000000000 0.000000000000000 10.300000000000011 0.000000000000000 C11.449999999999989 4.675000000000011 13.750000000000000 14.024999999999977 14.899999999999977 18.699999999999989 C12.100000000000023 18.699999999999989 6.500000000000000 18.699999999999989 3.699999999999989 18.699999999999989 C3.699999999999989 21.199999999999989 3.699999999999989 26.199999999999989 3.699999999999989 28.699999999999989 C7.100000000000023 28.699999999999989 13.899999999999977 28.699999999999989 17.300000000000011 28.699999999999989 C18.125000000000000 32.125000000000000 19.774999999999977 38.975000000000023 20.600000000000023 42.399999999999977 C17.550000000000011 42.399999999999977 11.449999999999989 42.399999999999977 8.399999999999977 42.399999999999977 C8.399999999999977 44.750000000000000 8.399999999999977 49.449999999999989 8.399999999999977 51.800000000000011 C12.024999999999977 51.800000000000011 19.274999999999977 51.800000000000011 22.899999999999977 51.800000000000011 C24.074999999999989 56.600000000000023 26.425000000000011 66.199999999999989 27.600000000000023 71.000000000000000 C30.300000000000011 71.000000000000000 35.699999999999989 71.000000000000000 38.399999999999977 71.000000000000000 C37.199999999999989 66.199999999999989 34.800000000000011 56.600000000000023 33.600000000000023 51.800000000000011 C36.600000000000023 51.800000000000011 42.600000000000023 51.800000000000011 45.600000000000023 51.800000000000011 C46.750000000000000 56.600000000000023 49.049999999999955 66.199999999999989 50.200000000000045 71.000000000000000 C52.899999999999977 71.000000000000000 58.299999999999955 71.000000000000000 61.000000000000000 71.000000000000000 C59.825000000000045 66.199999999999989 57.475000000000023 56.600000000000023 56.299999999999955 51.800000000000011 C59.350000000000023 51.800000000000011 65.450000000000045 51.800000000000011 68.500000000000000 51.800000000000011 C68.500000000000000 49.449999999999989 68.500000000000000 44.750000000000000 68.500000000000000 42.399999999999977 zM40.000000000000000 28.699999999999999 C40.800000000000011 32.125000000000000 42.399999999999977 38.975000000000023 43.200000000000045 42.399999999999977 C40.225000000000023 42.399999999999977 34.274999999999977 42.399999999999977 31.300000000000011 42.399999999999977 C30.475000000000023 38.975000000000023 28.824999999999989 32.125000000000000 28.000000000000000 28.699999999999989 C31.000000000000000 28.699999999999989 37.000000000000000 28.699999999999989 40.000000000000000 28.699999999999989 z" />
<glyph unicode="$" horiz-adv-x="63.399999999999999" d="M50.899999999999999 52.399999999999999 Q50.299999999999955 53.100000000000023 48.649999999999977 54.100000000000023 Q47.000000000000000 55.100000000000023 44.700000000000045 56.100000000000023 Q42.500000000000000 57.199999999999989 39.800000000000011 58.050000000000011 Q37.100000000000023 58.899999999999977 34.199999999999989 59.199999999999989 C34.199999999999989 53.433333333333337 34.199999999999989 46.225000000000023 34.199999999999989 41.899999999999977 C34.824999999999989 41.750000000000000 36.074999999999989 41.449999999999989 36.699999999999989 41.300000000000011 Q41.899999999999977 39.899999999999977 46.149999999999977 38.300000000000011 Q50.399999999999977 36.699999999999989 53.299999999999955 34.300000000000011 Q56.299999999999955 31.899999999999977 57.899999999999977 28.550000000000011 Q59.500000000000000 25.199999999999989 59.500000000000000 20.300000000000011 Q59.500000000000000 14.800000000000011 57.549999999999955 10.899999999999977 Q55.600000000000023 7.000000000000000 52.200000000000045 4.500000000000000 Q48.899999999999977 2.000000000000000 44.450000000000045 0.750000000000000 Q40.000000000000000 -0.500000000000000 35.100000000000023 -0.699999999999989 C35.100000000000023 -4.366666666666674 35.100000000000023 -8.949999999999989 35.100000000000023 -11.699999999999989 C33.600000000000023 -11.699999999999989 30.600000000000023 -11.699999999999989 29.100000000000023 -11.699999999999989 C29.100000000000023 -8.925000000000011 29.100000000000023 -3.375000000000000 29.100000000000023 -0.600000000000023 Q22.100000000000023 -0.100000000000023 15.449999999999989 2.250000000000000 Q8.800000000000011 4.600000000000023 3.399999999999977 8.399999999999977 C5.433333333333337 12.366666666666674 7.975000000000023 17.324999999999989 9.500000000000000 20.300000000000011 Q10.300000000000011 19.500000000000000 12.250000000000000 18.199999999999989 Q14.199999999999989 16.899999999999977 16.899999999999977 15.600000000000023 Q19.699999999999989 14.399999999999977 23.050000000000011 13.300000000000011 Q26.399999999999977 12.199999999999989 30.000000000000000 11.800000000000011 C30.000000000000000 17.533333333333360 30.000000000000000 24.699999999999989 30.000000000000000 29.000000000000000 Q29.100000000000023 29.199999999999989 28.199999999999989 29.449999999999989 Q27.300000000000011 29.699999999999989 26.399999999999977 30.000000000000000 Q21.300000000000011 31.399999999999977 17.550000000000011 33.050000000000011 Q13.800000000000011 34.699999999999989 11.300000000000011 36.899999999999977 Q8.800000000000011 39.199999999999989 7.550000000000011 42.149999999999977 Q6.300000000000011 45.100000000000023 6.300000000000011 49.199999999999989 Q6.300000000000011 54.199999999999989 8.050000000000011 58.149999999999977 Q9.800000000000011 62.100000000000023 12.800000000000011 64.900000000000006 Q15.899999999999977 67.699999999999989 20.100000000000023 69.300000000000011 Q24.300000000000011 70.900000000000006 29.100000000000023 71.300000000000011 C29.100000000000023 74.699999999999989 29.100000000000023 78.949999999999989 29.100000000000023 81.500000000000000 C30.600000000000023 81.500000000000000 33.600000000000023 81.500000000000000 35.100000000000023 81.500000000000000 C35.100000000000023 78.974999999999994 35.100000000000023 73.925000000000011 35.100000000000023 71.400000000000006 Q41.699999999999989 70.899999999999977 47.250000000000000 68.699999999999989 Q52.799999999999955 66.500000000000000 57.000000000000000 63.599999999999994 C54.966666666666697 59.866666666666674 52.424999999999955 55.199999999999989 50.899999999999977 52.399999999999977 zM44.799999999999997 18.899999999999999 Q44.799999999999955 22.300000000000011 42.000000000000000 24.199999999999989 Q39.199999999999989 26.100000000000023 34.199999999999989 27.699999999999989 C34.199999999999989 22.333333333333314 34.199999999999989 15.625000000000000 34.199999999999989 11.600000000000023 Q44.799999999999955 11.900000000000034 44.799999999999955 18.899999999999977 zM20.500000000000000 51.399999999999999 Q20.500000000000000 48.000000000000000 22.850000000000023 46.250000000000000 Q25.199999999999989 44.500000000000000 30.000000000000000 43.100000000000023 C30.000000000000000 48.500000000000000 30.000000000000000 55.250000000000000 30.000000000000000 59.300000000000011 Q20.500000000000000 58.699999999999989 20.500000000000000 51.399999999999977 z" />
<glyph unicode="%" horiz-adv-x="78.599999999999994" d="M20.000000000000000 41.700000000000003 Q16.500000000000000 41.699999999999989 13.500000000000000 42.899999999999977 Q10.500000000000000 44.100000000000023 8.300000000000011 46.100000000000023 Q6.100000000000023 48.199999999999989 4.800000000000011 50.949999999999989 Q3.500000000000000 53.699999999999989 3.500000000000000 56.899999999999977 Q3.500000000000000 60.000000000000000 4.800000000000011 62.800000000000011 Q6.100000000000023 65.599999999999994 8.300000000000011 67.599999999999994 Q10.500000000000000 69.599999999999994 13.500000000000000 70.800000000000011 Q16.500000000000000 72.000000000000000 20.000000000000000 72.000000000000000 Q23.399999999999977 72.000000000000000 26.449999999999989 70.800000000000011 Q29.500000000000000 69.599999999999994 31.699999999999989 67.599999999999994 Q33.899999999999977 65.599999999999994 35.199999999999989 62.800000000000011 Q36.500000000000000 60.000000000000000 36.500000000000000 56.899999999999977 Q36.500000000000000 53.699999999999989 35.199999999999989 50.949999999999989 Q33.899999999999977 48.199999999999989 31.699999999999989 46.100000000000023 Q29.500000000000000 44.100000000000023 26.449999999999989 42.899999999999977 Q23.399999999999977 41.699999999999989 20.000000000000000 41.699999999999989 zM20.000000000000000 48.399999999999999 Q21.500000000000000 48.399999999999977 22.750000000000000 49.100000000000023 Q24.000000000000000 49.800000000000011 25.000000000000000 50.899999999999977 Q26.000000000000000 52.100000000000023 26.550000000000011 53.649999999999977 Q27.100000000000023 55.199999999999989 27.100000000000023 56.899999999999977 Q27.100000000000023 60.399999999999977 25.000000000000000 62.850000000000023 Q22.899999999999977 65.300000000000011 20.000000000000000 65.300000000000011 Q18.500000000000000 65.300000000000011 17.250000000000000 64.599999999999994 Q16.000000000000000 63.900000000000006 15.000000000000000 62.699999999999989 Q14.000000000000000 61.600000000000023 13.449999999999989 60.100000000000023 Q12.899999999999977 58.600000000000023 12.899999999999977 56.899999999999977 Q12.899999999999977 53.399999999999977 15.000000000000000 50.899999999999977 Q17.100000000000023 48.399999999999977 20.000000000000000 48.399999999999977 zM58.600000000000001 -1.000000000000000 Q55.100000000000023 -1.000000000000000 52.100000000000023 0.199999999999989 Q49.100000000000023 1.399999999999977 46.899999999999977 3.399999999999977 Q44.700000000000045 5.399999999999977 43.399999999999977 8.149999999999977 Q42.100000000000023 10.899999999999977 42.100000000000023 14.100000000000023 Q42.100000000000023 17.300000000000011 43.399999999999977 20.050000000000011 Q44.700000000000045 22.800000000000011 46.899999999999977 24.800000000000011 Q49.100000000000023 26.899999999999977 52.100000000000023 28.100000000000023 Q55.100000000000023 29.300000000000011 58.600000000000023 29.300000000000011 Q62.100000000000023 29.300000000000011 65.100000000000023 28.100000000000023 Q68.100000000000023 26.899999999999977 70.299999999999955 24.800000000000011 Q72.600000000000023 22.800000000000011 73.850000000000023 20.050000000000011 Q75.100000000000023 17.300000000000011 75.100000000000023 14.100000000000023 Q75.100000000000023 10.899999999999977 73.850000000000023 8.149999999999977 Q72.600000000000023 5.399999999999977 70.299999999999955 3.399999999999977 Q68.100000000000023 1.399999999999977 65.100000000000023 0.199999999999989 Q62.100000000000023 -1.000000000000000 58.600000000000023 -1.000000000000000 zM58.600000000000001 5.700000000000000 Q60.100000000000023 5.699999999999989 61.350000000000023 6.399999999999977 Q62.600000000000023 7.100000000000023 63.600000000000023 8.199999999999989 Q64.600000000000023 9.399999999999977 65.149999999999977 10.899999999999977 Q65.700000000000045 12.399999999999977 65.700000000000045 14.100000000000023 Q65.700000000000045 15.899999999999977 65.100000000000023 17.449999999999989 Q64.500000000000000 19.000000000000000 63.500000000000000 20.100000000000023 Q62.600000000000023 21.300000000000011 61.299999999999955 21.949999999999989 Q60.000000000000000 22.600000000000023 58.600000000000023 22.600000000000023 Q57.100000000000023 22.600000000000023 55.850000000000023 21.899999999999977 Q54.600000000000023 21.199999999999989 53.600000000000023 20.000000000000000 Q52.600000000000023 18.899999999999977 52.049999999999955 17.350000000000023 Q51.500000000000000 15.800000000000011 51.500000000000000 14.100000000000023 Q51.500000000000000 10.600000000000023 53.600000000000023 8.149999999999977 Q55.700000000000045 5.699999999999989 58.600000000000023 5.699999999999989 zM9.100000000000000 4.700000000000000 C16.149999999999977 12.925000000000011 30.250000000000000 29.375000000000000 37.300000000000011 37.600000000000023 C43.799999999999955 46.149999999999977 56.799999999999955 63.250000000000000 63.299999999999955 71.800000000000011 C64.825000000000045 70.449999999999989 67.875000000000000 67.750000000000000 69.399999999999977 66.400000000000006 C62.575000000000045 58.324999999999989 48.924999999999955 42.175000000000011 42.100000000000023 34.100000000000023 C35.375000000000000 25.399999999999977 21.925000000000011 8.000000000000000 15.199999999999989 -0.699999999999989 C13.675000000000011 0.649999999999977 10.625000000000000 3.350000000000023 9.100000000000023 4.699999999999989 z" />
<glyph unicode="&#x26;" horiz-adv-x="71.200000000000003" d="M53.600000000000001 0.000000000000000 C52.200000000000045 1.475000000000023 49.399999999999977 4.425000000000011 48.000000000000000 5.899999999999977 Q43.600000000000023 2.500000000000000 38.500000000000000 0.750000000000000 Q33.399999999999977 -1.000000000000000 28.000000000000000 -1.000000000000000 Q22.500000000000000 -1.000000000000000 18.050000000000011 0.699999999999989 Q13.600000000000023 2.399999999999977 10.500000000000000 5.300000000000011 Q7.399999999999977 8.199999999999989 5.699999999999989 12.050000000000011 Q4.000000000000000 15.899999999999977 4.000000000000000 20.100000000000023 Q4.000000000000000 23.399999999999977 5.000000000000000 26.199999999999989 Q6.000000000000000 29.000000000000000 7.699999999999989 31.300000000000011 Q9.500000000000000 33.699999999999989 11.750000000000000 35.699999999999989 Q14.000000000000000 37.699999999999989 16.500000000000000 39.399999999999977 Q12.199999999999989 44.199999999999989 10.449999999999989 47.649999999999977 Q8.699999999999989 51.100000000000023 8.699999999999989 54.899999999999977 Q8.699999999999989 58.699999999999989 10.199999999999989 61.850000000000023 Q11.699999999999989 65.000000000000000 14.300000000000011 67.199999999999989 Q16.899999999999977 69.500000000000000 20.449999999999989 70.699999999999989 Q24.000000000000000 71.900000000000006 28.199999999999989 71.900000000000006 Q31.899999999999977 71.900000000000006 35.300000000000011 70.900000000000006 Q38.699999999999989 69.900000000000006 41.300000000000011 67.900000000000006 Q43.899999999999977 66.000000000000000 45.500000000000000 63.050000000000011 Q47.100000000000023 60.100000000000023 47.100000000000023 56.199999999999989 Q47.100000000000023 50.399999999999977 43.700000000000045 46.050000000000011 Q40.300000000000011 41.699999999999989 35.000000000000000 37.899999999999977 C39.533333333333303 33.166666666666686 45.200000000000045 27.250000000000000 48.600000000000023 23.699999999999989 Q50.100000000000023 26.899999999999977 50.950000000000045 30.699999999999989 Q51.799999999999955 34.500000000000000 51.799999999999955 38.899999999999977 C55.433333333333280 38.899999999999977 59.975000000000023 38.899999999999977 62.700000000000045 38.899999999999977 Q62.600000000000023 31.800000000000011 61.000000000000000 26.000000000000000 Q59.399999999999977 20.199999999999989 56.500000000000000 15.399999999999977 C61.399999999999977 10.266666666666652 67.524999999999977 3.850000000000023 71.200000000000045 0.000000000000000 C66.799999999999955 0.000000000000000 58.000000000000000 0.000000000000000 53.600000000000023 0.000000000000000 zM29.300000000000001 9.500000000000000 Q35.500000000000000 9.500000000000000 40.800000000000011 13.600000000000023 C35.333333333333314 19.366666666666674 28.500000000000000 26.574999999999989 24.399999999999977 30.899999999999977 Q20.899999999999977 28.399999999999977 18.899999999999977 25.800000000000011 Q16.899999999999977 23.199999999999989 16.899999999999977 20.000000000000000 Q16.899999999999977 17.899999999999977 17.800000000000011 15.949999999999989 Q18.699999999999989 14.000000000000000 20.300000000000011 12.600000000000023 Q22.000000000000000 11.199999999999989 24.300000000000011 10.350000000000023 Q26.600000000000023 9.500000000000000 29.300000000000011 9.500000000000000 zM20.899999999999999 55.299999999999997 Q20.899999999999977 54.399999999999977 21.199999999999989 53.550000000000011 Q21.500000000000000 52.699999999999989 22.199999999999989 51.699999999999989 Q22.899999999999977 50.699999999999989 24.050000000000011 49.399999999999977 Q25.199999999999989 48.100000000000023 27.000000000000000 46.199999999999989 Q30.800000000000011 48.800000000000011 32.800000000000011 51.050000000000011 Q34.800000000000011 53.300000000000011 34.800000000000011 56.000000000000000 Q34.800000000000011 58.699999999999989 32.949999999999989 60.350000000000023 Q31.100000000000023 62.000000000000000 28.199999999999989 62.000000000000000 Q25.000000000000000 62.000000000000000 22.949999999999989 60.050000000000011 Q20.899999999999977 58.100000000000023 20.899999999999977 55.300000000000011 z" />
<glyph unicode="'" horiz-adv-x="23.5" d="M6.100000000000000 49.899999999999999 C6.100000000000023 55.500000000000000 6.100000000000023 66.699999999999989 6.100000000000023 72.300000000000011 C8.949999999999989 72.300000000000011 14.649999999999977 72.300000000000011 17.500000000000000 72.300000000000011 C17.500000000000000 66.699999999999989 17.500000000000000 55.500000000000000 17.500000000000000 49.899999999999977 C14.649999999999977 49.899999999999977 8.949999999999989 49.899999999999977 6.100000000000023 49.899999999999977 z" />
<glyph unicode="(" horiz-adv-x="31" d="M3.400000000000000 34.700000000000003 Q3.399999999999977 39.800000000000011 4.550000000000011 44.850000000000023 Q5.699999999999989 49.899999999999977 7.699999999999989 55.000000000000000 Q9.800000000000011 60.100000000000023 12.500000000000000 65.250000000000000 Q15.199999999999989 70.400000000000006 18.300000000000011 75.699999999999989 C21.699999999999989 74.266666666666652 25.949999999999989 72.475000000000023 28.500000000000000 71.400000000000006 Q26.899999999999977 69.000000000000000 24.750000000000000 64.849999999999994 Q22.600000000000023 60.699999999999989 20.600000000000023 55.600000000000023 Q18.699999999999989 50.600000000000023 17.300000000000011 45.050000000000011 Q15.899999999999977 39.500000000000000 15.899999999999977 34.399999999999977 Q15.899999999999977 26.300000000000011 19.350000000000023 17.600000000000023 Q22.800000000000011 8.899999999999977 28.199999999999989 -0.399999999999977 C24.933333333333337 -2.033333333333360 20.850000000000023 -4.074999999999989 18.399999999999977 -5.300000000000011 Q15.300000000000011 -0.699999999999989 12.550000000000011 4.250000000000000 Q9.800000000000011 9.199999999999989 7.800000000000011 14.300000000000011 Q5.800000000000011 19.399999999999977 4.600000000000023 24.500000000000000 Q3.399999999999977 29.600000000000023 3.399999999999977 34.699999999999989 z" />
<glyph unicode=")" horiz-adv-x="30.899999999999999" d="M27.500000000000000 34.700000000000003 Q27.500000000000000 29.600000000000023 26.300000000000011 24.500000000000000 Q25.100000000000023 19.399999999999977 23.100000000000023 14.300000000000011 Q21.100000000000023 9.199999999999989 18.350000000000023 4.250000000000000 Q15.600000000000023 -0.699999999999989 12.500000000000000 -5.300000000000011 C9.233333333333348 -3.666666666666686 5.149999999999977 -1.625000000000000 2.699999999999989 -0.399999999999977 Q8.199999999999989 8.899999999999977 11.600000000000023 17.600000000000023 Q15.000000000000000 26.300000000000011 15.000000000000000 34.399999999999977 Q15.000000000000000 39.500000000000000 13.600000000000023 45.050000000000011 Q12.199999999999989 50.600000000000023 10.199999999999989 55.600000000000023 Q8.300000000000011 60.699999999999989 6.149999999999977 64.849999999999994 Q4.000000000000000 69.000000000000000 2.399999999999977 71.400000000000006 C5.833333333333314 72.833333333333343 10.125000000000000 74.625000000000000 12.699999999999989 75.699999999999989 Q15.800000000000011 70.400000000000006 18.500000000000000 65.250000000000000 Q21.199999999999989 60.100000000000023 23.199999999999989 55.000000000000000 Q25.199999999999989 49.899999999999977 26.350000000000023 44.850000000000023 Q27.500000000000000 39.800000000000011 27.500000000000000 34.699999999999989 z" />
<glyph unicode="*" horiz-adv-x="34.5" d="M7.500000000000000 52.000000000000000 C8.675000000000011 53.774999999999977 11.024999999999977 57.324999999999989 12.199999999999989 59.100000000000023 C10.425000000000011 59.649999999999977 6.875000000000000 60.750000000000000 5.100000000000023 61.300000000000011 C5.550000000000011 62.750000000000000 6.449999999999989 65.649999999999977 6.899999999999977 67.099999999999994 C8.725000000000023 66.324999999999989 12.375000000000000 64.775000000000006 14.199999999999989 64.000000000000000 C14.074999999999989 65.925000000000011 13.824999999999989 69.775000000000006 13.699999999999989 71.699999999999989 C15.475000000000023 71.699999999999989 19.024999999999977 71.699999999999989 20.800000000000011 71.699999999999989 C20.675000000000011 69.775000000000006 20.425000000000011 65.925000000000011 20.300000000000011 64.000000000000000 C22.100000000000023 64.775000000000006 25.699999999999989 66.324999999999989 27.500000000000000 67.099999999999994 C27.949999999999989 65.649999999999977 28.850000000000023 62.750000000000000 29.300000000000011 61.300000000000011 C27.550000000000011 60.750000000000000 24.050000000000011 59.649999999999977 22.300000000000011 59.100000000000023 C23.475000000000023 57.324999999999989 25.824999999999989 53.774999999999977 27.000000000000000 52.000000000000000 C25.699999999999989 51.149999999999977 23.100000000000023 49.449999999999989 21.800000000000011 48.600000000000023 C20.675000000000011 50.475000000000023 18.425000000000011 54.225000000000023 17.300000000000011 56.100000000000023 C16.149999999999977 54.225000000000023 13.850000000000023 50.475000000000023 12.699999999999989 48.600000000000023 C11.399999999999977 49.449999999999989 8.800000000000011 51.149999999999977 7.500000000000000 52.000000000000000 z" />
<glyph unicode="+" horiz-adv-x="42.100000000000001" d="M37.399999999999999 40.899999999999999 C37.399999999999977 38.199999999999989 37.399999999999977 32.800000000000011 37.399999999999977 30.100000000000023 C34.824999999999989 30.100000000000023 29.675000000000011 30.100000000000023 27.100000000000023 30.100000000000023 C27.100000000000023 27.274999999999977 27.100000000000023 21.625000000000000 27.100000000000023 18.800000000000011 C24.074999999999989 18.800000000000011 18.024999999999977 18.800000000000011 15.000000000000000 18.800000000000011 C15.000000000000000 21.625000000000000 15.000000000000000 27.274999999999977 15.000000000000000 30.100000000000023 C12.425000000000011 30.100000000000023 7.274999999999977 30.100000000000023 4.699999999999989 30.100000000000023 C4.699999999999989 32.800000000000011 4.699999999999989 38.199999999999989 4.699999999999989 40.899999999999977 C7.274999999999977 40.899999999999977 12.425000000000011 40.899999999999977 15.000000000000000 40.899999999999977 C15.000000000000000 43.725000000000023 15.000000000000000 49.375000000000000 15.000000000000000 52.199999999999989 C18.024999999999977 52.199999999999989 24.074999999999989 52.199999999999989 27.100000000000023 52.199999999999989 C27.100000000000023 49.375000000000000 27.100000000000023 43.725000000000023 27.100000000000023 40.899999999999977 C29.675000000000011 40.899999999999977 34.824999999999989 40.899999999999977 37.399999999999977 40.899999999999977 z" />
<glyph unicode="," horiz-adv-x="23.199999999999999" d="M7.300000000000000 -11.500000000000000 C7.975000000000023 -8.524999999999977 9.324999999999989 -2.574999999999989 10.000000000000000 0.399999999999977 C8.949999999999989 0.399999999999977 6.850000000000023 0.399999999999977 5.800000000000011 0.399999999999977 C5.800000000000011 3.899999999999977 5.800000000000011 10.899999999999977 5.800000000000011 14.399999999999977 C8.699999999999989 14.399999999999977 14.500000000000000 14.399999999999977 17.399999999999977 14.399999999999977 C17.399999999999977 10.899999999999977 17.399999999999977 3.899999999999977 17.399999999999977 0.399999999999977 C16.375000000000000 -2.574999999999989 14.324999999999989 -8.524999999999977 13.300000000000011 -11.500000000000000 C11.800000000000011 -11.500000000000000 8.800000000000011 -11.500000000000000 7.300000000000011 -11.500000000000000 z" />
<glyph unicode="-" horiz-adv-x="41.799999999999997" d="M5.800000000000000 21.399999999999999 C5.800000000000011 24.425000000000011 5.800000000000011 30.475000000000023 5.800000000000011 33.500000000000000 C13.375000000000000 33.500000000000000 28.524999999999977 33.500000000000000 36.100000000000023 33.500000000000000 C36.100000000000023 30.475000000000023 36.100000000000023 24.425000000000011 36.100000000000023 21.399999999999977 C28.524999999999977 21.399999999999977 13.375000000000000 21.399999999999977 5.800000000000011 21.399999999999977 z" />
<glyph unicode="." horiz-adv-x="22.5" d="M5.800000000000000 0.000000000000000 C5.800000000000011 3.600000000000023 5.800000000000011 10.800000000000011 5.800000000000011 14.399999999999977 C8.550000000000011 14.399999999999977 14.050000000000011 14.399999999999977 16.800000000000011 14.399999999999977 C16.800000000000011 10.800000000000011 16.800000000000011 3.600000000000023 16.800000000000011 0.000000000000000 C14.050000000000011 0.000000000000000 8.550000000000011 0.000000000000000 5.800000000000011 0.000000000000000 z" />
<glyph unicode="/" horiz-adv-x="69.799999999999997" d="M67.099999999999994 71.000000000000000 C54.700000000000045 53.250000000000000 29.899999999999977 17.750000000000000 17.500000000000000 0.000000000000000 C13.800000000000011 0.000000000000000 6.399999999999977 0.000000000000000 2.699999999999989 0.000000000000000 C15.074999999999989 17.750000000000000 39.824999999999989 53.250000000000000 52.200000000000045 71.000000000000000 C55.924999999999955 71.000000000000000 63.375000000000000 71.000000000000000 67.100000000000023 71.000000000000000 z" />
<glyph unicode="0" horiz-adv-x="61.399999999999999" d="M56.500000000000000 29.300000000000001 Q56.500000000000000 22.699999999999989 54.549999999999955 17.149999999999977 Q52.600000000000023 11.600000000000023 49.100000000000023 7.500000000000000 Q45.700000000000045 3.500000000000000 40.949999999999989 1.250000000000000 Q36.199999999999989 -1.000000000000000 30.699999999999989 -1.000000000000000 Q25.100000000000023 -1.000000000000000 20.399999999999977 1.250000000000000 Q15.699999999999989 3.500000000000000 12.199999999999989 7.500000000000000 Q8.800000000000011 11.600000000000023 6.850000000000023 17.149999999999977 Q4.899999999999977 22.699999999999989 4.899999999999977 29.300000000000011 Q4.899999999999977 35.899999999999977 6.850000000000023 41.449999999999989 Q8.800000000000011 47.000000000000000 12.199999999999989 51.000000000000000 Q15.699999999999989 55.100000000000023 20.399999999999977 57.399999999999977 Q25.100000000000023 59.699999999999989 30.699999999999989 59.699999999999989 Q36.199999999999989 59.699999999999989 40.949999999999989 57.399999999999977 Q45.700000000000045 55.100000000000023 49.100000000000023 51.000000000000000 Q52.600000000000023 47.000000000000000 54.549999999999955 41.449999999999989 Q56.500000000000000 35.899999999999977 56.500000000000000 29.300000000000011 zM43.000000000000000 29.300000000000001 Q43.000000000000000 33.300000000000011 42.100000000000023 36.649999999999977 Q41.199999999999989 40.000000000000000 39.500000000000000 42.399999999999977 Q37.899999999999977 44.800000000000011 35.649999999999977 46.100000000000023 Q33.399999999999977 47.399999999999977 30.699999999999989 47.399999999999977 Q27.899999999999977 47.399999999999977 25.649999999999977 46.100000000000023 Q23.399999999999977 44.800000000000011 21.699999999999989 42.399999999999977 Q20.100000000000023 40.000000000000000 19.199999999999989 36.649999999999977 Q18.300000000000011 33.300000000000011 18.300000000000011 29.300000000000011 Q18.300000000000011 25.300000000000011 19.199999999999989 22.000000000000000 Q20.100000000000023 18.699999999999989 21.699999999999989 16.300000000000011 Q23.399999999999977 13.899999999999977 25.649999999999977 12.600000000000023 Q27.899999999999977 11.300000000000011 30.699999999999989 11.300000000000011 Q33.399999999999977 11.300000000000011 35.649999999999977 12.600000000000023 Q37.899999999999977 13.899999999999977 39.500000000000000 16.300000000000011 Q41.199999999999989 18.699999999999989 42.100000000000023 22.000000000000000 Q43.000000000000000 25.300000000000011 43.000000000000000 29.300000000000011 z" />
<glyph unicode="1" horiz-adv-x="49.399999999999999" d="M47.000000000000000 12.100000000000000 C47.000000000000000 9.074999999999989 47.000000000000000 3.024999999999977 47.000000000000000 0.000000000000000 C36.850000000000023 0.000000000000000 16.550000000000011 0.000000000000000 6.399999999999977 0.000000000000000 C6.399999999999977 3.024999999999977 6.399999999999977 9.074999999999989 6.399999999999977 12.100000000000023 C9.949999999999989 12.100000000000023 17.050000000000011 12.100000000000023 20.600000000000023 12.100000000000023 C20.600000000000023 19.675000000000011 20.600000000000023 34.824999999999989 20.600000000000023 42.399999999999977 Q19.699999999999989 41.199999999999989 17.750000000000000 39.949999999999989 Q15.800000000000011 38.699999999999989 13.500000000000000 37.600000000000023 Q11.199999999999989 36.500000000000000 8.750000000000000 35.800000000000011 Q6.300000000000011 35.100000000000023 4.399999999999977 35.100000000000023 C4.399999999999977 39.266666666666652 4.399999999999977 44.475000000000023 4.399999999999977 47.600000000000023 Q6.199999999999989 47.600000000000023 8.800000000000011 48.750000000000000 Q11.399999999999977 49.899999999999977 13.899999999999977 51.500000000000000 Q16.399999999999977 53.100000000000023 18.250000000000000 54.649999999999977 Q20.100000000000023 56.199999999999989 20.600000000000023 57.100000000000023 C25.166666666666686 57.100000000000023 30.875000000000000 57.100000000000023 34.300000000000011 57.100000000000023 C34.300000000000011 45.850000000000023 34.300000000000011 23.350000000000023 34.300000000000011 12.100000000000023 C37.475000000000023 12.100000000000023 43.825000000000045 12.100000000000023 47.000000000000000 12.100000000000023 z" />
<glyph unicode="2" horiz-adv-x="56.399999999999999" d="M3.800000000000000 0.000000000000000 Q3.800000000000011 4.500000000000000 4.500000000000000 8.149999999999977 Q5.199999999999989 11.800000000000011 6.899999999999977 14.899999999999977 Q8.699999999999989 18.000000000000000 11.750000000000000 20.699999999999989 Q14.800000000000011 23.399999999999977 19.500000000000000 26.000000000000000 Q23.600000000000023 28.199999999999989 26.750000000000000 29.850000000000023 Q29.899999999999977 31.500000000000000 32.000000000000000 32.899999999999977 Q34.100000000000023 34.300000000000011 35.199999999999989 35.750000000000000 Q36.300000000000011 37.199999999999989 36.300000000000011 39.100000000000023 Q36.300000000000011 42.100000000000023 33.899999999999977 44.250000000000000 Q31.500000000000000 46.399999999999977 27.000000000000000 46.399999999999977 Q24.600000000000023 46.399999999999977 22.600000000000023 45.750000000000000 Q20.600000000000023 45.100000000000023 18.800000000000011 44.000000000000000 Q17.100000000000023 42.899999999999977 15.649999999999977 41.550000000000011 Q14.199999999999989 40.199999999999989 13.000000000000000 38.699999999999989 C10.133333333333326 42.000000000000000 6.550000000000011 46.125000000000000 4.399999999999977 48.600000000000023 Q5.699999999999989 50.000000000000000 8.100000000000023 51.649999999999977 Q10.500000000000000 53.300000000000011 13.699999999999989 54.699999999999989 Q17.000000000000000 56.199999999999989 20.949999999999989 57.149999999999977 Q24.899999999999977 58.100000000000023 29.399999999999977 58.100000000000023 Q34.500000000000000 58.100000000000023 38.500000000000000 56.850000000000023 Q42.500000000000000 55.600000000000023 45.200000000000045 53.300000000000011 Q48.000000000000000 51.100000000000023 49.450000000000045 47.949999999999989 Q50.899999999999977 44.800000000000011 50.899999999999977 41.100000000000023 Q50.899999999999977 37.600000000000023 49.600000000000023 34.899999999999977 Q48.299999999999955 32.199999999999989 46.299999999999955 30.100000000000023 Q44.299999999999955 28.000000000000000 41.949999999999989 26.449999999999989 Q39.600000000000023 24.899999999999977 37.399999999999977 23.699999999999989 Q35.600000000000023 22.699999999999989 33.300000000000011 21.399999999999977 Q31.000000000000000 20.100000000000023 28.699999999999989 18.500000000000000 Q26.500000000000000 17.000000000000000 24.600000000000023 15.350000000000023 Q22.699999999999989 13.699999999999989 21.699999999999989 12.100000000000023 C31.800000000000011 12.100000000000023 44.424999999999955 12.100000000000023 52.000000000000000 12.100000000000023 C52.000000000000000 9.074999999999989 52.000000000000000 3.024999999999977 52.000000000000000 0.000000000000000 C39.949999999999989 0.000000000000000 15.850000000000023 0.000000000000000 3.800000000000011 0.000000000000000 z" />
<glyph unicode="3" horiz-adv-x="55.799999999999997" d="M38.100000000000001 23.600000000000001 Q44.299999999999955 22.500000000000000 48.149999999999977 17.649999999999977 Q52.000000000000000 12.800000000000011 52.000000000000000 5.800000000000011 Q52.000000000000000 1.100000000000023 50.149999999999977 -2.699999999999989 Q48.299999999999955 -6.500000000000000 44.899999999999977 -9.100000000000023 Q41.600000000000023 -11.800000000000011 36.800000000000011 -13.250000000000000 Q32.000000000000000 -14.699999999999989 26.000000000000000 -14.699999999999989 Q18.399999999999977 -14.699999999999989 12.550000000000011 -12.250000000000000 Q6.699999999999989 -9.800000000000011 2.800000000000011 -5.100000000000023 C5.333333333333314 -1.933333333333337 8.500000000000000 2.024999999999977 10.399999999999977 4.399999999999977 Q13.000000000000000 1.100000000000023 16.600000000000023 -0.699999999999989 Q20.199999999999989 -2.500000000000000 25.600000000000023 -2.500000000000000 Q31.699999999999989 -2.500000000000000 34.899999999999977 -0.100000000000023 Q38.100000000000023 2.300000000000011 38.100000000000023 7.300000000000011 Q38.100000000000023 12.500000000000000 34.399999999999977 15.300000000000011 Q30.699999999999989 18.100000000000023 23.199999999999989 18.100000000000023 C22.266666666666652 18.100000000000023 21.100000000000023 18.100000000000023 20.399999999999977 18.100000000000023 C20.399999999999977 20.600000000000023 20.399999999999977 25.600000000000023 20.399999999999977 28.100000000000023 C21.175000000000011 28.100000000000023 22.725000000000023 28.100000000000023 23.500000000000000 28.100000000000023 Q29.699999999999989 28.100000000000023 33.100000000000023 30.850000000000023 Q36.500000000000000 33.600000000000023 36.500000000000000 37.899999999999977 Q36.500000000000000 42.000000000000000 33.699999999999989 44.000000000000000 Q30.899999999999977 46.000000000000000 26.399999999999977 46.000000000000000 Q21.800000000000011 46.000000000000000 18.149999999999977 43.899999999999977 Q14.500000000000000 41.800000000000011 12.199999999999989 38.000000000000000 C9.399999999999977 41.133333333333326 5.899999999999977 45.050000000000011 3.800000000000011 47.399999999999977 Q5.300000000000011 49.699999999999989 7.800000000000011 51.550000000000011 Q10.300000000000011 53.399999999999977 13.399999999999977 54.699999999999989 Q16.600000000000023 56.100000000000023 20.300000000000011 56.850000000000023 Q24.000000000000000 57.600000000000023 27.899999999999977 57.600000000000023 Q33.000000000000000 57.600000000000023 37.199999999999989 56.300000000000011 Q41.399999999999977 55.000000000000000 44.399999999999977 52.699999999999989 Q47.500000000000000 50.399999999999977 49.149999999999977 47.149999999999977 Q50.799999999999955 43.899999999999977 50.799999999999955 39.899999999999977 Q50.799999999999955 36.899999999999977 49.899999999999977 34.199999999999989 Q49.000000000000000 31.500000000000000 47.299999999999955 29.300000000000011 Q45.600000000000023 27.100000000000023 43.250000000000000 25.600000000000023 Q40.899999999999977 24.100000000000023 38.100000000000023 23.600000000000023 z" />
<glyph unicode="4" horiz-adv-x="57.100000000000001" d="M31.199999999999999 -12.699999999999999 C31.199999999999989 -8.975000000000023 31.199999999999989 -1.524999999999977 31.199999999999989 2.199999999999989 C23.899999999999977 2.199999999999989 9.300000000000011 2.199999999999989 2.000000000000000 2.199999999999989 C2.000000000000000 5.175000000000011 2.000000000000000 11.125000000000000 2.000000000000000 14.100000000000023 C10.375000000000000 24.850000000000023 27.125000000000000 46.350000000000023 35.500000000000000 57.100000000000023 C37.774999999999977 57.100000000000023 42.324999999999989 57.100000000000023 44.600000000000023 57.100000000000023 C44.600000000000023 46.375000000000000 44.600000000000023 24.925000000000011 44.600000000000023 14.199999999999989 C46.799999999999955 14.199999999999989 51.200000000000045 14.199999999999989 53.399999999999977 14.199999999999989 C53.399999999999977 11.199999999999989 53.399999999999977 5.199999999999989 53.399999999999977 2.199999999999989 C51.200000000000045 2.199999999999989 46.799999999999955 2.199999999999989 44.600000000000023 2.199999999999989 C44.600000000000023 -1.524999999999977 44.600000000000023 -8.975000000000023 44.600000000000023 -12.699999999999989 C41.250000000000000 -12.699999999999989 34.550000000000011 -12.699999999999989 31.199999999999989 -12.699999999999989 zM15.400000000000000 14.199999999999999 C19.725000000000023 14.199999999999989 28.375000000000000 14.199999999999989 32.699999999999989 14.199999999999989 C32.699999999999989 19.850000000000023 32.699999999999989 31.149999999999977 32.699999999999989 36.800000000000011 C28.375000000000000 31.149999999999977 19.725000000000023 19.850000000000023 15.399999999999977 14.199999999999989 z" />
<glyph unicode="5" horiz-adv-x="55.399999999999999" d="M29.000000000000000 31.899999999999999 Q34.000000000000000 31.899999999999977 38.300000000000011 30.250000000000000 Q42.600000000000023 28.600000000000023 45.700000000000045 25.600000000000023 Q48.799999999999955 22.600000000000023 50.549999999999955 18.399999999999977 Q52.299999999999955 14.199999999999989 52.299999999999955 9.100000000000023 Q52.299999999999955 3.699999999999989 50.350000000000023 -0.699999999999989 Q48.399999999999977 -5.100000000000023 44.899999999999977 -8.199999999999989 Q41.399999999999977 -11.399999999999977 36.600000000000023 -13.149999999999977 Q31.800000000000011 -14.899999999999977 26.199999999999989 -14.899999999999977 Q18.399999999999977 -14.899999999999977 12.250000000000000 -11.600000000000023 Q6.100000000000023 -8.300000000000011 2.899999999999977 -2.600000000000023 C5.466666666666640 0.066666666666663 8.675000000000011 3.399999999999977 10.600000000000023 5.399999999999977 Q13.399999999999977 1.500000000000000 17.600000000000023 -0.800000000000011 Q21.800000000000011 -3.100000000000023 26.300000000000011 -3.100000000000023 Q31.699999999999989 -3.100000000000023 35.149999999999977 0.149999999999977 Q38.600000000000023 3.399999999999977 38.600000000000023 8.800000000000011 Q38.600000000000023 14.000000000000000 35.350000000000023 17.199999999999989 Q32.100000000000023 20.399999999999977 27.100000000000023 20.399999999999977 Q23.800000000000011 20.399999999999977 20.949999999999989 18.899999999999977 Q18.100000000000023 17.399999999999977 16.399999999999977 14.800000000000011 C12.500000000000000 14.800000000000011 7.625000000000000 14.800000000000011 4.699999999999989 14.800000000000011 Q4.699999999999989 15.100000000000023 5.100000000000023 17.050000000000011 Q5.500000000000000 19.000000000000000 6.100000000000023 22.000000000000000 Q6.699999999999989 25.100000000000023 7.399999999999977 28.850000000000023 Q8.100000000000023 32.600000000000023 8.899999999999977 36.500000000000000 Q10.699999999999989 45.699999999999989 12.899999999999977 57.100000000000023 C24.566666666666663 57.100000000000023 39.149999999999977 57.100000000000023 47.899999999999977 57.100000000000023 C47.899999999999977 54.050000000000011 47.899999999999977 47.949999999999989 47.899999999999977 44.899999999999977 C41.574999999999989 44.899999999999977 28.925000000000011 44.899999999999977 22.600000000000023 44.899999999999977 C21.875000000000000 40.925000000000011 20.425000000000011 32.975000000000023 19.699999999999989 29.000000000000000 Q20.899999999999977 30.300000000000011 23.250000000000000 31.100000000000023 Q25.600000000000023 31.899999999999977 29.000000000000000 31.899999999999977 z" />
<glyph unicode="6" horiz-adv-x="60.700000000000003" d="M56.700000000000003 23.699999999999999 Q56.700000000000045 18.500000000000000 54.700000000000045 14.000000000000000 Q52.700000000000045 9.500000000000000 49.200000000000045 6.100000000000023 Q45.700000000000045 2.800000000000011 40.949999999999989 0.899999999999977 Q36.199999999999989 -1.000000000000000 30.699999999999989 -1.000000000000000 Q24.699999999999989 -1.000000000000000 19.850000000000023 1.199999999999989 Q15.000000000000000 3.399999999999977 11.600000000000023 7.600000000000023 Q8.199999999999989 11.800000000000011 6.399999999999977 17.850000000000023 Q4.600000000000023 23.899999999999977 4.600000000000023 31.600000000000023 Q4.600000000000023 41.300000000000011 6.500000000000000 48.750000000000000 Q8.399999999999977 56.199999999999989 12.000000000000000 61.199999999999989 Q15.600000000000023 66.300000000000011 20.699999999999989 68.900000000000006 Q25.800000000000011 71.500000000000000 32.100000000000023 71.500000000000000 Q38.800000000000011 71.500000000000000 44.450000000000045 68.599999999999994 Q50.100000000000023 65.699999999999989 54.000000000000000 60.300000000000011 C51.433333333333280 57.500000000000000 48.225000000000023 54.000000000000000 46.299999999999955 51.899999999999977 Q43.899999999999977 55.699999999999989 40.100000000000023 57.800000000000011 Q36.300000000000011 59.899999999999977 31.899999999999977 59.899999999999977 Q25.199999999999989 59.899999999999977 21.199999999999989 54.600000000000023 Q17.199999999999989 49.300000000000011 17.000000000000000 39.600000000000023 Q19.100000000000023 43.199999999999989 22.949999999999989 45.300000000000011 Q26.800000000000011 47.399999999999977 31.899999999999977 47.399999999999977 Q37.100000000000023 47.399999999999977 41.649999999999977 45.600000000000023 Q46.200000000000045 43.800000000000011 49.500000000000000 40.600000000000023 Q52.899999999999977 37.399999999999977 54.799999999999955 33.050000000000011 Q56.700000000000045 28.699999999999989 56.700000000000045 23.699999999999989 zM30.800000000000001 10.300000000000001 Q33.399999999999977 10.300000000000011 35.800000000000011 11.350000000000023 Q38.199999999999989 12.399999999999977 40.000000000000000 14.199999999999989 Q41.800000000000011 16.100000000000023 42.850000000000023 18.550000000000011 Q43.899999999999977 21.000000000000000 43.899999999999977 23.699999999999989 Q43.899999999999977 26.399999999999977 42.850000000000023 28.750000000000000 Q41.800000000000011 31.100000000000023 40.000000000000000 32.899999999999977 Q38.199999999999989 34.699999999999989 35.850000000000023 35.699999999999989 Q33.500000000000000 36.699999999999989 30.800000000000011 36.699999999999989 Q28.100000000000023 36.699999999999989 25.699999999999989 35.699999999999989 Q23.300000000000011 34.699999999999989 21.500000000000000 32.899999999999977 Q19.699999999999989 31.100000000000023 18.699999999999989 28.750000000000000 Q17.699999999999989 26.399999999999977 17.699999999999989 23.699999999999989 Q17.699999999999989 21.000000000000000 18.750000000000000 18.550000000000011 Q19.800000000000011 16.100000000000023 21.600000000000023 14.300000000000011 Q23.399999999999977 12.500000000000000 25.750000000000000 11.399999999999977 Q28.100000000000023 10.300000000000011 30.800000000000011 10.300000000000011 z" />
<glyph unicode="7" horiz-adv-x="56.100000000000001" d="M35.100000000000001 46.100000000000001 C27.024999999999977 46.100000000000023 10.875000000000000 46.100000000000023 2.800000000000011 46.100000000000023 C2.800000000000011 49.149999999999977 2.800000000000011 55.250000000000000 2.800000000000011 58.300000000000011 C16.149999999999977 58.300000000000011 42.850000000000023 58.300000000000011 56.200000000000045 58.300000000000011 C47.399999999999977 40.550000000000011 29.800000000000011 5.050000000000011 21.000000000000000 -12.699999999999989 C17.199999999999989 -12.699999999999989 9.600000000000023 -12.699999999999989 5.800000000000011 -12.699999999999989 C13.125000000000000 2.000000000000000 27.774999999999977 31.399999999999977 35.100000000000023 46.100000000000023 z" />
<glyph unicode="8" horiz-adv-x="60.399999999999999" d="M56.000000000000000 21.000000000000000 Q56.000000000000000 16.000000000000000 53.950000000000045 12.000000000000000 Q51.899999999999977 8.000000000000000 48.299999999999955 5.100000000000023 Q44.799999999999955 2.199999999999989 40.100000000000023 0.649999999999977 Q35.399999999999977 -0.899999999999977 30.100000000000023 -0.899999999999977 Q24.800000000000011 -0.899999999999977 20.100000000000023 0.750000000000000 Q15.399999999999977 2.399999999999977 11.899999999999977 5.399999999999977 Q8.399999999999977 8.399999999999977 6.399999999999977 12.500000000000000 Q4.399999999999977 16.600000000000023 4.399999999999977 21.500000000000000 Q4.399999999999977 24.500000000000000 5.399999999999977 27.050000000000011 Q6.399999999999977 29.600000000000023 8.000000000000000 31.699999999999989 Q9.600000000000023 33.800000000000011 11.550000000000011 35.399999999999977 Q13.500000000000000 37.000000000000000 15.500000000000000 38.000000000000000 Q11.800000000000011 39.800000000000011 9.199999999999989 43.399999999999977 Q6.600000000000023 47.000000000000000 6.600000000000023 51.300000000000011 Q6.600000000000023 56.100000000000023 8.750000000000000 59.750000000000000 Q10.899999999999977 63.400000000000006 14.300000000000011 65.900000000000006 Q17.800000000000011 68.400000000000006 21.949999999999989 69.699999999999989 Q26.100000000000023 71.000000000000000 30.199999999999989 71.000000000000000 Q34.199999999999989 71.000000000000000 38.449999999999989 69.750000000000000 Q42.699999999999989 68.500000000000000 46.100000000000023 66.000000000000000 Q49.500000000000000 63.500000000000000 51.700000000000045 59.850000000000023 Q53.899999999999977 56.199999999999989 53.899999999999977 51.399999999999977 Q53.899999999999977 49.300000000000011 53.200000000000045 47.250000000000000 Q52.500000000000000 45.199999999999989 51.200000000000045 43.399999999999977 Q50.000000000000000 41.699999999999989 48.299999999999955 40.300000000000011 Q46.600000000000023 38.899999999999977 44.700000000000045 38.000000000000000 Q46.899999999999977 36.899999999999977 48.899999999999977 35.250000000000000 Q50.899999999999977 33.600000000000023 52.500000000000000 31.399999999999977 Q54.100000000000023 29.300000000000011 55.049999999999955 26.699999999999989 Q56.000000000000000 24.100000000000023 56.000000000000000 21.000000000000000 zM42.399999999999999 21.800000000000001 Q42.399999999999977 24.300000000000011 41.350000000000023 26.300000000000011 Q40.300000000000011 28.300000000000011 38.500000000000000 29.600000000000023 Q36.800000000000011 31.000000000000000 34.600000000000023 31.699999999999989 Q32.399999999999977 32.399999999999977 30.100000000000023 32.399999999999977 Q27.699999999999989 32.399999999999977 25.500000000000000 31.649999999999977 Q23.300000000000011 30.899999999999977 21.600000000000023 29.500000000000000 Q20.000000000000000 28.100000000000023 19.000000000000000 26.149999999999977 Q18.000000000000000 24.199999999999989 18.000000000000000 21.800000000000011 Q18.000000000000000 19.399999999999977 19.050000000000011 17.449999999999989 Q20.100000000000023 15.500000000000000 21.800000000000011 14.100000000000023 Q23.500000000000000 12.699999999999989 25.699999999999989 11.949999999999989 Q27.899999999999977 11.199999999999989 30.199999999999989 11.199999999999989 Q32.600000000000023 11.199999999999989 34.800000000000011 12.000000000000000 Q37.000000000000000 12.800000000000011 38.699999999999989 14.199999999999989 Q40.399999999999977 15.600000000000023 41.399999999999977 17.550000000000011 Q42.399999999999977 19.500000000000000 42.399999999999977 21.800000000000011 zM20.199999999999999 50.899999999999999 Q20.199999999999989 48.800000000000011 21.100000000000023 47.250000000000000 Q22.000000000000000 45.699999999999989 23.399999999999977 44.600000000000023 Q24.899999999999977 43.600000000000023 26.649999999999977 43.050000000000011 Q28.399999999999977 42.500000000000000 30.199999999999989 42.500000000000000 Q31.899999999999977 42.500000000000000 33.699999999999989 43.050000000000011 Q35.500000000000000 43.600000000000023 36.899999999999977 44.699999999999989 Q38.399999999999977 45.800000000000011 39.300000000000011 47.350000000000023 Q40.199999999999989 48.899999999999977 40.199999999999989 51.000000000000000 Q40.199999999999989 54.699999999999989 37.250000000000000 56.899999999999977 Q34.300000000000011 59.100000000000023 30.100000000000023 59.100000000000023 Q26.000000000000000 59.100000000000023 23.100000000000023 56.850000000000023 Q20.199999999999989 54.600000000000023 20.199999999999989 50.899999999999977 z" />
<glyph unicode="9" horiz-adv-x="58.899999999999999" d="M3.200000000000000 32.399999999999999 Q3.199999999999989 37.600000000000023 5.199999999999989 42.100000000000023 Q7.199999999999989 46.600000000000023 10.600000000000023 49.899999999999977 Q14.100000000000023 53.300000000000011 18.850000000000023 55.199999999999989 Q23.600000000000023 57.100000000000023 29.100000000000023 57.100000000000023 Q35.100000000000023 57.100000000000023 39.949999999999989 54.899999999999977 Q44.799999999999955 52.699999999999989 48.200000000000045 48.500000000000000 Q51.600000000000023 44.300000000000011 53.450000000000045 38.250000000000000 Q55.299999999999955 32.199999999999989 55.299999999999955 24.500000000000000 Q55.299999999999955 14.800000000000011 53.350000000000023 7.350000000000023 Q51.399999999999977 -0.100000000000023 47.799999999999955 -5.100000000000023 Q44.299999999999955 -10.199999999999989 39.199999999999989 -12.800000000000011 Q34.100000000000023 -15.399999999999977 27.800000000000011 -15.399999999999977 Q21.100000000000023 -15.399999999999977 15.399999999999977 -12.500000000000000 Q9.699999999999989 -9.600000000000023 5.800000000000011 -4.199999999999989 C8.366666666666674 -1.399999999999977 11.574999999999989 2.100000000000023 13.500000000000000 4.199999999999989 Q15.899999999999977 0.399999999999977 19.699999999999989 -1.699999999999989 Q23.500000000000000 -3.800000000000011 28.000000000000000 -3.800000000000011 Q34.699999999999989 -3.800000000000011 38.649999999999977 1.500000000000000 Q42.600000000000023 6.800000000000011 42.800000000000011 16.500000000000000 Q40.800000000000011 12.899999999999977 36.899999999999977 10.800000000000011 Q33.000000000000000 8.699999999999989 27.899999999999977 8.699999999999989 Q22.600000000000023 8.699999999999989 18.100000000000023 10.500000000000000 Q13.600000000000023 12.300000000000011 10.300000000000011 15.500000000000000 Q7.000000000000000 18.699999999999989 5.100000000000023 23.050000000000011 Q3.199999999999989 27.399999999999977 3.199999999999989 32.399999999999977 zM29.100000000000001 45.799999999999997 Q26.399999999999977 45.800000000000011 24.050000000000011 44.750000000000000 Q21.699999999999989 43.699999999999989 19.899999999999977 41.800000000000011 Q18.100000000000023 40.000000000000000 17.050000000000011 37.550000000000011 Q16.000000000000000 35.100000000000023 16.000000000000000 32.399999999999977 Q16.000000000000000 29.699999999999989 17.050000000000011 27.350000000000023 Q18.100000000000023 25.000000000000000 19.800000000000011 23.199999999999989 Q21.600000000000023 21.399999999999977 24.000000000000000 20.399999999999977 Q26.399999999999977 19.399999999999977 29.100000000000023 19.399999999999977 Q31.800000000000011 19.399999999999977 34.199999999999989 20.399999999999977 Q36.600000000000023 21.399999999999977 38.300000000000011 23.199999999999989 Q40.100000000000023 25.000000000000000 41.149999999999977 27.350000000000023 Q42.199999999999989 29.699999999999989 42.199999999999989 32.399999999999977 Q42.199999999999989 35.100000000000023 41.149999999999977 37.550000000000011 Q40.100000000000023 40.000000000000000 38.300000000000011 41.800000000000011 Q36.500000000000000 43.600000000000023 34.149999999999977 44.699999999999989 Q31.800000000000011 45.800000000000011 29.100000000000023 45.800000000000011 z" />
<glyph unicode=":" horiz-adv-x="24.699999999999999" d="M6.900000000000000 37.399999999999999 C6.899999999999977 41.000000000000000 6.899999999999977 48.199999999999989 6.899999999999977 51.800000000000011 C9.625000000000000 51.800000000000011 15.074999999999989 51.800000000000011 17.800000000000011 51.800000000000011 C17.800000000000011 48.199999999999989 17.800000000000011 41.000000000000000 17.800000000000011 37.399999999999977 C15.074999999999989 37.399999999999977 9.625000000000000 37.399999999999977 6.899999999999977 37.399999999999977 zM6.900000000000000 0.000000000000000 C6.899999999999977 3.600000000000023 6.899999999999977 10.800000000000011 6.899999999999977 14.399999999999977 C9.625000000000000 14.399999999999977 15.074999999999989 14.399999999999977 17.800000000000011 14.399999999999977 C17.800000000000011 10.800000000000011 17.800000000000011 3.600000000000023 17.800000000000011 0.000000000000000 C15.074999999999989 0.000000000000000 9.625000000000000 0.000000000000000 6.899999999999977 0.000000000000000 z" />
<glyph unicode=";" horiz-adv-x="25.899999999999999" d="M7.200000000000000 37.399999999999999 C7.199999999999989 41.000000000000000 7.199999999999989 48.199999999999989 7.199999999999989 51.800000000000011 C9.949999999999989 51.800000000000011 15.449999999999989 51.800000000000011 18.199999999999989 51.800000000000011 C18.199999999999989 48.199999999999989 18.199999999999989 41.000000000000000 18.199999999999989 37.399999999999977 C15.449999999999989 37.399999999999977 9.949999999999989 37.399999999999977 7.199999999999989 37.399999999999977 zM8.600000000000000 -11.500000000000000 C9.274999999999977 -8.524999999999977 10.625000000000000 -2.574999999999989 11.300000000000011 0.399999999999977 C10.250000000000000 0.399999999999977 8.149999999999977 0.399999999999977 7.100000000000023 0.399999999999977 C7.100000000000023 3.899999999999977 7.100000000000023 10.899999999999977 7.100000000000023 14.399999999999977 C10.024999999999977 14.399999999999977 15.875000000000000 14.399999999999977 18.800000000000011 14.399999999999977 C18.800000000000011 10.899999999999977 18.800000000000011 3.899999999999977 18.800000000000011 0.399999999999977 C17.774999999999977 -2.574999999999989 15.725000000000023 -8.524999999999977 14.699999999999989 -11.500000000000000 C13.175000000000011 -11.500000000000000 10.125000000000000 -11.500000000000000 8.600000000000023 -11.500000000000000 z" />
<glyph unicode="&#x3c;" horiz-adv-x="51.5" d="M3.200000000000000 28.800000000000001 C13.750000000000000 35.175000000000011 34.850000000000023 47.925000000000011 45.399999999999977 54.300000000000011 C45.399999999999977 50.750000000000000 45.399999999999977 43.649999999999977 45.399999999999977 40.100000000000023 C39.725000000000023 36.550000000000011 28.375000000000000 29.449999999999989 22.699999999999989 25.899999999999977 C28.375000000000000 22.500000000000000 39.725000000000023 15.699999999999989 45.399999999999977 12.300000000000011 C45.399999999999977 8.550000000000011 45.399999999999977 1.050000000000011 45.399999999999977 -2.699999999999989 C34.850000000000023 3.550000000000011 13.750000000000000 16.050000000000011 3.199999999999989 22.300000000000011 C3.199999999999989 23.925000000000011 3.199999999999989 27.175000000000011 3.199999999999989 28.800000000000011 z" />
<glyph unicode="=" horiz-adv-x="43.600000000000001" d="M6.200000000000000 14.400000000000000 C6.199999999999989 16.574999999999989 6.199999999999989 20.925000000000011 6.199999999999989 23.100000000000023 C14.024999999999977 23.100000000000023 29.675000000000011 23.100000000000023 37.500000000000000 23.100000000000023 C37.500000000000000 20.925000000000011 37.500000000000000 16.574999999999989 37.500000000000000 14.399999999999977 C29.675000000000011 14.399999999999977 14.024999999999977 14.399999999999977 6.199999999999989 14.399999999999977 zM6.200000000000000 32.100000000000001 C6.199999999999989 34.274999999999977 6.199999999999989 38.625000000000000 6.199999999999989 40.800000000000011 C14.024999999999977 40.800000000000011 29.675000000000011 40.800000000000011 37.500000000000000 40.800000000000011 C37.500000000000000 38.625000000000000 37.500000000000000 34.274999999999977 37.500000000000000 32.100000000000023 C29.675000000000011 32.100000000000023 14.024999999999977 32.100000000000023 6.199999999999989 32.100000000000023 z" />
<glyph unicode="&#x3e;" horiz-adv-x="51.5" d="M48.299999999999997 22.300000000000001 C37.750000000000000 16.050000000000011 16.649999999999977 3.550000000000011 6.100000000000023 -2.699999999999989 C6.100000000000023 1.050000000000011 6.100000000000023 8.550000000000011 6.100000000000023 12.300000000000011 C11.774999999999977 15.699999999999989 23.125000000000000 22.500000000000000 28.800000000000011 25.899999999999977 C23.125000000000000 29.449999999999989 11.774999999999977 36.550000000000011 6.100000000000023 40.100000000000023 C6.100000000000023 43.649999999999977 6.100000000000023 50.750000000000000 6.100000000000023 54.300000000000011 C16.649999999999977 47.925000000000011 37.750000000000000 35.175000000000011 48.299999999999955 28.800000000000011 C48.299999999999955 27.175000000000011 48.299999999999955 23.925000000000011 48.299999999999955 22.300000000000011 z" />
<glyph unicode="?" horiz-adv-x="48.600000000000001" d="M12.199999999999999 23.300000000000001 Q12.199999999999989 28.199999999999989 13.800000000000011 32.100000000000023 Q15.399999999999977 36.000000000000000 20.399999999999977 38.899999999999977 Q21.899999999999977 39.800000000000011 24.100000000000023 40.949999999999989 Q26.300000000000011 42.100000000000023 28.399999999999977 43.699999999999989 Q30.500000000000000 45.300000000000011 31.949999999999989 47.449999999999989 Q33.399999999999977 49.600000000000023 33.399999999999977 52.399999999999977 Q33.399999999999977 54.500000000000000 32.600000000000023 56.100000000000023 Q31.800000000000011 57.699999999999989 30.500000000000000 58.800000000000011 Q29.199999999999989 59.899999999999977 27.449999999999989 60.449999999999989 Q25.699999999999989 61.000000000000000 23.899999999999977 61.000000000000000 Q21.699999999999989 61.000000000000000 19.899999999999977 60.250000000000000 Q18.100000000000023 59.500000000000000 16.600000000000023 58.300000000000011 Q15.199999999999989 57.199999999999989 14.050000000000011 55.750000000000000 Q12.899999999999977 54.300000000000011 12.100000000000023 53.000000000000000 C9.199999999999989 55.000000000000000 5.574999999999989 57.500000000000000 3.399999999999977 59.000000000000000 Q4.699999999999989 62.100000000000023 6.850000000000023 64.500000000000000 Q9.000000000000000 66.900000000000006 11.699999999999989 68.500000000000000 Q14.500000000000000 70.199999999999989 17.699999999999989 71.050000000000011 Q20.899999999999977 71.900000000000006 24.300000000000011 71.900000000000006 Q28.100000000000023 71.900000000000006 31.800000000000011 70.800000000000011 Q35.500000000000000 69.699999999999989 38.399999999999977 67.300000000000011 Q41.399999999999977 64.900000000000006 43.250000000000000 61.149999999999977 Q45.100000000000023 57.399999999999977 45.100000000000023 52.199999999999989 Q45.100000000000023 49.000000000000000 44.350000000000023 46.550000000000011 Q43.600000000000023 44.100000000000023 42.199999999999989 42.100000000000023 Q40.800000000000011 40.100000000000023 38.899999999999977 38.500000000000000 Q37.000000000000000 36.899999999999977 34.600000000000023 35.399999999999977 Q32.600000000000023 34.199999999999989 30.600000000000023 33.100000000000023 Q28.600000000000023 32.000000000000000 26.899999999999977 30.600000000000023 Q25.300000000000011 29.300000000000011 24.250000000000000 27.550000000000011 Q23.199999999999989 25.800000000000011 23.199999999999989 23.300000000000011 C19.533333333333303 23.300000000000011 14.949999999999989 23.300000000000011 12.199999999999989 23.300000000000011 zM12.400000000000000 0.000000000000000 C12.399999999999977 3.449999999999989 12.399999999999977 10.350000000000023 12.399999999999977 13.800000000000011 C15.175000000000011 13.800000000000011 20.725000000000023 13.800000000000011 23.500000000000000 13.800000000000011 C23.500000000000000 10.350000000000023 23.500000000000000 3.449999999999989 23.500000000000000 0.000000000000000 C20.725000000000023 0.000000000000000 15.175000000000011 0.000000000000000 12.399999999999977 0.000000000000000 z" />
<glyph unicode="@" horiz-adv-x="84.5" d="M42.200000000000003 60.299999999999997 Q49.500000000000000 60.300000000000011 56.250000000000000 57.800000000000011 Q63.000000000000000 55.300000000000011 68.200000000000045 50.500000000000000 Q73.399999999999977 45.699999999999989 76.450000000000045 38.600000000000023 Q79.500000000000000 31.500000000000000 79.500000000000000 22.199999999999989 Q79.500000000000000 20.800000000000011 79.350000000000023 18.449999999999989 Q79.200000000000045 16.100000000000023 78.700000000000045 13.500000000000000 Q78.200000000000045 10.899999999999977 77.200000000000045 8.199999999999989 Q76.200000000000045 5.500000000000000 74.500000000000000 3.300000000000011 Q72.799999999999955 1.100000000000023 70.250000000000000 -0.250000000000000 Q67.700000000000045 -1.600000000000023 64.100000000000023 -1.600000000000023 Q61.399999999999977 -1.600000000000023 59.649999999999977 -0.850000000000023 Q57.899999999999977 -0.100000000000023 56.799999999999955 1.100000000000023 Q55.799999999999955 2.300000000000011 55.299999999999955 3.750000000000000 Q54.799999999999955 5.199999999999989 54.600000000000023 6.600000000000023 Q51.500000000000000 3.500000000000000 47.100000000000023 1.649999999999977 Q42.699999999999989 -0.199999999999989 37.600000000000023 -0.199999999999989 Q30.100000000000023 -0.199999999999989 26.199999999999989 3.699999999999989 Q22.300000000000011 7.600000000000023 22.300000000000011 13.800000000000011 Q22.300000000000011 17.899999999999977 23.949999999999989 20.699999999999989 Q25.600000000000023 23.500000000000000 28.199999999999989 25.199999999999989 Q30.899999999999977 26.899999999999977 34.250000000000000 27.649999999999977 Q37.600000000000023 28.399999999999977 41.000000000000000 28.399999999999977 Q45.000000000000000 28.399999999999977 47.899999999999977 27.649999999999977 Q50.799999999999955 26.899999999999977 52.299999999999955 26.199999999999989 Q52.299999999999955 28.899999999999977 51.799999999999955 31.199999999999989 Q51.299999999999955 33.500000000000000 50.000000000000000 35.100000000000023 Q48.700000000000045 36.699999999999989 46.500000000000000 37.600000000000023 Q44.299999999999955 38.500000000000000 40.899999999999977 38.500000000000000 Q36.800000000000011 38.500000000000000 33.399999999999977 37.300000000000011 Q30.000000000000000 36.100000000000023 27.600000000000023 34.100000000000023 C26.733333333333348 36.466666666666697 25.649999999999977 39.425000000000011 25.000000000000000 41.199999999999989 Q32.600000000000023 46.199999999999989 42.199999999999989 46.199999999999989 Q48.700000000000045 46.199999999999989 52.350000000000023 44.199999999999989 Q56.000000000000000 42.199999999999989 57.700000000000045 39.100000000000023 Q59.500000000000000 36.100000000000023 59.899999999999977 32.399999999999977 Q60.299999999999955 28.699999999999989 60.299999999999955 25.300000000000011 C60.299999999999955 22.100000000000023 60.299999999999955 18.100000000000023 60.299999999999955 15.699999999999989 Q60.299999999999955 13.500000000000000 60.450000000000045 11.449999999999989 Q60.600000000000023 9.399999999999977 61.100000000000023 7.800000000000011 Q61.600000000000023 6.300000000000011 62.600000000000023 5.350000000000023 Q63.600000000000023 4.399999999999977 65.399999999999977 4.399999999999977 Q68.100000000000023 4.399999999999977 69.750000000000000 6.399999999999977 Q71.399999999999977 8.399999999999977 72.299999999999955 11.199999999999989 Q73.299999999999955 14.100000000000023 73.600000000000023 17.199999999999989 Q73.899999999999977 20.300000000000011 73.899999999999977 22.399999999999977 Q73.899999999999977 29.399999999999977 71.549999999999955 35.350000000000023 Q69.200000000000045 41.300000000000011 65.000000000000000 45.600000000000023 Q60.799999999999955 50.000000000000000 54.899999999999977 52.449999999999989 Q49.000000000000000 54.899999999999977 41.800000000000011 54.899999999999977 Q34.699999999999989 54.899999999999977 28.850000000000023 52.500000000000000 Q23.000000000000000 50.100000000000023 18.699999999999989 45.800000000000011 Q14.500000000000000 41.600000000000023 12.149999999999977 35.750000000000000 Q9.800000000000011 29.899999999999977 9.800000000000011 23.000000000000000 Q9.800000000000011 16.300000000000011 12.000000000000000 10.449999999999989 Q14.199999999999989 4.600000000000023 18.199999999999989 0.199999999999989 Q22.300000000000011 -4.100000000000023 28.000000000000000 -6.649999999999977 Q33.699999999999989 -9.199999999999989 40.699999999999989 -9.199999999999989 Q45.500000000000000 -9.199999999999989 49.000000000000000 -8.149999999999977 Q52.500000000000000 -7.100000000000023 56.299999999999955 -5.399999999999977 C56.833333333333371 -7.133333333333326 57.500000000000000 -9.300000000000011 57.899999999999977 -10.600000000000023 Q53.700000000000045 -12.600000000000023 49.299999999999955 -13.600000000000023 Q44.899999999999977 -14.600000000000023 40.500000000000000 -14.600000000000023 Q33.000000000000000 -14.600000000000023 26.399999999999977 -11.899999999999977 Q19.800000000000011 -9.199999999999989 14.800000000000011 -4.199999999999989 Q9.899999999999977 0.699999999999989 7.050000000000011 7.649999999999977 Q4.199999999999989 14.600000000000023 4.199999999999989 23.000000000000000 Q4.199999999999989 31.899999999999977 7.300000000000011 38.850000000000023 Q10.399999999999977 45.800000000000011 15.600000000000023 50.500000000000000 Q20.899999999999977 55.300000000000011 27.800000000000011 57.800000000000011 Q34.699999999999989 60.300000000000011 42.199999999999989 60.300000000000011 zM47.100000000000001 8.699999999999999 Q49.799999999999955 10.000000000000000 51.000000000000000 11.899999999999977 Q52.200000000000045 13.800000000000011 52.200000000000045 16.100000000000023 C52.200000000000045 17.366666666666674 52.200000000000045 18.949999999999989 52.200000000000045 19.899999999999977 Q50.799999999999955 20.399999999999977 47.799999999999955 21.199999999999989 Q44.799999999999955 22.000000000000000 41.000000000000000 22.000000000000000 Q36.300000000000011 22.000000000000000 33.300000000000011 20.199999999999989 Q30.300000000000011 18.399999999999977 30.300000000000011 14.100000000000023 Q30.300000000000011 10.699999999999989 32.449999999999989 8.699999999999989 Q34.600000000000023 6.699999999999989 38.399999999999977 6.699999999999989 Q40.399999999999977 6.699999999999989 42.800000000000011 7.199999999999989 Q45.200000000000045 7.699999999999989 47.100000000000023 8.699999999999989 z" />
<glyph unicode="A" horiz-adv-x="67.200000000000003" d="M27.600000000000001 71.000000000000000 C30.649999999999977 71.000000000000000 36.750000000000000 71.000000000000000 39.800000000000011 71.000000000000000 C46.549999999999955 53.250000000000000 60.049999999999955 17.750000000000000 66.799999999999955 0.000000000000000 C63.250000000000000 0.000000000000000 56.149999999999977 0.000000000000000 52.600000000000023 0.000000000000000 C50.950000000000045 4.425000000000011 47.649999999999977 13.274999999999977 46.000000000000000 17.699999999999989 C39.800000000000011 17.699999999999989 27.399999999999977 17.699999999999989 21.199999999999989 17.699999999999989 C19.574999999999989 13.274999999999977 16.324999999999989 4.425000000000011 14.699999999999989 0.000000000000000 C11.149999999999977 0.000000000000000 4.050000000000011 0.000000000000000 0.500000000000000 0.000000000000000 C7.274999999999977 17.750000000000000 20.824999999999989 53.250000000000000 27.600000000000023 71.000000000000000 zM43.500000000000000 27.399999999999999 C41.050000000000011 34.375000000000000 36.149999999999977 48.324999999999989 33.699999999999989 55.300000000000011 C31.149999999999977 48.324999999999989 26.050000000000011 34.375000000000000 23.500000000000000 27.399999999999977 C28.500000000000000 27.399999999999977 38.500000000000000 27.399999999999977 43.500000000000000 27.399999999999977 z" />
<glyph unicode="B" horiz-adv-x="68" d="M64.599999999999994 18.300000000000001 Q64.600000000000023 13.800000000000011 62.799999999999955 10.399999999999977 Q61.000000000000000 7.000000000000000 57.799999999999955 4.699999999999989 Q54.700000000000045 2.399999999999977 50.549999999999955 1.199999999999989 Q46.399999999999977 0.000000000000000 41.699999999999989 0.000000000000000 C30.266666666666652 0.000000000000000 15.975000000000023 0.000000000000000 7.399999999999977 0.000000000000000 C7.399999999999977 17.750000000000000 7.399999999999977 53.250000000000000 7.399999999999977 71.000000000000000 C16.899999999999977 71.000000000000000 35.899999999999977 71.000000000000000 45.399999999999977 71.000000000000000 Q49.100000000000023 71.000000000000000 52.100000000000023 69.400000000000006 Q55.100000000000023 67.800000000000011 57.200000000000045 65.199999999999989 Q59.299999999999955 62.699999999999989 60.450000000000045 59.449999999999989 Q61.600000000000023 56.199999999999989 61.600000000000023 52.899999999999977 Q61.600000000000023 47.699999999999989 59.000000000000000 43.149999999999977 Q56.399999999999977 38.600000000000023 51.399999999999977 36.399999999999977 Q57.500000000000000 34.600000000000023 61.049999999999955 29.949999999999989 Q64.600000000000023 25.300000000000011 64.600000000000023 18.300000000000011 zM50.700000000000003 20.899999999999999 Q50.700000000000045 22.800000000000011 50.049999999999955 24.550000000000011 Q49.399999999999977 26.300000000000011 48.299999999999955 27.600000000000023 Q47.200000000000045 28.899999999999977 45.700000000000045 29.649999999999977 Q44.200000000000045 30.399999999999977 42.399999999999977 30.399999999999977 C35.333333333333314 30.399999999999977 26.500000000000000 30.399999999999977 21.199999999999989 30.399999999999977 C21.199999999999989 25.725000000000023 21.199999999999989 16.375000000000000 21.199999999999989 11.699999999999989 C26.324999999999989 11.699999999999989 36.574999999999989 11.699999999999989 41.699999999999989 11.699999999999989 Q43.600000000000023 11.699999999999989 45.250000000000000 12.399999999999977 Q46.899999999999977 13.100000000000023 48.100000000000023 14.300000000000011 Q49.299999999999955 15.600000000000023 50.000000000000000 17.300000000000011 Q50.700000000000045 19.000000000000000 50.700000000000045 20.899999999999977 zM21.199999999999999 59.200000000000003 C21.199999999999989 54.725000000000023 21.199999999999989 45.774999999999977 21.199999999999989 41.300000000000011 C25.800000000000011 41.300000000000011 35.000000000000000 41.300000000000011 39.600000000000023 41.300000000000011 Q43.100000000000023 41.300000000000011 45.549999999999955 43.699999999999989 Q48.000000000000000 46.100000000000023 48.000000000000000 50.300000000000011 Q48.000000000000000 54.399999999999977 45.750000000000000 56.800000000000011 Q43.500000000000000 59.199999999999989 40.199999999999989 59.199999999999989 C33.866666666666674 59.199999999999989 25.949999999999989 59.199999999999989 21.199999999999989 59.199999999999989 z" />
<glyph unicode="C" horiz-adv-x="68.599999999999994" d="M3.100000000000000 36.000000000000000 Q3.100000000000023 42.500000000000000 5.449999999999989 48.850000000000023 Q7.800000000000011 55.199999999999989 12.300000000000011 60.199999999999989 Q16.800000000000011 65.199999999999989 23.300000000000011 68.300000000000011 Q29.800000000000011 71.400000000000006 38.100000000000023 71.400000000000006 Q47.899999999999977 71.400000000000006 55.049999999999955 67.099999999999994 Q62.200000000000045 62.800000000000011 65.700000000000045 55.899999999999977 C62.166666666666629 53.466666666666697 57.750000000000000 50.425000000000011 55.100000000000023 48.600000000000023 Q53.700000000000045 51.600000000000023 51.700000000000045 53.649999999999977 Q49.700000000000045 55.699999999999989 47.399999999999977 56.899999999999977 Q45.100000000000023 58.100000000000023 42.600000000000023 58.649999999999977 Q40.100000000000023 59.199999999999989 37.699999999999989 59.199999999999989 Q32.500000000000000 59.199999999999989 28.649999999999977 57.100000000000023 Q24.800000000000011 55.000000000000000 22.199999999999989 51.600000000000023 Q19.699999999999989 48.300000000000011 18.399999999999977 44.050000000000011 Q17.100000000000023 39.800000000000011 17.100000000000023 35.600000000000023 Q17.100000000000023 30.899999999999977 18.600000000000023 26.550000000000011 Q20.100000000000023 22.199999999999989 22.800000000000011 18.899999999999977 Q25.600000000000023 15.600000000000023 29.449999999999989 13.600000000000023 Q33.300000000000011 11.600000000000023 37.899999999999977 11.600000000000023 Q40.300000000000011 11.600000000000023 42.899999999999977 12.199999999999989 Q45.500000000000000 12.800000000000011 47.799999999999955 14.100000000000023 Q50.200000000000045 15.399999999999977 52.200000000000045 17.449999999999989 Q54.200000000000045 19.500000000000000 55.399999999999977 22.399999999999977 C59.166666666666629 20.233333333333348 63.875000000000000 17.524999999999977 66.700000000000045 15.899999999999977 Q65.000000000000000 11.899999999999977 61.850000000000023 8.850000000000023 Q58.700000000000045 5.800000000000011 54.700000000000045 3.699999999999989 Q50.799999999999955 1.600000000000023 46.299999999999955 0.500000000000000 Q41.800000000000011 -0.600000000000023 37.500000000000000 -0.600000000000023 Q29.899999999999977 -0.600000000000023 23.600000000000023 2.600000000000023 Q17.300000000000011 5.800000000000011 12.699999999999989 10.899999999999977 Q8.199999999999989 16.100000000000023 5.649999999999977 22.649999999999977 Q3.100000000000023 29.199999999999989 3.100000000000023 36.000000000000000 z" />
<glyph unicode="D" horiz-adv-x="71.599999999999994" d="M7.400000000000000 0.000000000000000 C7.399999999999977 17.750000000000000 7.399999999999977 53.250000000000000 7.399999999999977 71.000000000000000 C13.850000000000023 71.000000000000000 26.750000000000000 71.000000000000000 33.199999999999989 71.000000000000000 Q41.899999999999977 71.000000000000000 48.450000000000045 68.199999999999989 Q55.000000000000000 65.400000000000006 59.399999999999977 60.600000000000023 Q63.799999999999955 55.800000000000011 66.000000000000000 49.350000000000023 Q68.200000000000045 42.899999999999977 68.200000000000045 35.600000000000023 Q68.200000000000045 27.500000000000000 65.750000000000000 20.949999999999989 Q63.299999999999955 14.399999999999977 58.700000000000045 9.699999999999989 Q54.100000000000023 5.100000000000023 47.649999999999977 2.550000000000011 Q41.199999999999989 0.000000000000000 33.199999999999989 0.000000000000000 C24.600000000000023 0.000000000000000 13.850000000000023 0.000000000000000 7.399999999999977 0.000000000000000 zM54.299999999999997 35.600000000000001 Q54.299999999999955 40.699999999999989 52.899999999999977 45.000000000000000 Q51.500000000000000 49.300000000000011 48.799999999999955 52.399999999999977 Q46.100000000000023 55.500000000000000 42.149999999999977 57.199999999999989 Q38.199999999999989 58.899999999999977 33.199999999999989 58.899999999999977 C29.199999999999989 58.899999999999977 24.199999999999989 58.899999999999977 21.199999999999989 58.899999999999977 C21.199999999999989 47.199999999999989 21.199999999999989 23.800000000000011 21.199999999999989 12.100000000000023 C24.199999999999989 12.100000000000023 30.199999999999989 12.100000000000023 33.199999999999989 12.100000000000023 Q38.300000000000011 12.100000000000023 42.250000000000000 13.899999999999977 Q46.200000000000045 15.699999999999989 48.799999999999955 18.800000000000011 Q51.500000000000000 22.000000000000000 52.899999999999977 26.300000000000011 Q54.299999999999955 30.600000000000023 54.299999999999955 35.600000000000023 z" />
<glyph unicode="E" horiz-adv-x="60.100000000000001" d="M56.700000000000003 12.100000000000000 C56.700000000000045 9.074999999999989 56.700000000000045 3.024999999999977 56.700000000000045 0.000000000000000 C44.375000000000000 0.000000000000000 19.725000000000023 0.000000000000000 7.399999999999977 0.000000000000000 C7.399999999999977 17.750000000000000 7.399999999999977 53.250000000000000 7.399999999999977 71.000000000000000 C19.500000000000000 71.000000000000000 43.700000000000045 71.000000000000000 55.799999999999955 71.000000000000000 C55.799999999999955 67.974999999999994 55.799999999999955 61.925000000000011 55.799999999999955 58.899999999999977 C47.149999999999977 58.899999999999977 29.850000000000023 58.899999999999977 21.199999999999989 58.899999999999977 C21.199999999999989 54.625000000000000 21.199999999999989 46.074999999999989 21.199999999999989 41.800000000000011 C28.675000000000011 41.800000000000011 43.625000000000000 41.800000000000011 51.100000000000023 41.800000000000011 C51.100000000000023 39.000000000000000 51.100000000000023 33.399999999999977 51.100000000000023 30.600000000000023 C43.625000000000000 30.600000000000023 28.675000000000011 30.600000000000023 21.199999999999989 30.600000000000023 C21.199999999999989 25.975000000000023 21.199999999999989 16.725000000000023 21.199999999999989 12.100000000000023 C30.074999999999989 12.100000000000023 47.825000000000045 12.100000000000023 56.700000000000045 12.100000000000023 z" />
<glyph unicode="F" horiz-adv-x="57.399999999999999" d="M7.400000000000000 0.000000000000000 C7.399999999999977 17.750000000000000 7.399999999999977 53.250000000000000 7.399999999999977 71.000000000000000 C19.324999999999989 71.000000000000000 43.174999999999955 71.000000000000000 55.100000000000023 71.000000000000000 C55.100000000000023 67.974999999999994 55.100000000000023 61.925000000000011 55.100000000000023 58.899999999999977 C46.625000000000000 58.899999999999977 29.675000000000011 58.899999999999977 21.199999999999989 58.899999999999977 C21.199999999999989 54.324999999999989 21.199999999999989 45.175000000000011 21.199999999999989 40.600000000000023 C28.250000000000000 40.600000000000023 42.350000000000023 40.600000000000023 49.399999999999977 40.600000000000023 C49.399999999999977 37.800000000000011 49.399999999999977 32.199999999999989 49.399999999999977 29.399999999999977 C42.350000000000023 29.399999999999977 28.250000000000000 29.399999999999977 21.199999999999989 29.399999999999977 C21.199999999999989 22.050000000000011 21.199999999999989 7.350000000000023 21.199999999999989 0.000000000000000 C17.750000000000000 0.000000000000000 10.850000000000023 0.000000000000000 7.399999999999977 0.000000000000000 z" />
<glyph unicode="G" horiz-adv-x="72.5" d="M56.700000000000003 8.000000000000000 Q48.200000000000045 -0.500000000000000 36.899999999999977 -0.500000000000000 Q29.899999999999977 -0.500000000000000 23.750000000000000 2.300000000000011 Q17.600000000000023 5.100000000000023 13.000000000000000 10.000000000000000 Q8.500000000000000 14.899999999999977 5.850000000000023 21.550000000000011 Q3.199999999999989 28.199999999999989 3.199999999999989 35.899999999999977 Q3.199999999999989 43.199999999999989 5.850000000000023 49.649999999999977 Q8.500000000000000 56.100000000000023 13.100000000000023 60.899999999999977 Q17.800000000000011 65.800000000000011 24.100000000000023 68.650000000000006 Q30.399999999999977 71.500000000000000 37.800000000000011 71.500000000000000 Q47.799999999999955 71.500000000000000 54.950000000000045 67.300000000000011 Q62.100000000000023 63.099999999999994 65.700000000000045 56.000000000000000 C62.266666666666652 53.466666666666697 57.975000000000023 50.300000000000011 55.399999999999977 48.399999999999977 Q52.700000000000045 53.699999999999989 47.850000000000023 56.500000000000000 Q43.000000000000000 59.300000000000011 37.300000000000011 59.300000000000011 Q32.800000000000011 59.300000000000011 29.050000000000011 57.399999999999977 Q25.300000000000011 55.500000000000000 22.600000000000023 52.199999999999989 Q20.000000000000000 48.899999999999977 18.550000000000011 44.600000000000023 Q17.100000000000023 40.300000000000011 17.100000000000023 35.500000000000000 Q17.100000000000023 30.500000000000000 18.699999999999989 26.149999999999977 Q20.300000000000011 21.800000000000011 23.100000000000023 18.600000000000023 Q25.899999999999977 15.399999999999977 29.750000000000000 13.550000000000011 Q33.600000000000023 11.699999999999989 38.100000000000023 11.699999999999989 Q48.399999999999977 11.699999999999989 56.700000000000045 21.399999999999977 C56.700000000000045 23.066666666666663 56.700000000000045 25.149999999999977 56.700000000000045 26.399999999999977 C53.125000000000000 26.399999999999977 45.975000000000023 26.399999999999977 42.399999999999977 26.399999999999977 C42.399999999999977 28.925000000000011 42.399999999999977 33.975000000000023 42.399999999999977 36.500000000000000 C48.825000000000045 36.500000000000000 61.674999999999955 36.500000000000000 68.100000000000023 36.500000000000000 C68.100000000000023 27.375000000000000 68.100000000000023 9.125000000000000 68.100000000000023 0.000000000000000 C65.250000000000000 0.000000000000000 59.549999999999955 0.000000000000000 56.700000000000045 0.000000000000000 C56.700000000000045 2.000000000000000 56.700000000000045 6.000000000000000 56.700000000000045 8.000000000000000 z" />
<glyph unicode="H" horiz-adv-x="74.5" d="M67.099999999999994 71.000000000000000 C67.100000000000023 53.250000000000000 67.100000000000023 17.750000000000000 67.100000000000023 0.000000000000000 C63.674999999999955 0.000000000000000 56.825000000000045 0.000000000000000 53.399999999999977 0.000000000000000 C53.399999999999977 7.574999999999989 53.399999999999977 22.725000000000023 53.399999999999977 30.300000000000011 C45.350000000000023 30.300000000000011 29.250000000000000 30.300000000000011 21.199999999999989 30.300000000000011 C21.199999999999989 22.725000000000023 21.199999999999989 7.574999999999989 21.199999999999989 0.000000000000000 C17.750000000000000 0.000000000000000 10.850000000000023 0.000000000000000 7.399999999999977 0.000000000000000 C7.399999999999977 17.750000000000000 7.399999999999977 53.250000000000000 7.399999999999977 71.000000000000000 C10.850000000000023 71.000000000000000 17.750000000000000 71.000000000000000 21.199999999999989 71.000000000000000 C21.199999999999989 63.824999999999989 21.199999999999989 49.475000000000023 21.199999999999989 42.300000000000011 C29.250000000000000 42.300000000000011 45.350000000000023 42.300000000000011 53.399999999999977 42.300000000000011 C53.399999999999977 49.475000000000023 53.399999999999977 63.824999999999989 53.399999999999977 71.000000000000000 C56.825000000000045 71.000000000000000 63.674999999999955 71.000000000000000 67.100000000000023 71.000000000000000 z" />
<glyph unicode="I" horiz-adv-x="28.600000000000001" d="M7.400000000000000 0.000000000000000 C7.399999999999977 17.750000000000000 7.399999999999977 53.250000000000000 7.399999999999977 71.000000000000000 C10.850000000000023 71.000000000000000 17.750000000000000 71.000000000000000 21.199999999999989 71.000000000000000 C21.199999999999989 53.250000000000000 21.199999999999989 17.750000000000000 21.199999999999989 0.000000000000000 C17.750000000000000 0.000000000000000 10.850000000000023 0.000000000000000 7.399999999999977 0.000000000000000 z" />
<glyph unicode="J" horiz-adv-x="49.100000000000001" d="M3.800000000000000 14.500000000000000 Q5.199999999999989 13.500000000000000 8.500000000000000 12.300000000000011 Q11.800000000000011 11.100000000000023 16.100000000000023 11.100000000000023 Q20.300000000000011 11.100000000000023 22.800000000000011 12.550000000000011 Q25.300000000000011 14.000000000000000 26.600000000000023 17.000000000000000 Q27.899999999999977 20.000000000000000 28.300000000000011 24.449999999999989 Q28.699999999999989 28.899999999999977 28.699999999999989 34.899999999999977 C28.699999999999989 46.933333333333337 28.699999999999989 61.975000000000023 28.699999999999989 71.000000000000000 C32.149999999999977 71.000000000000000 39.050000000000011 71.000000000000000 42.500000000000000 71.000000000000000 C42.500000000000000 61.975000000000023 42.500000000000000 43.925000000000011 42.500000000000000 34.899999999999977 Q42.500000000000000 26.800000000000011 41.649999999999977 20.149999999999977 Q40.800000000000011 13.500000000000000 38.000000000000000 8.800000000000011 Q35.300000000000011 4.100000000000023 30.100000000000023 1.500000000000000 Q24.899999999999977 -1.100000000000023 16.100000000000023 -1.100000000000023 Q7.100000000000023 -1.100000000000023 0.699999999999989 3.300000000000011 C1.733333333333348 7.033333333333360 3.024999999999977 11.699999999999989 3.800000000000011 14.500000000000000 z" />
<glyph unicode="K" horiz-adv-x="66.900000000000006" d="M7.400000000000000 0.000000000000000 C7.399999999999977 17.725000000000023 7.399999999999977 53.175000000000011 7.399999999999977 70.900000000000006 C10.850000000000023 70.900000000000006 17.750000000000000 70.900000000000006 21.199999999999989 70.900000000000006 C21.199999999999989 62.475000000000023 21.199999999999989 45.625000000000000 21.199999999999989 37.199999999999989 C28.649999999999977 45.649999999999977 43.549999999999955 62.550000000000011 51.000000000000000 71.000000000000000 C54.799999999999955 71.000000000000000 62.399999999999977 71.000000000000000 66.200000000000045 71.000000000000000 C59.399999999999977 63.125000000000000 45.799999999999955 47.375000000000000 39.000000000000000 39.500000000000000 C46.225000000000023 29.625000000000000 60.674999999999955 9.875000000000000 67.899999999999977 0.000000000000000 C64.024999999999977 0.000000000000000 56.274999999999977 0.000000000000000 52.399999999999977 0.000000000000000 C46.875000000000000 7.675000000000011 35.824999999999989 23.024999999999977 30.300000000000011 30.699999999999989 C28.024999999999977 28.324999999999989 23.475000000000023 23.574999999999989 21.199999999999989 21.199999999999989 C21.199999999999989 15.899999999999977 21.199999999999989 5.300000000000011 21.199999999999989 0.000000000000000 C17.750000000000000 0.000000000000000 10.850000000000023 0.000000000000000 7.399999999999977 0.000000000000000 z" />
<glyph unicode="L" horiz-adv-x="58.399999999999999" d="M7.400000000000000 0.000000000000000 C7.399999999999977 17.750000000000000 7.399999999999977 53.250000000000000 7.399999999999977 71.000000000000000 C10.850000000000023 71.000000000000000 17.750000000000000 71.000000000000000 21.199999999999989 71.000000000000000 C21.199999999999989 56.274999999999977 21.199999999999989 26.824999999999989 21.199999999999989 12.100000000000023 C30.250000000000000 12.100000000000023 48.350000000000023 12.100000000000023 57.399999999999977 12.100000000000023 C57.399999999999977 9.074999999999989 57.399999999999977 3.024999999999977 57.399999999999977 0.000000000000000 C44.899999999999977 0.000000000000000 19.899999999999977 0.000000000000000 7.399999999999977 0.000000000000000 z" />
<glyph unicode="M" horiz-adv-x="86.5" d="M65.299999999999997 0.000000000000000 C65.299999999999955 11.750000000000000 65.299999999999955 35.250000000000000 65.299999999999955 47.000000000000000 C60.725000000000023 38.250000000000000 51.575000000000045 20.750000000000000 47.000000000000000 12.000000000000000 C45.125000000000000 12.000000000000000 41.375000000000000 12.000000000000000 39.500000000000000 12.000000000000000 C34.925000000000011 20.750000000000000 25.774999999999977 38.250000000000000 21.199999999999989 47.000000000000000 C21.199999999999989 35.250000000000000 21.199999999999989 11.750000000000000 21.199999999999989 0.000000000000000 C17.750000000000000 0.000000000000000 10.850000000000023 0.000000000000000 7.399999999999977 0.000000000000000 C7.399999999999977 17.750000000000000 7.399999999999977 53.250000000000000 7.399999999999977 71.000000000000000 C11.100000000000023 71.000000000000000 18.500000000000000 71.000000000000000 22.199999999999989 71.000000000000000 C27.449999999999989 60.899999999999977 37.949999999999989 40.699999999999989 43.200000000000045 30.600000000000023 C48.500000000000000 40.699999999999989 59.100000000000023 60.899999999999977 64.399999999999977 71.000000000000000 C68.075000000000045 71.000000000000000 75.424999999999955 71.000000000000000 79.100000000000023 71.000000000000000 C79.100000000000023 53.250000000000000 79.100000000000023 17.750000000000000 79.100000000000023 0.000000000000000 C75.649999999999977 0.000000000000000 68.750000000000000 0.000000000000000 65.299999999999955 0.000000000000000 z" />
<glyph unicode="N" horiz-adv-x="76.299999999999997" d="M21.199999999999999 45.500000000000000 C21.199999999999989 34.125000000000000 21.199999999999989 11.375000000000000 21.199999999999989 0.000000000000000 C17.750000000000000 0.000000000000000 10.850000000000023 0.000000000000000 7.399999999999977 0.000000000000000 C7.399999999999977 17.750000000000000 7.399999999999977 53.250000000000000 7.399999999999977 71.000000000000000 C10.074999999999989 71.000000000000000 15.425000000000011 71.000000000000000 18.100000000000023 71.000000000000000 C27.350000000000023 59.350000000000023 45.850000000000023 36.050000000000011 55.100000000000023 24.399999999999977 C55.100000000000023 36.024999999999977 55.100000000000023 59.274999999999977 55.100000000000023 70.900000000000006 C58.549999999999955 70.900000000000006 65.450000000000045 70.900000000000006 68.899999999999977 70.900000000000006 C68.899999999999977 53.175000000000011 68.899999999999977 17.725000000000023 68.899999999999977 0.000000000000000 C66.100000000000023 0.000000000000000 60.500000000000000 0.000000000000000 57.700000000000045 0.000000000000000 C48.575000000000045 11.375000000000000 30.324999999999989 34.125000000000000 21.199999999999989 45.500000000000000 z" />
<glyph unicode="O" horiz-adv-x="75.599999999999994" d="M37.700000000000003 -0.500000000000000 Q29.899999999999977 -0.500000000000000 23.550000000000011 2.550000000000011 Q17.199999999999989 5.600000000000023 12.600000000000023 10.600000000000023 Q8.100000000000023 15.699999999999989 5.600000000000023 22.199999999999989 Q3.100000000000023 28.699999999999989 3.100000000000023 35.500000000000000 Q3.100000000000023 42.600000000000023 5.750000000000000 49.100000000000023 Q8.399999999999977 55.600000000000023 13.000000000000000 60.600000000000023 Q17.699999999999989 65.599999999999994 24.100000000000023 68.550000000000011 Q30.500000000000000 71.500000000000000 38.000000000000000 71.500000000000000 Q45.700000000000045 71.500000000000000 52.049999999999955 68.349999999999994 Q58.399999999999977 65.199999999999989 62.899999999999977 60.100000000000023 Q67.399999999999977 55.000000000000000 69.899999999999977 48.500000000000000 Q72.399999999999977 42.000000000000000 72.399999999999977 35.300000000000011 Q72.399999999999977 28.199999999999989 69.799999999999955 21.750000000000000 Q67.200000000000045 15.300000000000011 62.600000000000023 10.300000000000011 Q58.000000000000000 5.399999999999977 51.600000000000023 2.449999999999989 Q45.200000000000045 -0.500000000000000 37.699999999999989 -0.500000000000000 zM17.100000000000001 35.500000000000000 Q17.100000000000023 30.899999999999977 18.500000000000000 26.600000000000023 Q19.899999999999977 22.300000000000011 22.500000000000000 19.000000000000000 Q25.199999999999989 15.699999999999989 29.050000000000011 13.699999999999989 Q32.899999999999977 11.699999999999989 37.800000000000011 11.699999999999989 Q42.800000000000011 11.699999999999989 46.649999999999977 13.750000000000000 Q50.500000000000000 15.800000000000011 53.100000000000023 19.199999999999989 Q55.799999999999955 22.600000000000023 57.149999999999977 26.850000000000023 Q58.500000000000000 31.100000000000023 58.500000000000000 35.500000000000000 Q58.500000000000000 40.100000000000023 57.049999999999955 44.399999999999977 Q55.600000000000023 48.699999999999989 52.899999999999977 52.000000000000000 Q50.299999999999955 55.300000000000011 46.450000000000045 57.250000000000000 Q42.600000000000023 59.199999999999989 37.800000000000011 59.199999999999989 Q32.800000000000011 59.199999999999989 28.899999999999977 57.149999999999977 Q25.000000000000000 55.100000000000023 22.399999999999977 51.699999999999989 Q19.800000000000011 48.399999999999977 18.449999999999989 44.149999999999977 Q17.100000000000023 39.899999999999977 17.100000000000023 35.500000000000000 z" />
<glyph unicode="P" horiz-adv-x="62.299999999999997" d="M7.400000000000000 0.000000000000000 C7.399999999999977 17.750000000000000 7.399999999999977 53.250000000000000 7.399999999999977 71.000000000000000 C14.925000000000011 71.000000000000000 29.975000000000023 71.000000000000000 37.500000000000000 71.000000000000000 Q42.399999999999977 71.000000000000000 46.549999999999955 68.949999999999989 Q50.700000000000045 66.900000000000006 53.700000000000045 63.500000000000000 Q56.700000000000045 60.199999999999989 58.399999999999977 55.949999999999989 Q60.100000000000023 51.699999999999989 60.100000000000023 47.399999999999977 Q60.100000000000023 42.899999999999977 58.500000000000000 38.649999999999977 Q56.899999999999977 34.399999999999977 54.000000000000000 31.100000000000023 Q51.100000000000023 27.800000000000011 47.000000000000000 25.800000000000011 Q42.899999999999977 23.800000000000011 38.000000000000000 23.800000000000011 C32.399999999999977 23.800000000000011 25.399999999999977 23.800000000000011 21.199999999999989 23.800000000000011 C21.199999999999989 17.850000000000023 21.199999999999989 5.949999999999989 21.199999999999989 0.000000000000000 C17.750000000000000 0.000000000000000 10.850000000000023 0.000000000000000 7.399999999999977 0.000000000000000 zM21.199999999999999 35.899999999999999 C25.199999999999989 35.899999999999977 33.199999999999989 35.899999999999977 37.199999999999989 35.899999999999977 Q41.000000000000000 35.899999999999977 43.549999999999955 39.000000000000000 Q46.100000000000023 42.100000000000023 46.100000000000023 47.399999999999977 Q46.100000000000023 50.100000000000023 45.299999999999955 52.250000000000000 Q44.500000000000000 54.399999999999977 43.200000000000045 55.899999999999977 Q41.899999999999977 57.399999999999977 40.149999999999977 58.149999999999977 Q38.399999999999977 58.899999999999977 36.600000000000023 58.899999999999977 C31.466666666666697 58.899999999999977 25.050000000000011 58.899999999999977 21.199999999999989 58.899999999999977 C21.199999999999989 53.149999999999977 21.199999999999989 41.649999999999977 21.199999999999989 35.899999999999977 z" />
<glyph unicode="Q" horiz-adv-x="75.5" d="M55.700000000000003 4.600000000000000 Q51.799999999999955 2.199999999999989 47.299999999999955 0.850000000000023 Q42.800000000000011 -0.500000000000000 37.699999999999989 -0.500000000000000 Q29.899999999999977 -0.500000000000000 23.550000000000011 2.600000000000023 Q17.199999999999989 5.699999999999989 12.600000000000023 10.699999999999989 Q8.100000000000023 15.699999999999989 5.600000000000023 22.199999999999989 Q3.100000000000023 28.699999999999989 3.100000000000023 35.500000000000000 Q3.100000000000023 42.600000000000023 5.750000000000000 49.100000000000023 Q8.399999999999977 55.600000000000023 13.000000000000000 60.600000000000023 Q17.699999999999989 65.599999999999994 24.100000000000023 68.550000000000011 Q30.500000000000000 71.500000000000000 38.000000000000000 71.500000000000000 Q45.700000000000045 71.500000000000000 52.049999999999955 68.349999999999994 Q58.399999999999977 65.199999999999989 62.899999999999977 60.100000000000023 Q67.399999999999977 55.000000000000000 69.899999999999977 48.500000000000000 Q72.399999999999977 42.000000000000000 72.399999999999977 35.300000000000011 Q72.399999999999977 28.399999999999977 69.950000000000045 22.100000000000023 Q67.500000000000000 15.800000000000011 63.100000000000023 10.899999999999977 C66.333333333333371 7.266666666666652 70.375000000000000 2.725000000000023 72.799999999999955 0.000000000000000 C69.549999999999955 0.000000000000000 63.049999999999955 0.000000000000000 59.799999999999955 0.000000000000000 C58.774999999999977 1.149999999999977 56.725000000000023 3.449999999999989 55.700000000000045 4.600000000000023 zM37.799999999999997 11.699999999999999 Q40.500000000000000 11.699999999999989 42.850000000000023 12.350000000000023 Q45.200000000000045 13.000000000000000 47.200000000000045 14.100000000000023 C43.600000000000023 18.166666666666686 39.100000000000023 23.250000000000000 36.399999999999977 26.300000000000011 C39.649999999999977 26.300000000000011 46.149999999999977 26.300000000000011 49.399999999999977 26.300000000000011 C50.625000000000000 24.925000000000011 53.075000000000045 22.175000000000011 54.299999999999955 20.800000000000011 Q56.299999999999955 24.000000000000000 57.399999999999977 27.800000000000011 Q58.500000000000000 31.600000000000023 58.500000000000000 35.500000000000000 Q58.500000000000000 40.100000000000023 57.049999999999955 44.399999999999977 Q55.600000000000023 48.699999999999989 52.899999999999977 52.000000000000000 Q50.299999999999955 55.300000000000011 46.450000000000045 57.300000000000011 Q42.600000000000023 59.300000000000011 37.800000000000011 59.300000000000011 Q32.800000000000011 59.300000000000011 28.899999999999977 57.250000000000000 Q25.000000000000000 55.199999999999989 22.399999999999977 51.800000000000011 Q19.800000000000011 48.399999999999977 18.449999999999989 44.149999999999977 Q17.100000000000023 39.899999999999977 17.100000000000023 35.500000000000000 Q17.100000000000023 30.899999999999977 18.500000000000000 26.600000000000023 Q19.899999999999977 22.300000000000011 22.500000000000000 19.000000000000000 Q25.199999999999989 15.699999999999989 29.050000000000011 13.699999999999989 Q32.899999999999977 11.699999999999989 37.800000000000011 11.699999999999989 z" />
<glyph unicode="R" horiz-adv-x="66.5" d="M7.400000000000000 0.000000000000000 C7.399999999999977 17.750000000000000 7.399999999999977 53.250000000000000 7.399999999999977 71.000000000000000 C15.250000000000000 71.000000000000000 30.949999999999989 71.000000000000000 38.800000000000011 71.000000000000000 Q43.700000000000045 71.000000000000000 47.850000000000023 68.949999999999989 Q52.000000000000000 66.900000000000006 55.000000000000000 63.500000000000000 Q58.000000000000000 60.199999999999989 59.700000000000045 55.949999999999989 Q61.399999999999977 51.699999999999989 61.399999999999977 47.399999999999977 Q61.399999999999977 40.500000000000000 57.950000000000045 34.850000000000023 Q54.500000000000000 29.199999999999989 48.600000000000023 26.699999999999989 C54.000000000000000 17.800000000000011 60.750000000000000 6.675000000000011 64.799999999999955 0.000000000000000 C60.924999999999955 0.000000000000000 53.174999999999955 0.000000000000000 49.299999999999955 0.000000000000000 C45.674999999999955 5.949999999999989 38.425000000000011 17.850000000000023 34.800000000000011 23.800000000000011 C31.399999999999977 23.800000000000011 24.600000000000023 23.800000000000011 21.199999999999989 23.800000000000011 C21.199999999999989 17.850000000000023 21.199999999999989 5.949999999999989 21.199999999999989 0.000000000000000 C17.750000000000000 0.000000000000000 10.850000000000023 0.000000000000000 7.399999999999977 0.000000000000000 zM21.199999999999999 35.899999999999999 C25.524999999999977 35.899999999999977 34.175000000000011 35.899999999999977 38.500000000000000 35.899999999999977 Q40.399999999999977 35.899999999999977 42.050000000000011 36.800000000000011 Q43.700000000000045 37.699999999999989 44.899999999999977 39.199999999999989 Q46.100000000000023 40.800000000000011 46.799999999999955 42.899999999999977 Q47.500000000000000 45.000000000000000 47.500000000000000 47.399999999999977 Q47.500000000000000 49.899999999999977 46.700000000000045 52.000000000000000 Q45.899999999999977 54.100000000000023 44.500000000000000 55.600000000000023 Q43.200000000000045 57.199999999999989 41.449999999999989 58.050000000000011 Q39.699999999999989 58.899999999999977 37.899999999999977 58.899999999999977 C32.333333333333314 58.899999999999977 25.375000000000000 58.899999999999977 21.199999999999989 58.899999999999977 C21.199999999999989 53.149999999999977 21.199999999999989 41.649999999999977 21.199999999999989 35.899999999999977 z" />
<glyph unicode="S" horiz-adv-x="61.299999999999997" d="M49.700000000000003 52.399999999999999 Q49.000000000000000 53.100000000000023 47.149999999999977 54.300000000000011 Q45.299999999999955 55.500000000000000 42.600000000000023 56.600000000000023 Q40.000000000000000 57.800000000000011 36.899999999999977 58.600000000000023 Q33.800000000000011 59.399999999999977 30.600000000000023 59.399999999999977 Q24.899999999999977 59.399999999999977 22.100000000000023 57.300000000000011 Q19.300000000000011 55.199999999999989 19.300000000000011 51.399999999999977 Q19.300000000000011 49.199999999999989 20.350000000000023 47.750000000000000 Q21.399999999999977 46.300000000000011 23.399999999999977 45.199999999999989 Q25.399999999999977 44.100000000000023 28.449999999999989 43.199999999999989 Q31.500000000000000 42.300000000000011 35.500000000000000 41.300000000000011 Q40.699999999999989 39.899999999999977 44.950000000000045 38.300000000000011 Q49.200000000000045 36.699999999999989 52.100000000000023 34.300000000000011 Q55.100000000000023 31.899999999999977 56.700000000000045 28.550000000000011 Q58.299999999999955 25.199999999999989 58.299999999999955 20.300000000000011 Q58.299999999999955 14.600000000000023 56.149999999999977 10.550000000000011 Q54.000000000000000 6.500000000000000 50.299999999999955 4.000000000000000 Q46.700000000000045 1.500000000000000 41.949999999999989 0.350000000000023 Q37.199999999999989 -0.800000000000011 32.000000000000000 -0.800000000000011 Q24.000000000000000 -0.800000000000011 16.199999999999989 1.600000000000023 Q8.399999999999977 4.000000000000000 2.199999999999989 8.399999999999977 C4.233333333333348 12.366666666666674 6.774999999999977 17.324999999999989 8.300000000000011 20.300000000000011 Q9.199999999999989 19.399999999999977 11.550000000000011 17.949999999999989 Q13.899999999999977 16.500000000000000 17.100000000000023 15.000000000000000 Q20.300000000000011 13.600000000000023 24.199999999999989 12.600000000000023 Q28.100000000000023 11.600000000000023 32.199999999999989 11.600000000000023 Q43.600000000000023 11.600000000000023 43.600000000000023 18.899999999999977 Q43.600000000000023 21.199999999999989 42.300000000000011 22.800000000000011 Q41.000000000000000 24.399999999999977 38.600000000000023 25.600000000000023 Q36.199999999999989 26.800000000000011 32.800000000000011 27.800000000000011 Q29.399999999999977 28.800000000000011 25.199999999999989 30.000000000000000 Q20.100000000000023 31.399999999999977 16.350000000000023 33.050000000000011 Q12.600000000000023 34.699999999999989 10.100000000000023 36.899999999999977 Q7.600000000000023 39.199999999999989 6.350000000000023 42.149999999999977 Q5.100000000000023 45.100000000000023 5.100000000000023 49.199999999999989 Q5.100000000000023 54.600000000000023 7.100000000000023 58.800000000000011 Q9.100000000000023 63.000000000000000 12.600000000000023 65.800000000000011 Q16.199999999999989 68.599999999999994 20.899999999999977 70.050000000000011 Q25.600000000000023 71.500000000000000 31.000000000000000 71.500000000000000 Q38.500000000000000 71.500000000000000 44.799999999999955 69.150000000000006 Q51.100000000000023 66.800000000000011 55.799999999999955 63.599999999999994 C53.766666666666652 59.866666666666674 51.225000000000023 55.199999999999989 49.700000000000045 52.399999999999977 z" />
<glyph unicode="T" horiz-adv-x="61.899999999999999" d="M60.500000000000000 58.899999999999999 C54.825000000000045 58.899999999999977 43.475000000000023 58.899999999999977 37.800000000000011 58.899999999999977 C37.800000000000011 44.175000000000011 37.800000000000011 14.725000000000023 37.800000000000011 0.000000000000000 C34.375000000000000 0.000000000000000 27.524999999999977 0.000000000000000 24.100000000000023 0.000000000000000 C24.100000000000023 14.725000000000023 24.100000000000023 44.175000000000011 24.100000000000023 58.899999999999977 C18.425000000000011 58.899999999999977 7.074999999999989 58.899999999999977 1.399999999999977 58.899999999999977 C1.399999999999977 61.925000000000011 1.399999999999977 67.974999999999994 1.399999999999977 71.000000000000000 C16.175000000000011 71.000000000000000 45.725000000000023 71.000000000000000 60.500000000000000 71.000000000000000 C60.500000000000000 67.974999999999994 60.500000000000000 61.925000000000011 60.500000000000000 58.899999999999977 z" />
<glyph unicode="U" horiz-adv-x="75" d="M37.399999999999999 11.699999999999999 Q42.300000000000011 11.699999999999989 45.649999999999977 13.699999999999989 Q49.000000000000000 15.699999999999989 51.000000000000000 18.899999999999977 Q53.100000000000023 22.100000000000023 53.950000000000045 26.250000000000000 Q54.799999999999955 30.399999999999977 54.799999999999955 34.800000000000011 C54.799999999999955 46.866666666666674 54.799999999999955 61.949999999999989 54.799999999999955 71.000000000000000 C58.225000000000023 71.000000000000000 65.075000000000045 71.000000000000000 68.500000000000000 71.000000000000000 C68.500000000000000 61.949999999999989 68.500000000000000 43.850000000000023 68.500000000000000 34.800000000000011 Q68.500000000000000 27.500000000000000 66.750000000000000 21.100000000000023 Q65.000000000000000 14.699999999999989 61.200000000000045 9.899999999999977 Q57.500000000000000 5.100000000000023 51.600000000000023 2.300000000000011 Q45.700000000000045 -0.500000000000000 37.500000000000000 -0.500000000000000 Q29.000000000000000 -0.500000000000000 23.050000000000011 2.449999999999989 Q17.100000000000023 5.399999999999977 13.399999999999977 10.199999999999989 Q9.699999999999989 15.100000000000023 8.050000000000011 21.500000000000000 Q6.399999999999977 27.899999999999977 6.399999999999977 34.800000000000011 C6.399999999999977 46.866666666666674 6.399999999999977 61.949999999999989 6.399999999999977 71.000000000000000 C9.850000000000023 71.000000000000000 16.750000000000000 71.000000000000000 20.199999999999989 71.000000000000000 C20.199999999999989 61.949999999999989 20.199999999999989 43.850000000000023 20.199999999999989 34.800000000000011 Q20.199999999999989 30.300000000000011 21.050000000000011 26.149999999999977 Q21.899999999999977 22.000000000000000 23.899999999999977 18.800000000000011 Q26.000000000000000 15.600000000000023 29.300000000000011 13.649999999999977 Q32.600000000000023 11.699999999999989 37.399999999999977 11.699999999999989 z" />
<glyph unicode="V" horiz-adv-x="67.599999999999994" d="M14.699999999999999 71.000000000000000 C19.500000000000000 57.574999999999989 29.100000000000023 30.725000000000023 33.899999999999977 17.300000000000011 C38.649999999999977 30.725000000000023 48.149999999999977 57.574999999999989 52.899999999999977 71.000000000000000 C56.524999999999977 71.000000000000000 63.774999999999977 71.000000000000000 67.399999999999977 71.000000000000000 C60.475000000000023 53.250000000000000 46.625000000000000 17.750000000000000 39.699999999999989 0.000000000000000 C36.800000000000011 0.000000000000000 31.000000000000000 0.000000000000000 28.100000000000023 0.000000000000000 C21.125000000000000 17.750000000000000 7.175000000000011 53.250000000000000 0.199999999999989 71.000000000000000 C3.824999999999989 71.000000000000000 11.074999999999989 71.000000000000000 14.699999999999989 71.000000000000000 z" />
<glyph unicode="W" horiz-adv-x="105.3" d="M61.299999999999997 38.500000000000000 C63.549999999999955 32.824999999999989 68.049999999999955 21.475000000000023 70.299999999999955 15.800000000000011 C75.325000000000045 29.600000000000023 85.375000000000000 57.199999999999989 90.399999999999977 71.000000000000000 C94.149999999999977 71.000000000000000 101.649999999999977 71.000000000000000 105.399999999999977 71.000000000000000 C98.174999999999955 53.250000000000000 83.725000000000023 17.750000000000000 76.500000000000000 0.000000000000000 C73.600000000000023 0.000000000000000 67.799999999999955 0.000000000000000 64.899999999999977 0.000000000000000 C61.825000000000045 7.449999999999989 55.674999999999955 22.350000000000023 52.600000000000023 29.800000000000011 C49.524999999999977 22.350000000000023 43.375000000000000 7.449999999999989 40.300000000000011 0.000000000000000 C37.399999999999977 0.000000000000000 31.600000000000023 0.000000000000000 28.699999999999989 0.000000000000000 C21.524999999999977 17.750000000000000 7.175000000000011 53.250000000000000 0.000000000000000 71.000000000000000 C3.699999999999989 71.000000000000000 11.100000000000023 71.000000000000000 14.800000000000011 71.000000000000000 C19.850000000000023 57.199999999999989 29.949999999999989 29.600000000000023 35.000000000000000 15.800000000000011 C37.199999999999989 21.475000000000023 41.600000000000023 32.824999999999989 43.799999999999955 38.500000000000000 C48.174999999999955 38.500000000000000 56.924999999999955 38.500000000000000 61.299999999999955 38.500000000000000 z" />
<glyph unicode="X" horiz-adv-x="64.599999999999994" d="M14.699999999999999 71.000000000000000 C19.125000000000000 64.400000000000006 27.975000000000023 51.199999999999989 32.399999999999977 44.600000000000023 C36.800000000000011 51.199999999999989 45.600000000000023 64.400000000000006 50.000000000000000 71.000000000000000 C53.725000000000023 71.000000000000000 61.174999999999955 71.000000000000000 64.899999999999977 71.000000000000000 C58.575000000000045 62.000000000000000 45.924999999999955 44.000000000000000 39.600000000000023 35.000000000000000 C45.725000000000023 26.250000000000000 57.975000000000023 8.750000000000000 64.100000000000023 0.000000000000000 C60.375000000000000 0.000000000000000 52.924999999999955 0.000000000000000 49.200000000000045 0.000000000000000 C45.000000000000000 6.350000000000023 36.600000000000023 19.050000000000011 32.399999999999977 25.399999999999977 C28.175000000000011 19.050000000000011 19.725000000000023 6.350000000000023 15.500000000000000 0.000000000000000 C11.750000000000000 0.000000000000000 4.250000000000000 0.000000000000000 0.500000000000000 0.000000000000000 C6.625000000000000 8.750000000000000 18.875000000000000 26.250000000000000 25.000000000000000 35.000000000000000 C18.675000000000011 44.000000000000000 6.024999999999977 62.000000000000000 -0.300000000000011 71.000000000000000 C3.449999999999989 71.000000000000000 10.949999999999989 71.000000000000000 14.699999999999989 71.000000000000000 z" />
<glyph unicode="Y" horiz-adv-x="66" d="M15.400000000000000 71.000000000000000 C19.774999999999977 62.449999999999989 28.524999999999977 45.350000000000023 32.899999999999977 36.800000000000011 C37.350000000000023 45.350000000000023 46.250000000000000 62.449999999999989 50.700000000000045 71.000000000000000 C54.424999999999955 71.000000000000000 61.875000000000000 71.000000000000000 65.600000000000023 71.000000000000000 C59.149999999999977 59.449999999999989 46.250000000000000 36.350000000000023 39.800000000000011 24.800000000000011 C39.800000000000011 18.600000000000023 39.800000000000011 6.199999999999989 39.800000000000011 0.000000000000000 C36.375000000000000 0.000000000000000 29.524999999999977 0.000000000000000 26.100000000000023 0.000000000000000 C26.100000000000023 6.250000000000000 26.100000000000023 18.750000000000000 26.100000000000023 25.000000000000000 C19.675000000000011 36.500000000000000 6.824999999999989 59.500000000000000 0.399999999999977 71.000000000000000 C4.149999999999977 71.000000000000000 11.649999999999977 71.000000000000000 15.399999999999977 71.000000000000000 z" />
<glyph unicode="Z" horiz-adv-x="62.700000000000003" d="M3.000000000000000 10.400000000000000 C13.024999999999977 22.524999999999977 33.074999999999989 46.774999999999977 43.100000000000023 58.899999999999977 C33.350000000000023 58.899999999999977 13.850000000000023 58.899999999999977 4.100000000000023 58.899999999999977 C4.100000000000023 61.925000000000011 4.100000000000023 67.974999999999994 4.100000000000023 71.000000000000000 C17.824999999999989 71.000000000000000 45.274999999999977 71.000000000000000 59.000000000000000 71.000000000000000 C59.000000000000000 68.400000000000006 59.000000000000000 63.199999999999989 59.000000000000000 60.600000000000023 C49.299999999999955 48.475000000000023 29.899999999999977 24.225000000000023 20.199999999999989 12.100000000000023 C29.975000000000023 12.100000000000023 49.524999999999977 12.100000000000023 59.299999999999955 12.100000000000023 C59.299999999999955 9.074999999999989 59.299999999999955 3.024999999999977 59.299999999999955 0.000000000000000 C45.225000000000023 0.000000000000000 17.074999999999989 0.000000000000000 3.000000000000000 0.000000000000000 C3.000000000000000 2.600000000000023 3.000000000000000 7.800000000000011 3.000000000000000 10.399999999999977 z" />
<glyph unicode="[" horiz-adv-x="31.600000000000001" d="M8.199999999999999 -4.000000000000000 C8.199999999999989 15.500000000000000 8.199999999999989 54.500000000000000 8.199999999999989 74.000000000000000 C12.875000000000000 74.000000000000000 22.225000000000023 74.000000000000000 26.899999999999977 74.000000000000000 C26.899999999999977 71.324999999999989 26.899999999999977 65.974999999999994 26.899999999999977 63.300000000000011 C25.324999999999989 63.300000000000011 22.175000000000011 63.300000000000011 20.600000000000023 63.300000000000011 C20.600000000000023 49.149999999999977 20.600000000000023 20.850000000000023 20.600000000000023 6.699999999999989 C22.175000000000011 6.699999999999989 25.324999999999989 6.699999999999989 26.899999999999977 6.699999999999989 C26.899999999999977 4.024999999999977 26.899999999999977 -1.324999999999989 26.899999999999977 -4.000000000000000 C22.225000000000023 -4.000000000000000 12.875000000000000 -4.000000000000000 8.199999999999989 -4.000000000000000 z" />
<glyph unicode="\" horiz-adv-x="63.700000000000003" d="M17.600000000000001 71.000000000000000 C28.475000000000023 53.250000000000000 50.225000000000023 17.750000000000000 61.100000000000023 0.000000000000000 C57.399999999999977 0.000000000000000 50.000000000000000 0.000000000000000 46.299999999999955 0.000000000000000 C35.399999999999977 17.750000000000000 13.600000000000023 53.250000000000000 2.699999999999989 71.000000000000000 C6.425000000000011 71.000000000000000 13.875000000000000 71.000000000000000 17.600000000000023 71.000000000000000 z" />
<glyph unicode="]" horiz-adv-x="31.600000000000001" d="M4.600000000000000 -4.000000000000000 C4.600000000000023 -1.324999999999989 4.600000000000023 4.024999999999977 4.600000000000023 6.699999999999989 C6.199999999999989 6.699999999999989 9.399999999999977 6.699999999999989 11.000000000000000 6.699999999999989 C11.000000000000000 20.850000000000023 11.000000000000000 49.149999999999977 11.000000000000000 63.300000000000011 C9.399999999999977 63.300000000000011 6.199999999999989 63.300000000000011 4.600000000000023 63.300000000000011 C4.600000000000023 65.974999999999994 4.600000000000023 71.324999999999989 4.600000000000023 74.000000000000000 C9.300000000000011 74.000000000000000 18.699999999999989 74.000000000000000 23.399999999999977 74.000000000000000 C23.399999999999977 54.500000000000000 23.399999999999977 15.500000000000000 23.399999999999977 -4.000000000000000 C18.699999999999989 -4.000000000000000 9.300000000000011 -4.000000000000000 4.600000000000023 -4.000000000000000 z" />
<glyph unicode="^" horiz-adv-x="58.5" d="M3.900000000000000 30.300000000000001 C8.850000000000023 40.475000000000023 18.750000000000000 60.824999999999989 23.699999999999989 71.000000000000000 C26.500000000000000 71.000000000000000 32.100000000000023 71.000000000000000 34.899999999999977 71.000000000000000 C39.824999999999989 60.824999999999989 49.674999999999955 40.475000000000023 54.600000000000023 30.300000000000011 C51.850000000000023 30.300000000000011 46.350000000000023 30.300000000000011 43.600000000000023 30.300000000000011 C40.024999999999977 37.649999999999977 32.875000000000000 52.350000000000023 29.300000000000011 59.699999999999989 C25.649999999999977 52.350000000000023 18.350000000000023 37.649999999999977 14.699999999999989 30.300000000000011 C12.000000000000000 30.300000000000011 6.600000000000023 30.300000000000011 3.899999999999977 30.300000000000011 z" />
<glyph unicode="_" horiz-adv-x="47.5" d="M5.400000000000000 -12.100000000000000 C5.399999999999977 -9.074999999999989 5.399999999999977 -3.024999999999977 5.399999999999977 0.000000000000000 C14.574999999999989 0.000000000000000 32.925000000000011 0.000000000000000 42.100000000000023 0.000000000000000 C42.100000000000023 -3.024999999999977 42.100000000000023 -9.074999999999989 42.100000000000023 -12.100000000000023 C32.925000000000011 -12.100000000000023 14.574999999999989 -12.100000000000023 5.399999999999977 -12.100000000000023 z" />
<glyph unicode="`" horiz-adv-x="25.5" d="M4.700000000000000 73.000000000000000 C7.800000000000011 73.000000000000000 14.000000000000000 73.000000000000000 17.100000000000023 73.000000000000000 C18.475000000000023 70.025000000000006 21.225000000000023 64.074999999999989 22.600000000000023 61.100000000000023 C20.449999999999989 60.449999999999989 16.149999999999977 59.149999999999977 14.000000000000000 58.500000000000000 C11.675000000000011 62.125000000000000 7.024999999999977 69.375000000000000 4.699999999999989 73.000000000000000 z" />
<glyph unicode="a" horiz-adv-x="57.399999999999999" d="M20.399999999999999 -1.000000000000000 Q16.600000000000023 -1.000000000000000 13.300000000000011 0.250000000000000 Q10.000000000000000 1.500000000000000 7.600000000000023 3.699999999999989 Q5.199999999999989 6.000000000000000 3.850000000000023 9.000000000000000 Q2.500000000000000 12.000000000000000 2.500000000000000 15.600000000000023 Q2.500000000000000 19.300000000000011 4.149999999999977 22.449999999999989 Q5.800000000000011 25.600000000000023 8.699999999999989 27.800000000000011 Q11.699999999999989 30.000000000000000 15.800000000000011 31.250000000000000 Q19.899999999999977 32.500000000000000 24.800000000000011 32.500000000000000 Q28.300000000000011 32.500000000000000 31.649999999999977 31.899999999999977 Q35.000000000000000 31.300000000000011 37.600000000000023 30.199999999999989 C37.600000000000023 31.199999999999989 37.600000000000023 32.449999999999989 37.600000000000023 33.199999999999989 Q37.600000000000023 38.399999999999977 34.649999999999977 41.199999999999989 Q31.699999999999989 44.000000000000000 25.899999999999977 44.000000000000000 Q21.699999999999989 44.000000000000000 17.699999999999989 42.500000000000000 Q13.699999999999989 41.000000000000000 9.500000000000000 38.100000000000023 C8.133333333333326 40.933333333333337 6.425000000000011 44.475000000000023 5.399999999999977 46.600000000000023 Q15.500000000000000 53.300000000000011 27.199999999999989 53.300000000000011 Q38.500000000000000 53.300000000000011 44.750000000000000 47.750000000000000 Q51.000000000000000 42.199999999999989 51.000000000000000 31.699999999999989 C51.000000000000000 26.266666666666652 51.000000000000000 19.475000000000023 51.000000000000000 15.399999999999977 Q51.000000000000000 13.300000000000011 51.750000000000000 12.399999999999977 Q52.500000000000000 11.500000000000000 54.200000000000045 11.399999999999977 C54.200000000000045 7.600000000000023 54.200000000000045 2.850000000000023 54.200000000000045 0.000000000000000 Q50.799999999999955 -0.699999999999989 48.299999999999955 -0.699999999999989 Q44.500000000000000 -0.699999999999989 42.449999999999989 1.000000000000000 Q40.399999999999977 2.699999999999989 39.899999999999977 5.500000000000000 C39.800000000000011 6.466666666666640 39.675000000000011 7.675000000000011 39.600000000000023 8.399999999999977 Q36.100000000000023 3.800000000000011 31.100000000000023 1.399999999999977 Q26.100000000000023 -1.000000000000000 20.399999999999977 -1.000000000000000 zM24.199999999999999 8.800000000000001 Q27.600000000000023 8.800000000000011 30.649999999999977 10.000000000000000 Q33.699999999999989 11.199999999999989 35.399999999999977 13.199999999999989 Q37.600000000000023 14.899999999999977 37.600000000000023 17.000000000000000 C37.600000000000023 19.000000000000000 37.600000000000023 21.500000000000000 37.600000000000023 23.000000000000000 Q35.199999999999989 23.899999999999977 32.399999999999977 24.449999999999989 Q29.600000000000023 25.000000000000000 27.000000000000000 25.000000000000000 Q21.800000000000011 25.000000000000000 18.500000000000000 22.649999999999977 Q15.199999999999989 20.300000000000011 15.199999999999989 16.699999999999989 Q15.199999999999989 13.300000000000011 17.800000000000011 11.050000000000011 Q20.399999999999977 8.800000000000011 24.199999999999989 8.800000000000011 z" />
<glyph unicode="b" horiz-adv-x="63.399999999999999" d="M35.899999999999999 -1.000000000000000 Q29.899999999999977 -1.000000000000000 25.199999999999989 1.699999999999989 Q20.500000000000000 4.399999999999977 17.800000000000011 9.100000000000023 C17.800000000000011 6.066666666666663 17.800000000000011 2.274999999999977 17.800000000000011 0.000000000000000 C14.875000000000000 0.000000000000000 9.024999999999977 0.000000000000000 6.100000000000023 0.000000000000000 C6.100000000000023 18.250000000000000 6.100000000000023 54.750000000000000 6.100000000000023 73.000000000000000 C9.449999999999989 73.000000000000000 16.149999999999977 73.000000000000000 19.500000000000000 73.000000000000000 C19.500000000000000 65.550000000000011 19.500000000000000 50.649999999999977 19.500000000000000 43.199999999999989 Q22.300000000000011 48.000000000000000 26.850000000000023 50.649999999999977 Q31.399999999999977 53.300000000000011 37.500000000000000 53.300000000000011 Q42.600000000000023 53.300000000000011 46.799999999999955 51.100000000000023 Q51.000000000000000 48.899999999999977 54.000000000000000 45.199999999999989 Q57.100000000000023 41.500000000000000 58.750000000000000 36.500000000000000 Q60.399999999999977 31.500000000000000 60.399999999999977 26.000000000000000 Q60.399999999999977 20.300000000000011 58.549999999999955 15.399999999999977 Q56.700000000000045 10.500000000000000 53.399999999999977 6.800000000000011 Q50.100000000000023 3.199999999999989 45.600000000000023 1.100000000000023 Q41.100000000000023 -1.000000000000000 35.899999999999977 -1.000000000000000 zM32.200000000000003 10.400000000000000 Q35.399999999999977 10.399999999999977 38.100000000000023 11.649999999999977 Q40.800000000000011 12.899999999999977 42.699999999999989 15.000000000000000 Q44.600000000000023 17.100000000000023 45.649999999999977 19.899999999999977 Q46.700000000000045 22.699999999999989 46.700000000000045 25.899999999999977 Q46.700000000000045 29.100000000000023 45.700000000000045 32.000000000000000 Q44.700000000000045 34.899999999999977 42.800000000000011 37.100000000000023 Q41.000000000000000 39.300000000000011 38.500000000000000 40.600000000000023 Q36.000000000000000 41.899999999999977 33.000000000000000 41.899999999999977 Q28.500000000000000 41.899999999999977 24.949999999999989 38.949999999999989 Q21.399999999999977 36.000000000000000 19.500000000000000 31.699999999999989 C19.500000000000000 27.533333333333303 19.500000000000000 22.324999999999989 19.500000000000000 19.199999999999989 Q20.199999999999989 17.199999999999989 21.550000000000011 15.600000000000023 Q22.899999999999977 14.000000000000000 24.600000000000023 12.800000000000011 Q26.300000000000011 11.699999999999989 28.300000000000011 11.050000000000011 Q30.300000000000011 10.399999999999977 32.199999999999989 10.399999999999977 z" />
<glyph unicode="c" horiz-adv-x="56.399999999999999" d="M2.800000000000000 26.199999999999999 Q2.800000000000011 31.699999999999989 4.699999999999989 36.600000000000023 Q6.600000000000023 41.500000000000000 10.199999999999989 45.199999999999989 Q13.800000000000011 48.899999999999977 18.899999999999977 51.100000000000023 Q24.000000000000000 53.300000000000011 30.399999999999977 53.300000000000011 Q39.000000000000000 53.300000000000011 45.049999999999955 49.600000000000023 Q51.100000000000023 45.899999999999977 54.100000000000023 39.899999999999977 C49.733333333333348 38.566666666666663 44.274999999999977 36.899999999999977 41.000000000000000 35.899999999999977 Q39.300000000000011 38.800000000000011 36.500000000000000 40.350000000000023 Q33.699999999999989 41.899999999999977 30.300000000000011 41.899999999999977 Q27.399999999999977 41.899999999999977 24.899999999999977 40.750000000000000 Q22.399999999999977 39.600000000000023 20.500000000000000 37.500000000000000 Q18.699999999999989 35.500000000000000 17.649999999999977 32.600000000000023 Q16.600000000000023 29.699999999999989 16.600000000000023 26.199999999999989 Q16.600000000000023 22.699999999999989 17.699999999999989 19.800000000000011 Q18.800000000000011 16.899999999999977 20.600000000000023 14.800000000000011 Q22.500000000000000 12.699999999999989 25.000000000000000 11.550000000000011 Q27.500000000000000 10.399999999999977 30.300000000000011 10.399999999999977 Q33.899999999999977 10.399999999999977 36.949999999999989 12.199999999999989 Q40.000000000000000 14.000000000000000 41.199999999999989 16.600000000000023 C45.566666666666720 15.266666666666652 51.024999999999977 13.600000000000023 54.299999999999955 12.600000000000023 Q51.600000000000023 6.600000000000023 45.399999999999977 2.800000000000011 Q39.199999999999989 -1.000000000000000 30.500000000000000 -1.000000000000000 Q24.100000000000023 -1.000000000000000 19.000000000000000 1.199999999999989 Q13.899999999999977 3.399999999999977 10.300000000000011 7.100000000000023 Q6.699999999999989 10.899999999999977 4.750000000000000 15.850000000000023 Q2.800000000000011 20.800000000000011 2.800000000000011 26.199999999999989 z" />
<glyph unicode="d" horiz-adv-x="64.5" d="M27.800000000000001 -1.000000000000000 Q22.399999999999977 -1.000000000000000 17.800000000000011 1.100000000000023 Q13.199999999999989 3.199999999999989 9.899999999999977 6.899999999999977 Q6.600000000000023 10.600000000000023 4.750000000000000 15.550000000000011 Q2.899999999999977 20.500000000000000 2.899999999999977 26.199999999999989 Q2.899999999999977 31.899999999999977 4.649999999999977 36.800000000000011 Q6.399999999999977 41.699999999999989 9.500000000000000 45.399999999999977 Q12.600000000000023 49.100000000000023 16.899999999999977 51.199999999999989 Q21.199999999999989 53.300000000000011 26.300000000000011 53.300000000000011 Q32.100000000000023 53.300000000000011 36.750000000000000 50.500000000000000 Q41.399999999999977 47.699999999999989 44.000000000000000 43.199999999999989 C44.000000000000000 53.133333333333326 44.000000000000000 65.550000000000011 44.000000000000000 73.000000000000000 C47.350000000000023 73.000000000000000 54.049999999999955 73.000000000000000 57.399999999999977 73.000000000000000 C57.399999999999977 58.600000000000023 57.399999999999977 29.800000000000011 57.399999999999977 15.399999999999977 Q57.399999999999977 13.300000000000011 58.100000000000023 12.399999999999977 Q58.799999999999955 11.500000000000000 60.500000000000000 11.399999999999977 C60.500000000000000 7.600000000000023 60.500000000000000 2.850000000000023 60.500000000000000 0.000000000000000 Q57.000000000000000 -0.699999999999989 54.799999999999955 -0.699999999999989 Q51.200000000000045 -0.699999999999989 48.899999999999977 1.100000000000023 Q46.600000000000023 2.899999999999977 46.299999999999955 5.800000000000011 C46.200000000000045 6.899999999999977 46.075000000000045 8.274999999999977 46.000000000000000 9.100000000000023 Q43.100000000000023 4.100000000000023 38.149999999999977 1.550000000000011 Q33.199999999999989 -1.000000000000000 27.800000000000011 -1.000000000000000 zM31.300000000000001 10.400000000000000 Q33.199999999999989 10.399999999999977 35.199999999999989 11.050000000000011 Q37.199999999999989 11.699999999999989 38.899999999999977 12.899999999999977 Q40.600000000000023 14.100000000000023 41.949999999999989 15.699999999999989 Q43.299999999999955 17.300000000000011 44.000000000000000 19.199999999999989 C44.000000000000000 23.366666666666674 44.000000000000000 28.574999999999989 44.000000000000000 31.699999999999989 Q43.200000000000045 33.899999999999977 41.750000000000000 35.750000000000000 Q40.300000000000011 37.600000000000023 38.399999999999977 38.899999999999977 Q36.600000000000023 40.300000000000011 34.550000000000011 41.100000000000023 Q32.500000000000000 41.899999999999977 30.500000000000000 41.899999999999977 Q27.500000000000000 41.899999999999977 24.949999999999989 40.600000000000023 Q22.399999999999977 39.300000000000011 20.600000000000023 37.000000000000000 Q18.800000000000011 34.800000000000011 17.800000000000011 31.899999999999977 Q16.800000000000011 29.000000000000000 16.800000000000011 25.899999999999977 Q16.800000000000011 22.600000000000023 17.899999999999977 19.800000000000011 Q19.000000000000000 17.000000000000000 20.899999999999977 14.899999999999977 Q22.800000000000011 12.800000000000011 25.449999999999989 11.600000000000023 Q28.100000000000023 10.399999999999977 31.300000000000011 10.399999999999977 z" />
<glyph unicode="e" horiz-adv-x="59.899999999999999" d="M30.399999999999999 -1.000000000000000 Q24.100000000000023 -1.000000000000000 19.000000000000000 1.149999999999977 Q13.899999999999977 3.300000000000011 10.300000000000011 7.000000000000000 Q6.699999999999989 10.699999999999989 4.750000000000000 15.600000000000023 Q2.800000000000011 20.500000000000000 2.800000000000011 25.899999999999977 Q2.800000000000011 31.500000000000000 4.699999999999989 36.449999999999989 Q6.600000000000023 41.399999999999977 10.199999999999989 45.100000000000023 Q13.800000000000011 48.899999999999977 18.949999999999989 51.100000000000023 Q24.100000000000023 53.300000000000011 30.500000000000000 53.300000000000011 Q36.899999999999977 53.300000000000011 41.949999999999989 51.100000000000023 Q47.000000000000000 48.899999999999977 50.500000000000000 45.199999999999989 Q54.100000000000023 41.500000000000000 55.950000000000045 36.600000000000023 Q57.799999999999955 31.699999999999989 57.799999999999955 26.399999999999977 Q57.799999999999955 25.100000000000023 57.750000000000000 23.899999999999977 Q57.700000000000045 22.699999999999989 57.500000000000000 21.899999999999977 C44.000000000000000 21.899999999999977 27.125000000000000 21.899999999999977 17.000000000000000 21.899999999999977 Q17.300000000000011 18.800000000000011 18.500000000000000 16.399999999999977 Q19.699999999999989 14.000000000000000 21.600000000000023 12.300000000000011 Q23.500000000000000 10.600000000000023 25.899999999999977 9.699999999999989 Q28.300000000000011 8.800000000000011 30.899999999999977 8.800000000000011 Q34.899999999999977 8.800000000000011 38.449999999999989 10.750000000000000 Q42.000000000000000 12.699999999999989 43.299999999999955 15.899999999999977 C47.133333333333326 14.833333333333314 51.924999999999955 13.500000000000000 54.799999999999955 12.699999999999989 Q51.899999999999977 6.699999999999989 45.549999999999955 2.850000000000023 Q39.199999999999989 -1.000000000000000 30.399999999999977 -1.000000000000000 zM44.000000000000000 30.600000000000001 Q43.500000000000000 36.500000000000000 39.649999999999977 40.050000000000011 Q35.800000000000011 43.600000000000023 30.300000000000011 43.600000000000023 Q27.600000000000023 43.600000000000023 25.250000000000000 42.649999999999977 Q22.899999999999977 41.699999999999989 21.100000000000023 40.000000000000000 Q19.300000000000011 38.300000000000011 18.149999999999977 35.899999999999977 Q17.000000000000000 33.500000000000000 16.800000000000011 30.600000000000023 C25.866666666666674 30.600000000000023 37.199999999999989 30.600000000000023 44.000000000000000 30.600000000000023 z" />
<glyph unicode="f" horiz-adv-x="37" d="M9.300000000000001 0.000000000000000 C9.300000000000011 9.850000000000023 9.300000000000011 29.550000000000011 9.300000000000011 39.399999999999977 C7.574999999999989 39.399999999999977 4.125000000000000 39.399999999999977 2.399999999999977 39.399999999999977 C2.399999999999977 41.949999999999989 2.399999999999977 47.050000000000011 2.399999999999977 49.600000000000023 C4.125000000000000 49.600000000000023 7.574999999999989 49.600000000000023 9.300000000000011 49.600000000000023 C9.300000000000011 50.399999999999977 9.300000000000011 52.000000000000000 9.300000000000011 52.800000000000011 Q9.300000000000011 62.600000000000023 14.000000000000000 68.300000000000011 Q18.699999999999989 74.000000000000000 26.800000000000011 74.000000000000000 Q33.199999999999989 74.000000000000000 39.699999999999989 70.900000000000006 C38.800000000000011 67.533333333333331 37.675000000000011 63.324999999999989 37.000000000000000 60.800000000000011 Q35.500000000000000 61.600000000000023 33.449999999999989 62.149999999999977 Q31.399999999999977 62.699999999999989 29.699999999999989 62.699999999999989 Q22.699999999999989 62.699999999999989 22.699999999999989 53.300000000000011 C22.699999999999989 52.066666666666663 22.699999999999989 50.524999999999977 22.699999999999989 49.600000000000023 C25.899999999999977 49.600000000000023 32.300000000000011 49.600000000000023 35.500000000000000 49.600000000000023 C35.500000000000000 47.050000000000011 35.500000000000000 41.949999999999989 35.500000000000000 39.399999999999977 C32.300000000000011 39.399999999999977 25.899999999999977 39.399999999999977 22.699999999999989 39.399999999999977 C22.699999999999989 29.550000000000011 22.699999999999989 9.850000000000023 22.699999999999989 0.000000000000000 C19.350000000000023 0.000000000000000 12.649999999999977 0.000000000000000 9.300000000000011 0.000000000000000 z" />
<glyph unicode="g" horiz-adv-x="63.399999999999999" d="M26.600000000000001 -0.300000000000000 Q21.300000000000011 -0.300000000000011 17.000000000000000 1.800000000000011 Q12.699999999999989 3.899999999999977 9.500000000000000 7.500000000000000 Q6.399999999999977 11.199999999999989 4.699999999999989 16.000000000000000 Q3.000000000000000 20.800000000000011 3.000000000000000 26.199999999999989 Q3.000000000000000 31.899999999999977 4.800000000000011 36.800000000000011 Q6.600000000000023 41.699999999999989 9.800000000000011 45.399999999999977 Q13.000000000000000 49.100000000000023 17.500000000000000 51.199999999999989 Q22.000000000000000 53.300000000000011 27.399999999999977 53.300000000000011 Q33.500000000000000 53.300000000000011 38.100000000000023 50.550000000000011 Q42.699999999999989 47.800000000000011 45.700000000000045 43.199999999999989 C45.700000000000045 46.266666666666652 45.700000000000045 50.100000000000023 45.700000000000045 52.399999999999977 C48.625000000000000 52.399999999999977 54.475000000000023 52.399999999999977 57.399999999999977 52.399999999999977 C57.399999999999977 39.925000000000011 57.399999999999977 14.975000000000023 57.399999999999977 2.500000000000000 Q57.399999999999977 -3.300000000000011 55.200000000000045 -7.899999999999977 Q53.000000000000000 -12.500000000000000 49.100000000000023 -15.699999999999989 Q45.299999999999955 -18.899999999999977 39.949999999999989 -20.600000000000023 Q34.600000000000023 -22.300000000000011 28.300000000000011 -22.300000000000011 Q19.699999999999989 -22.300000000000011 13.850000000000023 -19.449999999999989 Q8.000000000000000 -16.600000000000023 3.800000000000011 -11.399999999999977 C6.233333333333348 -9.033333333333360 9.274999999999977 -6.074999999999989 11.100000000000023 -4.300000000000011 Q14.100000000000023 -8.000000000000000 18.649999999999977 -10.100000000000023 Q23.199999999999989 -12.199999999999989 28.300000000000011 -12.199999999999989 Q31.399999999999977 -12.199999999999989 34.250000000000000 -11.350000000000023 Q37.100000000000023 -10.500000000000000 39.300000000000011 -8.699999999999989 Q41.500000000000000 -6.899999999999977 42.750000000000000 -4.100000000000023 Q44.000000000000000 -1.300000000000011 44.000000000000000 2.500000000000000 C44.000000000000000 4.699999999999989 44.000000000000000 7.449999999999989 44.000000000000000 9.100000000000023 Q41.399999999999977 4.600000000000023 36.699999999999989 2.149999999999977 Q32.000000000000000 -0.300000000000011 26.600000000000023 -0.300000000000011 zM31.100000000000001 10.400000000000000 Q33.300000000000011 10.399999999999977 35.300000000000011 11.100000000000023 Q37.300000000000011 11.800000000000011 39.000000000000000 13.000000000000000 Q40.699999999999989 14.199999999999989 42.000000000000000 15.800000000000011 Q43.299999999999955 17.399999999999977 44.000000000000000 19.199999999999989 C44.000000000000000 23.366666666666674 44.000000000000000 28.574999999999989 44.000000000000000 31.699999999999989 Q42.199999999999989 36.300000000000011 38.350000000000023 39.100000000000023 Q34.500000000000000 41.899999999999977 30.300000000000011 41.899999999999977 Q27.199999999999989 41.899999999999977 24.699999999999989 40.550000000000011 Q22.199999999999989 39.199999999999989 20.399999999999977 36.899999999999977 Q18.600000000000023 34.699999999999989 17.649999999999977 31.800000000000011 Q16.699999999999989 28.899999999999977 16.699999999999989 25.800000000000011 Q16.699999999999989 22.600000000000023 17.800000000000011 19.800000000000011 Q18.899999999999977 17.000000000000000 20.800000000000011 14.899999999999977 Q22.800000000000011 12.800000000000011 25.399999999999977 11.600000000000023 Q28.000000000000000 10.399999999999977 31.100000000000023 10.399999999999977 z" />
<glyph unicode="h" horiz-adv-x="60.399999999999999" d="M54.799999999999997 0.000000000000000 C51.450000000000045 0.000000000000000 44.750000000000000 0.000000000000000 41.399999999999977 0.000000000000000 C41.399999999999977 7.350000000000023 41.399999999999977 22.050000000000011 41.399999999999977 29.399999999999977 Q41.399999999999977 35.600000000000023 39.100000000000023 38.550000000000011 Q36.800000000000011 41.500000000000000 32.600000000000023 41.500000000000000 Q30.800000000000011 41.500000000000000 28.800000000000011 40.699999999999989 Q26.800000000000011 39.899999999999977 25.000000000000000 38.399999999999977 Q23.199999999999989 37.000000000000000 21.699999999999989 35.000000000000000 Q20.199999999999989 33.000000000000000 19.500000000000000 30.600000000000023 C19.500000000000000 20.399999999999977 19.500000000000000 7.649999999999977 19.500000000000000 0.000000000000000 C16.149999999999977 0.000000000000000 9.449999999999989 0.000000000000000 6.100000000000023 0.000000000000000 C6.100000000000023 18.250000000000000 6.100000000000023 54.750000000000000 6.100000000000023 73.000000000000000 C9.449999999999989 73.000000000000000 16.149999999999977 73.000000000000000 19.500000000000000 73.000000000000000 C19.500000000000000 65.425000000000011 19.500000000000000 50.274999999999977 19.500000000000000 42.699999999999989 Q22.399999999999977 47.800000000000011 27.350000000000023 50.550000000000011 Q32.300000000000011 53.300000000000011 38.300000000000011 53.300000000000011 Q43.399999999999977 53.300000000000011 46.600000000000023 51.550000000000011 Q49.799999999999955 49.800000000000011 51.600000000000023 46.899999999999977 Q53.399999999999977 44.000000000000000 54.100000000000023 40.300000000000011 Q54.799999999999955 36.600000000000023 54.799999999999955 32.699999999999989 C54.799999999999955 21.800000000000011 54.799999999999955 8.175000000000011 54.799999999999955 0.000000000000000 z" />
<glyph unicode="i" horiz-adv-x="25.5" d="M6.100000000000000 0.000000000000000 C6.100000000000023 13.100000000000023 6.100000000000023 39.300000000000011 6.100000000000023 52.399999999999977 C9.449999999999989 52.399999999999977 16.149999999999977 52.399999999999977 19.500000000000000 52.399999999999977 C19.500000000000000 39.300000000000011 19.500000000000000 13.100000000000023 19.500000000000000 0.000000000000000 C16.149999999999977 0.000000000000000 9.449999999999989 0.000000000000000 6.100000000000023 0.000000000000000 zM6.100000000000000 59.700000000000003 C6.100000000000023 63.025000000000006 6.100000000000023 69.675000000000011 6.100000000000023 73.000000000000000 C9.449999999999989 73.000000000000000 16.149999999999977 73.000000000000000 19.500000000000000 73.000000000000000 C19.500000000000000 69.675000000000011 19.500000000000000 63.025000000000006 19.500000000000000 59.699999999999989 C16.149999999999977 59.699999999999989 9.449999999999989 59.699999999999989 6.100000000000023 59.699999999999989 z" />
<glyph unicode="j" horiz-adv-x="26.100000000000001" d="M1.800000000000000 -19.600000000000001 Q-2.000000000000000 -19.600000000000023 -5.399999999999977 -18.449999999999989 Q-8.800000000000011 -17.300000000000011 -11.500000000000000 -14.899999999999977 C-9.566666666666663 -11.866666666666674 -7.149999999999977 -8.074999999999989 -5.699999999999989 -5.800000000000011 Q-4.600000000000023 -6.899999999999977 -3.000000000000000 -7.449999999999989 Q-1.399999999999977 -8.000000000000000 0.199999999999989 -8.000000000000000 Q2.800000000000011 -8.000000000000000 4.699999999999989 -6.149999999999977 Q6.600000000000023 -4.300000000000011 6.600000000000023 -1.399999999999977 C6.600000000000023 16.533333333333360 6.600000000000023 38.949999999999989 6.600000000000023 52.399999999999977 C9.949999999999989 52.399999999999977 16.649999999999977 52.399999999999977 20.000000000000000 52.399999999999977 C20.000000000000000 39.199999999999989 20.000000000000000 12.800000000000011 20.000000000000000 -0.399999999999977 Q20.000000000000000 -4.600000000000023 18.600000000000023 -8.149999999999977 Q17.199999999999989 -11.699999999999989 14.699999999999989 -14.199999999999989 Q12.300000000000011 -16.800000000000011 8.949999999999989 -18.199999999999989 Q5.600000000000023 -19.600000000000023 1.800000000000011 -19.600000000000023 zM6.600000000000000 59.700000000000003 C6.600000000000023 63.025000000000006 6.600000000000023 69.675000000000011 6.600000000000023 73.000000000000000 C9.949999999999989 73.000000000000000 16.649999999999977 73.000000000000000 20.000000000000000 73.000000000000000 C20.000000000000000 69.675000000000011 20.000000000000000 63.025000000000006 20.000000000000000 59.699999999999989 C16.649999999999977 59.699999999999989 9.949999999999989 59.699999999999989 6.600000000000023 59.699999999999989 z" />
<glyph unicode="k" horiz-adv-x="55.799999999999997" d="M41.899999999999999 0.000000000000000 C38.100000000000023 5.675000000000011 30.500000000000000 17.024999999999977 26.699999999999989 22.699999999999989 C24.899999999999977 20.925000000000011 21.300000000000011 17.375000000000000 19.500000000000000 15.600000000000023 C19.500000000000000 11.699999999999989 19.500000000000000 3.899999999999977 19.500000000000000 0.000000000000000 C16.149999999999977 0.000000000000000 9.449999999999989 0.000000000000000 6.100000000000023 0.000000000000000 C6.100000000000023 18.250000000000000 6.100000000000023 54.750000000000000 6.100000000000023 73.000000000000000 C9.449999999999989 73.000000000000000 16.149999999999977 73.000000000000000 19.500000000000000 73.000000000000000 C19.500000000000000 61.925000000000011 19.500000000000000 39.774999999999977 19.500000000000000 28.699999999999989 C24.750000000000000 34.600000000000023 35.250000000000000 46.399999999999977 40.500000000000000 52.300000000000011 C44.075000000000045 52.300000000000011 51.225000000000023 52.300000000000011 54.799999999999955 52.300000000000011 C49.924999999999955 46.750000000000000 40.175000000000011 35.649999999999977 35.300000000000011 30.100000000000023 C40.524999999999977 22.574999999999989 50.975000000000023 7.524999999999977 56.200000000000045 0.000000000000000 C52.625000000000000 0.000000000000000 45.475000000000023 0.000000000000000 41.899999999999977 0.000000000000000 z" />
<glyph unicode="l" horiz-adv-x="31.699999999999999" d="M6.000000000000000 73.000000000000000 C9.350000000000023 73.000000000000000 16.050000000000011 73.000000000000000 19.399999999999977 73.000000000000000 C19.399999999999977 58.949999999999989 19.399999999999977 30.850000000000023 19.399999999999977 16.800000000000011 Q19.399999999999977 13.899999999999977 20.800000000000011 12.300000000000011 Q22.199999999999989 10.699999999999989 24.800000000000011 10.699999999999989 Q26.000000000000000 10.699999999999989 27.449999999999989 11.100000000000023 Q28.899999999999977 11.500000000000000 30.199999999999989 12.100000000000023 C30.800000000000011 8.699999999999989 31.550000000000011 4.449999999999989 32.000000000000000 1.899999999999977 Q29.300000000000011 0.600000000000023 25.699999999999989 -0.100000000000023 Q22.100000000000023 -0.800000000000011 19.199999999999989 -0.800000000000011 Q12.899999999999977 -0.800000000000011 9.449999999999989 2.550000000000011 Q6.000000000000000 5.899999999999977 6.000000000000000 12.100000000000023 C6.000000000000000 32.399999999999977 6.000000000000000 57.774999999999977 6.000000000000000 73.000000000000000 z" />
<glyph unicode="m" horiz-adv-x="93.099999999999994" d="M87.500000000000000 0.000000000000000 C84.149999999999977 0.000000000000000 77.450000000000045 0.000000000000000 74.100000000000023 0.000000000000000 C74.100000000000023 7.350000000000023 74.100000000000023 22.050000000000011 74.100000000000023 29.399999999999977 Q74.100000000000023 35.699999999999989 71.950000000000045 38.600000000000023 Q69.799999999999955 41.500000000000000 66.000000000000000 41.500000000000000 Q62.000000000000000 41.500000000000000 58.500000000000000 38.449999999999989 Q55.000000000000000 35.399999999999977 53.500000000000000 30.500000000000000 C53.500000000000000 20.333333333333314 53.500000000000000 7.625000000000000 53.500000000000000 0.000000000000000 C50.149999999999977 0.000000000000000 43.450000000000045 0.000000000000000 40.100000000000023 0.000000000000000 C40.100000000000023 7.350000000000023 40.100000000000023 22.050000000000011 40.100000000000023 29.399999999999977 Q40.100000000000023 35.699999999999989 37.949999999999989 38.600000000000023 Q35.800000000000011 41.500000000000000 32.000000000000000 41.500000000000000 Q28.100000000000023 41.500000000000000 24.550000000000011 38.500000000000000 Q21.000000000000000 35.500000000000000 19.500000000000000 30.600000000000023 C19.500000000000000 20.399999999999977 19.500000000000000 7.649999999999977 19.500000000000000 0.000000000000000 C16.149999999999977 0.000000000000000 9.449999999999989 0.000000000000000 6.100000000000023 0.000000000000000 C6.100000000000023 13.100000000000023 6.100000000000023 39.300000000000011 6.100000000000023 52.399999999999977 C9.125000000000000 52.399999999999977 15.175000000000011 52.399999999999977 18.199999999999989 52.399999999999977 C18.199999999999989 49.975000000000023 18.199999999999989 45.125000000000000 18.199999999999989 42.699999999999989 Q21.100000000000023 47.800000000000011 26.149999999999977 50.550000000000011 Q31.199999999999989 53.300000000000011 37.699999999999989 53.300000000000011 Q44.299999999999955 53.300000000000011 47.899999999999977 50.100000000000023 Q51.500000000000000 46.899999999999977 52.500000000000000 42.199999999999989 Q55.700000000000045 47.600000000000023 60.600000000000023 50.449999999999989 Q65.500000000000000 53.300000000000011 71.799999999999955 53.300000000000011 Q76.600000000000023 53.300000000000011 79.700000000000045 51.500000000000000 Q82.799999999999955 49.699999999999989 84.500000000000000 46.800000000000011 Q86.200000000000045 43.899999999999977 86.850000000000023 40.199999999999989 Q87.500000000000000 36.500000000000000 87.500000000000000 32.699999999999989 C87.500000000000000 21.800000000000011 87.500000000000000 8.175000000000011 87.500000000000000 0.000000000000000 z" />
<glyph unicode="n" horiz-adv-x="60.399999999999999" d="M54.799999999999997 0.000000000000000 C51.450000000000045 0.000000000000000 44.750000000000000 0.000000000000000 41.399999999999977 0.000000000000000 C41.399999999999977 7.350000000000023 41.399999999999977 22.050000000000011 41.399999999999977 29.399999999999977 Q41.399999999999977 35.699999999999989 39.199999999999989 38.600000000000023 Q37.000000000000000 41.500000000000000 33.100000000000023 41.500000000000000 Q31.100000000000023 41.500000000000000 29.000000000000000 40.699999999999989 Q26.899999999999977 39.899999999999977 25.000000000000000 38.399999999999977 Q23.199999999999989 37.000000000000000 21.699999999999989 35.000000000000000 Q20.199999999999989 33.000000000000000 19.500000000000000 30.600000000000023 C19.500000000000000 20.399999999999977 19.500000000000000 7.649999999999977 19.500000000000000 0.000000000000000 C16.149999999999977 0.000000000000000 9.449999999999989 0.000000000000000 6.100000000000023 0.000000000000000 C6.100000000000023 13.100000000000023 6.100000000000023 39.300000000000011 6.100000000000023 52.399999999999977 C9.125000000000000 52.399999999999977 15.175000000000011 52.399999999999977 18.199999999999989 52.399999999999977 C18.199999999999989 49.975000000000023 18.199999999999989 45.125000000000000 18.199999999999989 42.699999999999989 Q21.100000000000023 47.699999999999989 26.600000000000023 50.500000000000000 Q32.100000000000023 53.300000000000011 39.000000000000000 53.300000000000011 Q43.899999999999977 53.300000000000011 47.000000000000000 51.500000000000000 Q50.100000000000023 49.699999999999989 51.799999999999955 46.800000000000011 Q53.500000000000000 43.899999999999977 54.149999999999977 40.199999999999989 Q54.799999999999955 36.500000000000000 54.799999999999955 32.699999999999989 C54.799999999999955 21.800000000000011 54.799999999999955 8.175000000000011 54.799999999999955 0.000000000000000 z" />
<glyph unicode="o" horiz-adv-x="60.600000000000001" d="M30.300000000000001 -1.000000000000000 Q23.899999999999977 -1.000000000000000 18.800000000000011 1.199999999999989 Q13.699999999999989 3.399999999999977 10.100000000000023 7.100000000000023 Q6.600000000000023 10.899999999999977 4.699999999999989 15.800000000000011 Q2.800000000000011 20.699999999999989 2.800000000000011 26.100000000000023 Q2.800000000000011 31.600000000000023 4.699999999999989 36.500000000000000 Q6.600000000000023 41.399999999999977 10.100000000000023 45.100000000000023 Q13.699999999999989 48.899999999999977 18.800000000000011 51.100000000000023 Q23.899999999999977 53.300000000000011 30.300000000000011 53.300000000000011 Q36.699999999999989 53.300000000000011 41.750000000000000 51.100000000000023 Q46.799999999999955 48.899999999999977 50.299999999999955 45.100000000000023 Q53.899999999999977 41.399999999999977 55.799999999999955 36.500000000000000 Q57.700000000000045 31.600000000000023 57.700000000000045 26.100000000000023 Q57.700000000000045 20.699999999999989 55.799999999999955 15.800000000000011 Q53.899999999999977 10.899999999999977 50.399999999999977 7.100000000000023 Q46.899999999999977 3.399999999999977 41.800000000000011 1.199999999999989 Q36.699999999999989 -1.000000000000000 30.300000000000011 -1.000000000000000 zM16.600000000000001 26.100000000000001 Q16.600000000000023 22.600000000000023 17.649999999999977 19.750000000000000 Q18.699999999999989 16.899999999999977 20.500000000000000 14.800000000000011 Q22.399999999999977 12.699999999999989 24.899999999999977 11.550000000000011 Q27.399999999999977 10.399999999999977 30.300000000000011 10.399999999999977 Q33.199999999999989 10.399999999999977 35.699999999999989 11.550000000000011 Q38.199999999999989 12.699999999999989 40.000000000000000 14.800000000000011 Q41.899999999999977 16.899999999999977 42.949999999999989 19.800000000000011 Q44.000000000000000 22.699999999999989 44.000000000000000 26.199999999999989 Q44.000000000000000 29.600000000000023 42.949999999999989 32.500000000000000 Q41.899999999999977 35.399999999999977 40.000000000000000 37.500000000000000 Q38.199999999999989 39.600000000000023 35.699999999999989 40.750000000000000 Q33.199999999999989 41.899999999999977 30.300000000000011 41.899999999999977 Q27.399999999999977 41.899999999999977 24.899999999999977 40.699999999999989 Q22.399999999999977 39.500000000000000 20.500000000000000 37.399999999999977 Q18.699999999999989 35.300000000000011 17.649999999999977 32.399999999999977 Q16.600000000000023 29.500000000000000 16.600000000000023 26.100000000000023 z" />
<glyph unicode="p" horiz-adv-x="63.399999999999999" d="M37.500000000000000 -1.000000000000000 Q31.300000000000011 -1.000000000000000 26.699999999999989 1.750000000000000 Q22.100000000000023 4.500000000000000 19.500000000000000 9.199999999999989 C19.500000000000000 -0.966666666666640 19.500000000000000 -13.675000000000011 19.500000000000000 -21.300000000000011 C16.149999999999977 -21.300000000000011 9.449999999999989 -21.300000000000011 6.100000000000023 -21.300000000000011 C6.100000000000023 -2.875000000000000 6.100000000000023 33.975000000000023 6.100000000000023 52.399999999999977 C9.024999999999977 52.399999999999977 14.875000000000000 52.399999999999977 17.800000000000011 52.399999999999977 C17.800000000000011 50.149999999999977 17.800000000000011 45.649999999999977 17.800000000000011 43.399999999999977 Q20.699999999999989 48.000000000000000 25.300000000000011 50.649999999999977 Q29.899999999999977 53.300000000000011 35.899999999999977 53.300000000000011 Q41.199999999999989 53.300000000000011 45.700000000000045 51.149999999999977 Q50.200000000000045 49.000000000000000 53.399999999999977 45.300000000000011 Q56.700000000000045 41.699999999999989 58.549999999999955 36.750000000000000 Q60.399999999999977 31.800000000000011 60.399999999999977 26.300000000000011 Q60.399999999999977 20.600000000000023 58.700000000000045 15.600000000000023 Q57.000000000000000 10.600000000000023 53.899999999999977 6.899999999999977 Q50.899999999999977 3.199999999999989 46.700000000000045 1.100000000000023 Q42.500000000000000 -1.000000000000000 37.500000000000000 -1.000000000000000 zM33.000000000000000 10.400000000000000 Q36.000000000000000 10.399999999999977 38.550000000000011 11.699999999999989 Q41.100000000000023 13.000000000000000 42.899999999999977 15.199999999999989 Q44.700000000000045 17.399999999999977 45.700000000000045 20.300000000000011 Q46.700000000000045 23.199999999999989 46.700000000000045 26.300000000000011 Q46.700000000000045 29.600000000000023 45.600000000000023 32.449999999999989 Q44.500000000000000 35.300000000000011 42.500000000000000 37.399999999999977 Q40.600000000000023 39.500000000000000 37.949999999999989 40.699999999999989 Q35.300000000000011 41.899999999999977 32.199999999999989 41.899999999999977 Q30.300000000000011 41.899999999999977 28.300000000000011 41.250000000000000 Q26.300000000000011 40.600000000000023 24.600000000000023 39.399999999999977 Q22.899999999999977 38.199999999999989 21.550000000000011 36.600000000000023 Q20.199999999999989 35.000000000000000 19.500000000000000 33.100000000000023 C19.500000000000000 29.000000000000000 19.500000000000000 23.875000000000000 19.500000000000000 20.800000000000011 Q21.300000000000011 16.300000000000011 25.000000000000000 13.350000000000023 Q28.699999999999989 10.399999999999977 33.000000000000000 10.399999999999977 z" />
<glyph unicode="q" horiz-adv-x="63.399999999999999" d="M25.899999999999999 -1.000000000000000 Q20.899999999999977 -1.000000000000000 16.699999999999989 1.149999999999977 Q12.500000000000000 3.300000000000011 9.399999999999977 7.000000000000000 Q6.399999999999977 10.699999999999989 4.699999999999989 15.649999999999977 Q3.000000000000000 20.600000000000023 3.000000000000000 26.300000000000011 Q3.000000000000000 32.000000000000000 4.850000000000023 36.899999999999977 Q6.699999999999989 41.800000000000011 10.000000000000000 45.399999999999977 Q13.300000000000011 49.100000000000023 17.800000000000011 51.199999999999989 Q22.300000000000011 53.300000000000011 27.500000000000000 53.300000000000011 Q33.500000000000000 53.300000000000011 38.100000000000023 50.550000000000011 Q42.699999999999989 47.800000000000011 45.600000000000023 43.300000000000011 C45.600000000000023 46.333333333333314 45.600000000000023 50.125000000000000 45.600000000000023 52.399999999999977 C48.524999999999977 52.399999999999977 54.375000000000000 52.399999999999977 57.299999999999955 52.399999999999977 C57.299999999999955 38.000000000000000 57.299999999999955 9.199999999999989 57.299999999999955 -5.199999999999989 Q57.299999999999955 -7.399999999999977 58.100000000000023 -8.250000000000000 Q58.899999999999977 -9.100000000000023 60.899999999999977 -9.199999999999989 C60.899999999999977 -13.000000000000000 60.899999999999977 -17.750000000000000 60.899999999999977 -20.600000000000023 Q59.200000000000045 -20.899999999999977 57.200000000000045 -21.050000000000011 Q55.200000000000045 -21.199999999999989 53.600000000000023 -21.199999999999989 Q51.600000000000023 -21.199999999999989 49.850000000000023 -20.500000000000000 Q48.100000000000023 -19.800000000000011 46.799999999999955 -18.600000000000023 Q45.500000000000000 -17.399999999999977 44.700000000000045 -15.750000000000000 Q43.899999999999977 -14.100000000000023 43.899999999999977 -12.100000000000023 C43.899999999999977 -5.000000000000000 43.899999999999977 3.875000000000000 43.899999999999977 9.199999999999989 Q41.000000000000000 4.100000000000023 36.399999999999977 1.550000000000011 Q31.800000000000011 -1.000000000000000 25.899999999999977 -1.000000000000000 zM30.899999999999999 10.400000000000000 Q35.199999999999989 10.399999999999977 38.399999999999977 12.800000000000011 Q41.600000000000023 15.199999999999989 43.899999999999977 19.000000000000000 C43.899999999999977 23.133333333333326 43.899999999999977 28.300000000000011 43.899999999999977 31.399999999999977 Q43.299999999999955 33.600000000000023 41.949999999999989 35.500000000000000 Q40.600000000000023 37.399999999999977 38.800000000000011 38.800000000000011 Q37.000000000000000 40.300000000000011 34.899999999999977 41.100000000000023 Q32.800000000000011 41.899999999999977 30.699999999999989 41.899999999999977 Q27.600000000000023 41.899999999999977 25.050000000000011 40.600000000000023 Q22.500000000000000 39.300000000000011 20.600000000000023 37.000000000000000 Q18.800000000000011 34.800000000000011 17.750000000000000 31.899999999999977 Q16.699999999999989 29.000000000000000 16.699999999999989 25.899999999999977 Q16.699999999999989 22.600000000000023 17.750000000000000 19.800000000000011 Q18.800000000000011 17.000000000000000 20.600000000000023 14.899999999999977 Q22.500000000000000 12.800000000000011 25.100000000000023 11.600000000000023 Q27.699999999999989 10.399999999999977 30.899999999999977 10.399999999999977 z" />
<glyph unicode="r" horiz-adv-x="38.700000000000003" d="M37.299999999999997 40.799999999999997 Q31.199999999999989 40.700000000000045 26.399999999999977 38.449999999999989 Q21.600000000000023 36.199999999999989 19.500000000000000 31.699999999999989 C19.500000000000000 21.133333333333326 19.500000000000000 7.925000000000011 19.500000000000000 0.000000000000000 C16.149999999999977 0.000000000000000 9.449999999999989 0.000000000000000 6.100000000000023 0.000000000000000 C6.100000000000023 13.100000000000023 6.100000000000023 39.300000000000011 6.100000000000023 52.399999999999977 C9.175000000000011 52.399999999999977 15.324999999999989 52.399999999999977 18.399999999999977 52.399999999999977 C18.399999999999977 49.600000000000023 18.399999999999977 44.000000000000000 18.399999999999977 41.199999999999989 Q19.800000000000011 43.899999999999977 21.699999999999989 46.050000000000011 Q23.600000000000023 48.199999999999989 25.800000000000011 49.800000000000011 Q28.000000000000000 51.399999999999977 30.250000000000000 52.250000000000000 Q32.500000000000000 53.100000000000023 34.600000000000023 53.100000000000023 Q35.699999999999989 53.100000000000023 36.250000000000000 53.100000000000023 Q36.800000000000011 53.100000000000023 37.300000000000011 53.000000000000000 C37.300000000000011 48.933333333333337 37.300000000000011 43.850000000000023 37.300000000000011 40.800000000000011 z" />
<glyph unicode="s" horiz-adv-x="49.700000000000003" d="M25.899999999999999 -1.000000000000000 Q19.300000000000011 -1.000000000000000 13.000000000000000 1.100000000000023 Q6.699999999999989 3.199999999999989 2.199999999999989 7.100000000000023 C3.866666666666674 9.899999999999977 5.949999999999989 13.399999999999977 7.199999999999989 15.500000000000000 Q12.000000000000000 12.100000000000023 16.550000000000011 10.350000000000023 Q21.100000000000023 8.600000000000023 25.600000000000023 8.600000000000023 Q29.600000000000023 8.600000000000023 31.899999999999977 10.100000000000023 Q34.199999999999989 11.600000000000023 34.199999999999989 14.399999999999977 Q34.199999999999989 17.199999999999989 31.500000000000000 18.500000000000000 Q28.800000000000011 19.800000000000011 22.699999999999989 21.500000000000000 Q17.600000000000023 22.899999999999977 14.000000000000000 24.199999999999989 Q10.399999999999977 25.500000000000000 8.199999999999989 27.100000000000023 Q6.000000000000000 28.800000000000011 5.000000000000000 30.949999999999989 Q4.000000000000000 33.100000000000023 4.000000000000000 36.100000000000023 Q4.000000000000000 40.100000000000023 5.550000000000011 43.300000000000011 Q7.100000000000023 46.500000000000000 9.899999999999977 48.699999999999989 Q12.699999999999989 51.000000000000000 16.449999999999989 52.199999999999989 Q20.199999999999989 53.399999999999977 24.600000000000023 53.399999999999977 Q30.500000000000000 53.399999999999977 35.649999999999977 51.699999999999989 Q40.800000000000011 50.000000000000000 45.100000000000023 46.199999999999989 C43.299999999999955 43.500000000000000 41.050000000000011 40.125000000000000 39.699999999999989 38.100000000000023 Q35.699999999999989 41.100000000000023 31.949999999999989 42.500000000000000 Q28.199999999999989 43.899999999999977 24.500000000000000 43.899999999999977 Q21.100000000000023 43.899999999999977 18.800000000000011 42.500000000000000 Q16.500000000000000 41.100000000000023 16.500000000000000 38.000000000000000 Q16.500000000000000 36.600000000000023 17.050000000000011 35.699999999999989 Q17.600000000000023 34.800000000000011 18.800000000000011 34.100000000000023 Q20.000000000000000 33.399999999999977 21.949999999999989 32.750000000000000 Q23.899999999999977 32.100000000000023 26.800000000000011 31.399999999999977 Q32.199999999999989 30.000000000000000 36.050000000000011 28.600000000000023 Q39.899999999999977 27.199999999999989 42.300000000000011 25.399999999999977 Q44.799999999999955 23.600000000000023 45.950000000000045 21.250000000000000 Q47.100000000000023 18.899999999999977 47.100000000000023 15.600000000000023 Q47.100000000000023 7.899999999999977 41.399999999999977 3.449999999999989 Q35.699999999999989 -1.000000000000000 25.899999999999977 -1.000000000000000 z" />
<glyph unicode="t" horiz-adv-x="38.399999999999999" d="M37.500000000000000 2.700000000000000 Q34.800000000000011 1.500000000000000 30.899999999999977 0.300000000000011 Q27.000000000000000 -0.899999999999977 22.699999999999989 -0.899999999999977 Q19.899999999999977 -0.899999999999977 17.449999999999989 -0.199999999999989 Q15.000000000000000 0.500000000000000 13.100000000000023 2.000000000000000 Q11.300000000000011 3.600000000000023 10.199999999999989 6.050000000000011 Q9.100000000000023 8.500000000000000 9.100000000000023 12.000000000000000 C9.100000000000023 22.033333333333303 9.100000000000023 34.574999999999989 9.100000000000023 42.100000000000023 C7.375000000000000 42.100000000000023 3.925000000000011 42.100000000000023 2.199999999999989 42.100000000000023 C2.199999999999989 44.675000000000011 2.199999999999989 49.824999999999989 2.199999999999989 52.399999999999977 C3.925000000000011 52.399999999999977 7.375000000000000 52.399999999999977 9.100000000000023 52.399999999999977 C9.100000000000023 56.649999999999977 9.100000000000023 65.150000000000006 9.100000000000023 69.400000000000006 C12.449999999999989 69.400000000000006 19.149999999999977 69.400000000000006 22.500000000000000 69.400000000000006 C22.500000000000000 65.150000000000006 22.500000000000000 56.649999999999977 22.500000000000000 52.399999999999977 C25.250000000000000 52.399999999999977 30.750000000000000 52.399999999999977 33.500000000000000 52.399999999999977 C33.500000000000000 49.824999999999989 33.500000000000000 44.675000000000011 33.500000000000000 42.100000000000023 C30.750000000000000 42.100000000000023 25.250000000000000 42.100000000000023 22.500000000000000 42.100000000000023 C22.500000000000000 35.699999999999989 22.500000000000000 22.899999999999977 22.500000000000000 16.500000000000000 Q22.500000000000000 13.699999999999989 23.949999999999989 12.550000000000011 Q25.399999999999977 11.399999999999977 27.500000000000000 11.399999999999977 Q29.600000000000023 11.399999999999977 31.600000000000023 12.100000000000023 Q33.600000000000023 12.800000000000011 34.800000000000011 13.300000000000011 C35.699999999999989 9.766666666666652 36.824999999999989 5.350000000000023 37.500000000000000 2.699999999999989 z" />
<glyph unicode="u" horiz-adv-x="61.799999999999997" d="M22.100000000000001 -1.000000000000000 Q14.000000000000000 -1.000000000000000 9.800000000000011 4.199999999999989 Q5.600000000000023 9.399999999999977 5.600000000000023 19.600000000000023 C5.600000000000023 30.533333333333303 5.600000000000023 44.199999999999989 5.600000000000023 52.399999999999977 C8.949999999999989 52.399999999999977 15.649999999999977 52.399999999999977 19.000000000000000 52.399999999999977 C19.000000000000000 44.925000000000011 19.000000000000000 29.975000000000023 19.000000000000000 22.500000000000000 Q19.000000000000000 10.399999999999977 27.699999999999989 10.399999999999977 Q31.600000000000023 10.399999999999977 35.250000000000000 12.750000000000000 Q38.899999999999977 15.100000000000023 41.199999999999989 19.899999999999977 C41.199999999999989 30.733333333333348 41.199999999999989 44.274999999999977 41.199999999999989 52.399999999999977 C44.549999999999955 52.399999999999977 51.250000000000000 52.399999999999977 54.600000000000023 52.399999999999977 C54.600000000000023 43.149999999999977 54.600000000000023 24.649999999999977 54.600000000000023 15.399999999999977 Q54.600000000000023 13.300000000000011 55.350000000000023 12.399999999999977 Q56.100000000000023 11.500000000000000 57.799999999999955 11.399999999999977 C57.799999999999955 7.600000000000023 57.799999999999955 2.850000000000023 57.799999999999955 0.000000000000000 Q55.799999999999955 -0.399999999999977 54.450000000000045 -0.500000000000000 Q53.100000000000023 -0.600000000000023 52.000000000000000 -0.600000000000023 Q48.399999999999977 -0.600000000000023 46.149999999999977 1.050000000000011 Q43.899999999999977 2.699999999999989 43.500000000000000 5.600000000000023 C43.399999999999977 7.000000000000000 43.274999999999977 8.750000000000000 43.200000000000045 9.800000000000011 Q39.699999999999989 4.399999999999977 34.199999999999989 1.699999999999989 Q28.699999999999989 -1.000000000000000 22.100000000000023 -1.000000000000000 z" />
<glyph unicode="v" horiz-adv-x="54.899999999999999" d="M20.199999999999999 0.000000000000000 C15.375000000000000 13.100000000000023 5.725000000000023 39.300000000000011 0.899999999999977 52.399999999999977 C4.350000000000023 52.399999999999977 11.250000000000000 52.399999999999977 14.699999999999989 52.399999999999977 C18.024999999999977 42.024999999999977 24.675000000000011 21.274999999999977 28.000000000000000 10.899999999999977 C31.350000000000023 21.274999999999977 38.050000000000011 42.024999999999977 41.399999999999977 52.399999999999977 C44.549999999999955 52.399999999999977 50.850000000000023 52.399999999999977 54.000000000000000 52.399999999999977 C49.174999999999955 39.300000000000011 39.524999999999977 13.100000000000023 34.699999999999989 0.000000000000000 C31.074999999999989 0.000000000000000 23.824999999999989 0.000000000000000 20.199999999999989 0.000000000000000 z" />
<glyph unicode="w" horiz-adv-x="83.900000000000006" d="M71.099999999999994 52.399999999999999 C74.274999999999977 52.399999999999977 80.625000000000000 52.399999999999977 83.799999999999955 52.399999999999977 C78.325000000000045 39.300000000000011 67.375000000000000 13.100000000000023 61.899999999999977 0.000000000000000 C59.149999999999977 0.000000000000000 53.649999999999977 0.000000000000000 50.899999999999977 0.000000000000000 C48.649999999999977 5.750000000000000 44.149999999999977 17.250000000000000 41.899999999999977 23.000000000000000 C39.675000000000011 17.250000000000000 35.225000000000023 5.750000000000000 33.000000000000000 0.000000000000000 C30.250000000000000 0.000000000000000 24.750000000000000 0.000000000000000 22.000000000000000 0.000000000000000 C16.550000000000011 13.100000000000023 5.649999999999977 39.300000000000011 0.199999999999989 52.399999999999977 C3.350000000000023 52.399999999999977 9.649999999999977 52.399999999999977 12.800000000000011 52.399999999999977 C16.699999999999989 42.449999999999989 24.500000000000000 22.550000000000011 28.399999999999977 12.600000000000023 C30.000000000000000 16.850000000000023 33.199999999999989 25.350000000000023 34.800000000000011 29.600000000000023 C38.399999999999977 29.600000000000023 45.600000000000023 29.600000000000023 49.200000000000045 29.600000000000023 C50.774999999999977 25.350000000000023 53.924999999999955 16.850000000000023 55.500000000000000 12.600000000000023 C59.399999999999977 22.550000000000011 67.200000000000045 42.449999999999989 71.100000000000023 52.399999999999977 z" />
<glyph unicode="x" horiz-adv-x="53.100000000000001" d="M14.400000000000000 52.399999999999999 C17.225000000000023 48.300000000000011 22.875000000000000 40.100000000000023 25.699999999999989 36.000000000000000 C25.899999999999977 35.550000000000011 26.300000000000011 34.649999999999977 26.500000000000000 34.199999999999989 C26.750000000000000 34.649999999999977 27.250000000000000 35.550000000000011 27.500000000000000 36.000000000000000 C30.300000000000011 40.100000000000023 35.899999999999977 48.300000000000011 38.699999999999989 52.399999999999977 C42.149999999999977 52.399999999999977 49.049999999999955 52.399999999999977 52.500000000000000 52.399999999999977 C47.825000000000045 45.824999999999989 38.475000000000023 32.675000000000011 33.800000000000011 26.100000000000023 C38.550000000000011 19.574999999999989 48.049999999999955 6.524999999999977 52.799999999999955 0.000000000000000 C49.350000000000023 0.000000000000000 42.449999999999989 0.000000000000000 39.000000000000000 0.000000000000000 C36.100000000000023 4.074999999999989 30.300000000000011 12.225000000000023 27.399999999999977 16.300000000000011 C27.175000000000011 16.725000000000023 26.725000000000023 17.574999999999989 26.500000000000000 18.000000000000000 C26.300000000000011 17.574999999999989 25.899999999999977 16.725000000000023 25.699999999999989 16.300000000000011 C22.824999999999989 12.225000000000023 17.074999999999989 4.074999999999989 14.199999999999989 0.000000000000000 C10.750000000000000 0.000000000000000 3.850000000000023 0.000000000000000 0.399999999999977 0.000000000000000 C5.125000000000000 6.524999999999977 14.574999999999989 19.574999999999989 19.300000000000011 26.100000000000023 C14.649999999999977 32.675000000000011 5.350000000000023 45.824999999999989 0.699999999999989 52.399999999999977 C4.125000000000000 52.399999999999977 10.975000000000023 52.399999999999977 14.399999999999977 52.399999999999977 z" />
<glyph unicode="y" horiz-adv-x="55" d="M7.200000000000000 -10.199999999999999 Q8.899999999999977 -10.699999999999989 10.500000000000000 -10.949999999999989 Q12.100000000000023 -11.199999999999989 13.199999999999989 -11.199999999999989 Q14.500000000000000 -11.199999999999989 15.600000000000023 -10.699999999999989 Q16.699999999999989 -10.199999999999989 17.600000000000023 -8.899999999999977 Q18.500000000000000 -7.699999999999989 19.399999999999977 -5.500000000000000 Q20.300000000000011 -3.300000000000011 21.300000000000011 0.000000000000000 C14.399999999999977 17.466666666666640 5.774999999999977 39.300000000000011 0.600000000000023 52.399999999999977 C4.050000000000011 52.399999999999977 10.949999999999989 52.399999999999977 14.399999999999977 52.399999999999977 C17.949999999999989 42.199999999999989 25.050000000000011 21.800000000000011 28.600000000000023 11.600000000000023 C31.750000000000000 21.800000000000011 38.050000000000011 42.199999999999989 41.199999999999989 52.399999999999977 C44.350000000000023 52.399999999999977 50.649999999999977 52.399999999999977 53.799999999999955 52.399999999999977 C48.299999999999955 36.699999999999989 37.300000000000011 5.300000000000011 31.800000000000011 -10.399999999999977 Q29.899999999999977 -15.899999999999977 25.300000000000011 -19.399999999999977 Q20.699999999999989 -22.899999999999977 13.899999999999977 -22.899999999999977 Q12.300000000000011 -22.899999999999977 10.649999999999977 -22.649999999999977 Q9.000000000000000 -22.399999999999977 7.199999999999989 -21.800000000000011 C7.199999999999989 -17.933333333333337 7.199999999999989 -13.100000000000023 7.199999999999989 -10.199999999999989 z" />
<glyph unicode="z" horiz-adv-x="49.299999999999997" d="M2.600000000000000 8.199999999999999 C9.899999999999977 16.899999999999977 24.500000000000000 34.300000000000011 31.800000000000011 43.000000000000000 C24.800000000000011 43.000000000000000 10.800000000000011 43.000000000000000 3.800000000000011 43.000000000000000 C3.800000000000011 45.350000000000023 3.800000000000011 50.050000000000011 3.800000000000011 52.399999999999977 C14.324999999999989 52.399999999999977 35.375000000000000 52.399999999999977 45.899999999999977 52.399999999999977 C45.899999999999977 50.350000000000023 45.899999999999977 46.250000000000000 45.899999999999977 44.199999999999989 C38.649999999999977 35.500000000000000 24.149999999999977 18.100000000000023 16.899999999999977 9.399999999999977 C24.274999999999977 9.399999999999977 39.024999999999977 9.399999999999977 46.399999999999977 9.399999999999977 C46.399999999999977 7.050000000000011 46.399999999999977 2.350000000000023 46.399999999999977 0.000000000000000 C35.449999999999989 0.000000000000000 13.550000000000011 0.000000000000000 2.600000000000023 0.000000000000000 C2.600000000000023 2.050000000000011 2.600000000000023 6.149999999999977 2.600000000000023 8.199999999999989 z" />
<glyph unicode="{" horiz-adv-x="31.699999999999999" d="M21.199999999999999 63.299999999999997 C21.199999999999989 58.199999999999989 21.199999999999989 48.000000000000000 21.199999999999989 42.899999999999977 Q21.199999999999989 40.899999999999977 20.300000000000011 39.149999999999977 Q19.399999999999977 37.399999999999977 17.800000000000011 36.000000000000000 Q19.300000000000011 34.600000000000023 20.250000000000000 32.850000000000023 Q21.199999999999989 31.100000000000023 21.199999999999989 29.100000000000023 C21.199999999999989 21.933333333333337 21.199999999999989 12.975000000000023 21.199999999999989 7.600000000000023 C22.574999999999989 7.600000000000023 25.324999999999989 7.600000000000023 26.699999999999989 7.600000000000023 C26.699999999999989 4.925000000000011 26.699999999999989 -0.425000000000011 26.699999999999989 -3.100000000000023 C22.899999999999977 -3.100000000000023 15.300000000000011 -3.100000000000023 11.500000000000000 -3.100000000000023 Q10.800000000000011 -3.100000000000023 10.000000000000000 -2.500000000000000 Q9.199999999999989 -1.899999999999977 9.199999999999989 -0.100000000000023 C9.199999999999989 8.166666666666686 9.199999999999989 18.500000000000000 9.199999999999989 24.699999999999989 Q9.199999999999989 27.300000000000011 7.699999999999989 29.149999999999977 Q6.199999999999989 31.000000000000000 4.199999999999989 31.399999999999977 C4.199999999999989 34.533333333333303 4.199999999999989 38.449999999999989 4.199999999999989 40.800000000000011 Q5.199999999999989 40.800000000000011 6.149999999999977 41.399999999999977 Q7.100000000000023 42.000000000000000 7.699999999999989 43.000000000000000 Q8.399999999999977 44.000000000000000 8.800000000000011 45.100000000000023 Q9.199999999999989 46.199999999999989 9.199999999999989 47.300000000000011 C9.199999999999989 55.199999999999989 9.199999999999989 65.074999999999989 9.199999999999989 71.000000000000000 Q9.199999999999989 72.900000000000006 10.050000000000011 73.449999999999989 Q10.899999999999977 74.000000000000000 11.500000000000000 74.000000000000000 C16.566666666666663 74.000000000000000 22.899999999999977 74.000000000000000 26.699999999999989 74.000000000000000 C26.699999999999989 71.324999999999989 26.699999999999989 65.974999999999994 26.699999999999989 63.300000000000011 C25.324999999999989 63.300000000000011 22.574999999999989 63.300000000000011 21.199999999999989 63.300000000000011 z" />
<glyph unicode="|" horiz-adv-x="27.199999999999999" d="M7.900000000000000 -13.000000000000000 C7.899999999999977 9.625000000000000 7.899999999999977 54.875000000000000 7.899999999999977 77.500000000000000 C10.750000000000000 77.500000000000000 16.449999999999989 77.500000000000000 19.300000000000011 77.500000000000000 C19.300000000000011 54.875000000000000 19.300000000000011 9.625000000000000 19.300000000000011 -13.000000000000000 C16.449999999999989 -13.000000000000000 10.750000000000000 -13.000000000000000 7.899999999999977 -13.000000000000000 z" />
<glyph unicode="}" horiz-adv-x="31.699999999999999" d="M5.000000000000000 63.299999999999997 C5.000000000000000 65.974999999999994 5.000000000000000 71.324999999999989 5.000000000000000 74.000000000000000 C8.824999999999989 74.000000000000000 16.475000000000023 74.000000000000000 20.300000000000011 74.000000000000000 Q20.800000000000011 74.000000000000000 21.699999999999989 73.449999999999989 Q22.600000000000023 72.900000000000006 22.600000000000023 71.000000000000000 C22.600000000000023 63.099999999999994 22.600000000000023 53.225000000000023 22.600000000000023 47.300000000000011 Q22.600000000000023 46.199999999999989 23.000000000000000 45.100000000000023 Q23.399999999999977 44.000000000000000 24.000000000000000 43.000000000000000 Q24.699999999999989 42.000000000000000 25.600000000000023 41.399999999999977 Q26.500000000000000 40.800000000000011 27.600000000000023 40.800000000000011 C27.600000000000023 37.666666666666686 27.600000000000023 33.750000000000000 27.600000000000023 31.399999999999977 Q25.600000000000023 31.000000000000000 24.100000000000023 29.149999999999977 Q22.600000000000023 27.300000000000011 22.600000000000023 24.699999999999989 C22.600000000000023 16.433333333333337 22.600000000000023 6.100000000000023 22.600000000000023 -0.100000000000023 Q22.600000000000023 -1.899999999999977 21.750000000000000 -2.500000000000000 Q20.899999999999977 -3.100000000000023 20.300000000000011 -3.100000000000023 C15.199999999999989 -3.100000000000023 8.824999999999989 -3.100000000000023 5.000000000000000 -3.100000000000023 C5.000000000000000 -0.425000000000011 5.000000000000000 4.925000000000011 5.000000000000000 7.600000000000023 C6.375000000000000 7.600000000000023 9.125000000000000 7.600000000000023 10.500000000000000 7.600000000000023 C10.500000000000000 12.975000000000023 10.500000000000000 23.725000000000023 10.500000000000000 29.100000000000023 Q10.500000000000000 31.100000000000023 11.449999999999989 32.850000000000023 Q12.399999999999977 34.600000000000023 14.000000000000000 36.000000000000000 Q12.399999999999977 37.399999999999977 11.449999999999989 39.149999999999977 Q10.500000000000000 40.899999999999977 10.500000000000000 42.899999999999977 C10.500000000000000 49.699999999999989 10.500000000000000 58.199999999999989 10.500000000000000 63.300000000000011 C9.125000000000000 63.300000000000011 6.375000000000000 63.300000000000011 5.000000000000000 63.300000000000011 z" />
<glyph unicode="~" horiz-adv-x="56.700000000000003" d="M5.600000000000000 22.800000000000001 Q5.600000000000023 23.699999999999989 6.300000000000011 25.850000000000023 Q7.000000000000000 28.000000000000000 8.600000000000023 30.199999999999989 Q10.199999999999989 32.500000000000000 12.899999999999977 34.250000000000000 Q15.600000000000023 36.000000000000000 19.500000000000000 36.000000000000000 Q22.199999999999989 36.000000000000000 24.449999999999989 35.149999999999977 Q26.699999999999989 34.300000000000011 28.699999999999989 33.300000000000011 Q30.800000000000011 32.300000000000011 32.800000000000011 31.449999999999989 Q34.800000000000011 30.600000000000023 37.100000000000023 30.600000000000023 Q39.199999999999989 30.600000000000023 40.550000000000011 31.350000000000023 Q41.899999999999977 32.100000000000023 42.600000000000023 33.000000000000000 Q43.399999999999977 33.899999999999977 43.700000000000045 34.750000000000000 Q44.000000000000000 35.600000000000023 44.000000000000000 35.800000000000011 C46.466666666666697 35.800000000000011 49.549999999999955 35.800000000000011 51.399999999999977 35.800000000000011 Q51.399999999999977 35.300000000000011 50.700000000000045 33.199999999999989 Q50.000000000000000 31.100000000000023 48.299999999999955 28.800000000000011 Q46.700000000000045 26.500000000000000 43.899999999999977 24.649999999999977 Q41.100000000000023 22.800000000000011 37.000000000000000 22.800000000000011 Q34.300000000000011 22.800000000000011 32.000000000000000 23.600000000000023 Q29.699999999999989 24.399999999999977 27.600000000000023 25.399999999999977 Q25.500000000000000 26.399999999999977 23.500000000000000 27.199999999999989 Q21.500000000000000 28.000000000000000 19.399999999999977 28.000000000000000 Q17.300000000000011 28.000000000000000 16.050000000000011 27.199999999999989 Q14.800000000000011 26.399999999999977 14.100000000000023 25.399999999999977 Q13.500000000000000 24.500000000000000 13.250000000000000 23.699999999999989 Q13.000000000000000 22.899999999999977 13.000000000000000 22.800000000000011 C10.533333333333360 22.800000000000011 7.449999999999989 22.800000000000011 5.600000000000023 22.800000000000011 C5.600000000000023 22.800000000000011 5.600000000000023 22.800000000000011 5.600000000000023 22.800000000000011 z" />
<glyph unicode="" horiz-adv-x="24" d="" />
<glyph unicode="" horiz-adv-x="30.5" d="M22.000000000000000 44.500000000000000 C22.000000000000000 33.250000000000000 22.000000000000000 10.750000000000000 22.000000000000000 -0.500000000000000 C18.649999999999977 -0.500000000000000 11.949999999999989 -0.500000000000000 8.600000000000023 -0.500000000000000 C8.600000000000023 10.750000000000000 8.600000000000023 33.250000000000000 8.600000000000023 44.500000000000000 C11.949999999999989 44.500000000000000 18.649999999999977 44.500000000000000 22.000000000000000 44.500000000000000 zM22.000000000000000 71.200000000000003 C22.000000000000000 67.425000000000011 22.000000000000000 59.875000000000000 22.000000000000000 56.100000000000023 C18.649999999999977 56.100000000000023 11.949999999999989 56.100000000000023 8.600000000000023 56.100000000000023 C8.600000000000023 59.875000000000000 8.600000000000023 67.425000000000011 8.600000000000023 71.199999999999989 C11.949999999999989 71.199999999999989 18.649999999999977 71.199999999999989 22.000000000000000 71.199999999999989 z" />
<glyph unicode="" horiz-adv-x="59.200000000000003" d="M27.600000000000001 -12.000000000000000 C27.600000000000023 -9.225000000000023 27.600000000000023 -3.675000000000011 27.600000000000023 -0.899999999999977 Q22.399999999999977 -0.500000000000000 18.050000000000011 1.949999999999989 Q13.699999999999989 4.399999999999977 10.500000000000000 8.100000000000023 Q7.399999999999977 11.800000000000011 5.649999999999977 16.399999999999977 Q3.899999999999977 21.000000000000000 3.899999999999977 25.800000000000011 Q3.899999999999977 30.899999999999977 5.449999999999989 35.500000000000000 Q7.000000000000000 40.100000000000023 10.000000000000000 43.699999999999989 Q13.100000000000023 47.399999999999977 17.500000000000000 49.899999999999977 Q21.899999999999977 52.399999999999977 27.600000000000023 53.199999999999989 C27.600000000000023 56.966666666666697 27.600000000000023 61.675000000000011 27.600000000000023 64.500000000000000 C29.100000000000023 64.500000000000000 32.100000000000023 64.500000000000000 33.600000000000023 64.500000000000000 C33.600000000000023 61.675000000000011 33.600000000000023 56.024999999999977 33.600000000000023 53.199999999999989 Q40.600000000000023 53.000000000000000 46.299999999999955 49.600000000000023 Q52.000000000000000 46.199999999999989 55.200000000000045 39.899999999999977 C50.866666666666674 38.566666666666663 45.450000000000045 36.899999999999977 42.199999999999989 35.899999999999977 Q40.800000000000011 38.500000000000000 38.500000000000000 39.899999999999977 Q36.199999999999989 41.300000000000011 33.600000000000023 41.500000000000000 C33.600000000000023 31.233333333333348 33.600000000000023 18.399999999999977 33.600000000000023 10.699999999999989 Q36.300000000000011 11.199999999999989 38.949999999999989 12.750000000000000 Q41.600000000000023 14.300000000000011 42.399999999999977 16.600000000000023 C46.766666666666652 15.266666666666652 52.225000000000023 13.600000000000023 55.500000000000000 12.600000000000023 Q54.000000000000000 9.199999999999989 51.399999999999977 6.649999999999977 Q48.799999999999955 4.100000000000023 45.700000000000045 2.399999999999977 Q42.600000000000023 0.699999999999989 39.399999999999977 -0.149999999999977 Q36.199999999999989 -1.000000000000000 33.600000000000023 -1.000000000000000 C33.600000000000023 -4.666666666666686 33.600000000000023 -9.250000000000000 33.600000000000023 -12.000000000000000 C32.100000000000023 -12.000000000000000 29.100000000000023 -12.000000000000000 27.600000000000023 -12.000000000000000 zM17.699999999999999 25.800000000000001 Q17.699999999999989 23.300000000000011 18.399999999999977 21.000000000000000 Q19.100000000000023 18.699999999999989 20.399999999999977 16.800000000000011 Q21.699999999999989 14.899999999999977 23.500000000000000 13.449999999999989 Q25.300000000000011 12.000000000000000 27.600000000000023 11.300000000000011 C27.600000000000023 21.166666666666686 27.600000000000023 33.500000000000000 27.600000000000023 40.899999999999977 Q25.300000000000011 40.399999999999977 23.449999999999989 39.000000000000000 Q21.600000000000023 37.600000000000023 20.300000000000011 35.500000000000000 Q19.000000000000000 33.500000000000000 18.350000000000023 31.000000000000000 Q17.699999999999989 28.500000000000000 17.699999999999989 25.800000000000011 z" />
<glyph unicode="" horiz-adv-x="54.5" d="M5.700000000000000 38.100000000000001 C7.500000000000000 38.100000000000023 11.100000000000023 38.100000000000023 12.899999999999977 38.100000000000023 Q11.100000000000023 41.899999999999977 9.350000000000023 45.699999999999989 Q7.600000000000023 49.500000000000000 7.600000000000023 53.699999999999989 Q7.600000000000023 57.399999999999977 9.199999999999989 60.649999999999977 Q10.800000000000011 63.900000000000006 13.600000000000023 66.300000000000011 Q16.399999999999977 68.699999999999989 20.149999999999977 70.099999999999994 Q23.899999999999977 71.500000000000000 28.199999999999989 71.500000000000000 Q34.300000000000011 71.500000000000000 39.750000000000000 68.699999999999989 Q45.200000000000045 65.900000000000006 48.899999999999977 61.000000000000000 C46.566666666666606 58.266666666666652 43.649999999999977 54.850000000000023 41.899999999999977 52.800000000000011 Q39.399999999999977 56.300000000000011 35.550000000000011 58.449999999999989 Q31.699999999999989 60.600000000000023 28.000000000000000 60.600000000000023 Q24.300000000000011 60.600000000000023 21.949999999999989 58.250000000000000 Q19.600000000000023 55.899999999999977 19.600000000000023 52.399999999999977 Q19.600000000000023 50.699999999999989 20.149999999999977 49.000000000000000 Q20.699999999999989 47.300000000000011 21.500000000000000 45.500000000000000 Q22.300000000000011 43.800000000000011 23.250000000000000 41.949999999999989 Q24.199999999999989 40.100000000000023 25.000000000000000 38.100000000000023 C31.133333333333326 38.100000000000023 38.800000000000011 38.100000000000023 43.399999999999977 38.100000000000023 C43.399999999999977 35.574999999999989 43.399999999999977 30.524999999999977 43.399999999999977 28.000000000000000 C39.350000000000023 28.000000000000000 31.250000000000000 28.000000000000000 27.199999999999989 28.000000000000000 Q27.199999999999989 23.300000000000011 25.350000000000023 19.250000000000000 Q23.500000000000000 15.199999999999989 18.800000000000011 10.399999999999977 Q21.000000000000000 11.100000000000023 22.850000000000023 11.350000000000023 Q24.699999999999989 11.600000000000023 26.399999999999977 11.600000000000023 Q30.100000000000023 11.600000000000023 33.350000000000023 10.750000000000000 Q36.600000000000023 9.899999999999977 40.000000000000000 9.899999999999977 Q41.800000000000011 9.899999999999977 43.500000000000000 10.300000000000011 Q45.200000000000045 10.699999999999989 47.500000000000000 11.500000000000000 C48.600000000000023 8.166666666666686 49.975000000000023 4.000000000000000 50.799999999999955 1.500000000000000 Q48.299999999999955 0.100000000000023 45.250000000000000 -0.699999999999989 Q42.199999999999989 -1.500000000000000 39.300000000000011 -1.500000000000000 Q37.000000000000000 -1.500000000000000 34.750000000000000 -1.050000000000011 Q32.500000000000000 -0.600000000000023 30.199999999999989 0.000000000000000 Q27.899999999999977 0.500000000000000 25.550000000000011 0.949999999999989 Q23.199999999999989 1.399999999999977 20.800000000000011 1.399999999999977 Q18.199999999999989 1.399999999999977 14.699999999999989 0.800000000000011 Q11.199999999999989 0.199999999999989 8.000000000000000 -0.800000000000011 C7.033333333333360 2.366666666666674 5.824999999999989 6.324999999999989 5.100000000000023 8.699999999999989 Q10.500000000000000 13.199999999999989 13.149999999999977 17.800000000000011 Q15.800000000000011 22.399999999999977 15.800000000000011 28.000000000000000 C12.433333333333337 28.000000000000000 8.225000000000023 28.000000000000000 5.699999999999989 28.000000000000000 C5.699999999999989 30.524999999999977 5.699999999999989 35.574999999999989 5.699999999999989 38.100000000000023 z" />
<glyph unicode="" horiz-adv-x="55.200000000000003" d="M17.000000000000000 49.500000000000000 Q19.199999999999989 50.899999999999977 21.850000000000023 51.699999999999989 Q24.500000000000000 52.500000000000000 27.699999999999989 52.500000000000000 Q30.699999999999989 52.500000000000000 33.350000000000023 51.750000000000000 Q36.000000000000000 51.000000000000000 38.199999999999989 49.600000000000023 C40.500000000000000 51.966666666666697 43.375000000000000 54.925000000000011 45.100000000000023 56.699999999999989 C46.475000000000023 55.324999999999989 49.225000000000023 52.574999999999989 50.600000000000023 51.199999999999989 C48.899999999999977 49.524999999999977 45.500000000000000 46.175000000000011 43.799999999999955 44.500000000000000 Q46.899999999999977 39.699999999999989 46.899999999999977 33.699999999999989 Q46.899999999999977 27.699999999999989 43.700000000000045 23.000000000000000 C46.000000000000000 20.733333333333348 48.875000000000000 17.899999999999977 50.600000000000023 16.199999999999989 C49.350000000000023 14.949999999999989 46.850000000000023 12.449999999999989 45.600000000000023 11.199999999999989 C43.799999999999955 12.899999999999977 40.199999999999989 16.300000000000011 38.399999999999977 18.000000000000000 Q36.199999999999989 16.600000000000023 33.550000000000011 15.850000000000023 Q30.899999999999977 15.100000000000023 27.699999999999989 15.100000000000023 Q24.500000000000000 15.100000000000023 21.750000000000000 15.899999999999977 Q19.000000000000000 16.699999999999989 16.800000000000011 18.100000000000023 C14.366666666666674 15.800000000000011 11.324999999999989 12.925000000000011 9.500000000000000 11.199999999999989 C8.274999999999977 12.449999999999989 5.824999999999989 14.949999999999989 4.600000000000023 16.199999999999989 C6.324999999999989 17.925000000000011 9.774999999999977 21.375000000000000 11.500000000000000 23.100000000000023 Q8.399999999999977 27.899999999999977 8.399999999999977 33.699999999999989 Q8.399999999999977 39.800000000000011 11.399999999999977 44.300000000000011 C9.133333333333326 46.600000000000023 6.300000000000011 49.475000000000023 4.600000000000023 51.199999999999989 C5.949999999999989 52.574999999999989 8.649999999999977 55.324999999999989 10.000000000000000 56.699999999999989 C11.750000000000000 54.899999999999977 15.250000000000000 51.300000000000011 17.000000000000000 49.500000000000000 zM18.300000000000001 33.700000000000003 Q18.300000000000011 29.199999999999989 21.000000000000000 26.350000000000023 Q23.699999999999989 23.500000000000000 27.699999999999989 23.500000000000000 Q31.699999999999989 23.500000000000000 34.350000000000023 26.399999999999977 Q37.000000000000000 29.300000000000011 37.000000000000000 33.800000000000011 Q37.000000000000000 38.300000000000011 34.350000000000023 41.149999999999977 Q31.699999999999989 44.000000000000000 27.699999999999989 44.000000000000000 Q23.699999999999989 44.000000000000000 21.000000000000000 41.100000000000023 Q18.300000000000011 38.199999999999989 18.300000000000011 33.699999999999989 z" />
<glyph unicode="" horiz-adv-x="71.200000000000003" d="M50.500000000000000 40.200000000000003 C52.325000000000045 40.199999999999989 55.975000000000023 40.199999999999989 57.799999999999955 40.199999999999989 C57.799999999999955 38.024999999999977 57.799999999999955 33.675000000000011 57.799999999999955 31.500000000000000 C54.799999999999955 31.500000000000000 48.799999999999955 31.500000000000000 45.799999999999955 31.500000000000000 C44.899999999999977 29.824999999999989 43.100000000000023 26.475000000000023 42.199999999999989 24.800000000000011 C42.199999999999989 24.050000000000011 42.199999999999989 22.550000000000011 42.199999999999989 21.800000000000011 C46.125000000000000 21.800000000000011 53.975000000000023 21.800000000000011 57.899999999999977 21.800000000000011 C57.899999999999977 19.625000000000000 57.899999999999977 15.274999999999977 57.899999999999977 13.100000000000023 C53.975000000000023 13.100000000000023 46.125000000000000 13.100000000000023 42.199999999999989 13.100000000000023 C42.199999999999989 9.824999999999989 42.199999999999989 3.274999999999977 42.199999999999989 0.000000000000000 C38.774999999999977 0.000000000000000 31.925000000000011 0.000000000000000 28.500000000000000 0.000000000000000 C28.500000000000000 3.274999999999977 28.500000000000000 9.824999999999989 28.500000000000000 13.100000000000023 C24.625000000000000 13.100000000000023 16.875000000000000 13.100000000000023 13.000000000000000 13.100000000000023 C13.000000000000000 15.274999999999977 13.000000000000000 19.625000000000000 13.000000000000000 21.800000000000011 C16.875000000000000 21.800000000000011 24.625000000000000 21.800000000000011 28.500000000000000 21.800000000000011 C28.500000000000000 22.600000000000023 28.500000000000000 24.199999999999989 28.500000000000000 25.000000000000000 C27.649999999999977 26.625000000000000 25.949999999999989 29.875000000000000 25.100000000000023 31.500000000000000 C22.100000000000023 31.500000000000000 16.100000000000023 31.500000000000000 13.100000000000023 31.500000000000000 C13.100000000000023 33.675000000000011 13.100000000000023 38.024999999999977 13.100000000000023 40.199999999999989 C14.949999999999989 40.199999999999989 18.649999999999977 40.199999999999989 20.500000000000000 40.199999999999989 C16.100000000000023 47.899999999999977 7.300000000000011 63.300000000000011 2.899999999999977 71.000000000000000 C6.625000000000000 71.000000000000000 14.074999999999989 71.000000000000000 17.800000000000011 71.000000000000000 C22.199999999999989 62.449999999999989 31.000000000000000 45.350000000000023 35.399999999999977 36.800000000000011 C39.824999999999989 45.350000000000023 48.674999999999955 62.449999999999989 53.100000000000023 71.000000000000000 C56.850000000000023 71.000000000000000 64.350000000000023 71.000000000000000 68.100000000000023 71.000000000000000 C63.700000000000045 63.300000000000011 54.899999999999977 47.899999999999977 50.500000000000000 40.199999999999989 z" />
</font>
</defs>
</svg>
