<?xml version="1.0" standalone="no"?>
<!DOCTYPE svg PUBLIC "-//W3C//DTD SVG 1.1//EN" "http://www.w3.org/Graphics/SVG/1.1/DTD/svg11.dtd" >
<svg>
<defs>
<font id="RalewayW Black Italic" horiz-adv-x="250" >
<font-face units-per-em="100" ascent="80" descent="-20" />
<glyph unicode=" " horiz-adv-x="22.300000000000001" d="" />
<glyph unicode="!" horiz-adv-x="33" d="M7.000000000000000 30.000000000000000 C9.199999999999989 40.425000000000011 13.600000000000023 61.274999999999977 15.800000000000011 71.699999999999989 C20.550000000000011 71.699999999999989 30.050000000000011 71.699999999999989 34.800000000000011 71.699999999999989 C32.600000000000023 61.274999999999977 28.199999999999989 40.425000000000011 26.000000000000000 30.000000000000000 C21.250000000000000 30.000000000000000 11.750000000000000 30.000000000000000 7.000000000000000 30.000000000000000 zM0.600000000000000 0.000000000000000 C1.574999999999989 4.600000000000023 3.524999999999977 13.800000000000011 4.500000000000000 18.399999999999977 C9.250000000000000 18.399999999999977 18.750000000000000 18.399999999999977 23.500000000000000 18.399999999999977 C22.524999999999977 13.800000000000011 20.574999999999989 4.600000000000023 19.600000000000023 0.000000000000000 C14.850000000000023 0.000000000000000 5.350000000000023 0.000000000000000 0.600000000000023 0.000000000000000 z" />
<glyph unicode="&#x22;" horiz-adv-x="47.200000000000003" d="M9.199999999999999 49.600000000000001 C10.449999999999989 55.449999999999989 12.949999999999989 67.150000000000006 14.199999999999989 73.000000000000000 C18.199999999999989 73.000000000000000 26.199999999999989 73.000000000000000 30.199999999999989 73.000000000000000 C28.949999999999989 67.150000000000006 26.449999999999989 55.449999999999989 25.199999999999989 49.600000000000023 C21.199999999999989 49.600000000000023 13.199999999999989 49.600000000000023 9.199999999999989 49.600000000000023 zM30.000000000000000 49.600000000000001 C31.250000000000000 55.449999999999989 33.750000000000000 67.150000000000006 35.000000000000000 73.000000000000000 C39.000000000000000 73.000000000000000 47.000000000000000 73.000000000000000 51.000000000000000 73.000000000000000 C49.750000000000000 67.150000000000006 47.250000000000000 55.449999999999989 46.000000000000000 49.600000000000023 C42.000000000000000 49.600000000000023 34.000000000000000 49.600000000000023 30.000000000000000 49.600000000000023 z" />
<glyph unicode="#" horiz-adv-x="72.700000000000003" d="M71.200000000000003 39.700000000000003 C67.375000000000000 39.699999999999989 59.725000000000023 39.699999999999989 55.899999999999977 39.699999999999989 C55.024999999999977 37.524999999999977 53.274999999999977 33.175000000000011 52.399999999999977 31.000000000000000 C55.424999999999955 31.000000000000000 61.475000000000023 31.000000000000000 64.500000000000000 31.000000000000000 C63.750000000000000 27.500000000000000 62.250000000000000 20.500000000000000 61.500000000000000 17.000000000000000 C57.625000000000000 17.000000000000000 49.875000000000000 17.000000000000000 46.000000000000000 17.000000000000000 C44.125000000000000 12.750000000000000 40.375000000000000 4.250000000000000 38.500000000000000 0.000000000000000 C34.750000000000000 0.000000000000000 27.250000000000000 0.000000000000000 23.500000000000000 0.000000000000000 C25.375000000000000 4.250000000000000 29.125000000000000 12.750000000000000 31.000000000000000 17.000000000000000 C29.824999999999989 17.000000000000000 27.475000000000023 17.000000000000000 26.300000000000011 17.000000000000000 C24.449999999999989 12.750000000000000 20.750000000000000 4.250000000000000 18.899999999999977 0.000000000000000 C15.125000000000000 0.000000000000000 7.574999999999989 0.000000000000000 3.800000000000011 0.000000000000000 C5.675000000000011 4.250000000000000 9.425000000000011 12.750000000000000 11.300000000000011 17.000000000000000 C8.649999999999977 17.000000000000000 3.350000000000023 17.000000000000000 0.699999999999989 17.000000000000000 C1.449999999999989 20.500000000000000 2.949999999999989 27.500000000000000 3.699999999999989 31.000000000000000 C7.199999999999989 31.000000000000000 14.199999999999989 31.000000000000000 17.699999999999989 31.000000000000000 C18.574999999999989 33.175000000000011 20.324999999999989 37.524999999999977 21.199999999999989 39.699999999999989 C18.500000000000000 39.699999999999989 13.100000000000023 39.699999999999989 10.399999999999977 39.699999999999989 C11.100000000000023 42.949999999999989 12.500000000000000 49.449999999999989 13.199999999999989 52.699999999999989 C16.699999999999989 52.699999999999989 23.699999999999989 52.699999999999989 27.199999999999989 52.699999999999989 C29.225000000000023 57.274999999999977 33.274999999999977 66.425000000000011 35.300000000000011 71.000000000000000 C39.074999999999989 71.000000000000000 46.625000000000000 71.000000000000000 50.399999999999977 71.000000000000000 C48.350000000000023 66.425000000000011 44.250000000000000 57.274999999999977 42.199999999999989 52.699999999999989 C43.375000000000000 52.699999999999989 45.725000000000023 52.699999999999989 46.899999999999977 52.699999999999989 C48.924999999999955 57.274999999999977 52.975000000000023 66.425000000000011 55.000000000000000 71.000000000000000 C58.774999999999977 71.000000000000000 66.325000000000045 71.000000000000000 70.100000000000023 71.000000000000000 C68.024999999999977 66.425000000000011 63.875000000000000 57.274999999999977 61.799999999999955 52.699999999999989 C64.850000000000023 52.699999999999989 70.950000000000045 52.699999999999989 74.000000000000000 52.699999999999989 C73.299999999999955 49.449999999999989 71.899999999999977 42.949999999999989 71.200000000000045 39.699999999999989 zM37.399999999999999 31.000000000000000 C38.274999999999977 33.175000000000011 40.024999999999977 37.524999999999977 40.899999999999977 39.699999999999989 C39.725000000000023 39.699999999999989 37.375000000000000 39.699999999999989 36.199999999999989 39.699999999999989 C35.324999999999989 37.524999999999977 33.574999999999989 33.175000000000011 32.699999999999989 31.000000000000000 C33.875000000000000 31.000000000000000 36.225000000000023 31.000000000000000 37.399999999999977 31.000000000000000 z" />
<glyph unicode="$" horiz-adv-x="63" d="M52.399999999999999 47.799999999999997 Q52.100000000000023 48.100000000000023 51.000000000000000 48.850000000000023 Q49.899999999999977 49.600000000000023 48.200000000000045 50.500000000000000 Q46.500000000000000 51.500000000000000 44.250000000000000 52.449999999999989 Q42.000000000000000 53.399999999999977 39.399999999999977 53.899999999999977 C38.766666666666652 50.933333333333337 37.975000000000023 47.225000000000023 37.500000000000000 45.000000000000000 C38.449999999999989 44.675000000000011 40.350000000000023 44.024999999999977 41.300000000000011 43.699999999999989 Q44.799999999999955 42.500000000000000 47.750000000000000 41.000000000000000 Q50.700000000000045 39.500000000000000 52.799999999999955 37.399999999999977 Q55.000000000000000 35.399999999999977 56.200000000000045 32.649999999999977 Q57.399999999999977 29.899999999999977 57.399999999999977 26.199999999999989 Q57.399999999999977 19.100000000000023 54.899999999999977 14.149999999999977 Q52.399999999999977 9.199999999999989 48.399999999999977 6.000000000000000 Q44.399999999999977 2.800000000000011 39.350000000000023 1.149999999999977 Q34.300000000000011 -0.500000000000000 29.199999999999989 -0.800000000000011 C28.366666666666674 -4.833333333333314 27.324999999999989 -9.875000000000000 26.699999999999989 -12.899999999999977 C24.699999999999989 -12.899999999999977 20.699999999999989 -12.899999999999977 18.699999999999989 -12.899999999999977 C19.350000000000023 -9.824999999999989 20.649999999999977 -3.675000000000011 21.300000000000011 -0.600000000000023 Q15.000000000000000 0.000000000000000 8.949999999999989 2.100000000000023 Q2.899999999999977 4.199999999999989 -1.600000000000023 7.399999999999977 C2.399999999999977 13.066666666666663 7.399999999999977 20.149999999999977 10.399999999999977 24.399999999999977 Q10.600000000000023 24.199999999999989 11.899999999999977 23.199999999999989 Q13.199999999999989 22.199999999999989 15.399999999999977 21.000000000000000 Q17.600000000000023 19.800000000000011 20.449999999999989 18.649999999999977 Q23.300000000000011 17.500000000000000 26.500000000000000 17.000000000000000 C27.100000000000023 19.866666666666674 27.850000000000023 23.449999999999989 28.300000000000011 25.600000000000023 C26.824999999999989 26.125000000000000 23.875000000000000 27.175000000000011 22.399999999999977 27.699999999999989 Q15.699999999999989 30.100000000000023 12.500000000000000 33.899999999999977 Q9.300000000000011 37.699999999999989 9.300000000000011 43.399999999999977 Q9.300000000000011 49.500000000000000 11.600000000000023 54.449999999999989 Q13.899999999999977 59.399999999999977 17.699999999999989 63.000000000000000 Q21.600000000000023 66.599999999999994 26.500000000000000 68.699999999999989 Q31.399999999999977 70.800000000000011 36.600000000000023 71.400000000000006 C37.333333333333314 74.766666666666652 38.250000000000000 78.974999999999994 38.800000000000011 81.500000000000000 C40.774999999999977 81.500000000000000 44.725000000000023 81.500000000000000 46.700000000000045 81.500000000000000 C46.149999999999977 78.949999999999989 45.049999999999955 73.849999999999994 44.500000000000000 71.300000000000011 Q47.500000000000000 70.900000000000006 50.350000000000023 70.099999999999994 Q53.200000000000045 69.300000000000011 55.700000000000045 68.199999999999989 Q58.200000000000045 67.199999999999989 60.350000000000023 66.050000000000011 Q62.500000000000000 64.900000000000006 64.200000000000045 63.900000000000006 C60.266666666666652 58.533333333333303 55.350000000000023 51.824999999999989 52.399999999999977 47.800000000000011 zM35.399999999999999 20.399999999999999 Q35.399999999999977 22.300000000000011 32.899999999999977 23.600000000000023 C32.433333333333337 21.300000000000011 31.850000000000023 18.425000000000011 31.500000000000000 16.699999999999989 Q34.000000000000000 16.899999999999977 34.699999999999989 18.000000000000000 Q35.399999999999977 19.100000000000023 35.399999999999977 20.399999999999977 zM30.699999999999999 50.100000000000001 Q30.699999999999989 48.199999999999989 32.800000000000011 47.000000000000000 C33.333333333333314 49.366666666666674 34.000000000000000 52.324999999999989 34.399999999999977 54.100000000000023 Q32.800000000000011 53.800000000000011 31.750000000000000 52.800000000000011 Q30.699999999999989 51.800000000000011 30.699999999999989 50.100000000000023 z" />
<glyph unicode="%" horiz-adv-x="82.5" d="M22.699999999999999 40.399999999999999 Q19.500000000000000 40.399999999999977 16.899999999999977 41.399999999999977 Q14.300000000000011 42.399999999999977 12.399999999999977 44.199999999999989 Q10.600000000000023 46.000000000000000 9.600000000000023 48.399999999999977 Q8.600000000000023 50.800000000000011 8.600000000000023 53.600000000000023 Q8.600000000000023 57.300000000000011 10.350000000000023 60.649999999999977 Q12.100000000000023 64.000000000000000 14.899999999999977 66.500000000000000 Q17.800000000000011 69.099999999999994 21.550000000000011 70.550000000000011 Q25.300000000000011 72.000000000000000 29.399999999999977 72.000000000000000 Q32.500000000000000 72.000000000000000 35.100000000000023 71.000000000000000 Q37.699999999999989 70.000000000000000 39.600000000000023 68.199999999999989 Q41.500000000000000 66.400000000000006 42.500000000000000 64.000000000000000 Q43.500000000000000 61.600000000000023 43.500000000000000 58.800000000000011 Q43.500000000000000 55.000000000000000 41.750000000000000 51.699999999999989 Q40.000000000000000 48.399999999999977 37.100000000000023 45.800000000000011 Q34.300000000000011 43.300000000000011 30.500000000000000 41.850000000000023 Q26.699999999999989 40.399999999999977 22.699999999999989 40.399999999999977 zM24.600000000000001 49.399999999999999 Q25.600000000000023 49.399999999999977 26.649999999999977 50.100000000000023 Q27.699999999999989 50.800000000000011 28.500000000000000 52.000000000000000 Q29.399999999999977 53.199999999999989 29.949999999999989 54.750000000000000 Q30.500000000000000 56.300000000000011 30.500000000000000 58.000000000000000 Q30.500000000000000 60.100000000000023 29.699999999999989 61.550000000000011 Q28.899999999999977 63.000000000000000 27.500000000000000 63.000000000000000 Q26.500000000000000 63.000000000000000 25.449999999999989 62.300000000000011 Q24.399999999999977 61.600000000000023 23.500000000000000 60.399999999999977 Q22.699999999999989 59.199999999999989 22.149999999999977 57.649999999999977 Q21.600000000000023 56.100000000000023 21.600000000000023 54.399999999999977 Q21.600000000000023 52.300000000000011 22.399999999999977 50.850000000000023 Q23.199999999999989 49.399999999999977 24.600000000000023 49.399999999999977 zM55.399999999999999 -1.000000000000000 Q52.200000000000045 -1.000000000000000 49.600000000000023 0.000000000000000 Q47.000000000000000 1.000000000000000 45.100000000000023 2.800000000000011 Q43.299999999999955 4.600000000000023 42.300000000000011 7.000000000000000 Q41.300000000000011 9.399999999999977 41.300000000000011 12.199999999999989 Q41.300000000000011 15.899999999999977 43.049999999999955 19.250000000000000 Q44.799999999999955 22.600000000000023 47.600000000000023 25.100000000000023 Q50.500000000000000 27.699999999999989 54.250000000000000 29.149999999999977 Q58.000000000000000 30.600000000000023 62.100000000000023 30.600000000000023 Q65.200000000000045 30.600000000000023 67.799999999999955 29.600000000000023 Q70.399999999999977 28.600000000000023 72.299999999999955 26.800000000000011 Q74.200000000000045 25.000000000000000 75.200000000000045 22.600000000000023 Q76.200000000000045 20.199999999999989 76.200000000000045 17.399999999999977 Q76.200000000000045 13.600000000000023 74.450000000000045 10.300000000000011 Q72.700000000000045 7.000000000000000 69.799999999999955 4.399999999999977 Q67.000000000000000 1.899999999999977 63.200000000000045 0.449999999999989 Q59.399999999999977 -1.000000000000000 55.399999999999977 -1.000000000000000 zM57.299999999999997 8.000000000000000 Q58.299999999999955 8.000000000000000 59.350000000000023 8.699999999999989 Q60.399999999999977 9.399999999999977 61.200000000000045 10.600000000000023 Q62.000000000000000 11.800000000000011 62.549999999999955 13.350000000000023 Q63.100000000000023 14.899999999999977 63.100000000000023 16.600000000000023 Q63.100000000000023 18.699999999999989 62.350000000000023 20.149999999999977 Q61.600000000000023 21.600000000000023 60.200000000000045 21.600000000000023 Q59.200000000000045 21.600000000000023 58.149999999999977 20.899999999999977 Q57.100000000000023 20.199999999999989 56.200000000000045 19.000000000000000 Q55.399999999999977 17.800000000000011 54.850000000000023 16.250000000000000 Q54.299999999999955 14.699999999999989 54.299999999999955 13.000000000000000 Q54.299999999999955 10.899999999999977 55.100000000000023 9.449999999999989 Q55.899999999999977 8.000000000000000 57.299999999999955 8.000000000000000 zM6.800000000000000 6.500000000000000 C15.225000000000023 14.475000000000023 32.074999999999989 30.425000000000011 40.500000000000000 38.399999999999977 C48.200000000000045 46.824999999999989 63.600000000000023 63.675000000000011 71.299999999999955 72.099999999999994 C72.975000000000023 70.224999999999994 76.325000000000045 66.474999999999994 78.000000000000000 64.599999999999994 C69.924999999999955 56.875000000000000 53.774999999999977 41.425000000000011 45.700000000000045 33.699999999999989 C37.649999999999977 25.024999999999977 21.550000000000011 7.675000000000011 13.500000000000000 -1.000000000000000 C11.824999999999989 0.875000000000000 8.475000000000023 4.625000000000000 6.800000000000011 6.500000000000000 z" />
<glyph unicode="&#x26;" horiz-adv-x="72.799999999999997" d="M39.000000000000000 3.700000000000000 Q34.399999999999977 1.300000000000011 29.800000000000011 0.149999999999977 Q25.199999999999989 -1.000000000000000 21.000000000000000 -1.000000000000000 Q15.800000000000011 -1.000000000000000 12.050000000000011 0.600000000000023 Q8.300000000000011 2.199999999999989 5.899999999999977 4.800000000000011 Q3.500000000000000 7.399999999999977 2.350000000000023 10.750000000000000 Q1.199999999999989 14.100000000000023 1.199999999999989 17.600000000000023 Q1.199999999999989 21.300000000000011 2.350000000000023 24.250000000000000 Q3.500000000000000 27.199999999999989 5.500000000000000 29.600000000000023 Q7.600000000000023 32.100000000000023 10.300000000000011 34.149999999999977 Q13.000000000000000 36.199999999999989 16.100000000000023 38.100000000000023 Q14.000000000000000 41.699999999999989 13.000000000000000 44.600000000000023 Q12.000000000000000 47.500000000000000 12.000000000000000 50.699999999999989 Q12.000000000000000 55.399999999999977 13.949999999999989 59.300000000000011 Q15.899999999999977 63.199999999999989 19.199999999999989 66.000000000000000 Q22.500000000000000 68.800000000000011 26.750000000000000 70.349999999999994 Q31.000000000000000 71.900000000000006 35.500000000000000 71.900000000000006 Q38.800000000000011 71.900000000000006 41.850000000000023 71.000000000000000 Q44.899999999999977 70.099999999999994 47.399999999999977 68.199999999999989 Q50.000000000000000 66.400000000000006 51.750000000000000 63.449999999999989 Q53.500000000000000 60.500000000000000 54.299999999999955 56.500000000000000 C49.833333333333371 54.833333333333314 44.250000000000000 52.750000000000000 40.899999999999977 51.500000000000000 Q40.100000000000023 55.199999999999989 38.300000000000011 56.699999999999989 Q36.500000000000000 58.199999999999989 34.500000000000000 58.199999999999989 Q32.800000000000011 58.199999999999989 31.250000000000000 57.149999999999977 Q29.699999999999989 56.100000000000023 29.699999999999989 53.899999999999977 Q29.699999999999989 52.899999999999977 30.100000000000023 52.050000000000011 Q30.500000000000000 51.199999999999989 31.300000000000011 50.100000000000023 Q32.100000000000023 49.100000000000023 33.300000000000011 47.600000000000023 Q34.500000000000000 46.100000000000023 36.100000000000023 43.800000000000011 C39.633333333333326 38.666666666666686 44.049999999999955 32.250000000000000 46.700000000000045 28.399999999999977 Q48.100000000000023 31.199999999999989 49.149999999999977 34.500000000000000 Q50.200000000000045 37.800000000000011 50.700000000000045 41.600000000000023 C56.933333333333394 41.600000000000023 64.725000000000023 41.600000000000023 69.399999999999977 41.600000000000023 C69.024999999999977 38.375000000000000 68.274999999999977 31.925000000000011 67.899999999999977 28.699999999999989 C66.375000000000000 28.699999999999989 63.325000000000045 28.699999999999989 61.799999999999955 28.699999999999989 Q60.299999999999955 25.300000000000011 58.450000000000045 22.399999999999977 Q56.600000000000023 19.500000000000000 54.600000000000023 16.899999999999977 C58.500000000000000 11.266666666666652 63.375000000000000 4.225000000000023 66.299999999999955 0.000000000000000 C60.100000000000023 0.000000000000000 47.700000000000045 0.000000000000000 41.500000000000000 0.000000000000000 C40.875000000000000 0.925000000000011 39.625000000000000 2.774999999999977 39.000000000000000 3.699999999999989 zM26.399999999999999 13.400000000000000 Q29.199999999999989 13.399999999999977 31.800000000000011 14.399999999999977 C29.199999999999989 18.333333333333314 25.949999999999989 23.250000000000000 24.000000000000000 26.199999999999989 Q21.600000000000023 24.600000000000023 20.649999999999977 23.050000000000011 Q19.699999999999989 21.500000000000000 19.699999999999989 19.500000000000000 Q19.699999999999989 16.300000000000011 21.600000000000023 14.850000000000023 Q23.500000000000000 13.399999999999977 26.399999999999977 13.399999999999977 z" />
<glyph unicode="'" horiz-adv-x="26.399999999999999" d="M9.199999999999999 49.600000000000001 C10.449999999999989 55.449999999999989 12.949999999999989 67.150000000000006 14.199999999999989 73.000000000000000 C18.199999999999989 73.000000000000000 26.199999999999989 73.000000000000000 30.199999999999989 73.000000000000000 C28.949999999999989 67.150000000000006 26.449999999999989 55.449999999999989 25.199999999999989 49.600000000000023 C21.199999999999989 49.600000000000023 13.199999999999989 49.600000000000023 9.199999999999989 49.600000000000023 z" />
<glyph unicode="(" horiz-adv-x="33.600000000000001" d="M2.600000000000000 26.600000000000001 Q2.600000000000023 33.100000000000023 4.550000000000011 39.300000000000011 Q6.500000000000000 45.500000000000000 9.800000000000011 51.600000000000023 Q13.199999999999989 57.800000000000011 17.750000000000000 64.099999999999994 Q22.300000000000011 70.400000000000006 27.600000000000023 77.199999999999989 C32.000000000000000 75.266666666666652 37.500000000000000 72.850000000000023 40.800000000000011 71.400000000000006 Q35.399999999999977 64.199999999999989 31.500000000000000 58.000000000000000 Q27.600000000000023 51.800000000000011 25.100000000000023 46.399999999999977 Q22.699999999999989 41.000000000000000 21.550000000000011 36.300000000000011 Q20.399999999999977 31.600000000000023 20.399999999999977 27.500000000000000 Q20.399999999999977 21.199999999999989 21.800000000000011 14.149999999999977 Q23.199999999999989 7.100000000000023 25.199999999999989 0.100000000000023 C20.100000000000023 -2.133333333333326 13.725000000000023 -4.925000000000011 9.899999999999977 -6.600000000000023 Q8.399999999999977 -3.100000000000023 7.100000000000023 0.949999999999989 Q5.800000000000011 5.000000000000000 4.800000000000011 9.300000000000011 Q3.800000000000011 13.600000000000023 3.199999999999989 18.000000000000000 Q2.600000000000023 22.399999999999977 2.600000000000023 26.600000000000023 z" />
<glyph unicode=")" horiz-adv-x="33.5" d="M32.899999999999999 43.000000000000000 Q32.899999999999977 36.100000000000023 30.750000000000000 29.550000000000011 Q28.600000000000023 23.000000000000000 25.000000000000000 16.800000000000011 Q21.500000000000000 10.600000000000023 17.050000000000011 4.750000000000000 Q12.600000000000023 -1.100000000000023 8.000000000000000 -6.600000000000023 C3.866666666666674 -4.366666666666674 -1.300000000000011 -1.574999999999989 -4.399999999999977 0.100000000000023 Q-0.300000000000011 5.800000000000011 3.250000000000000 11.000000000000000 Q6.800000000000011 16.199999999999989 9.399999999999977 21.199999999999989 Q12.100000000000023 26.300000000000011 13.600000000000023 31.500000000000000 Q15.100000000000023 36.699999999999989 15.100000000000023 42.500000000000000 Q15.100000000000023 46.899999999999977 14.550000000000011 51.449999999999989 Q14.000000000000000 56.000000000000000 13.199999999999989 59.899999999999977 Q12.399999999999977 63.900000000000006 11.600000000000023 66.900000000000006 Q10.800000000000011 69.900000000000006 10.300000000000011 71.400000000000006 C15.533333333333360 73.333333333333343 22.074999999999989 75.750000000000000 26.000000000000000 77.199999999999989 Q28.899999999999977 68.699999999999989 30.899999999999977 59.800000000000011 Q32.899999999999977 50.899999999999977 32.899999999999977 43.000000000000000 z" />
<glyph unicode="*" horiz-adv-x="35.600000000000001" d="M10.699999999999999 49.899999999999999 C12.274999999999977 51.850000000000023 15.425000000000011 55.750000000000000 17.000000000000000 57.699999999999989 C15.399999999999977 58.225000000000023 12.199999999999989 59.274999999999977 10.600000000000023 59.800000000000011 C11.600000000000023 61.725000000000023 13.600000000000023 65.574999999999989 14.600000000000023 67.500000000000000 C16.199999999999989 66.599999999999994 19.399999999999977 64.800000000000011 21.000000000000000 63.900000000000006 C21.274999999999977 65.949999999999989 21.824999999999989 70.050000000000011 22.100000000000023 72.099999999999994 C24.475000000000023 72.099999999999994 29.225000000000023 72.099999999999994 31.600000000000023 72.099999999999994 C31.000000000000000 70.050000000000011 29.800000000000011 65.949999999999989 29.199999999999989 63.900000000000006 C31.175000000000011 64.800000000000011 35.125000000000000 66.599999999999994 37.100000000000023 67.500000000000000 C37.274999999999977 65.574999999999989 37.625000000000000 61.725000000000023 37.800000000000011 59.800000000000011 C35.975000000000023 59.274999999999977 32.324999999999989 58.225000000000023 30.500000000000000 57.699999999999989 C31.274999999999977 55.750000000000000 32.824999999999989 51.850000000000023 33.600000000000023 49.899999999999977 C31.649999999999977 48.774999999999977 27.750000000000000 46.524999999999977 25.800000000000011 45.399999999999977 C25.074999999999989 47.475000000000023 23.625000000000000 51.625000000000000 22.899999999999977 53.699999999999989 C21.324999999999989 51.625000000000000 18.175000000000011 47.475000000000023 16.600000000000023 45.399999999999977 C15.125000000000000 46.524999999999977 12.175000000000011 48.774999999999977 10.699999999999989 49.899999999999977 z" />
<glyph unicode="+" horiz-adv-x="44" d="M40.000000000000000 43.000000000000000 C40.000000000000000 39.250000000000000 40.000000000000000 31.750000000000000 40.000000000000000 28.000000000000000 C37.875000000000000 28.000000000000000 33.625000000000000 28.000000000000000 31.500000000000000 28.000000000000000 C31.500000000000000 25.625000000000000 31.500000000000000 20.875000000000000 31.500000000000000 18.500000000000000 C27.250000000000000 18.500000000000000 18.750000000000000 18.500000000000000 14.500000000000000 18.500000000000000 C14.500000000000000 20.875000000000000 14.500000000000000 25.625000000000000 14.500000000000000 28.000000000000000 C12.375000000000000 28.000000000000000 8.125000000000000 28.000000000000000 6.000000000000000 28.000000000000000 C6.000000000000000 31.750000000000000 6.000000000000000 39.250000000000000 6.000000000000000 43.000000000000000 C8.125000000000000 43.000000000000000 12.375000000000000 43.000000000000000 14.500000000000000 43.000000000000000 C14.500000000000000 45.375000000000000 14.500000000000000 50.125000000000000 14.500000000000000 52.500000000000000 C18.750000000000000 52.500000000000000 27.250000000000000 52.500000000000000 31.500000000000000 52.500000000000000 C31.500000000000000 50.125000000000000 31.500000000000000 45.375000000000000 31.500000000000000 43.000000000000000 C33.625000000000000 43.000000000000000 37.875000000000000 43.000000000000000 40.000000000000000 43.000000000000000 z" />
<glyph unicode="," horiz-adv-x="25.600000000000001" d="M-2.600000000000000 -15.699999999999999 C-0.875000000000000 -11.774999999999977 2.574999999999989 -3.925000000000011 4.300000000000011 0.000000000000000 C2.875000000000000 0.000000000000000 0.024999999999977 0.000000000000000 -1.399999999999977 0.000000000000000 C-0.399999999999977 4.600000000000023 1.600000000000023 13.800000000000011 2.600000000000023 18.399999999999977 C6.500000000000000 18.399999999999977 14.300000000000011 18.399999999999977 18.199999999999989 18.399999999999977 C17.199999999999989 13.800000000000011 15.199999999999989 4.600000000000023 14.199999999999989 0.000000000000000 C12.050000000000011 -3.925000000000011 7.750000000000000 -11.774999999999977 5.600000000000023 -15.699999999999989 C3.550000000000011 -15.699999999999989 -0.550000000000011 -15.699999999999989 -2.600000000000023 -15.699999999999989 z" />
<glyph unicode="-" horiz-adv-x="39.799999999999997" d="M2.600000000000000 19.100000000000001 C3.500000000000000 23.350000000000023 5.300000000000011 31.850000000000023 6.199999999999989 36.100000000000023 C13.675000000000011 36.100000000000023 28.625000000000000 36.100000000000023 36.100000000000023 36.100000000000023 C35.199999999999989 31.850000000000023 33.399999999999977 23.350000000000023 32.500000000000000 19.100000000000023 C25.024999999999977 19.100000000000023 10.074999999999989 19.100000000000023 2.600000000000023 19.100000000000023 z" />
<glyph unicode="." horiz-adv-x="25.399999999999999" d="M-1.300000000000000 0.000000000000000 C-0.324999999999989 4.600000000000023 1.625000000000000 13.800000000000011 2.600000000000023 18.399999999999977 C6.449999999999989 18.399999999999977 14.149999999999977 18.399999999999977 18.000000000000000 18.399999999999977 C17.024999999999977 13.800000000000011 15.074999999999989 4.600000000000023 14.100000000000023 0.000000000000000 C10.250000000000000 0.000000000000000 2.550000000000011 0.000000000000000 -1.300000000000011 0.000000000000000 z" />
<glyph unicode="/" horiz-adv-x="77.099999999999994" d="M82.500000000000000 71.000000000000000 C66.399999999999977 53.250000000000000 34.199999999999989 17.750000000000000 18.100000000000023 0.000000000000000 C12.875000000000000 0.000000000000000 2.425000000000011 0.000000000000000 -2.800000000000011 0.000000000000000 C13.300000000000011 17.750000000000000 45.500000000000000 53.250000000000000 61.600000000000023 71.000000000000000 C66.825000000000045 71.000000000000000 77.274999999999977 71.000000000000000 82.500000000000000 71.000000000000000 z" />
<glyph unicode="0" horiz-adv-x="59.5" d="M23.100000000000001 -1.000000000000000 Q18.600000000000023 -1.000000000000000 14.949999999999989 0.750000000000000 Q11.300000000000011 2.500000000000000 8.699999999999989 5.600000000000023 Q6.199999999999989 8.800000000000011 4.800000000000011 13.100000000000023 Q3.399999999999977 17.399999999999977 3.399999999999977 22.600000000000023 Q3.399999999999977 30.300000000000011 6.100000000000023 37.050000000000011 Q8.800000000000011 43.800000000000011 13.300000000000011 48.800000000000011 Q17.899999999999977 53.899999999999977 23.800000000000011 56.800000000000011 Q29.699999999999989 59.699999999999989 36.100000000000023 59.699999999999989 Q40.600000000000023 59.699999999999989 44.250000000000000 57.949999999999989 Q47.899999999999977 56.199999999999989 50.399999999999977 53.000000000000000 Q53.000000000000000 49.899999999999977 54.399999999999977 45.550000000000011 Q55.799999999999955 41.199999999999989 55.799999999999955 36.000000000000000 Q55.799999999999955 28.300000000000011 53.049999999999955 21.550000000000011 Q50.299999999999955 14.800000000000011 45.700000000000045 9.800000000000011 Q41.199999999999989 4.800000000000011 35.300000000000011 1.899999999999977 Q29.399999999999977 -1.000000000000000 23.100000000000023 -1.000000000000000 zM26.800000000000001 16.399999999999999 Q28.600000000000023 16.399999999999977 30.300000000000011 17.850000000000023 Q32.000000000000000 19.300000000000011 33.300000000000011 21.699999999999989 Q34.699999999999989 24.100000000000023 35.500000000000000 27.300000000000011 Q36.300000000000011 30.500000000000000 36.300000000000011 34.000000000000000 Q36.300000000000011 37.699999999999989 35.300000000000011 40.000000000000000 Q34.300000000000011 42.300000000000011 32.399999999999977 42.300000000000011 Q30.399999999999977 42.300000000000011 28.649999999999977 40.800000000000011 Q26.899999999999977 39.300000000000011 25.500000000000000 36.800000000000011 Q24.199999999999989 34.399999999999977 23.399999999999977 31.199999999999989 Q22.600000000000023 28.000000000000000 22.600000000000023 24.600000000000023 Q22.600000000000023 20.899999999999977 23.699999999999989 18.649999999999977 Q24.800000000000011 16.399999999999977 26.800000000000011 16.399999999999977 z" />
<glyph unicode="1" horiz-adv-x="53.200000000000003" d="M3.200000000000000 17.000000000000000 C6.574999999999989 17.000000000000000 13.324999999999989 17.000000000000000 16.699999999999989 17.000000000000000 C17.750000000000000 21.975000000000023 19.850000000000023 31.925000000000011 20.899999999999977 36.899999999999977 Q19.800000000000011 35.699999999999989 17.750000000000000 34.550000000000011 Q15.699999999999989 33.399999999999977 13.300000000000011 32.399999999999977 Q10.899999999999977 31.399999999999977 8.449999999999989 30.800000000000011 Q6.000000000000000 30.199999999999989 4.199999999999989 30.199999999999989 C5.433333333333337 36.000000000000000 6.975000000000023 43.250000000000000 7.899999999999977 47.600000000000023 Q9.199999999999989 47.600000000000023 11.750000000000000 48.649999999999977 Q14.300000000000011 49.699999999999989 17.000000000000000 51.100000000000023 Q19.699999999999989 52.600000000000023 22.050000000000011 54.250000000000000 Q24.399999999999977 55.899999999999977 25.199999999999989 57.100000000000023 C31.666666666666686 57.100000000000023 39.750000000000000 57.100000000000023 44.600000000000023 57.100000000000023 C42.475000000000023 47.074999999999989 38.225000000000023 27.024999999999977 36.100000000000023 17.000000000000000 C39.125000000000000 17.000000000000000 45.174999999999955 17.000000000000000 48.200000000000045 17.000000000000000 C47.299999999999955 12.750000000000000 45.500000000000000 4.250000000000000 44.600000000000023 0.000000000000000 C33.350000000000023 0.000000000000000 10.850000000000023 0.000000000000000 -0.399999999999977 0.000000000000000 C0.500000000000000 4.250000000000000 2.300000000000011 12.750000000000000 3.199999999999989 17.000000000000000 z" />
<glyph unicode="2" horiz-adv-x="58.299999999999997" d="M-3.100000000000000 0.000000000000000 Q-2.100000000000023 5.000000000000000 -0.500000000000000 8.800000000000011 Q1.100000000000023 12.600000000000023 3.399999999999977 15.600000000000023 Q5.800000000000011 18.699999999999989 9.050000000000011 21.100000000000023 Q12.300000000000011 23.500000000000000 16.699999999999989 25.699999999999989 Q22.699999999999989 28.699999999999989 26.149999999999977 30.500000000000000 Q29.600000000000023 32.300000000000011 31.300000000000011 33.500000000000000 Q33.100000000000023 34.699999999999989 33.550000000000011 35.649999999999977 Q34.000000000000000 36.600000000000023 34.000000000000000 37.899999999999977 Q34.000000000000000 41.699999999999989 29.699999999999989 41.699999999999989 Q26.800000000000011 41.699999999999989 23.750000000000000 40.000000000000000 Q20.699999999999989 38.300000000000011 16.699999999999989 34.500000000000000 C13.699999999999989 39.199999999999989 9.949999999999989 45.074999999999989 7.699999999999989 48.600000000000023 Q10.100000000000023 50.699999999999989 13.399999999999977 52.449999999999989 Q16.699999999999989 54.199999999999989 20.399999999999977 55.399999999999977 Q24.199999999999989 56.699999999999989 28.300000000000011 57.399999999999977 Q32.399999999999977 58.100000000000023 36.500000000000000 58.100000000000023 Q46.100000000000023 58.100000000000023 50.899999999999977 54.300000000000011 Q55.700000000000045 50.500000000000000 55.700000000000045 43.699999999999989 Q55.700000000000045 39.899999999999977 54.750000000000000 37.050000000000011 Q53.799999999999955 34.199999999999989 52.100000000000023 31.800000000000011 Q50.399999999999977 29.500000000000000 48.000000000000000 27.550000000000011 Q45.600000000000023 25.600000000000023 42.600000000000023 23.699999999999989 Q40.000000000000000 22.100000000000023 37.350000000000023 20.449999999999989 Q34.699999999999989 18.800000000000011 31.600000000000023 17.000000000000000 C38.166666666666686 17.000000000000000 46.375000000000000 17.000000000000000 51.299999999999955 17.000000000000000 C50.399999999999977 12.750000000000000 48.600000000000023 4.250000000000000 47.700000000000045 0.000000000000000 C35.000000000000000 0.000000000000000 9.600000000000023 0.000000000000000 -3.100000000000023 0.000000000000000 C-3.100000000000023 0.000000000000000 -3.100000000000023 0.000000000000000 -3.100000000000023 0.000000000000000 z" />
<glyph unicode="3" horiz-adv-x="56.100000000000001" d="M15.800000000000001 -14.699999999999999 Q8.500000000000000 -14.699999999999989 3.250000000000000 -12.750000000000000 Q-2.000000000000000 -10.800000000000011 -5.800000000000011 -6.699999999999989 C-1.633333333333326 -2.100000000000023 3.574999999999989 3.649999999999977 6.699999999999989 7.100000000000023 Q9.000000000000000 4.800000000000011 11.800000000000011 3.750000000000000 Q14.600000000000023 2.699999999999989 18.399999999999977 2.699999999999989 Q24.300000000000011 2.699999999999989 26.600000000000023 4.750000000000000 Q28.899999999999977 6.800000000000011 28.899999999999977 10.699999999999989 Q28.899999999999977 13.600000000000023 26.399999999999977 14.949999999999989 Q23.899999999999977 16.300000000000011 18.399999999999977 16.300000000000011 C17.399999999999977 16.300000000000011 16.149999999999977 16.300000000000011 15.399999999999977 16.300000000000011 C16.100000000000023 19.600000000000023 17.500000000000000 26.199999999999989 18.199999999999989 29.500000000000000 C19.050000000000011 29.500000000000000 20.750000000000000 29.500000000000000 21.600000000000023 29.500000000000000 Q26.399999999999977 29.500000000000000 29.600000000000023 31.699999999999989 Q32.800000000000011 33.899999999999977 32.800000000000011 37.500000000000000 Q32.800000000000011 41.500000000000000 28.199999999999989 41.500000000000000 Q25.100000000000023 41.500000000000000 21.899999999999977 39.750000000000000 Q18.699999999999989 38.000000000000000 15.800000000000011 34.500000000000000 C12.800000000000011 39.199999999999989 9.050000000000011 45.074999999999989 6.800000000000011 48.600000000000023 Q8.899999999999977 50.600000000000023 11.949999999999989 52.250000000000000 Q15.000000000000000 53.899999999999977 18.500000000000000 55.100000000000023 Q22.100000000000023 56.300000000000011 26.000000000000000 56.949999999999989 Q29.899999999999977 57.600000000000023 33.800000000000011 57.600000000000023 Q43.399999999999977 57.600000000000023 48.850000000000023 53.550000000000011 Q54.299999999999955 49.500000000000000 54.299999999999955 42.800000000000011 Q54.299999999999955 39.399999999999977 52.950000000000045 36.250000000000000 Q51.600000000000023 33.100000000000023 49.299999999999955 30.500000000000000 Q47.100000000000023 27.899999999999977 44.149999999999977 26.100000000000023 Q41.199999999999989 24.300000000000011 38.100000000000023 23.699999999999989 Q42.800000000000011 22.800000000000011 45.450000000000045 18.850000000000023 Q48.100000000000023 14.899999999999977 48.100000000000023 9.399999999999977 Q48.100000000000023 3.899999999999977 45.750000000000000 -0.550000000000011 Q43.399999999999977 -5.000000000000000 39.100000000000023 -8.100000000000023 Q34.899999999999977 -11.300000000000011 28.949999999999989 -13.000000000000000 Q23.000000000000000 -14.699999999999989 15.800000000000011 -14.699999999999989 z" />
<glyph unicode="4" horiz-adv-x="57" d="M19.500000000000000 -0.300000000000000 C13.550000000000011 -0.300000000000011 1.649999999999977 -0.300000000000011 -4.300000000000011 -0.300000000000011 C-3.399999999999977 3.949999999999989 -1.600000000000023 12.449999999999989 -0.699999999999989 16.699999999999989 C8.899999999999977 26.800000000000011 28.100000000000023 47.000000000000000 37.699999999999989 57.100000000000023 C40.949999999999989 57.100000000000023 47.450000000000045 57.100000000000023 50.700000000000045 57.100000000000023 C48.549999999999955 47.000000000000000 44.250000000000000 26.800000000000011 42.100000000000023 16.699999999999989 C44.200000000000045 16.699999999999989 48.399999999999977 16.699999999999989 50.500000000000000 16.699999999999989 C49.600000000000023 12.449999999999989 47.799999999999955 3.949999999999989 46.899999999999977 -0.300000000000011 C44.799999999999955 -0.300000000000011 40.600000000000023 -0.300000000000011 38.500000000000000 -0.300000000000011 C37.850000000000023 -3.399999999999977 36.550000000000011 -9.600000000000023 35.899999999999977 -12.699999999999989 C31.149999999999977 -12.699999999999989 21.649999999999977 -12.699999999999989 16.899999999999977 -12.699999999999989 C17.550000000000011 -9.600000000000023 18.850000000000023 -3.399999999999977 19.500000000000000 -0.300000000000011 zM25.300000000000001 16.699999999999999 C25.949999999999989 19.699999999999989 27.250000000000000 25.699999999999989 27.899999999999977 28.699999999999989 C25.425000000000011 25.699999999999989 20.475000000000023 19.699999999999989 18.000000000000000 16.699999999999989 C19.824999999999989 16.699999999999989 23.475000000000023 16.699999999999989 25.300000000000011 16.699999999999989 z" />
<glyph unicode="5" horiz-adv-x="54" d="M15.199999999999999 -14.900000000000000 Q7.699999999999989 -14.899999999999977 2.399999999999977 -12.000000000000000 Q-2.899999999999977 -9.100000000000023 -5.000000000000000 -3.699999999999989 C-0.699999999999989 0.300000000000011 4.675000000000011 5.300000000000011 7.899999999999977 8.300000000000011 Q9.899999999999977 5.199999999999989 12.850000000000023 3.449999999999989 Q15.800000000000011 1.699999999999989 18.800000000000011 1.699999999999989 Q22.699999999999989 1.699999999999989 25.050000000000011 4.300000000000011 Q27.399999999999977 6.899999999999977 27.399999999999977 11.000000000000000 Q27.399999999999977 13.399999999999977 26.250000000000000 14.899999999999977 Q25.100000000000023 16.399999999999977 22.899999999999977 16.399999999999977 Q21.100000000000023 16.399999999999977 19.449999999999989 15.449999999999989 Q17.800000000000011 14.500000000000000 16.699999999999989 12.899999999999977 C11.300000000000011 12.899999999999977 4.550000000000011 12.899999999999977 0.500000000000000 12.899999999999977 Q5.000000000000000 24.000000000000000 9.149999999999977 35.000000000000000 Q13.300000000000011 46.000000000000000 17.899999999999977 57.100000000000023 C29.199999999999989 57.100000000000023 43.325000000000045 57.100000000000023 51.799999999999955 57.100000000000023 C50.875000000000000 52.774999999999977 49.024999999999977 44.125000000000000 48.100000000000023 39.800000000000011 C43.049999999999955 39.800000000000011 32.949999999999989 39.800000000000011 27.899999999999977 39.800000000000011 C27.300000000000011 37.875000000000000 26.100000000000023 34.024999999999977 25.500000000000000 32.100000000000023 Q26.199999999999989 32.399999999999977 27.149999999999977 32.500000000000000 Q28.100000000000023 32.600000000000023 29.199999999999989 32.600000000000023 Q33.399999999999977 32.600000000000023 36.750000000000000 31.250000000000000 Q40.100000000000023 29.899999999999977 42.500000000000000 27.500000000000000 Q44.899999999999977 25.100000000000023 46.149999999999977 21.699999999999989 Q47.399999999999977 18.300000000000011 47.399999999999977 14.199999999999989 Q47.399999999999977 7.899999999999977 44.899999999999977 2.600000000000023 Q42.399999999999977 -2.699999999999989 38.000000000000000 -6.600000000000023 Q33.699999999999989 -10.500000000000000 27.850000000000023 -12.699999999999989 Q22.000000000000000 -14.899999999999977 15.199999999999989 -14.899999999999977 z" />
<glyph unicode="6" horiz-adv-x="59.299999999999997" d="M23.399999999999999 -1.000000000000000 Q13.699999999999989 -1.000000000000000 8.800000000000011 5.449999999999989 Q3.899999999999977 11.899999999999977 3.899999999999977 23.399999999999977 Q3.899999999999977 33.600000000000023 6.600000000000023 42.399999999999977 Q9.300000000000011 51.199999999999989 14.100000000000023 57.699999999999989 Q19.000000000000000 64.199999999999989 25.800000000000011 67.900000000000006 Q32.600000000000023 71.599999999999994 40.800000000000011 71.599999999999994 Q53.000000000000000 71.599999999999994 60.299999999999955 62.000000000000000 C55.933333333333280 57.933333333333337 50.475000000000023 52.850000000000023 47.200000000000045 49.800000000000011 Q43.200000000000045 55.199999999999989 37.000000000000000 55.199999999999989 Q32.600000000000023 55.199999999999989 29.500000000000000 52.250000000000000 Q26.399999999999977 49.300000000000011 25.000000000000000 43.899999999999977 Q29.300000000000011 47.300000000000011 35.300000000000011 47.300000000000011 Q39.699999999999989 47.300000000000011 43.299999999999955 45.850000000000023 Q46.899999999999977 44.399999999999977 49.399999999999977 41.800000000000011 Q52.000000000000000 39.300000000000011 53.350000000000023 35.800000000000011 Q54.700000000000045 32.300000000000011 54.700000000000045 28.199999999999989 Q54.700000000000045 22.300000000000011 52.149999999999977 17.000000000000000 Q49.600000000000023 11.699999999999989 45.200000000000045 7.699999999999989 Q40.899999999999977 3.699999999999989 35.250000000000000 1.350000000000023 Q29.600000000000023 -1.000000000000000 23.399999999999977 -1.000000000000000 zM26.800000000000001 14.900000000000000 Q28.399999999999977 14.899999999999977 30.100000000000023 15.800000000000011 Q31.800000000000011 16.699999999999989 33.100000000000023 18.199999999999989 Q34.500000000000000 19.699999999999989 35.350000000000023 21.649999999999977 Q36.199999999999989 23.600000000000023 36.199999999999989 25.699999999999989 Q36.199999999999989 28.600000000000023 34.649999999999977 30.500000000000000 Q33.100000000000023 32.399999999999977 30.500000000000000 32.399999999999977 Q28.699999999999989 32.399999999999977 27.050000000000011 31.600000000000023 Q25.399999999999977 30.800000000000011 24.100000000000023 29.399999999999977 Q22.800000000000011 28.000000000000000 22.000000000000000 26.149999999999977 Q21.199999999999989 24.300000000000011 21.199999999999989 22.199999999999989 Q21.199999999999989 19.199999999999989 22.750000000000000 17.050000000000011 Q24.300000000000011 14.899999999999977 26.800000000000011 14.899999999999977 z" />
<glyph unicode="7" horiz-adv-x="58.200000000000003" d="M30.399999999999999 41.100000000000001 C24.175000000000011 41.100000000000023 11.725000000000023 41.100000000000023 5.500000000000000 41.100000000000023 C6.425000000000011 45.425000000000011 8.274999999999977 54.074999999999989 9.199999999999989 58.399999999999977 C22.899999999999977 58.399999999999977 50.299999999999955 58.399999999999977 64.000000000000000 58.399999999999977 C52.000000000000000 40.649999999999977 28.000000000000000 5.149999999999977 16.000000000000000 -12.600000000000023 C10.625000000000000 -12.600000000000023 -0.125000000000000 -12.600000000000023 -5.500000000000000 -12.600000000000023 C3.475000000000023 0.824999999999989 21.425000000000011 27.675000000000011 30.399999999999977 41.100000000000023 z" />
<glyph unicode="8" horiz-adv-x="59.100000000000001" d="M22.899999999999999 -1.000000000000000 Q18.500000000000000 -1.000000000000000 14.600000000000023 0.350000000000023 Q10.699999999999989 1.699999999999989 7.800000000000011 4.199999999999989 Q5.000000000000000 6.800000000000011 3.350000000000023 10.449999999999989 Q1.699999999999989 14.100000000000023 1.699999999999989 18.600000000000023 Q1.699999999999989 22.300000000000011 2.800000000000011 25.300000000000011 Q3.899999999999977 28.300000000000011 5.600000000000023 30.600000000000023 Q7.399999999999977 33.000000000000000 9.399999999999977 34.800000000000011 Q11.399999999999977 36.600000000000023 13.199999999999989 37.899999999999977 Q11.500000000000000 39.300000000000011 10.550000000000011 41.949999999999989 Q9.600000000000023 44.600000000000023 9.600000000000023 47.399999999999977 Q9.600000000000023 53.000000000000000 12.399999999999977 57.399999999999977 Q15.199999999999989 61.800000000000011 19.500000000000000 64.800000000000011 Q23.800000000000011 67.800000000000011 28.750000000000000 69.400000000000006 Q33.699999999999989 71.000000000000000 38.100000000000023 71.000000000000000 Q41.600000000000023 71.000000000000000 45.149999999999977 69.849999999999994 Q48.700000000000045 68.699999999999989 51.500000000000000 66.500000000000000 Q54.399999999999977 64.300000000000011 56.200000000000045 61.000000000000000 Q58.000000000000000 57.699999999999989 58.000000000000000 53.399999999999977 Q58.000000000000000 51.000000000000000 57.250000000000000 48.600000000000023 Q56.500000000000000 46.199999999999989 55.200000000000045 44.100000000000023 Q53.899999999999977 42.100000000000023 52.299999999999955 40.500000000000000 Q50.700000000000045 38.899999999999977 49.000000000000000 37.899999999999977 Q50.700000000000045 36.100000000000023 52.250000000000000 32.899999999999977 Q53.799999999999955 29.699999999999989 53.799999999999955 25.399999999999977 Q53.799999999999955 19.699999999999989 51.200000000000045 14.850000000000023 Q48.600000000000023 10.000000000000000 44.299999999999955 6.500000000000000 Q40.100000000000023 3.000000000000000 34.500000000000000 1.000000000000000 Q28.899999999999977 -1.000000000000000 22.899999999999977 -1.000000000000000 zM26.500000000000000 16.300000000000001 Q29.899999999999977 16.300000000000011 32.199999999999989 18.800000000000011 Q34.500000000000000 21.300000000000011 34.500000000000000 24.800000000000011 Q34.500000000000000 30.100000000000023 29.500000000000000 30.100000000000023 Q26.000000000000000 30.100000000000023 23.750000000000000 27.699999999999989 Q21.500000000000000 25.300000000000011 21.500000000000000 21.800000000000011 Q21.500000000000000 19.500000000000000 22.850000000000023 17.899999999999977 Q24.199999999999989 16.300000000000011 26.500000000000000 16.300000000000011 zM32.399999999999999 44.200000000000003 Q34.399999999999977 44.199999999999989 36.350000000000023 45.800000000000011 Q38.300000000000011 47.399999999999977 38.300000000000011 50.399999999999977 Q38.300000000000011 52.100000000000023 37.350000000000023 53.199999999999989 Q36.399999999999977 54.300000000000011 34.600000000000023 54.300000000000011 Q32.199999999999989 54.300000000000011 30.550000000000011 52.500000000000000 Q28.899999999999977 50.699999999999989 28.899999999999977 48.199999999999989 Q28.899999999999977 46.199999999999989 29.949999999999989 45.199999999999989 Q31.000000000000000 44.199999999999989 32.399999999999977 44.199999999999989 z" />
<glyph unicode="9" horiz-adv-x="57.399999999999999" d="M16.699999999999999 -15.500000000000000 Q4.600000000000023 -15.500000000000000 -2.899999999999977 -5.899999999999977 C1.466666666666640 -1.833333333333314 6.925000000000011 3.250000000000000 10.199999999999989 6.300000000000011 Q14.199999999999989 0.899999999999977 20.500000000000000 0.899999999999977 Q24.800000000000011 0.899999999999977 27.949999999999989 3.850000000000023 Q31.100000000000023 6.800000000000011 32.500000000000000 12.199999999999989 Q28.100000000000023 8.800000000000011 22.199999999999989 8.800000000000011 Q17.800000000000011 8.800000000000011 14.199999999999989 10.250000000000000 Q10.600000000000023 11.699999999999989 8.000000000000000 14.199999999999989 Q5.500000000000000 16.800000000000011 4.149999999999977 20.300000000000011 Q2.800000000000011 23.800000000000011 2.800000000000011 27.899999999999977 Q2.800000000000011 33.800000000000011 5.350000000000023 39.100000000000023 Q7.899999999999977 44.399999999999977 12.199999999999989 48.399999999999977 Q16.500000000000000 52.399999999999977 22.149999999999977 54.750000000000000 Q27.800000000000011 57.100000000000023 34.000000000000000 57.100000000000023 Q43.700000000000045 57.100000000000023 48.600000000000023 50.649999999999977 Q53.500000000000000 44.199999999999989 53.500000000000000 32.699999999999989 Q53.500000000000000 22.500000000000000 50.799999999999955 13.699999999999989 Q48.100000000000023 4.899999999999977 43.200000000000045 -1.600000000000023 Q38.399999999999977 -8.100000000000023 31.649999999999977 -11.800000000000011 Q24.899999999999977 -15.500000000000000 16.699999999999989 -15.500000000000000 zM26.899999999999999 23.699999999999999 Q28.699999999999989 23.699999999999989 30.350000000000023 24.500000000000000 Q32.000000000000000 25.300000000000011 33.300000000000011 26.699999999999989 Q34.600000000000023 28.100000000000023 35.399999999999977 29.949999999999989 Q36.199999999999989 31.800000000000011 36.199999999999989 33.899999999999977 Q36.199999999999989 36.899999999999977 34.649999999999977 39.050000000000011 Q33.100000000000023 41.199999999999989 30.600000000000023 41.199999999999989 Q29.000000000000000 41.199999999999989 27.300000000000011 40.300000000000011 Q25.600000000000023 39.399999999999977 24.199999999999989 37.899999999999977 Q22.899999999999977 36.399999999999977 22.050000000000011 34.449999999999989 Q21.199999999999989 32.500000000000000 21.199999999999989 30.399999999999977 Q21.199999999999989 27.500000000000000 22.750000000000000 25.600000000000023 Q24.300000000000011 23.699999999999989 26.899999999999977 23.699999999999989 z" />
<glyph unicode=":" horiz-adv-x="29.899999999999999" d="M8.000000000000000 33.500000000000000 C8.975000000000023 38.100000000000023 10.925000000000011 47.300000000000011 11.899999999999977 51.899999999999977 C15.750000000000000 51.899999999999977 23.449999999999989 51.899999999999977 27.300000000000011 51.899999999999977 C26.324999999999989 47.300000000000011 24.375000000000000 38.100000000000023 23.399999999999977 33.500000000000000 C19.550000000000011 33.500000000000000 11.850000000000023 33.500000000000000 8.000000000000000 33.500000000000000 zM0.900000000000000 0.000000000000000 C1.875000000000000 4.600000000000023 3.824999999999989 13.800000000000011 4.800000000000011 18.399999999999977 C8.649999999999977 18.399999999999977 16.350000000000023 18.399999999999977 20.199999999999989 18.399999999999977 C19.225000000000023 13.800000000000011 17.274999999999977 4.600000000000023 16.300000000000011 0.000000000000000 C12.449999999999989 0.000000000000000 4.750000000000000 0.000000000000000 0.899999999999977 0.000000000000000 z" />
<glyph unicode=";" horiz-adv-x="30.100000000000001" d="M8.100000000000000 33.500000000000000 C9.074999999999989 38.100000000000023 11.024999999999977 47.300000000000011 12.000000000000000 51.899999999999977 C15.850000000000023 51.899999999999977 23.550000000000011 51.899999999999977 27.399999999999977 51.899999999999977 C26.425000000000011 47.300000000000011 24.475000000000023 38.100000000000023 23.500000000000000 33.500000000000000 C19.649999999999977 33.500000000000000 11.949999999999989 33.500000000000000 8.100000000000023 33.500000000000000 zM-0.500000000000000 -15.699999999999999 C1.225000000000023 -11.774999999999977 4.675000000000011 -3.925000000000011 6.399999999999977 0.000000000000000 C4.975000000000023 0.000000000000000 2.125000000000000 0.000000000000000 0.699999999999989 0.000000000000000 C1.699999999999989 4.600000000000023 3.699999999999989 13.800000000000011 4.699999999999989 18.399999999999977 C8.600000000000023 18.399999999999977 16.399999999999977 18.399999999999977 20.300000000000011 18.399999999999977 C19.300000000000011 13.800000000000011 17.300000000000011 4.600000000000023 16.300000000000011 0.000000000000000 C14.149999999999977 -3.925000000000011 9.850000000000023 -11.774999999999977 7.699999999999989 -15.699999999999989 C5.649999999999977 -15.699999999999989 1.550000000000011 -15.699999999999989 -0.500000000000000 -15.699999999999989 z" />
<glyph unicode="&#x3c;" horiz-adv-x="55.399999999999999" d="M2.800000000000000 29.800000000000001 C13.399999999999977 36.250000000000000 34.600000000000023 49.149999999999977 45.200000000000045 55.600000000000023 C45.200000000000045 50.550000000000011 45.200000000000045 40.449999999999989 45.200000000000045 35.399999999999977 C41.500000000000000 33.024999999999977 34.100000000000023 28.274999999999977 30.399999999999977 25.899999999999977 C34.100000000000023 23.725000000000023 41.500000000000000 19.375000000000000 45.200000000000045 17.199999999999989 C45.200000000000045 11.899999999999977 45.200000000000045 1.300000000000011 45.200000000000045 -4.000000000000000 C34.600000000000023 2.250000000000000 13.399999999999977 14.750000000000000 2.800000000000011 21.000000000000000 C2.800000000000011 23.199999999999989 2.800000000000011 27.600000000000023 2.800000000000011 29.800000000000011 z" />
<glyph unicode="=" horiz-adv-x="49.200000000000003" d="M7.800000000000000 10.100000000000000 C7.800000000000011 13.100000000000023 7.800000000000011 19.100000000000023 7.800000000000011 22.100000000000023 C15.875000000000000 22.100000000000023 32.024999999999977 22.100000000000023 40.100000000000023 22.100000000000023 C40.100000000000023 19.100000000000023 40.100000000000023 13.100000000000023 40.100000000000023 10.100000000000023 C32.024999999999977 10.100000000000023 15.875000000000000 10.100000000000023 7.800000000000011 10.100000000000023 zM7.800000000000000 33.100000000000001 C7.800000000000011 36.100000000000023 7.800000000000011 42.100000000000023 7.800000000000011 45.100000000000023 C15.875000000000000 45.100000000000023 32.024999999999977 45.100000000000023 40.100000000000023 45.100000000000023 C40.100000000000023 42.100000000000023 40.100000000000023 36.100000000000023 40.100000000000023 33.100000000000023 C32.024999999999977 33.100000000000023 15.875000000000000 33.100000000000023 7.800000000000011 33.100000000000023 z" />
<glyph unicode="&#x3e;" horiz-adv-x="55.5" d="M50.700000000000003 21.000000000000000 C40.100000000000023 14.750000000000000 18.899999999999977 2.250000000000000 8.300000000000011 -4.000000000000000 C8.300000000000011 1.300000000000011 8.300000000000011 11.899999999999977 8.300000000000011 17.199999999999989 C12.000000000000000 19.375000000000000 19.399999999999977 23.725000000000023 23.100000000000023 25.899999999999977 C19.399999999999977 28.274999999999977 12.000000000000000 33.024999999999977 8.300000000000011 35.399999999999977 C8.300000000000011 40.449999999999989 8.300000000000011 50.550000000000011 8.300000000000011 55.600000000000023 C18.899999999999977 49.149999999999977 40.100000000000023 36.250000000000000 50.700000000000045 29.800000000000011 C50.700000000000045 27.600000000000023 50.700000000000045 23.199999999999989 50.700000000000045 21.000000000000000 z" />
<glyph unicode="?" horiz-adv-x="48.200000000000003" d="M8.100000000000000 25.899999999999999 Q8.500000000000000 28.000000000000000 9.149999999999977 30.050000000000011 Q9.800000000000011 32.100000000000023 10.899999999999977 33.899999999999977 Q12.100000000000023 35.800000000000011 13.949999999999989 37.449999999999989 Q15.800000000000011 39.100000000000023 18.699999999999989 40.600000000000023 Q22.600000000000023 42.500000000000000 25.250000000000000 44.000000000000000 Q27.899999999999977 45.500000000000000 29.500000000000000 46.899999999999977 Q31.199999999999989 48.300000000000011 31.949999999999989 49.649999999999977 Q32.699999999999989 51.000000000000000 32.699999999999989 52.500000000000000 Q32.699999999999989 54.399999999999977 31.500000000000000 55.500000000000000 Q30.300000000000011 56.600000000000023 28.500000000000000 56.600000000000023 Q26.899999999999977 56.600000000000023 25.600000000000023 55.899999999999977 Q24.300000000000011 55.199999999999989 23.300000000000011 54.199999999999989 Q22.300000000000011 53.199999999999989 21.500000000000000 52.149999999999977 Q20.699999999999989 51.100000000000023 20.100000000000023 50.399999999999977 C16.666666666666686 53.266666666666652 12.375000000000000 56.850000000000023 9.800000000000011 59.000000000000000 Q13.500000000000000 65.099999999999994 19.550000000000011 68.500000000000000 Q25.600000000000023 71.900000000000006 32.500000000000000 71.900000000000006 Q35.699999999999989 71.900000000000006 38.800000000000011 71.050000000000011 Q41.899999999999977 70.199999999999989 44.299999999999955 68.199999999999989 Q46.700000000000045 66.300000000000011 48.200000000000045 63.250000000000000 Q49.700000000000045 60.199999999999989 49.700000000000045 55.899999999999977 Q49.700000000000045 51.800000000000011 48.850000000000023 48.750000000000000 Q48.000000000000000 45.699999999999989 46.500000000000000 43.300000000000011 Q45.000000000000000 40.899999999999977 42.949999999999989 39.100000000000023 Q40.899999999999977 37.300000000000011 38.500000000000000 35.800000000000011 Q36.100000000000023 34.300000000000011 33.600000000000023 33.199999999999989 Q31.100000000000023 32.100000000000023 29.000000000000000 31.000000000000000 Q26.899999999999977 29.899999999999977 25.399999999999977 28.699999999999989 Q23.899999999999977 27.500000000000000 23.600000000000023 25.899999999999977 C18.433333333333337 25.899999999999977 11.975000000000023 25.899999999999977 8.100000000000023 25.899999999999977 zM2.900000000000000 0.000000000000000 C3.774999999999977 4.100000000000023 5.524999999999977 12.300000000000011 6.399999999999977 16.399999999999977 C10.274999999999977 16.399999999999977 18.024999999999977 16.399999999999977 21.899999999999977 16.399999999999977 C21.024999999999977 12.300000000000011 19.274999999999977 4.100000000000023 18.399999999999977 0.000000000000000 C14.524999999999977 0.000000000000000 6.774999999999977 0.000000000000000 2.899999999999977 0.000000000000000 z" />
<glyph unicode="@" horiz-adv-x="82" d="M58.799999999999997 6.400000000000000 Q60.799999999999955 6.399999999999977 62.750000000000000 8.399999999999977 Q64.700000000000045 10.399999999999977 66.200000000000045 13.600000000000023 Q67.700000000000045 16.800000000000011 68.649999999999977 20.850000000000023 Q69.600000000000023 24.899999999999977 69.600000000000023 29.100000000000023 Q69.600000000000023 34.699999999999989 67.850000000000023 39.149999999999977 Q66.100000000000023 43.600000000000023 62.899999999999977 46.699999999999989 Q59.700000000000045 49.899999999999977 55.149999999999977 51.600000000000023 Q50.600000000000023 53.300000000000011 44.899999999999977 53.300000000000011 Q37.399999999999977 53.300000000000011 30.850000000000023 50.399999999999977 Q24.300000000000011 47.500000000000000 19.500000000000000 42.500000000000000 Q14.699999999999989 37.500000000000000 11.899999999999977 30.800000000000011 Q9.100000000000023 24.100000000000023 9.100000000000023 16.399999999999977 Q9.100000000000023 5.100000000000023 15.000000000000000 -1.250000000000000 Q20.899999999999977 -7.600000000000023 31.300000000000011 -7.600000000000023 Q34.899999999999977 -7.600000000000023 38.449999999999989 -6.699999999999989 Q42.000000000000000 -5.800000000000011 46.600000000000023 -3.800000000000011 C46.833333333333371 -6.066666666666663 47.125000000000000 -8.899999999999977 47.299999999999955 -10.600000000000023 Q38.699999999999989 -14.600000000000023 29.899999999999977 -14.600000000000023 Q23.399999999999977 -14.600000000000023 18.149999999999977 -12.449999999999989 Q12.899999999999977 -10.300000000000011 9.199999999999989 -6.399999999999977 Q5.600000000000023 -2.500000000000000 3.600000000000023 3.050000000000011 Q1.600000000000023 8.600000000000023 1.600000000000023 15.500000000000000 Q1.600000000000023 24.800000000000011 5.149999999999977 33.000000000000000 Q8.699999999999989 41.199999999999989 14.800000000000011 47.199999999999989 Q20.899999999999977 53.300000000000011 29.149999999999977 56.800000000000011 Q37.399999999999977 60.300000000000011 46.700000000000045 60.300000000000011 Q53.600000000000023 60.300000000000011 59.200000000000045 58.350000000000023 Q64.799999999999955 56.399999999999977 68.700000000000045 52.600000000000023 Q72.700000000000045 48.899999999999977 74.899999999999977 43.449999999999989 Q77.100000000000023 38.000000000000000 77.100000000000023 31.100000000000023 Q77.100000000000023 24.899999999999977 75.399999999999977 19.050000000000011 Q73.700000000000045 13.199999999999989 70.700000000000045 8.600000000000023 Q67.799999999999955 4.000000000000000 63.750000000000000 1.199999999999989 Q59.700000000000045 -1.600000000000023 55.000000000000000 -1.600000000000023 Q51.399999999999977 -1.600000000000023 49.149999999999977 0.100000000000023 Q46.899999999999977 1.800000000000011 46.899999999999977 4.899999999999977 Q46.899999999999977 5.100000000000023 46.899999999999977 5.399999999999977 Q46.899999999999977 5.699999999999989 47.000000000000000 6.000000000000000 Q42.800000000000011 2.500000000000000 39.250000000000000 0.949999999999989 Q35.699999999999989 -0.600000000000023 31.899999999999977 -0.600000000000023 Q24.399999999999977 -0.600000000000023 20.050000000000011 4.449999999999989 Q15.699999999999989 9.500000000000000 15.699999999999989 17.800000000000011 Q15.699999999999989 23.600000000000023 17.800000000000011 28.850000000000023 Q19.899999999999977 34.100000000000023 23.399999999999977 38.100000000000023 Q27.000000000000000 42.100000000000023 31.600000000000023 44.449999999999989 Q36.199999999999989 46.800000000000011 41.199999999999989 46.800000000000011 Q45.799999999999955 46.800000000000011 48.850000000000023 44.800000000000011 Q51.899999999999977 42.800000000000011 52.600000000000023 39.399999999999977 C52.933333333333394 41.266666666666652 53.350000000000023 43.600000000000023 53.600000000000023 45.000000000000000 C55.674999999999955 45.000000000000000 59.825000000000045 45.000000000000000 61.899999999999977 45.000000000000000 C60.424999999999955 37.125000000000000 57.475000000000023 21.375000000000000 56.000000000000000 13.500000000000000 Q55.799999999999955 12.699999999999989 55.700000000000045 11.800000000000011 Q55.600000000000023 10.899999999999977 55.600000000000023 10.199999999999989 Q55.600000000000023 8.500000000000000 56.450000000000045 7.449999999999989 Q57.299999999999955 6.399999999999977 58.799999999999955 6.399999999999977 zM35.399999999999999 8.199999999999999 Q39.399999999999977 8.199999999999989 41.949999999999989 10.449999999999989 Q44.500000000000000 12.699999999999989 46.299999999999955 16.899999999999977 C46.833333333333371 20.733333333333348 47.500000000000000 25.524999999999977 47.899999999999977 28.399999999999977 Q47.700000000000045 31.600000000000023 45.750000000000000 33.949999999999989 Q43.799999999999955 36.300000000000011 40.300000000000011 36.300000000000011 Q37.800000000000011 36.300000000000011 35.350000000000023 34.949999999999989 Q32.899999999999977 33.600000000000023 30.899999999999977 31.199999999999989 Q29.000000000000000 28.800000000000011 27.800000000000011 25.550000000000011 Q26.600000000000023 22.300000000000011 26.600000000000023 18.600000000000023 Q26.600000000000023 16.500000000000000 27.050000000000011 14.600000000000023 Q27.500000000000000 12.699999999999989 28.500000000000000 11.300000000000011 Q29.600000000000023 9.899999999999977 31.300000000000011 9.050000000000011 Q33.000000000000000 8.199999999999989 35.399999999999977 8.199999999999989 z" />
<glyph unicode="A" horiz-adv-x="63.600000000000001" d="M32.000000000000000 71.000000000000000 C36.475000000000023 71.000000000000000 45.424999999999955 71.000000000000000 49.899999999999977 71.000000000000000 C51.875000000000000 53.250000000000000 55.825000000000045 17.750000000000000 57.799999999999955 0.000000000000000 C52.850000000000023 0.000000000000000 42.949999999999989 0.000000000000000 38.000000000000000 0.000000000000000 C37.824999999999989 3.475000000000023 37.475000000000023 10.425000000000011 37.300000000000011 13.899999999999977 C33.050000000000011 13.899999999999977 24.550000000000011 13.899999999999977 20.300000000000011 13.899999999999977 C18.675000000000011 10.425000000000011 15.425000000000011 3.475000000000023 13.800000000000011 0.000000000000000 C8.824999999999989 0.000000000000000 -1.125000000000000 0.000000000000000 -6.100000000000023 0.000000000000000 C3.425000000000011 17.750000000000000 22.474999999999966 53.250000000000000 32.000000000000000 71.000000000000000 zM37.000000000000000 26.899999999999999 C36.800000000000011 32.399999999999977 36.399999999999977 43.399999999999977 36.199999999999989 48.899999999999977 C33.625000000000000 43.399999999999977 28.475000000000023 32.399999999999977 25.899999999999977 26.899999999999977 C28.675000000000011 26.899999999999977 34.225000000000023 26.899999999999977 37.000000000000000 26.899999999999977 z" />
<glyph unicode="B" horiz-adv-x="66.700000000000003" d="M14.800000000000001 71.000000000000000 C24.725000000000023 71.000000000000000 44.575000000000045 71.000000000000000 54.500000000000000 71.000000000000000 Q57.500000000000000 71.000000000000000 59.750000000000000 69.750000000000000 Q62.000000000000000 68.500000000000000 63.500000000000000 66.500000000000000 Q65.000000000000000 64.500000000000000 65.750000000000000 61.850000000000023 Q66.500000000000000 59.199999999999989 66.500000000000000 56.399999999999977 Q66.500000000000000 53.399999999999977 65.600000000000023 50.449999999999989 Q64.700000000000045 47.500000000000000 62.899999999999977 44.800000000000011 Q61.200000000000045 42.100000000000023 58.649999999999977 39.899999999999977 Q56.100000000000023 37.699999999999989 52.799999999999955 36.399999999999977 Q57.200000000000045 35.000000000000000 59.649999999999977 31.449999999999989 Q62.100000000000023 27.899999999999977 62.100000000000023 22.500000000000000 Q62.100000000000023 16.500000000000000 59.700000000000045 12.250000000000000 Q57.299999999999955 8.000000000000000 53.299999999999955 5.300000000000011 Q49.299999999999955 2.600000000000023 44.000000000000000 1.300000000000011 Q38.699999999999989 0.000000000000000 33.000000000000000 0.000000000000000 C21.899999999999977 0.000000000000000 8.024999999999977 0.000000000000000 -0.300000000000011 0.000000000000000 C3.475000000000023 17.750000000000000 11.024999999999977 53.250000000000000 14.800000000000011 71.000000000000000 zM36.500000000000000 16.399999999999999 Q38.899999999999977 16.399999999999977 40.850000000000023 18.350000000000023 Q42.800000000000011 20.300000000000011 42.800000000000011 23.800000000000011 Q42.800000000000011 25.800000000000011 41.949999999999989 27.050000000000011 Q41.100000000000023 28.300000000000011 39.600000000000023 28.300000000000011 C34.800000000000011 28.300000000000011 28.800000000000011 28.300000000000011 25.199999999999989 28.300000000000011 C24.574999999999989 25.324999999999989 23.324999999999989 19.375000000000000 22.699999999999989 16.399999999999977 C26.149999999999977 16.399999999999977 33.050000000000011 16.399999999999977 36.500000000000000 16.399999999999977 zM40.200000000000003 43.500000000000000 Q41.199999999999989 43.500000000000000 42.250000000000000 43.850000000000023 Q43.299999999999955 44.199999999999989 44.100000000000023 45.000000000000000 Q45.000000000000000 45.800000000000011 45.549999999999955 47.149999999999977 Q46.100000000000023 48.500000000000000 46.100000000000023 50.600000000000023 Q46.100000000000023 52.600000000000023 45.250000000000000 53.500000000000000 Q44.399999999999977 54.399999999999977 43.100000000000023 54.399999999999977 C39.000000000000000 54.399999999999977 33.875000000000000 54.399999999999977 30.800000000000011 54.399999999999977 C30.199999999999989 51.675000000000011 29.000000000000000 46.225000000000023 28.399999999999977 43.500000000000000 C31.350000000000023 43.500000000000000 37.250000000000000 43.500000000000000 40.199999999999989 43.500000000000000 z" />
<glyph unicode="C" horiz-adv-x="66.400000000000006" d="M29.899999999999999 -0.600000000000000 Q23.399999999999977 -0.600000000000023 18.399999999999977 1.949999999999989 Q13.399999999999977 4.500000000000000 9.899999999999977 8.699999999999989 Q6.399999999999977 13.000000000000000 4.600000000000023 18.449999999999989 Q2.800000000000011 23.899999999999977 2.800000000000011 29.800000000000011 Q2.800000000000011 37.199999999999989 6.050000000000011 44.600000000000023 Q9.300000000000011 52.000000000000000 15.000000000000000 57.899999999999977 Q20.800000000000011 63.900000000000006 28.649999999999977 67.650000000000006 Q36.500000000000000 71.400000000000006 45.799999999999955 71.400000000000006 Q55.600000000000023 71.400000000000006 62.000000000000000 67.150000000000006 Q68.399999999999977 62.899999999999977 70.399999999999977 55.899999999999977 C64.700000000000045 52.366666666666674 57.575000000000045 47.949999999999989 53.299999999999955 45.300000000000011 Q52.899999999999977 47.899999999999977 51.750000000000000 49.600000000000023 Q50.600000000000023 51.300000000000011 48.899999999999977 52.300000000000011 Q47.299999999999955 53.300000000000011 45.399999999999977 53.699999999999989 Q43.500000000000000 54.100000000000023 41.699999999999989 54.100000000000023 Q37.100000000000023 54.100000000000023 33.550000000000011 51.899999999999977 Q30.000000000000000 49.699999999999989 27.600000000000023 46.300000000000011 Q25.199999999999989 42.899999999999977 23.949999999999989 38.850000000000023 Q22.699999999999989 34.800000000000011 22.699999999999989 31.100000000000023 Q22.699999999999989 28.199999999999989 23.399999999999977 25.550000000000011 Q24.100000000000023 22.899999999999977 25.500000000000000 20.899999999999977 Q26.899999999999977 19.000000000000000 29.000000000000000 17.850000000000023 Q31.100000000000023 16.699999999999989 34.000000000000000 16.699999999999989 Q35.800000000000011 16.699999999999989 37.850000000000023 17.149999999999977 Q39.899999999999977 17.600000000000023 41.800000000000011 18.600000000000023 Q43.799999999999955 19.699999999999989 45.549999999999955 21.350000000000023 Q47.299999999999955 23.000000000000000 48.600000000000023 25.399999999999977 C53.233333333333348 22.233333333333348 59.024999999999977 18.274999999999977 62.500000000000000 15.899999999999977 Q60.200000000000045 12.000000000000000 56.450000000000045 8.899999999999977 Q52.700000000000045 5.800000000000011 48.200000000000045 3.699999999999989 Q43.799999999999955 1.600000000000023 39.000000000000000 0.500000000000000 Q34.199999999999989 -0.600000000000023 29.899999999999977 -0.600000000000023 z" />
<glyph unicode="D" horiz-adv-x="69.299999999999997" d="M14.800000000000001 71.000000000000000 C21.350000000000023 71.000000000000000 34.449999999999989 71.000000000000000 41.000000000000000 71.000000000000000 Q48.000000000000000 71.000000000000000 53.200000000000045 68.849999999999994 Q58.399999999999977 66.699999999999989 61.799999999999955 62.899999999999977 Q65.299999999999955 59.199999999999989 66.950000000000045 54.149999999999977 Q68.600000000000023 49.100000000000023 68.600000000000023 43.300000000000011 Q68.600000000000023 33.899999999999977 65.350000000000023 25.949999999999989 Q62.100000000000023 18.000000000000000 56.299999999999955 12.199999999999989 Q50.600000000000023 6.500000000000000 42.800000000000011 3.250000000000000 Q35.000000000000000 0.000000000000000 25.899999999999977 0.000000000000000 C17.166666666666686 0.000000000000000 6.250000000000000 0.000000000000000 -0.300000000000011 0.000000000000000 C3.475000000000023 17.750000000000000 11.024999999999977 53.250000000000000 14.800000000000011 71.000000000000000 zM29.500000000000000 17.000000000000000 Q33.699999999999989 17.000000000000000 37.199999999999989 18.899999999999977 Q40.699999999999989 20.800000000000011 43.200000000000045 24.000000000000000 Q45.700000000000045 27.300000000000011 47.100000000000023 31.550000000000011 Q48.500000000000000 35.800000000000011 48.500000000000000 40.500000000000000 Q48.500000000000000 46.600000000000023 45.649999999999977 50.300000000000011 Q42.800000000000011 54.000000000000000 37.399999999999977 54.000000000000000 C35.166666666666686 54.000000000000000 32.375000000000000 54.000000000000000 30.699999999999989 54.000000000000000 C28.725000000000023 44.750000000000000 24.774999999999977 26.250000000000000 22.800000000000011 17.000000000000000 C24.475000000000023 17.000000000000000 27.824999999999989 17.000000000000000 29.500000000000000 17.000000000000000 z" />
<glyph unicode="E" horiz-adv-x="57.5" d="M14.800000000000001 71.000000000000000 C26.649999999999977 71.000000000000000 50.350000000000023 71.000000000000000 62.200000000000045 71.000000000000000 C61.299999999999955 66.750000000000000 59.500000000000000 58.250000000000000 58.600000000000023 54.000000000000000 C51.625000000000000 54.000000000000000 37.675000000000011 54.000000000000000 30.699999999999989 54.000000000000000 C30.175000000000011 51.500000000000000 29.125000000000000 46.500000000000000 28.600000000000023 44.000000000000000 C34.550000000000011 44.000000000000000 46.450000000000045 44.000000000000000 52.399999999999977 44.000000000000000 C51.549999999999955 40.050000000000011 49.850000000000023 32.149999999999977 49.000000000000000 28.199999999999989 C43.049999999999955 28.199999999999989 31.149999999999977 28.199999999999989 25.199999999999989 28.199999999999989 C24.600000000000023 25.399999999999977 23.399999999999977 19.800000000000011 22.800000000000011 17.000000000000000 C30.000000000000000 17.000000000000000 44.399999999999977 17.000000000000000 51.600000000000023 17.000000000000000 C50.700000000000045 12.750000000000000 48.899999999999977 4.250000000000000 48.000000000000000 0.000000000000000 C35.925000000000011 0.000000000000000 11.774999999999977 0.000000000000000 -0.300000000000011 0.000000000000000 C3.475000000000023 17.750000000000000 11.024999999999977 53.250000000000000 14.800000000000011 71.000000000000000 z" />
<glyph unicode="F" horiz-adv-x="54.600000000000001" d="M14.800000000000001 71.000000000000000 C26.399999999999977 71.000000000000000 49.600000000000023 71.000000000000000 61.200000000000045 71.000000000000000 C60.299999999999955 66.750000000000000 58.500000000000000 58.250000000000000 57.600000000000023 54.000000000000000 C50.875000000000000 54.000000000000000 37.425000000000011 54.000000000000000 30.699999999999989 54.000000000000000 C30.074999999999989 51.050000000000011 28.824999999999989 45.149999999999977 28.199999999999989 42.199999999999989 C33.649999999999977 42.199999999999989 44.549999999999955 42.199999999999989 50.000000000000000 42.199999999999989 C49.174999999999955 38.250000000000000 47.524999999999977 30.350000000000023 46.700000000000045 26.399999999999977 C41.225000000000023 26.399999999999977 30.274999999999977 26.399999999999977 24.800000000000011 26.399999999999977 C23.399999999999977 19.800000000000011 20.600000000000023 6.600000000000023 19.199999999999989 0.000000000000000 C14.324999999999989 0.000000000000000 4.574999999999989 0.000000000000000 -0.300000000000011 0.000000000000000 C3.475000000000023 17.750000000000000 11.024999999999977 53.250000000000000 14.800000000000011 71.000000000000000 z" />
<glyph unicode="G" horiz-adv-x="71.099999999999994" d="M46.600000000000001 6.000000000000000 Q42.199999999999989 2.600000000000023 38.000000000000000 1.050000000000011 Q33.800000000000011 -0.500000000000000 29.000000000000000 -0.500000000000000 Q23.399999999999977 -0.500000000000000 18.600000000000023 1.449999999999989 Q13.800000000000011 3.399999999999977 10.300000000000011 7.100000000000023 Q6.800000000000011 10.800000000000011 4.800000000000011 16.100000000000023 Q2.800000000000011 21.399999999999977 2.800000000000011 28.199999999999989 Q2.800000000000011 37.300000000000011 6.449999999999989 45.199999999999989 Q10.100000000000023 53.100000000000023 16.199999999999989 58.899999999999977 Q22.300000000000011 64.800000000000011 30.100000000000023 68.150000000000006 Q37.899999999999977 71.500000000000000 46.299999999999955 71.500000000000000 Q50.799999999999955 71.500000000000000 54.799999999999955 70.449999999999989 Q58.799999999999955 69.400000000000006 62.000000000000000 67.300000000000011 Q65.200000000000045 65.300000000000011 67.399999999999977 62.449999999999989 Q69.600000000000023 59.600000000000023 70.700000000000045 56.000000000000000 C65.100000000000023 52.300000000000011 58.100000000000023 47.675000000000011 53.899999999999977 44.899999999999977 Q52.799999999999955 49.100000000000023 49.500000000000000 51.649999999999977 Q46.200000000000045 54.199999999999989 41.899999999999977 54.199999999999989 Q38.100000000000023 54.199999999999989 34.699999999999989 52.350000000000023 Q31.300000000000011 50.500000000000000 28.600000000000023 47.300000000000011 Q26.000000000000000 44.199999999999989 24.449999999999989 39.899999999999977 Q22.899999999999977 35.600000000000023 22.899999999999977 30.699999999999989 Q22.899999999999977 24.399999999999977 25.899999999999977 20.600000000000023 Q28.899999999999977 16.800000000000011 34.399999999999977 16.800000000000011 Q42.199999999999989 16.800000000000011 49.799999999999955 23.800000000000011 C45.933333333333280 23.800000000000011 41.100000000000023 23.800000000000011 38.199999999999989 23.800000000000011 C38.925000000000011 27.300000000000011 40.375000000000000 34.300000000000011 41.100000000000023 37.800000000000011 C48.200000000000045 37.800000000000011 62.399999999999977 37.800000000000011 69.500000000000000 37.800000000000011 C67.475000000000023 28.350000000000023 63.424999999999955 9.449999999999989 61.399999999999977 0.000000000000000 C57.399999999999977 0.000000000000000 49.399999999999977 0.000000000000000 45.399999999999977 0.000000000000000 C45.700000000000045 1.500000000000000 46.299999999999955 4.500000000000000 46.600000000000023 6.000000000000000 z" />
<glyph unicode="H" horiz-adv-x="72.400000000000006" d="M14.800000000000001 71.000000000000000 C19.675000000000011 71.000000000000000 29.425000000000011 71.000000000000000 34.300000000000011 71.000000000000000 C32.899999999999977 64.449999999999989 30.100000000000023 51.350000000000023 28.699999999999989 44.800000000000011 C34.000000000000000 44.800000000000011 44.600000000000023 44.800000000000011 49.899999999999977 44.800000000000011 C51.299999999999955 51.350000000000023 54.100000000000023 64.449999999999989 55.500000000000000 71.000000000000000 C60.375000000000000 71.000000000000000 70.125000000000000 71.000000000000000 75.000000000000000 71.000000000000000 C71.225000000000023 53.250000000000000 63.674999999999955 17.750000000000000 59.899999999999977 0.000000000000000 C55.024999999999977 0.000000000000000 45.274999999999977 0.000000000000000 40.399999999999977 0.000000000000000 C41.875000000000000 6.949999999999989 44.825000000000045 20.850000000000023 46.299999999999955 27.800000000000011 C41.000000000000000 27.800000000000011 30.399999999999977 27.800000000000011 25.100000000000023 27.800000000000011 C23.625000000000000 20.850000000000023 20.675000000000011 6.949999999999989 19.199999999999989 0.000000000000000 C14.324999999999989 0.000000000000000 4.574999999999989 0.000000000000000 -0.300000000000011 0.000000000000000 C3.475000000000023 17.750000000000000 11.024999999999977 53.250000000000000 14.800000000000011 71.000000000000000 z" />
<glyph unicode="I" horiz-adv-x="31.699999999999999" d="M14.800000000000001 71.000000000000000 C19.675000000000011 71.000000000000000 29.425000000000011 71.000000000000000 34.300000000000011 71.000000000000000 C30.524999999999977 53.250000000000000 22.975000000000023 17.750000000000000 19.199999999999989 0.000000000000000 C14.324999999999989 0.000000000000000 4.574999999999989 0.000000000000000 -0.300000000000011 0.000000000000000 C3.475000000000023 17.750000000000000 11.024999999999977 53.250000000000000 14.800000000000011 71.000000000000000 z" />
<glyph unicode="J" horiz-adv-x="48.799999999999997" d="M8.900000000000000 -1.100000000000000 Q0.399999999999977 -1.100000000000023 -4.800000000000011 3.300000000000011 C-2.333333333333314 8.600000000000023 0.750000000000000 15.225000000000023 2.600000000000023 19.199999999999989 Q2.800000000000011 19.000000000000000 3.600000000000023 18.500000000000000 Q4.399999999999977 18.000000000000000 5.699999999999989 17.500000000000000 Q7.100000000000023 17.000000000000000 8.850000000000023 16.600000000000023 Q10.600000000000023 16.199999999999989 12.600000000000023 16.199999999999989 Q15.399999999999977 16.199999999999989 17.250000000000000 17.199999999999989 Q19.100000000000023 18.199999999999989 20.399999999999977 20.399999999999977 Q21.800000000000011 22.699999999999989 22.850000000000023 26.250000000000000 Q23.899999999999977 29.800000000000011 25.000000000000000 34.899999999999977 C27.566666666666663 46.933333333333337 30.774999999999977 61.975000000000023 32.699999999999989 71.000000000000000 C37.574999999999989 71.000000000000000 47.325000000000045 71.000000000000000 52.200000000000045 71.000000000000000 C50.274999999999977 61.975000000000023 46.424999999999955 43.925000000000011 44.500000000000000 34.899999999999977 Q42.800000000000011 26.800000000000011 40.500000000000000 20.149999999999977 Q38.199999999999989 13.500000000000000 34.300000000000011 8.800000000000011 Q30.399999999999977 4.100000000000023 24.300000000000011 1.500000000000000 Q18.199999999999989 -1.100000000000023 8.899999999999977 -1.100000000000023 z" />
<glyph unicode="K" horiz-adv-x="66.5" d="M14.800000000000001 71.000000000000000 C19.675000000000011 71.000000000000000 29.425000000000011 71.000000000000000 34.300000000000011 71.000000000000000 C32.875000000000000 64.250000000000000 30.024999999999977 50.750000000000000 28.600000000000023 44.000000000000000 C34.800000000000011 50.750000000000000 47.200000000000045 64.250000000000000 53.399999999999977 71.000000000000000 C58.924999999999955 71.000000000000000 69.975000000000023 71.000000000000000 75.500000000000000 71.000000000000000 C67.725000000000023 63.050000000000011 52.174999999999955 47.149999999999977 44.399999999999977 39.199999999999989 C48.825000000000045 29.399999999999977 57.674999999999955 9.800000000000011 62.100000000000023 0.000000000000000 C56.475000000000023 0.000000000000000 45.225000000000023 0.000000000000000 39.600000000000023 0.000000000000000 C37.000000000000000 6.524999999999977 31.800000000000011 19.574999999999989 29.199999999999989 26.100000000000023 C27.800000000000011 24.699999999999989 25.000000000000000 21.899999999999977 23.600000000000023 20.500000000000000 C22.500000000000000 15.375000000000000 20.300000000000011 5.125000000000000 19.199999999999989 0.000000000000000 C14.324999999999989 0.000000000000000 4.574999999999989 0.000000000000000 -0.300000000000011 0.000000000000000 C3.475000000000023 17.750000000000000 11.024999999999977 53.250000000000000 14.800000000000011 71.000000000000000 z" />
<glyph unicode="L" horiz-adv-x="56.399999999999999" d="M14.800000000000001 71.000000000000000 C19.675000000000011 71.000000000000000 29.425000000000011 71.000000000000000 34.300000000000011 71.000000000000000 C31.425000000000011 57.500000000000000 25.675000000000011 30.500000000000000 22.800000000000011 17.000000000000000 C30.274999999999977 17.000000000000000 45.225000000000023 17.000000000000000 52.700000000000045 17.000000000000000 C51.799999999999955 12.750000000000000 50.000000000000000 4.250000000000000 49.100000000000023 0.000000000000000 C36.750000000000000 0.000000000000000 12.050000000000011 0.000000000000000 -0.300000000000011 0.000000000000000 C3.475000000000023 17.750000000000000 11.024999999999977 53.250000000000000 14.800000000000011 71.000000000000000 z" />
<glyph unicode="M" horiz-adv-x="82" d="M14.800000000000001 71.000000000000000 C20.125000000000000 71.000000000000000 30.774999999999977 71.000000000000000 36.100000000000023 71.000000000000000 C37.725000000000023 62.649999999999977 40.975000000000023 45.949999999999989 42.600000000000023 37.600000000000023 C47.799999999999955 45.949999999999989 58.200000000000045 62.649999999999977 63.399999999999977 71.000000000000000 C68.700000000000045 71.000000000000000 79.299999999999955 71.000000000000000 84.600000000000023 71.000000000000000 C80.824999999999932 53.250000000000000 73.274999999999977 17.750000000000000 69.500000000000000 0.000000000000000 C64.625000000000000 0.000000000000000 54.875000000000000 0.000000000000000 50.000000000000000 0.000000000000000 C51.975000000000023 9.350000000000023 55.924999999999955 28.050000000000011 57.899999999999977 37.399999999999977 C53.950000000000045 30.824999999999989 46.049999999999955 17.675000000000011 42.100000000000023 11.100000000000023 C39.524999999999977 11.100000000000023 34.375000000000000 11.100000000000023 31.800000000000011 11.100000000000023 C30.649999999999977 17.675000000000011 28.350000000000023 30.824999999999989 27.199999999999989 37.399999999999977 C25.199999999999989 28.050000000000011 21.199999999999989 9.350000000000023 19.199999999999989 0.000000000000000 C14.324999999999989 0.000000000000000 4.574999999999989 0.000000000000000 -0.300000000000011 0.000000000000000 C3.475000000000023 17.750000000000000 11.024999999999977 53.250000000000000 14.800000000000011 71.000000000000000 z" />
<glyph unicode="N" horiz-adv-x="72.5" d="M14.800000000000001 71.000000000000000 C18.600000000000023 71.000000000000000 26.199999999999989 71.000000000000000 30.000000000000000 71.000000000000000 C34.500000000000000 61.975000000000023 43.500000000000000 43.925000000000011 48.000000000000000 34.899999999999977 C49.899999999999977 43.925000000000011 53.700000000000045 61.975000000000023 55.600000000000023 71.000000000000000 C60.475000000000023 71.000000000000000 70.225000000000023 71.000000000000000 75.100000000000023 71.000000000000000 C71.324999999999932 53.250000000000000 63.774999999999977 17.750000000000000 60.000000000000000 0.000000000000000 C56.149999999999977 0.000000000000000 48.450000000000045 0.000000000000000 44.600000000000023 0.000000000000000 C40.100000000000023 8.725000000000023 31.100000000000023 26.175000000000011 26.600000000000023 34.899999999999977 C24.750000000000000 26.175000000000011 21.050000000000011 8.725000000000023 19.199999999999989 0.000000000000000 C14.324999999999989 0.000000000000000 4.574999999999989 0.000000000000000 -0.300000000000011 0.000000000000000 C3.475000000000023 17.750000000000000 11.024999999999977 53.250000000000000 14.800000000000011 71.000000000000000 z" />
<glyph unicode="O" horiz-adv-x="73.799999999999997" d="M30.300000000000001 -0.600000000000000 Q23.699999999999989 -0.600000000000023 18.550000000000011 1.899999999999977 Q13.399999999999977 4.399999999999977 9.899999999999977 8.500000000000000 Q6.399999999999977 12.600000000000023 4.600000000000023 18.000000000000000 Q2.800000000000011 23.399999999999977 2.800000000000011 29.199999999999989 Q2.800000000000011 37.300000000000011 6.300000000000011 44.899999999999977 Q9.800000000000011 52.500000000000000 15.699999999999989 58.399999999999977 Q21.699999999999989 64.300000000000011 29.550000000000011 67.849999999999994 Q37.399999999999977 71.400000000000006 46.000000000000000 71.400000000000006 Q52.600000000000023 71.400000000000006 57.700000000000045 68.900000000000006 Q62.799999999999955 66.400000000000006 66.200000000000045 62.199999999999989 Q69.700000000000045 58.100000000000023 71.500000000000000 52.750000000000000 Q73.299999999999955 47.399999999999977 73.299999999999955 41.600000000000023 Q73.299999999999955 33.600000000000023 69.799999999999955 26.000000000000000 Q66.299999999999955 18.399999999999977 60.399999999999977 12.500000000000000 Q54.500000000000000 6.600000000000023 46.700000000000045 3.000000000000000 Q38.899999999999977 -0.600000000000023 30.300000000000011 -0.600000000000023 zM34.100000000000001 16.699999999999999 Q38.899999999999977 16.699999999999989 42.500000000000000 18.949999999999989 Q46.100000000000023 21.199999999999989 48.500000000000000 24.600000000000023 Q51.000000000000000 28.100000000000023 52.200000000000045 32.250000000000000 Q53.399999999999977 36.399999999999977 53.399999999999977 40.300000000000011 Q53.399999999999977 43.100000000000023 52.750000000000000 45.600000000000023 Q52.100000000000023 48.100000000000023 50.700000000000045 50.000000000000000 Q49.399999999999977 51.899999999999977 47.200000000000045 53.000000000000000 Q45.000000000000000 54.100000000000023 42.000000000000000 54.100000000000023 Q37.300000000000011 54.100000000000023 33.699999999999989 51.899999999999977 Q30.100000000000023 49.699999999999989 27.699999999999989 46.300000000000011 Q25.300000000000011 42.899999999999977 24.050000000000011 38.750000000000000 Q22.800000000000011 34.600000000000023 22.800000000000011 30.699999999999989 Q22.800000000000011 27.899999999999977 23.449999999999989 25.399999999999977 Q24.100000000000023 22.899999999999977 25.399999999999977 20.899999999999977 Q26.800000000000011 19.000000000000000 28.949999999999989 17.850000000000023 Q31.100000000000023 16.699999999999989 34.100000000000023 16.699999999999989 z" />
<glyph unicode="P" horiz-adv-x="60.200000000000003" d="M14.800000000000001 71.000000000000000 C22.100000000000023 71.000000000000000 36.699999999999989 71.000000000000000 44.000000000000000 71.000000000000000 Q48.299999999999955 71.000000000000000 51.649999999999977 69.250000000000000 Q55.000000000000000 67.500000000000000 57.299999999999955 64.599999999999994 Q59.700000000000045 61.800000000000011 60.950000000000045 58.100000000000023 Q62.200000000000045 54.399999999999977 62.200000000000045 50.500000000000000 Q62.200000000000045 45.300000000000011 59.950000000000045 40.149999999999977 Q57.700000000000045 35.000000000000000 53.799999999999955 30.899999999999977 Q50.000000000000000 26.899999999999977 44.899999999999977 24.350000000000023 Q39.800000000000011 21.800000000000011 34.000000000000000 21.800000000000011 C30.600000000000023 21.800000000000011 26.350000000000023 21.800000000000011 23.800000000000011 21.800000000000011 C22.649999999999977 16.350000000000023 20.350000000000023 5.449999999999989 19.199999999999989 0.000000000000000 C14.324999999999989 0.000000000000000 4.574999999999989 0.000000000000000 -0.300000000000011 0.000000000000000 C3.475000000000023 17.750000000000000 11.024999999999977 53.250000000000000 14.800000000000011 71.000000000000000 zM36.299999999999997 38.799999999999997 Q37.199999999999989 38.800000000000011 38.250000000000000 39.399999999999977 Q39.300000000000011 40.000000000000000 40.100000000000023 41.199999999999989 Q41.000000000000000 42.500000000000000 41.600000000000023 44.399999999999977 Q42.199999999999989 46.300000000000011 42.199999999999989 48.899999999999977 Q42.199999999999989 51.800000000000011 41.149999999999977 52.899999999999977 Q40.100000000000023 54.000000000000000 39.000000000000000 54.000000000000000 C36.233333333333348 54.000000000000000 32.774999999999977 54.000000000000000 30.699999999999989 54.000000000000000 C29.899999999999977 50.199999999999989 28.300000000000011 42.600000000000023 27.500000000000000 38.800000000000011 C29.699999999999989 38.800000000000011 34.100000000000023 38.800000000000011 36.300000000000011 38.800000000000011 z" />
<glyph unicode="Q" horiz-adv-x="73.700000000000003" d="M46.600000000000001 3.100000000000000 Q42.800000000000011 1.399999999999977 38.649999999999977 0.449999999999989 Q34.500000000000000 -0.500000000000000 30.199999999999989 -0.500000000000000 Q23.600000000000023 -0.500000000000000 18.500000000000000 1.949999999999989 Q13.399999999999977 4.399999999999977 9.800000000000011 8.500000000000000 Q6.300000000000011 12.699999999999989 4.500000000000000 18.050000000000011 Q2.699999999999989 23.399999999999977 2.699999999999989 29.199999999999989 Q2.699999999999989 37.300000000000011 6.250000000000000 44.899999999999977 Q9.800000000000011 52.500000000000000 15.699999999999989 58.399999999999977 Q21.699999999999989 64.300000000000011 29.500000000000000 67.900000000000006 Q37.300000000000011 71.500000000000000 45.899999999999977 71.500000000000000 Q52.500000000000000 71.500000000000000 57.600000000000023 69.000000000000000 Q62.700000000000045 66.500000000000000 66.100000000000023 62.300000000000011 Q69.600000000000023 58.199999999999989 71.399999999999977 52.800000000000011 Q73.200000000000045 47.399999999999977 73.200000000000045 41.600000000000023 Q73.200000000000045 33.100000000000023 69.350000000000023 25.250000000000000 Q65.500000000000000 17.399999999999977 59.100000000000023 11.399999999999977 C61.700000000000045 7.600000000000023 64.950000000000045 2.850000000000023 66.899999999999977 0.000000000000000 C62.350000000000023 0.000000000000000 53.250000000000000 0.000000000000000 48.700000000000045 0.000000000000000 C48.174999999999955 0.774999999999977 47.125000000000000 2.324999999999989 46.600000000000023 3.100000000000023 zM34.100000000000001 16.800000000000001 Q34.899999999999977 16.800000000000011 35.600000000000023 16.850000000000023 Q36.300000000000011 16.899999999999977 37.000000000000000 17.000000000000000 C34.066666666666663 21.333333333333314 30.399999999999977 26.750000000000000 28.199999999999989 30.000000000000000 C32.725000000000023 30.000000000000000 41.774999999999977 30.000000000000000 46.299999999999955 30.000000000000000 C47.024999999999977 28.949999999999989 48.475000000000023 26.850000000000023 49.200000000000045 25.800000000000011 Q51.200000000000045 29.100000000000023 52.250000000000000 32.899999999999977 Q53.299999999999955 36.699999999999989 53.299999999999955 40.300000000000011 Q53.299999999999955 43.100000000000023 52.649999999999977 45.600000000000023 Q52.000000000000000 48.100000000000023 50.600000000000023 50.000000000000000 Q49.299999999999955 51.899999999999977 47.100000000000023 53.050000000000011 Q44.899999999999977 54.199999999999989 41.899999999999977 54.199999999999989 Q37.199999999999989 54.199999999999989 33.600000000000023 52.000000000000000 Q30.000000000000000 49.800000000000011 27.600000000000023 46.300000000000011 Q25.199999999999989 42.899999999999977 23.949999999999989 38.750000000000000 Q22.699999999999989 34.600000000000023 22.699999999999989 30.699999999999989 Q22.699999999999989 28.000000000000000 23.350000000000023 25.449999999999989 Q24.000000000000000 22.899999999999977 25.300000000000011 21.000000000000000 Q26.699999999999989 19.100000000000023 28.899999999999977 17.949999999999989 Q31.100000000000023 16.800000000000011 34.100000000000023 16.800000000000011 z" />
<glyph unicode="R" horiz-adv-x="65.299999999999997" d="M-0.300000000000000 0.000000000000000 C3.475000000000023 17.750000000000000 11.024999999999977 53.250000000000000 14.800000000000011 71.000000000000000 C22.600000000000023 71.000000000000000 38.199999999999989 71.000000000000000 46.000000000000000 71.000000000000000 Q50.299999999999955 71.000000000000000 53.700000000000045 69.250000000000000 Q57.100000000000023 67.500000000000000 59.399999999999977 64.599999999999994 Q61.700000000000045 61.800000000000011 62.950000000000045 58.100000000000023 Q64.200000000000045 54.399999999999977 64.200000000000045 50.500000000000000 Q64.200000000000045 47.000000000000000 63.200000000000045 43.550000000000011 Q62.200000000000045 40.100000000000023 60.299999999999955 36.899999999999977 Q58.500000000000000 33.699999999999989 55.899999999999977 30.949999999999989 Q53.299999999999955 28.199999999999989 50.100000000000023 26.100000000000023 C52.933333333333394 17.399999999999977 56.475000000000023 6.524999999999977 58.600000000000023 0.000000000000000 C53.100000000000023 0.000000000000000 42.100000000000023 0.000000000000000 36.600000000000023 0.000000000000000 C34.875000000000000 5.449999999999989 31.425000000000011 16.350000000000023 29.699999999999989 21.800000000000011 C28.225000000000023 21.800000000000011 25.274999999999977 21.800000000000011 23.800000000000011 21.800000000000011 C22.649999999999977 16.350000000000023 20.350000000000023 5.449999999999989 19.199999999999989 0.000000000000000 C14.324999999999989 0.000000000000000 4.574999999999989 0.000000000000000 -0.300000000000011 0.000000000000000 zM38.299999999999997 38.799999999999997 Q39.100000000000023 38.800000000000011 40.100000000000023 39.500000000000000 Q41.100000000000023 40.199999999999989 42.000000000000000 41.500000000000000 Q42.899999999999977 42.800000000000011 43.500000000000000 44.600000000000023 Q44.100000000000023 46.399999999999977 44.100000000000023 48.500000000000000 Q44.100000000000023 51.100000000000023 43.149999999999977 52.550000000000011 Q42.199999999999989 54.000000000000000 41.000000000000000 54.000000000000000 C37.566666666666663 54.000000000000000 33.274999999999977 54.000000000000000 30.699999999999989 54.000000000000000 C29.899999999999977 50.199999999999989 28.300000000000011 42.600000000000023 27.500000000000000 38.800000000000011 C30.199999999999989 38.800000000000011 35.600000000000023 38.800000000000011 38.300000000000011 38.800000000000011 z" />
<glyph unicode="S" horiz-adv-x="59.600000000000001" d="M24.500000000000000 -0.900000000000000 Q20.800000000000011 -0.899999999999977 17.000000000000000 -0.300000000000011 Q13.199999999999989 0.300000000000011 9.600000000000023 1.399999999999977 Q6.000000000000000 2.500000000000000 2.699999999999989 4.000000000000000 Q-0.600000000000023 5.500000000000000 -3.300000000000011 7.399999999999977 C0.699999999999989 13.066666666666663 5.699999999999989 20.149999999999977 8.699999999999989 24.399999999999977 Q9.399999999999977 23.899999999999977 11.199999999999989 22.600000000000023 Q13.000000000000000 21.300000000000011 15.600000000000023 20.000000000000000 Q18.300000000000011 18.699999999999989 21.600000000000023 17.699999999999989 Q24.899999999999977 16.699999999999989 28.500000000000000 16.699999999999989 Q31.899999999999977 16.699999999999989 32.800000000000011 17.850000000000023 Q33.699999999999989 19.000000000000000 33.699999999999989 20.399999999999977 Q33.699999999999989 21.699999999999989 32.600000000000023 22.649999999999977 Q31.500000000000000 23.600000000000023 29.699999999999989 24.399999999999977 Q27.899999999999977 25.199999999999989 25.550000000000011 25.949999999999989 Q23.199999999999989 26.699999999999989 20.699999999999989 27.699999999999989 Q14.100000000000023 30.300000000000011 10.850000000000023 34.000000000000000 Q7.600000000000023 37.699999999999989 7.600000000000023 43.399999999999977 Q7.600000000000023 50.100000000000023 10.300000000000011 55.350000000000023 Q13.000000000000000 60.600000000000023 17.399999999999977 64.199999999999989 Q21.800000000000011 67.800000000000011 27.350000000000023 69.699999999999989 Q32.899999999999977 71.599999999999994 38.600000000000023 71.599999999999994 Q42.300000000000011 71.599999999999994 45.750000000000000 70.849999999999994 Q49.200000000000045 70.099999999999994 52.200000000000045 68.900000000000006 Q55.299999999999955 67.800000000000011 57.899999999999977 66.449999999999989 Q60.500000000000000 65.099999999999994 62.500000000000000 63.900000000000006 C58.566666666666720 58.533333333333303 53.649999999999977 51.824999999999989 50.700000000000045 47.800000000000011 Q50.600000000000023 47.899999999999977 49.149999999999977 48.949999999999989 Q47.700000000000045 50.000000000000000 45.399999999999977 51.199999999999989 Q43.100000000000023 52.399999999999977 40.199999999999989 53.350000000000023 Q37.300000000000011 54.300000000000011 34.300000000000011 54.300000000000011 Q32.100000000000023 54.300000000000011 30.550000000000011 53.300000000000011 Q29.000000000000000 52.300000000000011 29.000000000000000 50.100000000000023 Q29.000000000000000 47.800000000000011 31.899999999999977 46.600000000000023 Q34.800000000000011 45.399999999999977 39.600000000000023 43.699999999999989 Q43.200000000000045 42.300000000000011 46.149999999999977 40.800000000000011 Q49.100000000000023 39.300000000000011 51.200000000000045 37.300000000000011 Q53.399999999999977 35.300000000000011 54.549999999999955 32.600000000000023 Q55.700000000000045 29.899999999999977 55.700000000000045 26.199999999999989 Q55.700000000000045 18.600000000000023 52.850000000000023 13.449999999999989 Q50.000000000000000 8.300000000000011 45.500000000000000 5.100000000000023 Q41.000000000000000 1.899999999999977 35.449999999999989 0.500000000000000 Q29.899999999999977 -0.899999999999977 24.500000000000000 -0.899999999999977 z" />
<glyph unicode="T" horiz-adv-x="60" d="M25.399999999999999 54.000000000000000 C20.625000000000000 54.000000000000000 11.074999999999989 54.000000000000000 6.300000000000011 54.000000000000000 C7.199999999999989 58.250000000000000 9.000000000000000 66.750000000000000 9.899999999999977 71.000000000000000 C24.300000000000011 71.000000000000000 53.100000000000023 71.000000000000000 67.500000000000000 71.000000000000000 C66.600000000000023 66.750000000000000 64.799999999999955 58.250000000000000 63.899999999999977 54.000000000000000 C59.149999999999977 54.000000000000000 49.649999999999977 54.000000000000000 44.899999999999977 54.000000000000000 C42.024999999999977 40.500000000000000 36.274999999999977 13.500000000000000 33.399999999999977 0.000000000000000 C28.524999999999977 0.000000000000000 18.774999999999977 0.000000000000000 13.899999999999977 0.000000000000000 C16.774999999999977 13.500000000000000 22.524999999999977 40.500000000000000 25.399999999999977 54.000000000000000 z" />
<glyph unicode="U" horiz-adv-x="71.299999999999997" d="M29.100000000000001 -0.600000000000000 Q22.600000000000023 -0.600000000000023 17.949999999999989 1.250000000000000 Q13.300000000000011 3.100000000000023 10.399999999999977 6.399999999999977 Q7.500000000000000 9.699999999999989 6.149999999999977 14.149999999999977 Q4.800000000000011 18.600000000000023 4.800000000000011 23.800000000000011 Q4.800000000000011 28.899999999999977 6.000000000000000 34.500000000000000 C8.600000000000023 46.666666666666686 11.850000000000023 61.875000000000000 13.800000000000011 71.000000000000000 C18.675000000000011 71.000000000000000 28.425000000000011 71.000000000000000 33.300000000000011 71.000000000000000 C31.350000000000023 61.875000000000000 27.449999999999989 43.625000000000000 25.500000000000000 34.500000000000000 Q24.699999999999989 30.500000000000000 24.699999999999989 27.399999999999977 Q24.699999999999989 22.699999999999989 26.550000000000011 19.699999999999989 Q28.399999999999977 16.699999999999989 32.800000000000011 16.699999999999989 Q35.800000000000011 16.699999999999989 38.199999999999989 18.199999999999989 Q40.600000000000023 19.699999999999989 42.500000000000000 22.100000000000023 Q44.399999999999977 24.600000000000023 45.649999999999977 27.800000000000011 Q46.899999999999977 31.000000000000000 47.700000000000045 34.500000000000000 C50.299999999999955 46.666666666666686 53.549999999999955 61.875000000000000 55.500000000000000 71.000000000000000 C60.375000000000000 71.000000000000000 70.125000000000000 71.000000000000000 75.000000000000000 71.000000000000000 C73.049999999999955 61.875000000000000 69.149999999999977 43.625000000000000 67.200000000000045 34.500000000000000 Q65.600000000000023 27.100000000000023 62.399999999999977 20.649999999999977 Q59.200000000000045 14.199999999999989 54.399999999999977 9.500000000000000 Q49.600000000000023 4.800000000000011 43.250000000000000 2.100000000000023 Q36.899999999999977 -0.600000000000023 29.100000000000023 -0.600000000000023 z" />
<glyph unicode="V" horiz-adv-x="64.099999999999994" d="M7.600000000000000 71.000000000000000 C12.750000000000000 71.000000000000000 23.050000000000011 71.000000000000000 28.199999999999989 71.000000000000000 C28.800000000000011 59.375000000000000 30.000000000000000 36.125000000000000 30.600000000000023 24.500000000000000 C36.100000000000023 36.125000000000000 47.100000000000023 59.375000000000000 52.600000000000023 71.000000000000000 C57.725000000000023 71.000000000000000 67.975000000000023 71.000000000000000 73.100000000000023 71.000000000000000 C63.200000000000045 53.250000000000000 43.399999999999977 17.750000000000000 33.500000000000000 0.000000000000000 C29.449999999999989 0.000000000000000 21.350000000000023 0.000000000000000 17.300000000000011 0.000000000000000 C14.875000000000000 17.750000000000000 10.024999999999977 53.250000000000000 7.600000000000023 71.000000000000000 z" />
<glyph unicode="W" horiz-adv-x="100.2" d="M6.900000000000000 71.000000000000000 C12.175000000000011 71.000000000000000 22.725000000000023 71.000000000000000 28.000000000000000 71.000000000000000 C28.875000000000000 58.824999999999989 30.625000000000000 34.475000000000023 31.500000000000000 22.300000000000011 C33.274999999999977 26.000000000000000 36.824999999999989 33.399999999999977 38.600000000000023 37.100000000000023 C44.875000000000000 37.100000000000023 57.424999999999955 37.100000000000023 63.700000000000045 37.100000000000023 C63.975000000000023 33.399999999999977 64.524999999999977 26.000000000000000 64.799999999999955 22.300000000000011 C70.799999999999955 34.475000000000023 82.799999999999955 58.824999999999989 88.799999999999955 71.000000000000000 C94.125000000000000 71.000000000000000 104.774999999999977 71.000000000000000 110.100000000000023 71.000000000000000 C99.750000000000000 53.250000000000000 79.049999999999955 17.750000000000000 68.700000000000045 0.000000000000000 C64.674999999999955 0.000000000000000 56.625000000000000 0.000000000000000 52.600000000000023 0.000000000000000 C51.625000000000000 6.350000000000023 49.674999999999955 19.050000000000011 48.700000000000045 25.399999999999977 C45.075000000000045 19.050000000000011 37.824999999999989 6.350000000000023 34.199999999999989 0.000000000000000 C30.175000000000011 0.000000000000000 22.125000000000000 0.000000000000000 18.100000000000023 0.000000000000000 C15.300000000000011 17.750000000000000 9.699999999999989 53.250000000000000 6.899999999999977 71.000000000000000 z" />
<glyph unicode="X" horiz-adv-x="63.100000000000001" d="M22.300000000000001 35.000000000000000 C18.649999999999977 44.000000000000000 11.350000000000023 62.000000000000000 7.699999999999989 71.000000000000000 C12.975000000000023 71.000000000000000 23.524999999999977 71.000000000000000 28.800000000000011 71.000000000000000 C30.475000000000023 65.400000000000006 33.824999999999989 54.199999999999989 35.500000000000000 48.600000000000023 C39.550000000000011 54.199999999999989 47.649999999999977 65.400000000000006 51.700000000000045 71.000000000000000 C56.950000000000045 71.000000000000000 67.450000000000045 71.000000000000000 72.700000000000045 71.000000000000000 C65.225000000000023 62.000000000000000 50.274999999999977 44.000000000000000 42.800000000000011 35.000000000000000 C46.299999999999955 26.250000000000000 53.299999999999955 8.750000000000000 56.799999999999955 0.000000000000000 C51.549999999999955 0.000000000000000 41.050000000000011 0.000000000000000 35.800000000000011 0.000000000000000 C34.274999999999977 5.350000000000023 31.225000000000023 16.050000000000011 29.699999999999989 21.399999999999977 C25.899999999999977 16.050000000000011 18.300000000000011 5.350000000000023 14.500000000000000 0.000000000000000 C9.225000000000023 0.000000000000000 -1.324999999999989 0.000000000000000 -6.600000000000023 0.000000000000000 C0.625000000000000 8.750000000000000 15.074999999999989 26.250000000000000 22.300000000000011 35.000000000000000 z" />
<glyph unicode="Y" horiz-adv-x="62.700000000000003" d="M19.800000000000001 23.699999999999999 C16.649999999999977 35.524999999999977 10.350000000000023 59.175000000000011 7.199999999999989 71.000000000000000 C12.475000000000023 71.000000000000000 23.024999999999977 71.000000000000000 28.300000000000011 71.000000000000000 C29.475000000000023 63.324999999999989 31.824999999999989 47.975000000000023 33.000000000000000 40.300000000000011 C37.524999999999977 47.975000000000023 46.575000000000045 63.324999999999989 51.100000000000023 71.000000000000000 C56.399999999999977 71.000000000000000 67.000000000000000 71.000000000000000 72.299999999999955 71.000000000000000 C64.000000000000000 59.125000000000000 47.399999999999977 35.375000000000000 39.100000000000023 23.500000000000000 C37.850000000000023 17.625000000000000 35.350000000000023 5.875000000000000 34.100000000000023 0.000000000000000 C29.250000000000000 0.000000000000000 19.550000000000011 0.000000000000000 14.699999999999989 0.000000000000000 C15.975000000000023 5.925000000000011 18.524999999999977 17.774999999999977 19.800000000000011 23.699999999999989 z" />
<glyph unicode="Z" horiz-adv-x="59.299999999999997" d="M-0.600000000000000 14.500000000000000 C9.074999999999989 24.375000000000000 28.425000000000011 44.125000000000000 38.100000000000023 54.000000000000000 C30.899999999999977 54.000000000000000 16.500000000000000 54.000000000000000 9.300000000000011 54.000000000000000 C10.199999999999989 58.250000000000000 12.000000000000000 66.750000000000000 12.899999999999977 71.000000000000000 C25.750000000000000 71.000000000000000 51.450000000000045 71.000000000000000 64.299999999999955 71.000000000000000 C63.524999999999977 67.375000000000000 61.975000000000023 60.125000000000000 61.200000000000045 56.500000000000000 C52.000000000000000 46.625000000000000 33.600000000000023 26.875000000000000 24.399999999999977 17.000000000000000 C31.649999999999977 17.000000000000000 46.149999999999977 17.000000000000000 53.399999999999977 17.000000000000000 C52.500000000000000 12.750000000000000 50.700000000000045 4.250000000000000 49.799999999999955 0.000000000000000 C36.425000000000011 0.000000000000000 9.675000000000011 0.000000000000000 -3.699999999999989 0.000000000000000 C-2.925000000000011 3.625000000000000 -1.375000000000000 10.875000000000000 -0.600000000000023 14.500000000000000 z" />
<glyph unicode="[" horiz-adv-x="34.600000000000001" d="M-1.000000000000000 -4.000000000000000 C3.149999999999977 15.500000000000000 11.449999999999989 54.500000000000000 15.600000000000023 74.000000000000000 C21.649999999999977 74.000000000000000 33.750000000000000 74.000000000000000 39.800000000000011 74.000000000000000 C39.000000000000000 70.250000000000000 37.399999999999977 62.750000000000000 36.600000000000023 59.000000000000000 C34.925000000000011 59.000000000000000 31.574999999999989 59.000000000000000 29.899999999999977 59.000000000000000 C27.350000000000023 47.000000000000000 22.250000000000000 23.000000000000000 19.699999999999989 11.000000000000000 C21.375000000000000 11.000000000000000 24.725000000000023 11.000000000000000 26.399999999999977 11.000000000000000 C25.625000000000000 7.250000000000000 24.074999999999989 -0.250000000000000 23.300000000000011 -4.000000000000000 C17.225000000000023 -4.000000000000000 5.074999999999989 -4.000000000000000 -1.000000000000000 -4.000000000000000 z" />
<glyph unicode="\" horiz-adv-x="66.299999999999997" d="M31.600000000000001 71.000000000000000 C38.149999999999977 53.250000000000000 51.250000000000000 17.750000000000000 57.799999999999955 0.000000000000000 C52.575000000000045 0.000000000000000 42.125000000000000 0.000000000000000 36.899999999999977 0.000000000000000 C30.324999999999989 17.750000000000000 17.175000000000011 53.250000000000000 10.600000000000023 71.000000000000000 C15.850000000000023 71.000000000000000 26.350000000000023 71.000000000000000 31.600000000000023 71.000000000000000 z" />
<glyph unicode="]" horiz-adv-x="34.700000000000003" d="M-3.100000000000000 -4.000000000000000 C-2.300000000000011 -0.250000000000000 -0.699999999999989 7.250000000000000 0.100000000000023 11.000000000000000 C1.800000000000011 11.000000000000000 5.199999999999989 11.000000000000000 6.899999999999977 11.000000000000000 C9.449999999999989 23.000000000000000 14.550000000000011 47.000000000000000 17.100000000000023 59.000000000000000 C15.399999999999977 59.000000000000000 12.000000000000000 59.000000000000000 10.300000000000011 59.000000000000000 C11.100000000000023 62.750000000000000 12.699999999999989 70.250000000000000 13.500000000000000 74.000000000000000 C19.550000000000011 74.000000000000000 31.649999999999977 74.000000000000000 37.699999999999989 74.000000000000000 C33.574999999999989 54.500000000000000 25.324999999999989 15.500000000000000 21.199999999999989 -4.000000000000000 C15.125000000000000 -4.000000000000000 2.975000000000023 -4.000000000000000 -3.100000000000023 -4.000000000000000 z" />
<glyph unicode="^" horiz-adv-x="63" d="M4.400000000000000 30.300000000000001 C9.350000000000023 40.475000000000023 19.250000000000000 60.824999999999989 24.199999999999989 71.000000000000000 C28.149999999999977 71.000000000000000 36.050000000000011 71.000000000000000 40.000000000000000 71.000000000000000 C44.924999999999955 60.824999999999989 54.774999999999977 40.475000000000023 59.700000000000045 30.300000000000011 C55.875000000000000 30.300000000000011 48.225000000000023 30.300000000000011 44.399999999999977 30.300000000000011 C41.324999999999989 36.625000000000000 35.175000000000011 49.274999999999977 32.100000000000023 55.600000000000023 C28.949999999999989 49.274999999999977 22.649999999999977 36.625000000000000 19.500000000000000 30.300000000000011 C15.725000000000023 30.300000000000011 8.175000000000011 30.300000000000011 4.399999999999977 30.300000000000011 z" />
<glyph unicode="_" horiz-adv-x="42.299999999999997" d="M-5.500000000000000 -17.000000000000000 C-4.600000000000023 -12.750000000000000 -2.800000000000011 -4.250000000000000 -1.899999999999977 0.000000000000000 C6.425000000000011 0.000000000000000 23.074999999999989 0.000000000000000 31.399999999999977 0.000000000000000 C30.500000000000000 -4.250000000000000 28.699999999999989 -12.750000000000000 27.800000000000011 -17.000000000000000 C19.475000000000023 -17.000000000000000 2.824999999999989 -17.000000000000000 -5.500000000000000 -17.000000000000000 z" />
<glyph unicode="`" horiz-adv-x="27.5" d="M4.500000000000000 73.000000000000000 C8.699999999999989 73.000000000000000 17.100000000000023 73.000000000000000 21.300000000000011 73.000000000000000 C21.725000000000023 69.449999999999989 22.574999999999989 62.350000000000023 23.000000000000000 58.800000000000011 C19.699999999999989 58.449999999999989 13.100000000000023 57.750000000000000 9.800000000000011 57.399999999999977 C8.475000000000023 61.300000000000011 5.824999999999989 69.099999999999994 4.500000000000000 73.000000000000000 z" />
<glyph unicode="a" horiz-adv-x="64.599999999999994" d="M19.300000000000001 -1.000000000000000 Q14.899999999999977 -1.000000000000000 11.449999999999989 0.550000000000011 Q8.000000000000000 2.100000000000023 5.600000000000023 4.899999999999977 Q3.199999999999989 7.699999999999989 1.949999999999989 11.600000000000023 Q0.699999999999989 15.500000000000000 0.699999999999989 20.199999999999989 Q0.699999999999989 27.000000000000000 3.000000000000000 33.050000000000011 Q5.300000000000011 39.100000000000023 9.199999999999989 43.699999999999989 Q13.100000000000023 48.300000000000011 18.250000000000000 50.949999999999989 Q23.399999999999977 53.600000000000023 29.100000000000023 53.600000000000023 Q33.899999999999977 53.600000000000023 37.350000000000023 51.300000000000011 Q40.800000000000011 49.000000000000000 42.000000000000000 44.800000000000011 C42.533333333333303 47.266666666666652 43.200000000000045 50.350000000000023 43.600000000000023 52.199999999999989 C48.375000000000000 52.199999999999989 57.924999999999955 52.199999999999989 62.700000000000045 52.199999999999989 C61.024999999999977 44.399999999999977 57.674999999999955 28.800000000000011 56.000000000000000 21.000000000000000 Q55.700000000000045 19.500000000000000 55.700000000000045 18.600000000000023 Q55.700000000000045 16.100000000000023 58.399999999999977 16.000000000000000 C57.266666666666652 10.666666666666686 55.850000000000023 4.000000000000000 55.000000000000000 0.000000000000000 Q50.000000000000000 -1.000000000000000 46.899999999999977 -1.000000000000000 Q42.399999999999977 -1.000000000000000 39.800000000000011 0.699999999999989 Q37.199999999999989 2.399999999999977 37.199999999999989 6.699999999999989 Q37.199999999999989 7.699999999999989 37.300000000000011 8.199999999999989 Q33.699999999999989 3.399999999999977 28.949999999999989 1.199999999999989 Q24.199999999999989 -1.000000000000000 19.300000000000011 -1.000000000000000 zM27.899999999999999 15.000000000000000 Q30.300000000000011 15.000000000000000 32.399999999999977 16.350000000000023 Q34.500000000000000 17.699999999999989 37.000000000000000 20.399999999999977 C37.666666666666686 23.533333333333303 38.500000000000000 27.449999999999989 39.000000000000000 29.800000000000011 Q38.500000000000000 33.300000000000011 36.550000000000011 35.449999999999989 Q34.600000000000023 37.600000000000023 31.899999999999977 37.600000000000023 Q29.800000000000011 37.600000000000023 27.800000000000011 36.399999999999977 Q25.800000000000011 35.199999999999989 24.199999999999989 33.199999999999989 Q22.600000000000023 31.300000000000011 21.649999999999977 28.699999999999989 Q20.699999999999989 26.100000000000023 20.699999999999989 23.300000000000011 Q20.699999999999989 19.500000000000000 22.550000000000011 17.250000000000000 Q24.399999999999977 15.000000000000000 27.899999999999977 15.000000000000000 z" />
<glyph unicode="b" horiz-adv-x="62.700000000000003" d="M30.500000000000000 -1.000000000000000 Q19.399999999999977 -1.000000000000000 16.600000000000023 8.199999999999989 C16.033333333333360 5.466666666666640 15.324999999999989 2.050000000000011 14.899999999999977 0.000000000000000 C10.774999999999977 0.000000000000000 2.524999999999977 0.000000000000000 -1.600000000000023 0.000000000000000 C2.274999999999977 18.250000000000000 10.024999999999977 54.750000000000000 13.899999999999977 73.000000000000000 C18.649999999999977 73.000000000000000 28.149999999999977 73.000000000000000 32.899999999999977 73.000000000000000 C31.399999999999977 65.949999999999989 28.399999999999977 51.850000000000023 26.899999999999977 44.800000000000011 Q29.699999999999989 48.899999999999977 34.149999999999977 51.250000000000000 Q38.600000000000023 53.600000000000023 43.600000000000023 53.600000000000023 Q47.600000000000023 53.600000000000023 50.750000000000000 52.050000000000011 Q53.899999999999977 50.500000000000000 56.000000000000000 47.699999999999989 Q58.200000000000045 44.899999999999977 59.299999999999955 41.000000000000000 Q60.399999999999977 37.100000000000023 60.399999999999977 32.500000000000000 Q60.399999999999977 25.500000000000000 57.950000000000045 19.399999999999977 Q55.500000000000000 13.300000000000011 51.299999999999955 8.699999999999989 Q47.200000000000045 4.199999999999989 41.800000000000011 1.600000000000023 Q36.399999999999977 -1.000000000000000 30.500000000000000 -1.000000000000000 zM28.699999999999999 15.000000000000000 Q31.100000000000023 15.000000000000000 33.199999999999989 16.050000000000011 Q35.300000000000011 17.100000000000023 36.899999999999977 18.899999999999977 Q38.500000000000000 20.800000000000011 39.449999999999989 23.300000000000011 Q40.399999999999977 25.800000000000011 40.399999999999977 28.699999999999989 Q40.399999999999977 32.500000000000000 38.699999999999989 35.050000000000011 Q37.000000000000000 37.600000000000023 34.100000000000023 37.600000000000023 Q31.500000000000000 37.600000000000023 28.600000000000023 35.449999999999989 Q25.699999999999989 33.300000000000011 23.699999999999989 29.800000000000011 C23.033333333333303 26.666666666666686 22.199999999999989 22.750000000000000 21.699999999999989 20.399999999999977 Q23.100000000000023 17.699999999999989 24.600000000000023 16.350000000000023 Q26.100000000000023 15.000000000000000 28.699999999999989 15.000000000000000 z" />
<glyph unicode="c" horiz-adv-x="55.5" d="M23.199999999999999 -1.000000000000000 Q17.500000000000000 -1.000000000000000 13.250000000000000 0.800000000000011 Q9.000000000000000 2.600000000000023 6.199999999999989 5.600000000000023 Q3.399999999999977 8.600000000000023 2.000000000000000 12.600000000000023 Q0.600000000000023 16.600000000000023 0.600000000000023 21.100000000000023 Q0.600000000000023 27.199999999999989 3.000000000000000 33.050000000000011 Q5.399999999999977 38.899999999999977 9.899999999999977 43.399999999999977 Q14.399999999999977 48.000000000000000 20.699999999999989 50.800000000000011 Q27.000000000000000 53.600000000000023 34.800000000000011 53.600000000000023 Q44.100000000000023 53.600000000000023 49.399999999999977 49.600000000000023 Q54.700000000000045 45.600000000000023 56.500000000000000 39.300000000000011 C49.933333333333280 37.433333333333337 41.725000000000023 35.100000000000023 36.800000000000011 33.699999999999989 Q35.199999999999989 37.600000000000023 31.300000000000011 37.600000000000023 Q29.199999999999989 37.600000000000023 27.250000000000000 36.550000000000011 Q25.300000000000011 35.500000000000000 23.699999999999989 33.600000000000023 Q22.199999999999989 31.699999999999989 21.300000000000011 29.050000000000011 Q20.399999999999977 26.399999999999977 20.399999999999977 23.199999999999989 Q20.399999999999977 19.399999999999977 22.050000000000011 17.199999999999989 Q23.699999999999989 15.000000000000000 26.500000000000000 15.000000000000000 Q30.300000000000011 15.000000000000000 33.600000000000023 18.899999999999977 C39.366666666666674 17.033333333333303 46.575000000000045 14.699999999999989 50.899999999999977 13.300000000000011 Q46.399999999999977 7.000000000000000 39.399999999999977 3.000000000000000 Q32.399999999999977 -1.000000000000000 23.199999999999989 -1.000000000000000 z" />
<glyph unicode="d" horiz-adv-x="64.5" d="M19.300000000000001 -1.000000000000000 Q14.899999999999977 -1.000000000000000 11.449999999999989 0.550000000000011 Q8.000000000000000 2.100000000000023 5.600000000000023 4.899999999999977 Q3.199999999999989 7.699999999999989 1.949999999999989 11.600000000000023 Q0.699999999999989 15.500000000000000 0.699999999999989 20.199999999999989 Q0.699999999999989 27.000000000000000 3.000000000000000 33.050000000000011 Q5.300000000000011 39.100000000000023 9.199999999999989 43.699999999999989 Q13.100000000000023 48.300000000000011 18.250000000000000 50.949999999999989 Q23.399999999999977 53.600000000000023 29.100000000000023 53.600000000000023 Q33.899999999999977 53.600000000000023 37.350000000000023 51.300000000000011 Q40.800000000000011 49.000000000000000 42.000000000000000 44.800000000000011 C44.000000000000000 54.199999999999989 46.500000000000000 65.949999999999989 48.000000000000000 73.000000000000000 C52.774999999999977 73.000000000000000 62.325000000000045 73.000000000000000 67.100000000000023 73.000000000000000 C64.325000000000045 60.000000000000000 58.774999999999977 34.000000000000000 56.000000000000000 21.000000000000000 Q55.700000000000045 19.500000000000000 55.700000000000045 18.600000000000023 Q55.700000000000045 16.100000000000023 58.399999999999977 16.000000000000000 C57.266666666666652 10.666666666666686 55.850000000000023 4.000000000000000 55.000000000000000 0.000000000000000 Q50.000000000000000 -1.000000000000000 46.899999999999977 -1.000000000000000 Q42.600000000000023 -1.000000000000000 39.850000000000023 0.600000000000023 Q37.100000000000023 2.199999999999989 37.100000000000023 6.199999999999989 Q37.100000000000023 6.699999999999989 37.149999999999977 7.199999999999989 Q37.199999999999989 7.699999999999989 37.300000000000011 8.199999999999989 Q33.699999999999989 3.399999999999977 28.949999999999989 1.199999999999989 Q24.199999999999989 -1.000000000000000 19.300000000000011 -1.000000000000000 zM27.899999999999999 15.000000000000000 Q30.300000000000011 15.000000000000000 32.399999999999977 16.350000000000023 Q34.500000000000000 17.699999999999989 37.000000000000000 20.399999999999977 C37.666666666666686 23.533333333333303 38.500000000000000 27.449999999999989 39.000000000000000 29.800000000000011 Q38.500000000000000 33.300000000000011 36.550000000000011 35.449999999999989 Q34.600000000000023 37.600000000000023 31.899999999999977 37.600000000000023 Q29.800000000000011 37.600000000000023 27.800000000000011 36.399999999999977 Q25.800000000000011 35.199999999999989 24.199999999999989 33.199999999999989 Q22.600000000000023 31.300000000000011 21.649999999999977 28.699999999999989 Q20.699999999999989 26.100000000000023 20.699999999999989 23.300000000000011 Q20.699999999999989 19.500000000000000 22.550000000000011 17.250000000000000 Q24.399999999999977 15.000000000000000 27.899999999999977 15.000000000000000 z" />
<glyph unicode="e" horiz-adv-x="56.600000000000001" d="M23.300000000000001 -1.000000000000000 Q18.199999999999989 -1.000000000000000 14.000000000000000 0.600000000000023 Q9.800000000000011 2.199999999999989 6.800000000000011 5.100000000000023 Q3.899999999999977 8.000000000000000 2.300000000000011 12.100000000000023 Q0.699999999999989 16.199999999999989 0.699999999999989 21.300000000000011 Q0.699999999999989 28.000000000000000 3.399999999999977 33.899999999999977 Q6.100000000000023 39.800000000000011 10.800000000000011 44.199999999999989 Q15.500000000000000 48.600000000000023 21.850000000000023 51.100000000000023 Q28.199999999999989 53.600000000000023 35.399999999999977 53.600000000000023 Q45.000000000000000 53.600000000000023 50.350000000000023 49.550000000000011 Q55.700000000000045 45.500000000000000 55.700000000000045 38.300000000000011 Q55.700000000000045 29.399999999999977 47.549999999999955 24.899999999999977 Q39.399999999999977 20.399999999999977 23.399999999999977 20.399999999999977 C22.433333333333337 20.399999999999977 21.225000000000023 20.399999999999977 20.500000000000000 20.399999999999977 Q20.500000000000000 16.100000000000023 21.949999999999989 14.350000000000023 Q23.399999999999977 12.600000000000023 26.899999999999977 12.600000000000023 Q33.300000000000011 12.600000000000023 36.699999999999989 18.000000000000000 C41.666666666666686 16.399999999999977 47.875000000000000 14.399999999999977 51.600000000000023 13.199999999999989 Q49.399999999999977 10.000000000000000 46.250000000000000 7.399999999999977 Q43.100000000000023 4.800000000000011 39.300000000000011 2.899999999999977 Q35.600000000000023 1.000000000000000 31.500000000000000 0.000000000000000 Q27.399999999999977 -1.000000000000000 23.300000000000011 -1.000000000000000 zM32.000000000000000 40.100000000000001 Q29.100000000000023 40.100000000000023 26.649999999999977 37.850000000000023 Q24.199999999999989 35.600000000000023 22.600000000000023 31.800000000000011 C22.833333333333314 31.800000000000011 23.125000000000000 31.800000000000011 23.300000000000011 31.800000000000011 Q31.000000000000000 31.800000000000011 34.050000000000011 32.750000000000000 Q37.100000000000023 33.699999999999989 37.100000000000023 36.199999999999989 Q37.100000000000023 37.899999999999977 35.699999999999989 39.000000000000000 Q34.300000000000011 40.100000000000023 32.000000000000000 40.100000000000023 z" />
<glyph unicode="f" horiz-adv-x="39.399999999999999" d="M8.600000000000000 32.200000000000003 C7.074999999999989 32.199999999999989 4.024999999999977 32.199999999999989 2.500000000000000 32.199999999999989 C3.274999999999977 35.774999999999977 4.824999999999989 42.925000000000011 5.600000000000023 46.500000000000000 C7.125000000000000 46.500000000000000 10.175000000000011 46.500000000000000 11.699999999999989 46.500000000000000 C12.000000000000000 47.925000000000011 12.600000000000023 50.774999999999977 12.899999999999977 52.199999999999989 Q13.899999999999977 57.100000000000023 16.100000000000023 61.149999999999977 Q18.300000000000011 65.199999999999989 21.399999999999977 68.000000000000000 Q24.500000000000000 70.900000000000006 28.250000000000000 72.449999999999989 Q32.000000000000000 74.000000000000000 36.199999999999989 74.000000000000000 Q42.500000000000000 74.000000000000000 49.700000000000045 71.000000000000000 C47.633333333333326 66.199999999999989 45.049999999999955 60.199999999999989 43.500000000000000 56.600000000000023 Q42.100000000000023 57.199999999999989 40.300000000000011 57.600000000000023 Q38.500000000000000 58.000000000000000 37.100000000000023 58.000000000000000 Q33.000000000000000 58.000000000000000 32.000000000000000 52.899999999999977 C31.533333333333360 50.766666666666652 30.949999999999989 48.100000000000023 30.600000000000023 46.500000000000000 C33.300000000000011 46.500000000000000 38.699999999999989 46.500000000000000 41.399999999999977 46.500000000000000 C40.625000000000000 42.925000000000011 39.074999999999989 35.774999999999977 38.300000000000011 32.199999999999989 C35.625000000000000 32.199999999999989 30.274999999999977 32.199999999999989 27.600000000000023 32.199999999999989 C24.750000000000000 18.824999999999989 19.050000000000011 -7.925000000000011 16.199999999999989 -21.300000000000011 C11.449999999999989 -21.300000000000011 1.949999999999989 -21.300000000000011 -2.800000000000011 -21.300000000000011 C0.050000000000011 -7.925000000000011 5.750000000000000 18.824999999999989 8.600000000000023 32.199999999999989 z" />
<glyph unicode="g" horiz-adv-x="62.600000000000001" d="M15.900000000000000 -22.300000000000001 Q8.000000000000000 -22.300000000000011 2.550000000000011 -19.699999999999989 Q-2.899999999999977 -17.100000000000023 -6.500000000000000 -12.199999999999989 C-2.433333333333337 -8.733333333333348 2.649999999999977 -4.399999999999977 5.699999999999989 -1.800000000000011 Q7.800000000000011 -4.500000000000000 11.199999999999989 -6.350000000000023 Q14.600000000000023 -8.199999999999989 18.800000000000011 -8.199999999999989 Q21.199999999999989 -8.199999999999989 23.550000000000011 -7.500000000000000 Q25.899999999999977 -6.800000000000011 27.800000000000011 -5.199999999999989 Q29.800000000000011 -3.699999999999989 31.300000000000011 -1.199999999999989 Q32.800000000000011 1.300000000000011 33.500000000000000 4.800000000000011 C33.733333333333348 5.933333333333337 34.024999999999977 7.350000000000023 34.199999999999989 8.199999999999989 Q31.300000000000011 4.000000000000000 26.850000000000023 2.000000000000000 Q22.399999999999977 0.000000000000000 17.600000000000023 0.000000000000000 Q13.600000000000023 0.000000000000000 10.449999999999989 1.550000000000011 Q7.300000000000011 3.100000000000023 5.100000000000023 5.800000000000011 Q3.000000000000000 8.500000000000000 1.899999999999977 12.250000000000000 Q0.800000000000011 16.000000000000000 0.800000000000011 20.399999999999977 Q0.800000000000011 27.300000000000011 3.199999999999989 33.350000000000023 Q5.600000000000023 39.399999999999977 9.699999999999989 43.899999999999977 Q13.800000000000011 48.399999999999977 19.250000000000000 51.000000000000000 Q24.699999999999989 53.600000000000023 30.699999999999989 53.600000000000023 Q36.000000000000000 53.600000000000023 39.550000000000011 51.350000000000023 Q43.100000000000023 49.100000000000023 44.500000000000000 44.800000000000011 C45.066666666666720 47.399999999999977 45.774999999999977 50.649999999999977 46.200000000000045 52.600000000000023 C50.325000000000045 52.600000000000023 58.575000000000045 52.600000000000023 62.700000000000045 52.600000000000023 C60.149999999999977 40.649999999999977 55.049999999999955 16.750000000000000 52.500000000000000 4.800000000000011 Q51.200000000000045 -1.399999999999977 47.950000000000045 -6.399999999999977 Q44.700000000000045 -11.399999999999977 39.899999999999977 -14.899999999999977 Q35.100000000000023 -18.399999999999977 29.000000000000000 -20.350000000000023 Q22.899999999999977 -22.300000000000011 15.899999999999977 -22.300000000000011 zM27.699999999999999 15.000000000000000 Q30.100000000000023 15.000000000000000 32.250000000000000 16.350000000000023 Q34.399999999999977 17.699999999999989 36.800000000000011 20.399999999999977 C37.466666666666640 23.533333333333303 38.300000000000011 27.449999999999989 38.800000000000011 29.800000000000011 Q38.300000000000011 33.399999999999977 36.300000000000011 35.500000000000000 Q34.300000000000011 37.600000000000023 31.699999999999989 37.600000000000023 Q29.600000000000023 37.600000000000023 27.649999999999977 36.399999999999977 Q25.699999999999989 35.199999999999989 24.100000000000023 33.199999999999989 Q22.500000000000000 31.199999999999989 21.550000000000011 28.649999999999977 Q20.600000000000023 26.100000000000023 20.600000000000023 23.300000000000011 Q20.600000000000023 19.600000000000023 22.500000000000000 17.300000000000011 Q24.399999999999977 15.000000000000000 27.699999999999989 15.000000000000000 z" />
<glyph unicode="h" horiz-adv-x="60.100000000000001" d="M13.900000000000000 73.000000000000000 C18.649999999999977 73.000000000000000 28.149999999999977 73.000000000000000 32.899999999999977 73.000000000000000 C31.399999999999977 65.949999999999989 28.399999999999977 51.850000000000023 26.899999999999977 44.800000000000011 Q30.399999999999977 49.100000000000023 35.100000000000023 51.350000000000023 Q39.800000000000011 53.600000000000023 45.100000000000023 53.600000000000023 Q48.799999999999955 53.600000000000023 51.250000000000000 52.649999999999977 Q53.700000000000045 51.699999999999989 55.100000000000023 50.000000000000000 Q56.500000000000000 48.399999999999977 57.049999999999955 46.300000000000011 Q57.600000000000023 44.199999999999989 57.600000000000023 42.000000000000000 Q57.600000000000023 40.100000000000023 57.350000000000023 38.199999999999989 Q57.100000000000023 36.300000000000011 56.700000000000045 34.600000000000023 C54.266666666666652 23.066666666666663 51.225000000000023 8.649999999999977 49.399999999999977 0.000000000000000 C44.649999999999977 0.000000000000000 35.149999999999977 0.000000000000000 30.399999999999977 0.000000000000000 C31.975000000000023 7.399999999999977 35.125000000000000 22.199999999999989 36.699999999999989 29.600000000000023 Q37.000000000000000 31.100000000000023 37.000000000000000 32.300000000000011 Q37.000000000000000 34.800000000000011 35.850000000000023 35.899999999999977 Q34.699999999999989 37.000000000000000 32.899999999999977 37.000000000000000 Q32.100000000000023 37.000000000000000 30.949999999999989 36.449999999999989 Q29.800000000000011 35.899999999999977 28.500000000000000 34.899999999999977 Q27.199999999999989 34.000000000000000 25.949999999999989 32.600000000000023 Q24.699999999999989 31.199999999999989 23.699999999999989 29.500000000000000 C21.600000000000023 19.666666666666686 18.975000000000023 7.375000000000000 17.399999999999977 0.000000000000000 C12.649999999999977 0.000000000000000 3.149999999999977 0.000000000000000 -1.600000000000023 0.000000000000000 C2.274999999999977 18.250000000000000 10.024999999999977 54.750000000000000 13.899999999999977 73.000000000000000 z" />
<glyph unicode="i" horiz-adv-x="28.600000000000001" d="M9.600000000000000 52.600000000000001 C14.350000000000023 52.600000000000023 23.850000000000023 52.600000000000023 28.600000000000023 52.600000000000023 C25.800000000000011 39.449999999999989 20.199999999999989 13.149999999999977 17.399999999999977 0.000000000000000 C12.649999999999977 0.000000000000000 3.149999999999977 0.000000000000000 -1.600000000000023 0.000000000000000 C1.199999999999989 13.149999999999977 6.800000000000011 39.449999999999989 9.600000000000023 52.600000000000023 zM13.900000000000000 73.000000000000000 C18.649999999999977 73.000000000000000 28.149999999999977 73.000000000000000 32.899999999999977 73.000000000000000 C32.050000000000011 69.000000000000000 30.350000000000023 61.000000000000000 29.500000000000000 57.000000000000000 C24.750000000000000 57.000000000000000 15.250000000000000 57.000000000000000 10.500000000000000 57.000000000000000 C11.350000000000023 61.000000000000000 13.050000000000011 69.000000000000000 13.899999999999977 73.000000000000000 z" />
<glyph unicode="j" horiz-adv-x="29" d="M-6.600000000000000 -20.899999999999999 Q-10.600000000000023 -20.899999999999977 -14.050000000000011 -19.500000000000000 Q-17.500000000000000 -18.100000000000023 -19.899999999999977 -15.500000000000000 C-16.399999999999977 -11.199999999999989 -12.024999999999977 -5.824999999999989 -9.399999999999977 -2.600000000000023 Q-8.199999999999989 -4.600000000000023 -5.600000000000023 -4.600000000000023 Q-2.300000000000011 -4.600000000000023 -1.300000000000011 -0.300000000000011 C2.433333333333337 17.333333333333314 7.100000000000023 39.375000000000000 9.899999999999977 52.600000000000023 C14.675000000000011 52.600000000000023 24.225000000000023 52.600000000000023 29.000000000000000 52.600000000000023 C26.274999999999977 39.750000000000000 20.824999999999989 14.050000000000011 18.100000000000023 1.199999999999989 Q17.000000000000000 -3.699999999999989 14.699999999999989 -7.750000000000000 Q12.399999999999977 -11.800000000000011 9.100000000000023 -14.699999999999989 Q5.899999999999977 -17.699999999999989 1.850000000000023 -19.300000000000011 Q-2.199999999999989 -20.899999999999977 -6.600000000000023 -20.899999999999977 zM14.300000000000001 73.000000000000000 C19.050000000000011 73.000000000000000 28.550000000000011 73.000000000000000 33.300000000000011 73.000000000000000 C32.449999999999989 69.000000000000000 30.750000000000000 61.000000000000000 29.899999999999977 57.000000000000000 C25.149999999999977 57.000000000000000 15.649999999999977 57.000000000000000 10.899999999999977 57.000000000000000 C11.750000000000000 61.000000000000000 13.449999999999989 69.000000000000000 14.300000000000011 73.000000000000000 z" />
<glyph unicode="k" horiz-adv-x="58.200000000000003" d="M13.900000000000000 73.000000000000000 C18.600000000000023 73.000000000000000 28.000000000000000 73.000000000000000 32.699999999999989 73.000000000000000 C30.925000000000011 64.699999999999989 27.375000000000000 48.100000000000023 25.600000000000023 39.800000000000011 Q33.199999999999989 53.100000000000023 44.700000000000045 53.100000000000023 Q50.200000000000045 53.100000000000023 53.200000000000045 49.899999999999977 Q56.200000000000045 46.699999999999989 56.200000000000045 40.699999999999989 Q56.200000000000045 34.000000000000000 52.799999999999955 28.350000000000023 Q49.399999999999977 22.699999999999989 43.200000000000045 18.899999999999977 C45.766666666666652 12.600000000000023 48.975000000000023 4.725000000000023 50.899999999999977 0.000000000000000 C45.899999999999977 0.000000000000000 35.899999999999977 0.000000000000000 30.899999999999977 0.000000000000000 C29.050000000000011 5.375000000000000 25.350000000000023 16.125000000000000 23.500000000000000 21.500000000000000 Q30.699999999999989 22.800000000000011 34.949999999999989 25.699999999999989 Q39.199999999999989 28.600000000000023 39.199999999999989 32.399999999999977 Q39.199999999999989 34.399999999999977 38.000000000000000 35.649999999999977 Q36.800000000000011 36.899999999999977 34.899999999999977 36.899999999999977 Q33.199999999999989 36.899999999999977 31.449999999999989 35.899999999999977 Q29.699999999999989 34.899999999999977 28.000000000000000 33.199999999999989 Q26.399999999999977 31.500000000000000 24.899999999999977 29.199999999999989 Q23.399999999999977 26.899999999999977 22.300000000000011 24.300000000000011 C20.600000000000023 16.199999999999989 18.475000000000023 6.074999999999989 17.199999999999989 0.000000000000000 C12.500000000000000 0.000000000000000 3.100000000000023 0.000000000000000 -1.600000000000023 0.000000000000000 C2.274999999999977 18.250000000000000 10.024999999999977 54.750000000000000 13.899999999999977 73.000000000000000 z" />
<glyph unicode="l" horiz-adv-x="34.5" d="M13.199999999999999 -1.000000000000000 Q6.899999999999977 -1.000000000000000 3.699999999999989 1.750000000000000 Q0.500000000000000 4.500000000000000 0.500000000000000 9.699999999999989 Q0.500000000000000 10.800000000000011 0.600000000000023 11.899999999999977 Q0.699999999999989 13.000000000000000 1.000000000000000 14.199999999999989 C5.166666666666686 33.800000000000011 10.375000000000000 58.300000000000011 13.500000000000000 73.000000000000000 C18.250000000000000 73.000000000000000 27.750000000000000 73.000000000000000 32.500000000000000 73.000000000000000 C29.725000000000023 59.975000000000023 24.175000000000011 33.925000000000011 21.399999999999977 20.899999999999977 Q21.100000000000023 19.699999999999989 21.100000000000023 18.699999999999989 Q21.100000000000023 14.899999999999977 24.699999999999989 14.899999999999977 Q25.800000000000011 14.899999999999977 27.199999999999989 15.300000000000011 Q28.600000000000023 15.699999999999989 29.899999999999977 16.399999999999977 C29.699999999999989 11.733333333333348 29.449999999999989 5.899999999999977 29.300000000000011 2.399999999999977 Q25.699999999999989 0.800000000000011 21.300000000000011 -0.100000000000023 Q16.899999999999977 -1.000000000000000 13.199999999999989 -1.000000000000000 z" />
<glyph unicode="m" horiz-adv-x="90.299999999999997" d="M9.600000000000000 52.600000000000001 C13.875000000000000 52.600000000000023 22.425000000000011 52.600000000000023 26.699999999999989 52.600000000000023 C26.274999999999977 50.649999999999977 25.425000000000011 46.750000000000000 25.000000000000000 44.800000000000011 Q28.500000000000000 49.100000000000023 33.750000000000000 51.350000000000023 Q39.000000000000000 53.600000000000023 44.700000000000045 53.600000000000023 Q48.000000000000000 53.600000000000023 50.200000000000045 52.850000000000023 Q52.399999999999977 52.100000000000023 53.700000000000045 50.800000000000011 Q55.100000000000023 49.600000000000023 55.750000000000000 47.949999999999989 Q56.399999999999977 46.300000000000011 56.600000000000023 44.500000000000000 Q60.100000000000023 48.800000000000011 65.250000000000000 51.199999999999989 Q70.399999999999977 53.600000000000023 76.000000000000000 53.600000000000023 Q79.600000000000023 53.600000000000023 81.850000000000023 52.600000000000023 Q84.100000000000023 51.600000000000023 85.399999999999977 50.000000000000000 Q86.799999999999955 48.399999999999977 87.299999999999955 46.300000000000011 Q87.799999999999955 44.199999999999989 87.799999999999955 42.000000000000000 Q87.799999999999955 41.100000000000023 87.649999999999977 39.300000000000011 Q87.500000000000000 37.500000000000000 86.899999999999977 34.600000000000023 C84.433333333333394 23.066666666666663 81.350000000000023 8.649999999999977 79.500000000000000 0.000000000000000 C74.750000000000000 0.000000000000000 65.250000000000000 0.000000000000000 60.500000000000000 0.000000000000000 C62.075000000000045 7.399999999999977 65.225000000000023 22.199999999999989 66.799999999999955 29.600000000000023 Q67.100000000000023 31.199999999999989 67.100000000000023 32.500000000000000 Q67.100000000000023 34.800000000000011 66.149999999999977 35.899999999999977 Q65.200000000000045 37.000000000000000 63.899999999999977 37.000000000000000 Q62.899999999999977 37.000000000000000 61.649999999999977 36.399999999999977 Q60.399999999999977 35.800000000000011 59.100000000000023 34.800000000000011 Q57.899999999999977 33.800000000000011 56.750000000000000 32.449999999999989 Q55.600000000000023 31.100000000000023 54.700000000000045 29.500000000000000 C52.633333333333326 19.666666666666686 50.049999999999955 7.375000000000000 48.500000000000000 0.000000000000000 C43.750000000000000 0.000000000000000 34.250000000000000 0.000000000000000 29.500000000000000 0.000000000000000 C31.074999999999989 7.399999999999977 34.224999999999966 22.199999999999989 35.800000000000011 29.600000000000023 Q36.100000000000023 31.199999999999989 36.100000000000023 32.500000000000000 Q36.100000000000023 34.800000000000011 35.149999999999977 35.899999999999977 Q34.199999999999989 37.000000000000000 32.800000000000011 37.000000000000000 Q31.800000000000011 37.000000000000000 30.550000000000011 36.399999999999977 Q29.300000000000011 35.800000000000011 28.000000000000000 34.800000000000011 Q26.800000000000011 33.800000000000011 25.649999999999977 32.399999999999977 Q24.500000000000000 31.000000000000000 23.699999999999989 29.500000000000000 C21.600000000000023 19.666666666666686 18.975000000000023 7.375000000000000 17.399999999999977 0.000000000000000 C12.649999999999977 0.000000000000000 3.149999999999977 0.000000000000000 -1.600000000000023 0.000000000000000 C1.199999999999989 13.149999999999977 6.800000000000011 39.449999999999989 9.600000000000023 52.600000000000023 z" />
<glyph unicode="n" horiz-adv-x="60.100000000000001" d="M9.600000000000000 52.600000000000001 C13.875000000000000 52.600000000000023 22.425000000000011 52.600000000000023 26.699999999999989 52.600000000000023 C26.274999999999977 50.649999999999977 25.425000000000011 46.750000000000000 25.000000000000000 44.800000000000011 Q28.500000000000000 49.100000000000023 33.750000000000000 51.350000000000023 Q39.000000000000000 53.600000000000023 45.500000000000000 53.600000000000023 Q49.100000000000023 53.600000000000023 51.450000000000045 52.600000000000023 Q53.799999999999955 51.600000000000023 55.100000000000023 49.899999999999977 Q56.500000000000000 48.199999999999989 57.000000000000000 46.050000000000011 Q57.500000000000000 43.899999999999977 57.500000000000000 41.699999999999989 Q57.500000000000000 39.800000000000011 57.250000000000000 38.000000000000000 Q57.000000000000000 36.199999999999989 56.700000000000045 34.600000000000023 C54.266666666666652 23.066666666666663 51.225000000000023 8.649999999999977 49.399999999999977 0.000000000000000 C44.649999999999977 0.000000000000000 35.149999999999977 0.000000000000000 30.399999999999977 0.000000000000000 C31.975000000000023 7.399999999999977 35.125000000000000 22.199999999999989 36.699999999999989 29.600000000000023 Q37.000000000000000 31.100000000000023 37.000000000000000 32.199999999999989 Q37.000000000000000 34.699999999999989 35.850000000000023 35.850000000000023 Q34.699999999999989 37.000000000000000 33.100000000000023 37.000000000000000 Q31.100000000000023 37.000000000000000 28.350000000000023 34.899999999999977 Q25.600000000000023 32.800000000000011 23.699999999999989 29.500000000000000 C21.600000000000023 19.666666666666686 18.975000000000023 7.375000000000000 17.399999999999977 0.000000000000000 C12.649999999999977 0.000000000000000 3.149999999999977 0.000000000000000 -1.600000000000023 0.000000000000000 C1.199999999999989 13.149999999999977 6.800000000000011 39.449999999999989 9.600000000000023 52.600000000000023 z" />
<glyph unicode="o" horiz-adv-x="59.600000000000001" d="M23.199999999999999 -1.000000000000000 Q17.500000000000000 -1.000000000000000 13.250000000000000 0.750000000000000 Q9.000000000000000 2.500000000000000 6.199999999999989 5.500000000000000 Q3.399999999999977 8.500000000000000 2.050000000000011 12.500000000000000 Q0.699999999999989 16.500000000000000 0.699999999999989 20.899999999999977 Q0.699999999999989 27.000000000000000 3.050000000000011 32.899999999999977 Q5.399999999999977 38.800000000000011 9.800000000000011 43.399999999999977 Q14.199999999999989 48.000000000000000 20.500000000000000 50.800000000000011 Q26.800000000000011 53.600000000000023 34.800000000000011 53.600000000000023 Q40.500000000000000 53.600000000000023 44.750000000000000 51.850000000000023 Q49.000000000000000 50.100000000000023 51.799999999999955 47.100000000000023 Q54.600000000000023 44.100000000000023 55.950000000000045 40.149999999999977 Q57.299999999999955 36.199999999999989 57.299999999999955 31.699999999999989 Q57.299999999999955 25.600000000000023 54.950000000000045 19.699999999999989 Q52.600000000000023 13.800000000000011 48.100000000000023 9.199999999999989 Q43.700000000000045 4.600000000000023 37.399999999999977 1.800000000000011 Q31.100000000000023 -1.000000000000000 23.199999999999989 -1.000000000000000 zM26.600000000000001 15.000000000000000 Q28.800000000000011 15.000000000000000 30.800000000000011 16.100000000000023 Q32.800000000000011 17.199999999999989 34.300000000000011 19.100000000000023 Q35.800000000000011 21.000000000000000 36.649999999999977 23.649999999999977 Q37.500000000000000 26.300000000000011 37.500000000000000 29.399999999999977 Q37.500000000000000 33.199999999999989 35.899999999999977 35.399999999999977 Q34.300000000000011 37.600000000000023 31.399999999999977 37.600000000000023 Q29.199999999999989 37.600000000000023 27.199999999999989 36.500000000000000 Q25.199999999999989 35.399999999999977 23.699999999999989 33.500000000000000 Q22.199999999999989 31.600000000000023 21.350000000000023 28.949999999999989 Q20.500000000000000 26.300000000000011 20.500000000000000 23.199999999999989 Q20.500000000000000 19.399999999999977 22.100000000000023 17.199999999999989 Q23.699999999999989 15.000000000000000 26.600000000000023 15.000000000000000 z" />
<glyph unicode="p" horiz-adv-x="62.600000000000001" d="M9.500000000000000 52.600000000000001 C13.625000000000000 52.600000000000023 21.875000000000000 52.600000000000023 26.000000000000000 52.600000000000023 C25.574999999999989 50.625000000000000 24.725000000000023 46.675000000000011 24.300000000000011 44.699999999999989 Q27.800000000000011 49.000000000000000 32.149999999999977 51.300000000000011 Q36.500000000000000 53.600000000000023 42.199999999999989 53.600000000000023 Q46.399999999999977 53.600000000000023 49.750000000000000 52.000000000000000 Q53.100000000000023 50.399999999999977 55.399999999999977 47.600000000000023 Q57.799999999999955 44.800000000000011 59.049999999999955 40.899999999999977 Q60.299999999999955 37.000000000000000 60.299999999999955 32.399999999999977 Q60.299999999999955 25.600000000000023 58.000000000000000 19.550000000000011 Q55.700000000000045 13.500000000000000 51.799999999999955 8.899999999999977 Q47.899999999999977 4.399999999999977 42.850000000000023 1.699999999999989 Q37.800000000000011 -1.000000000000000 32.399999999999977 -1.000000000000000 Q27.000000000000000 -1.000000000000000 23.550000000000011 1.250000000000000 Q20.100000000000023 3.500000000000000 19.000000000000000 7.800000000000011 C16.933333333333337 -1.899999999999977 14.350000000000023 -14.024999999999977 12.800000000000011 -21.300000000000011 C8.050000000000011 -21.300000000000011 -1.449999999999989 -21.300000000000011 -6.199999999999989 -21.300000000000011 C-2.274999999999977 -2.824999999999989 5.574999999999989 34.125000000000000 9.500000000000000 52.600000000000023 zM29.199999999999999 15.000000000000000 Q31.300000000000011 15.000000000000000 33.300000000000011 16.199999999999989 Q35.300000000000011 17.399999999999977 36.899999999999977 19.300000000000011 Q38.500000000000000 21.300000000000011 39.449999999999989 23.899999999999977 Q40.399999999999977 26.500000000000000 40.399999999999977 29.300000000000011 Q40.399999999999977 33.100000000000023 38.550000000000011 35.350000000000023 Q36.699999999999989 37.600000000000023 33.199999999999989 37.600000000000023 Q30.899999999999977 37.600000000000023 28.750000000000000 36.250000000000000 Q26.600000000000023 34.899999999999977 24.199999999999989 32.199999999999989 C23.533333333333303 29.166666666666686 22.699999999999989 25.375000000000000 22.199999999999989 23.100000000000023 Q22.699999999999989 19.600000000000023 24.649999999999977 17.300000000000011 Q26.600000000000023 15.000000000000000 29.199999999999989 15.000000000000000 z" />
<glyph unicode="q" horiz-adv-x="62.600000000000001" d="M16.899999999999999 -1.000000000000000 Q13.100000000000023 -1.000000000000000 10.100000000000023 0.550000000000011 Q7.100000000000023 2.100000000000023 5.000000000000000 4.899999999999977 Q2.899999999999977 7.699999999999989 1.800000000000011 11.550000000000011 Q0.699999999999989 15.399999999999977 0.699999999999989 20.000000000000000 Q0.699999999999989 27.000000000000000 3.149999999999977 33.149999999999977 Q5.600000000000023 39.300000000000011 9.699999999999989 43.800000000000011 Q13.800000000000011 48.399999999999977 19.149999999999977 51.000000000000000 Q24.500000000000000 53.600000000000023 30.399999999999977 53.600000000000023 Q36.100000000000023 53.600000000000023 39.399999999999977 51.199999999999989 Q42.699999999999989 48.800000000000011 44.399999999999977 44.500000000000000 C44.966666666666697 47.199999999999989 45.674999999999955 50.574999999999989 46.100000000000023 52.600000000000023 C50.225000000000023 52.600000000000023 58.475000000000023 52.600000000000023 62.600000000000023 52.600000000000023 C59.850000000000023 39.625000000000000 54.350000000000023 13.675000000000011 51.600000000000023 0.699999999999989 Q51.299999999999955 -0.500000000000000 51.299999999999955 -1.399999999999977 Q51.299999999999955 -4.199999999999989 55.100000000000023 -4.300000000000011 C53.966666666666697 -9.633333333333326 52.549999999999955 -16.300000000000011 51.700000000000045 -20.300000000000011 Q49.100000000000023 -20.800000000000011 46.149999999999977 -21.050000000000011 Q43.200000000000045 -21.300000000000011 41.000000000000000 -21.300000000000011 Q36.199999999999989 -21.300000000000011 33.149999999999977 -18.850000000000023 Q30.100000000000023 -16.399999999999977 30.100000000000023 -12.100000000000023 Q30.100000000000023 -11.000000000000000 30.399999999999977 -9.600000000000023 C31.633333333333326 -3.800000000000011 33.175000000000011 3.449999999999989 34.100000000000023 7.800000000000011 Q31.199999999999989 3.500000000000000 26.750000000000000 1.250000000000000 Q22.300000000000011 -1.000000000000000 16.899999999999977 -1.000000000000000 zM27.800000000000001 15.000000000000000 Q32.100000000000023 15.000000000000000 36.800000000000011 20.399999999999977 C37.466666666666640 23.533333333333303 38.300000000000011 27.449999999999989 38.800000000000011 29.800000000000011 Q38.199999999999989 33.300000000000011 36.250000000000000 35.449999999999989 Q34.300000000000011 37.600000000000023 31.699999999999989 37.600000000000023 Q29.600000000000023 37.600000000000023 27.550000000000011 36.399999999999977 Q25.500000000000000 35.199999999999989 23.899999999999977 33.199999999999989 Q22.399999999999977 31.300000000000011 21.449999999999989 28.750000000000000 Q20.500000000000000 26.199999999999989 20.500000000000000 23.399999999999977 Q20.500000000000000 19.600000000000023 22.399999999999977 17.300000000000011 Q24.300000000000011 15.000000000000000 27.800000000000011 15.000000000000000 z" />
<glyph unicode="r" horiz-adv-x="40.799999999999997" d="M9.600000000000000 52.600000000000001 C13.949999999999989 52.600000000000023 22.649999999999977 52.600000000000023 27.000000000000000 52.600000000000023 C26.449999999999989 50.100000000000023 25.350000000000023 45.100000000000023 24.800000000000011 42.600000000000023 Q28.600000000000023 47.899999999999977 33.149999999999977 50.750000000000000 Q37.699999999999989 53.600000000000023 42.199999999999989 53.600000000000023 Q43.299999999999955 53.600000000000023 43.700000000000045 53.600000000000023 Q44.100000000000023 53.600000000000023 44.399999999999977 53.500000000000000 C43.200000000000045 47.800000000000011 41.699999999999989 40.675000000000011 40.800000000000011 36.399999999999977 Q35.699999999999989 36.399999999999977 31.199999999999989 35.199999999999989 Q26.699999999999989 34.000000000000000 24.000000000000000 31.199999999999989 C21.800000000000011 20.800000000000011 19.050000000000011 7.800000000000011 17.399999999999977 0.000000000000000 C12.649999999999977 0.000000000000000 3.149999999999977 0.000000000000000 -1.600000000000023 0.000000000000000 C1.199999999999989 13.149999999999977 6.800000000000011 39.449999999999989 9.600000000000023 52.600000000000023 z" />
<glyph unicode="s" horiz-adv-x="48.5" d="M19.100000000000001 -1.000000000000000 Q12.500000000000000 -1.000000000000000 6.649999999999977 1.250000000000000 Q0.800000000000011 3.500000000000000 -2.699999999999989 7.800000000000011 C0.233333333333348 11.600000000000023 3.899999999999977 16.350000000000023 6.100000000000023 19.199999999999989 Q10.100000000000023 15.899999999999977 14.050000000000011 14.100000000000023 Q18.000000000000000 12.300000000000011 21.500000000000000 12.300000000000011 Q23.500000000000000 12.300000000000011 24.300000000000011 13.100000000000023 Q25.100000000000023 13.899999999999977 25.100000000000023 15.300000000000011 Q25.100000000000023 16.399999999999977 23.899999999999977 17.399999999999977 Q22.699999999999989 18.399999999999977 19.500000000000000 19.500000000000000 Q15.199999999999989 20.899999999999977 12.199999999999989 22.300000000000011 Q9.199999999999989 23.699999999999989 7.199999999999989 25.199999999999989 Q5.300000000000011 26.699999999999989 4.399999999999977 28.500000000000000 Q3.500000000000000 30.300000000000011 3.500000000000000 32.600000000000023 Q3.500000000000000 37.000000000000000 5.449999999999989 40.850000000000023 Q7.399999999999977 44.699999999999989 10.800000000000011 47.500000000000000 Q14.199999999999989 50.399999999999977 18.699999999999989 52.050000000000011 Q23.199999999999989 53.699999999999989 28.300000000000011 53.699999999999989 Q33.899999999999977 53.699999999999989 38.500000000000000 52.199999999999989 Q43.100000000000023 50.699999999999989 47.399999999999977 46.100000000000023 C44.233333333333348 42.300000000000011 40.274999999999977 37.550000000000011 37.899999999999977 34.699999999999989 Q33.800000000000011 37.800000000000011 31.000000000000000 39.199999999999989 Q28.199999999999989 40.600000000000023 25.600000000000023 40.600000000000023 Q23.899999999999977 40.600000000000023 22.899999999999977 39.750000000000000 Q21.899999999999977 38.899999999999977 21.899999999999977 37.399999999999977 Q21.899999999999977 36.100000000000023 23.250000000000000 35.250000000000000 Q24.600000000000023 34.399999999999977 28.100000000000023 33.300000000000011 Q36.800000000000011 30.699999999999989 40.449999999999989 27.600000000000023 Q44.100000000000023 24.500000000000000 44.100000000000023 19.600000000000023 Q44.100000000000023 15.000000000000000 42.300000000000011 11.199999999999989 Q40.500000000000000 7.399999999999977 37.199999999999989 4.699999999999989 Q33.899999999999977 2.000000000000000 29.300000000000011 0.500000000000000 Q24.699999999999989 -1.000000000000000 19.100000000000023 -1.000000000000000 z" />
<glyph unicode="t" horiz-adv-x="41.5" d="M17.199999999999999 -1.100000000000000 Q14.500000000000000 -1.100000000000023 12.199999999999989 -0.550000000000011 Q9.899999999999977 0.000000000000000 8.100000000000023 1.300000000000011 Q6.399999999999977 2.600000000000023 5.449999999999989 4.600000000000023 Q4.500000000000000 6.600000000000023 4.500000000000000 9.600000000000023 Q4.500000000000000 10.699999999999989 4.600000000000023 11.800000000000011 Q4.699999999999989 12.899999999999977 5.000000000000000 14.199999999999989 C6.699999999999989 22.233333333333348 8.824999999999989 32.274999999999977 10.100000000000023 38.300000000000011 C8.574999999999989 38.300000000000011 5.524999999999977 38.300000000000011 4.000000000000000 38.300000000000011 C4.774999999999977 41.875000000000000 6.324999999999989 49.024999999999977 7.100000000000023 52.600000000000023 C8.625000000000000 52.600000000000023 11.675000000000011 52.600000000000023 13.199999999999989 52.600000000000023 C14.074999999999989 56.725000000000023 15.824999999999989 64.974999999999994 16.699999999999989 69.099999999999994 C21.449999999999989 69.099999999999994 30.949999999999989 69.099999999999994 35.699999999999989 69.099999999999994 C34.824999999999989 64.974999999999994 33.074999999999989 56.725000000000023 32.199999999999989 52.600000000000023 C34.600000000000023 52.600000000000023 39.399999999999977 52.600000000000023 41.800000000000011 52.600000000000023 C41.050000000000011 49.024999999999977 39.550000000000011 41.875000000000000 38.800000000000011 38.300000000000011 C36.375000000000000 38.300000000000011 31.524999999999977 38.300000000000011 29.100000000000023 38.300000000000011 C28.175000000000011 33.949999999999989 26.324999999999989 25.250000000000000 25.399999999999977 20.899999999999977 Q25.300000000000011 20.399999999999977 25.250000000000000 19.949999999999989 Q25.199999999999989 19.500000000000000 25.199999999999989 19.100000000000023 Q25.199999999999989 16.199999999999989 28.199999999999989 16.199999999999989 Q29.399999999999977 16.199999999999989 31.250000000000000 16.649999999999977 Q33.100000000000023 17.100000000000023 35.100000000000023 17.899999999999977 C35.100000000000023 12.899999999999977 35.100000000000023 6.649999999999977 35.100000000000023 2.899999999999977 Q30.699999999999989 1.199999999999989 26.050000000000011 0.050000000000011 Q21.399999999999977 -1.100000000000023 17.199999999999989 -1.100000000000023 z" />
<glyph unicode="u" horiz-adv-x="61.799999999999997" d="M13.199999999999999 -1.000000000000000 Q7.199999999999989 -1.000000000000000 4.050000000000011 2.149999999999977 Q0.899999999999977 5.300000000000011 0.899999999999977 11.399999999999977 Q0.899999999999977 14.199999999999989 1.699999999999989 18.000000000000000 C4.166666666666686 29.533333333333303 7.250000000000000 43.949999999999989 9.100000000000023 52.600000000000023 C13.824999999999989 52.600000000000023 23.274999999999977 52.600000000000023 28.000000000000000 52.600000000000023 C26.399999999999977 45.024999999999977 23.199999999999989 29.875000000000000 21.600000000000023 22.300000000000011 Q21.300000000000011 20.800000000000011 21.300000000000011 19.600000000000023 Q21.300000000000011 15.000000000000000 25.100000000000023 15.000000000000000 Q26.800000000000011 15.000000000000000 29.000000000000000 16.000000000000000 Q31.199999999999989 17.000000000000000 34.100000000000023 20.399999999999977 C36.399999999999977 31.133333333333326 39.274999999999977 44.550000000000011 41.000000000000000 52.600000000000023 C45.750000000000000 52.600000000000023 55.250000000000000 52.600000000000023 60.000000000000000 52.600000000000023 C58.325000000000045 44.699999999999989 54.975000000000023 28.899999999999977 53.299999999999955 21.000000000000000 Q53.000000000000000 19.500000000000000 53.000000000000000 18.600000000000023 Q53.000000000000000 16.100000000000023 55.700000000000045 16.000000000000000 C54.566666666666720 10.666666666666686 53.149999999999977 4.000000000000000 52.299999999999955 0.000000000000000 Q47.299999999999955 -1.000000000000000 44.100000000000023 -1.000000000000000 Q39.800000000000011 -1.000000000000000 37.050000000000011 0.649999999999977 Q34.300000000000011 2.300000000000011 34.300000000000011 6.300000000000011 Q34.300000000000011 6.800000000000011 34.350000000000023 7.250000000000000 Q34.399999999999977 7.699999999999989 34.500000000000000 8.199999999999989 Q30.000000000000000 3.300000000000011 24.750000000000000 1.149999999999977 Q19.500000000000000 -1.000000000000000 13.199999999999989 -1.000000000000000 z" />
<glyph unicode="v" horiz-adv-x="54.799999999999997" d="M4.300000000000000 52.600000000000001 C9.225000000000023 52.600000000000023 19.074999999999989 52.600000000000023 24.000000000000000 52.600000000000023 C24.000000000000000 43.175000000000011 24.000000000000000 24.324999999999989 24.000000000000000 14.899999999999977 Q27.000000000000000 20.399999999999977 29.250000000000000 24.949999999999989 Q31.500000000000000 29.500000000000000 33.300000000000011 33.699999999999989 Q35.199999999999989 38.000000000000000 36.899999999999977 42.500000000000000 Q38.600000000000023 47.000000000000000 40.500000000000000 52.600000000000023 C46.166666666666629 52.600000000000023 53.250000000000000 52.600000000000023 57.500000000000000 52.600000000000023 Q53.899999999999977 39.500000000000000 46.649999999999977 26.300000000000011 Q39.399999999999977 13.100000000000023 29.199999999999989 0.000000000000000 C22.666666666666686 0.000000000000000 14.500000000000000 0.000000000000000 9.600000000000023 0.000000000000000 C8.274999999999977 13.149999999999977 5.625000000000000 39.449999999999989 4.300000000000011 52.600000000000023 z" />
<glyph unicode="w" horiz-adv-x="81.599999999999994" d="M3.400000000000000 52.600000000000001 C7.899999999999977 52.600000000000023 16.899999999999977 52.600000000000023 21.399999999999977 52.600000000000023 C22.350000000000023 43.774999999999977 24.250000000000000 26.125000000000000 25.199999999999989 17.300000000000011 C26.500000000000000 20.125000000000000 29.100000000000023 25.774999999999977 30.399999999999977 28.600000000000023 C35.500000000000000 28.600000000000023 45.700000000000045 28.600000000000023 50.799999999999955 28.600000000000023 C50.975000000000023 27.050000000000011 51.325000000000045 23.949999999999989 51.500000000000000 22.399999999999977 Q54.200000000000045 25.899999999999977 56.149999999999977 28.550000000000011 Q58.100000000000023 31.199999999999989 59.600000000000023 33.300000000000011 Q61.200000000000045 35.500000000000000 62.399999999999977 37.500000000000000 Q63.600000000000023 39.500000000000000 64.700000000000045 41.600000000000023 Q65.899999999999977 43.800000000000011 67.149999999999977 46.449999999999989 Q68.399999999999977 49.100000000000023 70.000000000000000 52.600000000000023 C75.666666666666629 52.600000000000023 82.750000000000000 52.600000000000023 87.000000000000000 52.600000000000023 Q81.600000000000023 39.500000000000000 72.700000000000045 26.300000000000011 Q63.799999999999955 13.100000000000023 51.700000000000045 0.000000000000000 C48.066666666666720 0.000000000000000 43.524999999999977 0.000000000000000 40.800000000000011 0.000000000000000 C40.300000000000011 5.000000000000000 39.300000000000011 15.000000000000000 38.800000000000011 20.000000000000000 C36.175000000000011 15.000000000000000 30.925000000000011 5.000000000000000 28.300000000000011 0.000000000000000 C24.399999999999977 0.000000000000000 16.600000000000023 0.000000000000000 12.699999999999989 0.000000000000000 C10.375000000000000 13.149999999999977 5.725000000000023 39.449999999999989 3.399999999999977 52.600000000000023 z" />
<glyph unicode="x" horiz-adv-x="53.5" d="M15.699999999999999 26.300000000000001 C12.975000000000023 32.875000000000000 7.524999999999977 46.024999999999977 4.800000000000011 52.600000000000023 C9.600000000000023 52.600000000000023 19.199999999999989 52.600000000000023 24.000000000000000 52.600000000000023 C24.949999999999989 49.375000000000000 26.850000000000023 42.925000000000011 27.800000000000011 39.699999999999989 C27.925000000000011 39.175000000000011 28.175000000000011 38.125000000000000 28.300000000000011 37.600000000000023 C28.625000000000000 38.125000000000000 29.274999999999977 39.175000000000011 29.600000000000023 39.699999999999989 C32.024999999999977 42.925000000000011 36.875000000000000 49.375000000000000 39.300000000000011 52.600000000000023 C44.049999999999955 52.600000000000023 53.549999999999955 52.600000000000023 58.299999999999955 52.600000000000023 C52.750000000000000 46.024999999999977 41.649999999999977 32.875000000000000 36.100000000000023 26.300000000000011 C38.975000000000023 19.725000000000023 44.725000000000023 6.574999999999989 47.600000000000023 0.000000000000000 C42.774999999999977 0.000000000000000 33.125000000000000 0.000000000000000 28.300000000000011 0.000000000000000 C27.199999999999989 3.225000000000023 25.000000000000000 9.675000000000011 23.899999999999977 12.899999999999977 C23.800000000000011 13.399999999999977 23.600000000000023 14.399999999999977 23.500000000000000 14.899999999999977 C23.175000000000011 14.399999999999977 22.524999999999977 13.399999999999977 22.199999999999989 12.899999999999977 C19.750000000000000 9.675000000000011 14.850000000000023 3.225000000000023 12.399999999999977 0.000000000000000 C7.574999999999989 0.000000000000000 -2.074999999999989 0.000000000000000 -6.899999999999977 0.000000000000000 C-1.250000000000000 6.574999999999989 10.050000000000011 19.725000000000023 15.699999999999989 26.300000000000011 z" />
<glyph unicode="y" horiz-adv-x="54.299999999999997" d="M-5.600000000000000 -9.300000000000001 Q-2.800000000000011 -9.300000000000011 -0.750000000000000 -9.100000000000023 Q1.300000000000011 -8.899999999999977 2.899999999999977 -8.300000000000011 Q4.500000000000000 -7.800000000000011 5.750000000000000 -6.899999999999977 Q7.000000000000000 -6.000000000000000 8.199999999999989 -4.500000000000000 C9.166666666666686 -3.366666666666674 10.375000000000000 -1.949999999999989 11.100000000000023 -1.100000000000023 C9.375000000000000 12.324999999999989 5.925000000000011 39.175000000000011 4.199999999999989 52.600000000000023 C9.024999999999977 52.600000000000023 18.675000000000011 52.600000000000023 23.500000000000000 52.600000000000023 C23.800000000000011 43.475000000000023 24.399999999999977 25.225000000000023 24.699999999999989 16.100000000000023 C25.550000000000011 17.500000000000000 27.250000000000000 20.300000000000011 28.100000000000023 21.699999999999989 Q31.699999999999989 27.699999999999989 34.649999999999977 35.600000000000023 Q37.600000000000023 43.500000000000000 39.300000000000011 52.600000000000023 C45.366666666666674 52.600000000000023 52.950000000000045 52.600000000000023 57.500000000000000 52.600000000000023 Q56.100000000000023 47.800000000000011 54.600000000000023 43.550000000000011 Q53.100000000000023 39.300000000000011 50.799999999999955 34.600000000000023 Q48.500000000000000 29.899999999999977 45.149999999999977 24.100000000000023 Q41.800000000000011 18.300000000000011 36.899999999999977 10.300000000000011 C34.233333333333348 6.000000000000000 30.899999999999977 0.625000000000000 28.899999999999977 -2.600000000000023 Q25.300000000000011 -8.399999999999977 21.750000000000000 -12.350000000000023 Q18.199999999999989 -16.300000000000011 14.300000000000011 -18.699999999999989 Q10.500000000000000 -21.199999999999989 6.149999999999977 -22.300000000000011 Q1.800000000000011 -23.399999999999977 -3.399999999999977 -23.399999999999977 C-4.133333333333326 -18.699999999999989 -5.050000000000011 -12.824999999999989 -5.600000000000023 -9.300000000000011 z" />
<glyph unicode="z" horiz-adv-x="47.200000000000003" d="M-1.800000000000000 11.199999999999999 C5.175000000000011 18.300000000000011 19.125000000000000 32.500000000000000 26.100000000000023 39.600000000000023 C21.000000000000000 39.600000000000023 10.800000000000011 39.600000000000023 5.699999999999989 39.600000000000023 C6.399999999999977 42.850000000000023 7.800000000000011 49.350000000000023 8.500000000000000 52.600000000000023 C18.550000000000011 52.600000000000023 38.649999999999977 52.600000000000023 48.700000000000045 52.600000000000023 C48.100000000000023 49.800000000000011 46.899999999999977 44.199999999999989 46.299999999999955 41.399999999999977 C39.324999999999989 34.300000000000011 25.375000000000000 20.100000000000023 18.399999999999977 13.000000000000000 C24.100000000000023 13.000000000000000 35.500000000000000 13.000000000000000 41.199999999999989 13.000000000000000 C40.500000000000000 9.750000000000000 39.100000000000023 3.250000000000000 38.399999999999977 0.000000000000000 C27.750000000000000 0.000000000000000 6.449999999999989 0.000000000000000 -4.199999999999989 0.000000000000000 C-3.600000000000023 2.800000000000011 -2.399999999999977 8.399999999999977 -1.800000000000011 11.199999999999989 z" />
<glyph unicode="{" horiz-adv-x="36" d="M32.500000000000000 59.000000000000000 C31.675000000000011 55.149999999999977 30.024999999999977 47.449999999999989 29.199999999999989 43.600000000000023 Q28.600000000000023 40.800000000000011 27.000000000000000 39.100000000000023 Q25.399999999999977 37.399999999999977 23.600000000000023 36.000000000000000 Q24.500000000000000 34.899999999999977 25.350000000000023 33.500000000000000 Q26.199999999999989 32.100000000000023 26.199999999999989 30.199999999999989 Q26.199999999999989 29.699999999999989 26.149999999999977 29.300000000000011 Q26.100000000000023 28.899999999999977 26.000000000000000 28.399999999999977 C24.833333333333314 22.899999999999977 23.375000000000000 16.024999999999977 22.500000000000000 11.899999999999977 C23.800000000000011 11.899999999999977 26.399999999999977 11.899999999999977 27.699999999999989 11.899999999999977 C26.899999999999977 8.149999999999977 25.300000000000011 0.649999999999977 24.500000000000000 -3.100000000000023 C19.500000000000000 -3.100000000000023 9.500000000000000 -3.100000000000023 4.500000000000000 -3.100000000000023 Q4.000000000000000 -3.100000000000023 3.399999999999977 -2.750000000000000 Q2.800000000000011 -2.399999999999977 2.800000000000011 -1.100000000000023 Q2.800000000000011 -0.500000000000000 2.899999999999977 -0.100000000000023 C4.466666666666640 7.233333333333348 6.425000000000011 16.399999999999977 7.600000000000023 21.899999999999977 Q7.699999999999989 22.399999999999977 7.750000000000000 22.750000000000000 Q7.800000000000011 23.100000000000023 7.800000000000011 23.600000000000023 Q7.800000000000011 26.100000000000023 6.399999999999977 27.649999999999977 Q5.000000000000000 29.199999999999989 3.399999999999977 29.600000000000023 C4.300000000000011 33.933333333333337 5.425000000000011 39.350000000000023 6.100000000000023 42.600000000000023 Q7.100000000000023 42.600000000000023 8.300000000000011 43.250000000000000 Q9.500000000000000 43.899999999999977 10.500000000000000 44.899999999999977 Q11.600000000000023 46.000000000000000 12.449999999999989 47.350000000000023 Q13.300000000000011 48.699999999999989 13.600000000000023 50.100000000000023 C15.066666666666663 57.066666666666663 16.899999999999977 65.775000000000006 18.000000000000000 71.000000000000000 Q18.399999999999977 72.800000000000011 19.350000000000023 73.400000000000006 Q20.300000000000011 74.000000000000000 20.899999999999977 74.000000000000000 C27.566666666666663 74.000000000000000 35.899999999999977 74.000000000000000 40.899999999999977 74.000000000000000 C40.100000000000023 70.250000000000000 38.500000000000000 62.750000000000000 37.699999999999989 59.000000000000000 C36.399999999999977 59.000000000000000 33.800000000000011 59.000000000000000 32.500000000000000 59.000000000000000 z" />
<glyph unicode="|" horiz-adv-x="35.799999999999997" d="M10.400000000000000 -13.000000000000000 C10.399999999999977 9.625000000000000 10.399999999999977 54.875000000000000 10.399999999999977 77.500000000000000 C14.399999999999977 77.500000000000000 22.399999999999977 77.500000000000000 26.399999999999977 77.500000000000000 C26.399999999999977 54.875000000000000 26.399999999999977 9.625000000000000 26.399999999999977 -13.000000000000000 C22.399999999999977 -13.000000000000000 14.399999999999977 -13.000000000000000 10.399999999999977 -13.000000000000000 z" />
<glyph unicode="}" horiz-adv-x="36.399999999999999" d="M11.100000000000000 59.000000000000000 C11.899999999999977 62.750000000000000 13.500000000000000 70.250000000000000 14.300000000000011 74.000000000000000 C19.300000000000011 74.000000000000000 29.300000000000011 74.000000000000000 34.300000000000011 74.000000000000000 Q34.800000000000011 74.000000000000000 35.399999999999977 73.550000000000011 Q36.000000000000000 73.099999999999994 36.000000000000000 72.000000000000000 Q36.000000000000000 71.400000000000006 35.899999999999977 71.000000000000000 C34.399999999999977 64.033333333333331 32.524999999999977 55.324999999999989 31.399999999999977 50.100000000000023 Q31.199999999999989 49.100000000000023 31.199999999999989 48.600000000000023 Q31.199999999999989 46.199999999999989 32.550000000000011 44.399999999999977 Q33.899999999999977 42.600000000000023 35.699999999999989 42.600000000000023 C34.766666666666652 38.266666666666652 33.600000000000023 32.850000000000023 32.899999999999977 29.600000000000023 Q30.800000000000011 29.100000000000023 28.449999999999989 27.100000000000023 Q26.100000000000023 25.100000000000023 25.399999999999977 21.899999999999977 C23.866666666666674 14.566666666666663 21.949999999999989 5.399999999999977 20.800000000000011 -0.100000000000023 Q20.399999999999977 -2.000000000000000 19.399999999999977 -2.550000000000011 Q18.399999999999977 -3.100000000000023 17.899999999999977 -3.100000000000023 C11.233333333333348 -3.100000000000023 2.899999999999977 -3.100000000000023 -2.100000000000023 -3.100000000000023 C-1.300000000000011 0.649999999999977 0.300000000000011 8.149999999999977 1.100000000000023 11.899999999999977 C2.399999999999977 11.899999999999977 5.000000000000000 11.899999999999977 6.300000000000011 11.899999999999977 C7.175000000000011 16.024999999999977 8.925000000000011 24.274999999999977 9.800000000000011 28.399999999999977 Q10.399999999999977 31.100000000000023 12.050000000000011 32.850000000000023 Q13.699999999999989 34.600000000000023 15.399999999999977 36.000000000000000 Q14.500000000000000 37.100000000000023 13.699999999999989 38.449999999999989 Q12.899999999999977 39.800000000000011 12.899999999999977 41.699999999999989 Q12.899999999999977 42.199999999999989 12.899999999999977 42.649999999999977 Q12.899999999999977 43.100000000000023 13.100000000000023 43.600000000000023 C14.199999999999989 48.733333333333348 15.574999999999989 55.149999999999977 16.399999999999977 59.000000000000000 C15.074999999999989 59.000000000000000 12.425000000000011 59.000000000000000 11.100000000000023 59.000000000000000 z" />
<glyph unicode="~" horiz-adv-x="58.700000000000003" d="M3.200000000000000 21.600000000000001 Q3.199999999999989 22.800000000000011 4.000000000000000 25.449999999999989 Q4.800000000000011 28.100000000000023 6.699999999999989 30.699999999999989 Q8.699999999999989 33.399999999999977 11.850000000000023 35.399999999999977 Q15.000000000000000 37.399999999999977 19.800000000000011 37.399999999999977 Q22.800000000000011 37.399999999999977 25.250000000000000 36.600000000000023 Q27.699999999999989 35.800000000000011 29.899999999999977 34.800000000000011 Q32.100000000000023 33.899999999999977 34.199999999999989 33.100000000000023 Q36.300000000000011 32.300000000000011 38.699999999999989 32.300000000000011 Q40.899999999999977 32.300000000000011 42.300000000000011 33.050000000000011 Q43.700000000000045 33.800000000000011 44.399999999999977 34.699999999999989 Q45.100000000000023 35.600000000000023 45.350000000000023 36.399999999999977 Q45.600000000000023 37.199999999999989 45.600000000000023 37.399999999999977 C48.933333333333394 37.399999999999977 53.100000000000023 37.399999999999977 55.600000000000023 37.399999999999977 Q55.600000000000023 36.600000000000023 54.750000000000000 34.050000000000011 Q53.899999999999977 31.500000000000000 51.899999999999977 28.699999999999989 Q50.000000000000000 25.899999999999977 46.750000000000000 23.750000000000000 Q43.500000000000000 21.600000000000023 38.600000000000023 21.600000000000023 Q35.699999999999989 21.600000000000023 33.300000000000011 22.350000000000023 Q30.899999999999977 23.100000000000023 28.600000000000023 24.000000000000000 Q26.399999999999977 24.899999999999977 24.250000000000000 25.649999999999977 Q22.100000000000023 26.399999999999977 19.699999999999989 26.399999999999977 Q17.399999999999977 26.399999999999977 16.100000000000023 25.699999999999989 Q14.800000000000011 25.000000000000000 14.199999999999989 24.100000000000023 Q13.600000000000023 23.199999999999989 13.449999999999989 22.449999999999989 Q13.300000000000011 21.699999999999989 13.300000000000011 21.600000000000023 C9.933333333333337 21.600000000000023 5.725000000000023 21.600000000000023 3.199999999999989 21.600000000000023 C3.199999999999989 21.600000000000023 3.199999999999989 21.600000000000023 3.199999999999989 21.600000000000023 z" />
<glyph unicode="" horiz-adv-x="22.300000000000001" d="" />
<glyph unicode="" horiz-adv-x="33.100000000000001" d="M28.399999999999999 41.000000000000000 C26.175000000000011 30.574999999999989 21.725000000000023 9.725000000000023 19.500000000000000 -0.699999999999989 C14.750000000000000 -0.699999999999989 5.250000000000000 -0.699999999999989 0.500000000000000 -0.699999999999989 C2.725000000000023 9.725000000000023 7.175000000000011 30.574999999999989 9.399999999999977 41.000000000000000 C14.149999999999977 41.000000000000000 23.649999999999977 41.000000000000000 28.399999999999977 41.000000000000000 zM34.700000000000003 71.000000000000000 C33.725000000000023 66.400000000000006 31.774999999999977 57.199999999999989 30.800000000000011 52.600000000000023 C26.050000000000011 52.600000000000023 16.550000000000011 52.600000000000023 11.800000000000011 52.600000000000023 C12.774999999999977 57.199999999999989 14.725000000000023 66.400000000000006 15.699999999999989 71.000000000000000 C20.449999999999989 71.000000000000000 29.949999999999989 71.000000000000000 34.699999999999989 71.000000000000000 z" />
<glyph unicode="" horiz-adv-x="59.899999999999999" d="M17.899999999999999 -12.000000000000000 C18.500000000000000 -9.225000000000023 19.699999999999989 -3.675000000000011 20.300000000000011 -0.899999999999977 Q16.100000000000023 -0.600000000000023 12.800000000000011 1.399999999999977 Q9.500000000000000 3.399999999999977 7.199999999999989 6.399999999999977 Q4.899999999999977 9.500000000000000 3.699999999999989 13.350000000000023 Q2.500000000000000 17.199999999999989 2.500000000000000 21.300000000000011 Q2.500000000000000 26.699999999999989 4.399999999999977 31.850000000000023 Q6.300000000000011 37.000000000000000 10.000000000000000 41.300000000000011 Q13.699999999999989 45.699999999999989 19.149999999999977 48.899999999999977 Q24.600000000000023 52.100000000000023 31.800000000000011 53.399999999999977 C32.600000000000023 57.100000000000023 33.600000000000023 61.725000000000023 34.199999999999989 64.500000000000000 C36.175000000000011 64.500000000000000 40.125000000000000 64.500000000000000 42.100000000000023 64.500000000000000 C41.500000000000000 61.725000000000023 40.300000000000011 56.175000000000011 39.699999999999989 53.399999999999977 Q42.800000000000011 53.300000000000011 45.750000000000000 52.399999999999977 Q48.700000000000045 51.500000000000000 51.100000000000023 49.699999999999989 Q53.600000000000023 48.000000000000000 55.500000000000000 45.399999999999977 Q57.399999999999977 42.800000000000011 58.500000000000000 39.300000000000011 C51.933333333333280 37.433333333333337 43.725000000000023 35.100000000000023 38.800000000000011 33.699999999999989 Q38.600000000000023 34.899999999999977 37.800000000000011 35.850000000000023 Q37.000000000000000 36.800000000000011 36.300000000000011 37.000000000000000 C34.766666666666652 29.833333333333314 32.850000000000023 20.875000000000000 31.699999999999989 15.500000000000000 Q33.100000000000023 16.199999999999989 33.949999999999989 17.050000000000011 Q34.800000000000011 17.899999999999977 35.600000000000023 18.899999999999977 C41.366666666666674 17.033333333333303 48.575000000000045 14.699999999999989 52.899999999999977 13.300000000000011 Q50.500000000000000 9.699999999999989 47.200000000000045 7.000000000000000 Q43.899999999999977 4.300000000000011 40.399999999999977 2.500000000000000 Q37.000000000000000 0.800000000000011 33.750000000000000 -0.100000000000023 Q30.500000000000000 -1.000000000000000 28.199999999999989 -1.000000000000000 C27.399999999999977 -4.666666666666686 26.399999999999977 -9.250000000000000 25.800000000000011 -12.000000000000000 C23.824999999999989 -12.000000000000000 19.875000000000000 -12.000000000000000 17.899999999999977 -12.000000000000000 zM22.199999999999999 22.600000000000001 Q22.199999999999989 20.899999999999977 22.600000000000023 19.199999999999989 Q23.000000000000000 17.500000000000000 23.899999999999977 16.399999999999977 C25.300000000000011 22.966666666666640 27.050000000000011 31.175000000000011 28.100000000000023 36.100000000000023 Q26.899999999999977 35.300000000000011 25.850000000000023 33.850000000000023 Q24.800000000000011 32.399999999999977 23.899999999999977 30.500000000000000 Q23.100000000000023 28.699999999999989 22.649999999999977 26.649999999999977 Q22.199999999999989 24.600000000000023 22.199999999999989 22.600000000000023 z" />
<glyph unicode="" horiz-adv-x="56.600000000000001" d="M7.800000000000000 38.799999999999997 C9.050000000000011 38.800000000000011 11.550000000000011 38.800000000000011 12.800000000000011 38.800000000000011 Q12.399999999999977 41.500000000000000 12.000000000000000 44.199999999999989 Q11.600000000000023 46.899999999999977 11.600000000000023 49.500000000000000 Q11.600000000000023 54.100000000000023 13.800000000000011 58.149999999999977 Q16.000000000000000 62.199999999999989 19.600000000000023 65.099999999999994 Q23.199999999999989 68.099999999999994 27.949999999999989 69.800000000000011 Q32.699999999999989 71.500000000000000 37.800000000000011 71.500000000000000 Q44.200000000000045 71.500000000000000 49.450000000000045 68.750000000000000 Q54.700000000000045 66.000000000000000 57.799999999999955 61.000000000000000 C53.799999999999955 57.100000000000023 48.799999999999955 52.225000000000023 45.799999999999955 49.300000000000011 Q44.000000000000000 52.199999999999989 40.750000000000000 54.199999999999989 Q37.500000000000000 56.199999999999989 34.500000000000000 56.199999999999989 Q31.600000000000023 56.199999999999989 29.850000000000023 54.300000000000011 Q28.100000000000023 52.399999999999977 28.100000000000023 49.199999999999989 Q28.100000000000023 47.000000000000000 28.600000000000023 44.350000000000023 Q29.100000000000023 41.699999999999989 29.500000000000000 38.800000000000011 C35.566666666666663 38.800000000000011 43.149999999999977 38.800000000000011 47.700000000000045 38.800000000000011 C46.950000000000045 35.300000000000011 45.450000000000045 28.300000000000011 44.700000000000045 24.800000000000011 C40.500000000000000 24.800000000000011 32.100000000000023 24.800000000000011 27.899999999999977 24.800000000000011 Q25.500000000000000 19.699999999999989 19.800000000000011 14.600000000000023 Q22.399999999999977 15.399999999999977 24.199999999999989 15.750000000000000 Q26.000000000000000 16.100000000000023 27.600000000000023 16.100000000000023 Q30.500000000000000 16.100000000000023 33.500000000000000 15.350000000000023 Q36.500000000000000 14.600000000000023 39.500000000000000 14.600000000000023 Q41.100000000000023 14.600000000000023 42.449999999999989 14.899999999999977 Q43.799999999999955 15.199999999999989 45.600000000000023 15.899999999999977 C46.133333333333326 11.233333333333348 46.799999999999955 5.399999999999977 47.200000000000045 1.899999999999977 Q44.799999999999955 0.399999999999977 41.399999999999977 -0.550000000000011 Q38.000000000000000 -1.500000000000000 35.100000000000023 -1.500000000000000 Q32.899999999999977 -1.500000000000000 30.600000000000023 -1.000000000000000 Q28.300000000000011 -0.500000000000000 25.899999999999977 0.100000000000023 Q23.600000000000023 0.800000000000011 21.199999999999989 1.300000000000011 Q18.800000000000011 1.800000000000011 16.399999999999977 1.800000000000011 Q13.699999999999989 1.800000000000011 9.750000000000000 1.050000000000011 Q5.800000000000011 0.300000000000011 1.899999999999977 -0.899999999999977 C1.600000000000023 3.566666666666663 1.225000000000023 9.149999999999977 1.000000000000000 12.500000000000000 Q4.100000000000023 14.300000000000011 7.050000000000011 17.600000000000023 Q10.000000000000000 20.899999999999977 11.699999999999989 24.800000000000011 C9.433333333333337 24.800000000000011 6.600000000000023 24.800000000000011 4.899999999999977 24.800000000000011 C5.625000000000000 28.300000000000011 7.074999999999989 35.300000000000011 7.800000000000011 38.800000000000011 z" />
<glyph unicode="" horiz-adv-x="58.600000000000001" d="M20.000000000000000 50.700000000000003 Q22.199999999999989 51.800000000000011 24.750000000000000 52.350000000000023 Q27.300000000000011 52.899999999999977 30.300000000000011 52.899999999999977 Q33.199999999999989 52.899999999999977 35.699999999999989 52.350000000000023 Q38.199999999999989 51.800000000000011 40.300000000000011 50.899999999999977 C42.566666666666663 53.199999999999989 45.399999999999977 56.074999999999989 47.100000000000023 57.800000000000011 C48.875000000000000 56.024999999999977 52.424999999999955 52.475000000000023 54.200000000000045 50.699999999999989 C52.625000000000000 49.125000000000000 49.475000000000023 45.975000000000023 47.899999999999977 44.399999999999977 Q49.299999999999955 42.100000000000023 50.100000000000023 39.399999999999977 Q50.899999999999977 36.699999999999989 50.899999999999977 33.800000000000011 Q50.899999999999977 27.899999999999977 47.799999999999955 23.100000000000023 C49.933333333333280 20.966666666666697 52.600000000000023 18.300000000000011 54.200000000000045 16.699999999999989 C52.549999999999955 15.050000000000011 49.250000000000000 11.750000000000000 47.600000000000023 10.100000000000023 C45.825000000000045 11.774999999999977 42.274999999999977 15.125000000000000 40.500000000000000 16.800000000000011 Q36.300000000000011 14.699999999999989 30.300000000000011 14.699999999999989 Q24.399999999999977 14.699999999999989 19.800000000000011 16.899999999999977 C17.399999999999977 14.633333333333326 14.399999999999977 11.800000000000011 12.600000000000023 10.100000000000023 C10.949999999999989 11.750000000000000 7.649999999999977 15.050000000000011 6.000000000000000 16.699999999999989 C7.649999999999977 18.350000000000023 10.949999999999989 21.649999999999977 12.600000000000023 23.300000000000011 Q9.699999999999989 28.000000000000000 9.699999999999989 33.800000000000011 Q9.699999999999989 36.600000000000023 10.399999999999977 39.199999999999989 Q11.100000000000023 41.800000000000011 12.500000000000000 44.100000000000023 C10.333333333333314 46.300000000000011 7.625000000000000 49.050000000000011 6.000000000000000 50.699999999999989 C7.774999999999977 52.475000000000023 11.324999999999989 56.024999999999977 13.100000000000023 57.800000000000011 C14.824999999999989 56.024999999999977 18.274999999999977 52.475000000000023 20.000000000000000 50.699999999999989 zM23.000000000000000 33.799999999999997 Q23.000000000000000 30.100000000000023 25.050000000000011 28.000000000000000 Q27.100000000000023 25.899999999999977 30.300000000000011 25.899999999999977 Q33.500000000000000 25.899999999999977 35.550000000000011 28.000000000000000 Q37.600000000000023 30.100000000000023 37.600000000000023 33.800000000000011 Q37.600000000000023 37.500000000000000 35.550000000000011 39.600000000000023 Q33.500000000000000 41.699999999999989 30.300000000000011 41.699999999999989 Q27.100000000000023 41.699999999999989 25.050000000000011 39.600000000000023 Q23.000000000000000 37.500000000000000 23.000000000000000 33.800000000000011 z" />
<glyph unicode="" horiz-adv-x="71.700000000000003" d="M57.700000000000003 43.200000000000003 C59.174999999999955 43.199999999999989 62.125000000000000 43.199999999999989 63.600000000000023 43.199999999999989 C62.975000000000023 40.199999999999989 61.725000000000023 34.199999999999989 61.100000000000023 31.199999999999989 C58.075000000000045 31.199999999999989 52.024999999999977 31.199999999999989 49.000000000000000 31.199999999999989 C47.649999999999977 29.274999999999977 44.950000000000045 25.425000000000011 43.600000000000023 23.500000000000000 C43.424999999999955 22.675000000000011 43.075000000000045 21.024999999999977 42.899999999999977 20.199999999999989 C46.875000000000000 20.199999999999989 54.825000000000045 20.199999999999989 58.799999999999955 20.199999999999989 C58.174999999999955 17.199999999999989 56.924999999999955 11.199999999999989 56.299999999999955 8.199999999999989 C52.299999999999955 8.199999999999989 44.299999999999955 8.199999999999989 40.300000000000011 8.199999999999989 C39.875000000000000 6.149999999999977 39.024999999999977 2.050000000000011 38.600000000000023 0.000000000000000 C33.750000000000000 0.000000000000000 24.050000000000011 0.000000000000000 19.199999999999989 0.000000000000000 C19.625000000000000 2.050000000000011 20.475000000000023 6.149999999999977 20.899999999999977 8.199999999999989 C16.949999999999989 8.199999999999989 9.050000000000011 8.199999999999989 5.100000000000023 8.199999999999989 C5.750000000000000 11.199999999999989 7.050000000000011 17.199999999999989 7.699999999999989 20.199999999999989 C11.649999999999977 20.199999999999989 19.550000000000011 20.199999999999989 23.500000000000000 20.199999999999989 C23.675000000000011 21.074999999999989 24.024999999999977 22.824999999999989 24.199999999999989 23.699999999999989 C23.699999999999989 25.574999999999989 22.699999999999989 29.324999999999989 22.199999999999989 31.199999999999989 C19.175000000000011 31.199999999999989 13.125000000000000 31.199999999999989 10.100000000000023 31.199999999999989 C10.725000000000023 34.199999999999989 11.975000000000023 40.199999999999989 12.600000000000023 43.199999999999989 C14.125000000000000 43.199999999999989 17.175000000000011 43.199999999999989 18.699999999999989 43.199999999999989 C16.925000000000011 50.149999999999977 13.375000000000000 64.050000000000011 11.600000000000023 71.000000000000000 C16.875000000000000 71.000000000000000 27.425000000000011 71.000000000000000 32.699999999999989 71.000000000000000 C33.899999999999977 63.324999999999989 36.300000000000011 47.975000000000023 37.500000000000000 40.300000000000011 C42.000000000000000 47.975000000000023 51.000000000000000 63.324999999999989 55.500000000000000 71.000000000000000 C60.799999999999955 71.000000000000000 71.399999999999977 71.000000000000000 76.700000000000045 71.000000000000000 C71.950000000000045 64.050000000000011 62.450000000000045 50.149999999999977 57.700000000000045 43.199999999999989 z" />
<glyph unicode="" horiz-adv-x="35" d="M26.000000000000000 25.399999999999999 C26.000000000000000 15.800000000000011 26.000000000000000 -3.399999999999977 26.000000000000000 -13.000000000000000 C22.000000000000000 -13.000000000000000 14.000000000000000 -13.000000000000000 10.000000000000000 -13.000000000000000 C10.000000000000000 -3.399999999999977 10.000000000000000 15.800000000000011 10.000000000000000 25.399999999999977 C14.000000000000000 25.399999999999977 22.000000000000000 25.399999999999977 26.000000000000000 25.399999999999977 zM26.000000000000000 77.500000000000000 C26.000000000000000 67.900000000000006 26.000000000000000 48.699999999999989 26.000000000000000 39.100000000000023 C22.000000000000000 39.100000000000023 14.000000000000000 39.100000000000023 10.000000000000000 39.100000000000023 C10.000000000000000 48.699999999999989 10.000000000000000 67.900000000000006 10.000000000000000 77.500000000000000 C14.000000000000000 77.500000000000000 22.000000000000000 77.500000000000000 26.000000000000000 77.500000000000000 z" />
</font>
</defs>
</svg>
